<svg width="48" height="48" viewBox="0 0 48 48" fill="none" xmlns="http://www.w3.org/2000/svg">
<rect width="48" height="48" rx="24" fill="url(#paint0_linear_60_2838)"/>
<path d="M23.8594 15.6016C25.2551 15.6016 26.5912 16.0364 27.7178 16.8613C28.8438 17.6861 29.666 18.8251 30.0879 20.1641C30.4866 21.4105 30.5032 22.7217 30.1377 23.9736L30.0596 24.2227C29.6153 25.5454 28.7775 26.6727 27.6387 27.4814H27.6377C27.5228 27.562 27.3915 27.6006 27.2607 27.6006C27.0574 27.6005 26.8538 27.5048 26.7266 27.3232V27.3242C26.5157 27.0287 26.5844 26.6202 26.8809 26.4121L27.0527 26.2852C28.7923 24.9428 29.5095 22.6691 28.8379 20.5576C28.1449 18.3781 26.142 16.9131 23.8525 16.9131C21.5636 16.9133 19.5605 18.3782 18.8672 20.5576C18.1807 22.7181 18.9708 25.0579 20.8408 26.3838L20.9512 26.4678C21.4901 26.9004 21.8086 27.5595 21.8086 28.2539V28.5898L26.5791 28.5928H26.6494V28.5938C27.4424 28.6648 28.0615 29.3416 28.0615 30.1406C28.0613 30.9393 27.4455 31.6163 26.6494 31.6875L26.6387 31.6885V31.6875H26.623V31.6865C26.6041 31.6885 26.5879 31.6895 26.582 31.6895L26.583 31.6904L22.251 31.6924L22.252 31.6934C22.1213 31.7017 22.0205 31.8093 22.0205 31.9395C22.0206 32.0718 22.1235 32.1783 22.2529 32.1846H22.252L25.8086 32.2188H25.876V32.2197C26.6681 32.2944 27.2832 32.9677 27.2832 33.7666C27.283 34.5659 26.6639 35.2427 25.8613 35.3105L25.8506 35.3115V35.3105H25.8359V35.3086C25.8169 35.3106 25.8008 35.3135 25.7949 35.3135L22.6299 35.3164C22.2683 35.3164 21.9758 35.0244 21.9756 34.6631C21.9756 34.3017 22.2681 34.0088 22.6299 34.0088L25.7568 34.0049C25.8795 33.9888 25.9724 33.8843 25.9727 33.7637C25.9727 33.6414 25.8778 33.5351 25.7529 33.5205V33.5195L22.2178 33.4863H22.1943C21.3594 33.449 20.7063 32.769 20.7061 31.9336C20.7061 31.0974 21.3627 30.4172 22.1943 30.3799H22.2246L26.5439 30.376C26.667 30.3599 26.7598 30.2546 26.7598 30.1338C26.7596 30.013 26.6671 29.907 26.5439 29.8906L21.6152 29.8887C21.0015 29.8887 20.5041 29.3909 20.5039 28.7773V28.2451C20.5039 27.9276 20.3486 27.6295 20.0889 27.4443C17.7543 25.7916 16.7672 22.8592 17.627 20.1553V20.1543C18.052 18.8249 18.8749 17.6862 20.001 16.8613C21.1273 16.0364 22.4632 15.6016 23.8594 15.6016Z" fill="#8F72F5" stroke="#8F72F5" stroke-width="0.25"/>
<path d="M16.4951 21.5957C16.8067 21.5957 17.0556 21.8446 17.0557 22.1562C17.0557 22.4649 16.8038 22.7168 16.4951 22.7168H14.8145C14.5059 22.7167 14.2539 22.4648 14.2539 22.1562C14.254 21.8477 14.5059 21.5958 14.8145 21.5957H16.4951Z" fill="#8F72F5" stroke="#8F72F5" stroke-width="0.25"/>
<path d="M23.8438 12.5664C24.1521 12.5664 24.4041 12.8183 24.4043 13.127V14.8076C24.4043 15.1163 24.1522 15.3682 23.8438 15.3682C23.5319 15.368 23.2832 15.1194 23.2832 14.8076V13.127C23.2834 12.8184 23.5352 12.5666 23.8438 12.5664Z" fill="#8F72F5" stroke="#8F72F5" stroke-width="0.25"/>
<path d="M17.0781 15.3516C17.2989 15.1349 17.6548 15.139 17.8711 15.3594L19.0508 16.5703L19.1211 16.6582C19.2626 16.8768 19.2347 17.1722 19.043 17.3613C18.9334 17.4709 18.7892 17.5234 18.6504 17.5234C18.5058 17.5234 18.3617 17.467 18.251 17.3564L18.249 17.3545L17.0693 16.1445C16.8531 15.9238 16.8579 15.5675 17.0781 15.3516Z" fill="#8F72F5" stroke="#8F72F5" stroke-width="0.25"/>
<path d="M29.8457 15.3604C30.0614 15.1407 30.4143 15.1322 30.6387 15.3525L30.7109 15.4395C30.8356 15.6245 30.8385 15.8689 30.7178 16.0566L30.6465 16.1455L29.4668 17.3545L29.4678 17.3555C29.3584 17.469 29.2098 17.5244 29.0664 17.5244C28.9273 17.5244 28.7824 17.4728 28.6729 17.3633V17.3623C28.4539 17.1459 28.4497 16.7916 28.666 16.5713L29.8457 15.3604Z" fill="#8F72F5" stroke="#8F72F5" stroke-width="0.25"/>
<path d="M32.9014 21.5957C33.2094 21.5957 33.4618 21.8441 33.4619 22.1562C33.4619 22.4649 33.21 22.7168 32.9014 22.7168H31.1895C30.8809 22.7167 30.6289 22.4648 30.6289 22.1562C30.629 21.8477 30.8809 21.5958 31.1895 21.5957H32.9014Z" fill="#8F72F5" stroke="#8F72F5" stroke-width="0.25"/>
<defs>
<linearGradient id="paint0_linear_60_2838" x1="0" y1="0" x2="50.9039" y2="3.30748" gradientUnits="userSpaceOnUse">
<stop stop-color="#E8E0FF"/>
<stop offset="1" stop-color="#FFFDD3"/>
</linearGradient>
</defs>
</svg>
