<svg width="48" height="48" viewBox="0 0 48 48" fill="none" xmlns="http://www.w3.org/2000/svg">
<rect width="48" height="48" rx="24" fill="url(#paint0_linear_60_2888)"/>
<g clip-path="url(#clip0_60_2888)">
<mask id="path-2-outside-1_60_2888" maskUnits="userSpaceOnUse" x="11.3751" y="11.8145" width="25" height="24" fill="black">
<rect fill="white" x="11.3751" y="11.8145" width="25" height="24"/>
<path d="M21.6031 24.4222C21.6466 24.4387 21.6917 24.4467 21.7364 24.4467C21.8414 24.4467 21.9441 24.4025 22.0166 24.3209C22.6501 23.6086 23.4652 23.0942 24.3736 22.833C24.5343 22.7869 24.6451 22.6399 24.6451 22.4727V16.8773H25.2169C25.47 16.8773 25.696 16.7359 25.8067 16.5079C25.9171 16.2802 25.8885 16.0152 25.7319 15.8163L23.5655 13.0646C23.4386 12.9033 23.2556 12.8145 23.0504 12.8145C22.8452 12.8145 22.6624 12.9032 22.5353 13.0645L20.3687 15.8163C20.2121 16.0153 20.1836 16.2803 20.2942 16.5081C20.4047 16.7359 20.6307 16.8773 20.8838 16.8773H21.3614V24.0717C21.3614 24.2274 21.4576 24.3668 21.6031 24.4222ZM21.0784 16.1273L23.0504 13.6227L25.0223 16.1273H24.27C24.0629 16.1273 23.895 16.2953 23.895 16.5023V22.1977C23.245 22.42 22.6418 22.7571 22.1114 23.1925V16.5023C22.1114 16.4029 22.0718 16.3075 22.0015 16.2372C21.9312 16.1669 21.8358 16.1273 21.7364 16.1273H21.0784ZM35.3748 28.9288L32.623 26.7623C32.424 26.6056 32.159 26.577 31.9312 26.6876C31.7035 26.7983 31.562 27.0242 31.562 27.2773L31.562 27.7549H25.7234C25.5163 27.7549 25.3484 27.9228 25.3484 28.1299V30.6636C25.3484 30.8707 25.5163 31.0386 25.7234 31.0386H31.562V31.6104C31.562 31.8636 31.7035 32.0895 31.9313 32.2001C32.0233 32.2448 32.1213 32.2667 32.2186 32.2667C32.3623 32.2667 32.5045 32.2188 32.6231 32.1254L35.3748 29.9589C35.5361 29.832 35.6249 29.6491 35.6249 29.4438C35.6249 29.2387 35.5361 29.0558 35.3748 28.9288ZM32.312 31.4159V30.6636C32.312 30.4565 32.1441 30.2886 31.937 30.2886H26.0984V28.5049H31.937C32.0365 28.5049 32.1318 28.4654 32.2022 28.395C32.2725 28.3247 32.312 28.2293 32.312 28.1299L32.312 27.4719L34.8167 29.4439L32.312 31.4159ZM27.311 26.5794C29.7065 26.5794 31.6553 24.6306 31.6553 22.2351L31.6554 19.3978H32.2272C32.4804 19.3978 32.7064 19.2563 32.817 19.0285C32.9275 18.8008 32.8989 18.5357 32.7422 18.3368L30.5757 15.5849C30.4488 15.4237 30.2659 15.3349 30.0607 15.3349C29.8556 15.3349 29.6727 15.4237 29.5456 15.585L27.3792 18.3367C27.2224 18.5356 27.1938 18.8007 27.3045 19.0285C27.415 19.2563 27.641 19.3978 27.8941 19.3978H28.3717L28.3718 22.2351C28.3718 22.82 27.8959 23.2958 27.311 23.2958H25.7529C23.3574 23.2958 21.4086 25.2446 21.4086 27.6401V34.8093C21.4086 35.0164 21.5765 35.1843 21.7836 35.1843H24.3172C24.5243 35.1843 24.6922 35.0164 24.6922 34.8093V27.6401C24.6922 27.0552 25.168 26.5794 25.7529 26.5794H27.311ZM23.9422 27.6401V34.4343H22.1586V27.6401C22.1586 25.6582 23.7709 24.0458 25.7529 24.0458H27.311C28.3095 24.0458 29.1218 23.2335 29.1218 22.2351L29.1217 19.0228C29.1217 18.9233 29.0822 18.828 29.0119 18.7576C28.9415 18.6873 28.8461 18.6478 28.7467 18.6478H28.0888L30.0607 16.1431L32.0326 18.6478H31.2803C31.0733 18.6478 30.9053 18.8157 30.9053 19.0228L30.9053 22.2351C30.9053 24.217 29.2929 25.8294 27.311 25.8294H25.7528C24.7545 25.8294 23.9422 26.6416 23.9422 27.6401ZM20.3773 27.7549H17.9401C17.3512 27.7549 16.872 27.2757 16.872 26.6868C16.872 25.4065 16.8758 24.1118 16.8794 22.8599C16.8827 21.7273 16.8862 20.5599 16.8868 19.3978H17.3644C17.6176 19.3978 17.8437 19.2562 17.9541 19.0285C18.0646 18.8007 18.0361 18.5356 17.8794 18.3368L15.7129 15.5848C15.5859 15.4237 15.403 15.3349 15.1979 15.3349C14.9926 15.3349 14.8096 15.4237 14.6828 15.5849L12.5162 18.3368C12.3597 18.5356 12.3311 18.8006 12.4417 19.0286C12.5523 19.2563 12.7783 19.3978 13.0313 19.3978H13.6032V26.6867C13.6032 29.0781 15.5487 31.0236 17.9401 31.0236H20.3773C20.5844 31.0236 20.7523 30.8557 20.7523 30.6486V28.1299C20.7523 27.9228 20.5844 27.7549 20.3773 27.7549ZM20.0023 30.2737H17.9401C15.9623 30.2737 14.3532 28.6646 14.3532 26.6868V19.0228C14.3532 18.8157 14.1853 18.6478 13.9782 18.6478H13.226L15.1979 16.1431L17.1698 18.6478H16.5119C16.4124 18.6478 16.3171 18.6873 16.2467 18.7576C16.1764 18.828 16.1369 18.9233 16.1369 19.0228C16.1369 20.3072 16.1331 21.6038 16.1294 22.8577C16.1258 24.1103 16.122 25.4054 16.122 26.6868C16.122 27.6893 16.9376 28.5049 17.9401 28.5049H20.0023V30.2737Z"/>
</mask>
<path d="M21.6031 24.4222C21.6466 24.4387 21.6917 24.4467 21.7364 24.4467C21.8414 24.4467 21.9441 24.4025 22.0166 24.3209C22.6501 23.6086 23.4652 23.0942 24.3736 22.833C24.5343 22.7869 24.6451 22.6399 24.6451 22.4727V16.8773H25.2169C25.47 16.8773 25.696 16.7359 25.8067 16.5079C25.9171 16.2802 25.8885 16.0152 25.7319 15.8163L23.5655 13.0646C23.4386 12.9033 23.2556 12.8145 23.0504 12.8145C22.8452 12.8145 22.6624 12.9032 22.5353 13.0645L20.3687 15.8163C20.2121 16.0153 20.1836 16.2803 20.2942 16.5081C20.4047 16.7359 20.6307 16.8773 20.8838 16.8773H21.3614V24.0717C21.3614 24.2274 21.4576 24.3668 21.6031 24.4222ZM21.0784 16.1273L23.0504 13.6227L25.0223 16.1273H24.27C24.0629 16.1273 23.895 16.2953 23.895 16.5023V22.1977C23.245 22.42 22.6418 22.7571 22.1114 23.1925V16.5023C22.1114 16.4029 22.0718 16.3075 22.0015 16.2372C21.9312 16.1669 21.8358 16.1273 21.7364 16.1273H21.0784ZM35.3748 28.9288L32.623 26.7623C32.424 26.6056 32.159 26.577 31.9312 26.6876C31.7035 26.7983 31.562 27.0242 31.562 27.2773L31.562 27.7549H25.7234C25.5163 27.7549 25.3484 27.9228 25.3484 28.1299V30.6636C25.3484 30.8707 25.5163 31.0386 25.7234 31.0386H31.562V31.6104C31.562 31.8636 31.7035 32.0895 31.9313 32.2001C32.0233 32.2448 32.1213 32.2667 32.2186 32.2667C32.3623 32.2667 32.5045 32.2188 32.6231 32.1254L35.3748 29.9589C35.5361 29.832 35.6249 29.6491 35.6249 29.4438C35.6249 29.2387 35.5361 29.0558 35.3748 28.9288ZM32.312 31.4159V30.6636C32.312 30.4565 32.1441 30.2886 31.937 30.2886H26.0984V28.5049H31.937C32.0365 28.5049 32.1318 28.4654 32.2022 28.395C32.2725 28.3247 32.312 28.2293 32.312 28.1299L32.312 27.4719L34.8167 29.4439L32.312 31.4159ZM27.311 26.5794C29.7065 26.5794 31.6553 24.6306 31.6553 22.2351L31.6554 19.3978H32.2272C32.4804 19.3978 32.7064 19.2563 32.817 19.0285C32.9275 18.8008 32.8989 18.5357 32.7422 18.3368L30.5757 15.5849C30.4488 15.4237 30.2659 15.3349 30.0607 15.3349C29.8556 15.3349 29.6727 15.4237 29.5456 15.585L27.3792 18.3367C27.2224 18.5356 27.1938 18.8007 27.3045 19.0285C27.415 19.2563 27.641 19.3978 27.8941 19.3978H28.3717L28.3718 22.2351C28.3718 22.82 27.8959 23.2958 27.311 23.2958H25.7529C23.3574 23.2958 21.4086 25.2446 21.4086 27.6401V34.8093C21.4086 35.0164 21.5765 35.1843 21.7836 35.1843H24.3172C24.5243 35.1843 24.6922 35.0164 24.6922 34.8093V27.6401C24.6922 27.0552 25.168 26.5794 25.7529 26.5794H27.311ZM23.9422 27.6401V34.4343H22.1586V27.6401C22.1586 25.6582 23.7709 24.0458 25.7529 24.0458H27.311C28.3095 24.0458 29.1218 23.2335 29.1218 22.2351L29.1217 19.0228C29.1217 18.9233 29.0822 18.828 29.0119 18.7576C28.9415 18.6873 28.8461 18.6478 28.7467 18.6478H28.0888L30.0607 16.1431L32.0326 18.6478H31.2803C31.0733 18.6478 30.9053 18.8157 30.9053 19.0228L30.9053 22.2351C30.9053 24.217 29.2929 25.8294 27.311 25.8294H25.7528C24.7545 25.8294 23.9422 26.6416 23.9422 27.6401ZM20.3773 27.7549H17.9401C17.3512 27.7549 16.872 27.2757 16.872 26.6868C16.872 25.4065 16.8758 24.1118 16.8794 22.8599C16.8827 21.7273 16.8862 20.5599 16.8868 19.3978H17.3644C17.6176 19.3978 17.8437 19.2562 17.9541 19.0285C18.0646 18.8007 18.0361 18.5356 17.8794 18.3368L15.7129 15.5848C15.5859 15.4237 15.403 15.3349 15.1979 15.3349C14.9926 15.3349 14.8096 15.4237 14.6828 15.5849L12.5162 18.3368C12.3597 18.5356 12.3311 18.8006 12.4417 19.0286C12.5523 19.2563 12.7783 19.3978 13.0313 19.3978H13.6032V26.6867C13.6032 29.0781 15.5487 31.0236 17.9401 31.0236H20.3773C20.5844 31.0236 20.7523 30.8557 20.7523 30.6486V28.1299C20.7523 27.9228 20.5844 27.7549 20.3773 27.7549ZM20.0023 30.2737H17.9401C15.9623 30.2737 14.3532 28.6646 14.3532 26.6868V19.0228C14.3532 18.8157 14.1853 18.6478 13.9782 18.6478H13.226L15.1979 16.1431L17.1698 18.6478H16.5119C16.4124 18.6478 16.3171 18.6873 16.2467 18.7576C16.1764 18.828 16.1369 18.9233 16.1369 19.0228C16.1369 20.3072 16.1331 21.6038 16.1294 22.8577C16.1258 24.1103 16.122 25.4054 16.122 26.6868C16.122 27.6893 16.9376 28.5049 17.9401 28.5049H20.0023V30.2737Z" fill="#8F72F5"/>
<path d="M21.6031 24.4222C21.6466 24.4387 21.6917 24.4467 21.7364 24.4467C21.8414 24.4467 21.9441 24.4025 22.0166 24.3209C22.6501 23.6086 23.4652 23.0942 24.3736 22.833C24.5343 22.7869 24.6451 22.6399 24.6451 22.4727V16.8773H25.2169C25.47 16.8773 25.696 16.7359 25.8067 16.5079C25.9171 16.2802 25.8885 16.0152 25.7319 15.8163L23.5655 13.0646C23.4386 12.9033 23.2556 12.8145 23.0504 12.8145C22.8452 12.8145 22.6624 12.9032 22.5353 13.0645L20.3687 15.8163C20.2121 16.0153 20.1836 16.2803 20.2942 16.5081C20.4047 16.7359 20.6307 16.8773 20.8838 16.8773H21.3614V24.0717C21.3614 24.2274 21.4576 24.3668 21.6031 24.4222ZM21.0784 16.1273L23.0504 13.6227L25.0223 16.1273H24.27C24.0629 16.1273 23.895 16.2953 23.895 16.5023V22.1977C23.245 22.42 22.6418 22.7571 22.1114 23.1925V16.5023C22.1114 16.4029 22.0718 16.3075 22.0015 16.2372C21.9312 16.1669 21.8358 16.1273 21.7364 16.1273H21.0784ZM35.3748 28.9288L32.623 26.7623C32.424 26.6056 32.159 26.577 31.9312 26.6876C31.7035 26.7983 31.562 27.0242 31.562 27.2773L31.562 27.7549H25.7234C25.5163 27.7549 25.3484 27.9228 25.3484 28.1299V30.6636C25.3484 30.8707 25.5163 31.0386 25.7234 31.0386H31.562V31.6104C31.562 31.8636 31.7035 32.0895 31.9313 32.2001C32.0233 32.2448 32.1213 32.2667 32.2186 32.2667C32.3623 32.2667 32.5045 32.2188 32.6231 32.1254L35.3748 29.9589C35.5361 29.832 35.6249 29.6491 35.6249 29.4438C35.6249 29.2387 35.5361 29.0558 35.3748 28.9288ZM32.312 31.4159V30.6636C32.312 30.4565 32.1441 30.2886 31.937 30.2886H26.0984V28.5049H31.937C32.0365 28.5049 32.1318 28.4654 32.2022 28.395C32.2725 28.3247 32.312 28.2293 32.312 28.1299L32.312 27.4719L34.8167 29.4439L32.312 31.4159ZM27.311 26.5794C29.7065 26.5794 31.6553 24.6306 31.6553 22.2351L31.6554 19.3978H32.2272C32.4804 19.3978 32.7064 19.2563 32.817 19.0285C32.9275 18.8008 32.8989 18.5357 32.7422 18.3368L30.5757 15.5849C30.4488 15.4237 30.2659 15.3349 30.0607 15.3349C29.8556 15.3349 29.6727 15.4237 29.5456 15.585L27.3792 18.3367C27.2224 18.5356 27.1938 18.8007 27.3045 19.0285C27.415 19.2563 27.641 19.3978 27.8941 19.3978H28.3717L28.3718 22.2351C28.3718 22.82 27.8959 23.2958 27.311 23.2958H25.7529C23.3574 23.2958 21.4086 25.2446 21.4086 27.6401V34.8093C21.4086 35.0164 21.5765 35.1843 21.7836 35.1843H24.3172C24.5243 35.1843 24.6922 35.0164 24.6922 34.8093V27.6401C24.6922 27.0552 25.168 26.5794 25.7529 26.5794H27.311ZM23.9422 27.6401V34.4343H22.1586V27.6401C22.1586 25.6582 23.7709 24.0458 25.7529 24.0458H27.311C28.3095 24.0458 29.1218 23.2335 29.1218 22.2351L29.1217 19.0228C29.1217 18.9233 29.0822 18.828 29.0119 18.7576C28.9415 18.6873 28.8461 18.6478 28.7467 18.6478H28.0888L30.0607 16.1431L32.0326 18.6478H31.2803C31.0733 18.6478 30.9053 18.8157 30.9053 19.0228L30.9053 22.2351C30.9053 24.217 29.2929 25.8294 27.311 25.8294H25.7528C24.7545 25.8294 23.9422 26.6416 23.9422 27.6401ZM20.3773 27.7549H17.9401C17.3512 27.7549 16.872 27.2757 16.872 26.6868C16.872 25.4065 16.8758 24.1118 16.8794 22.8599C16.8827 21.7273 16.8862 20.5599 16.8868 19.3978H17.3644C17.6176 19.3978 17.8437 19.2562 17.9541 19.0285C18.0646 18.8007 18.0361 18.5356 17.8794 18.3368L15.7129 15.5848C15.5859 15.4237 15.403 15.3349 15.1979 15.3349C14.9926 15.3349 14.8096 15.4237 14.6828 15.5849L12.5162 18.3368C12.3597 18.5356 12.3311 18.8006 12.4417 19.0286C12.5523 19.2563 12.7783 19.3978 13.0313 19.3978H13.6032V26.6867C13.6032 29.0781 15.5487 31.0236 17.9401 31.0236H20.3773C20.5844 31.0236 20.7523 30.8557 20.7523 30.6486V28.1299C20.7523 27.9228 20.5844 27.7549 20.3773 27.7549ZM20.0023 30.2737H17.9401C15.9623 30.2737 14.3532 28.6646 14.3532 26.6868V19.0228C14.3532 18.8157 14.1853 18.6478 13.9782 18.6478H13.226L15.1979 16.1431L17.1698 18.6478H16.5119C16.4124 18.6478 16.3171 18.6873 16.2467 18.7576C16.1764 18.828 16.1369 18.9233 16.1369 19.0228C16.1369 20.3072 16.1331 21.6038 16.1294 22.8577C16.1258 24.1103 16.122 25.4054 16.122 26.6868C16.122 27.6893 16.9376 28.5049 17.9401 28.5049H20.0023V30.2737Z" stroke="#8F72F5" stroke-width="0.4" mask="url(#path-2-outside-1_60_2888)"/>
</g>
<defs>
<linearGradient id="paint0_linear_60_2888" x1="0" y1="0" x2="50.9039" y2="3.30748" gradientUnits="userSpaceOnUse">
<stop stop-color="#E8E0FF"/>
<stop offset="1" stop-color="#FFFDD3"/>
</linearGradient>
<clipPath id="clip0_60_2888">
<rect width="24" height="24" fill="white" transform="translate(12 12)"/>
</clipPath>
</defs>
</svg>
