<svg width="48" height="48" viewBox="0 0 48 48" fill="none" xmlns="http://www.w3.org/2000/svg">
<rect width="48" height="48" rx="24" fill="url(#paint0_linear_60_2900)"/>
<path d="M30.8467 13.9248C31.0416 13.9248 31.2214 14.0305 31.3145 14.2002H31.3135L35.0088 20.873C35.1159 21.0653 35.0911 21.3026 34.9492 21.4697L24.4072 33.8867C24.3058 34.0062 24.1565 34.0752 24 34.0752C23.8434 34.0751 23.6939 34.006 23.5918 33.8867L13.0508 21.4697C12.9088 21.3024 12.8853 21.065 12.9912 20.874H12.9902L16.6865 14.2002L16.7256 14.1396C16.8253 14.0061 16.9836 13.9249 17.1533 13.9248H30.8467ZM14.1025 21.0645L24 32.7236L33.8975 21.0645L30.5312 14.9844H17.4688L14.1025 21.0645Z" fill="#8F72F5" stroke="#8F72F5" stroke-width="0.15"/>
<path d="M34.5322 20.9248C34.8365 20.925 35.0752 21.1874 35.0752 21.5C35.0752 21.8126 34.8365 22.075 34.5322 22.0752H13.4678C13.1635 22.075 12.9248 21.8126 12.9248 21.5C12.9248 21.1874 13.1635 20.925 13.4678 20.9248H34.5322Z" fill="#8F72F5" stroke="#8F72F5" stroke-width="0.15"/>
<path d="M23.9717 13.9248C24.1417 13.9248 24.3026 14.0027 24.4023 14.1367L28.9775 20.2852C29.1478 20.5142 29.0877 20.8279 28.8486 20.9854L28.8477 20.9844C28.757 21.0447 28.6518 21.0752 28.5479 21.0752C28.4048 21.0751 28.2617 21.0194 28.1592 20.9121L28.1182 20.8633L23.9736 15.2939L19.8828 20.833C19.7378 21.0315 19.4692 21.0961 19.2461 21.0059L19.1533 20.958C18.9123 20.8006 18.8522 20.4869 19.0215 20.2578L23.541 14.1377L23.5811 14.0898C23.6804 13.9851 23.8222 13.9249 23.9707 13.9248H23.9717Z" fill="#8F72F5" stroke="#8F72F5" stroke-width="0.15"/>
<path d="M17.2656 13.958C17.5378 13.8552 17.8301 14.0051 17.9238 14.2783L23.999 31.959L30.0762 14.2783C30.1701 14.0056 30.4627 13.8562 30.7344 13.957C31.0027 14.0555 31.1392 14.3589 31.0449 14.6328L24.4844 33.7227C24.4121 33.9324 24.2195 34.0751 24 34.0752C23.7805 34.0752 23.588 33.9324 23.5156 33.7227H23.5146L16.9541 14.6328C16.8608 14.359 16.9979 14.0554 17.2656 13.957V13.958Z" fill="#8F72F5" stroke="#8F72F5" stroke-width="0.15"/>
<defs>
<linearGradient id="paint0_linear_60_2900" x1="0" y1="0" x2="50.9039" y2="3.30748" gradientUnits="userSpaceOnUse">
<stop stop-color="#E8E0FF"/>
<stop offset="1" stop-color="#FFFDD3"/>
</linearGradient>
</defs>
</svg>
