<svg width="48" height="48" viewBox="0 0 48 48" fill="none" xmlns="http://www.w3.org/2000/svg">
<rect width="48" height="48" rx="24" fill="url(#paint0_linear_157_42)"/>
<g clip-path="url(#clip0_157_42)">
<path d="M27 13.5C25.8795 13.5 24.8055 13.9155 23.9745 14.67C23.6685 14.949 23.646 15.423 23.925 15.729C24.204 16.0365 24.6795 16.059 24.984 15.78C25.5375 15.2775 26.253 15 27 15C28.6545 15 30 16.3455 30 18C30 19.434 28.9815 20.67 27.579 20.9385C27.1725 21.0165 26.9055 21.4095 26.9835 21.816C27.0525 22.1745 27.366 22.425 27.72 22.425C27.7665 22.425 27.8145 22.4205 27.8625 22.4115C29.9685 22.008 31.5 20.1525 31.5 18C31.5 15.519 29.481 13.5 27 13.5Z" fill="#8F72F5"/>
<path d="M35.994 27.719C35.991 27.665 35.976 27.6155 35.9625 27.5645C35.9505 27.521 35.9445 27.476 35.925 27.4355C35.907 27.395 35.877 27.362 35.8515 27.326C35.82 27.2825 35.7915 27.2375 35.7525 27.2015C35.745 27.194 35.7405 27.1835 35.7315 27.176C33.1455 25.007 29.8875 23.8895 26.535 24.0155C26.1225 24.032 25.8 24.38 25.815 24.794C25.83 25.208 26.199 25.5605 26.5935 25.514C29.46 25.4075 32.2455 26.333 34.5 28.121V30.0005H32.25C31.836 30.0005 31.5 30.3365 31.5 30.7505C31.5 31.1645 31.836 31.5005 32.25 31.5005H34.5C35.3265 31.5005 36 30.827 36 30.0005V27.7505C36 27.7385 35.994 27.7295 35.994 27.719Z" fill="#8F72F5"/>
<path d="M21 16.5C18.519 16.5 16.5 18.519 16.5 21C16.5 23.481 18.519 25.5 21 25.5C23.481 25.5 25.5 23.481 25.5 21C25.5 18.519 23.481 16.5 21 16.5ZM21 24C19.3455 24 18 22.6545 18 21C18 19.3455 19.3455 18 21 18C22.6545 18 24 19.3455 24 21C24 22.6545 22.6545 24 21 24Z" fill="#8F72F5"/>
<path d="M29.994 30.7195C29.991 30.6655 29.976 30.616 29.9625 30.565C29.9505 30.5215 29.9445 30.4765 29.925 30.436C29.907 30.3955 29.877 30.3625 29.85 30.325C29.8185 30.2815 29.7915 30.238 29.751 30.202C29.742 30.1945 29.739 30.184 29.73 30.1765C24.6705 25.936 17.325 25.936 12.2655 30.1765C12.2565 30.184 12.2535 30.1945 12.2445 30.202C12.2055 30.238 12.177 30.2815 12.1455 30.3265C12.12 30.364 12.09 30.397 12.072 30.436C12.0525 30.4765 12.0465 30.5215 12.0345 30.565C12.021 30.616 12.006 30.6655 12.003 30.7195C12.006 30.73 12 30.739 12 30.751V33.001C12 33.8275 12.6735 34.501 13.5 34.501H28.5C29.3265 34.501 30 33.8275 30 33.001V30.751C30 30.739 29.994 30.73 29.994 30.7195ZM28.5 33.001H13.5V31.1215C17.901 27.634 24.099 27.634 28.5 31.1215V33.001Z" fill="#8F72F5"/>
</g>
<defs>
<linearGradient id="paint0_linear_157_42" x1="0" y1="0" x2="50.9039" y2="3.30748" gradientUnits="userSpaceOnUse">
<stop stop-color="#E8E0FF"/>
<stop offset="1" stop-color="#FFFDD3"/>
</linearGradient>
<clipPath id="clip0_157_42">
<rect width="24" height="24" fill="white" transform="translate(12 12)"/>
</clipPath>
</defs>
</svg>
