<svg width="48" height="48" viewBox="0 0 48 48" fill="none" xmlns="http://www.w3.org/2000/svg">
<rect width="48" height="48" rx="24" fill="url(#paint0_linear_60_2872)"/>
<g clip-path="url(#clip0_60_2872)">
<path d="M29.5557 19.875C29.8744 19.8751 30.125 20.1426 30.125 20.4619V23.6924C30.125 28.3372 26.4841 32.125 22 32.125C17.5159 32.125 13.875 28.3372 13.875 23.6924V20.4619C13.875 20.1426 14.1256 19.8751 14.4443 19.875H29.5557ZM15.0137 23.6924C15.0137 27.6995 18.1526 30.9521 22 30.9521C25.8474 30.9521 28.9863 27.6995 28.9863 23.6924V21.0479H15.0137V23.6924Z" fill="#8F72F5" stroke="#8F72F5" stroke-width="0.25"/>
<path d="M31.6396 21.875L31.8193 21.8799C33.6624 21.9775 35.125 23.5682 35.125 25.5C35.125 27.4942 33.5664 29.125 31.6396 29.125H28.4805C28.1417 29.125 27.875 28.8402 27.875 28.5C27.875 28.1598 28.1417 27.875 28.4805 27.875H31.6396C32.8889 27.875 33.915 26.8138 33.915 25.5C33.915 24.1862 32.8889 23.125 31.6396 23.125H29.7197C29.381 23.125 29.1143 22.8402 29.1143 22.5C29.1143 22.1598 29.381 21.875 29.7197 21.875H31.6396Z" fill="#8F72F5" stroke="#8F72F5" stroke-width="0.25"/>
<path d="M18.9072 12.9209C19.1646 12.8227 19.479 12.8843 19.6582 13.0908C19.7635 13.2122 19.8023 13.3627 19.7744 13.5068C19.7467 13.65 19.655 13.7774 19.5166 13.8613H19.5156C19.2188 14.0404 19.1096 14.2394 19.127 14.4102L19.1436 14.4883C19.2027 14.6709 19.4037 14.864 19.7637 15.0088C20.5372 15.3191 21.0504 15.8517 21.1182 16.4902C21.1819 17.0919 20.8286 17.649 20.2002 18.0283L20.1992 18.0293C20.0904 18.0941 19.9651 18.125 19.8438 18.125C19.6589 18.125 19.4683 18.0533 19.3428 17.9092C19.2376 17.7879 19.1987 17.6372 19.2266 17.4932C19.2544 17.3501 19.346 17.2225 19.4844 17.1387C19.7812 16.9591 19.8914 16.7602 19.873 16.5898C19.8515 16.386 19.648 16.1568 19.2363 15.9912C18.4628 15.6809 17.9496 15.1483 17.8818 14.5098C17.8183 13.909 18.1716 13.3519 18.8008 12.9727L18.9072 12.9209Z" fill="#8F72F5" stroke="#8F72F5" stroke-width="0.25"/>
<path d="M22.9062 12.9209C23.1636 12.8227 23.478 12.8843 23.6572 13.0908C23.7625 13.2122 23.8014 13.3627 23.7734 13.5068C23.7457 13.6499 23.6541 13.7774 23.5156 13.8613C23.2188 14.0409 23.1086 14.2398 23.127 14.4102L23.1436 14.4873C23.2024 14.6701 23.4032 14.8638 23.7637 15.0088C24.537 15.3189 25.0503 15.8509 25.1182 16.4893C25.1819 17.091 24.8287 17.649 24.2002 18.0283L24.1992 18.0273C24.0901 18.0933 23.9651 18.125 23.8438 18.125C23.6589 18.125 23.4683 18.0533 23.3428 17.9092C23.2377 17.7879 23.1987 17.6372 23.2266 17.4932C23.2544 17.3502 23.346 17.2225 23.4844 17.1387C23.7809 16.9593 23.8912 16.761 23.873 16.5908V16.5898C23.8514 16.3861 23.6479 16.1567 23.2363 15.9912C22.4628 15.681 21.9496 15.1492 21.8818 14.5107C21.8181 13.9091 22.1714 13.3519 22.7998 12.9727L22.9062 12.9209Z" fill="#8F72F5" stroke="#8F72F5" stroke-width="0.25"/>
<path d="M30.5498 30.875C30.8793 30.875 31.125 31.1677 31.125 31.5V32.5C31.125 33.9343 30.0713 35.125 28.75 35.125H15.25C13.9287 35.125 12.875 33.9343 12.875 32.5V31.5C12.875 31.1677 13.1207 30.875 13.4502 30.875H30.5498ZM14.0254 32.5C14.0254 33.2707 14.5868 33.875 15.25 33.875H28.75C29.4132 33.875 29.9746 33.2707 29.9746 32.5V32.125H14.0254V32.5Z" fill="#8F72F5" stroke="#8F72F5" stroke-width="0.25"/>
</g>
<defs>
<linearGradient id="paint0_linear_60_2872" x1="0" y1="0" x2="50.9039" y2="3.30748" gradientUnits="userSpaceOnUse">
<stop stop-color="#E8E0FF"/>
<stop offset="1" stop-color="#FFFDD3"/>
</linearGradient>
<clipPath id="clip0_60_2872">
<rect width="24" height="24" fill="white" transform="translate(12 12)"/>
</clipPath>
</defs>
</svg>
