<svg width="21" height="20" viewBox="0 0 21 20" fill="none" xmlns="http://www.w3.org/2000/svg">
<path d="M17.4375 2.90039C18.6275 2.90041 19.5996 3.8386 19.5996 5V17C19.5996 18.1614 18.6275 19.0996 17.4375 19.0996H3.5625C2.37246 19.0996 1.40042 18.1614 1.40039 17V5C1.40039 3.8386 2.37245 2.90041 3.5625 2.90039H17.4375ZM3.5625 4.19043C3.09804 4.19045 2.72461 4.55703 2.72461 5V17C2.72464 17.443 3.09808 17.8095 3.5625 17.8096H17.4375C17.9019 17.8095 18.2754 17.443 18.2754 17V5C18.2754 4.55703 17.902 4.19045 17.4375 4.19043H3.5625Z" fill="#1A1A1A" stroke="#1A1A1A" stroke-width="0.2"/>
<path d="M18.9375 6.90039C19.2918 6.90039 19.5996 7.15802 19.5996 7.5C19.5996 7.84198 19.2918 8.09961 18.9375 8.09961H2.0625C1.70817 8.09961 1.40039 7.84198 1.40039 7.5C1.40039 7.15802 1.70817 6.90039 2.0625 6.90039H18.9375Z" fill="#1A1A1A" stroke="#1A1A1A" stroke-width="0.2"/>
<path d="M6 0.900391C6.3509 0.900391 6.59961 1.24675 6.59961 1.625V5.375C6.59961 5.75325 6.3509 6.09961 6 6.09961C5.6491 6.09961 5.40039 5.75325 5.40039 5.375V1.625C5.40039 1.24675 5.6491 0.900391 6 0.900391Z" fill="#1A1A1A" stroke="#1A1A1A" stroke-width="0.2"/>
<path d="M15 0.900391C15.3509 0.900391 15.5996 1.24675 15.5996 1.625V5.375C15.5996 5.75325 15.3509 6.09961 15 6.09961C14.6491 6.09961 14.4004 5.75325 14.4004 5.375V1.625C14.4004 1.24675 14.6491 0.900391 15 0.900391Z" fill="#1A1A1A" stroke="#1A1A1A" stroke-width="0.2"/>
</svg>
