<svg width="20" height="20" viewBox="0 0 20 20" fill="none" xmlns="http://www.w3.org/2000/svg">
<path d="M8.74951 2.36133C10.2113 2.36133 11.6338 2.77765 12.8628 3.56641C13.1579 3.7564 13.2444 4.15007 13.0542 4.44629V4.44727C12.8636 4.74255 12.4712 4.82826 12.1753 4.63867C11.1523 3.98137 9.96721 3.63379 8.74951 3.63379C5.24716 3.63382 2.39701 6.48397 2.39697 9.98633C2.39697 13.4886 5.24713 16.3388 8.74951 16.3389C12.2518 16.3389 15.1021 13.4886 15.1021 9.98633C15.102 9.77685 15.0921 9.5692 15.0728 9.36523C15.0392 9.01515 15.2947 8.7049 15.644 8.6709H15.645C15.9952 8.63873 16.3053 8.89324 16.3394 9.24316C16.3628 9.48778 16.3745 9.73572 16.3745 9.98633C16.3745 14.1906 12.9538 17.6113 8.74951 17.6113C4.54527 17.6113 1.12451 14.1906 1.12451 9.98633C1.12455 5.7821 4.54528 2.36136 8.74951 2.36133Z" fill="#3B7A57" stroke="#3B7A57" stroke-width="0.25"/>
<path d="M17.729 3.77148C17.9905 3.55831 18.4051 3.55833 18.6665 3.77148C18.8007 3.88097 18.8745 4.03052 18.8745 4.18652C18.8745 4.3425 18.8007 4.49209 18.6665 4.60156L10.5786 11.2021C10.4454 11.31 10.2756 11.3612 10.1099 11.3613C9.94422 11.3613 9.77297 11.3102 9.64014 11.2012V11.2002L6.33252 8.50098H6.33154C6.19762 8.39146 6.12451 8.24181 6.12451 8.08594C6.12451 7.92992 6.19835 7.78039 6.33252 7.6709C6.59393 7.45778 7.00868 7.45767 7.27002 7.6709L10.1099 9.9873L17.729 3.77148Z" fill="#3B7A57" stroke="#3B7A57" stroke-width="0.25"/>
</svg>
