<svg width="20" height="20" viewBox="0 0 20 20" fill="none" xmlns="http://www.w3.org/2000/svg">
<path d="M13.6218 7.29004C13.8299 7.08193 14.1686 7.08193 14.3767 7.29004C14.5846 7.49806 14.5844 7.83585 14.3767 8.04395L9.70972 12.7109C9.606 12.8147 9.46896 12.8672 9.33276 12.8672C9.19639 12.8671 9.05968 12.8147 8.95581 12.7119V12.7109L6.28882 10.0439C6.08088 9.83583 6.08077 9.49809 6.28882 9.29004C6.49687 9.08199 6.83461 9.0821 7.04272 9.29004L9.33179 11.5791L13.6218 7.29004Z" fill="#AF99FF" stroke="#AF99FF" stroke-width="0.4"/>
<path d="M9.92285 1.80566C9.99935 1.79453 10.0775 1.79998 10.1523 1.82227L16.8193 3.82227C17.0444 3.89018 17.2001 4.09694 17.2002 4.33301V11.667C17.2 13.239 16.0087 14.683 14.5752 15.8076C13.1312 16.9404 11.3843 17.795 10.1582 18.1768V18.1758C10.1053 18.1923 10.0518 18.2002 10 18.2002C9.94816 18.2002 9.89466 18.1923 9.8418 18.1758V18.1768C8.61578 17.7954 6.86875 16.9414 5.4248 15.8086C3.99124 14.6839 2.79996 13.239 2.7998 11.667V4.33301C2.79995 4.09789 2.95423 3.88976 3.17969 3.82227L9.84668 1.82227L9.92285 1.80566ZM3.86621 4.72949V11.667C3.8663 12.199 4.07836 12.753 4.45312 13.3057C4.82745 13.8575 5.35735 14.3968 5.97461 14.8955C7.19068 15.8779 8.72288 16.6817 10 17.1045C11.2771 16.6817 12.8093 15.8779 14.0254 14.8955C14.6427 14.3968 15.1726 13.8575 15.5469 13.3057C15.9216 12.753 16.1337 12.199 16.1338 11.667V4.72949L10 2.88965L3.86621 4.72949Z" fill="#AF99FF" stroke="#AF99FF" stroke-width="0.4"/>
</svg>
