<svg width="56" height="24" viewBox="0 0 56 24" fill="none" xmlns="http://www.w3.org/2000/svg">
<path d="M4.85518 0.273438H16.8445C24.794 0.273438 28.6057 5.26892 28.6057 10.5639C28.6057 19.3569 22.1543 23.7195 13.587 23.7195H0L4.85518 0.273438ZM10.8159 17.824H13.3243C16.9729 17.824 18.4393 14.0604 18.4393 10.4636C18.4393 7.59995 17.6902 6.1674 15.0187 6.1674H13.1944L10.8159 17.824Z" fill="black"/>
<path d="M55.9998 10.3406C55.9998 17.9858 51.0768 23.7824 41.2929 23.7824C32.2883 23.7824 29.3281 18.9093 29.3281 13.8121C29.3281 7.1878 33.4097 0.210938 43.7551 0.210938C52.6341 0.212413 55.9998 5.30822 55.9998 10.3406ZM39.0183 14.2591C39.0183 16.2021 39.548 18.0817 41.6667 18.0817C45.3124 18.0817 46.3718 12.2526 46.3718 9.19573C46.3718 7.09338 45.6241 5.65935 43.6295 5.65935C40.2335 5.65935 39.0183 11.425 39.0183 14.2591Z" fill="black"/>
</svg>
