<svg width="20" height="20" viewBox="0 0 20 20" fill="none" xmlns="http://www.w3.org/2000/svg">
<g clip-path="url(#clip0_60_2372)">
<path d="M17.0666 4.01333C16.9158 4.01333 16.7658 3.96 16.6458 3.85C14.8066 2.17333 12.4466 1.25 9.99997 1.25C7.55331 1.25 5.19331 2.17333 3.35414 3.85083C3.09831 4.08333 2.70331 4.06417 2.47081 3.81C2.23831 3.555 2.25664 3.15917 2.51164 2.92667C4.58247 1.03917 7.24164 0 9.99997 0C12.7583 0 15.4175 1.03917 17.4883 2.92667C17.7433 3.15917 17.7616 3.55417 17.5291 3.81C17.4058 3.945 17.2366 4.01333 17.0666 4.01333Z" fill="#1A1A1A"/>
<path d="M18.125 8.09796C17.9242 8.09796 17.7258 8.00129 17.6058 7.82129C15.8708 5.23796 13.0275 3.69546 9.99999 3.69546C6.97249 3.69546 4.12916 5.23796 2.39416 7.82129C2.20166 8.10879 1.81249 8.18462 1.52666 7.99212C1.23999 7.79962 1.16333 7.41129 1.35583 7.12462C3.32333 4.19546 6.55499 2.44629 9.99999 2.44629C13.445 2.44629 16.6767 4.19546 18.6442 7.12546C18.8367 7.41212 18.7608 7.80046 18.4733 7.99296C18.3667 8.06379 18.2458 8.09796 18.125 8.09796Z" fill="#1A1A1A"/>
<path d="M8.02583 20.0002C7.86499 20.0002 7.70416 19.9386 7.58166 19.8152C7.44499 19.6777 4.24249 16.4086 4.24249 13.2611C4.24249 9.99441 6.82499 7.33691 9.99999 7.33691C13.175 7.33691 15.7575 9.99441 15.7575 13.2611C15.7575 13.6061 15.4775 13.8861 15.1325 13.8861C14.7875 13.8861 14.5075 13.6061 14.5075 13.2611C14.5075 10.6836 12.4858 8.58691 9.99999 8.58691C7.51416 8.58691 5.49249 10.6836 5.49249 13.2611C5.49249 15.9002 8.43999 18.9052 8.46999 18.9352C8.71333 19.1802 8.71166 19.5761 8.46583 19.8194C8.34416 19.9402 8.18499 20.0002 8.02583 20.0002Z" fill="#1A1A1A"/>
<path d="M11.9741 20C10.4708 20 6.98581 17.14 6.64831 13.955C6.52915 12.8291 6.88748 11.6775 7.60581 10.8741C8.23081 10.1758 9.07498 9.7883 9.98248 9.7833H9.99998C10.885 9.7833 11.7216 10.1308 12.3583 10.7633C13.0233 11.4241 13.3891 12.3116 13.3891 13.2616V13.6691C13.3891 14.6733 14.1708 15.49 15.1325 15.49C16.0941 15.49 16.8766 14.6733 16.8766 13.6691V13.5266C16.8766 9.63496 14.0575 6.39746 10.4583 6.15746C8.58248 6.02996 6.78165 6.6783 5.39248 7.97663C3.95081 9.32496 3.12415 11.2516 3.12415 13.2616C3.12415 14.915 3.68415 16.5258 4.70081 17.7975C4.91581 18.0675 4.87248 18.46 4.60248 18.6758C4.33331 18.8916 3.93998 18.8483 3.72415 18.5775C2.53165 17.085 1.87415 15.1966 1.87415 13.2608C1.87415 10.9058 2.84581 8.64663 4.53831 7.0633C6.18248 5.52496 8.31498 4.75913 10.5408 4.90913C14.7941 5.1933 18.1266 8.9783 18.1266 13.5258V13.6683C18.1266 15.3616 16.7833 16.7391 15.1325 16.7391C13.4816 16.7391 12.1391 15.3616 12.1391 13.6683V13.2608C12.1391 12.6458 11.9041 12.0741 11.4775 11.6491C11.0775 11.2508 10.5533 11.0325 10.0008 11.0325C9.99665 11.0325 9.99331 11.0325 9.98915 11.0325C9.28498 11.0358 8.81081 11.4016 8.53748 11.7075C8.04998 12.2516 7.80831 13.0433 7.89081 13.8233C8.16665 16.4216 11.1525 18.7508 11.9741 18.7508C12.3191 18.7508 12.5991 19.0308 12.5991 19.3758C12.5991 19.7208 12.3191 20 11.9741 20Z" fill="#1A1A1A"/>
<path d="M14.2933 18.7777C12.0566 18.7777 9.32581 16.0443 9.32581 12.8535C9.32581 12.5085 9.60581 12.2285 9.95081 12.2285C10.2958 12.2285 10.5758 12.5085 10.5758 12.8535C10.5758 15.3268 12.655 17.5277 14.2933 17.5277C14.6383 17.5277 14.9183 17.8077 14.9183 18.1527C14.9183 18.4977 14.6383 18.7777 14.2933 18.7777Z" fill="#1A1A1A"/>
</g>
<defs>
<clipPath id="clip0_60_2372">
<rect width="20" height="20" fill="white"/>
</clipPath>
</defs>
</svg>
