<svg width="20" height="20" viewBox="0 0 20 20" fill="none" xmlns="http://www.w3.org/2000/svg">
<g clip-path="url(#clip0_60_2386)">
<path d="M10 19.7913C4.58337 19.7913 0.208374 15.4163 0.208374 9.99967C0.208374 4.58301 4.58337 0.208008 10 0.208008C15.4167 0.208008 19.7917 4.58301 19.7917 9.99967C19.7917 15.4163 15.4167 19.7913 10 19.7913ZM10 1.83301C5.50004 1.83301 1.83337 5.49967 1.83337 9.99967C1.83337 14.4997 5.50004 18.1663 10 18.1663C14.5 18.1663 18.1667 14.4997 18.1667 9.99967C18.1667 5.49967 14.5 1.83301 10 1.83301Z" fill="#1A1A1A"/>
<path d="M13.0417 6.62435C13.5834 7.08268 13.8334 7.79102 13.8334 8.74935C13.8334 9.70768 13.5417 10.3743 13.0001 10.8327C12.4584 11.291 11.5834 11.4993 10.4584 11.4993H9.41675V14.0827C9.41675 14.541 9.04175 14.9577 8.54175 14.9577C8.08341 14.9577 7.66675 14.5827 7.66675 14.0827V6.70768C7.66675 6.24935 8.04175 5.91602 8.45841 5.91602H10.3751C11.6667 5.91602 12.5417 6.16602 13.0417 6.62435ZM11.7917 9.62435C12.0001 9.37435 12.0834 9.04102 12.0834 8.62435C12.0834 8.20768 11.9584 7.87435 11.6667 7.66602C11.4167 7.49935 11.0001 7.37435 10.4167 7.37435H9.41675V9.99935H10.5834C11.2084 9.99935 11.5834 9.87435 11.7917 9.62435Z" fill="#1A1A1A"/>
</g>
<defs>
<clipPath id="clip0_60_2386">
<rect width="20" height="20" fill="white"/>
</clipPath>
</defs>
</svg>
