<svg width="20" height="20" viewBox="0 0 20 20" fill="none" xmlns="http://www.w3.org/2000/svg">
<g clip-path="url(#clip0_114_5)">
<path d="M18.6929 14.2286C17.1443 14.0871 15.6371 13.6929 14.2143 13.0571C13.5129 12.7443 12.6943 13.0286 12.3514 13.7086L10.9414 16.51C7.77857 14.8314 5.16714 12.22 3.48857 9.05857L6.29 7.64857C6.96857 7.30714 7.25571 6.48857 6.94143 5.78571C6.30571 4.36286 5.91143 2.85714 5.77143 1.30857C5.70286 0.562857 5.09571 0 4.35714 0H0.714286C0.32 0 0 0.32 0 0.714286C0 3.62286 0.634286 6.42714 1.88429 9.05286C3.78286 12.9986 7.00143 16.2171 10.95 18.1157C13.5729 19.3657 16.3771 20 19.2857 20C19.68 20 20 19.68 20 19.2857V15.6429C20 14.9043 19.4371 14.2971 18.6929 14.2286ZM1.44286 1.43L4.34714 1.43714C4.50286 3.14286 4.93714 4.80286 5.64714 6.37143L2.87286 7.77C2.00714 5.75143 1.52714 3.62571 1.44286 1.43ZM18.5714 18.5571C16.3757 18.4714 14.2486 17.9914 12.2314 17.1286L13.6314 14.3629C15.1971 15.0629 16.8571 15.4971 18.5714 15.6429V18.5571Z" fill="#1A1A1A"/>
</g>
<defs>
<clipPath id="clip0_114_5">
<rect width="20" height="20" fill="white"/>
</clipPath>
</defs>
</svg>
