<svg width="20" height="20" viewBox="0 0 20 20" fill="none" xmlns="http://www.w3.org/2000/svg">
<path d="M9.99999 4.29883C7.95265 4.29883 6.28699 5.96449 6.28699 8.01184C6.28699 10.0592 7.95265 11.7248 9.99999 11.7248C12.0473 11.7248 13.713 10.0592 13.713 8.01184C13.713 5.96449 12.0474 4.29883 9.99999 4.29883ZM9.99999 10.1615C8.81468 10.1615 7.85035 9.19715 7.85035 8.01184C7.85035 6.82652 8.81468 5.86219 9.99999 5.86219C11.1853 5.86219 12.1496 6.82652 12.1496 8.01184C12.1496 9.19715 11.1853 10.1615 9.99999 10.1615Z" fill="#1A1A1A"/>
<path d="M9.99997 0C5.58197 0 1.98767 3.59434 1.98767 8.01231V8.23379C1.98767 10.4682 3.26869 13.0719 5.79525 15.9726C7.62681 18.0754 9.43279 19.5416 9.50872 19.603L9.99997 20L10.4912 19.6031C10.5672 19.5417 12.3732 18.0754 14.2047 15.9726C16.7312 13.0719 18.0123 10.4682 18.0123 8.23383V8.01234C18.0123 3.59434 14.418 0 9.99997 0ZM16.4489 8.23383C16.4489 12.0098 11.5836 16.5807 9.99997 17.9683C8.41587 16.5803 3.55103 12.0095 3.55103 8.23383V8.01234C3.55103 4.45641 6.44404 1.5634 9.99997 1.5634C13.5559 1.5634 16.4489 4.45641 16.4489 8.01234V8.23383Z" fill="#1A1A1A"/>
</svg>
