<svg width="20" height="20" viewBox="0 0 20 20" fill="none" xmlns="http://www.w3.org/2000/svg">
<g clip-path="url(#clip0_114_37)">
<path d="M11.1084 15.0637C14.4834 15.867 15.6709 12.9803 15.0759 11.9028C14.8375 11.4728 12.6959 10.647 12.5917 10.607C11.6717 10.272 11.3317 10.897 10.6942 11.7195C9.47004 11.107 8.64921 10.6245 7.80587 9.25283C7.85337 9.19366 7.91671 9.12366 7.96421 9.07033C8.25921 8.74033 8.81171 8.12533 8.43504 7.37283C8.11837 6.74199 7.96087 6.30199 7.84504 5.97949C7.50921 5.04533 7.25337 4.79199 6.09671 4.79199C4.89254 4.79199 3.95837 6.37449 3.95837 7.73699C3.95837 10.7112 7.95671 14.3112 11.1084 15.0637ZM6.09671 6.04199C6.34671 6.04199 6.47337 6.05033 6.53671 6.06033C6.67171 6.34616 6.80837 6.94283 7.31171 7.87116C7.23337 8.16366 6.12087 8.84949 6.63671 9.73616C7.69087 11.5262 8.74587 12.147 10.2575 12.8987C11.2642 13.3537 11.5859 12.5295 12.2242 11.8053C12.52 11.9253 13.5184 12.367 13.9567 12.5887C13.9175 13.452 13.0842 14.2487 11.3984 13.847C8.50504 13.1562 5.20754 9.90116 5.20754 7.73616C5.20837 6.91283 5.78587 6.04199 6.09671 6.04199Z" fill="#1A1A1A"/>
<path d="M0.0691433 19.2372C-0.0400234 19.6322 0.25581 20.028 0.671643 20.028C0.821643 20.028 0.576643 20.0663 5.54498 18.778C7.56748 19.808 9.10498 19.7755 10.0866 19.868C18.8825 19.868 23.1908 9.14051 17.1375 2.89885C8.83998 -5.12115 -4.08252 4.84551 1.32498 14.6713L0.0691433 19.2372ZM16.1425 3.67718C16.2866 3.94051 20.4216 7.66968 18.1191 13.2422C16.7016 16.6755 13.4308 18.7913 9.76581 18.593C6.78414 18.4272 6.01248 17.3622 5.46331 17.508L1.56081 18.5247L2.59831 14.7547C2.64331 14.593 2.62081 14.4205 2.53748 14.2755C-2.44836 5.67218 8.82581 -3.17365 16.1425 3.67718Z" fill="#1A1A1A"/>
</g>
<defs>
<clipPath id="clip0_114_37">
<rect width="20" height="20" fill="white"/>
</clipPath>
</defs>
</svg>
