<svg width="20" height="20" viewBox="0 0 20 20" fill="none" xmlns="http://www.w3.org/2000/svg">
<g clip-path="url(#clip0_60_2365)">
<path d="M16.4392 8.93083C16.2792 8.93083 16.1183 8.87 15.9967 8.74667C14.3925 7.13667 12.2642 6.25 10 6.25C7.73583 6.25 5.6075 7.13667 4.00416 8.74667C3.76083 8.9925 3.365 8.99083 3.12 8.74833C2.87583 8.505 2.87416 8.10917 3.11833 7.86417C4.9575 6.0175 7.40166 5 10 5C12.5983 5 15.0425 6.0175 16.8817 7.865C17.1258 8.11 17.1242 8.50583 16.88 8.74917C16.7575 8.87 16.5983 8.93083 16.4392 8.93083Z" fill="#1A1A1A"/>
<path d="M14.1975 11.1816C14.0375 11.1816 13.8767 11.1208 13.755 10.9975C12.7492 9.98747 11.415 9.43164 10 9.43164C8.585 9.43164 7.25084 9.98747 6.24501 10.9975C6.00167 11.2433 5.60584 11.2416 5.36084 10.9991C5.11584 10.7558 5.11584 10.3591 5.35917 10.115C6.60084 8.86831 8.24917 8.18164 9.99917 8.18164C11.7492 8.18164 13.3975 8.86831 14.6392 10.115C14.8825 10.3591 14.8825 10.7558 14.6375 10.9991C14.5167 11.1208 14.3575 11.1816 14.1975 11.1816Z" fill="#1A1A1A"/>
<path d="M9.99998 15.0001C8.99998 15.0001 8.18665 14.1843 8.18665 13.1818C8.18665 12.1793 8.99998 11.3643 9.99998 11.3643C11 11.3643 11.8133 12.1801 11.8133 13.1826C11.8133 14.1851 11 15.0001 9.99998 15.0001ZM9.99998 12.6143C9.68915 12.6143 9.43665 12.8693 9.43665 13.1826C9.43665 13.4959 9.68915 13.7501 9.99998 13.7501C10.3108 13.7501 10.5633 13.4951 10.5633 13.1818C10.5633 12.8684 10.3108 12.6143 9.99998 12.6143Z" fill="#1A1A1A"/>
<path d="M10 20C4.48583 20 0 15.5142 0 10C0 4.48583 4.48583 0 10 0C15.5142 0 20 4.48583 20 10C20 15.5142 15.5142 20 10 20ZM10 1.25C5.175 1.25 1.25 5.175 1.25 10C1.25 14.825 5.175 18.75 10 18.75C14.825 18.75 18.75 14.825 18.75 10C18.75 5.175 14.825 1.25 10 1.25Z" fill="#1A1A1A"/>
</g>
<defs>
<clipPath id="clip0_60_2365">
<rect width="20" height="20" fill="white"/>
</clipPath>
</defs>
</svg>
