<svg width="48" height="48" viewBox="0 0 48 48" fill="none" xmlns="http://www.w3.org/2000/svg">
<rect width="48" height="48" rx="24" fill="url(#paint0_linear_157_131)"/>
<g clip-path="url(#clip0_157_131)">
<path d="M24.0002 12.9004C30.1211 12.9004 35.0999 17.8792 35.0999 24C35.0999 30.1208 30.1211 35.0996 24.0002 35.0996C17.8794 35.0996 12.9006 30.1208 12.9006 24C12.9006 17.8792 17.8794 12.9004 24.0002 12.9004ZM24.0002 14.0166C18.4959 14.0166 14.0168 18.4956 14.0168 24C14.0168 29.5044 18.4959 33.9834 24.0002 33.9834C29.5046 33.9834 33.9836 29.5044 33.9836 24C33.9836 18.4956 29.5046 14.0166 24.0002 14.0166Z" fill="#8F72F5" stroke="#8F72F5" stroke-width="0.2"/>
<path d="M24.0052 12.9004C25.729 12.9004 27.2457 14.146 28.3256 16.1396C29.407 18.1363 30.0638 20.9032 30.0638 24C30.0638 27.0967 29.407 29.8637 28.3256 31.8604C27.2456 33.854 25.7286 35.0996 24.0052 35.0996C22.2816 35.0995 20.7657 33.8538 19.6859 31.8604C18.6045 29.8637 17.9476 27.0969 17.9476 24C17.9476 20.9031 18.6045 18.1363 19.6859 16.1396C20.7657 14.1462 22.2816 12.9005 24.0052 12.9004ZM24.0052 14.0166C22.6985 14.0168 21.4635 15.1255 20.5492 16.9541C19.6386 18.7756 19.0638 21.2804 19.0638 24C19.0638 26.7196 19.6386 29.2244 20.5492 31.0459C21.4635 32.8745 22.6985 33.9832 24.0052 33.9834C25.3121 33.9834 26.5469 32.8746 27.4613 31.0459C28.372 29.2244 28.9476 26.7197 28.9476 24C28.9476 21.2803 28.372 18.7756 27.4613 16.9541C26.5469 15.1254 25.3121 14.0166 24.0052 14.0166Z" fill="#8F72F5" stroke="#8F72F5" stroke-width="0.2"/>
<path d="M24.0056 17.9414C27.1025 17.9414 29.8693 18.5982 31.866 19.6797C33.8595 20.7595 35.1051 22.2754 35.1052 23.999C35.1052 25.7228 33.8597 27.2395 31.866 28.3193C29.8692 29.4008 27.1021 30.0576 24.0056 30.0576C20.9088 30.0576 18.1419 29.4008 16.1453 28.3193C14.1516 27.2395 12.906 25.7228 12.906 23.999C12.9062 22.2754 14.1518 20.7595 16.1453 19.6797C18.1419 18.5982 20.9088 17.9414 24.0056 17.9414ZM24.0056 19.0576C21.2853 19.0576 18.7801 19.6322 16.9587 20.543C15.1303 21.4573 14.0224 22.6923 14.0222 23.999C14.0222 25.3058 15.1303 26.5407 16.9587 27.4551C18.7801 28.3658 21.2853 28.9414 24.0056 28.9414C26.7259 28.9414 29.2311 28.3658 31.0525 27.4551C32.881 26.5407 33.989 25.3058 33.989 23.999C33.9888 22.6923 32.881 21.4573 31.0525 20.543C29.2311 19.6322 26.7259 19.0576 24.0056 19.0576Z" fill="#8F72F5" stroke="#8F72F5" stroke-width="0.2"/>
</g>
<defs>
<linearGradient id="paint0_linear_157_131" x1="0" y1="0" x2="50.9039" y2="3.30748" gradientUnits="userSpaceOnUse">
<stop stop-color="#E8E0FF"/>
<stop offset="1" stop-color="#FFFDD3"/>
</linearGradient>
<clipPath id="clip0_157_131">
<rect width="24" height="24" fill="white" transform="translate(12 12)"/>
</clipPath>
</defs>
</svg>
