<svg width="48" height="48" viewBox="0 0 48 48" fill="none" xmlns="http://www.w3.org/2000/svg">
<rect width="48" height="48" rx="24" fill="url(#paint0_linear_60_2793)"/>
<path d="M32.25 36H20.75C19.233 36 18 34.767 18 33.25V17.75C18 16.233 19.233 15 20.75 15H32.25C33.767 15 35 16.233 35 17.75V33.25C35 34.767 33.767 36 32.25 36ZM20.75 16.5C20.061 16.5 19.5 17.061 19.5 17.75V33.25C19.5 33.939 20.061 34.5 20.75 34.5H32.25C32.939 34.5 33.5 33.939 33.5 33.25V17.75C33.5 17.061 32.939 16.5 32.25 16.5H20.75Z" fill="#8F72F5"/>
<path d="M25.25 24.25H21.75C21.336 24.25 21 23.914 21 23.5V20C21 19.586 21.336 19.25 21.75 19.25H25.25C25.664 19.25 26 19.586 26 20V23.5C26 23.914 25.664 24.25 25.25 24.25ZM22.5 22.75H24.5V20.75H22.5V22.75Z" fill="#8F72F5"/>
<path d="M31.5 24H28.5C28.086 24 27.75 23.664 27.75 23.25C27.75 22.836 28.086 22.5 28.5 22.5H31.5C31.914 22.5 32.25 22.836 32.25 23.25C32.25 23.664 31.914 24 31.5 24Z" fill="#8F72F5"/>
<path d="M31.5 21H28.5C28.086 21 27.75 20.664 27.75 20.25C27.75 19.836 28.086 19.5 28.5 19.5H31.5C31.914 19.5 32.25 19.836 32.25 20.25C32.25 20.664 31.914 21 31.5 21Z" fill="#8F72F5"/>
<path d="M31.25 32H21.75C21.336 32 21 31.664 21 31.25C21 30.836 21.336 30.5 21.75 30.5H31.25C31.664 30.5 32 30.836 32 31.25C32 31.664 31.664 32 31.25 32Z" fill="#8F72F5"/>
<path d="M31.25 28H21.75C21.336 28 21 27.664 21 27.25C21 26.836 21.336 26.5 21.75 26.5H31.25C31.664 26.5 32 26.836 32 27.25C32 27.664 31.664 28 31.25 28Z" fill="#8F72F5"/>
<path d="M15.75 33C14.233 33 13 31.767 13 30.25V14.75C13 13.233 14.233 12 15.75 12H27.25C27.664 12 28 12.336 28 12.75C28 13.164 27.664 13.5 27.25 13.5H15.75C15.061 13.5 14.5 14.061 14.5 14.75V30.25C14.5 30.939 15.061 31.5 15.75 31.5C16.164 31.5 16.5 31.836 16.5 32.25C16.5 32.664 16.164 33 15.75 33Z" fill="#8F72F5"/>
<defs>
<linearGradient id="paint0_linear_60_2793" x1="0" y1="0" x2="50.9039" y2="3.30748" gradientUnits="userSpaceOnUse">
<stop stop-color="#E8E0FF"/>
<stop offset="1" stop-color="#FFFDD3"/>
</linearGradient>
</defs>
</svg>
