<svg width="48" height="48" viewBox="0 0 48 48" fill="none" xmlns="http://www.w3.org/2000/svg">
<rect width="48" height="48" rx="24" fill="url(#paint0_linear_60_2806)"/>
<g clip-path="url(#clip0_60_2806)">
<path d="M24 16C22.897 16 22 15.103 22 14C22 12.897 22.897 12 24 12C25.103 12 26 12.897 26 14C26 15.103 25.103 16 24 16ZM24 13.5C23.725 13.5 23.5 13.724 23.5 14C23.5 14.276 23.725 14.5 24 14.5C24.275 14.5 24.5 14.276 24.5 14C24.5 13.724 24.275 13.5 24 13.5Z" fill="#8F72F5"/>
<path d="M25.25 16.9004C26.8222 16.9004 28.0996 18.1778 28.0996 19.75V20.25C28.0996 20.7192 27.7192 21.0996 27.25 21.0996C26.7808 21.0996 26.4004 20.7192 26.4004 20.25V19.75C26.4004 19.1162 25.8838 18.5996 25.25 18.5996H22.75C22.1162 18.5996 21.5996 19.1162 21.5996 19.75V20.25C21.5996 20.7192 21.2192 21.0996 20.75 21.0996C20.2808 21.0996 19.9004 20.7192 19.9004 20.25V19.75C19.9004 18.1778 21.1778 16.9004 22.75 16.9004H25.25Z" fill="#8F72F5" stroke="#8F72F5" stroke-width="0.2"/>
<path d="M32 31C30.897 31 30 30.103 30 29C30 27.897 30.897 27 32 27C33.103 27 34 27.897 34 29C34 30.103 33.103 31 32 31ZM32 28.5C31.725 28.5 31.5 28.724 31.5 29C31.5 29.276 31.725 29.5 32 29.5C32.275 29.5 32.5 29.276 32.5 29C32.5 28.724 32.275 28.5 32 28.5Z" fill="#8F72F5"/>
<path d="M33.25 31.9004C34.8222 31.9004 36.0996 33.1778 36.0996 34.75V35.25C36.0996 35.7192 35.7192 36.0996 35.25 36.0996C34.7808 36.0996 34.4004 35.7192 34.4004 35.25V34.75C34.4004 34.1162 33.8838 33.5996 33.25 33.5996H30.75C30.1162 33.5996 29.5996 34.1162 29.5996 34.75V35.25C29.5996 35.7192 29.2192 36.0996 28.75 36.0996C28.2808 36.0996 27.9004 35.7192 27.9004 35.25V34.75C27.9004 33.1778 29.1778 31.9004 30.75 31.9004H33.25Z" fill="#8F72F5" stroke="#8F72F5" stroke-width="0.2"/>
<path d="M16 31C14.897 31 14 30.103 14 29C14 27.897 14.897 27 16 27C17.103 27 18 27.897 18 29C18 30.103 17.103 31 16 31ZM16 28.5C15.725 28.5 15.5 28.724 15.5 29C15.5 29.276 15.725 29.5 16 29.5C16.275 29.5 16.5 29.276 16.5 29C16.5 28.724 16.275 28.5 16 28.5Z" fill="#8F72F5"/>
<path d="M17.25 31.9004C18.8222 31.9004 20.0996 33.1778 20.0996 34.75V35.25C20.0996 35.7192 19.7192 36.0996 19.25 36.0996C18.7808 36.0996 18.4004 35.7192 18.4004 35.25V34.75C18.4004 34.1162 17.8838 33.5996 17.25 33.5996H14.75C14.1162 33.5996 13.5996 34.1162 13.5996 34.75V35.25C13.5996 35.7192 13.2192 36.0996 12.75 36.0996C12.2808 36.0996 11.9004 35.7192 11.9004 35.25V34.75C11.9004 33.1778 13.1778 31.9004 14.75 31.9004H17.25Z" fill="#8F72F5" stroke="#8F72F5" stroke-width="0.2"/>
<path d="M24.0004 21.9004C24.4694 21.9006 24.85 22.2809 24.85 22.75V26C24.85 26.2438 24.7452 26.4746 24.5658 26.6348L24.4838 26.6992L21.2338 28.9492C21.0865 29.0512 20.9167 29.0995 20.7513 29.0996C20.4822 29.0996 20.2167 28.9722 20.0521 28.7344C19.7846 28.349 19.8805 27.8183 20.266 27.5518L23.1498 25.5547V22.75C23.1498 22.2808 23.5311 21.9004 24.0004 21.9004Z" fill="#8F72F5" stroke="#8F72F5" stroke-width="0.2"/>
<path d="M23.3014 25.5166C23.5674 25.1329 24.0959 25.0318 24.484 25.3018L27.734 27.5518C28.1202 27.8192 28.2166 28.3488 27.9479 28.7344L27.9469 28.7334C27.7824 28.9714 27.5179 29.0996 27.2487 29.0996C27.0834 29.0996 26.9135 29.0511 26.7662 28.9492L23.5162 26.6992C23.13 26.4319 23.0328 25.9022 23.3014 25.5166Z" fill="#8F72F5" stroke="#8F72F5" stroke-width="0.2"/>
</g>
<defs>
<linearGradient id="paint0_linear_60_2806" x1="0" y1="0" x2="50.9039" y2="3.30748" gradientUnits="userSpaceOnUse">
<stop stop-color="#E8E0FF"/>
<stop offset="1" stop-color="#FFFDD3"/>
</linearGradient>
<clipPath id="clip0_60_2806">
<rect width="24" height="24" fill="white" transform="translate(12 12)"/>
</clipPath>
</defs>
</svg>
