<svg width="48" height="48" viewBox="0 0 48 48" fill="none" xmlns="http://www.w3.org/2000/svg">
<rect width="48" height="48" rx="24" fill="url(#paint0_linear_60_2782)"/>
<g clip-path="url(#clip0_60_2782)">
<path d="M19.4814 20.9775C19.8097 20.9776 20.1012 21.1876 20.2051 21.499V21.5C20.2054 21.5009 20.2065 21.5022 20.207 21.5039C20.2082 21.5075 20.2095 21.5134 20.2119 21.5205C20.2167 21.5347 20.2243 21.5557 20.2334 21.583L20.582 22.6289C21.3316 24.8776 23.1223 26.6684 25.3711 27.418C25.6995 27.5273 25.9823 27.6217 26.1826 27.6885C26.2826 27.7218 26.3625 27.7484 26.417 27.7666C26.4441 27.7757 26.4653 27.7824 26.4795 27.7871C26.4864 27.7894 26.4915 27.7918 26.4951 27.793C26.4966 27.7935 26.4981 27.7936 26.499 27.7939H26.501V27.7949C26.8124 27.8989 27.0225 28.1902 27.0225 28.5186C27.0224 28.8469 26.8124 29.1382 26.501 29.2422L26.499 29.2432C26.4981 29.2435 26.4966 29.2436 26.4951 29.2441C26.4915 29.2453 26.4864 29.2477 26.4795 29.25C26.4653 29.2547 26.4442 29.2614 26.417 29.2705C26.3624 29.2887 26.2826 29.3153 26.1826 29.3486C25.9822 29.4154 25.6988 29.5097 25.3701 29.6191C23.1216 30.3688 21.3316 32.1595 20.582 34.4082L20.2334 35.4541C20.2243 35.4813 20.2166 35.5024 20.2119 35.5166C20.2097 35.5234 20.2082 35.5287 20.207 35.5322C20.2065 35.5337 20.2063 35.5353 20.2061 35.5361L20.2051 35.5381C20.1012 35.8495 19.8097 36.0595 19.4814 36.0596C19.153 36.0596 18.8608 35.8496 18.7568 35.5381V35.5361C18.7565 35.5352 18.7564 35.5338 18.7559 35.5322C18.7547 35.5286 18.7523 35.5235 18.75 35.5166C18.7453 35.5025 18.7385 35.4812 18.7295 35.4541C18.7113 35.3995 18.6848 35.319 18.6514 35.2188C18.5846 35.0183 18.4902 34.7357 18.3809 34.4072C17.6313 32.1587 15.8406 30.3687 13.5918 29.6191L12.5459 29.2705C12.5187 29.2615 12.4976 29.2547 12.4834 29.25C12.4763 29.2476 12.4704 29.2453 12.4668 29.2441C12.4651 29.2436 12.4638 29.2435 12.4629 29.2432L12.4619 29.2422C12.1505 29.1383 11.9405 28.8469 11.9404 28.5186C11.9404 28.1902 12.1504 27.8988 12.4619 27.7949V27.7939H12.4629C12.4637 27.7937 12.4652 27.7935 12.4668 27.793C12.4704 27.7918 12.4763 27.7895 12.4834 27.7871C12.4976 27.7824 12.5187 27.7757 12.5459 27.7666L13.5918 27.418C15.8405 26.6684 17.6313 24.8777 18.3809 22.6289L18.7295 21.583C18.7386 21.5558 18.7453 21.5347 18.75 21.5205C18.7524 21.5134 18.7547 21.5075 18.7559 21.5039C18.7564 21.5023 18.7566 21.5008 18.7568 21.5V21.499C18.8608 21.1875 19.153 20.9775 19.4814 20.9775ZM19.4805 23.9902C19.0292 24.9832 18.4016 25.8972 17.6309 26.668C16.8598 27.439 15.9453 28.0662 14.9521 28.5176C15.9456 28.9689 16.8597 29.598 17.6309 30.3691C18.4017 31.14 19.0292 32.054 19.4805 33.0469C19.9318 32.0536 20.561 31.1401 21.332 30.3691C22.1029 29.5983 23.0159 28.9689 24.0088 28.5176C23.0161 28.0663 22.1026 27.4385 21.332 26.668C20.561 25.897 19.9318 24.9833 19.4805 23.9902Z" fill="#8F72F5" stroke="#8F72F5" stroke-width="0.12"/>
<path d="M30.025 11.9404C30.3691 11.9404 30.6602 12.1676 30.7554 12.4805L30.9078 12.8936C31.7305 14.9332 33.4258 16.5411 35.5211 17.2451C35.8325 17.3412 36.06 17.6315 36.0601 17.9746C36.0601 18.3188 35.832 18.6089 35.5191 18.7041C33.284 19.4557 31.5049 21.2371 30.7545 23.4727C30.658 23.7837 30.3678 24.0098 30.025 24.0098C29.6804 24.0097 29.3893 23.7813 29.2945 23.4678V23.4668C28.5425 21.2326 26.7619 19.4543 24.5269 18.7041V18.7031C24.2163 18.6065 23.9908 18.3172 23.9908 17.9746C23.9909 17.6302 24.2185 17.339 24.5318 17.2441C26.7666 16.4923 28.5461 14.712 29.2964 12.4766C29.393 12.1659 29.6825 11.9405 30.025 11.9404ZM30.025 14.5625C29.6222 15.2702 29.1267 15.9256 28.5513 16.501C27.976 17.0763 27.3206 17.5719 26.6129 17.9746C27.3207 18.3774 27.9759 18.8738 28.5513 19.4492C29.1265 20.0244 29.6223 20.6792 30.025 21.3867C30.4277 20.679 30.9243 20.0245 31.4996 19.4492C32.0747 18.8741 32.7287 18.3773 33.4361 17.9746C32.7289 17.572 32.0746 17.0759 31.4996 16.501C30.9242 15.9256 30.4277 15.2703 30.025 14.5625Z" fill="#8F72F5" stroke="#8F72F5" stroke-width="0.12"/>
<path d="M12.4952 16.3873C13.6883 16.7902 14.6387 17.7398 15.0425 18.9324C15.1301 19.221 15.3983 19.4309 15.7154 19.4309C16.0313 19.4309 16.2985 19.2225 16.3873 18.9357C16.7901 17.7426 17.7397 16.7923 18.9323 16.3884C19.2209 16.3008 19.4309 16.0327 19.4309 15.7155C19.4309 15.3996 19.2225 15.1324 18.9356 15.0436C17.7426 14.6408 16.7922 13.6912 16.3883 12.4986C16.3008 12.21 16.0326 12 15.7155 12C15.3996 12 15.1323 12.2084 15.0436 12.4952C14.6408 13.6882 13.6912 14.6386 12.4985 15.0425C12.21 15.1301 12 15.3983 12 15.7155C12 16.0313 12.2085 16.2986 12.4952 16.3873ZM15.7155 14.2691C16.1027 14.8365 16.5943 15.3282 17.1617 15.7154C16.5943 16.1027 16.1027 16.5943 15.7155 17.1617C15.3282 16.5943 14.8366 16.1026 14.2692 15.7154C14.8366 15.3282 15.3282 14.8366 15.7155 14.2691Z" fill="#8F72F5"/>
<path d="M35.5048 31.612C34.3117 31.2091 33.3613 30.2594 32.9575 29.0668C32.8699 28.7783 32.6018 28.5684 32.2846 28.5684C31.9687 28.5684 31.7015 28.7768 31.6127 29.0636C31.2099 30.2567 30.2603 31.207 29.0677 31.6109C28.7791 31.6984 28.5692 31.9666 28.5692 32.2838C28.5692 32.5997 28.7776 32.8669 29.0644 32.9556C30.2574 33.3585 31.2078 34.3081 31.6117 35.5007C31.6992 35.7893 31.9674 35.9992 32.2846 35.9992C32.6004 35.9992 32.8677 35.7908 32.9564 35.504C33.3592 34.311 34.3089 33.3606 35.5015 32.9567C35.7901 32.8691 36 32.601 36 32.2838C36 31.9679 35.7916 31.7007 35.5048 31.612ZM32.2846 33.7301C31.8973 33.1627 31.4057 32.6711 30.8383 32.2839C31.4057 31.8966 31.8973 31.405 32.2846 30.8376C32.6718 31.405 33.1634 31.8966 33.7308 32.2839C33.1634 32.6711 32.6718 33.1627 32.2846 33.7301Z" fill="#8F72F5"/>
</g>
<defs>
<linearGradient id="paint0_linear_60_2782" x1="0" y1="0" x2="50.9039" y2="3.30748" gradientUnits="userSpaceOnUse">
<stop stop-color="#E8E0FF"/>
<stop offset="1" stop-color="#FFFDD3"/>
</linearGradient>
<clipPath id="clip0_60_2782">
<rect width="24" height="24" fill="white" transform="translate(12 12)"/>
</clipPath>
</defs>
</svg>
