<svg width="48" height="48" viewBox="0 0 48 48" fill="none" xmlns="http://www.w3.org/2000/svg">
<rect width="48" height="48" rx="24" fill="url(#paint0_linear_170_106)"/>
<path d="M24 17.1582C21.5432 17.1582 19.5444 19.157 19.5444 21.6138C19.5444 24.0706 21.5432 26.0694 24 26.0694C26.4568 26.0694 28.4556 24.0706 28.4556 21.6138C28.4556 19.157 26.4568 17.1582 24 17.1582ZM24 24.1934C22.5776 24.1934 21.4204 23.0362 21.4204 21.6138C21.4204 20.1914 22.5776 19.0342 24 19.0342C25.4224 19.0342 26.5796 20.1914 26.5796 21.6138C26.5796 23.0362 25.4224 24.1934 24 24.1934Z" fill="#8F72F5"/>
<path d="M24 12C18.6984 12 14.3853 16.3132 14.3853 21.6148V21.8805C14.3853 24.5618 15.9225 27.6863 18.9543 31.1671C21.1522 33.6905 23.3194 35.45 23.4105 35.5237L24 36L24.5895 35.5237C24.6807 35.45 26.8479 33.6905 29.0457 31.1671C32.0775 27.6863 33.6148 24.5618 33.6148 21.8806V21.6148C33.6148 16.3132 29.3016 12 24 12ZM31.7388 21.8806C31.7388 26.4118 25.9004 31.8968 24 33.5619C22.0991 31.8963 16.2613 26.4114 16.2613 21.8806V21.6148C16.2613 17.3477 19.7329 13.8761 24 13.8761C28.2671 13.8761 31.7388 17.3477 31.7388 21.6148V21.8806Z" fill="#8F72F5"/>
<defs>
<linearGradient id="paint0_linear_170_106" x1="0" y1="0" x2="50.9039" y2="3.30748" gradientUnits="userSpaceOnUse">
<stop stop-color="#E8E0FF"/>
<stop offset="1" stop-color="#FFFDD3"/>
</linearGradient>
</defs>
</svg>
