<svg width="48" height="48" viewBox="0 0 48 48" fill="none" xmlns="http://www.w3.org/2000/svg">
<rect width="48" height="48" rx="24" fill="url(#paint0_linear_60_3007)"/>
<g clip-path="url(#clip0_60_3007)">
<path d="M24 35.75C17.5 35.75 12.25 30.5 12.25 24C12.25 17.5 17.5 12.25 24 12.25C30.5 12.25 35.75 17.5 35.75 24C35.75 30.5 30.5 35.75 24 35.75ZM24 14.2C18.6 14.2 14.2 18.6 14.2 24C14.2 29.4 18.6 33.8 24 33.8C29.4 33.8 33.8 29.4 33.8 24C33.8 18.6 29.4 14.2 24 14.2Z" fill="#8F72F5"/>
<path d="M27.65 19.9496C28.3 20.4996 28.6 21.3496 28.6 22.4996C28.6 23.6496 28.25 24.4496 27.6 24.9996C26.95 25.5496 25.9 25.7996 24.55 25.7996H23.3V28.8996C23.3 29.4496 22.85 29.9496 22.25 29.9496C21.7 29.9496 21.2 29.4996 21.2 28.8996V20.0496C21.2 19.4996 21.65 19.0996 22.15 19.0996H24.45C26 19.0996 27.05 19.3996 27.65 19.9496ZM26.15 23.5496C26.4 23.2496 26.5 22.8496 26.5 22.3496C26.5 21.8496 26.35 21.4496 26 21.1996C25.7 20.9996 25.2 20.8496 24.5 20.8496H23.3V23.9996H24.7C25.45 23.9996 25.9 23.8496 26.15 23.5496Z" fill="#8F72F5"/>
</g>
<defs>
<linearGradient id="paint0_linear_60_3007" x1="0" y1="0" x2="50.9039" y2="3.30748" gradientUnits="userSpaceOnUse">
<stop stop-color="#E8E0FF"/>
<stop offset="1" stop-color="#FFFDD3"/>
</linearGradient>
<clipPath id="clip0_60_3007">
<rect width="24" height="24" fill="white" transform="translate(12 12)"/>
</clipPath>
</defs>
</svg>
