<svg width="60" height="60" viewBox="0 0 60 60" fill="none" xmlns="http://www.w3.org/2000/svg">
<circle cx="30" cy="30" r="30" fill="#AF99FF"/>
<path d="M30 22.0195C27.1337 22.0195 24.8018 24.3515 24.8018 27.2177C24.8018 30.084 27.1337 32.416 30 32.416C32.8663 32.416 35.1982 30.084 35.1982 27.2177C35.1982 24.3515 32.8663 22.0195 30 22.0195ZM30 30.2273C28.3405 30.2273 26.9905 28.8772 26.9905 27.2177C26.9905 25.5583 28.3405 24.2082 30 24.2082C31.6594 24.2082 33.0095 25.5583 33.0095 27.2177C33.0095 28.8772 31.6594 30.2273 30 30.2273Z" fill="white"/>
<path d="M29.9999 16C23.8147 16 18.7827 21.0321 18.7827 27.2172V27.5273C18.7827 30.6554 20.5761 34.3007 24.1133 38.3616C26.6775 41.3055 29.2059 43.3583 29.3122 43.4443L29.9999 44L30.6877 43.4443C30.7941 43.3584 33.3224 41.3056 35.8866 38.3617C39.4237 34.3007 41.2172 30.6555 41.2172 27.5274V27.2173C41.2172 21.0321 36.1852 16 29.9999 16ZM39.0285 27.5274C39.0285 32.8137 32.2171 39.213 29.9999 41.1556C27.7822 39.2124 20.9714 32.8133 20.9714 27.5274V27.2173C20.9714 22.239 25.0216 18.1888 29.9999 18.1888C34.9783 18.1888 39.0285 22.239 39.0285 27.2173V27.5274Z" fill="white"/>
</svg>
