<svg width="120" height="120" viewBox="0 0 120 120" fill="none" xmlns="http://www.w3.org/2000/svg">
<path d="M60.0704 30.5293C59.7882 30.5293 59.5059 30.6704 59.3178 30.8586L56.5894 32.8343C56.4483 32.9284 56.4013 33.1165 56.4483 33.3047C56.4953 33.4458 56.6365 33.5869 56.8246 33.5869H63.3162C63.5044 33.5869 63.6455 33.4458 63.6925 33.3047C63.7396 33.1165 63.6925 32.9754 63.5514 32.8343L60.9171 30.9056C60.6819 30.6704 60.3997 30.5763 60.0704 30.5293Z" fill="#A1A1A1"/>
<path d="M60.1178 27.7539C60.5412 27.8009 60.9175 27.942 61.1997 28.2243L67.9735 33.2106C68.0206 33.2576 68.1147 33.3517 68.0206 33.4458C68.0206 33.4928 66.7034 35.2803 66.7034 35.2803C66.3271 35.7978 65.7156 36.033 65.1041 35.9389H52.215C52.0268 35.9389 51.8387 36.08 51.7446 36.2211C51.6505 36.4093 51.6505 36.6445 51.7916 36.7856C52.1209 37.256 59.1299 46.9464 60.1178 48.1694C60.8704 47.1816 65.2922 41.0663 65.3393 40.9722C65.3863 40.8781 65.3863 40.8311 65.3393 40.737C65.2922 40.69 65.2452 40.6429 65.1982 40.6429H63.0343C62.8932 40.6429 62.7991 40.69 62.705 40.7841C62.6109 40.8781 60.1648 44.3121 60.1648 44.3121L55.696 38.1498H66.0919C66.8916 38.1968 67.6913 37.8205 68.1617 37.162C68.8673 36.2211 70.6548 33.728 70.9841 33.3046C71.2193 33.0224 71.1723 32.599 70.89 32.3168C70.89 32.3168 70.89 32.3168 70.843 32.3168C70.843 32.3168 62.6109 26.3427 62.1876 26.0604C61.6231 25.59 60.9645 25.3078 60.2119 25.2607C59.5063 25.3078 58.8007 25.543 58.2362 26.0134C57.8598 26.2956 49.1574 32.599 49.1574 32.599C49.1574 32.599 49.0633 32.7872 49.1103 32.8342L50.2393 34.3395C50.2863 34.4336 50.4275 34.4336 50.5216 34.3866L58.9418 28.2243C59.3181 27.9891 59.6944 27.848 60.1178 27.7539Z" fill="#A1A1A1"/>
<path d="M41.3956 44.1241C41.3486 44.4063 41.3486 44.6886 41.4427 44.9708L42.4776 48.1696C42.5246 48.2166 42.6187 48.4518 42.8539 48.4518C43.0421 48.4518 43.1832 48.3107 43.2773 48.1696L45.3 42.0073C45.347 41.8191 45.253 41.6309 45.1118 41.5369C44.9707 41.4428 44.7826 41.4428 44.6414 41.5369L42.0072 43.4655C41.7249 43.6066 41.5368 43.8418 41.3956 44.1241Z" fill="#A1A1A1"/>
<path d="M38.7615 43.23C38.9496 42.8537 39.2319 42.5714 39.5612 42.3362C40.1256 41.9599 46.335 37.444 46.335 37.397C46.429 37.3499 46.5231 37.3499 46.5702 37.444C46.6172 37.4911 47.9343 39.2786 47.9343 39.2786C48.4047 39.9372 48.2166 40.5016 48.0755 41.0191C47.9343 41.5365 44.2182 52.8733 44.1241 53.2966C44.077 53.4848 44.1241 53.673 44.2652 53.8141C44.4063 53.9552 44.6415 54.0493 44.8297 53.9552C45.3942 53.767 56.7309 50.0979 58.2362 49.5804C57.4835 48.5926 53.0617 42.4773 53.0147 42.3833C53.0147 42.3362 52.9206 42.2892 52.8736 42.3362H52.8265C52.7795 42.3833 52.7325 42.3833 52.6854 42.4773C52.6384 42.5714 52.0269 44.406 51.9798 44.5942C51.9328 44.7353 51.9798 44.8764 52.0269 44.9705C52.1209 45.0646 54.567 48.4985 54.567 48.4985L47.2758 50.8505C47.2758 50.8505 50.2864 41.6306 50.4745 40.9721C50.7568 40.2194 50.6627 39.4197 50.1923 38.7612C49.4867 37.7733 47.6991 35.3272 47.3699 34.9038C47.1347 34.5746 46.7113 34.5275 46.429 34.7627C46.429 34.7627 46.429 34.7627 46.382 34.7627C46.382 34.7627 38.1499 40.7839 37.7266 41.0661C37.1151 41.4425 36.6447 42.0069 36.3624 42.7125C36.1742 43.4182 36.2213 44.1708 36.5035 44.8294C36.6446 45.2527 39.9845 55.5075 39.9845 55.5075C40.0316 55.6016 40.1256 55.6487 40.2197 55.6487L42.0073 55.0842C42.1013 55.0371 42.1484 54.943 42.1484 54.849L38.9026 44.9234C38.7615 44.359 38.7144 43.7945 38.7615 43.23Z" fill="#A1A1A1"/>
<path d="M48.5457 66.0446C48.7809 66.1857 49.0631 66.2798 49.3453 66.2328H52.6852C52.8734 66.2328 53.0145 66.0916 53.0615 65.9505C53.1086 65.7623 53.0615 65.5742 52.9204 65.4801L47.746 61.6698C47.5108 61.5758 47.2285 61.6698 47.1344 61.905C47.0874 61.9991 47.0874 62.0932 47.0874 62.1873C47.1344 62.4225 48.0752 65.2919 48.0752 65.2919C48.1693 65.5742 48.3105 65.8564 48.5457 66.0446Z" fill="#A1A1A1"/>
<path d="M46.8991 68.2556C46.6169 67.9734 46.3817 67.5971 46.2876 67.2207C46.0524 66.5622 43.7004 59.2709 43.7004 59.2709C43.6534 59.1768 43.7004 59.0828 43.8415 59.0357C43.8886 59.0357 45.9583 58.3301 45.9583 58.3301C46.5699 58.142 47.2284 58.3301 47.6518 58.7535C48.1222 59.0828 57.7184 66.0447 58.0947 66.327C58.2359 66.4681 58.4711 66.4681 58.6592 66.374C58.8474 66.2799 58.9415 66.0918 58.9415 65.9036V51.7915C57.7655 52.1678 50.6153 54.5198 50.4742 54.5198C50.3331 54.5198 50.3331 54.661 50.3331 54.661C50.3331 54.708 50.3801 54.755 50.3801 54.8021C50.4272 54.8491 52.0265 55.9781 52.1677 56.1192C52.2617 56.2133 52.4029 56.2133 52.544 56.1663L56.6835 54.8021V62.4226C56.6835 62.4226 48.8278 56.7307 48.2633 56.3074C47.6518 55.7899 46.8051 55.6488 46.0524 55.9311C44.9234 56.3074 42.0069 57.2482 41.4895 57.3893C41.1132 57.5304 40.925 57.9068 41.0191 58.2831C41.0191 58.2831 44.1708 67.9734 44.3119 68.4438C44.5001 69.1494 44.9234 69.808 45.4879 70.2313C46.0995 70.6077 46.8051 70.7958 47.5577 70.7958H58.8004C58.8944 70.7958 58.9885 70.7488 58.9885 70.6547C58.9885 70.6547 58.9885 70.6547 58.9885 70.6077V68.726C58.9885 68.632 58.8944 68.5379 58.8004 68.5379H48.4044C47.6518 68.632 47.2284 68.5379 46.8991 68.2556Z" fill="#A1A1A1"/>
<path d="M71.6423 66.0446C71.8305 65.8564 71.9716 65.6212 72.0657 65.339L73.1005 62.0932C73.1946 61.905 73.1005 61.7169 72.9594 61.6228C72.8183 61.5287 72.5831 61.5287 72.442 61.6228L67.2205 65.4331C67.0794 65.5272 66.9853 65.7153 67.0794 65.9035C67.1264 66.0446 67.2675 66.1857 67.4557 66.1857H70.7485C71.0778 66.2798 71.36 66.1857 71.6423 66.0446Z" fill="#A1A1A1"/>
<path d="M73.2419 68.3027C72.9126 68.5379 72.4892 68.5849 72.0658 68.5379H63.6456C63.5515 68.5379 63.4575 68.4908 63.4575 68.3968C63.4575 68.3968 63.4575 68.3968 63.4575 68.3497V66.0918C63.4575 65.4803 63.7867 64.8687 64.3512 64.5865C64.8216 64.2572 74.4179 57.2482 74.7942 57.013C74.9353 56.8719 75.0294 56.6837 74.9823 56.4955C74.9353 56.3074 74.7942 56.1663 74.606 56.1192C74.0415 55.9311 62.7048 52.2619 61.1995 51.7915V60.7292C61.1995 60.8703 61.2466 60.8703 61.2936 60.9173C61.3406 60.9644 61.3877 60.9173 61.4347 60.9173C61.4347 60.9173 61.4347 60.9173 61.4347 60.8703C61.4818 60.8233 63.0811 59.6943 63.2223 59.5532C63.3163 59.4591 63.3634 59.365 63.3634 59.2239V54.8962L70.6546 57.2482C70.6546 57.2482 62.7989 62.9401 62.2344 63.3634C61.5288 63.7868 61.1054 64.5394 61.1525 65.3391V70.0902C61.1525 70.4665 61.3877 70.7958 61.764 70.7958C61.811 70.7958 61.811 70.7958 61.8581 70.7958H72.5362C74.0415 70.9369 75.4528 69.9491 75.735 68.4438C75.8761 68.0204 79.1689 57.7656 79.1689 57.7656C79.216 57.6716 79.1219 57.5775 79.0749 57.5304L77.2873 56.9659C77.1932 56.9189 77.0992 56.9659 77.0521 57.06C77.0521 57.06 77.0521 57.06 77.0521 57.1071L73.8534 67.0326C73.8534 67.55 73.6182 68.0204 73.2419 68.3027Z" fill="#A1A1A1"/>
<path d="M78.7454 44.0769C78.6983 43.8416 78.5102 43.7005 78.1809 43.4653L75.4525 41.4896C75.3114 41.3485 75.1232 41.3485 74.9821 41.4896C74.7469 41.6308 74.7469 41.866 74.841 41.96L76.8167 48.1223C76.8637 48.3105 77.0519 48.4046 77.2401 48.4046C77.3812 48.4046 77.5223 48.2634 77.6164 48.1223C77.6634 47.8871 78.6042 45.0177 78.6042 45.0177C78.7924 44.5473 78.8394 44.3121 78.7454 44.0769Z" fill="#A1A1A1"/>
<path d="M81.3797 43.2773C81.4737 43.6537 81.4267 44.077 81.2385 44.4533C81.0033 45.1119 78.6513 52.4032 78.6513 52.4032C78.6043 52.4973 78.5102 52.5443 78.4161 52.5443C78.3691 52.5443 76.2993 51.8387 76.2993 51.8387C75.4996 51.6035 75.3585 51.039 75.1703 50.4745C74.9822 49.91 71.313 38.6203 71.1719 38.197C71.1249 38.0088 70.9367 37.8677 70.7485 37.8677C70.5604 37.8207 70.3722 37.9147 70.2781 38.1029C69.9488 38.5733 62.9398 48.2636 61.999 49.5337C63.175 49.91 70.3252 52.262 70.4663 52.262C70.6074 52.262 70.6544 52.262 70.6544 52.215C70.7015 52.168 70.7015 52.1209 70.7015 52.0739C70.6545 52.0268 70.09 50.1452 69.9959 49.9571C69.9959 49.8159 69.9018 49.7219 69.7607 49.7219L65.6211 48.3577L70.09 42.1954C70.09 42.1954 73.1006 51.4153 73.2887 52.0739C73.4769 52.8265 74.0884 53.4381 74.841 53.6733C75.97 54.0496 78.8865 54.9904 79.3569 55.1315C79.6862 55.2726 80.1096 55.0845 80.2036 54.7552C80.2036 54.7081 80.2036 54.7081 80.2507 54.6611C80.2507 54.6611 83.4024 44.9708 83.5435 44.5004C83.8258 43.8418 83.8728 43.0892 83.6846 42.3836C83.4024 41.725 82.932 41.1135 82.3205 40.7372C81.9441 40.4549 73.2417 34.1515 73.2417 34.1515C73.1476 34.1045 73.0535 34.1045 73.0065 34.1985L71.9245 35.7038C71.8775 35.7979 71.8775 35.939 71.9716 35.9861L80.3918 42.1484C81.0033 42.5717 81.2856 42.901 81.3797 43.2773Z" fill="#A1A1A1"/>
<path d="M88.1065 79.0747H86.6953V92.0578H88.7651V79.7803C88.7651 79.404 88.4828 79.1217 88.1065 79.0747C88.1065 79.1217 88.1065 79.1217 88.1065 79.0747Z" fill="#A1A1A1"/>
<path d="M53.1557 80.7212H51.0859V82.2265H53.1557V80.7212Z" fill="#A1A1A1"/>
<path d="M105.371 93.2339H107.44V94.7392H105.371V93.2339Z" fill="#A1A1A1"/>
<path d="M31.2349 94.8334H33.3046V93.3281H31.2349V94.8334Z" fill="#A1A1A1"/>
<path d="M11.7603 94.8334H13.83V93.3281H11.7603V94.8334Z" fill="#A1A1A1"/>
<path d="M14.6294 94.8334H16.6992V93.3281H14.6294V94.8334Z" fill="#A1A1A1"/>
<path d="M57.5303 94.8334H59.6V93.3281H57.5303V94.8334Z" fill="#A1A1A1"/>
<path d="M60.353 94.8334H62.4228V93.3281H60.353V94.8334Z" fill="#A1A1A1"/>
<path d="M115.766 90.3643C114.073 90.3643 112.991 89.4235 112.991 87.7771C112.991 86.1307 114.073 85.0958 115.766 85.0958C116.472 85.0488 117.13 85.284 117.695 85.6603V83.8727C116.989 83.5435 116.237 83.4023 115.437 83.4023C112.709 83.4023 110.827 85.2369 110.827 87.9182C110.827 88.7649 111.015 89.6117 111.486 90.3643H109.086C107.769 90.3643 107.346 89.941 107.346 88.6238V83.6375H105.276V88.6238C105.276 89.941 104.853 90.3643 103.536 90.3643H100.807V87.9653C100.807 85.284 98.9258 83.4494 96.1974 83.4494C95.3977 83.4494 94.6451 83.5905 93.9395 83.9198V85.7073C94.504 85.331 95.1625 85.1428 95.8682 85.1428C97.5616 85.1428 98.6435 86.1777 98.6435 87.8241V90.4114H93.2339V92.1989H103.63C104.806 92.1989 105.653 92.0107 106.217 91.5874C107.017 92.0578 107.91 92.2459 108.804 92.1989H118.259V90.4114L115.766 90.3643Z" fill="#A1A1A1"/>
<path d="M68.538 85.096C70.2315 85.096 71.3134 86.1309 71.3134 87.7773V90.3646H66.6094V85.6605C67.1738 85.2842 67.8795 85.096 68.538 85.096ZM53.344 85.2372V90.3175C52.9206 90.4586 49.6278 91.1172 49.6278 87.8244C49.5807 84.4375 52.8736 85.1431 53.344 85.2372ZM83.2146 79.0749H81.8034V90.3646H78.6517V79.6864C78.6517 79.3571 78.3224 79.0749 77.9931 79.0749H76.5819V90.3646H73.4773V87.9185C73.4773 85.2372 71.5956 83.4026 68.8673 83.4026C68.0676 83.4026 67.315 83.5437 66.6094 83.873V79.6394C66.6094 79.3101 66.2801 79.0278 65.9508 79.0278H64.5396V90.3175H62.658C61.3408 90.3175 60.9175 89.8942 60.9175 88.577V83.5907H58.8477V88.577C58.8477 89.8942 58.4243 90.3175 57.1072 90.3175H55.3197V83.5907C54.2848 83.5907 53.391 83.4026 51.9328 83.4026C49.2044 83.4026 47.4639 85.002 47.4639 87.7303C47.4169 88.6241 47.6521 89.5178 48.1225 90.3175H45.3942C43.7007 90.3175 42.6188 89.3767 42.6188 87.7303V83.6378H40.502V87.9185C40.502 90.5527 42.1954 92.1051 44.9237 92.1051H57.3424C58.5184 92.1051 59.3651 91.9169 59.9296 91.4935C60.6823 91.9169 61.529 92.1051 62.4228 92.1051H83.8261V79.6394C83.8732 79.3571 83.5909 79.0749 83.2146 79.0749Z" fill="#A1A1A1"/>
<path d="M21.3095 87.7773C21.3095 84.4375 24.6023 85.1431 25.0257 85.2372V87.9185V90.2705C24.6494 90.4586 21.3095 91.0702 21.3095 87.7773ZM31.6584 83.4496C30.8587 83.4496 30.1061 83.5907 29.4005 83.92V85.7076C29.9649 85.3312 30.6235 85.096 31.3291 85.1431C33.0226 85.1431 34.1045 86.178 34.1045 87.8244V90.4116H28.836C27.6129 90.4116 27.1425 90.0353 27.0955 88.9063V83.6848C26.0606 83.6848 25.1668 83.4967 23.7086 83.4967C20.9802 83.4967 19.2397 85.096 19.2397 87.7773V88.7181C19.2397 90.0353 18.8164 90.4586 17.4992 90.4586H16.9818C15.6647 90.4586 15.2413 90.0353 15.2413 88.7181V83.7319H13.1715V88.7181C13.1715 90.0353 12.7482 90.4586 11.431 90.4586H10.7254C9.4083 90.4586 8.98494 90.0353 8.98494 88.7181V79.7805C8.98494 79.4512 8.65566 79.1689 8.32638 79.1689H6.91516V92.9988C6.44476 93.0929 6.0214 93.0929 5.55099 93.0929C4.23386 93.0929 3.8105 92.6695 3.8105 91.3524V86.3661H1.74072V91.3994C1.74072 92.8107 1.92888 93.4692 2.54041 94.0337C3.15193 94.5982 4.0457 94.7863 5.36283 94.7863C6.58588 94.7863 7.76189 94.6452 8.9379 94.41V92.011C9.36126 92.1051 9.83167 92.1521 10.255 92.1991H11.4781C12.6541 92.1991 13.5008 92.011 14.0653 91.5876C14.7709 92.011 15.6176 92.1991 16.4173 92.1521H17.6404C18.9105 92.1521 19.8042 91.8698 20.3687 91.3994C20.4158 91.3524 20.4628 91.3054 20.5098 91.2113C22.2503 92.5284 25.1198 92.1521 26.578 91.8698C27.2366 92.058 27.8952 92.1521 28.5537 92.1521H36.1272V87.9655C36.3154 85.2842 34.4338 83.4496 31.6584 83.4496Z" fill="#A1A1A1"/>
</svg>
