<svg width="176" height="176" viewBox="0 0 176 176" fill="none" xmlns="http://www.w3.org/2000/svg">
<path d="M60.1215 78.9186C59.766 78.6324 59.3895 78.3736 58.9951 78.1442C58.6431 77.9682 58.2911 77.7922 57.9391 77.6514C57.9208 77.6313 57.8957 77.6188 57.8687 77.6162C57.5382 77.4898 57.1964 77.3955 56.8479 77.3346C56.3495 77.2354 55.8423 77.1883 55.3343 77.1938C53.3043 77.2003 51.3599 78.012 49.9279 79.4507C48.4958 80.8894 47.693 82.8375 47.6959 84.8674C47.6883 86.9174 48.4844 88.8888 49.9135 90.3586C50.6037 91.0946 51.4381 91.6807 52.3646 92.0804C53.2911 92.4801 54.29 92.6848 55.2991 92.6818H59.0303C59.5448 92.6773 60.0532 92.5703 60.5259 92.3671C60.9986 92.1638 61.4261 91.8684 61.7833 91.4981C62.1405 91.1278 62.4203 90.6899 62.6064 90.2102C62.7925 89.7305 62.8811 89.2185 62.8671 88.7042V84.6562C62.8379 83.5607 62.5784 82.4835 62.1053 81.495C61.6323 80.5064 60.9563 79.6286 60.1215 78.9186ZM55.4047 87.5074C54.9076 87.5214 54.4177 87.3868 53.9975 87.1209C53.5774 86.8549 53.2461 86.4696 53.0461 86.0144C52.8461 85.5591 52.7865 85.0546 52.8748 84.5652C52.9631 84.0759 53.1954 83.624 53.542 83.2674C53.8885 82.9108 54.3336 82.6657 54.8202 82.5634C55.3068 82.4611 55.8129 82.5064 56.2737 82.6933C56.7345 82.8802 57.129 83.2003 57.4069 83.6127C57.6847 84.0251 57.8333 84.5109 57.8335 85.0082C57.8381 85.3318 57.779 85.6531 57.6594 85.9538C57.5399 86.2546 57.3623 86.5288 57.1367 86.7609C56.9112 86.993 56.6421 87.1783 56.3449 87.3064C56.0478 87.4345 55.7282 87.5028 55.4047 87.5074Z" fill="#A1A1A1"/>
<path d="M64.0993 73.6032L63.9233 73.1104L63.5009 73.392C62.728 73.8487 61.8828 74.1701 61.0017 74.3424C60.4737 74.4832 59.8753 74.6592 59.2065 74.8704C56.7425 75.6448 56.5313 78.3904 56.5313 78.5312L56.4961 78.848L56.8129 78.9184C58.0801 79.3056 61.2481 79.1648 63.0433 77.44C63.567 76.9678 63.9446 76.3556 64.1318 75.6758C64.3189 74.996 64.3076 74.2768 64.0993 73.6032Z" fill="#A1A1A1"/>
<path d="M56.9888 78.5665C56.9888 78.5665 58.2912 76.7361 60.2976 76.2785C62.5152 75.7505 63.6416 74.2721 63.6768 73.8145C63.6768 73.8145 63.536 75.3281 60.5088 76.3489C60.016 76.4897 58.6432 76.7361 56.9888 78.5665Z" fill="#A1A1A1"/>
<path d="M125.805 77.2286C125.467 77.2277 125.133 77.2935 124.82 77.4223C124.508 77.5511 124.225 77.7404 123.986 77.9792C123.747 78.2179 123.558 78.5016 123.429 78.8138C123.3 79.1259 123.234 79.4605 123.235 79.7982V85.2894C123.229 86.0063 122.941 86.6919 122.434 87.1988C121.927 87.7058 121.242 87.9934 120.525 87.9998H115.738C115.021 87.9934 114.335 87.7058 113.828 87.1988C113.321 86.6919 113.034 86.0063 113.027 85.2894V79.7278C113.027 79.0463 112.756 78.3927 112.275 77.9108C111.793 77.4289 111.139 77.1582 110.458 77.1582C109.776 77.1582 109.123 77.4289 108.641 77.9108C108.159 78.3927 107.888 79.0463 107.888 79.7278V85.2894C107.882 86.0063 107.594 86.6919 107.087 87.1988C106.58 87.7058 105.894 87.9934 105.178 87.9998H86.416C85.6992 87.9934 85.0135 87.7058 84.5066 87.1988C83.9997 86.6919 83.7121 86.0063 83.7056 85.2894V79.7278C83.7056 79.0463 83.4349 78.3927 82.953 77.9108C82.4711 77.4289 81.8175 77.1582 81.136 77.1582C80.4545 77.1582 79.8009 77.4289 79.319 77.9108C78.8371 78.3927 78.5664 79.0463 78.5664 79.7278V85.2894C78.56 86.0063 78.2724 86.6919 77.7655 87.1988C77.2585 87.7058 76.5729 87.9934 75.856 87.9998H67.3728C66.6913 87.9998 66.0377 88.2705 65.5558 88.7524C65.0739 89.2343 64.8032 89.8879 64.8032 90.5694C64.8032 91.2509 65.0739 91.9045 65.5558 92.3864C66.0377 92.8683 66.6913 93.139 67.3728 93.139H75.856C77.7996 93.1466 79.6738 92.417 81.1008 91.0974C82.5348 92.4057 84.4045 93.1335 86.3456 93.139H105.248C107.192 93.1466 109.066 92.417 110.493 91.0974C111.927 92.4057 113.796 93.1335 115.738 93.139H120.525C122.588 93.1381 124.566 92.3182 126.025 90.8595C127.483 89.4008 128.303 87.4227 128.304 85.3598V79.8334C128.319 79.4962 128.266 79.1594 128.147 78.8434C128.028 78.5275 127.846 78.2389 127.613 77.9954C127.379 77.7518 127.098 77.5582 126.787 77.4264C126.477 77.2946 126.142 77.2273 125.805 77.2286Z" fill="#A1A1A1"/>
<path d="M118.378 100.074C119.797 100.074 120.947 98.9233 120.947 97.5042C120.947 96.085 119.797 94.9346 118.378 94.9346C116.959 94.9346 115.808 96.085 115.808 97.5042C115.808 98.9233 116.959 100.074 118.378 100.074Z" fill="#A1A1A1"/>
<path d="M95.885 76.8062C97.3042 76.8062 98.4546 75.6557 98.4546 74.2366C98.4546 72.8174 97.3042 71.667 95.885 71.667C94.4659 71.667 93.3154 72.8174 93.3154 74.2366C93.3154 75.6557 94.4659 76.8062 95.885 76.8062Z" fill="#A1A1A1"/>
<path d="M81.3822 95.005C80.9562 95.0104 80.5362 95.1064 80.1502 95.2866C80.0197 95.1291 79.8429 95.0165 79.6448 94.965C79.4468 94.9135 79.2376 94.9256 79.0468 94.9995C78.856 95.0735 78.6933 95.2056 78.5818 95.3772C78.4703 95.5488 78.4156 95.7511 78.4254 95.9554V103.171C78.407 103.423 78.4893 103.672 78.6543 103.864C78.8192 104.055 79.0534 104.173 79.3054 104.192C79.8334 104.192 80.1502 103.735 80.1502 103.171V100.954C80.5385 101.123 80.9586 101.207 81.3822 101.2C82.1782 101.162 82.929 100.819 83.4789 100.243C84.0288 99.6659 84.3356 98.8995 84.3356 98.1026C84.3356 97.3057 84.0288 96.5394 83.4789 95.9627C82.929 95.3859 82.1782 95.043 81.3822 95.005ZM81.3822 99.1586C81.14 99.1533 80.9077 99.0617 80.7271 98.9004C80.5464 98.7391 80.4292 98.5186 80.3966 98.2786V97.9618C80.4292 97.7218 80.5464 97.5014 80.7271 97.34C80.9077 97.1787 81.14 97.0872 81.3822 97.0818C81.6561 97.091 81.9158 97.2062 82.1062 97.4033C82.2967 97.6004 82.4031 97.8638 82.403 98.1378C82.3942 98.4058 82.2838 98.6603 82.0943 98.8499C81.9047 99.0395 81.6501 99.1499 81.3822 99.1586Z" fill="#A1A1A1"/>
<path fill-rule="evenodd" clip-rule="evenodd" d="M110.352 100.848V100.743C110.34 100.6 110.317 100.459 110.282 100.32L110.176 100.003C110.097 99.7974 110.003 99.5974 109.894 99.405C109.738 99.1571 109.549 98.932 109.331 98.7362C109.184 98.6224 109.032 98.5167 108.874 98.4194C108.752 98.3463 108.622 98.2873 108.486 98.2434H108.451C108.333 98.176 108.2 98.1396 108.064 98.1378H108.029C107.844 98.0971 107.655 98.0735 107.466 98.0674C107.049 98.0655 106.637 98.1561 106.26 98.3326C105.882 98.5091 105.549 98.7672 105.283 99.0882C105.204 99.1755 105.134 99.2698 105.072 99.3698C104.965 99.5382 104.87 99.7148 104.79 99.8978C104.723 100.006 104.675 100.125 104.65 100.25C104.609 100.351 104.586 100.458 104.579 100.567C104.538 100.776 104.515 100.987 104.509 101.2C104.515 101.401 104.538 101.602 104.579 101.799C104.622 102.003 104.68 102.203 104.755 102.397C104.979 102.956 105.362 103.437 105.856 103.781C106.35 104.125 106.934 104.317 107.536 104.333H109.014C109.42 104.318 109.804 104.143 110.081 103.846C110.358 103.55 110.506 103.155 110.493 102.749V101.13C110.352 100.989 110.387 100.919 110.352 100.848ZM108.346 101.552C108.31 101.587 108.31 101.658 108.275 101.693C108.24 101.728 108.17 101.834 108.134 101.904C108.047 101.993 107.943 102.064 107.828 102.112C107.713 102.16 107.59 102.185 107.466 102.185C107.341 102.185 107.218 102.16 107.103 102.112C106.988 102.064 106.884 101.993 106.797 101.904C106.706 101.811 106.634 101.701 106.585 101.58C106.537 101.46 106.513 101.33 106.515 101.2C106.522 101.069 106.545 100.938 106.586 100.813C106.621 100.778 106.621 100.707 106.656 100.672C106.691 100.637 106.691 100.602 106.726 100.567C106.81 100.448 106.921 100.352 107.049 100.284C107.178 100.217 107.321 100.181 107.466 100.179C107.609 100.189 107.749 100.228 107.876 100.295C108.004 100.361 108.115 100.454 108.205 100.567C108.24 100.602 108.275 100.637 108.275 100.672C108.275 100.707 108.31 100.743 108.346 100.813C108.386 100.938 108.41 101.069 108.416 101.2C108.41 101.32 108.386 101.439 108.346 101.552Z" fill="#A1A1A1"/>
<path d="M110.845 96.5183L110.775 96.3071L110.599 96.4127C110.293 96.5931 109.96 96.7237 109.613 96.7999C109.572 96.8279 109.522 96.8404 109.472 96.8351C109.296 96.9055 109.12 96.9407 108.944 97.0111C108.72 97.0906 108.518 97.221 108.353 97.3921C108.188 97.5631 108.065 97.7701 107.994 97.9967V98.0319C107.931 98.1767 107.895 98.3318 107.888 98.4895V98.6303L107.994 98.6655C108.064 98.7007 108.17 98.7007 108.24 98.7359C108.498 98.7757 108.761 98.7637 109.015 98.7007C109.085 98.7007 109.191 98.6655 109.261 98.6655H109.296C109.505 98.6269 109.707 98.5556 109.895 98.4543C110.097 98.3666 110.278 98.2342 110.423 98.0671C110.515 97.9704 110.598 97.8642 110.669 97.7503C110.704 97.6799 110.739 97.6447 110.739 97.6095C110.817 97.4811 110.866 97.3367 110.88 97.1871C110.938 96.9659 110.926 96.7323 110.845 96.5183ZM109.472 97.6799C109.304 97.7121 109.139 97.7592 108.979 97.8207C108.894 97.8618 108.812 97.9089 108.733 97.9615C108.633 98.0233 108.539 98.094 108.451 98.1727H108.416C108.682 97.9098 109.008 97.7164 109.367 97.6095C109.85 97.4907 110.282 97.2191 110.599 96.8351C110.51 96.9358 110.428 97.0416 110.352 97.1519C110.49 97.0535 110.6 96.9198 110.669 96.7647C110.634 96.9055 110.387 97.3631 109.472 97.6799Z" fill="#A1A1A1"/>
<path d="M108.451 98.1729L108.345 98.2785L108.169 98.4545C108.169 98.4498 108.17 98.4453 108.172 98.441C108.174 98.4367 108.176 98.4328 108.18 98.4296C108.183 98.4263 108.187 98.4237 108.191 98.4219C108.195 98.4202 108.2 98.4193 108.205 98.4193C108.24 98.3841 108.275 98.3137 108.345 98.2785C108.345 98.2433 108.381 98.2081 108.451 98.1729Z" fill="#A1A1A1"/>
<path d="M90.4991 98.9824C90.5088 98.7081 90.4114 98.4407 90.2274 98.237C90.0434 98.0333 89.7873 97.9093 89.5135 97.8912C89.2269 97.906 88.9539 98.0177 88.7391 98.208C88.364 97.9902 87.9406 97.8692 87.5071 97.856C87.1024 97.8669 86.7039 97.9576 86.3343 98.1228C85.9648 98.2881 85.6315 98.5246 85.3535 98.8189C85.0756 99.1132 84.8584 99.4595 84.7145 99.8379C84.5707 100.216 84.5029 100.619 84.5151 101.024C84.5151 102.784 85.8527 104.227 87.5071 104.227C87.9356 104.211 88.3557 104.103 88.7391 103.91C88.9463 104.112 89.224 104.226 89.5135 104.227C89.7421 104.232 89.9654 104.158 90.1452 104.017C90.325 103.876 90.4501 103.676 90.4991 103.453C90.5343 103.418 90.5343 103.418 90.5343 103.347L90.4991 98.9824ZM87.5071 102.115C87.2294 102.099 86.9686 101.977 86.7787 101.774C86.5887 101.57 86.484 101.302 86.4863 101.024C86.483 100.887 86.5069 100.751 86.5566 100.624C86.6063 100.497 86.6808 100.381 86.7758 100.282C86.8708 100.184 86.9843 100.106 87.1099 100.052C87.2354 99.9978 87.3704 99.9693 87.5071 99.968C87.7918 99.968 88.0649 100.081 88.2662 100.282C88.4676 100.484 88.5807 100.757 88.5807 101.042C88.5807 101.326 88.4676 101.599 88.2662 101.801C88.0649 102.002 87.7918 102.115 87.5071 102.115Z" fill="#A1A1A1"/>
<path d="M96.9759 101.024C96.9759 99.2639 95.9199 97.9263 94.2655 97.8911C93.801 97.8913 93.3431 97.9998 92.9279 98.2079C92.7503 98.0302 92.5102 97.9292 92.2591 97.9263C91.9886 97.9364 91.7331 98.0531 91.5484 98.251C91.3638 98.4489 91.2649 98.7118 91.2735 98.9823V103.277C91.3087 103.84 91.5903 104.227 92.1183 104.227C92.6463 104.227 92.9983 103.77 92.9983 103.206V100.707C93.0334 100.431 93.1663 100.176 93.3728 99.9885C93.5794 99.8013 93.846 99.6942 94.1247 99.6863C94.4067 99.6826 94.6796 99.7859 94.8886 99.9752C95.0976 100.165 95.2271 100.426 95.2511 100.707V103.277C95.2863 103.84 95.5679 104.227 96.0959 104.227C96.6239 104.227 96.9407 103.77 96.9407 103.206V103.101L96.9759 101.024Z" fill="#A1A1A1"/>
<path d="M102.854 94.9346C102.326 94.9346 102.01 95.4274 102.01 95.9906V98.2082C101.602 98.0669 101.174 97.9955 100.742 97.997C99.936 98.0145 99.1692 98.3499 98.6088 98.93C98.0485 99.5101 97.74 100.288 97.7504 101.095C97.7313 101.91 98.0349 102.7 98.5951 103.294C99.1553 103.887 99.9269 104.235 100.742 104.263C101.173 104.262 101.597 104.153 101.974 103.946C102.067 104.049 102.181 104.131 102.309 104.186C102.437 104.24 102.575 104.267 102.714 104.263C102.842 104.27 102.97 104.251 103.091 104.206C103.211 104.161 103.321 104.092 103.414 104.003C103.507 103.913 103.58 103.806 103.629 103.687C103.678 103.568 103.702 103.441 103.699 103.312V103.277C103.734 103.312 103.734 103.277 103.734 103.242V95.9906C103.747 95.8633 103.734 95.7347 103.696 95.6124C103.659 95.4902 103.597 95.3766 103.515 95.2783C103.434 95.18 103.333 95.099 103.219 95.04C103.106 94.981 102.982 94.9452 102.854 94.9346ZM101.763 101.2C101.749 101.466 101.63 101.716 101.432 101.894C101.234 102.072 100.973 102.165 100.707 102.151C100.441 102.137 100.191 102.017 100.013 101.819C99.835 101.621 99.7427 101.361 99.7567 101.095C99.7539 100.96 99.7783 100.826 99.8286 100.701C99.8789 100.575 99.954 100.462 100.049 100.366C100.145 100.271 100.258 100.196 100.384 100.146C100.509 100.095 100.643 100.071 100.778 100.074C101.03 100.083 101.27 100.186 101.452 100.361C101.633 100.536 101.744 100.772 101.763 101.024V101.2Z" fill="#A1A1A1"/>
<path fill-rule="evenodd" clip-rule="evenodd" d="M110.352 100.848V100.742C110.34 100.6 110.317 100.458 110.282 100.32L110.176 100.003C110.097 99.797 110.003 99.597 109.894 99.4046C109.725 99.1563 109.524 98.9314 109.296 98.7358L108.874 98.419L108.451 98.2078C108.451 98.1984 108.448 98.1895 108.441 98.1829C108.434 98.1763 108.425 98.1726 108.416 98.1726C108.298 98.1052 108.165 98.0688 108.029 98.067C108.029 98.067 107.994 98.0318 107.994 98.067C107.808 98.0262 107.62 98.0027 107.43 97.9966C107.018 97.9994 106.611 98.0885 106.235 98.2583C105.859 98.428 105.523 98.6746 105.248 98.9822C105.169 99.0695 105.099 99.1638 105.037 99.2638C104.929 99.4322 104.835 99.6087 104.755 99.7918C104.687 99.8997 104.64 100.019 104.614 100.144C104.574 100.245 104.551 100.352 104.544 100.461C104.503 100.669 104.48 100.881 104.474 101.094C104.48 101.295 104.503 101.496 104.544 101.693C104.586 101.896 104.645 102.097 104.72 102.291C104.861 102.689 105.09 103.05 105.389 103.347C105.658 103.64 105.985 103.875 106.348 104.038C106.711 104.202 107.103 104.29 107.501 104.297H108.979C109.389 104.284 109.777 104.111 110.06 103.815C110.343 103.519 110.499 103.123 110.493 102.713V101.059C110.387 100.989 110.387 100.953 110.352 100.848ZM106.586 100.777C106.621 100.742 106.621 100.672 106.656 100.637C106.691 100.601 106.691 100.566 106.726 100.531C106.816 100.418 106.928 100.326 107.055 100.259C107.182 100.192 107.322 100.153 107.466 100.144C107.611 100.145 107.753 100.181 107.882 100.249C108.01 100.316 108.121 100.413 108.205 100.531C108.24 100.566 108.275 100.601 108.275 100.637C108.275 100.672 108.31 100.707 108.346 100.777C108.44 101.027 108.44 101.302 108.346 101.552C108.31 101.587 108.31 101.657 108.275 101.693C108.24 101.728 108.17 101.833 108.134 101.904C107.957 102.081 107.717 102.183 107.466 102.185C107.338 102.185 107.211 102.157 107.096 102.102C106.98 102.047 106.878 101.968 106.797 101.869C106.706 101.776 106.634 101.666 106.585 101.545C106.537 101.424 106.513 101.295 106.515 101.165C106.5 101.099 106.498 101.03 106.51 100.964C106.522 100.897 106.548 100.834 106.586 100.777Z" fill="#A1A1A1"/>
<path d="M110.845 96.5183L110.775 96.3071L110.599 96.4127C110.293 96.5931 109.96 96.7237 109.613 96.7999C109.572 96.8279 109.522 96.8404 109.472 96.8351C109.296 96.8703 109.12 96.9407 108.874 97.0111C108.651 97.086 108.451 97.2154 108.291 97.3876C108.131 97.5597 108.017 97.7691 107.959 97.9967V98.0319C107.891 98.1876 107.855 98.3551 107.853 98.5247V98.6655L107.959 98.7007C108.029 98.7359 108.135 98.7359 108.24 98.7711C108.498 98.8109 108.761 98.7989 109.015 98.7359C109.085 98.7359 109.191 98.7007 109.261 98.7007H109.296C109.507 98.6678 109.71 98.5962 109.895 98.4895C110.081 98.3919 110.248 98.2606 110.387 98.1023C110.48 98.0056 110.563 97.8994 110.634 97.7855C110.669 97.7151 110.704 97.6799 110.704 97.6447C110.767 97.5096 110.814 97.368 110.845 97.2223C110.926 96.9946 110.926 96.7461 110.845 96.5183ZM109.472 97.6799C109.304 97.7121 109.139 97.7592 108.979 97.8207C108.894 97.8618 108.812 97.9089 108.733 97.9615C108.633 98.0233 108.539 98.094 108.451 98.1727H108.416C108.682 97.9098 109.008 97.7164 109.367 97.6095C109.85 97.4907 110.282 97.2191 110.599 96.8351C110.51 96.9358 110.428 97.0416 110.352 97.1519C110.491 97.0535 110.6 96.9198 110.669 96.7647C110.634 96.9055 110.387 97.3631 109.472 97.6799Z" fill="#A1A1A1"/>
<path d="M108.451 98.1729L108.346 98.2785H108.31L108.17 98.4193L108.134 98.4545C108.099 98.4897 108.064 98.4897 108.064 98.5249C108.151 98.3921 108.258 98.2734 108.381 98.1729H108.451Z" fill="#A1A1A1"/>
</svg>
