<svg width="176" height="176" viewBox="0 0 176 176" fill="none" xmlns="http://www.w3.org/2000/svg">
<path d="M98.9682 79.2951L84.677 93.6215L70.3506 79.2951L84.677 64.9688L98.9682 79.2951Z" fill="#A1A1A1"/>
<path d="M52.3633 85.5253L58.2769 91.4389L58.4881 79.3301L52.3633 85.5253Z" fill="#A1A1A1"/>
<path d="M64.4021 85.3848L58.2773 91.4392L64.2965 97.4232L64.4021 97.3176V85.3848Z" fill="#A1A1A1"/>
<path d="M70.2803 103.407L76.4755 97.3173L70.2451 91.0869V103.407H70.2803Z" fill="#A1A1A1"/>
<path d="M64.2964 97.423L64.402 97.5286V97.3174L64.2964 97.423Z" fill="#A1A1A1"/>
<path d="M88.6899 73.0996L88.7251 73.0644L82.4947 67.186L76.5811 73.0644L88.6899 73.0996Z" fill="#A1A1A1"/>
<path d="M76.546 97.3878L76.4756 97.3174L76.546 97.3878Z" fill="#A1A1A1"/>
<path d="M70.2451 103.442V103.478H70.3155L70.2803 103.407L70.2451 103.442Z" fill="#A1A1A1"/>
<path d="M82.7061 103.478H82.6357L82.7061 103.548V103.478Z" fill="#A1A1A1"/>
<path d="M94.8849 79.2246L94.7441 83.695V91.5446L100.799 85.5254L94.8849 79.2246Z" fill="#A1A1A1"/>
<path d="M70.3155 103.477H82.6355L76.5459 97.3878L76.4755 97.3174L70.2803 103.407L70.3155 103.477Z" fill="#A1A1A1"/>
<path d="M58.4882 66.7286L58.453 66.6934L52.293 73.135L58.4882 79.3302V66.7286Z" fill="#A1A1A1"/>
<path d="M52.3281 85.5607L52.3633 85.5255L52.3281 85.4551V85.5607Z" fill="#A1A1A1"/>
<path d="M58.4883 66.7285L58.4531 79.2949L64.4019 73.2757L58.4883 66.7285Z" fill="#A1A1A1"/>
<path d="M58.4883 66.6582L58.4531 66.6934L58.4883 66.7286V66.6582Z" fill="#A1A1A1"/>
<path d="M67.5347 63.9831C67.1097 63.5574 66.6049 63.2196 66.0492 62.9892C65.4935 62.7587 64.8978 62.6401 64.2963 62.6401C63.6947 62.6401 63.0991 62.7587 62.5434 62.9892C61.9877 63.2196 61.4829 63.5574 61.0579 63.9831L58.4883 66.6935L70.3155 66.7639L67.5347 63.9831Z" fill="#A1A1A1"/>
<path d="M70.3155 66.7286L58.4883 66.6582V66.7286L64.4019 73.2758L70.3155 66.7286Z" fill="#A1A1A1"/>
<path d="M64.4019 85.3849V97.3177L70.2099 91.0169L64.4723 85.3145L64.4019 85.3849Z" fill="#A1A1A1"/>
<path d="M70.2451 91.087L70.2099 91.0166L64.4019 97.3174V97.5286L70.2451 103.407V91.087Z" fill="#A1A1A1"/>
<path d="M82.6004 91.5796V91.5444L76.4756 97.3172L76.546 97.3876L82.6356 103.477H82.706L82.6004 91.5796Z" fill="#A1A1A1"/>
<path d="M82.6354 103.488H70.3154L73.2722 106.445C73.6738 106.901 74.1652 107.27 74.7158 107.528C75.2664 107.786 75.8644 107.928 76.4723 107.945C77.0801 107.961 77.6849 107.852 78.2487 107.624C78.8125 107.396 79.3233 107.055 79.749 106.621L82.741 103.629V103.558L82.6354 103.488Z" fill="#A1A1A1"/>
<path d="M76.5811 73.0645L82.6003 79.2245L88.6899 73.0996L76.5811 73.0645Z" fill="white"/>
<path d="M88.7251 73.0645L88.6899 73.0996H88.7251V73.0645Z" fill="#A1A1A1"/>
<path d="M100.799 85.5253V73.4517L94.8853 79.2245L100.799 85.5253Z" fill="#A1A1A1"/>
<path d="M88.7954 97.5285L94.7442 91.5445L88.7954 85.2437V97.5285Z" fill="#A1A1A1"/>
<path d="M82.7061 103.548L82.7413 103.583L82.8469 103.478H82.7061V103.548Z" fill="#A1A1A1"/>
<path d="M88.6545 85.3493L85.8033 88.1653L82.6001 91.5445V91.5797L88.6545 97.6341L88.7249 97.5988L88.7953 97.5285V85.4901V85.2437L88.6545 85.3493Z" fill="#A1A1A1"/>
<path d="M82.6001 91.5801L82.7057 103.478H82.8465L88.6545 97.6345L82.6001 91.5801Z" fill="#A1A1A1"/>
<path d="M82.7061 103.618L82.7413 103.583L82.7061 103.548V103.618Z" fill="#A1A1A1"/>
<path d="M91.8719 64.2648C91.4469 63.8391 90.9421 63.5014 90.3865 63.2709C89.8308 63.0405 89.2351 62.9219 88.6335 62.9219C88.032 62.9219 87.4363 63.0405 86.8806 63.2709C86.325 63.5014 85.8202 63.8391 85.3951 64.2648L82.5439 67.1864H94.7935L91.8719 64.2648Z" fill="#A1A1A1"/>
<path d="M94.7442 67.186H82.4946L88.725 73.0644L94.7442 67.186Z" fill="#A1A1A1"/>
<path d="M96.5745 69.0164L94.7441 67.186V69.9668L94.8849 79.2244L100.799 73.4516L96.5745 69.0164Z" fill="#A1A1A1"/>
<path d="M58.1714 79.0137L52.293 73.1353L52.3282 85.4553L52.3634 85.5257L58.1714 79.6121L58.453 79.2953L58.1714 79.0137Z" fill="#A1A1A1"/>
<path d="M64.4021 85.2437L58.4533 79.2949L58.2773 91.4389L64.4021 85.3845L64.4725 85.3141L64.4021 85.2437Z" fill="#A1A1A1"/>
<path d="M90.3442 83.695L88.7954 85.2438L94.7442 91.5446L94.885 79.2246L90.3442 83.695Z" fill="white"/>
<path d="M94.7443 67.186L88.7251 73.0644V73.0996L94.8851 79.2244L94.7443 69.9668V67.186Z" fill="white"/>
<path d="M135.4 92.3893C135.018 92.1659 134.567 92.0907 134.133 92.1781C133.5 92.3541 133.429 92.7061 133.429 92.7061V103.442H135.365V92.3893H135.4Z" fill="#A1A1A1"/>
<path d="M134.168 107.772C133.57 107.948 133.464 108.3 133.464 108.3V115.692H135.4V107.948C135.4 107.983 134.767 107.596 134.168 107.772Z" fill="#A1A1A1"/>
<path d="M116.956 101.788H115.196V99.8872C115.191 99.7919 115.206 99.6965 115.239 99.607C115.272 99.5175 115.323 99.4356 115.389 99.3665C115.455 99.2974 115.534 99.2423 115.622 99.2048C115.71 99.1672 115.804 99.1479 115.9 99.148H116.252C116.347 99.1479 116.442 99.1672 116.53 99.2048C116.617 99.2423 116.697 99.2974 116.762 99.3665C116.828 99.4356 116.879 99.5175 116.913 99.607C116.946 99.6965 116.961 99.7919 116.956 99.8872V101.788ZM130.508 92.1784C129.909 92.3544 129.804 92.7064 129.804 92.7064V99.7112C129.804 101.366 128.325 101.753 127.621 101.753H126.037C126.385 101.079 126.554 100.328 126.53 99.5704V95.3464C126.148 95.1231 125.697 95.0479 125.263 95.1352C124.629 95.3112 124.559 95.6632 124.559 95.6632V99.7112C124.559 101.366 123.081 101.753 122.377 101.753H121.391V98.4088C121.391 97.8104 121.426 96.6488 120.757 95.804C120.089 94.9592 118.857 94.5016 117.167 94.5016C115.477 94.5016 114.457 94.9944 114.457 95.7336C114.447 95.9352 114.491 96.1357 114.584 96.3149C114.676 96.4941 114.815 96.6457 114.985 96.7544C114.985 96.7544 115.513 96.1912 117.132 96.1912C118.751 96.1912 119.349 96.86 119.349 97.4584V101.753H118.434V99.324C118.434 98.4792 117.589 97.74 116.533 97.74H115.583C114.527 97.74 113.682 98.444 113.682 99.324V101.753H111.887V100.873C111.887 100.274 111.922 99.1128 111.253 98.268C110.585 97.4232 109.353 96.9656 107.663 96.9656C105.973 96.9656 104.953 97.4584 104.953 98.1976C104.943 98.3992 104.987 98.5997 105.08 98.7789C105.172 98.9581 105.311 99.1097 105.481 99.2184C105.481 99.2184 106.009 98.6552 107.628 98.6552C109.247 98.6552 109.845 99.324 109.845 99.9224V101.753H104.249V103.442H128.149C130.121 103.442 131.81 102.316 131.81 99.5704V92.3544C131.775 92.3896 131.141 92.0024 130.508 92.1784Z" fill="#A1A1A1"/>
<path d="M125.439 94.1494C125.7 94.1494 125.951 94.0456 126.136 93.8607C126.32 93.6759 126.424 93.4252 126.424 93.1638C126.424 93.0344 126.399 92.9062 126.349 92.7866C126.3 92.6671 126.227 92.5584 126.136 92.4669C126.044 92.3754 125.935 92.3028 125.816 92.2532C125.696 92.2037 125.568 92.1782 125.439 92.1782C125.309 92.1782 125.181 92.2037 125.062 92.2532C124.942 92.3028 124.833 92.3754 124.742 92.4669C124.65 92.5584 124.578 92.6671 124.528 92.7866C124.479 92.9062 124.453 93.0344 124.453 93.1638C124.453 93.4252 124.557 93.6759 124.742 93.8607C124.927 94.0456 125.177 94.1494 125.439 94.1494Z" fill="#A1A1A1"/>
<path d="M134.464 106.857C134.726 106.857 134.976 106.753 135.161 106.568C135.346 106.383 135.45 106.132 135.45 105.871C135.442 105.613 135.335 105.368 135.151 105.187C134.968 105.005 134.722 104.901 134.464 104.896C134.203 104.896 133.952 105 133.767 105.185C133.582 105.37 133.479 105.62 133.479 105.882C133.479 106.143 133.582 106.394 133.767 106.579C133.952 106.763 134.203 106.867 134.464 106.867V106.857Z" fill="#A1A1A1"/>
<path d="M99.6724 105.836C99.6724 105.965 99.6979 106.093 99.7474 106.213C99.7969 106.332 99.8695 106.441 99.961 106.533C100.053 106.624 100.161 106.697 100.281 106.746C100.4 106.796 100.529 106.821 100.658 106.821C100.853 106.821 101.043 106.763 101.206 106.655C101.368 106.547 101.494 106.393 101.569 106.213C101.643 106.033 101.663 105.835 101.625 105.643C101.587 105.452 101.493 105.277 101.355 105.139C101.217 105.001 101.041 104.907 100.85 104.869C100.659 104.831 100.461 104.851 100.281 104.925C100.101 105 99.9468 105.126 99.8385 105.288C99.7302 105.45 99.6724 105.641 99.6724 105.836Z" fill="#A1A1A1"/>
<path d="M96.6804 104.85C96.4855 104.85 96.2949 104.908 96.1329 105.017C95.9708 105.125 95.8445 105.279 95.7699 105.459C95.6953 105.639 95.6757 105.837 95.7138 106.028C95.7518 106.219 95.8457 106.395 95.9835 106.533C96.1213 106.671 96.297 106.765 96.4881 106.803C96.6793 106.841 96.8775 106.821 97.0576 106.747C97.2377 106.672 97.3916 106.546 97.4999 106.384C97.6082 106.222 97.666 106.031 97.666 105.836C97.6694 105.706 97.6462 105.576 97.5979 105.455C97.5496 105.334 97.4771 105.224 97.3849 105.132C97.2927 105.039 97.1827 104.967 97.0616 104.919C96.9405 104.87 96.8108 104.847 96.6804 104.85Z" fill="#A1A1A1"/>
<path d="M97.6309 104.217H99.5669C100.397 104.215 101.193 103.884 101.78 103.297C102.367 102.71 102.698 101.914 102.7 101.084V97.9159H99.9681V97.0007C99.9755 96.8596 100.033 96.7256 100.129 96.6225C100.226 96.5195 100.356 96.4539 100.496 96.4375C100.599 96.4084 100.706 96.3965 100.813 96.4023H102.714V94.6071H100.179C99.7472 94.6017 99.3301 94.766 99.0177 95.0647C98.8464 95.2363 98.6931 95.425 98.5601 95.6279C98.4987 95.7264 98.4513 95.833 98.4193 95.9447C98.2656 96.276 98.1817 96.6355 98.1729 97.0007V99.8519H100.672V100.556C100.672 101.26 100.215 102.386 99.1937 102.386H97.9265C97.2225 102.386 96.6241 101.436 96.6241 100.661V97.9863C96.6241 97.9863 95.2865 97.2471 94.6529 98.3031C94.6121 98.5475 94.5885 98.7945 94.5825 99.0423V101.084C94.5697 101.493 94.6396 101.9 94.7881 102.281C94.9366 102.663 95.1605 103.01 95.4465 103.302C95.7325 103.595 96.0747 103.827 96.4524 103.984C96.8302 104.141 97.2358 104.22 97.6449 104.217H97.6309Z" fill="#A1A1A1"/>
<path d="M127.481 114.178C126.995 114.2 126.515 114.076 126.1 113.822C125.686 113.568 125.358 113.196 125.157 112.754C124.956 112.312 124.892 111.819 124.974 111.341C125.055 110.862 125.278 110.418 125.614 110.067C125.949 109.716 126.383 109.474 126.857 109.371C127.332 109.268 127.827 109.31 128.278 109.491C128.728 109.672 129.115 109.984 129.387 110.387C129.659 110.789 129.804 111.264 129.804 111.749C129.814 112.379 129.576 112.987 129.141 113.441C128.706 113.896 128.11 114.161 127.481 114.178ZM129.769 105.484V108.511C129.138 107.882 128.299 107.506 127.41 107.455C126.575 107.469 125.763 107.728 125.075 108.2C124.386 108.672 123.851 109.336 123.537 110.109C123.222 110.882 123.142 111.731 123.305 112.55C123.469 113.368 123.87 114.12 124.458 114.713C125.046 115.306 125.795 115.713 126.612 115.883C127.429 116.054 128.279 115.98 129.055 115.672C129.83 115.364 130.499 114.834 130.976 114.149C131.453 113.464 131.719 112.654 131.74 111.82V104.896C131.74 104.931 129.769 104.227 129.769 105.494V105.484Z" fill="#A1A1A1"/>
<path d="M99.1092 107.561H98.2292C96.2228 107.561 94.5684 108.969 94.5684 110.658V115.808H96.6452V110.88C96.6438 110.676 96.6829 110.474 96.7602 110.286C96.8375 110.097 96.9516 109.926 97.0957 109.782C97.2398 109.638 97.4111 109.523 97.5996 109.446C97.7881 109.369 97.9902 109.33 98.194 109.331H99.1796C99.3833 109.33 99.5854 109.369 99.7739 109.446C99.9625 109.523 100.134 109.638 100.278 109.782C100.422 109.926 100.536 110.097 100.613 110.286C100.691 110.474 100.73 110.676 100.728 110.88V115.808H102.805V110.669C102.77 108.979 101.116 107.571 99.1092 107.571V107.561Z" fill="#A1A1A1"/>
<path d="M109.88 114.284C109.88 114.284 108.437 114.389 107.452 114.389C107.296 114.396 107.14 114.37 106.995 114.314C106.849 114.259 106.716 114.174 106.604 114.065C106.492 113.957 106.404 113.826 106.344 113.682C106.284 113.538 106.253 113.384 106.255 113.228C106.255 112.876 106.29 112.101 107.592 112.101C108.358 112.114 109.122 112.173 109.88 112.277V114.284ZM107.909 107.49C106.008 107.49 104.988 107.948 104.988 108.687C104.985 108.889 105.028 109.089 105.113 109.271C105.199 109.454 105.324 109.615 105.48 109.743C106.167 109.322 106.963 109.114 107.768 109.145C108.296 109.145 109.916 109.109 109.916 110.658V110.729C108.932 110.661 107.944 110.649 106.959 110.693C104.847 110.764 104.284 112.348 104.284 113.087C104.284 113.826 104.284 115.762 107.24 115.938C108.814 116.061 110.397 116.002 111.957 115.762V110.834C111.922 108.37 109.81 107.49 107.909 107.49Z" fill="#A1A1A1"/>
<path d="M117.659 107.526C116.927 107.639 116.229 107.916 115.618 108.335V105.026C115.235 104.803 114.784 104.728 114.35 104.815C113.752 104.991 113.646 105.343 113.646 105.343V115.808H115.582V111.127C115.582 109.895 116.568 109.367 117.518 109.367C118.469 109.367 119.384 109.859 119.384 111.127V115.808H121.39V110.423C121.461 108.099 119.243 107.325 117.659 107.536V107.526Z" fill="#A1A1A1"/>
</svg>
