<svg width="120" height="120" viewBox="0 0 120 120" fill="none" xmlns="http://www.w3.org/2000/svg">
<path d="M16.3705 52.8265C16.5586 49.8629 18.158 47.4168 20.3689 46.5231C20.1808 46.0527 20.0867 45.5352 20.0867 45.0648C20.0867 44.8766 20.0867 44.7355 20.1337 44.5474C17.5935 45.6763 15.7119 48.828 15.5708 52.5442L15.9471 52.6853C16.0412 52.6853 16.2294 52.7794 16.3705 52.8265Z" fill="#A1A1A1"/>
<path d="M28.8831 52.5442C28.789 48.781 26.9074 45.6763 24.3202 44.5474C24.3202 44.6885 24.3672 44.8766 24.3672 45.0648C24.3672 45.5823 24.2731 46.0527 24.085 46.5231C26.2488 47.4639 27.8952 49.8629 28.0834 52.8265C28.2245 52.7794 28.3656 52.6853 28.5068 52.6853C28.6479 52.6383 28.742 52.5913 28.8831 52.5442Z" fill="#A1A1A1"/>
<path d="M22.2032 47.3697C23.097 47.3697 23.7555 46.3348 23.7555 45.0647C23.7555 43.7947 23.0499 42.7598 22.2032 42.7598C21.3565 42.7598 20.6509 43.7947 20.6509 45.0647C20.6509 46.3348 21.3094 47.3697 22.2032 47.3697Z" fill="#A1A1A1"/>
<path d="M37.2094 58.8005C37.0212 61.1055 35.1867 63.4104 32.5054 64.5394C32.5995 64.6805 32.6935 64.7746 32.7876 64.9157C32.8817 65.0098 32.9287 65.1039 32.9758 65.245C36.4568 63.9749 38.8558 61.2466 39.1381 58.4712C38.9969 58.5653 38.8088 58.6123 38.6677 58.6594C38.1973 58.8005 37.6798 58.8475 37.2094 58.8005Z" fill="#A1A1A1"/>
<path d="M28.8359 53.4377C31.6584 52.7791 34.4808 53.5318 36.0331 55.3193C36.4094 54.99 36.8798 54.7548 37.3502 54.6137L37.8207 54.4726C35.939 52.4028 32.411 51.6031 28.8359 52.591V52.9203C28.883 53.0614 28.883 53.2496 28.8359 53.4377Z" fill="#A1A1A1"/>
<path d="M28.0832 53.6259C28.1302 53.6259 28.1302 53.6259 28.1773 53.5788C28.4125 53.4848 28.6477 53.4377 28.8358 53.3907V52.5439L28.4595 52.6851C28.3184 52.7321 28.1773 52.7792 28.0361 52.8262C28.0361 53.0614 28.0832 53.2496 28.0832 53.4848V53.6259Z" fill="#A1A1A1"/>
<path d="M40.2668 55.8841C39.9846 55.0374 38.8086 54.7081 37.5385 55.1315C36.3154 55.5548 35.5157 56.5427 35.798 57.3894C36.0802 58.2361 37.2562 58.5654 38.5263 58.1421C39.7964 57.7187 40.502 56.6838 40.2668 55.8841Z" fill="#A1A1A1"/>
<path d="M32.1758 65.4802C33.6811 68.0203 33.8692 70.8898 32.5991 72.8655C33.0225 73.1007 33.3988 73.477 33.6811 73.8533C33.7752 73.9945 33.8692 74.1356 33.9633 74.2767C35.3745 71.8776 35.0452 68.2085 32.9755 65.1509L32.5991 65.292C32.458 65.3861 32.3169 65.4331 32.1758 65.4802Z" fill="#A1A1A1"/>
<path d="M22.1562 73.0539C24.4612 76.0175 27.8011 77.4757 30.5294 76.8642C30.3883 76.7701 30.2942 76.629 30.2002 76.4408C29.9179 76.0175 29.6827 75.5941 29.5416 75.0767C27.2366 75.6411 24.5553 74.6062 22.6267 72.3013L22.3915 72.6776C22.3444 72.8187 22.2503 72.9128 22.1562 73.0539Z" fill="#A1A1A1"/>
<path d="M33.9634 73.0537H30.0591V77.2873H33.9634V73.0537Z" fill="#A1A1A1"/>
<path d="M33.9634 73.0537H30.0591V77.2873H33.9634V73.0537Z" fill="#A1A1A1"/>
<mask id="mask0_191_7588" style="mask-type:luminance" maskUnits="userSpaceOnUse" x="30" y="73" width="4" height="5">
<path d="M33.9634 73.0537H30.0591V77.2873H33.9634V73.0537Z" fill="white"/>
</mask>
<g mask="url(#mask0_191_7588)">
<path d="M30.6236 73.289C29.918 73.8065 29.9651 75.0295 30.7177 76.1115C31.4704 77.1463 32.6934 77.5697 33.352 77.0523C34.0105 76.5348 34.0105 75.3118 33.2579 74.2298C32.5053 73.1479 31.3292 72.7716 30.6236 73.289Z" fill="#A1A1A1"/>
</g>
<path d="M11.3842 65.1982C9.36143 68.3029 9.03215 71.8309 10.4434 74.23C10.5374 74.0889 10.6315 73.9477 10.7256 73.8066C11.0078 73.3833 11.3842 73.054 11.8075 72.8188C10.5845 70.796 10.7256 67.9736 12.2309 65.4334C12.0898 65.3864 11.9487 65.3394 11.8075 65.2923C11.6664 65.3394 11.5253 65.2923 11.3842 65.1982Z" fill="#A1A1A1"/>
<path d="M21.6858 72.3013C19.7572 74.5122 17.0759 75.5471 14.8179 74.9826C14.6768 75.453 14.4886 75.9234 14.1594 76.3467C14.0653 76.4879 13.9712 76.629 13.8301 76.7701C16.5584 77.3816 19.8983 75.9234 22.1562 73.0539C22.0621 72.9598 22.0151 72.8658 21.9681 72.7717C21.874 72.5835 21.7799 72.4894 21.6858 72.3013Z" fill="#A1A1A1"/>
<path d="M13.7831 73.195C13.0775 72.6775 11.9015 73.1009 11.1489 74.1358C10.3962 75.1707 10.3492 76.4407 11.0548 76.9582C11.7604 77.4286 12.9364 77.0523 13.6891 76.0174C14.4887 74.9825 14.5358 73.7594 13.7831 73.195Z" fill="#A1A1A1"/>
<path d="M15.5706 52.5442C11.9956 51.5093 8.46755 52.3561 6.58594 54.4258L7.05634 54.567C7.52674 54.7081 7.99715 54.9433 8.37347 55.2726C9.87876 53.5321 12.7012 52.7324 15.5706 53.438V52.8735C15.5706 52.7324 15.5706 52.6383 15.5706 52.5442Z" fill="#A1A1A1"/>
<path d="M11.8544 64.4922C9.17307 63.3632 7.38554 61.1053 7.15033 58.7533C6.63289 58.8003 6.16249 58.7533 5.69208 58.5651C5.50392 58.5181 5.3628 58.471 5.22168 58.377C5.50392 61.1523 7.85594 63.8807 11.3369 65.1508L11.5721 64.7744C11.7133 64.7274 11.8073 64.6333 11.8544 64.4922Z" fill="#A1A1A1"/>
<path d="M16.3234 53.6259V53.4848C16.3234 53.2496 16.3234 53.0144 16.3705 52.8262C16.2294 52.7792 16.0882 52.6851 15.9471 52.6851L15.5708 52.5439V53.3907C15.806 53.4377 16.0412 53.4848 16.2294 53.5788C16.2764 53.6259 16.3234 53.6259 16.3234 53.6259Z" fill="#A1A1A1"/>
<path d="M8.60862 57.2951C8.89086 56.4484 8.09118 55.4605 6.86813 55.0372C5.64508 54.6138 4.42203 54.9901 4.13979 55.7898C3.85754 56.5895 4.65723 57.6244 5.88028 58.0477C7.10333 58.4711 8.32638 58.1418 8.60862 57.2951Z" fill="#A1A1A1"/>
<path d="M29.9179 64.163C29.8709 64.163 29.8238 64.163 29.7768 64.2101C29.8238 64.2571 29.8709 64.3041 29.8709 64.3512C30.1061 64.5864 30.3413 64.8686 30.5294 65.1509C32.5051 67.8322 32.317 71.2661 30.1531 72.8184C27.9892 74.3708 24.6964 73.477 22.7678 70.7957C22.5796 70.5135 22.3914 70.1842 22.2033 69.8549C22.1562 69.8079 22.1562 69.7608 22.1092 69.7138C22.0622 69.7608 22.0622 69.8079 22.0151 69.8549C21.874 70.1371 21.6858 70.4194 21.4977 70.7016C19.522 73.3829 16.2291 74.3237 14.1123 72.7244C11.9955 71.172 11.8074 67.7381 13.736 65.0568C13.9242 64.7745 14.1594 64.5393 14.3475 64.3041L14.4887 64.163C14.4416 64.163 14.3946 64.163 14.3475 64.116L13.4067 63.8808C10.255 62.8459 8.37341 59.9764 9.17309 57.4833C9.97278 54.9431 13.2186 53.7671 16.3703 54.802C16.6996 54.8961 17.0288 55.0372 17.3111 55.2253C17.3581 55.2724 17.4052 55.2724 17.4522 55.3194C17.4522 55.2724 17.4522 55.2253 17.4052 55.1783C17.3581 54.802 17.3111 54.4257 17.3111 54.0493C17.3111 50.7095 19.4749 48.0282 22.0622 48.0282C24.6494 48.0282 26.8603 50.7095 26.8603 54.0493C26.8603 54.4257 26.8132 54.802 26.7662 55.1783V55.3194C26.8132 55.2724 26.8603 55.2724 26.9073 55.2253C27.2366 55.0842 27.5659 54.9431 27.8952 54.802C31.0469 53.7671 34.2456 54.9901 35.0923 57.4833C35.9391 59.9764 34.0104 62.8929 30.8587 63.8808C30.5765 64.0219 30.2472 64.116 29.9179 64.163ZM35.2805 57.4833C34.4338 54.9431 31.1409 53.673 27.9422 54.7079C27.6129 54.849 27.2836 54.9431 27.0014 55.0842C27.0484 54.7549 27.0955 54.3786 27.0955 54.0493C27.0955 50.7095 24.8846 47.9341 22.1562 47.9341C19.4279 47.9341 17.264 50.7095 17.264 54.0493C17.264 54.3786 17.3111 54.7549 17.3581 55.0842C17.0759 54.9431 16.7466 54.802 16.4173 54.7079C13.2186 53.673 9.8787 54.8961 9.07901 57.4833C8.27933 60.0235 10.1609 62.987 13.4067 64.0689L14.3005 64.3041C14.1123 64.4923 13.9242 64.7275 13.736 64.9627C11.7133 67.691 11.9485 71.2191 14.1123 72.8184C16.2762 74.4178 19.6631 73.477 21.6858 70.7487C21.874 70.5135 22.0622 70.2312 22.2033 69.949C22.3444 70.2312 22.5796 70.5605 22.7678 70.8427C24.7905 73.5711 28.1304 74.4649 30.3413 72.9125C32.5522 71.3602 32.6933 67.7851 30.7176 65.0568C30.5294 64.7745 30.2942 64.5393 30.059 64.3041C30.3883 64.2571 30.7176 64.163 30.9998 64.0689C34.1986 62.987 36.1272 60.0235 35.2805 57.4833Z" fill="#A1A1A1"/>
<path d="M32.7873 64.9159C32.6932 64.7748 32.5992 64.6807 32.5051 64.5396C32.3169 64.6336 32.0817 64.6807 31.8465 64.7748C31.7995 64.7748 31.7995 64.7748 31.7524 64.8218C31.7524 64.8218 31.7524 64.8688 31.7995 64.8688C31.9406 65.057 32.0817 65.2452 32.2228 65.4804L32.6462 65.3392L33.0225 65.1981C32.9284 65.104 32.8814 65.01 32.7873 64.9159Z" fill="#A1A1A1"/>
<path d="M22.2502 71.7835C22.2032 71.7365 22.2032 71.6895 22.1561 71.6895C22.1561 71.6895 22.1561 71.7365 22.1091 71.7365L21.6387 72.348C21.7328 72.4891 21.8268 72.6303 21.9209 72.7714C22.015 72.8655 22.062 72.9595 22.1091 73.0536C22.1561 72.9595 22.2502 72.8184 22.3443 72.7243L22.5795 72.348C22.5324 72.1599 22.3913 71.9717 22.2502 71.7835Z" fill="#A1A1A1"/>
<path d="M12.654 64.8218C12.4188 64.7277 12.1836 64.6336 11.9484 64.5396C11.8544 64.6807 11.8073 64.7277 11.7132 64.8688L11.478 65.2452C11.6191 65.2922 11.7603 65.3392 11.9014 65.3863C12.0425 65.4333 12.1836 65.4804 12.3248 65.5274C12.3718 65.2452 12.4659 65.057 12.654 64.8218Z" fill="#A1A1A1"/>
<path d="M21.0745 58.8945C21.1216 59.1297 21.3097 59.3179 21.4979 59.3649V59.412L21.7801 60.635H21.4038L21.7801 62.3755H21.4038L21.7801 64.116H22.4857L22.8621 62.3755H22.4857L22.8621 60.635H22.4857L22.768 59.412C23.0032 59.3649 23.1913 59.1768 23.1913 58.9415C23.8969 59.1297 24.7907 59.6942 25.2141 61.1054C25.2141 61.1054 26.1549 58.7534 24.3673 57.3892C24.0851 57.154 23.7558 57.0129 23.4265 56.9188C24.0381 56.7777 24.6966 56.8247 25.2611 57.0599C24.7437 56.0721 23.6147 55.5546 22.5328 55.8369C22.3916 55.8839 22.2505 55.931 22.1094 56.025C21.9683 55.931 21.8272 55.8839 21.686 55.8369C20.6041 55.5546 19.4751 56.0721 18.9577 57.0599C19.5222 56.7777 20.1808 56.7306 20.7923 56.9188C20.463 57.0129 20.1337 57.154 19.8515 57.3892C18.0639 58.7534 19.0047 61.1054 19.0047 61.1054C19.4751 59.6472 20.3689 59.0827 21.0745 58.8945Z" fill="#A1A1A1"/>
<path fill-rule="evenodd" clip-rule="evenodd" d="M28.7891 63.4573H28.648C27.5661 63.5044 26.4842 63.6925 25.4493 64.0218C24.7437 64.257 24.0851 64.5863 23.4265 65.0097C23.1913 65.1978 22.9091 65.433 22.7209 65.6212C22.6739 65.6682 22.6739 65.6682 22.7209 65.7153C23.1443 66.0916 23.5206 66.4679 23.944 66.8913C23.991 66.9383 23.991 66.9383 24.0381 66.8913C24.0851 66.7972 24.1321 66.7502 24.1321 66.6561C24.1792 66.515 24.2262 66.3738 24.3203 66.2798C24.4614 66.1386 24.6966 66.0446 24.9318 66.0916C25.167 66.1386 25.3082 66.3268 25.3552 66.562C25.3552 66.7502 25.2141 66.9383 24.9789 66.9854C24.8377 67.0324 24.6496 66.9854 24.5555 66.8913C24.5085 66.8442 24.4614 66.8442 24.4144 66.9383C24.3673 67.0324 24.3673 67.1265 24.4144 67.2206C24.5555 67.3617 24.6966 67.4558 24.8377 67.5499C24.9318 67.5969 25.0259 67.5969 25.0729 67.5028C25.2141 67.3617 25.4493 67.3147 25.6374 67.4087C25.8256 67.5028 25.9197 67.6439 25.9197 67.8321C25.9197 68.0203 25.7786 68.1614 25.6374 68.2555C25.3552 68.3495 25.0259 68.3495 24.7437 68.1614C24.5085 68.0203 24.2262 67.8791 24.0381 67.738C23.991 67.691 23.991 67.691 23.944 67.738C23.7558 68.0203 23.4736 68.2084 23.1913 68.2555C23.0032 68.3025 22.815 68.2555 22.6268 68.1143C22.4387 67.9732 22.3916 67.691 22.5328 67.5028C22.5328 67.4558 22.5798 67.4558 22.5798 67.4087C22.768 67.2206 23.0502 67.1735 23.2384 67.3147C23.3325 67.3617 23.3795 67.4558 23.3795 67.5499C23.3795 67.6439 23.4265 67.691 23.5206 67.6439C23.5677 67.5969 23.6147 67.5499 23.6617 67.5028C23.7088 67.4558 23.6617 67.4558 23.6617 67.4087C23.5677 67.2206 23.4265 67.0324 23.2384 66.8913L22.5328 66.2798C22.4387 66.2327 22.3916 66.1857 22.3446 66.1386C22.2976 66.0916 22.2976 66.0916 22.2505 66.1386C21.9683 66.3738 21.686 66.562 21.4508 66.7972C21.2627 66.9854 21.0745 67.1735 20.9334 67.3617C20.8864 67.4558 20.8864 67.5028 20.9334 67.5028C20.9804 67.5499 21.0275 67.5969 21.0745 67.5969C21.1216 67.5969 21.1686 67.5969 21.2156 67.5499C21.2156 67.5028 21.2627 67.4558 21.2627 67.4087C21.2627 67.3617 21.3568 67.2676 21.4038 67.2676C21.4979 67.2676 21.5449 67.2206 21.5449 67.2206C21.7801 67.1735 22.0153 67.3617 22.0624 67.5969C22.1094 67.8321 22.0153 68.0673 21.8272 68.1614C21.639 68.2555 21.4038 68.2555 21.1686 68.1614C20.9334 68.0673 20.7452 67.8791 20.5571 67.691C20.51 67.6439 20.51 67.6439 20.463 67.691C20.2278 67.8791 19.9926 68.0203 19.7574 68.1143C19.5222 68.2084 19.2399 68.3025 19.0047 68.2555C18.7225 68.2555 18.5343 68.0203 18.5814 67.738C18.5814 67.691 18.5814 67.6439 18.6284 67.5969C18.7225 67.3617 18.9577 67.2206 19.1929 67.3147C19.287 67.3617 19.334 67.3617 19.3811 67.4558C19.4751 67.5498 19.5222 67.5499 19.5692 67.5028C19.7574 67.4558 19.9455 67.3146 20.0396 67.1265C20.1337 67.0324 20.1337 66.9383 20.0396 66.8443C19.9926 66.7972 19.9455 66.7972 19.8985 66.7972C19.8044 66.8442 19.7574 66.8442 19.7103 66.8913C19.5222 66.9854 19.287 66.8913 19.1929 66.7031C19.1929 66.6561 19.1929 66.6561 19.1459 66.609C19.0518 66.4209 19.0988 66.2327 19.287 66.0916C19.4281 65.9505 19.6163 65.9505 19.8044 65.9975C19.8044 65.9975 19.8515 65.9975 19.8515 66.0446C20.0867 66.1386 20.2278 66.2798 20.2748 66.515C20.3219 66.6561 20.3219 66.7031 20.416 66.7972C20.416 66.8442 20.463 66.8442 20.463 66.7972C20.8864 66.3738 21.3097 66.0446 21.686 65.6212C21.7331 65.5742 21.686 65.5742 21.686 65.5271C21.4038 65.2449 21.0745 65.0097 20.7452 64.7745C19.8515 64.21 18.8636 63.8337 17.8758 63.5985C17.3113 63.4573 16.6998 63.4103 16.1353 63.3633H15.7119C15.806 63.3162 15.9471 63.3162 16.0882 63.3162C16.6057 63.2221 17.1702 63.2221 17.6876 63.2692C18.2051 63.3162 18.6755 63.4103 19.1459 63.5044C19.8515 63.6455 20.5571 63.9277 21.1686 64.3511C21.5449 64.5863 21.9212 64.8215 22.2976 65.1038C22.3446 65.1508 22.3916 65.1038 22.4387 65.1038C23.0032 64.6333 23.6147 64.21 24.3203 63.9277C24.9318 63.6925 25.5434 63.5044 26.2019 63.3633C26.8605 63.2692 27.519 63.2221 28.2247 63.2692C28.4599 63.2692 28.6951 63.3162 28.8832 63.3633C28.7421 63.4103 28.7891 63.4103 28.7891 63.4573Z" fill="#A1A1A1"/>
<path d="M52.3563 51.6034C52.3563 51.2271 52.6386 50.9448 53.0149 50.9448C53.3442 50.9448 53.6264 51.18 53.6735 51.5563C53.6735 51.6034 53.6735 51.6034 53.6735 51.6504C53.6735 52.0268 53.3912 52.309 53.0619 52.309H53.0149C52.6386 52.262 52.3563 51.9797 52.3563 51.6034ZM50.5688 51.6034C50.5688 51.2271 50.851 50.9448 51.2274 50.9448C51.6037 50.9448 51.8859 51.2271 51.8859 51.5563V51.6034C51.8859 51.9797 51.6037 52.262 51.2274 52.262C50.804 52.262 50.5218 51.9797 50.5688 51.6034ZM53.0149 54.4729C52.7327 54.4258 52.4034 54.3788 52.0741 54.3788C50.757 54.3788 49.7221 55.0373 49.7221 56.4485C49.7221 57.8598 50.8981 58.4242 52.0741 58.4242C52.4034 58.4242 52.7327 58.3772 53.0149 58.3772V54.4729ZM56.0255 59.2239C56.0255 59.2239 56.8722 60.1647 56.2607 60.1647H55.2258C54.5202 60.1647 53.8616 59.7884 53.4853 59.2239C52.9679 59.318 52.4504 59.365 51.933 59.365C50.1925 59.365 48.499 58.4713 48.499 56.4956C48.499 54.2376 50.3806 53.485 52.4034 53.485C53.0149 53.485 53.6264 53.532 54.238 53.6261V57.2482C54.238 58.5183 54.6613 59.271 55.5551 59.271L56.0255 59.2239Z" fill="#A1A1A1"/>
<path d="M62.6581 51.8855C62.2818 51.8855 61.9995 51.6032 61.9995 51.2269C61.9995 50.8506 62.2818 50.5684 62.6111 50.5684H62.6581C63.0344 50.5684 63.3167 50.8506 63.3167 51.2269C63.3167 51.2269 63.3167 51.2269 63.3167 51.274C63.3637 51.6032 63.1285 51.8855 62.7992 51.9325C62.7522 51.8855 62.7051 51.8855 62.6581 51.8855ZM63.4578 54.5198C60.9176 54.5198 59.2241 56.6366 58.5656 59.2238H63.1285C64.5397 59.2238 65.6687 58.1419 65.7628 56.7306C65.7157 56.0721 65.3394 54.5198 63.4578 54.5198ZM55.8843 59.2238H56.9662V56.7306L58.1422 56.3073L57.907 59.0356C58.3304 56.4014 60.4002 53.5319 63.5048 53.5319C65.2453 53.5319 67.0328 54.5668 67.0328 56.5895C66.9858 58.6593 65.2924 60.2587 63.2696 60.2116H56.4017L55.8843 59.2238Z" fill="#A1A1A1"/>
<path d="M71.737 59.224C71.737 59.224 72.5837 60.1648 71.9722 60.1648H71.0314C70.1376 60.1648 68.7734 59.6003 68.7734 57.2953V50.9448L69.9965 50.5215V57.2483C69.9965 58.5183 70.3728 59.271 71.3136 59.271L71.737 59.224Z" fill="#A1A1A1"/>
<path d="M73.4775 63.0344C73.1012 63.0344 72.819 62.7522 72.819 62.3758V62.3288C72.819 61.9525 73.1012 61.6702 73.4775 61.6702C73.8068 61.6702 74.089 61.9054 74.1361 62.2817C74.1361 62.3288 74.1361 62.3288 74.1361 62.3758C74.1361 62.7522 73.8538 63.0344 73.5246 63.0344C73.5246 63.0344 73.5246 63.0344 73.4775 63.0344ZM71.5018 59.1771C72.4426 59.1771 72.9601 58.4244 72.9601 57.1543V53.8145L74.1831 53.3911V57.2955C74.1831 59.6004 72.913 60.1649 72.0193 60.1649L71.5018 59.1771ZM71.6429 63.0344C71.2666 63.0344 70.9844 62.7522 70.9844 62.3758V62.3288C70.9844 61.9525 71.2666 61.6702 71.6429 61.6702C71.9722 61.6702 72.2545 61.9054 72.3015 62.2817C72.3015 62.3288 72.3015 62.3288 72.3015 62.3758C72.3015 62.7522 72.0193 63.0344 71.69 63.0344H71.6429Z" fill="#A1A1A1"/>
<path d="M79.7338 59.2237C79.7338 59.2237 80.5805 60.1645 79.969 60.1645C79.2164 60.1645 78.4637 59.8352 77.9933 59.2237V59.6471C77.9933 61.7639 77.1466 62.9399 75.1709 62.9869L75.0298 62.0461C76.1588 61.905 76.8644 61.6228 76.7703 59.2237V55.1782L77.9933 54.7549V57.6714C78.0404 58.4711 78.6989 59.1296 79.4986 59.1296L79.7338 59.2237Z" fill="#A1A1A1"/>
<path d="M79.4985 59.224C80.4393 59.224 80.9568 58.4713 80.9568 57.2012V50.9448L82.1798 50.5215V57.3423C82.1798 59.6473 80.9097 60.2118 80.016 60.2118L79.4985 59.224Z" fill="#A1A1A1"/>
<path d="M83.873 50.9448L85.0961 50.5215V60.2118H83.873V50.9448Z" fill="#A1A1A1"/>
<path d="M93.987 51.1801C93.987 50.8037 94.2693 50.5215 94.6456 50.5215C94.9749 50.5215 95.2571 50.7567 95.3041 51.133C95.3041 51.18 95.3041 51.18 95.3041 51.2271C95.3512 51.5564 95.0689 51.8857 94.7397 51.8857C94.6926 51.8857 94.6926 51.8857 94.6456 51.8857C94.3163 51.8857 94.0341 51.6505 93.987 51.2741C93.987 51.2741 93.987 51.2271 93.987 51.1801ZM92.811 51.9327C92.4347 51.9327 92.1524 51.6505 92.1524 51.2741V51.2271C92.1524 50.8508 92.4347 50.5685 92.811 50.5685C93.1873 50.5685 93.4696 50.8508 93.4696 51.2271C93.4696 51.2271 93.4696 51.2271 93.4696 51.2741C93.4696 51.6505 93.1873 51.9327 92.858 51.9327C92.858 51.9327 92.858 51.9327 92.811 51.9327ZM93.6577 59.271C94.8337 59.271 95.6805 58.1891 95.6805 56.7308C95.6805 55.6018 95.116 54.1906 93.7048 54.1906C92.2936 54.1906 91.682 55.5078 91.682 56.7308C91.682 58.1891 92.4817 59.271 93.6577 59.271ZM93.6107 60.2118C91.8702 60.2118 90.459 58.8947 90.459 56.8249C90.459 54.614 91.9172 53.3439 93.7518 53.3439C95.5864 53.3439 96.9035 54.7081 96.9035 56.7308C96.9035 59.1299 95.163 60.2118 93.6107 60.2118Z" fill="#A1A1A1"/>
<path d="M97.75 62.0935C98.879 61.9524 99.5846 61.6701 99.4905 59.2711V55.2256L100.714 54.8022V59.7415C100.714 61.8583 99.8668 63.0343 97.8911 63.0814L97.75 62.0935Z" fill="#A1A1A1"/>
<path d="M102.501 50.9448L103.724 50.5215V60.2118H102.501V50.9448Z" fill="#A1A1A1"/>
<path d="M106.97 53.2499C106.594 53.2499 106.312 52.9677 106.312 52.5913V52.5443C106.312 52.168 106.594 51.8857 106.97 51.8857C107.299 51.8857 107.582 52.1209 107.629 52.4973C107.629 52.5443 107.629 52.5443 107.629 52.5913C107.629 52.9677 107.347 53.2499 106.97 53.2499ZM104.618 62.0935C105.747 61.9524 106.453 61.6701 106.359 59.2711V55.2256L107.582 54.8022V59.7415C107.582 61.8583 106.735 63.0343 104.759 63.0814L104.618 62.0935Z" fill="#A1A1A1"/>
<path d="M111.251 56.9191C111.251 58.7537 112.285 59.4123 113.508 59.4123C113.932 59.4123 114.308 59.3652 114.732 59.2712V56.1195C114.732 55.3668 114.355 54.3319 113.132 54.3319C111.862 54.2849 111.204 55.4609 111.251 56.9191ZM112.944 62.0936C114.12 61.9525 114.637 61.5761 114.684 60.1649C114.261 60.259 113.791 60.306 113.367 60.306C111.345 60.306 110.122 58.9419 110.122 56.9662C110.122 54.9905 111.298 53.3911 113.226 53.3911C115.39 53.3911 115.908 54.7553 115.908 56.4958V59.5534C115.908 61.6702 115.108 62.9403 113.085 62.9873L112.944 62.0936Z" fill="#A1A1A1"/>
<path d="M54.5199 65.245C54.7551 65.245 54.9903 65.3861 55.1784 65.5743C55.3196 65.7624 55.4136 65.9976 55.4136 66.2328V72.9126H54.7551V66.2328C54.7551 66.0447 54.6139 65.8565 54.3787 65.8095C54.1435 65.7624 54.0024 65.9036 53.9554 66.1388L52.7323 72.301C52.6853 72.4892 52.5912 72.6303 52.4501 72.7715C52.1678 73.0537 51.6974 73.0537 51.4152 72.7715C51.2741 72.6303 51.18 72.4892 51.133 72.301L49.9099 66.1388C49.9099 65.9506 49.7218 65.8095 49.5336 65.8095H49.4865C49.2984 65.8095 49.1102 65.9976 49.1102 66.1858C49.1102 66.1858 49.1102 66.1858 49.1102 66.2328V72.9126H48.4517V66.2328C48.4517 65.9976 48.5457 65.7624 48.6869 65.5743C48.875 65.3861 49.0632 65.292 49.3454 65.245C49.5806 65.198 49.8629 65.292 50.051 65.4332C50.2392 65.5743 50.3803 65.8095 50.4744 66.0917L51.6974 72.254C51.7445 72.3951 51.7915 72.3951 51.8856 72.3951C52.0267 72.3951 52.0267 72.3481 52.0738 72.254L53.2968 66.0917C53.3439 65.8565 53.485 65.6213 53.7202 65.4332C53.9554 65.245 54.2376 65.198 54.5199 65.245Z" fill="#A1A1A1"/>
<path d="M56.9662 72.9125H56.3076V67.2206H56.9662V72.9125ZM56.9662 66.2328H56.3076V65.292H56.9662V66.2328Z" fill="#A1A1A1"/>
<path d="M60.1647 67.0796C60.7762 67.0796 61.3407 67.3148 61.7641 67.7382C62.1874 68.1615 62.4697 68.726 62.4226 69.3375V72.9126H61.8111V69.3375C61.8111 68.4438 61.0584 67.6911 60.1647 67.6911C59.2709 67.6911 58.5183 68.4438 58.5183 69.3375V72.9126H57.9067V69.3375C57.9067 68.726 58.1419 68.1615 58.5653 67.7382C58.9887 67.3148 59.5532 67.0796 60.1647 67.0796Z" fill="#A1A1A1"/>
<path d="M63.975 72.9125H63.3164V67.2206H63.975V72.9125ZM63.975 66.2328H63.3164V65.292H63.975V66.2328Z" fill="#A1A1A1"/>
<path d="M66.5154 67.0796C66.9387 67.0796 67.3621 67.2678 67.6914 67.55C68.0207 67.8322 68.1618 68.2556 68.1618 68.679V69.1023H67.5032V68.679C67.5032 68.3967 67.4092 68.1615 67.221 67.9734C67.0328 67.7852 66.7976 67.6911 66.5624 67.6911C66.045 67.6911 65.6216 68.1145 65.6216 68.6319C65.5746 69.0082 65.8568 69.3846 66.2331 69.5257L67.221 69.949C67.5032 70.0431 67.7384 70.2783 67.9266 70.5135C68.1148 70.7958 68.2088 71.078 68.2088 71.4073C68.2088 71.6895 68.1148 71.9718 68.0207 72.207C67.7384 72.7244 67.174 73.0067 66.6095 73.0067C65.7157 73.0067 64.9631 72.254 64.9631 71.3603V70.9369H65.6216V71.3603C65.6216 71.6425 65.7157 71.8777 65.9039 72.0659C66.092 72.254 66.3272 72.3481 66.5624 72.3481C67.0799 72.3481 67.5032 71.9247 67.5032 71.4073C67.5032 71.031 67.268 70.6547 66.8917 70.5135L65.9039 70.0902C65.6216 69.9961 65.3394 69.8079 65.1983 69.5257C65.0101 69.2434 64.916 68.9612 64.916 68.6319C64.916 68.3497 65.0101 68.0674 65.1042 67.8322C65.4335 67.3618 65.9509 67.0796 66.5154 67.0796Z" fill="#A1A1A1"/>
<path d="M69.573 65.292V67.0795C69.573 67.1266 69.62 67.1736 69.6671 67.2206C69.6671 67.2206 69.6671 67.2206 69.7141 67.2206H70.6549V67.8792H69.7141C69.6671 67.8792 69.62 67.9263 69.573 67.9733C69.573 67.9733 69.573 67.9733 69.573 68.0203V71.4543C69.573 71.9247 69.9023 72.301 70.3727 72.301H70.4197H70.5608V72.9596H70.4197C69.9964 72.9596 69.62 72.8184 69.3378 72.5362C69.0555 72.254 68.8674 71.8776 68.9144 71.4543V65.339L69.573 65.292Z" fill="#A1A1A1"/>
<path d="M73.8064 67.6913H73.3831C72.6304 67.6913 72.066 68.2558 72.0189 69.0084V72.8657H71.3604V69.0084C71.3604 68.491 71.5485 68.0206 71.9248 67.6442C72.3012 67.2679 72.8186 67.0327 73.336 67.0327H73.7594L73.8064 67.6913Z" fill="#A1A1A1"/>
<path d="M77.4285 74.8411H76.77L77.1933 73.0536V72.9595C77.1933 72.9595 77.1463 72.9124 77.0993 72.9124H76.9111C76.6288 72.9124 76.3466 72.8183 76.1584 72.6302C75.9232 72.442 75.7821 72.2068 75.7351 71.9716L74.7002 67.1265H75.3588L76.3466 71.8305C76.3936 72.1127 76.6288 72.3009 76.9111 72.2539C77.1933 72.2539 77.4285 72.0657 77.4756 71.8305L78.5105 67.1265H79.169L77.4285 74.8411Z" fill="#A1A1A1"/>
<path d="M84.7668 67.6911C83.4967 67.6911 82.4618 68.726 82.4618 69.9961C82.4618 70.6077 82.697 71.2192 83.1204 71.6425C84.0141 72.5363 85.5194 72.5363 86.4132 71.6425C87.3069 70.7488 87.3069 69.2435 86.4132 68.3497C85.9898 67.9734 85.3783 67.6911 84.7668 67.6911ZM84.7668 67.0796C85.5665 67.0796 86.3191 67.3619 86.8365 67.9734C87.401 68.5379 87.7303 69.2905 87.7303 70.0432C87.7303 70.8429 87.4481 71.5955 86.8365 72.1129C86.2721 72.6774 85.5194 73.0067 84.7668 73.0067C83.9671 73.0067 83.2144 72.7245 82.697 72.1129C82.1325 71.5485 81.8032 70.7958 81.8032 70.0432C81.8032 69.2435 82.0855 68.4908 82.697 67.9734C83.2144 67.3619 83.9671 67.0326 84.7668 67.0796Z" fill="#A1A1A1"/>
<path d="M90.2237 65.9037H90.0826C89.8474 65.9037 89.6122 65.9978 89.424 66.1389C89.2829 66.28 89.1888 66.5152 89.1888 66.7504V67.0327C89.1888 67.0797 89.2359 67.1268 89.2829 67.1738C89.2829 67.1738 89.2829 67.1738 89.33 67.1738H90.2708V67.7853H89.33C89.2829 67.7853 89.2359 67.8324 89.1888 67.8794C89.1888 67.8794 89.1888 67.8794 89.1888 67.9265V72.9127H88.5303V66.7975C88.5303 66.4212 88.6714 66.0448 88.9536 65.7626C89.2359 65.4804 89.6122 65.2922 90.0356 65.3392H90.1767V65.9037H90.2237Z" fill="#A1A1A1"/>
<path d="M94.8808 65.2452C95.3983 65.2452 95.9157 65.4334 96.292 65.8097C96.6683 66.186 96.8565 66.6564 96.8565 67.1739V67.6443H96.1979V67.1739C96.1979 66.8446 96.0568 66.4683 95.7746 66.2331C95.5394 65.9508 95.2101 65.8097 94.8338 65.8097C94.4574 65.8097 94.1282 65.9508 93.893 66.2331C93.6578 66.4683 93.5166 66.7976 93.4696 67.1739C93.4696 67.4561 93.5637 67.7854 93.7048 68.0206C93.8459 68.2558 94.0811 68.444 94.3634 68.5851L95.4923 69.1025C96.245 69.4789 96.7624 70.2315 96.7624 71.0782C96.7624 71.5957 96.5743 72.0661 96.1979 72.4424C95.8216 72.8187 95.3042 73.0069 94.7867 73.0069C94.2693 73.0069 93.7518 72.8187 93.3755 72.4424C92.9992 72.0661 92.811 71.5957 92.811 71.0782V70.6078H93.4696V71.0782C93.4696 71.4546 93.6107 71.7838 93.893 72.019C94.1282 72.3013 94.5045 72.4424 94.8338 72.4424C95.1631 72.4424 95.5394 72.3013 95.7746 72.019C96.0568 71.7838 96.1979 71.4075 96.1979 71.0782C96.1979 70.796 96.1039 70.4667 95.9627 70.2315C95.8216 69.9963 95.5864 69.8081 95.3042 69.667L94.1282 69.1496C93.7518 68.9614 93.4226 68.6792 93.1874 68.3499C92.9522 68.0206 92.811 67.5972 92.811 67.1739C92.811 66.6564 92.9992 66.186 93.3755 65.8097C93.7989 65.4334 94.3163 65.1982 94.8808 65.2452Z" fill="#A1A1A1"/>
<path d="M100.573 67.6911C99.3025 67.6911 98.2676 68.726 98.2676 69.9961C98.2676 70.6076 98.5028 71.2191 98.9262 71.6425C99.82 72.5833 101.278 72.6304 102.219 71.7366C103.16 70.8428 103.207 69.3846 102.313 68.4438C102.266 68.3967 102.266 68.3967 102.219 68.3497C101.796 67.9263 101.231 67.6911 100.573 67.6911ZM100.573 67.0796C101.372 67.0796 102.125 67.3618 102.642 67.9734C103.771 69.1494 103.771 70.9839 102.642 72.1599C101.513 73.336 99.6788 73.336 98.5028 72.207C98.4558 72.1599 98.3617 72.0659 98.3147 71.9718C98.3147 71.9247 98.2676 71.9247 98.2206 71.9718L98.1735 72.0188V74.8413H97.562V69.9961C97.562 69.2434 97.8443 68.4908 98.4087 67.9734C99.0203 67.4089 99.82 67.0796 100.573 67.0796Z" fill="#A1A1A1"/>
<path d="M107.299 67.6912C106.029 67.6912 104.994 68.7261 104.994 69.9961C104.994 70.6077 105.23 71.2192 105.653 71.6426C106.547 72.5363 108.052 72.5363 108.946 71.6426C109.839 70.7488 109.839 69.2435 108.946 68.3497C108.522 67.9734 107.911 67.6912 107.299 67.6912ZM107.299 67.0796C108.099 67.0796 108.852 67.3619 109.369 67.9734C109.934 68.5379 110.263 69.2905 110.263 70.0432C110.263 70.8429 109.981 71.5955 109.369 72.113C108.805 72.6774 108.052 73.0067 107.299 73.0067C106.5 73.0067 105.747 72.7245 105.23 72.113C104.101 70.9369 104.101 69.1024 105.23 67.9264C105.747 67.3619 106.547 67.0326 107.299 67.0796Z" fill="#A1A1A1"/>
<path d="M113.462 67.6913H113.038C112.286 67.6913 111.721 68.2558 111.674 69.0084V72.8657H111.016V69.0084C111.016 68.491 111.204 68.0206 111.58 67.6442C111.956 67.2679 112.474 67.0327 112.991 67.0327H113.415L113.462 67.6913Z" fill="#A1A1A1"/>
<path d="M114.873 65.5273V67.3149C114.873 67.3619 114.92 67.409 114.967 67.456C114.967 67.456 114.967 67.456 115.014 67.456H115.955V68.1146H115.014C114.967 68.1146 114.92 68.1616 114.873 68.2086C114.873 68.2086 114.873 68.2086 114.873 68.2557V71.6896C114.873 72.16 115.202 72.5364 115.672 72.5364H115.72H115.861V73.1949H115.72C115.296 73.1949 114.92 73.0538 114.638 72.7716C114.355 72.4893 114.167 72.113 114.214 71.6896V65.5744" fill="#A1A1A1"/>
</svg>
