<svg width="176" height="176" viewBox="0 0 176 176" fill="none" xmlns="http://www.w3.org/2000/svg">
<path d="M98.8062 64.416C104.227 64.416 108.627 87.296 108.627 115.491H116.477C116.477 85.1136 108.557 60.5088 98.8062 60.5088C93.2446 60.5088 88.2814 67.9008 85.043 79.4816C81.8046 67.9008 76.8414 60.5088 71.2798 60.5088C61.5294 60.5088 53.6094 85.1488 53.6094 115.491H61.459C61.459 87.296 65.859 64.416 71.2798 64.416C76.7006 64.416 81.1006 85.536 81.1006 111.549H88.9502C88.9854 85.536 93.3854 64.416 98.8062 64.416ZM120.419 111.584C120.678 111.584 120.935 111.634 121.174 111.733C121.413 111.832 121.631 111.977 121.814 112.16C121.997 112.343 122.142 112.561 122.241 112.8C122.34 113.04 122.391 113.296 122.39 113.555C122.393 113.815 122.345 114.073 122.247 114.313C122.149 114.554 122.004 114.773 121.82 114.956C121.636 115.14 121.418 115.285 121.177 115.383C120.937 115.481 120.679 115.53 120.419 115.526C119.896 115.526 119.395 115.319 119.025 114.949C118.655 114.579 118.448 114.078 118.448 113.555C118.448 113.032 118.655 112.531 119.025 112.161C119.395 111.792 119.896 111.584 120.419 111.584ZM120.419 115.21C120.637 115.208 120.853 115.162 121.053 115.076C121.253 114.99 121.434 114.864 121.585 114.706C121.736 114.549 121.854 114.363 121.932 114.159C122.009 113.955 122.046 113.738 122.038 113.52C122.045 113.304 122.009 113.088 121.93 112.887C121.852 112.685 121.733 112.501 121.582 112.347C121.431 112.192 121.25 112.07 121.05 111.987C120.85 111.904 120.635 111.863 120.419 111.866C119.976 111.866 119.55 112.042 119.237 112.355C118.923 112.669 118.747 113.094 118.747 113.538C118.747 113.981 118.923 114.406 119.237 114.72C119.55 115.033 119.976 115.21 120.419 115.21ZM119.645 112.394H120.525C121.053 112.394 121.334 112.605 121.334 113.062C121.341 113.144 121.331 113.227 121.304 113.305C121.276 113.382 121.233 113.453 121.177 113.513C121.12 113.573 121.052 113.62 120.976 113.652C120.9 113.683 120.818 113.698 120.736 113.696L121.405 114.717H121.017L120.384 113.696H119.997V114.682H119.645V112.394ZM119.997 113.414H120.384C120.701 113.414 120.982 113.414 120.982 113.027C120.982 112.71 120.736 112.675 120.489 112.675H120.032L119.997 113.414Z" fill="#A1A1A1"/>
</svg>
