<svg width="120" height="120" viewBox="0 0 120 120" fill="none" xmlns="http://www.w3.org/2000/svg">
<path d="M108.193 52.1208C106.97 50.6155 105.559 49.2984 104.006 48.1224C102.125 46.7112 100.196 45.3941 98.1732 44.2181C96.762 43.4184 94.7393 42.1012 93.7044 44.0299C92.6695 45.9585 92.152 49.0162 92.9047 51.2271C93.3751 52.4972 94.3159 53.6732 95.0685 54.8021C95.9623 56.2134 96.809 57.5775 97.7028 58.9887C98.5966 60.3999 99.4903 61.7641 100.29 63.1753C100.431 63.4105 100.525 63.6457 100.666 63.928C100.243 64.3513 99.7726 64.6806 99.2081 64.9158C97.985 65.3862 96.6209 65.2451 95.4919 64.5865C94.457 63.928 93.4221 62.3286 93.5162 61.0585C93.5162 60.9174 93.6103 60.3059 93.281 60.447C91.3994 61.3878 89.9882 62.9401 88.4829 64.3043C86.9306 65.7155 85.096 66.7974 83.1203 67.409C79.8275 68.3027 75.5468 67.5501 74.653 63.975C77.0521 62.7049 79.4982 61.2937 82.0854 60.6822C82.6499 60.5411 83.2614 59.1769 83.4966 58.7535C83.5907 58.6124 84.3433 56.966 84.1081 56.966C81.3798 56.8719 78.6515 56.4015 76.0172 55.6489C73.43 54.9433 70.9839 53.8143 68.3496 53.1557C66.3269 52.6383 64.0219 52.4972 62.0462 53.2968C59.9294 54.1906 58.377 56.5426 57.9066 58.7535C57.4833 60.7292 58.2359 62.5638 60.3057 63.1283C61.1054 63.3635 62.6577 59.4121 62.4225 59.3651C61.3876 59.0828 60.4939 58.5183 60.1646 57.4364C60.1175 57.2953 60.0705 57.1542 60.0705 57.013C60.635 56.7778 61.2465 56.5897 61.858 56.5426C62.987 56.4015 64.116 56.4486 65.1979 56.6838C67.9262 57.1542 70.4664 58.4242 73.1477 59.2239C74.3708 59.5532 75.5938 59.8825 76.8639 60.1177C76.7228 60.2118 76.5817 60.2588 76.4406 60.3529C73.7592 61.7171 71.125 63.1283 68.2555 64.0691C62.5636 65.9037 56.5425 66.3741 50.6624 65.3862C46.617 64.7277 40.9721 62.9872 39.655 58.5183C39.5139 58.095 39.5139 56.0722 39.1846 56.0252C38.7142 55.9311 37.8674 57.6246 37.6793 57.9068C37.2559 58.6595 36.8796 59.4591 36.5033 60.2588C35.9388 61.4819 34.9509 62.4227 33.7279 62.9872C32.2696 63.5987 30.9055 62.9401 29.9176 61.8112C27.4715 58.9887 26.7189 54.8021 26.0603 51.2271C25.684 49.0162 25.3547 46.7582 24.9784 44.5473C24.7902 43.3713 24.555 42.1483 24.3198 40.9723C24.2728 40.5019 24.1787 40.0315 23.9905 39.6081C23.9435 39.467 23.4731 40.0315 23.4261 40.0315C22.7675 40.8311 21.8267 42.1953 21.8267 43.2772V43.3713C21.8737 43.7947 21.9208 44.2181 22.0148 44.6414L22.8616 50.004C23.5672 54.4258 24.555 58.8947 24.8843 63.3635C24.9784 64.2102 24.9313 65.0569 24.8373 65.9037V65.9507C24.1317 66.8445 23.1438 67.503 22.0619 67.8794C19.0983 68.8202 15.241 68.3027 13.1712 65.8566C11.5248 63.928 11.4778 61.1996 11.9482 58.8476C12.2304 57.3894 12.6538 55.9781 13.2653 54.661C13.4065 54.3317 13.5476 54.0965 13.7357 53.6732C13.7357 53.6261 13.7828 53.5791 13.8298 53.5321C13.8769 53.485 13.8769 53.485 13.8769 53.438C13.8298 53.485 13.8298 53.485 13.8298 53.5321C13.7828 53.6261 13.6887 53.7673 13.6417 53.8613C13.9239 53.3909 14.2061 52.9205 14.4413 52.4031C14.4884 52.309 14.8177 51.6034 14.7236 51.4152C14.5354 50.9919 13.6417 52.4031 13.5946 52.4972C12.4656 54.3788 11.5248 56.3545 10.7722 58.4242C9.83138 61.1055 9.07874 64.2573 9.7373 67.0797C10.6781 70.984 13.7357 72.8656 18.6279 72.4423C20.1803 72.3012 23.9905 71.0781 25.9662 66.4211C26.0603 66.1389 26.6248 64.3043 26.7189 64.0221C27.1893 65.3862 28.1301 66.8445 29.8706 67.1738C31.9874 67.5501 34.0101 66.8445 36.0329 63.0342C36.3151 62.5168 37.1148 60.5411 37.1618 60.494C37.1618 60.6351 37.1618 60.7292 37.2089 60.8703C37.6793 65.5273 41.1603 68.4438 45.1117 69.4787C52.497 71.4074 58.33 69.808 63.9278 68.3968C67.2206 67.5971 70.2312 66.1859 73.2418 64.6336C73.3829 64.5865 73.477 64.4925 73.6181 64.4454C73.477 65.1981 73.3829 65.9037 73.3359 66.6563C73.1477 68.3968 73.7122 70.5607 75.3586 71.5015C77.0991 72.5364 79.4041 72.4893 81.2857 72.0189C83.2614 71.5485 85.7075 70.0903 87.2598 68.7731C88.9533 67.3619 90.3645 65.6685 92.2932 64.6336C92.4343 66.5152 93.4221 68.3968 95.2567 69.1495C97.4676 70.0432 99.9137 68.7261 100.902 66.7034C101.654 65.151 102.031 63.4576 102.031 61.7641C102.031 60.447 101.419 59.3651 100.807 58.2361C99.3022 55.6489 97.6558 53.1557 96.0564 50.6626C95.3978 49.5807 94.5041 48.4987 94.0336 47.3227C94.1748 47.2757 94.3159 47.2757 94.457 47.2757C94.8804 47.3227 95.3508 47.5109 95.7271 47.699C96.6209 48.1224 97.5146 48.6399 98.3614 49.1573C101.795 51.2271 105.464 53.6732 107.722 57.013C108.475 58.189 108.992 59.5062 109.134 60.8703C109.228 61.5289 109.275 62.2345 109.275 62.8931C109.275 63.1753 109.228 63.5046 109.228 63.7869C108.287 66.28 105.841 68.0675 103.677 69.3847C103.112 69.7139 102.971 71.3133 102.877 71.9248C102.83 72.113 102.595 73.7124 103.018 73.4772C105.276 72.113 107.252 70.4666 108.569 68.1146C110.027 65.5273 110.545 62.2816 110.545 59.318C110.404 56.6838 109.839 54.2377 108.193 52.1208Z" fill="#A1A1A1"/>
<path d="M13.877 53.4378C13.971 53.2496 14.0651 53.1085 13.877 53.4378V53.4378Z" fill="#A1A1A1"/>
<path d="M31.0465 68.679C30.7643 68.4438 29.7764 70.1843 29.6824 70.3725C29.5883 70.5607 28.6004 72.16 28.9297 72.4423L32.1285 74.7943C32.4107 75.0295 33.3986 73.289 33.4926 73.1008C33.5867 72.9127 34.5746 71.3133 34.2453 71.0311C33.2104 70.2314 32.1285 69.4787 31.0465 68.679Z" fill="#A1A1A1"/>
<path d="M36.8327 68.2557C36.5504 68.0205 35.5626 69.761 35.4685 69.9491C35.3744 70.1373 34.3866 71.7367 34.7159 72.0189L37.9146 74.3709C38.1968 74.6061 39.1847 72.8657 39.2788 72.6775C39.3729 72.4893 40.3607 70.89 40.0314 70.6077C38.9965 69.8551 37.9146 69.0554 36.8327 68.2557Z" fill="#A1A1A1"/>
<path d="M65.0567 49.4867C65.3389 49.7219 66.3268 47.9814 66.4209 47.7932C66.5149 47.6051 67.5028 46.0057 67.1735 45.7234L63.9748 43.3714C63.6925 43.1362 62.7047 44.8767 62.6106 45.0649C62.5165 45.253 61.5287 46.8524 61.8579 47.1346C62.8928 47.8873 63.9748 48.687 65.0567 49.4867Z" fill="#A1A1A1"/>
<path d="M86.5074 54.0965C86.7896 54.3317 87.7775 52.5912 87.8715 52.4031C87.9656 52.2149 88.9535 50.6155 88.6242 50.3333L85.4254 47.9813C85.1432 47.7461 84.1554 49.4866 84.0613 49.6747C83.9672 49.8629 82.9793 51.4623 83.3086 51.7445C84.3435 52.4972 85.4254 53.2968 86.5074 54.0965Z" fill="#A1A1A1"/>
<path d="M35.7976 78.5576H37.5852L39.5138 86.5074H38.0085L37.6792 84.814H35.7506L35.4213 86.5074H33.916L35.7976 78.5576ZM35.9858 83.4969H37.397L36.6914 79.9218L35.9858 83.4969Z" fill="#A1A1A1"/>
<path d="M40.7368 86.5074V78.5576H42.1951V85.1903H44.7823V86.5074H40.7368Z" fill="#A1A1A1"/>
<path d="M47.7931 78.5576L49.5336 84.0143V78.5576H50.8507V86.5074H49.2043L47.4167 80.9567V86.5074H46.0996V78.5576H47.7931Z" fill="#A1A1A1"/>
<path d="M54.0496 78.5576H55.8371L57.7658 86.5074H56.2605L55.9312 84.814H54.0025L53.6733 86.5074H52.168L54.0496 78.5576ZM54.2377 83.4969H55.649L54.9434 79.9218L54.2377 83.4969Z" fill="#A1A1A1"/>
<path d="M60.3998 78.5573V81.756L62.2344 78.5573H63.8338L61.8581 81.9442L64.0219 86.4601H62.3755L60.8702 83.2143L60.3528 84.1081V86.4601H58.8945V78.5103H60.3998V78.5573Z" fill="#A1A1A1"/>
<path d="M65.104 78.5576H66.5623V81.6152H68.2557V78.5576H69.714V86.5074H68.2557V82.9794H66.5623V86.5074H65.104V78.5576Z" fill="#A1A1A1"/>
<path d="M75.4527 78.5576V79.8747H72.8655V81.7564H75.3116V83.0735H72.8655V85.1903H75.5468V86.5074H71.4072V78.5576H75.4527Z" fill="#A1A1A1"/>
<path d="M81.0035 78.5576V79.8747H78.4163V81.7564H80.8624V83.0735H78.4163V85.1903H81.0976V86.5074H76.958V78.5576H81.0035Z" fill="#A1A1A1"/>
<path d="M82.5557 86.5074V78.5576H84.0139V85.1903H86.6011V86.5074H82.5557Z" fill="#A1A1A1"/>
<path d="M50.9448 33.6338H52.6383V34.2453H51.6504V34.9039H52.5912V35.5154H51.6504V36.268H52.6853V36.8796H50.9448V33.6338Z" fill="#A1A1A1"/>
<path d="M53.8144 35.8445V35.9386C53.8144 36.1738 53.8614 36.362 54.0966 36.362C54.2848 36.362 54.4259 36.2208 54.4259 36.0327V35.9856C54.4259 35.28 53.1558 35.7034 53.1558 34.4804C53.1088 34.01 53.4381 33.5866 53.9085 33.5396C53.9555 33.5396 54.0496 33.5396 54.0966 33.5396C54.8022 33.5396 55.0375 33.9159 55.0375 34.4333V34.5274H54.3789C54.3789 34.3863 54.3789 34.2452 54.3318 34.1981C54.2848 34.1511 54.2378 34.104 54.1437 34.104C53.9555 34.104 53.8614 34.1981 53.8614 34.4333C53.8614 35.0919 55.1315 34.7626 55.1315 35.8916C55.1315 36.6442 54.7552 36.9265 54.1437 36.9265C53.6262 36.9265 53.2029 36.7383 53.2029 36.0797V35.8916L53.8144 35.8445Z" fill="#A1A1A1"/>
<path d="M56.1662 34.2453H55.5547V33.6338H57.4833V34.2453H56.8718V36.8325H56.1662V34.2453Z" fill="#A1A1A1"/>
<path d="M57.5776 36.0327H58.2362V36.8324H57.5776V36.0327Z" fill="#A1A1A1"/>
<path d="M60.729 34.6216H60.1646V34.1512H60.2586C60.7761 34.1512 60.9172 33.869 60.9172 33.6338H61.3876V36.7855H60.682V34.6216H60.729Z" fill="#A1A1A1"/>
<path d="M63.128 36.0799C63.128 36.174 63.128 36.268 63.175 36.3151C63.2221 36.3621 63.2691 36.4092 63.3632 36.4092C63.5984 36.4092 63.6454 36.221 63.6454 35.5154C63.5513 35.7036 63.3632 35.7976 63.128 35.7976C62.7046 35.7976 62.4224 35.5154 62.4224 34.8098C62.4224 34.1983 62.6105 33.6338 63.3632 33.6338C64.2099 33.6338 64.304 34.2453 64.304 35.1861C64.304 36.221 64.2569 36.8796 63.3161 36.8796C62.7987 36.8796 62.4694 36.6444 62.4694 36.0799H63.128ZM63.6454 34.7628C63.6454 34.3864 63.5984 34.1512 63.4102 34.1512C63.2221 34.1512 63.175 34.3394 63.175 34.7157C63.175 35.092 63.2221 35.2802 63.4102 35.2802C63.5984 35.2802 63.6454 35.045 63.6454 34.7628Z" fill="#A1A1A1"/>
<path d="M66.6563 34.4804C66.6563 34.8567 66.5152 35.0919 66.233 35.1389C66.5623 35.186 66.7034 35.4682 66.7034 35.8916C66.7034 36.409 66.5152 36.8794 65.7626 36.8794C65.0099 36.8794 64.8218 36.456 64.8218 35.8916C64.8218 35.5152 64.9629 35.186 65.2922 35.1389C65.0099 35.0448 64.8688 34.7626 64.9159 34.4804C64.9159 34.0099 65.1511 33.6807 65.8096 33.6807C66.4682 33.6807 66.6563 33.9629 66.6563 34.4804ZM65.5274 35.9386C65.5274 36.2208 65.5744 36.456 65.8096 36.456C66.0448 36.456 66.0919 36.2208 66.0919 35.9386C66.0919 35.6564 66.0448 35.4212 65.8096 35.4212C65.5744 35.4212 65.5274 35.6564 65.5274 35.9386ZM66.0448 34.5274C66.0448 34.2922 65.9978 34.1511 65.8096 34.1511C65.6215 34.1511 65.5744 34.3392 65.5744 34.5274C65.5744 34.8567 65.6685 34.9508 65.8096 34.9508C65.9507 34.9508 66.0448 34.8567 66.0448 34.5274Z" fill="#A1A1A1"/>
<path d="M68.3967 34.4804C68.3967 34.3863 68.3967 34.2922 68.3497 34.2452C68.3026 34.1981 68.2556 34.1511 68.1615 34.1511C67.9263 34.1511 67.8793 34.3392 67.8793 35.0448C67.9734 34.8567 68.1615 34.7626 68.3967 34.7626C68.8201 34.7626 69.1023 35.0448 69.1023 35.7504C69.1023 36.362 68.9142 36.9265 68.1615 36.9265C67.3148 36.9265 67.2207 36.3149 67.2207 35.3741C67.2207 34.3392 67.2677 33.6807 68.2086 33.6807C68.726 33.6807 69.0553 33.9159 69.0553 34.4804H68.3967ZM68.4438 35.8916C68.4438 35.5152 68.3967 35.3271 68.2086 35.3271C68.0204 35.3271 67.9734 35.5623 67.9734 35.8445C67.9734 36.2208 68.0204 36.456 68.2086 36.456C68.3967 36.456 68.4438 36.2208 68.4438 35.8916Z" fill="#A1A1A1"/>
</svg>
