<svg width="176" height="176" viewBox="0 0 176 176" fill="none" xmlns="http://www.w3.org/2000/svg">
<path d="M98.8557 71.3644C98.7501 71.3292 98.6445 71.2588 98.5389 71.2236C95.6525 69.71 92.6605 69.006 89.4221 69.5692C86.8559 69.888 84.4172 70.8707 82.3469 72.4204C81.3965 73.1244 80.5517 73.934 79.6365 74.7084C79.4525 74.8801 79.2521 75.0334 79.0381 75.166C78.9325 75.0252 78.8269 74.9196 78.7213 74.7788C77.7375 73.3723 76.4952 72.1658 75.0605 71.2236C73.2969 69.9949 71.1904 69.3544 69.0413 69.3932C68.084 69.4822 67.1322 69.6232 66.1901 69.8156C65.0062 70.1875 63.8892 70.746 62.8813 71.47C61.9949 72.1312 61.2511 72.9646 60.6946 73.9203C60.1381 74.876 59.7804 75.9342 59.6429 77.0316C59.221 79.9723 59.5354 82.9718 60.5581 85.7612C61.5866 88.5935 63.0992 91.2257 65.0285 93.5404C68.4331 97.7575 72.4986 101.395 77.0669 104.312C77.9821 104.875 78.9325 105.368 79.8477 105.966C80.0026 106.084 80.1948 106.141 80.3889 106.128C80.583 106.115 80.7658 106.033 80.9037 105.896C83.7457 103.648 87.2428 102.387 90.8653 102.305C91.067 102.303 91.2642 102.364 91.4285 102.481C91.2173 102.622 91.0061 102.798 90.7949 102.939C89.0878 103.936 87.4944 105.116 86.0429 106.459C84.6462 107.685 83.3944 109.067 82.3117 110.577C82.1709 110.753 82.0301 110.964 81.7837 110.929C81.6208 110.803 81.4435 110.697 81.2557 110.612C80.1645 110.014 79.0381 109.451 77.9469 108.817C73.7347 106.395 69.8539 103.437 66.4013 100.017C65.4157 99.0668 64.5357 98.0108 63.6205 96.99C60.3309 93.3961 57.8573 89.1333 56.3693 84.494C55.7029 82.4857 55.3816 80.3791 55.4189 78.2636C55.4783 77.0719 55.6076 75.8848 55.8061 74.7084C56.1112 72.4235 57.0639 70.2738 58.5517 68.5132C59.3113 67.5947 60.2292 66.8198 61.2621 66.2252C62.0717 65.7676 62.9517 65.486 63.8317 65.0988L64.3597 64.8876L64.3949 64.8524H64.4301C65.4861 64.782 66.5773 64.606 67.6333 64.606C70.4036 64.6656 73.1004 65.5076 75.4125 67.0348C76.488 67.7412 77.4696 68.5809 78.3341 69.534C78.4791 69.6828 78.6318 69.8238 78.7917 69.9564C79.0029 69.7452 79.2141 69.5692 79.4253 69.358C81.0476 67.7595 83.0633 66.6181 85.2685 66.0492C88.1913 65.328 91.2757 65.6777 93.9629 67.0348C95.8078 67.9226 97.4587 69.1668 98.8205 70.6956C98.9488 70.864 99.0443 71.0551 99.1021 71.2588C99.0317 71.3292 98.9613 71.3292 98.8557 71.3644Z" fill="#A1A1A1"/>
<path d="M79.1085 80.6078C78.3341 81.9102 78.4397 83.3182 78.2637 84.691C77.9821 86.6974 77.8061 88.6686 77.5597 90.675C77.4761 91.1052 77.5381 91.551 77.7357 91.9422C78.1933 92.6462 79.0381 92.6814 79.4605 91.9422C79.6726 91.5878 79.8047 91.1914 79.8477 90.7806C80.1645 88.2814 80.4461 85.747 80.7277 83.2126C80.7992 82.6435 80.905 82.0793 81.0445 81.523C81.1296 81.186 81.3326 80.8906 81.6168 80.6905C81.9009 80.4903 82.2473 80.3985 82.5933 80.4318C83.6845 80.467 84.7757 80.467 85.9021 80.5022C85.9725 80.5022 86.0077 80.5374 86.1133 80.6078C85.5149 81.0654 85.3741 81.699 85.3037 82.3678C84.9869 85.0078 84.6701 87.683 84.3533 90.323C84.3181 90.6859 84.3181 91.0513 84.3533 91.4142C84.3748 91.6625 84.481 91.8959 84.654 92.0753C84.827 92.2547 85.0564 92.3693 85.3037 92.3998C85.912 92.4584 86.5231 92.4819 87.1341 92.4702C87.3453 92.4702 87.5565 92.435 87.7677 92.435H92.5197C93.0184 92.4481 93.5164 92.3888 93.9981 92.259C94.9133 92.0126 95.3357 91.3438 95.4413 90.3934C94.7373 90.3582 94.0685 90.323 93.3997 90.2526C91.9824 90.1728 90.5948 89.814 89.3165 89.1966C86.2541 87.683 86.1485 84.2686 87.8381 82.1566C88.6683 81.1644 89.8096 80.4822 91.0765 80.2206C92.6665 79.8446 94.3047 79.7141 95.9341 79.8334C97.6444 79.9309 99.3416 80.1902 101.003 80.6078C101.144 80.643 101.32 80.7134 101.496 80.7486C100.721 82.0158 100.827 83.459 100.651 84.8318C100.334 87.0846 100.123 89.3374 99.8061 91.555C99.5245 93.4206 98.4333 94.5822 96.4621 94.9694C95.2042 95.1912 93.9351 95.344 92.6605 95.427C91.3229 95.5326 90.0205 95.5326 88.6829 95.5326C87.3453 95.5326 86.0077 95.3918 84.6349 95.2862C84.4761 95.2888 84.319 95.2526 84.1773 95.1806C83.7549 94.8286 83.3325 95.0046 82.8749 95.1102C80.2844 95.6772 77.5859 95.4941 75.0957 94.5822C74.7383 94.4416 74.3962 94.2647 74.0749 94.0542C73.8345 93.8958 73.6355 93.6821 73.4947 93.431C73.3538 93.1799 73.2752 92.8987 73.2653 92.611V90.147C72.8429 90.147 72.4557 90.1118 72.0685 90.1118C70.4214 90.1216 68.7906 89.7859 67.2813 89.1262C65.8381 88.4222 64.7469 87.4366 64.4301 85.747C64.0429 83.5294 64.9933 81.875 66.8589 80.819C68.2848 80.074 69.862 79.6647 71.4701 79.6222C73.9026 79.5235 76.336 79.7965 78.6861 80.4318C78.8173 80.5114 78.9597 80.5707 79.1085 80.6078ZM96.4621 82.1214C95.0893 81.8046 93.7869 81.7694 92.5549 82.403C90.6189 83.4238 90.5837 86.2398 92.2733 87.4014C93.2941 88.1054 94.4557 88.3518 95.7229 88.4574C95.9693 86.3595 96.2157 84.2827 96.448 82.1355L96.4621 82.1214ZM73.3357 88.211C73.5821 86.0286 73.8285 83.987 74.0397 81.875C72.4205 81.5934 70.9421 81.5934 69.6397 82.579C69.069 83.0527 68.7082 83.7325 68.6357 84.4706C68.5632 85.2088 68.7849 85.9457 69.2525 86.5214C70.3437 87.6971 71.7869 87.9998 73.3357 88.2251V88.211Z" fill="#A1A1A1"/>
<path d="M121.792 81.5372C121.999 82.1117 122.083 82.7233 122.038 83.3324C122.003 84.2476 121.475 84.7052 120.56 84.6348C120.138 84.5996 119.715 84.494 119.258 84.4588C118.281 84.3096 117.283 84.4314 116.371 84.8108C114.611 85.55 113.766 86.958 114.154 88.9644C114.541 91.0412 116.336 93.294 119.222 93.2588C119.645 93.2588 120.102 93.2236 120.525 93.2588C121.827 93.3644 122.003 94.2796 121.827 95.1244C121.78 95.2618 121.705 95.3886 121.609 95.4973C121.512 95.606 121.395 95.6946 121.264 95.758C120.866 95.9383 120.434 96.0342 119.997 96.0396H103.488C102.714 95.9692 102.432 95.6876 102.432 94.9132C102.432 94.5612 102.467 94.174 102.502 93.822C102.784 91.7804 103.03 89.7388 103.312 87.6972C103.594 85.4444 103.875 83.1564 104.122 80.9036C104.298 79.3548 104.474 77.7708 104.579 76.1868C104.65 74.8844 103.946 74.4972 102.784 75.1308C102.379 75.3844 102.002 75.6793 101.658 76.0108C101.343 76.3365 100.988 76.6204 100.602 76.8556C100.602 76.6092 100.637 76.3276 100.637 76.0812C100.727 74.7257 101.138 73.411 101.834 72.2444C102.118 71.744 102.502 71.3076 102.962 70.9624C103.422 70.6172 103.949 70.3705 104.509 70.238C105.211 70.035 105.963 70.0902 106.628 70.3937C107.293 70.6972 107.827 71.2289 108.134 71.8924C108.635 72.9491 108.899 74.1023 108.909 75.2716C108.979 77.278 108.733 79.2844 108.557 81.2908L107.712 89.5276C107.642 90.1612 107.536 90.7948 107.501 91.4284C107.476 91.8094 107.524 92.1916 107.642 92.5548C107.674 92.7162 107.763 92.8609 107.892 92.9638C108.02 93.0667 108.181 93.1213 108.346 93.118H111.725C111.549 92.9068 111.478 92.766 111.373 92.6604C110.86 92.1341 110.456 91.5119 110.185 90.8293C109.913 90.1468 109.778 89.4174 109.789 88.6828C109.759 87.7636 109.89 86.8464 110.176 85.9724C110.88 84.142 112.253 82.9804 114.013 82.2764C115.083 81.864 116.212 81.6263 117.357 81.5724C118.272 81.5372 119.187 81.6076 120.102 81.6076C120.666 81.6545 121.234 81.6308 121.792 81.5372Z" fill="#A1A1A1"/>
<path d="M103.08 104.382C102.587 106.67 102.129 108.852 101.672 111.07C101.425 111.07 101.249 111.105 101.073 111.105H96.7436C95.8988 111.105 95.758 110.964 95.6876 110.12C95.6524 109.838 95.6172 109.521 95.582 109.24C95.5468 108.958 95.5116 108.712 95.4764 108.395C94.8428 108.219 94.2444 108.324 93.646 108.324C93.0476 108.324 92.414 108.324 91.7804 108.324C91.358 109.099 90.9356 109.873 90.5484 110.648C90.4926 110.812 90.3809 110.951 90.233 111.041C90.085 111.131 89.9101 111.166 89.7388 111.14C89.1404 111.105 88.5068 111.14 87.7676 111.14C88.366 110.014 88.894 109.028 89.3868 108.113C89.1756 107.55 88.9644 107.057 88.7884 106.529C88.718 106.318 88.8236 106.107 88.8236 105.825C89.246 105.931 89.6332 106.001 89.9852 106.107C90.0428 106.129 90.1044 106.139 90.1662 106.137C90.228 106.135 90.2886 106.12 90.3445 106.094C90.4005 106.068 90.4505 106.03 90.4915 105.984C90.5326 105.938 90.5639 105.884 90.5836 105.825C90.9708 105.086 91.3932 104.347 91.8156 103.608C92.3084 102.657 92.8364 101.707 93.3292 100.756C93.5404 100.299 93.6812 99.8412 93.8924 99.278H96.7999C96.8696 99.2766 96.9389 99.2892 97.0036 99.3153C97.0684 99.3413 97.1271 99.3801 97.1765 99.4294C97.2258 99.4788 97.2646 99.5375 97.2906 99.6023C97.3167 99.667 97.3293 99.7363 97.3279 99.806C97.3983 100.299 97.5039 100.792 97.5391 101.284C97.8207 103.748 98.1023 106.177 98.4191 108.641C98.4308 109.136 98.618 109.61 98.9471 109.979C99.103 109.805 99.2227 109.601 99.2991 109.38C99.6511 107.726 100.003 106.072 100.39 104.312C99.8623 104.382 99.4399 104.452 98.9823 104.523C98.9446 103.999 99.0543 103.474 99.2991 103.009C99.457 102.832 99.6662 102.709 99.8975 102.657C100.143 102.622 100.392 102.622 100.637 102.657C100.813 102.2 100.953 101.742 101.129 101.284C101.418 100.435 101.9 99.6637 102.537 99.0316C102.992 98.5768 103.588 98.2911 104.227 98.222C105.424 98.1164 105.917 98.75 106.269 99.4892C106.484 100.003 106.509 100.577 106.339 101.108C106.172 100.968 105.995 100.839 105.811 100.721C105.072 100.228 104.403 100.369 103.945 101.144C103.812 101.352 103.705 101.577 103.629 101.812C103.558 102.024 103.488 102.235 103.417 102.516C103.579 102.557 103.744 102.581 103.91 102.587H104.72C105.389 102.622 105.6 102.868 105.529 103.537C105.529 103.643 105.494 103.713 105.494 103.819C105.496 103.895 105.481 103.97 105.451 104.04C105.421 104.11 105.375 104.172 105.318 104.222C105.261 104.273 105.194 104.31 105.121 104.331C105.048 104.353 104.971 104.358 104.896 104.347H103.734C103.518 104.378 103.298 104.39 103.08 104.382ZM92.9068 106.072C93.7516 106.177 94.526 106.318 95.3356 106.424C95.1596 105.086 95.0892 103.784 94.878 102.516H94.7372C94.1036 103.678 93.5052 104.875 92.9068 106.072Z" fill="#A1A1A1"/>
<path d="M63.7966 65.0635C62.9185 65.3879 62.0605 65.764 61.227 66.1899C60.2006 66.7938 59.2842 67.5675 58.5166 68.4779C56.9678 70.2731 56.1582 72.3851 55.771 74.6731C55.5705 75.8493 55.4412 77.0365 55.3838 78.2283C55.3491 80.3437 55.6703 82.4498 56.3342 84.4587C57.7774 89.1755 60.3118 93.2939 63.5854 96.9547C64.5006 97.9755 65.4158 99.0315 66.3662 99.9819C69.7932 103.43 73.6781 106.392 77.9118 108.782C79.003 109.415 80.1294 109.979 81.2206 110.577L81.7486 110.894C81.0213 110.993 80.2815 110.857 79.6366 110.507C75.8223 108.658 72.232 106.378 68.9358 103.713C65.3362 100.871 62.1494 97.542 59.467 93.8219C57.2494 90.7243 55.4894 87.3803 54.6094 83.6491C54.1424 81.8088 53.9176 79.9155 53.9406 78.0171C54.011 75.3419 54.539 72.8075 55.9118 70.4491C57.3573 67.9697 59.7019 66.142 62.459 65.3451C62.9166 65.2395 63.3601 65.1691 63.7966 65.0635Z" fill="#A1A1A1"/>
<path d="M115.259 105.332C115.329 105.227 115.364 105.227 115.364 105.192C115.54 104.1 115.223 103.924 114.273 103.819C113.954 103.782 113.63 103.817 113.326 103.921C113.022 104.024 112.744 104.194 112.513 104.417C112.075 104.86 111.481 105.113 110.859 105.121C110.612 105.128 110.366 105.085 110.136 104.994C109.906 104.903 109.697 104.767 109.521 104.593C110.718 102.833 112.443 102.059 114.484 102.024C115.215 102.017 115.941 102.136 116.631 102.376C117.863 102.798 118.18 103.502 118.075 104.769C117.934 106.107 117.652 107.409 117.406 108.747C117.371 109.028 117.3 109.345 117.265 109.627C117.23 110.12 117.195 110.612 117.159 111.211C116.526 111.246 115.787 111.352 115.083 111.07C114.66 110.929 114.555 110.542 114.449 110.19C113.929 110.518 113.388 110.812 112.83 111.07C111.913 111.45 110.893 111.5 109.943 111.211C109.472 111.076 109.066 110.772 108.806 110.355C108.546 109.939 108.45 109.441 108.535 108.958C108.658 108.365 108.92 107.81 109.299 107.339C109.679 106.868 110.165 106.494 110.718 106.248C111.548 105.877 112.437 105.658 113.344 105.6C113.991 105.508 114.625 105.403 115.259 105.332ZM114.977 106.952C114.044 106.859 113.106 107.069 112.302 107.55C112.016 107.742 111.776 107.994 111.598 108.289C111.246 108.852 111.457 109.345 112.126 109.521C112.379 109.592 112.644 109.609 112.905 109.573C113.165 109.537 113.415 109.447 113.639 109.31C114.057 109.077 114.403 108.734 114.639 108.318C114.875 107.902 114.992 107.43 114.977 106.952Z" fill="#A1A1A1"/>
<path d="M75.7292 78.5452C74.6307 77.9851 73.406 77.7183 72.174 77.7708C71.2236 77.7708 70.2732 77.9468 69.3228 78.0172C68.7256 78.0641 68.1262 78.0759 67.5276 78.0524C67.0526 78.0539 66.5887 77.9095 66.1984 77.6388C65.8081 77.3682 65.5103 76.9842 65.3452 76.5388C65.0013 75.7411 64.8679 74.8684 64.958 74.0044C66.022 74.4635 67.1818 74.6568 68.3372 74.5676C69.1116 74.5324 69.886 74.4268 70.6604 74.3564C71.5037 74.2919 72.3501 74.2801 73.1948 74.3212C73.6553 74.3413 74.1016 74.4862 74.486 74.7404C74.8704 74.9946 75.1785 75.3486 75.3772 75.7644C75.8455 76.6123 75.9715 77.6073 75.7292 78.5452Z" fill="#A1A1A1"/>
<path d="M75.0956 96.9551C76.1164 97.1663 77.0316 97.3775 77.982 97.4831C78.5546 97.5479 79.132 97.5597 79.7068 97.5183C80.7276 97.5183 81.7484 97.4479 82.7692 97.4479C82.9239 97.4541 83.0774 97.4777 83.2268 97.5183C84.9516 97.8351 85.5852 98.8207 85.7612 100.369C85.7964 100.827 85.726 101.32 85.726 101.777C84.8108 101.531 83.966 101.249 83.1564 101.073C81.8892 100.792 80.622 100.933 79.3196 101.003C78.5913 101.032 77.862 101.009 77.1372 100.933C76.7958 100.891 76.4709 100.762 76.1936 100.559C75.9163 100.355 75.6957 100.084 75.5532 99.7711C75.1044 98.9052 74.9441 97.9185 75.0956 96.9551Z" fill="#A1A1A1"/>
<path d="M106.389 102.411C106.987 102.376 107.621 102.305 108.289 102.305C108.958 102.305 109.31 102.657 109.205 103.361C109.064 104.276 108.853 105.192 108.677 106.107C108.325 107.761 107.973 109.416 107.621 111.14H104.805C104.91 110.577 105.016 110.049 105.121 109.521C105.509 107.691 105.896 105.86 106.283 103.995C106.353 103.488 106.353 102.974 106.389 102.411Z" fill="#A1A1A1"/>
<path d="M99.9682 79.3551C99.3698 78.4399 98.4898 78.2639 97.5042 78.2991H97.293C96.8732 78.3183 96.4561 78.2228 96.0866 78.0228C95.717 77.8228 95.4089 77.5259 95.1954 77.164C94.9818 76.8021 94.8709 76.3888 94.8746 75.9686C94.8783 75.5484 94.9964 75.1372 95.2162 74.7791C95.3878 74.4283 95.6711 74.1446 96.0216 73.9726C96.372 73.8005 96.7698 73.7499 97.1522 73.8287C97.5711 73.897 97.9692 74.0591 98.3166 74.3029C98.6641 74.5467 98.9519 74.8659 99.1586 75.2367C99.6055 76.0143 99.8815 76.8783 99.9682 77.7711C100.039 78.2639 100.039 78.7567 100.074 79.2495L99.9682 79.3551Z" fill="#A1A1A1"/>
<path d="M66.1758 69.8509C67.1262 69.7101 68.0766 69.4285 69.027 69.4285C71.1753 69.3947 73.2803 70.0348 75.0462 71.2589C76.4808 72.2011 77.7232 73.4076 78.707 74.8141C78.8126 74.9549 78.9182 75.0605 79.0238 75.2013C78.179 75.4477 78.0382 75.3773 77.5454 74.7789C75.539 72.2797 73.0398 70.5197 69.8366 69.8861C68.6258 69.681 67.3902 69.6691 66.1758 69.8509Z" fill="#A1A1A1"/>
<path d="M106.917 101.355C106.869 100.894 106.923 100.428 107.075 99.99C107.227 99.5521 107.474 99.1529 107.797 98.8205C107.989 98.6212 108.243 98.4921 108.517 98.4538C108.791 98.4155 109.071 98.4703 109.31 98.6093C109.733 98.8557 109.909 99.3485 109.803 99.9821C109.698 100.616 109.416 100.862 108.747 100.968C108.642 101.003 108.536 100.968 108.395 101.003C107.55 101.024 107.55 101.024 106.917 101.355Z" fill="#A1A1A1"/>
<path d="M89.4082 69.5691C92.6466 69.0059 95.6738 69.7099 98.525 71.2235C97.2226 70.8363 95.9202 70.4139 94.5826 70.0619C93.0527 69.6818 91.4755 69.5276 89.901 69.6043C89.7391 69.6043 89.5631 69.5691 89.4082 69.5691Z" fill="#A1A1A1"/>
<path d="M98.8555 71.3644C98.9611 71.3292 99.0315 71.294 99.1371 71.2588C99.1371 71.47 99.2075 71.47 99.3483 71.3644C99.3994 71.4319 99.4465 71.5024 99.4891 71.5756C99.2075 71.646 99.0315 71.4559 98.8555 71.3644Z" fill="#A1A1A1"/>
<path d="M64.4161 64.8525H64.3809L64.3457 64.8877C64.3809 64.9229 64.4161 64.9581 64.4513 64.9581C64.438 64.9442 64.4279 64.9275 64.4219 64.9093C64.4158 64.891 64.4138 64.8716 64.4161 64.8525Z" fill="#A1A1A1"/>
<path d="M99.3484 71.3644C99.2076 71.47 99.1372 71.47 99.1372 71.2588L99.3484 71.3644Z" fill="#A1A1A1"/>
</svg>
