<svg width="176" height="176" viewBox="0 0 176 176" fill="none" xmlns="http://www.w3.org/2000/svg">
<path d="M96.1314 70.1711C95.9453 70.1359 95.7543 70.1359 95.5682 70.1711C95.0993 70.1672 94.6337 70.2508 94.1954 70.4175C93.5063 70.6346 92.8706 70.9944 92.3298 71.4735C92.3485 71.3405 92.384 71.2104 92.4354 71.0863C92.6415 70.5224 92.698 69.9147 92.5993 69.3225C92.5006 68.7302 92.2501 68.1737 91.8722 67.7071C91.6269 67.3914 91.3431 67.1076 91.0274 66.8623C90.9886 66.8253 90.9396 66.8007 90.8866 66.7919C90.8289 66.7609 90.7622 66.7509 90.6979 66.7638C90.6337 66.7766 90.5759 66.8115 90.5346 66.8623C90.2897 67.161 90.0883 67.4928 89.9362 67.8479C89.6999 68.3922 89.6051 68.9874 89.6604 69.5782C89.7158 70.169 89.9197 70.7362 90.253 71.2271C90.3436 71.3311 90.4151 71.4503 90.4642 71.5791C89.8233 71.2263 89.1161 71.0106 88.3874 70.9455C87.9289 70.8986 87.4659 70.9224 87.0146 71.0159C86.8231 71.0462 86.6346 71.0933 86.4514 71.1567C86.4205 71.1668 86.3925 71.184 86.3694 71.2068C86.3464 71.2297 86.329 71.2577 86.3188 71.2885C86.3085 71.3193 86.3056 71.3521 86.3103 71.3842C86.315 71.4164 86.3272 71.4469 86.3458 71.4735C86.7054 71.9687 87.1918 72.3579 87.7538 72.5999C88.4446 72.8819 89.1938 72.9906 89.9362 72.9167C90.0577 72.9241 90.1789 72.8998 90.2882 72.8463C90.1826 72.8463 90.1122 72.8111 90.0418 72.8111C89.338 72.6909 88.6873 72.3594 88.1762 71.8607C88.6705 71.7329 89.1858 71.7089 89.6898 71.7903C90.1991 71.8654 90.6962 72.0074 91.1682 72.2127C90.8587 71.6149 90.7015 70.9499 90.7106 70.2767C90.7529 69.8325 90.8846 69.4015 91.0978 69.0095C91.373 69.3255 91.5986 69.6816 91.7666 70.0655C91.9817 70.7489 92.0181 71.4761 91.8722 72.1775C92.2697 71.8715 92.7081 71.6227 93.1746 71.4383C93.6434 71.2487 94.1481 71.1646 94.653 71.1919C94.2671 71.7609 93.731 72.2118 93.1042 72.4943C93.0338 72.5295 92.9634 72.5295 92.893 72.5647C93.0097 72.5824 93.1284 72.5824 93.245 72.5647C93.9747 72.4845 94.6747 72.231 95.2866 71.8255C95.7912 71.4846 96.1736 70.9912 96.3778 70.4175C96.3778 70.3471 96.2722 70.1711 96.1314 70.1711Z" fill="#A1A1A1"/>
<path d="M84.6207 84.1282C84.5151 84.1282 84.4799 84.1986 84.4095 84.2338C83.6549 84.7309 82.7781 85.011 81.8751 85.0434C80.0799 85.0786 78.2143 84.0578 77.8271 82.2274C77.6857 81.3235 77.7953 80.3981 78.1439 79.5522C78.5311 78.4962 79.0591 77.5458 79.5519 76.525C79.8335 75.9266 80.1151 75.3634 80.3615 74.765C80.8543 73.6738 80.6783 72.6882 80.0447 71.7026C79.3759 70.6466 78.2847 70.1186 76.9823 69.9074C75.3279 69.6258 73.7439 69.9074 72.1599 70.365C69.8148 71.0436 67.7758 72.5107 66.3871 74.5186C65.9702 75.1767 65.7168 75.925 65.6479 76.701C65.5362 77.4375 65.6212 78.1904 65.8943 78.8834C66.3519 80.1154 67.3375 80.7842 68.7103 81.0658C70.292 81.3732 71.9314 81.0579 73.2863 80.1858C74.7232 79.2942 75.8152 77.9416 76.3839 76.349C76.4936 76.0074 76.5529 75.6517 76.5599 75.293C76.5951 74.7298 75.9615 74.061 75.2575 73.9554C74.9028 73.8853 74.5353 73.9221 74.2015 74.061L73.8495 74.1666C73.7317 74.2171 73.6013 74.2307 73.4756 74.2055C73.3499 74.1804 73.2348 74.1177 73.1455 74.0258C73.0433 73.9338 72.9794 73.8068 72.9664 73.6699C72.9534 73.533 72.9922 73.3962 73.0751 73.2866C73.4048 72.8533 73.8797 72.5533 74.4127 72.4418C75.9967 72.2658 77.2991 72.6882 77.9327 74.237C78.2845 75.1184 78.2845 76.1012 77.9327 76.9826C77.5354 78.1578 76.8941 79.2358 76.0509 80.1458C75.2076 81.0557 74.1815 81.7771 73.0399 82.2626C71.7971 82.7783 70.4432 82.9682 69.1064 82.8142C67.7697 82.6602 66.4944 82.1674 65.4015 81.3826C64.5479 80.7135 63.9815 79.7443 63.8175 78.6722C63.4655 76.2434 64.3807 74.1666 66.0351 72.3362C67.8303 70.365 70.1535 69.133 72.8991 68.4642C74.0093 68.2285 75.1496 68.1691 76.2783 68.2882C77.0833 68.3436 77.8769 68.5094 78.6367 68.781C79.5347 69.0983 80.3268 69.6589 80.9247 70.4002C81.5408 71.0658 81.9769 71.8775 82.1919 72.7586C82.3032 73.3941 82.2548 74.0472 82.0511 74.6594C81.7217 75.6429 81.3096 76.5967 80.8191 77.5106C80.3297 78.4407 79.9403 79.42 79.6575 80.4322C79.5342 80.953 79.5342 81.4954 79.6575 82.0162C79.8687 82.9314 80.9247 83.6002 81.9455 83.4946C83.108 83.3405 84.1921 82.823 85.0431 82.0162C86.6623 80.573 87.7183 78.8482 88.6335 77.0178C89.3375 75.6802 90.0063 74.3074 90.7103 72.9698C90.7777 72.8509 90.8705 72.7484 90.9822 72.6697C91.0938 72.5909 91.2215 72.5379 91.3561 72.5143C91.4907 72.4907 91.6289 72.4973 91.7606 72.5334C91.8924 72.5696 92.0146 72.6345 92.1183 72.7234C92.2348 72.8192 92.313 72.9535 92.3388 73.1021C92.3647 73.2506 92.3364 73.4035 92.2591 73.533C91.8015 74.4834 91.3087 75.4338 90.8159 76.4194C88.9503 80.045 86.9087 83.6002 84.8319 87.1554C84.1983 88.2466 83.5295 89.3026 82.9311 90.429C82.8494 90.5786 82.7262 90.7015 82.5763 90.7827C82.4264 90.8639 82.2562 90.9 82.0863 90.8866H81.8047C81.2063 90.8866 80.8895 90.4994 81.1711 89.9714C81.3471 89.6194 81.5935 89.2674 81.8047 88.9154C82.6847 87.4018 83.5647 85.9234 84.4447 84.4098C84.5503 84.2338 84.6207 84.1986 84.6207 84.1282Z" fill="#A1A1A1"/>
<path d="M112.077 81.0834C112.056 80.9954 112.007 80.9167 111.937 80.8594C111.867 80.8022 111.78 80.7696 111.69 80.7666C111.595 80.7705 111.502 80.7945 111.417 80.837C111.332 80.8794 111.257 80.9394 111.197 81.013C110.543 81.844 109.681 82.4875 108.698 82.8786C108.039 83.1878 107.309 83.3096 106.586 83.2306C104.685 82.9842 103.594 81.2594 104.298 79.6754C104.755 78.6898 105.319 77.7394 105.776 76.7538C106.48 75.2402 107.079 73.6914 107.747 72.1778C107.888 71.8258 108.17 71.509 108.205 71.1218C108.217 71.0306 108.206 70.9379 108.173 70.852C108.14 70.7661 108.086 70.6899 108.016 70.6303C107.946 70.5708 107.862 70.5298 107.772 70.5111C107.682 70.4924 107.589 70.4966 107.501 70.5234C107.297 70.5496 107.097 70.5967 106.903 70.6642C106.708 70.7574 106.493 70.7999 106.277 70.7876C106.062 70.7752 105.853 70.7086 105.671 70.5938L105.248 70.4002C104.891 70.2056 104.513 70.0521 104.122 69.9426C102.535 69.5369 100.867 69.5735 99.2994 70.0482C97.5451 70.5789 95.9247 71.479 94.5474 72.6882C94.5041 72.7245 94.4527 72.7498 94.3976 72.7621C94.3424 72.7743 94.2851 72.7731 94.2306 72.7586C94.0048 72.676 93.7594 72.6637 93.5266 72.7234C93.4536 72.7273 93.3827 72.7489 93.3199 72.7864C93.2571 72.8238 93.2044 72.876 93.1663 72.9383C93.1282 73.0007 93.1058 73.0714 93.1011 73.1443C93.0964 73.2173 93.1096 73.2902 93.1394 73.357C93.1713 73.4686 93.2187 73.5752 93.2802 73.6738C93.3154 73.8146 93.3858 73.9554 93.245 74.0962C92.7841 74.592 92.3932 75.1487 92.0834 75.7506C91.1945 77.1809 90.6969 78.8195 90.6402 80.5026C90.6213 81.0502 90.6927 81.5973 90.8514 82.1218C91.3794 83.8818 92.717 85.1138 95.0754 85.0434C96.2092 84.9916 97.3217 84.7164 98.349 84.2338C99.1079 83.8547 99.8374 83.4193 100.531 82.9314C101.08 82.5369 101.685 82.2283 102.327 82.0162C102.475 81.9635 102.637 81.959 102.789 82.0032C102.94 82.0474 103.074 82.1381 103.171 82.2626C103.335 82.4653 103.488 82.6768 103.629 82.8962C103.987 83.5758 104.591 84.0924 105.319 84.3394C106.023 84.5617 106.764 84.6454 107.501 84.5858C109.192 84.4517 110.761 83.6545 111.866 82.3682C112.147 81.981 112.323 81.5586 112.077 81.101M101.939 79.7282C99.1234 82.7906 95.2866 84.1634 93.3858 82.7906C91.485 81.4178 92.1538 77.7922 94.9698 74.6946C97.7858 71.597 101.623 70.2594 103.523 71.6322C105.424 73.005 104.755 76.6658 101.939 79.7282Z" fill="#A1A1A1"/>
<path d="M78.0737 86.3982C78.0873 86.1664 78.1903 85.9488 78.361 85.7913C78.5316 85.6337 78.7567 85.5485 78.9889 85.5534C79.148 85.5697 79.299 85.6316 79.4238 85.7316C79.5485 85.8316 79.6418 85.9655 79.6924 86.1172C79.7429 86.2689 79.7486 86.432 79.7088 86.5868C79.6689 86.7417 79.5852 86.8818 79.4677 86.9902C79.3502 87.0987 79.2039 87.1709 79.0463 87.1983C78.8888 87.2256 78.7267 87.2069 78.5795 87.1444C78.4323 87.0819 78.3063 86.9783 78.2166 86.8459C78.1269 86.7135 78.0773 86.5581 78.0737 86.3982Z" fill="#A1A1A1"/>
<path d="M80.5024 86.3984C80.5161 86.1666 80.619 85.949 80.7897 85.7915C80.9603 85.6339 81.1854 85.5487 81.4176 85.5536C81.5341 85.5449 81.6512 85.5603 81.7615 85.5988C81.8718 85.6372 81.973 85.6979 82.0588 85.7772C82.1446 85.8564 82.2133 85.9524 82.2604 86.0593C82.3075 86.1662 82.3322 86.2816 82.3328 86.3984C82.3174 86.6266 82.2128 86.8396 82.0414 86.9911C81.8701 87.1426 81.646 87.2206 81.4176 87.208C81.3039 87.2171 81.1896 87.2032 81.0814 87.1671C80.9732 87.131 80.8734 87.0734 80.7879 86.9978C80.7025 86.9222 80.6332 86.8302 80.5841 86.7272C80.5351 86.6242 80.5073 86.5124 80.5024 86.3984Z" fill="#A1A1A1"/>
<path d="M46.7103 107.553L47.3087 109.137H48.0831L46.1823 104.139H45.3023L43.4015 109.137H44.1407L44.7391 107.553H46.7103ZM44.8799 107.061L45.4431 105.617C45.5529 105.317 45.6469 105.012 45.7247 104.702C45.7951 104.984 45.9007 105.301 46.0063 105.617L46.5695 107.061H44.8799ZM50.2303 109.137V107.025L52.0959 104.192H51.2863L50.4767 105.565C50.2655 105.952 50.0543 106.269 49.9135 106.585C49.7375 106.233 49.5615 105.917 49.3503 105.565L48.5759 104.192H47.7663L49.5263 107.078V109.19H50.2303V109.137ZM54.9823 107.553L55.5807 109.137H56.3551L54.4543 104.139H53.5743L51.6735 109.137H52.4127L53.0111 107.553H54.9823ZM53.1167 107.061L53.6799 105.617C53.7897 105.317 53.8837 105.012 53.9615 104.702C54.0319 104.984 54.1375 105.301 54.2431 105.617L54.8063 107.061H53.1167ZM58.6431 108.891C59.092 109.11 59.5868 109.219 60.0863 109.208C61.4239 109.208 62.0575 108.539 62.0575 107.765C62.0575 106.99 61.5647 106.638 60.6143 106.286C59.8399 106.005 59.4879 105.793 59.4879 105.336C59.4879 104.984 59.7695 104.597 60.5439 104.597C60.9109 104.589 61.2741 104.674 61.5999 104.843L61.8111 104.315C61.4268 104.133 61.0037 104.049 60.5791 104.069C59.4879 104.069 58.7839 104.632 58.7839 105.406C58.7839 106.11 59.3471 106.533 60.2623 106.814C61.0015 107.061 61.3183 107.342 61.3183 107.8C61.3183 108.257 60.8959 108.645 60.1567 108.645C59.7035 108.644 59.2569 108.536 58.8543 108.328L58.6431 108.891ZM63.0079 109.137H63.7471V107.131C63.9449 107.162 64.1453 107.174 64.3455 107.166C64.9716 107.208 65.5897 107.006 66.0703 106.603C66.2145 106.469 66.3273 106.305 66.4003 106.123C66.4734 105.94 66.5049 105.743 66.4927 105.547C66.5007 105.344 66.4602 105.143 66.3744 104.959C66.2887 104.775 66.1603 104.615 65.9999 104.491C65.6831 104.209 65.1551 104.069 64.4159 104.069C63.9559 104.057 63.4959 104.092 63.0431 104.174V109.137H63.0079ZM63.7471 104.667C63.9682 104.632 64.1923 104.62 64.4159 104.632C65.2255 104.632 65.7535 104.949 65.7535 105.617C65.7535 106.286 65.2255 106.673 64.3455 106.673C64.1453 106.683 63.9447 106.671 63.7471 106.638V104.667ZM70.3295 106.251H68.1471V104.667H70.4351V104.139H67.4079V109.137H70.5407V108.609H68.1119V106.814H70.2943V106.251H70.3295ZM75.2927 108.469C74.913 108.622 74.5052 108.694 74.0959 108.68C72.7231 108.68 71.9487 107.905 71.9487 106.673C71.9487 105.371 72.8287 104.632 74.1311 104.632C74.5176 104.617 74.9026 104.689 75.2575 104.843L75.4335 104.315C75.0042 104.164 74.5509 104.092 74.0959 104.104C72.3711 104.104 71.1743 105.16 71.1743 106.709C71.1743 108.328 72.3711 109.243 73.9551 109.243C74.4597 109.265 74.9633 109.181 75.4335 108.997L75.2927 108.469ZM76.3487 109.137H77.0879V104.139H76.3487V109.137ZM81.2063 107.553L81.8047 109.137H82.5791L80.6783 104.139H79.7983L77.8975 109.137H78.6367L79.2351 107.553H81.2063ZM79.3759 107.061L79.9391 105.617C80.0489 105.317 80.1429 105.012 80.2207 104.702C80.2911 104.984 80.3967 105.301 80.5023 105.617L81.0655 107.061H79.3759ZM83.4239 109.137H86.5567V108.609H84.1279V104.192H83.4239V109.137ZM87.3311 109.137H88.0703V104.139H87.3311V109.137ZM89.0207 108.891C89.4696 109.11 89.9644 109.219 90.4639 109.208C91.8015 109.208 92.4351 108.539 92.4351 107.765C92.4351 106.99 91.9423 106.638 90.9919 106.286C90.2175 106.005 89.8655 105.793 89.8655 105.336C89.8655 104.984 90.1471 104.597 90.9215 104.597C91.2885 104.589 91.6517 104.674 91.9775 104.843L92.1887 104.315C91.8044 104.133 91.3813 104.049 90.9567 104.069C89.8655 104.069 89.1615 104.632 89.1615 105.406C89.1615 106.11 89.7247 106.533 90.6399 106.814C91.3791 107.061 91.6959 107.342 91.6959 107.8C91.6959 108.257 91.2735 108.645 90.5343 108.645C90.0811 108.644 89.6345 108.536 89.2319 108.328L89.0207 108.891ZM94.4767 109.137H95.2159V104.702H96.9407V104.139H92.7871V104.702H94.4767V109.137ZM99.2991 104.139V109.137H100.038V106.814H102.749V109.137H103.488V104.139H102.749V106.216H100.038V104.139H99.2991ZM106.973 104.069C106.626 104.053 106.281 104.11 105.958 104.235C105.635 104.361 105.341 104.552 105.096 104.797C104.851 105.042 104.66 105.335 104.535 105.659C104.409 105.982 104.352 106.327 104.368 106.673C104.352 107.01 104.406 107.347 104.528 107.662C104.65 107.977 104.836 108.263 105.074 108.501C105.313 108.74 105.599 108.926 105.914 109.048C106.228 109.169 106.565 109.224 106.902 109.208C108.345 109.208 109.507 108.293 109.507 106.568C109.522 106.232 109.467 105.898 109.345 105.585C109.222 105.273 109.036 104.989 108.797 104.754C108.558 104.518 108.272 104.335 107.957 104.217C107.643 104.099 107.308 104.048 106.973 104.069ZM106.937 104.597C108.134 104.597 108.733 105.617 108.733 106.638C108.733 107.765 108.099 108.715 106.937 108.715C105.776 108.715 105.142 107.765 105.142 106.709C105.142 105.582 105.741 104.597 106.937 104.597ZM110.176 108.891C110.625 109.11 111.12 109.219 111.619 109.208C112.957 109.208 113.59 108.539 113.59 107.765C113.59 106.99 113.097 106.638 112.147 106.286C111.373 106.005 111.021 105.793 111.021 105.336C111.021 104.984 111.302 104.597 112.077 104.597C112.444 104.589 112.807 104.674 113.133 104.843L113.344 104.315C112.96 104.133 112.537 104.049 112.112 104.069C111.021 104.069 110.317 104.632 110.317 105.406C110.317 106.11 110.88 106.533 111.795 106.814C112.534 107.061 112.851 107.342 112.851 107.8C112.851 108.257 112.429 108.645 111.689 108.645C111.236 108.644 110.79 108.536 110.387 108.328L110.176 108.891ZM114.541 109.137H115.28V107.131C115.478 107.162 115.678 107.174 115.878 107.166C116.504 107.208 117.122 107.006 117.603 106.603C117.747 106.469 117.86 106.305 117.933 106.123C118.006 105.94 118.038 105.743 118.025 105.547C118.034 105.344 117.993 105.143 117.907 104.959C117.822 104.775 117.693 104.615 117.533 104.491C117.216 104.209 116.688 104.069 115.949 104.069C115.489 104.058 115.029 104.094 114.576 104.174V109.137H114.541ZM115.245 104.667C115.466 104.632 115.69 104.62 115.913 104.632C116.723 104.632 117.251 104.949 117.251 105.617C117.251 106.286 116.723 106.673 115.843 106.673C115.643 106.683 115.442 106.671 115.245 106.638V104.667ZM118.941 109.137H119.68V104.139H118.941V109.137ZM122.003 109.137H122.742V104.702H124.467V104.139H120.313V104.702H122.003V109.137ZM127.353 107.553L127.952 109.137H128.726L126.825 104.139H125.945L124.045 109.137H124.784L125.382 107.553H127.353ZM125.488 107.061L126.051 105.617C126.161 105.317 126.255 105.012 126.333 104.702C126.403 104.984 126.509 105.301 126.614 105.617L127.177 107.061H125.488ZM129.536 109.137H132.669V108.609H130.24V104.192H129.536V109.137ZM46.7103 107.553L47.3087 109.137H48.0831L46.1823 104.139H45.3023L43.4015 109.137H44.1407L44.7391 107.553H46.7103ZM44.8799 107.061L45.4431 105.617C45.5529 105.317 45.6469 105.012 45.7247 104.702C45.7951 104.984 45.9007 105.301 46.0063 105.617L46.5695 107.061H44.8799ZM50.2303 109.137V107.025L52.0959 104.192H51.2863L50.4767 105.565C50.2655 105.952 50.0543 106.269 49.9135 106.585C49.7375 106.233 49.5615 105.952 49.3503 105.565L48.5759 104.192H47.7663L49.5263 107.043V109.155L50.2303 109.137ZM54.9823 107.553L55.5807 109.137H56.3551L54.4543 104.139H53.5743L51.6735 109.137H52.4127L53.0111 107.553H54.9823ZM53.1167 107.061L53.6799 105.617C53.7897 105.317 53.8837 105.012 53.9615 104.702C54.0319 104.984 54.1375 105.301 54.2431 105.617L54.8063 107.061H53.1167ZM58.6431 108.891C59.092 109.11 59.5868 109.219 60.0863 109.208C61.4239 109.208 62.0575 108.539 62.0575 107.765C62.0575 106.99 61.5647 106.638 60.6143 106.286C59.8399 106.005 59.4879 105.793 59.4879 105.336C59.4879 104.984 59.7695 104.597 60.5439 104.597C60.9109 104.589 61.2741 104.674 61.5999 104.843L61.8111 104.315C61.4268 104.133 61.0037 104.049 60.5791 104.069C59.4879 104.069 58.7839 104.632 58.7839 105.406C58.7839 106.11 59.3471 106.533 60.2623 106.814C61.0015 107.061 61.3183 107.342 61.3183 107.8C61.3183 108.257 60.8959 108.645 60.1567 108.645C59.7035 108.644 59.2569 108.536 58.8543 108.328L58.6431 108.891ZM63.0079 109.137H63.7471V107.131C63.9449 107.162 64.1453 107.174 64.3455 107.166C64.9716 107.208 65.5897 107.006 66.0703 106.603C66.2145 106.469 66.3273 106.305 66.4003 106.123C66.4734 105.94 66.5049 105.743 66.4927 105.547C66.5007 105.344 66.4602 105.143 66.3744 104.959C66.2887 104.775 66.1603 104.615 65.9999 104.491C65.6831 104.209 65.1551 104.069 64.4159 104.069C63.9559 104.058 63.4961 104.094 63.0431 104.174V109.137H63.0079ZM63.7471 104.667C63.9682 104.632 64.1923 104.62 64.4159 104.632C65.2255 104.632 65.7535 104.949 65.7535 105.617C65.7535 106.286 65.2255 106.673 64.3455 106.673C64.1453 106.683 63.9447 106.671 63.7471 106.638V104.667ZM70.3295 106.251H68.1471V104.667H70.4351V104.139H67.4079V109.137H70.5407V108.609H68.1119V106.814H70.2943V106.251H70.3295ZM75.2927 108.469C74.913 108.622 74.5052 108.694 74.0959 108.68C72.7231 108.68 71.9487 107.905 71.9487 106.673C71.9487 105.371 72.8287 104.632 74.1311 104.632C74.5162 104.634 74.8977 104.706 75.2575 104.843L75.4335 104.315C75.009 104.146 74.5519 104.073 74.0959 104.104C72.3711 104.104 71.1743 105.16 71.1743 106.709C71.1743 108.328 72.3711 109.243 73.9551 109.243C74.4597 109.265 74.9633 109.181 75.4335 108.997L75.2927 108.469ZM76.3487 109.137H77.0879V104.139H76.3487V109.137ZM81.2063 107.553L81.8047 109.137H82.5791L80.6783 104.139H79.7983L77.8975 109.137H78.6367L79.2351 107.553H81.2063ZM79.3759 107.061L79.9391 105.617C80.0489 105.317 80.1429 105.012 80.2207 104.702C80.2911 104.984 80.3967 105.301 80.5023 105.617L81.0655 107.061H79.3759ZM83.4239 109.137H86.5567V108.609H84.1279V104.192H83.4239V109.137ZM87.3311 109.137H88.0703V104.139H87.3311V109.137ZM89.0207 108.891C89.4696 109.11 89.9644 109.219 90.4639 109.208C91.8015 109.208 92.4351 108.539 92.4351 107.765C92.4351 106.99 91.9423 106.638 90.9919 106.286C90.2175 106.005 89.8655 105.793 89.8655 105.336C89.8655 104.984 90.1471 104.597 90.9215 104.597C91.2885 104.589 91.6517 104.674 91.9775 104.843L92.1887 104.315C91.8044 104.133 91.3813 104.049 90.9567 104.069C89.8655 104.069 89.1615 104.632 89.1615 105.406C89.1615 106.11 89.7247 106.533 90.6399 106.814C91.3791 107.061 91.6959 107.342 91.6959 107.8C91.6959 108.257 91.2735 108.645 90.5343 108.645C90.0811 108.644 89.6345 108.536 89.2319 108.328L89.0207 108.891ZM94.4767 109.137H95.2159V104.702H96.9407V104.139H92.7871V104.702H94.4767V109.137ZM99.2991 104.139V109.137H100.038V106.814H102.749V109.137H103.488V104.139H102.749V106.216H100.038V104.139H99.2991ZM106.973 104.069C106.626 104.053 106.281 104.11 105.958 104.235C105.635 104.361 105.341 104.552 105.096 104.797C104.851 105.042 104.66 105.335 104.535 105.659C104.409 105.982 104.352 106.327 104.368 106.673C104.348 107.011 104.401 107.349 104.521 107.666C104.642 107.982 104.828 108.269 105.067 108.509C105.306 108.748 105.594 108.934 105.91 109.054C106.226 109.175 106.564 109.227 106.902 109.208C108.345 109.208 109.507 108.293 109.507 106.568C109.522 106.232 109.467 105.898 109.345 105.585C109.222 105.273 109.036 104.989 108.797 104.754C108.558 104.518 108.272 104.335 107.957 104.217C107.643 104.099 107.308 104.048 106.973 104.069ZM106.937 104.597C108.134 104.597 108.733 105.617 108.733 106.638C108.733 107.765 108.099 108.715 106.937 108.715C105.776 108.715 105.142 107.765 105.142 106.709C105.142 105.582 105.741 104.597 106.937 104.597ZM110.176 108.891C110.625 109.11 111.12 109.219 111.619 109.208C112.957 109.208 113.59 108.539 113.59 107.765C113.59 106.99 113.097 106.638 112.147 106.286C111.373 106.005 111.021 105.793 111.021 105.336C111.021 104.984 111.302 104.597 112.077 104.597C112.444 104.589 112.807 104.674 113.133 104.843L113.344 104.315C112.96 104.133 112.537 104.049 112.112 104.069C111.021 104.069 110.317 104.632 110.317 105.406C110.317 106.11 110.88 106.533 111.795 106.814C112.534 107.061 112.851 107.342 112.851 107.8C112.851 108.257 112.429 108.645 111.689 108.645C111.236 108.644 110.79 108.536 110.387 108.328L110.176 108.891ZM114.541 109.137H115.28V107.131C115.478 107.162 115.678 107.174 115.878 107.166C116.504 107.208 117.122 107.006 117.603 106.603C117.747 106.469 117.86 106.305 117.933 106.123C118.006 105.94 118.038 105.743 118.025 105.547C118.034 105.344 117.993 105.143 117.907 104.959C117.822 104.775 117.693 104.615 117.533 104.491C117.216 104.209 116.688 104.069 115.949 104.069C115.489 104.057 115.029 104.092 114.576 104.174V109.137H114.541ZM115.245 104.667C115.466 104.632 115.69 104.62 115.913 104.632C116.723 104.632 117.251 104.949 117.251 105.617C117.251 106.286 116.723 106.673 115.843 106.673C115.643 106.683 115.442 106.671 115.245 106.638V104.667ZM50.5823 99.211V100.056C49.5615 100.056 49.2799 99.915 48.8927 99.4222C48.6463 100.549 47.5199 101.288 46.1823 101.288C44.5983 101.288 43.3311 100.197 43.3311 98.7534V97.9438H44.2463V98.683C44.2463 99.8094 44.9855 100.549 46.1823 100.549C47.2383 100.549 48.0479 99.915 48.0479 99.1758C48.0505 99.0672 48.03 98.9594 47.9875 98.8594C47.945 98.7595 47.8816 98.6699 47.8015 98.5965C47.7215 98.5231 47.6267 98.4677 47.5234 98.4341C47.4202 98.4004 47.311 98.3893 47.2031 98.4014H47.0623V97.6622H47.4143C47.7397 97.6407 48.0646 97.712 48.3512 97.8678C48.6378 98.0236 48.8744 98.2574 49.0335 98.5422C49.3855 99.1054 49.7023 99.3166 50.1599 99.3166H50.5823V99.211ZM47.4143 102.907H46.4991V102.097H47.4143V102.907ZM45.8655 102.907H44.9503V102.097H45.8655V102.907ZM58.2911 100.056H50.1247V99.211H51.0399C51.4975 99.211 51.7439 98.9294 51.7439 98.331V97.0638H52.6591V98.0846C53.3983 97.2046 54.3135 96.7118 55.1935 96.7118C56.6015 96.7118 57.3055 97.5566 57.3055 99.211H58.2911V100.056ZM56.3551 99.211V98.9646C56.3551 98.0142 55.8623 97.4158 55.0879 97.4158C54.1727 97.4158 53.1871 98.1902 52.6591 99.1758H56.3551V99.211ZM66.0351 100.056H57.8687V99.211H58.7839C59.2415 99.211 59.4879 98.9294 59.4879 98.331V97.0638H60.4031V98.0846C61.1423 97.2046 62.0575 96.7118 62.9375 96.7118C64.3455 96.7118 65.0495 97.5566 65.0495 99.211H66.0351V100.056ZM64.0991 99.211V98.9646C64.0991 98.0142 63.6063 97.4158 62.8319 97.4158C61.9167 97.4158 60.9311 98.1902 60.4031 99.1758H64.0991V99.211ZM72.4415 100.056H65.8239V99.211H70.5759C70.5872 98.7843 70.4362 98.3691 70.1535 98.0494C69.9747 97.8577 69.7558 97.7078 69.5124 97.6104C69.269 97.5131 69.0071 97.4707 68.7455 97.4862C68.504 97.4883 68.2652 97.5361 68.0415 97.627C67.7646 97.7238 67.5123 97.8799 67.3023 98.0846C67.1967 97.9438 67.0559 97.7326 66.8447 97.451C67.1064 97.227 67.4038 97.0485 67.7247 96.923C68.0721 96.7853 68.4422 96.7137 68.8159 96.7118C69.3421 96.6986 69.863 96.8197 70.3295 97.0638C70.7045 97.2828 71.0157 97.5963 71.2318 97.973C71.448 98.3498 71.5617 98.7766 71.5615 99.211H72.4415V100.056ZM69.2735 96.043H68.3583V95.2334H69.2735V96.043ZM73.0751 96.043H72.1599V95.2334H73.0751V96.043ZM74.6239 96.043H73.7087V95.2334H74.6239V96.043ZM75.9967 100.056H72.1951V99.211H73.0399C73.1474 99.2267 73.2572 99.212 73.3567 99.1684C73.4563 99.1248 73.5416 99.0542 73.6031 98.9646C73.6858 98.7889 73.7221 98.595 73.7087 98.4014V96.7118H74.6239V98.3662C74.6596 98.6642 74.5845 98.9649 74.4127 99.211H75.9967V100.056ZM78.1087 98.7182C78.1087 99.5982 77.6511 100.056 76.7359 100.056H75.7503V99.211H76.5247C76.8415 99.211 77.0175 99.1406 77.1231 98.9646C77.1769 98.794 77.2007 98.6153 77.1935 98.4366V95.3038H78.1087V98.7182ZM79.8687 100.056H78.9535V95.3038H79.8687V100.056ZM87.6127 100.056H86.6271C86.2938 100.067 85.9666 99.965 85.6983 99.767C85.43 99.569 85.2364 99.2863 85.1487 98.9646C85.0285 99.134 84.8705 99.2731 84.6872 99.3709C84.5039 99.4686 84.3003 99.5223 84.0927 99.5278C83.8641 99.5416 83.6353 99.5062 83.4216 99.424C83.208 99.3417 83.0145 99.2145 82.8543 99.0509C82.6941 98.8874 82.5709 98.6913 82.493 98.476C82.4152 98.2607 82.3845 98.0312 82.4031 97.803C82.4031 96.7118 83.0719 96.0078 84.0927 96.0078H86.1343V98.331C86.1225 98.4525 86.1384 98.5752 86.1808 98.6897C86.2232 98.8043 86.2909 98.9077 86.379 98.9924C86.467 99.077 86.573 99.1407 86.6892 99.1785C86.8053 99.2164 86.9285 99.2275 87.0495 99.211H87.6479V100.056H87.6127ZM85.1487 97.7326V96.6766H84.3039C84.1581 96.673 84.0133 96.7003 83.8789 96.7566C83.7444 96.8129 83.6234 96.897 83.5237 97.0034C83.424 97.1097 83.3479 97.2359 83.3003 97.3737C83.2528 97.5115 83.2349 97.6578 83.2479 97.803C83.2358 97.933 83.2502 98.064 83.2901 98.1883C83.3301 98.3126 83.3947 98.4275 83.4802 98.5262C83.5657 98.6248 83.6703 98.7052 83.7876 98.7624C83.905 98.8195 84.0327 98.8524 84.1631 98.859C84.3018 98.85 84.4375 98.8138 84.5622 98.7523C84.6869 98.6907 84.7983 98.6052 84.8899 98.5005C84.9815 98.3959 85.0515 98.2742 85.0959 98.1424C85.1403 98.0106 85.1582 97.8713 85.1487 97.7326ZM84.4799 95.4094H83.5647V94.5998H84.4799V95.4094ZM86.0287 95.4094H85.1135V94.5998H86.0287V95.4094ZM89.7951 98.7182C89.7951 99.5982 89.3375 100.056 88.4223 100.056H87.4367V99.211H88.2111C88.5279 99.211 88.7039 99.1406 88.8095 98.9646C88.8633 98.794 88.8871 98.6153 88.8799 98.4366V96.7118H89.7951V98.7182ZM88.2111 101.675H87.2959V100.865H88.2111V101.675ZM89.7599 101.675H88.8447V100.865H89.7599V101.675ZM91.5551 100.056H90.6399V95.3038H91.5551V100.056ZM91.9071 94.7054C91.7663 94.9166 91.6255 95.0222 91.4495 95.0222C91.3005 94.9855 91.158 94.9262 91.0271 94.8462C90.8885 94.7316 90.7141 94.6693 90.5343 94.6702C90.4626 94.6732 90.3929 94.6941 90.3314 94.731C90.2699 94.7679 90.2186 94.8196 90.1823 94.8814L90.1119 94.635C90.2527 94.4238 90.3935 94.3182 90.5343 94.3182C90.6967 94.3467 90.8522 94.4064 90.9919 94.4942C91.1141 94.5901 91.2601 94.651 91.4143 94.6702C91.49 94.6641 91.5636 94.6421 91.6303 94.6057C91.697 94.5694 91.7553 94.5194 91.8015 94.459L91.9071 94.7054ZM101.27 99.211V100.056C100.249 100.056 99.9679 99.915 99.5807 99.4222C99.3343 100.549 98.2079 101.288 96.8703 101.288C95.2863 101.288 94.0191 100.197 94.0191 98.7534V97.9438H94.9343V98.683C94.9343 99.8094 95.6735 100.549 96.8703 100.549C97.9263 100.549 98.7359 99.915 98.7359 99.1758C98.7385 99.0672 98.718 98.9594 98.6755 98.8594C98.633 98.7595 98.5696 98.6699 98.4895 98.5965C98.4095 98.5231 98.3147 98.4677 98.2114 98.4341C98.1082 98.4004 97.999 98.3893 97.8911 98.4014H97.7503V97.6622H98.1023C98.4277 97.6407 98.7526 97.712 99.0392 97.8678C99.3258 98.0236 99.5624 98.2574 99.7215 98.5422C100.073 99.1054 100.39 99.3166 100.848 99.3166H101.27V99.211ZM104.297 95.4798H103.382V94.6878H104.297V95.4798ZM106.621 100.056H105.705C105.072 100.085 104.442 99.9513 103.875 99.6686C103.314 99.9677 102.679 100.102 102.045 100.056H101.024V99.211H101.974C102.234 99.2225 102.495 99.1988 102.749 99.1406C102.497 98.9709 102.291 98.741 102.15 98.4718C102.022 98.2346 101.961 97.9667 101.974 97.6974C101.972 97.5272 102.008 97.3587 102.08 97.2046C102.238 96.8558 102.497 96.5623 102.823 96.3616C103.149 96.1609 103.528 96.0622 103.91 96.0782C104.825 96.0782 105.846 96.6414 105.846 97.6974C105.847 97.9699 105.774 98.2375 105.635 98.4718C105.495 98.7512 105.29 98.9927 105.037 99.1758C105.29 99.234 105.551 99.2577 105.811 99.2462H106.656V100.056H106.621ZM104.368 98.5774C104.532 98.48 104.668 98.3407 104.761 98.1737C104.853 98.0067 104.9 97.818 104.896 97.627C104.901 97.5101 104.881 97.3934 104.839 97.2844C104.796 97.1754 104.732 97.0763 104.649 96.9934C104.438 96.8022 104.16 96.7012 103.875 96.7118C103.734 96.7044 103.592 96.7256 103.459 96.7739C103.326 96.8223 103.204 96.8969 103.101 96.9934C103.018 97.0763 102.954 97.1754 102.911 97.2844C102.869 97.3934 102.849 97.5101 102.854 97.627C102.854 97.8173 102.902 98.0045 102.995 98.1708C103.087 98.3372 103.221 98.4771 103.382 98.5774C103.55 98.6858 103.727 98.78 103.91 98.859C104.086 98.7534 104.227 98.6478 104.368 98.5774ZM106.304 100.056V99.211H107.149C107.606 99.211 107.853 98.9294 107.853 98.331V96.7118H108.768V98.2958C108.8 98.585 108.751 98.8774 108.627 99.1406V99.1758H109.472C109.929 99.1758 110.176 98.8942 110.176 98.3662V96.6766H111.091V98.2606C111.13 98.5653 111.068 98.8743 110.915 99.1406H111.83C112.288 99.1406 112.534 98.859 112.534 98.331V96.6414H113.449V98.2254C113.455 98.5431 113.382 98.8573 113.238 99.1406H114.646V99.9854H106.304V100.056ZM110.176 94.0718H111.091V94.8814H110.176V94.0718ZM110.95 95.2334H111.865V96.043H110.95V95.2334ZM109.401 95.2334H110.317V96.043H109.401V95.2334ZM115.245 96.043H114.329V95.2334H115.245V96.043ZM116.793 96.043H115.878V95.2334H116.793V96.043ZM118.201 100.056H114.4V99.211H115.245C115.352 99.2267 115.462 99.212 115.562 99.1684C115.661 99.1248 115.746 99.0542 115.808 98.9646C115.891 98.7889 115.927 98.595 115.913 98.4014V96.7118H116.829V98.3662C116.864 98.6642 116.789 98.9649 116.617 99.211H118.201V100.056ZM117.885 100.056V99.211H118.729C119.187 99.211 119.433 98.9294 119.433 98.331V96.7118H120.349V98.2958C120.381 98.585 120.332 98.8774 120.208 99.1406V99.1758H121.053C121.51 99.1758 121.757 98.8942 121.757 98.3662V96.6766H122.672V98.2606C122.711 98.5653 122.649 98.8743 122.496 99.1406H123.411C123.869 99.1406 124.115 98.859 124.115 98.331V96.6414H125.03V98.2254C125.035 98.5431 124.963 98.8573 124.819 99.1406H126.227V99.9854H117.885V100.056ZM130.803 98.9998C130.803 99.9854 130.064 100.689 128.973 100.689C128.691 100.705 128.409 100.652 128.152 100.536C127.894 100.419 127.669 100.242 127.494 100.021H126.016V99.1758H127.142V98.9294C127.142 97.9438 127.917 97.2398 129.008 97.2398C129.476 97.2459 129.924 97.4322 130.258 97.76C130.593 98.0878 130.788 98.5318 130.803 98.9998ZM129.853 98.9998C129.861 98.8742 129.843 98.7482 129.801 98.6296C129.759 98.511 129.693 98.4022 129.607 98.31C129.522 98.2177 129.418 98.1439 129.303 98.093C129.188 98.0422 129.063 98.0154 128.937 98.0142C128.815 98.0122 128.694 98.0359 128.582 98.0839C128.469 98.1319 128.368 98.2031 128.285 98.2928C128.202 98.3825 128.139 98.4887 128.1 98.6044C128.06 98.7202 128.046 98.8429 128.057 98.9646C128.05 99.0929 128.069 99.2214 128.114 99.342C128.159 99.4625 128.228 99.5725 128.317 99.6651C128.407 99.7576 128.514 99.8307 128.633 99.8798C128.752 99.9288 128.879 99.9528 129.008 99.9502C129.127 99.9484 129.245 99.9217 129.354 99.8719C129.463 99.8221 129.56 99.7502 129.639 99.6608C129.719 99.5714 129.779 99.4665 129.815 99.3527C129.852 99.2389 129.865 99.1187 129.853 98.9998ZM118.941 109.137H119.68V104.139H118.941V109.137ZM122.003 109.137H122.742V104.702H124.467V104.139H120.313V104.702H122.003V109.137ZM127.353 107.553L127.952 109.137H128.726L126.825 104.139H125.945L124.045 109.137H124.784L125.382 107.553H127.353ZM125.488 107.061L126.051 105.617C126.161 105.317 126.255 105.012 126.333 104.702C126.403 104.984 126.509 105.301 126.614 105.617L127.177 107.061H125.488ZM129.536 109.137H132.669V108.609H130.24V104.192H129.536V109.137Z" fill="#A1A1A1"/>
</svg>
