<svg width="176" height="176" viewBox="0 0 176 176" fill="none" xmlns="http://www.w3.org/2000/svg">
<path d="M107.906 72.7057C107.95 77.5642 106.266 82.2804 103.154 86.0113C98.8944 91.2913 94.248 96.2545 89.8128 101.358C88.9328 102.344 88.3696 102.344 87.4896 101.358C82.5264 95.9377 77.3168 90.7633 72.6 85.2017C67.7424 79.4993 66.8624 72.7057 69.4672 65.7713C72.2128 58.4849 77.7744 54.1905 85.5184 53.0289C97.5216 51.3041 107.941 60.5441 107.906 72.7057ZM92.4176 93.3681C95.5504 89.5313 98.8944 86.1521 101.394 82.2449C106.462 74.3249 104.667 64.8209 97.592 59.6113C91.1152 54.8593 81.9985 55.7041 76.3312 61.5825C70.7696 67.3905 70.2416 76.8241 75.3808 82.9137C79.2176 87.4545 83.336 91.7137 87.3488 96.0785C87.6188 96.3103 87.914 96.511 88.2288 96.6769C89.0736 95.4801 88.7921 94.6001 87.9473 93.6849C84.92 90.4113 81.9632 87.1025 78.936 83.8289C78.408 83.2657 78.0209 82.8081 78.7952 82.1393C81.5056 79.7105 84.568 78.1265 88.3344 78.5489C89.3904 78.6545 89.6369 78.2673 89.6017 77.3169C89.5665 76.3665 89.496 75.3457 89.848 74.5361C91.4672 70.9809 93.2273 67.4609 95.0225 63.7297C95.6209 65.6305 95.9729 67.1441 96.5713 68.5873C97.2049 70.1009 97.0289 71.2273 95.7265 72.4945C95.3393 72.2481 94.9168 72.0017 94.5296 71.7553C92.3824 75.1345 92.5584 79.0065 94.9168 81.9281C95.656 82.8433 96.4305 83.7585 97.0993 84.7441C97.3105 85.0609 97.4513 85.7649 97.24 86.0465C96.6896 86.7677 96.0898 87.4499 95.4448 88.0881C94.2128 86.6801 93.2976 85.2721 92.0656 84.2513C90.844 83.2769 89.4455 82.5478 87.9473 82.1041C86.3633 81.6465 84.7792 82.2449 83.16 83.2657C86.2576 86.5921 89.1792 89.7777 92.4176 93.3681Z" fill="#A1A1A1"/>
<path d="M78.5486 69.5023C76.7886 71.2975 76.5774 73.3391 77.1758 75.3807C77.6103 76.6369 78.266 77.8051 79.1118 78.8303C80.0622 80.0623 79.0767 80.4495 78.4431 81.0831C77.8095 81.7167 77.2463 81.8223 76.5071 80.9775C72.4591 76.2607 72.5294 70.6287 76.7886 66.1583C77.2784 65.5977 77.7034 64.9837 78.0558 64.3279C79.4328 61.8234 81.7104 59.9359 84.4271 59.0479C85.3071 58.7311 85.8702 58.9071 86.5038 59.6463C90.9038 64.8911 90.4463 70.8047 85.3071 75.2399C84.4975 75.9439 84.0047 75.8735 83.3711 75.0991C81.8223 73.2687 80.203 71.4559 78.5486 69.5023ZM84.4622 71.1919C85.0946 70.5462 85.5647 69.7595 85.834 68.8967C86.1032 68.0339 86.1639 67.1196 86.0111 66.2287C85.8703 65.1375 85.1662 64.1167 84.7086 63.0607C83.6878 63.7647 82.5614 64.3279 81.7166 65.2079C81.259 65.6655 80.9422 66.8623 81.2238 67.3199C82.1038 68.6927 83.3006 69.8543 84.4798 71.1919H84.4622Z" fill="#A1A1A1"/>
<path d="M102.52 69.573C101.957 68.5522 101.464 67.461 100.865 66.4754C98.3311 62.2866 94.4591 60.6322 89.7071 60.9138C88.1583 61.0194 87.4895 60.3154 86.9263 59.0834C94.0015 57.4642 101.323 61.4066 102.52 69.573Z" fill="#A1A1A1"/>
<path d="M98.5072 71.6494C99.352 73.0926 100.162 74.395 100.901 75.6974C101.886 77.387 101.499 79.1822 99.88 79.6046C99.0704 79.8158 97.768 79.7102 97.3104 79.1822C96.6768 78.4782 96.2544 77.1758 96.4656 76.2958C96.888 74.6766 97.8032 73.2158 98.5072 71.6494Z" fill="#A1A1A1"/>
<path d="M51.304 120.754V109.701C51.3025 109.475 51.3843 109.257 51.5337 109.088C51.6831 108.919 51.8896 108.812 52.1136 108.786H52.2544C52.441 108.798 52.6207 108.861 52.7753 108.966C52.9299 109.071 53.0539 109.215 53.1344 109.384C54.12 111.461 55.1056 113.573 56.1264 115.65C57.112 113.502 58.0976 111.39 59.048 109.243C59.1268 109.091 59.2495 108.966 59.4001 108.885C59.5507 108.803 59.7224 108.768 59.8928 108.786H60.0336C60.2176 108.824 60.382 108.927 60.4979 109.075C60.6138 109.223 60.6738 109.407 60.6672 109.595V120.859C60.673 121.023 60.6333 121.186 60.5525 121.328C60.4717 121.471 60.3531 121.589 60.2096 121.669C60.1064 121.74 59.9832 121.777 59.8576 121.774C59.6988 121.777 59.5417 121.741 59.4 121.669C59.2596 121.586 59.1434 121.467 59.0631 121.325C58.9828 121.183 58.9412 121.022 58.9424 120.859V113.784C58.344 115.051 57.7456 116.318 57.112 117.586C57.0641 117.79 56.9536 117.975 56.7958 118.113C56.6381 118.252 56.441 118.338 56.232 118.36C55.9732 118.382 55.7153 118.308 55.5075 118.153C55.2997 117.997 55.1566 117.77 55.1056 117.515C54.5424 116.318 53.9792 115.086 53.416 113.89C53.416 116.178 53.3808 118.466 53.3808 120.754C53.3847 120.913 53.348 121.071 53.2741 121.213C53.2002 121.354 53.0916 121.475 52.9584 121.563C52.8714 121.636 52.7698 121.689 52.6606 121.719C52.5513 121.75 52.4369 121.756 52.3248 121.739H52.184C51.9395 121.718 51.7123 121.604 51.5487 121.421C51.3852 121.238 51.2977 120.999 51.304 120.754Z" fill="#A1A1A1"/>
<path d="M62.8848 109.525V120.965C62.9247 121.202 63.0473 121.417 63.231 121.573C63.4146 121.728 63.6474 121.813 63.888 121.813C64.1285 121.813 64.3613 121.728 64.545 121.573C64.7286 121.417 64.8513 121.202 64.8912 120.965V109.525C64.8217 109.313 64.6874 109.129 64.5072 108.999C64.3271 108.869 64.1104 108.798 63.888 108.798C63.6656 108.798 63.4489 108.869 63.2687 108.999C63.0886 109.129 62.9542 109.313 62.8848 109.525Z" fill="#A1A1A1"/>
<path d="M67.2498 109.12C67.115 109.263 67.0395 109.452 67.0386 109.648V120.842C67.0585 120.949 67.0999 121.051 67.1604 121.142C67.2209 121.232 67.2992 121.31 67.3906 121.37C67.5555 121.482 67.7553 121.532 67.9538 121.51H72.917C73.0916 121.516 73.2626 121.459 73.3984 121.349C73.5342 121.239 73.6257 121.084 73.6562 120.912V120.806C73.6514 120.628 73.5897 120.455 73.4802 120.314C73.411 120.233 73.3244 120.168 73.2269 120.126C73.1293 120.083 73.0234 120.063 72.917 120.067H69.749C69.5442 120.065 69.3483 119.983 69.2034 119.838C69.0586 119.694 68.9764 119.498 68.9746 119.293V109.648C68.9788 109.542 68.9588 109.436 68.9161 109.338C68.8734 109.241 68.8092 109.154 68.7282 109.085C68.5234 108.906 68.2611 108.806 67.989 108.803C67.7104 108.807 67.4447 108.921 67.2498 109.12Z" fill="#A1A1A1"/>
<path d="M74.6769 109.419V118.36C74.6456 119.225 74.9481 120.07 75.5217 120.718C75.7754 120.972 76.0778 121.171 76.4105 121.304C76.7432 121.437 77.0995 121.501 77.4577 121.493H80.4849C80.6654 121.49 80.8405 121.431 80.9856 121.323C81.1308 121.216 81.2388 121.066 81.2945 120.894C81.326 120.816 81.3381 120.732 81.3297 120.648C81.3141 120.459 81.2366 120.281 81.1093 120.141C80.982 120.001 80.812 119.907 80.6257 119.874H77.8097C77.5382 119.787 77.295 119.629 77.1057 119.416C76.9045 119.155 76.8045 118.83 76.8241 118.501V115.474H80.3793C80.569 115.469 80.7529 115.408 80.9073 115.298C81.0551 115.166 81.1588 114.991 81.2044 114.799C81.25 114.606 81.2354 114.404 81.1625 114.219C81.0896 114.035 80.9619 113.878 80.7966 113.768C80.6314 113.659 80.4366 113.603 80.2385 113.608H76.8593V110.722H80.6081C80.7447 110.725 80.8793 110.688 80.9953 110.616C81.1402 110.535 81.2617 110.418 81.348 110.276C81.4344 110.134 81.4826 109.972 81.4881 109.806C81.4871 109.574 81.406 109.349 81.2585 109.17C81.1111 108.99 80.9062 108.867 80.6785 108.821H75.1873C75.1103 108.821 75.0345 108.84 74.9669 108.877C74.8992 108.914 74.8419 108.967 74.8001 109.032C74.7542 109.085 74.7195 109.146 74.6983 109.213C74.6772 109.279 74.6699 109.35 74.6769 109.419Z" fill="#A1A1A1"/>
<path d="M89.4078 112.64C89.6047 112.601 89.7848 112.503 89.9234 112.358C90.0621 112.213 90.1525 112.029 90.1822 111.83C90.2056 111.677 90.1936 111.521 90.147 111.373C89.886 110.704 89.4518 110.117 88.8888 109.671C88.3259 109.226 87.6546 108.939 86.9438 108.838C86.461 108.787 85.9726 108.838 85.5113 108.99C85.0501 109.142 84.6264 109.39 84.2686 109.718C83.5763 110.409 83.1843 111.345 83.1774 112.323C83.1774 112.605 83.1422 114.189 84.163 115.174C84.8195 115.766 85.6728 116.092 86.5566 116.09C87.1074 116.071 87.6431 116.272 88.0457 116.648C88.4484 117.024 88.6851 117.545 88.7038 118.096C88.7225 118.647 88.5216 119.182 88.1453 119.585C87.769 119.988 87.2482 120.224 86.6974 120.243C86.5566 120.243 85.8174 120.314 85.4302 119.856C85.043 119.398 85.395 118.906 84.9374 118.342C84.7387 118.089 84.4476 117.924 84.1278 117.885C83.9951 117.898 83.8668 117.939 83.7514 118.006C83.636 118.073 83.5363 118.163 83.459 118.272C83.0014 118.941 83.459 120.384 84.3742 121.123C85.05 121.601 85.8726 121.825 86.6974 121.757C87.2222 121.763 87.7422 121.656 88.2221 121.444C88.7019 121.231 89.1304 120.918 89.4782 120.525C89.9518 119.906 90.2223 119.156 90.2526 118.378C90.2526 118.272 90.3582 115.949 88.8798 114.928C87.6478 114.083 86.5566 114.998 85.6414 114.118C85.2856 113.742 85.0622 113.26 85.005 112.746C84.9478 112.231 85.06 111.712 85.3246 111.267C85.3598 111.232 85.923 110.422 86.803 110.458C87.2409 110.502 87.6526 110.687 87.9763 110.986C88.3 111.284 88.5182 111.679 88.5982 112.112C88.6394 112.26 88.7202 112.394 88.8319 112.499C88.9435 112.605 89.0818 112.678 89.2318 112.71C89.2494 112.64 89.3198 112.64 89.4078 112.64Z" fill="#A1A1A1"/>
<path d="M121.088 111.073C120.993 111.079 120.897 111.067 120.806 111.038H120.525C119.52 111.094 118.576 111.535 117.887 112.269C117.199 113.003 116.82 113.974 116.829 114.981V115.966C116.801 116.609 116.523 117.215 116.054 117.656C115.851 117.843 115.611 117.987 115.35 118.078C115.174 118.149 114.189 118.536 113.379 118.008C113.344 117.973 113.274 117.937 113.238 117.902C113.046 117.738 112.892 117.532 112.789 117.301C112.685 117.069 112.635 116.818 112.64 116.565V109.173C112.612 108.915 112.487 108.678 112.292 108.508C112.096 108.338 111.843 108.249 111.584 108.257C111.375 108.279 111.178 108.365 111.02 108.504C110.863 108.643 110.752 108.827 110.704 109.032C110.704 111.637 110.669 114.241 110.669 116.846C110.661 117.293 110.763 117.736 110.965 118.135C111.168 118.534 111.465 118.877 111.83 119.134H111.866C111.936 119.169 111.971 119.205 112.042 119.24C112.553 119.539 113.139 119.686 113.731 119.662H115.069C115.492 119.669 115.913 119.585 116.301 119.416C116.537 119.333 116.753 119.201 116.934 119.029C117.251 118.782 117.427 118.536 117.709 118.571C117.99 118.606 118.096 118.923 118.413 119.205C118.599 119.37 118.816 119.496 119.052 119.575C119.288 119.654 119.538 119.683 119.786 119.662H121.581C122.391 119.678 123.175 119.375 123.763 118.817L123.939 118.641C123.974 118.606 124.01 118.536 124.08 118.501C124.498 117.929 124.72 117.237 124.714 116.529V115.121C124.712 114.119 124.342 113.152 123.673 112.406C123.004 111.659 122.084 111.185 121.088 111.073ZM120.736 118.712C119.539 118.712 118.554 117.304 118.554 115.579C118.554 113.854 119.539 112.446 120.736 112.446C121.933 112.446 122.918 113.854 122.918 115.579C122.918 117.304 121.915 118.712 120.736 118.712Z" fill="#A1A1A1"/>
<path d="M106.709 112.446C106.728 112.207 106.836 111.984 107.012 111.821C107.188 111.658 107.419 111.567 107.659 111.566C107.885 111.565 108.103 111.647 108.272 111.796C108.44 111.945 108.548 112.152 108.574 112.376V116.635C108.592 117.412 108.316 118.166 107.8 118.747C107.765 118.817 107.694 118.853 107.659 118.888L107.483 119.064C106.874 119.55 106.115 119.811 105.336 119.803H103.857C103.268 119.805 102.687 119.66 102.168 119.381C101.992 119.275 101.816 119.169 101.675 119.064C101.584 118.995 101.472 118.958 101.358 118.958C101.244 118.958 101.133 118.995 101.041 119.064C100.865 119.169 100.689 119.31 100.478 119.416C100.356 119.489 100.226 119.548 100.091 119.592C99.8189 119.732 99.5171 119.804 99.211 119.803H97.099C96.9582 119.803 96.8174 119.768 96.6414 119.768C96.5128 119.728 96.3736 119.741 96.2542 119.803C96.1268 119.869 96.0178 119.966 95.9374 120.085C95.9091 120.498 95.7979 120.9 95.6104 121.269C95.4229 121.638 95.163 121.966 94.8462 122.232C94.3179 122.659 93.6602 122.895 92.9806 122.901C92.7721 122.909 92.5654 122.86 92.3822 122.76C92.2971 122.705 92.2248 122.633 92.1701 122.548C92.1155 122.463 92.0798 122.367 92.0654 122.267C92.0654 121.95 92.4174 121.704 92.4878 121.633C92.8046 121.422 93.051 121.493 93.4734 121.317C93.6624 121.23 93.8225 121.092 93.9348 120.917C94.0472 120.742 94.1069 120.539 94.107 120.331V112.341C94.1422 112.136 94.2442 111.949 94.3971 111.809C94.55 111.669 94.7451 111.584 94.9518 111.566C95.1349 111.532 95.3239 111.57 95.4798 111.672C95.6354 111.762 95.7655 111.889 95.8579 112.043C95.9503 112.197 96.0019 112.372 96.0078 112.552V117.022C96.0066 117.244 96.069 117.461 96.1875 117.648C96.3061 117.835 96.4758 117.985 96.6766 118.078C97.1994 118.341 97.782 118.462 98.3662 118.43C98.9217 118.402 99.4582 118.219 99.915 117.902C100.058 117.804 100.174 117.673 100.254 117.519C100.333 117.366 100.374 117.195 100.373 117.022V109.313C100.373 109.061 100.466 108.817 100.635 108.628C100.804 108.44 101.036 108.32 101.288 108.293C101.546 108.281 101.799 108.363 102.001 108.526C102.202 108.688 102.336 108.918 102.379 109.173V116.952C102.375 117.091 102.401 117.229 102.456 117.356C102.511 117.484 102.593 117.598 102.696 117.691C103.208 118.159 103.868 118.433 104.561 118.465C105.157 118.481 105.74 118.295 106.216 117.937C106.352 117.841 106.464 117.715 106.543 117.568C106.622 117.422 106.667 117.259 106.673 117.093C106.673 115.544 106.709 113.995 106.709 112.446Z" fill="#A1A1A1"/>
<path d="M107.378 123.182C107.883 123.182 108.293 122.773 108.293 122.267C108.293 121.762 107.883 121.352 107.378 121.352C106.872 121.352 106.462 121.762 106.462 122.267C106.462 122.773 106.872 123.182 107.378 123.182Z" fill="#A1A1A1"/>
<path d="M104.527 123.182C105.032 123.182 105.442 122.773 105.442 122.267C105.442 121.762 105.032 121.352 104.527 121.352C104.021 121.352 103.611 121.762 103.611 122.267C103.611 122.773 104.021 123.182 104.527 123.182Z" fill="#A1A1A1"/>
<path d="M95.0578 110.159C95.5632 110.159 95.973 109.749 95.973 109.243C95.973 108.738 95.5632 108.328 95.0578 108.328C94.5523 108.328 94.1426 108.738 94.1426 109.243C94.1426 109.749 94.5523 110.159 95.0578 110.159Z" fill="#A1A1A1"/>
</svg>
