<svg width="120" height="120" viewBox="0 0 120 120" fill="none" xmlns="http://www.w3.org/2000/svg">
<path d="M59.9764 35.2334C60.4468 35.1393 60.8701 35.4215 60.9642 35.8919C60.9642 35.986 60.9642 36.0801 60.9642 36.1742C60.9172 36.6446 60.4938 37.0209 60.0234 36.9739C59.553 36.9268 59.1767 36.5034 59.2237 36.033C59.2237 35.8919 59.2707 35.7038 59.3648 35.6097C59.5059 35.3745 59.7411 35.2804 59.9764 35.2334Z" fill="#A1A1A1"/>
<path d="M67.7854 36.5972C68.2558 36.5502 68.6792 36.9265 68.7262 37.3969C68.7262 37.538 68.7262 37.6321 68.6792 37.7732C68.491 38.4318 67.5031 38.5259 67.1268 37.9614C66.8446 37.538 66.9857 36.9736 67.4091 36.6913C67.5031 36.6913 67.6443 36.6443 67.7854 36.5972Z" fill="#A1A1A1"/>
<path d="M51.4619 36.6914C51.9323 36.5033 52.4027 36.7385 52.5909 37.2089C52.638 37.3029 52.638 37.4441 52.638 37.5381C52.638 38.0086 52.2616 38.3849 51.7912 38.3849C51.6971 38.3849 51.556 38.3378 51.4619 38.3378C50.9915 38.1497 50.8034 37.6322 50.9915 37.1618C50.9915 37.1618 50.9915 37.1148 51.0386 37.1148C51.0856 36.8796 51.2738 36.7385 51.4619 36.6914Z" fill="#A1A1A1"/>
<path d="M59.6471 38.3849C60.3057 38.1967 60.9642 38.526 61.2465 39.1375C61.4817 39.7961 61.1524 40.5017 60.4938 40.7369C59.8353 40.9721 59.0826 40.6428 58.8004 39.9372C58.6122 39.2786 58.9886 38.6201 59.6471 38.3849Z" fill="#A1A1A1"/>
<path d="M52.7322 39.5608C53.3907 39.4197 54.0493 39.8431 54.2375 40.5016C54.3786 41.1602 54.0023 41.8658 53.2967 42.0069C53.2496 42.0069 53.1555 42.054 53.1085 42.054C52.497 42.101 51.9325 41.6777 51.7443 41.0661C51.6032 40.4076 52.0266 39.702 52.7322 39.5608Z" fill="#A1A1A1"/>
<path d="M66.28 39.5608C66.9856 39.3727 67.6912 39.796 67.8794 40.5016C68.0205 41.2072 67.5501 41.8658 66.8915 41.9599C66.1859 42.101 65.5274 41.6306 65.4333 40.972C65.2451 40.3605 65.6685 39.749 66.28 39.5608Z" fill="#A1A1A1"/>
<path d="M44.5004 40.6901C44.9708 40.549 45.4412 40.7842 45.5823 41.2546C45.7234 41.725 45.4882 42.1954 45.0178 42.3365C44.9237 42.3835 44.8297 42.3835 44.6885 42.3835C44.2181 42.3365 43.8418 41.8661 43.9359 41.3487V41.3016C44.03 41.0194 44.2652 40.7842 44.5004 40.6901Z" fill="#A1A1A1"/>
<path d="M74.5588 40.6901C75.0292 40.549 75.5466 40.7842 75.6878 41.2546C75.6878 41.3016 75.7348 41.3487 75.7348 41.4427C75.7818 41.9131 75.4526 42.3365 74.9822 42.3835C74.9351 42.3835 74.8881 42.3835 74.841 42.3835C74.3706 42.3835 73.9943 42.0072 73.9473 41.5368C73.9943 41.1605 74.2295 40.8312 74.5588 40.6901Z" fill="#A1A1A1"/>
<path d="M59.6001 42.2421C60.2587 42.101 60.9173 42.2892 61.3877 42.7596C61.9521 43.3241 62.0462 44.1708 61.7169 44.8764C61.4347 45.4879 60.7761 45.8642 60.1176 45.8642C59.506 45.8642 58.9416 45.582 58.5652 45.0645C58.1889 44.5471 58.1419 43.8415 58.4241 43.277C58.6123 42.7596 59.0356 42.3832 59.6001 42.2421Z" fill="#A1A1A1"/>
<path d="M46.805 42.9479C47.5106 42.8068 48.1691 43.2302 48.3103 43.9358C48.3103 44.0299 48.3573 44.0769 48.3573 44.171C48.3573 44.8766 47.7928 45.4411 47.1343 45.4411C46.4757 45.4411 45.8642 44.8766 45.8642 44.218C45.7701 43.6065 46.1934 43.0891 46.805 42.9479Z" fill="#A1A1A1"/>
<path d="M72.207 42.948C72.8655 42.7599 73.5711 43.0891 73.8063 43.7477C73.8534 43.8418 73.8534 43.9359 73.8534 44.077C73.9004 44.7826 73.3359 45.3471 72.6303 45.3941C72.5833 45.3941 72.5362 45.3941 72.4422 45.3941C71.7366 45.3471 71.2191 44.7826 71.2662 44.077C71.3132 43.5595 71.6895 43.0891 72.207 42.948Z" fill="#A1A1A1"/>
<path d="M54.2846 43.1359C55.0373 42.9948 55.7899 43.3711 56.1662 44.0297C56.3544 44.3119 56.4014 44.6412 56.4014 45.0176C56.3544 45.6761 56.0251 46.2406 55.4136 46.5699C54.8961 46.8521 54.2376 46.8521 53.6731 46.5699C53.2968 46.3347 52.9675 46.0054 52.7793 45.582C52.6382 45.1116 52.6852 44.6412 52.8734 44.1708C53.1556 43.6063 53.6731 43.23 54.2846 43.1359Z" fill="#A1A1A1"/>
<path d="M65.1036 43.1362C65.574 43.1362 66.0444 43.3244 66.4208 43.6537C66.8912 44.077 67.0793 44.6886 66.9852 45.3001C66.8912 45.6294 66.75 45.9587 66.5148 46.2409C66.1385 46.6172 65.574 46.8524 65.0566 46.8524C64.398 46.8054 63.7865 46.4291 63.5043 45.8175C63.3161 45.3942 63.2691 44.8767 63.4102 44.4063C63.6454 43.6537 64.3039 43.1833 65.1036 43.1362Z" fill="#A1A1A1"/>
<path d="M49.816 45.7701C50.4275 45.723 50.992 45.9582 51.3683 46.4286C51.9798 47.1342 51.9328 48.2162 51.2742 48.8747C50.5686 49.5803 49.3926 49.5803 48.687 48.8747C48.64 48.8277 48.64 48.8277 48.5929 48.7806C48.2166 48.2632 48.0755 47.6046 48.2636 46.9931C48.4988 46.3346 49.1104 45.8171 49.816 45.7701Z" fill="#A1A1A1"/>
<path d="M69.2904 45.8173C69.9019 45.6762 70.5135 45.8644 70.9368 46.2877C71.4543 46.7581 71.6895 47.5578 71.4543 48.2164C71.3602 48.5457 71.0779 48.7809 70.8427 49.0161C70.4664 49.2983 69.996 49.4865 69.4786 49.4394C68.7259 49.3454 68.1144 48.8279 67.8792 48.1223C67.7381 47.5108 67.8792 46.8993 68.2085 46.3818C68.5378 46.1466 68.9141 45.9584 69.2904 45.8173Z" fill="#A1A1A1"/>
<path d="M79.7333 46.8992C80.2037 46.7111 80.7211 46.9933 80.8622 47.4167C80.9093 47.5578 80.9093 47.6989 80.9093 47.793C80.8152 48.3105 80.3448 48.6397 79.8273 48.5457H79.7803C79.3099 48.4045 79.0277 47.9341 79.1688 47.4637C79.1688 47.4167 79.2158 47.3697 79.2158 47.3226C79.3099 47.1345 79.4981 46.9463 79.7333 46.8992Z" fill="#A1A1A1"/>
<path d="M39.3256 46.9464C39.796 46.8053 40.3134 47.0405 40.4545 47.5109C40.5957 47.9813 40.3605 48.4517 39.8901 48.5928C39.4197 48.734 38.9022 48.4988 38.7611 48.0284C38.5729 47.5109 38.8552 47.0405 39.3256 46.9464C39.2785 46.9464 39.2785 46.9464 39.3256 46.9464Z" fill="#A1A1A1"/>
<path d="M76.7227 48.1692C77.4283 48.028 78.0868 48.4984 78.1809 49.157C78.322 49.8626 77.8516 50.5212 77.1931 50.6153C76.8167 50.6623 76.4404 50.6153 76.1582 50.3801C75.6878 50.0037 75.5467 49.3452 75.8289 48.8277C75.97 48.4984 76.2993 48.2162 76.7227 48.1692Z" fill="#A1A1A1"/>
<path d="M42.3836 48.2165C43.0892 48.0754 43.7477 48.4987 43.8889 49.2043C43.8889 49.2984 43.9359 49.3455 43.9359 49.4395C43.9829 50.0981 43.4185 50.6626 42.7599 50.7096C42.0543 50.7096 41.4898 50.1451 41.4898 49.4395C41.4428 48.8751 41.8191 48.3576 42.3836 48.2165Z" fill="#A1A1A1"/>
<path d="M46.1467 49.8627C46.6171 49.7216 47.0875 49.8157 47.5109 50.0509C48.0283 50.3331 48.3576 50.8505 48.4517 51.415C48.5457 52.1206 48.2165 52.7792 47.6049 53.1555C47.0405 53.5318 46.2878 53.5318 45.6763 53.2496C45.1118 52.9203 44.7825 52.3088 44.7825 51.6502C44.7355 50.8035 45.3 50.0038 46.1467 49.8627Z" fill="#A1A1A1"/>
<path d="M72.7713 49.8158C73.2417 49.7218 73.7121 49.8158 74.0885 50.051C74.747 50.4274 75.0293 51.227 74.8881 51.9327C74.8411 52.356 74.5589 52.7323 74.2296 52.9675C73.9944 53.1557 73.7121 53.2498 73.4299 53.3439C72.8184 53.485 72.1598 53.2498 71.7364 52.7794C71.0308 52.0267 71.0779 50.8978 71.8305 50.1922C71.9246 50.0981 72.0187 50.051 72.1128 50.004C72.3009 49.957 72.5361 49.9099 72.7713 49.8158Z" fill="#A1A1A1"/>
<path d="M46.2409 66.5622C46.9465 66.4681 47.6521 66.7033 48.0755 67.2678C48.6399 68.0204 48.4988 69.1023 47.7932 69.7139C47.511 69.902 47.2287 70.0431 46.8995 70.1372C45.9116 70.3254 44.9708 69.6668 44.7826 68.679C44.6886 68.2556 44.7826 67.8322 45.0178 67.4559C45.159 67.2207 45.3471 66.9855 45.5823 66.8444C45.7705 66.7033 46.0057 66.6092 46.2409 66.5622Z" fill="#A1A1A1"/>
<path d="M72.7245 66.5619C73.1949 66.4679 73.6653 66.5619 74.0417 66.7971C74.8884 67.3146 75.1706 68.4435 74.6532 69.2903C74.6061 69.3844 74.5591 69.4314 74.465 69.5255C73.8535 70.184 72.9127 70.3722 72.113 69.9488C71.5956 69.5725 71.2663 69.008 71.2192 68.3495C71.2192 67.5027 71.8308 66.7501 72.7245 66.5619Z" fill="#A1A1A1"/>
<path d="M42.5246 69.2906C43.2302 69.2435 43.8418 69.761 43.8888 70.4666C43.9359 71.1722 43.4184 71.7837 42.7128 71.8307C42.0072 71.8778 41.3957 71.3603 41.3486 70.6547C41.3486 70.6077 41.3486 70.6077 41.3486 70.5607C41.3486 69.9021 41.8661 69.3376 42.5246 69.2906Z" fill="#A1A1A1"/>
<path d="M76.911 69.3374C77.6166 69.3374 78.1811 69.8548 78.2282 70.5605C78.2282 71.2661 77.7107 71.8305 77.0051 71.8776C76.2995 71.8776 75.735 71.3601 75.688 70.6545C75.688 70.6075 75.688 70.6075 75.688 70.5605C75.735 69.9019 76.2525 69.3844 76.911 69.3374Z" fill="#A1A1A1"/>
<path d="M69.3848 70.6077C69.9022 70.5136 70.4197 70.6547 70.843 70.984C71.0782 71.2192 71.2664 71.5015 71.4545 71.7837C71.7838 72.7245 71.2664 73.7594 70.3256 74.0887C69.9963 74.1828 69.62 74.2298 69.2907 74.1357C68.9144 74.0417 68.5851 73.8535 68.3028 73.5713C67.9265 73.1008 67.8324 72.4893 67.9265 71.8778C68.1147 71.2192 68.6792 70.7488 69.3848 70.6077Z" fill="#A1A1A1"/>
<path d="M49.5333 70.6547C50.1918 70.5136 50.8504 70.7018 51.3208 71.1722C51.9794 71.8307 52.0264 72.9127 51.3678 73.6183C50.7093 74.3709 49.5333 74.465 48.7806 73.8064C48.7336 73.7594 48.6395 73.7123 48.5925 73.6183C48.028 72.9127 48.028 71.8778 48.6395 71.1722C48.8747 70.937 49.204 70.7488 49.5333 70.6547Z" fill="#A1A1A1"/>
<path d="M39.4199 71.4073C39.8903 71.3603 40.3607 71.6895 40.4078 72.1599C40.4078 72.254 40.4078 72.3481 40.4078 72.3951C40.3137 72.8655 39.8903 73.1948 39.4199 73.1008C38.9495 73.0067 38.6203 72.5833 38.7143 72.1129C38.7143 72.0659 38.7143 72.0188 38.7614 71.9718C38.8555 71.6895 39.1377 71.4543 39.4199 71.4073Z" fill="#A1A1A1"/>
<path d="M79.8745 71.5015C80.2978 71.4074 80.7212 71.6897 80.8623 72.1131C81.0034 72.5835 80.7682 73.1009 80.2978 73.242C79.8274 73.3831 79.357 73.1479 79.2159 72.6775C79.0748 72.1601 79.357 71.6426 79.8745 71.5015C79.8274 71.5015 79.8274 71.5015 79.8745 71.5015Z" fill="#A1A1A1"/>
<path d="M54.1907 73.2891C55.1786 73.0539 56.1194 73.6654 56.3546 74.6533C56.4487 75.0296 56.4016 75.4059 56.2605 75.7352C55.9783 76.7701 54.567 77.1935 53.6733 76.7231C52.8736 76.2527 52.5443 75.2648 52.8266 74.4181C53.1088 73.8536 53.5792 73.4302 54.1907 73.2891Z" fill="#A1A1A1"/>
<path d="M64.5864 73.2887C65.386 73.0535 66.2798 73.3828 66.7032 74.1354C66.7973 74.3236 66.8913 74.5588 66.9384 74.794C67.0325 75.4055 66.7973 75.97 66.3739 76.3934C65.8564 76.8638 65.1038 77.0049 64.4452 76.7697C63.9748 76.5815 63.5515 76.2052 63.3633 75.7348C63.2222 75.2644 63.2692 74.7469 63.4574 74.3236C63.6455 73.8061 64.0689 73.4769 64.5864 73.2887Z" fill="#A1A1A1"/>
<path d="M59.7884 74.1828C60.7762 74.0887 61.67 74.7472 61.8581 75.6881C62.0463 76.6759 61.3407 77.6638 60.3529 77.8049C59.6002 77.946 58.8476 77.5697 58.4712 76.9582C58.189 76.4407 58.142 75.8292 58.3772 75.2647C58.6124 74.7002 59.1298 74.2768 59.7884 74.1828Z" fill="#A1A1A1"/>
<path d="M46.6642 74.6061C47.3228 74.4179 48.0755 74.7942 48.2636 75.4528C48.2636 75.4998 48.3107 75.5469 48.3107 75.5939C48.4047 76.2995 47.9343 76.911 47.2287 77.0051C47.1817 77.0051 47.1346 77.0051 47.0876 77.0051C46.382 77.0051 45.8175 76.3936 45.8646 75.735C45.8646 75.2646 46.1938 74.7942 46.6642 74.6061Z" fill="#A1A1A1"/>
<path d="M72.254 74.6059C72.9125 74.4178 73.5711 74.8411 73.7593 75.4997C73.7593 75.5938 73.8063 75.6879 73.8063 75.7819C73.8063 76.5346 73.2418 77.0991 72.4892 77.1461C71.7836 77.1461 71.2661 76.5346 71.2661 75.829V75.7819C71.3132 75.2175 71.7365 74.7471 72.254 74.6059Z" fill="#A1A1A1"/>
<path d="M44.5944 77.6167C45.0648 77.5226 45.5352 77.8519 45.6293 78.3223V78.3693C45.6763 78.8397 45.347 79.3101 44.8766 79.3572C44.4062 79.4042 43.9358 79.0749 43.8888 78.6045C43.8417 78.1341 44.171 77.7108 44.5944 77.6167Z" fill="#A1A1A1"/>
<path d="M74.7471 77.6168C75.2175 77.5697 75.6409 77.9461 75.6879 78.4165C75.735 78.8869 75.3586 79.3102 74.8882 79.3573C74.8412 79.3573 74.7942 79.3573 74.7001 79.3573C74.2297 79.3102 73.9004 78.8869 73.9004 78.4165C73.9945 77.9931 74.3237 77.6638 74.7471 77.6168Z" fill="#A1A1A1"/>
<path d="M52.9203 77.993C53.5789 77.9459 54.0963 78.4164 54.2374 79.0279C54.2845 79.7335 53.767 80.345 53.0614 80.392C52.3558 80.4391 51.7443 79.9216 51.6973 79.216C51.6973 78.5575 52.2617 77.993 52.9203 77.993Z" fill="#A1A1A1"/>
<path d="M66.2798 78.0398C66.9854 77.8517 67.691 78.275 67.8792 78.9806C67.8792 79.0277 67.8792 79.0277 67.8792 79.0747C68.0203 79.7803 67.5499 80.4389 66.8443 80.533C66.7032 80.533 66.6091 80.58 66.468 80.533C65.8565 80.4389 65.3861 79.9685 65.339 79.357C65.292 78.7454 65.7153 78.228 66.2798 78.0398Z" fill="#A1A1A1"/>
<path d="M59.6942 79.2161C60.1176 79.075 60.588 79.2161 60.9173 79.5454C61.2936 79.9217 61.3877 80.4862 61.1525 80.9566C60.8702 81.5681 60.1176 81.8504 59.459 81.5681C59.0357 81.38 58.7534 80.9566 58.7534 80.4862C58.7534 79.9217 59.1297 79.3572 59.6942 79.2161Z" fill="#A1A1A1"/>
<path d="M51.462 81.709C51.8853 81.5678 52.3557 81.756 52.5439 82.1323C52.7791 82.5557 52.5909 83.0731 52.2146 83.2613C52.1676 83.2613 52.1676 83.3083 52.1205 83.3083C51.6972 83.4965 51.1797 83.3083 50.9445 82.885C50.7564 82.4616 50.9445 81.9442 51.3679 81.756C51.4149 81.756 51.462 81.709 51.462 81.709Z" fill="#A1A1A1"/>
<path d="M67.5969 81.6619C68.2084 81.4267 68.8199 82.0382 68.6788 82.6497C68.5847 83.1201 68.0673 83.4494 67.5969 83.3083C67.5499 83.3083 67.5028 83.2613 67.4558 83.2613C67.0324 83.0731 66.8442 82.5086 67.0324 82.0853C67.0324 82.0382 67.0795 82.0382 67.0795 81.9912C67.2206 81.8501 67.4087 81.756 67.5969 81.6619Z" fill="#A1A1A1"/>
<path d="M59.8822 83.1203C60.3056 82.9791 60.776 83.2143 60.9171 83.6847C60.9641 83.7788 60.9641 83.8729 60.9641 83.967C60.9641 84.4374 60.5408 84.8137 60.0704 84.8137C59.6 84.8137 59.2236 84.3904 59.2236 83.9199C59.2236 83.7788 59.2707 83.6377 59.3177 83.5436C59.4588 83.3084 59.647 83.1673 59.8822 83.1203Z" fill="#A1A1A1"/>
<path d="M55.884 48.9219C58.0949 48.1222 60.541 48.0282 62.8459 48.6397C62.4226 50.4743 61.9522 52.3559 61.5288 54.1904C60.1176 53.8141 58.6593 53.9552 57.3422 54.5197C55.2724 55.5076 53.9083 57.5774 53.8142 59.8823C53.7671 61.3406 54.2846 62.7988 55.2254 63.9278C56.1192 64.9627 57.3422 65.7153 58.7064 65.9505C58.236 67.7851 57.8126 69.6667 57.3422 71.5013C55.2724 71.0309 53.3438 70.0431 51.7914 68.5848C49.7217 66.7032 48.4045 64.116 48.0753 61.2935C47.746 58.5182 48.4516 55.6957 50.0509 53.3908C51.4622 51.321 53.5319 49.7686 55.884 48.9219Z" fill="#A1A1A1"/>
<path d="M36.5506 50.4743C36.5506 50.3332 36.5976 50.2861 36.5976 50.145C37.6325 50.3332 38.7144 50.3332 39.7493 50.145C39.2319 52.497 38.6674 54.8491 38.244 57.2481C38.8555 56.6836 39.5611 56.2603 40.3138 55.931C40.8312 55.6958 41.4428 55.6017 42.0072 55.6487C42.901 55.6958 43.7007 56.1662 44.1711 56.9188C44.4533 57.4363 44.5474 58.0478 44.4063 58.6593C44.3122 59.459 44.1711 60.2587 43.9829 61.0113H41.1135C41.2546 60.2117 41.3487 59.459 41.3487 58.6593C41.3016 58.0478 40.8312 57.5774 40.2667 57.4833C39.8434 57.4363 39.373 57.4833 38.9967 57.6715C38.6674 57.8596 38.4322 58.1419 38.3381 58.4712C38.0088 59.2709 37.7736 60.1176 37.6325 61.0113H34.8101C35.5157 57.4833 36.1272 54.0023 36.5506 50.4743Z" fill="#A1A1A1"/>
<path d="M10.302 51.7446C11.478 51.7446 12.654 51.6035 13.83 51.6035C13.5948 52.215 13.5008 52.8266 13.5008 53.4381C12.3248 53.2499 11.1017 53.1558 9.87865 53.1558C9.69049 54.0026 9.50233 54.8963 9.31417 55.7431C8.98489 57.4836 8.60856 59.2241 8.32632 61.0116H5.22166C5.7391 58.4244 6.25654 55.8372 6.63287 53.2029C5.31574 53.2029 3.99861 53.297 2.72852 53.4851C2.96372 52.9206 3.10484 52.2621 3.0578 51.6506C5.5039 51.6976 7.90296 51.7446 10.302 51.7446Z" fill="#A1A1A1"/>
<path d="M17.593 57.342C17.1696 58.0947 16.8404 58.9414 16.6522 59.7881H19.8509C19.898 59.2236 19.9921 58.7062 19.9921 58.0947C20.0391 57.6243 19.898 57.1068 19.6628 56.6835C19.3805 56.4012 18.9572 56.3071 18.6279 56.4483C18.2045 56.6364 17.8282 56.9657 17.593 57.342ZM15.1469 57.2479C16.0407 56.3071 17.2167 55.7427 18.5338 55.6015C19.4276 55.4604 20.3684 55.6015 21.2151 55.9779C21.9207 56.4012 22.4382 57.0598 22.6263 57.8595C22.8145 58.8473 22.7674 59.8352 22.4852 60.823H16.5111V60.9641H13.5005C13.6416 59.5529 14.2061 58.2358 15.1469 57.2479Z" fill="#A1A1A1"/>
<path d="M86.3191 57.4364C87.7774 55.9311 89.8942 55.3196 91.9169 55.7429C92.7636 55.8841 93.5633 56.3074 94.1278 56.966C94.9275 58.142 95.1627 59.6003 94.7393 60.9644H91.5876C91.7758 60.1177 91.8699 59.2239 91.8699 58.3302C91.8699 57.7657 91.6817 57.2482 91.3054 56.8249C90.9761 56.5426 90.5057 56.4486 90.0823 56.5897C89.5649 56.7308 89.1415 57.0601 88.8593 57.4834C88.1066 58.5183 87.8244 59.7884 87.5422 61.0585H84.4375C84.7668 59.6943 85.3783 58.4242 86.3191 57.4364Z" fill="#A1A1A1"/>
<path d="M101.231 56.4013C101.984 55.8838 102.877 55.6016 103.818 55.6016C104.571 55.6486 105.276 55.9779 105.794 56.5424C106.217 57.0128 106.405 57.7184 106.311 58.3299C106.217 59.2237 106.029 60.0704 105.888 60.9171H103.018C103.207 60.1645 103.301 59.3648 103.207 58.5651C103.16 58.1888 102.971 57.8125 102.689 57.5773C102.313 57.3421 101.842 57.295 101.372 57.3891C100.855 57.4832 100.431 57.8595 100.243 58.3299C99.8667 59.1766 99.6315 60.0704 99.4904 60.9642H96.668C96.9502 59.2707 97.2795 57.5773 97.4677 55.8368C98.4555 55.9308 99.3963 55.9308 100.384 55.8368C100.29 56.3072 100.196 56.8246 100.102 57.248C100.525 56.9657 100.855 56.6365 101.231 56.4013Z" fill="#A1A1A1"/>
<path d="M112.991 56.4956C112.567 56.6837 112.238 57.013 112.003 57.4364C111.58 58.189 111.297 58.9887 111.156 59.7884H114.355C114.449 59.0358 114.496 58.2831 114.449 57.5305C114.402 57.2012 114.261 56.8719 114.026 56.5897C113.696 56.4015 113.32 56.3545 112.991 56.4956ZM109.416 57.3893C110.263 56.4015 111.391 55.79 112.662 55.6018C113.32 55.5077 113.979 55.5077 114.637 55.6018C115.249 55.6959 115.813 55.9311 116.237 56.3545C116.754 56.8719 117.083 57.5775 117.177 58.2831C117.272 59.1298 117.177 59.9766 116.989 60.8233H110.968V60.9644H107.958C108.052 59.6473 108.569 58.4242 109.416 57.3893Z" fill="#A1A1A1"/>
<path d="M25.7311 57.6243C26.86 56.4483 28.4124 55.7427 30.0588 55.6486C31.4229 55.5075 32.7871 55.8368 33.9631 56.5894C33.5868 57.295 33.1634 58.0006 32.7401 58.7533H32.2697C32.3167 58.1418 32.0815 57.5302 31.6581 57.0598C31.2348 56.7305 30.6233 56.5894 30.1058 56.7305C29.4943 56.8246 28.9298 57.2009 28.5535 57.7184C27.8479 58.7062 27.4245 59.8352 27.2363 61.0583H24.0376C24.2728 59.6941 24.8373 58.5651 25.7311 57.6243Z" fill="#A1A1A1"/>
<path d="M75.5 55.8369C77.2876 55.931 79.028 56.0251 80.8156 55.978C81.8505 55.978 82.9794 55.931 84.0143 55.8369C84.0143 56.1192 83.9202 56.4014 83.8262 56.6366C82.509 58.0478 81.2389 59.5061 80.0159 60.9173H76.7231C77.852 59.6001 78.934 58.3301 80.11 57.0129C78.4636 57.0129 76.8642 57.107 75.2178 57.2011C75.3589 56.7777 75.453 56.3073 75.5 55.8369Z" fill="#A1A1A1"/>
<path d="M62.7991 48.6396C63.5047 48.8278 64.1632 49.063 64.8218 49.3453C64.3514 51.2739 63.928 53.2026 63.4576 55.1312C62.8461 54.7079 62.1875 54.3786 61.4819 54.1904C61.9053 52.3558 62.3757 50.4742 62.7991 48.6396Z" fill="#A1A1A1"/>
<path d="M65.4334 49.6748C71.1723 52.6854 73.3832 59.7414 70.3726 65.4804C70.2315 65.7626 70.0434 66.0919 69.8552 66.3741C68.8203 67.9265 67.4561 69.2436 65.8568 70.1374C64.1633 71.1252 62.2817 71.6427 60.353 71.7367C60.306 71.7367 60.259 71.7367 60.2119 71.6897C60.4001 70.9841 60.5412 70.2785 60.7294 69.5729C61.0116 68.3028 61.3409 67.0327 61.6231 65.7626C62.5169 65.4804 63.3166 65.01 64.0222 64.3514C66.4683 62.0935 66.6094 58.2832 64.3515 55.8371C64.2574 55.743 64.1633 55.6489 64.0692 55.5549C64.4926 53.6732 65.01 51.6975 65.4334 49.6748Z" fill="#A1A1A1"/>
<path d="M57.6716 56.3541C58.7065 55.4604 60.2588 55.3663 61.3878 56.166C62.3286 56.7775 62.6108 58.0476 61.9993 59.0354C61.7641 59.3647 61.4819 59.647 61.1055 59.7881C61.5759 59.8822 61.9993 60.1644 62.2816 60.4937C62.7049 61.0582 62.846 61.8108 62.7049 62.5164C62.4697 63.5983 61.67 64.398 60.6351 64.7273C59.8825 64.9155 59.0828 64.8684 58.3772 64.5862C57.4834 64.1628 56.8719 63.3161 56.7778 62.3283C57.1542 62.2812 57.5305 62.2342 57.9068 62.1401C58.0009 62.6575 58.2361 63.128 58.5654 63.5513C59.3651 64.2099 60.494 64.0688 61.1526 63.2691C61.3407 63.0339 61.4819 62.7516 61.5289 62.4694C61.623 62.046 61.5759 61.5756 61.3407 61.1523C61.1055 60.6818 60.6351 60.3996 60.1177 60.3055C59.7414 60.2585 59.3651 60.2585 58.9887 60.3996C59.0358 60.0703 59.0828 59.7881 59.1299 59.4118C59.7414 59.4588 60.3529 59.2706 60.8233 58.8473C61.3408 58.2357 61.2937 57.342 60.6822 56.8716C60.6822 56.8716 60.6822 56.8716 60.6351 56.8245C59.9766 56.3541 59.1299 56.4012 58.5183 56.9186C58.2361 57.2479 58.0479 57.6713 57.9538 58.0946C57.5775 58.0476 57.2012 57.9535 56.8249 57.9065C56.966 57.342 57.2482 56.7775 57.6716 56.3541Z" fill="#A1A1A1"/>
<path d="M24.0377 60.9175H27.2365C27.0954 61.6701 27.1424 62.4698 27.3306 63.2225C27.5658 63.7869 27.9891 64.2573 28.6007 64.4926C29.4474 64.7748 30.3882 64.7277 31.1879 64.3044C31.4701 64.1162 31.7524 63.9281 32.0346 63.6929C32.1287 63.7869 32.2698 63.881 32.3639 63.9751C32.1287 64.3514 31.8935 64.7748 31.6583 65.1511C31.4231 65.3393 31.1879 65.4334 30.9527 65.5274C29.6355 65.9978 28.2243 66.0449 26.8602 65.7156C26.1075 65.5745 25.4489 65.1982 24.9785 64.6337C24.0848 63.6458 23.7555 62.2817 24.0377 60.9175Z" fill="#A1A1A1"/>
<path d="M5.26829 60.9175H8.37295C8.23183 61.8583 8.04367 62.705 7.90255 63.6458C7.80847 64.3044 7.71439 65.01 7.62031 65.7156C6.86766 65.6686 6.11501 65.6215 5.40941 65.6215C5.03308 65.6215 4.60972 65.6686 4.2334 65.7156C4.42156 64.9159 4.60972 64.1162 4.79788 63.3165C4.98604 62.5639 5.12717 61.7642 5.26829 60.9175Z" fill="#A1A1A1"/>
<path d="M13.4538 60.9175H16.4644C16.3703 61.482 16.3703 62.0464 16.4173 62.658C16.5584 63.2225 16.6525 63.834 17.17 64.2103C17.8285 64.6807 18.6282 64.8218 19.3809 64.6337C20.0865 64.4925 20.745 64.1633 21.3095 63.7399L21.4977 63.9281C21.2625 64.3044 21.0743 64.7278 20.8391 65.057C19.8983 65.6686 18.7693 65.9508 17.6404 65.9508C16.7936 65.9978 15.9469 65.8097 15.1943 65.4804C14.3946 65.057 13.7831 64.3985 13.5008 63.5517C13.3126 62.705 13.2656 61.8112 13.4538 60.9175Z" fill="#A1A1A1"/>
<path d="M33.8223 65.7156C34.1515 64.1162 34.4338 62.5169 34.8101 60.9175H37.6325C37.3503 62.5169 37.1151 64.1162 36.8799 65.7156C36.3154 65.6686 35.7509 65.6215 35.1394 65.6215C34.669 65.6686 34.2456 65.7156 33.8223 65.7156Z" fill="#A1A1A1"/>
<path d="M41.1602 60.9175H44.0297C43.7474 62.5169 43.4652 64.1162 43.183 65.7156C42.5714 65.7156 42.0069 65.6215 41.3954 65.6215C40.925 65.6686 40.5017 65.7156 40.0312 65.7156C40.3605 64.5396 40.5487 63.3636 40.8309 62.2346C40.9721 61.8112 41.0661 61.3879 41.1602 60.9175Z" fill="#A1A1A1"/>
<path d="M73.195 64.8689C74.371 63.5517 75.547 62.2817 76.676 60.9175H79.9688C78.981 62.1405 77.899 63.2695 76.9112 64.4926C78.6987 64.4926 80.5333 64.4455 82.2738 64.3044L82.0386 65.7156C80.1099 65.6215 78.1813 65.5745 76.2526 65.6215C75.1707 65.6215 74.0888 65.6686 73.0068 65.7626C73.1009 65.4804 73.195 65.1982 73.195 64.8689Z" fill="#A1A1A1"/>
<path d="M84.5314 60.9175H87.6361C87.4479 61.7172 87.4009 62.5169 87.4479 63.3165C87.4479 63.834 87.5891 64.3044 87.9183 64.7278C88.2476 65.057 88.671 65.1982 89.1414 65.1041C89.6588 64.9629 90.1292 64.6807 90.4585 64.2103C91.1171 63.2225 91.5405 62.0935 91.7286 60.9175H94.8803C94.5981 62.3757 93.7984 63.6929 92.6694 64.6807C91.7286 65.4334 90.5996 65.9038 89.3766 65.9978C88.2476 66.139 87.0716 65.9038 86.0838 65.3393C85.4722 64.9159 85.0018 64.3044 84.7196 63.5988C84.3903 62.7521 84.3433 61.8112 84.5314 60.9175Z" fill="#A1A1A1"/>
<path d="M96.7149 60.9175H99.5373C99.2551 62.5169 99.0199 64.1162 98.7847 65.7156C98.1732 65.7156 97.6087 65.5745 97.0442 65.6215C96.6208 65.6686 96.1975 65.6686 95.7271 65.7156C96.1504 64.1633 96.4327 62.5639 96.7149 60.9175Z" fill="#A1A1A1"/>
<path d="M103.065 60.9175H105.935C105.7 62.5169 105.323 64.1162 105.088 65.7156C104.618 65.6686 104.194 65.6686 103.724 65.6215C103.113 65.6215 102.548 65.6215 101.937 65.7156C102.454 64.1633 102.689 62.5639 103.065 60.9175Z" fill="#A1A1A1"/>
<path d="M107.863 60.9175H110.874C110.78 61.4349 110.78 61.9994 110.827 62.5169C110.874 62.9402 111.015 63.3636 111.25 63.7869C111.58 64.3044 112.144 64.6337 112.709 64.6807C113.791 64.7748 114.825 64.4925 115.672 63.834C115.813 63.7399 115.86 63.9281 115.954 63.9751C115.766 64.3044 115.578 64.6337 115.343 64.963C115.249 65.1511 115.014 65.1982 114.825 65.3393C113.414 65.9978 111.815 66.186 110.263 65.8097C109.134 65.5274 108.193 64.6807 107.863 63.5988C107.769 62.705 107.722 61.8112 107.863 60.9175Z" fill="#A1A1A1"/>
<path d="M58.6596 65.9976C59.4122 66.1387 60.1649 66.1387 60.9175 65.9976C60.4471 67.9262 59.9767 69.8549 59.5533 71.7835C58.8007 71.7835 58.0481 71.6894 57.2954 71.5483C57.7658 69.6667 58.1892 67.8321 58.6596 65.9976Z" fill="#A1A1A1"/>
</svg>
