<svg width="176" height="176" viewBox="0 0 176 176" fill="none" xmlns="http://www.w3.org/2000/svg">
<path d="M97.2824 73.3319C94.8184 74.0359 92.5691 74.6343 90.348 75.3383C89.8044 75.5455 89.3207 75.8841 88.94 76.3239C87.6728 77.6615 86.5112 79.0343 85.2792 80.3719C85.0328 80.6183 84.54 80.6887 84.188 80.8295C84.1176 80.7239 84.0472 80.6535 83.9768 80.5479C84.9624 78.9991 85.948 77.4503 86.9688 75.8663C85.772 75.2327 84.8216 75.2679 83.8712 76.2887C82.0056 78.3303 79.8936 80.0551 77.0072 80.3719C75.8763 80.5361 74.7295 80.5597 73.5928 80.4423C71.5864 80.1607 70.46 78.7175 70.284 76.6407C70.108 74.2471 71.0936 72.2055 72.572 70.5159C74.2968 68.5095 76.268 66.7495 78.1688 64.8839C78.5196 64.6316 78.8974 64.4191 79.2952 64.2503C79.4008 64.3207 79.4712 64.4263 79.5768 64.4967C79.1544 65.0247 78.7672 65.5527 78.3448 66.0807C77.4296 67.1719 76.2328 68.0167 75.8808 69.6007C75.0712 73.1559 77.2888 75.6551 80.8792 74.9863C81.4072 74.8807 81.9 74.8103 82.604 74.7047C82.3928 73.8599 82.252 73.0503 81.9704 72.2407C81.5832 71.0791 81.724 70.1639 82.6744 69.2839C84.012 68.0519 85.244 66.7143 86.6872 65.2359C86.9688 65.8695 87.1448 66.2919 87.356 66.6791C87.7784 67.4183 88.1304 68.2279 88.6936 68.8263C90.3128 70.4807 91.3336 70.4103 92.9176 68.7207C94.8888 66.6087 96.8248 64.4615 99.4296 63.0887C100.037 62.762 100.674 62.4911 101.33 62.2791C102.95 61.7511 104.322 62.6663 104.146 64.3559C103.991 65.4558 103.581 66.5043 102.95 67.4183C102.527 68.0871 102.492 68.5095 102.844 69.1431C103.9 71.0087 105.273 71.8183 107.244 71.5719C106.892 70.7975 106.61 70.0583 106.223 69.3895C105.695 68.4743 105.769 67.6999 106.54 66.9607C107.596 65.9399 108.582 64.8839 109.673 63.8631C110.553 63.0183 111.081 63.0887 111.644 64.2151C112.031 65.0247 112.313 65.8695 112.7 66.6439C113.334 67.8759 112.982 69.0023 112.137 69.8823C110.236 71.8887 108.335 73.8951 106.258 75.7255C104.815 77.0279 102.914 77.3447 100.978 77.1335C99.2184 76.9575 98.3032 75.7607 97.6344 74.2823C97.5041 73.9655 97.3915 73.5678 97.2824 73.3319ZM93.0971 70.2695C94.8923 69.8823 96.4024 69.5655 97.8843 69.2135C98.1624 69.1431 98.5531 68.8967 98.5531 68.6855C98.5405 68.5302 98.4928 68.3798 98.4135 68.2456C98.3342 68.1115 98.2255 67.9971 98.0955 67.9111C97.7963 67.7023 97.4396 67.5916 97.0747 67.5943C95.4203 67.7351 94.1144 68.5447 93.0971 70.2695Z" fill="#A1A1A1"/>
<path d="M65.6407 118.67C61.906 118.67 60.674 117.544 59.97 114.587C59.1604 111.243 60.4276 108.321 61.6244 105.435C62.5748 103.147 63.842 101.035 64.9684 98.8172C65.4612 97.8668 65.9892 97.6908 66.9748 98.2892C69.826 100.049 70.178 99.8732 68.7348 103.569C68.3476 104.59 67.9252 105.611 67.5028 106.632C66.9748 107.864 66.6932 107.899 65.6724 107.124C65.1444 106.737 64.6868 105.505 63.7716 106.667C62.962 107.688 63.0007 109.377 64.0567 110.046C64.8416 110.518 65.7423 110.762 66.658 110.75C69.1924 110.609 71.4487 109.518 73.4516 108.004C73.698 107.793 74.0183 107.371 73.9796 107.124C73.6663 105.435 74.6167 104.168 75.2116 102.76C75.4967 102.126 75.7044 101.457 76.0247 100.859C76.2007 100.507 76.6583 99.9436 76.8343 100.014C77.2215 100.12 77.7847 100.542 77.8199 100.894C78.0311 102.232 78.3831 103.71 78.0663 104.942C77.2919 107.758 76.4119 110.574 75.1095 113.144C73.0679 117.156 69.1255 118.272 65.6407 118.67Z" fill="#A1A1A1"/>
<path d="M90.0697 106.068C89.5065 108.356 89.0841 110.468 88.4505 112.51C88.2358 113.249 87.6409 113.918 87.0777 114.481C83.8745 117.649 80.6361 120.817 77.3273 123.914C76.4222 124.718 75.3865 125.361 74.2649 125.815C73.2441 126.273 72.5753 125.639 72.8217 124.513C73.2441 122.647 73.5257 120.711 74.3001 118.986C74.8281 117.79 76.0249 116.874 77.0105 115.924C80.6009 112.404 84.2148 108.896 87.8521 105.399C88.1689 105.082 88.8025 104.801 89.1545 104.906C89.5065 105.082 89.76 105.681 90.0697 106.068Z" fill="#A1A1A1"/>
<path d="M102.21 105.716C101.788 109.835 101.052 113.46 97.8487 116.135C95.0327 118.494 92.53 121.275 89.7879 123.739C88.8178 124.596 87.7115 125.286 86.5143 125.78C85.4196 126.273 84.8599 125.604 85.1063 124.407C85.4583 122.859 85.7047 121.275 86.1975 119.796C86.5324 118.845 87.0733 117.98 87.7815 117.262C91.8647 113.249 95.9831 109.271 100.137 105.329C100.317 105.168 100.528 105.047 100.758 104.974C100.988 104.902 101.231 104.879 101.471 104.907C101.858 105.012 102.108 105.575 102.21 105.716Z" fill="#A1A1A1"/>
<path d="M104.713 115.808C103.551 115.773 102.879 114.787 103.442 113.696C104.268 112.128 105.259 110.653 106.399 109.296C107.001 108.592 107.983 108.205 108.863 107.783C109.567 107.431 109.641 107.079 109.215 106.48C108.509 105.589 107.885 104.634 107.353 103.629C107.225 103.348 107.156 103.044 107.149 102.735C107.142 102.427 107.198 102.12 107.314 101.834C108.032 100.507 108.832 99.2254 109.708 97.997C110.271 97.117 110.905 97.4338 111.362 98.0674C112.457 99.5106 113.513 101.024 114.569 102.503C116.892 105.776 116.716 105.706 114.882 109.261C113.196 112.499 110.306 113.802 107.212 114.963C106.304 115.291 105.417 115.572 104.713 115.808Z" fill="#A1A1A1"/>
<path d="M107.423 87.5177C106.473 87.8697 105.558 88.4329 104.607 88.5737C97.5673 89.5945 90.5625 90.5097 83.5225 91.4601C79.5097 91.9881 75.4969 92.4809 71.4489 92.9737C71.4137 92.8329 71.3433 92.7273 71.3081 92.5865C72.2937 92.2345 73.2089 91.6713 74.2297 91.5305C82.1497 90.4041 90.0697 89.3481 97.9545 88.2921C101.052 87.8697 104.15 87.4825 107.212 87.0601C107.296 87.2061 107.367 87.3592 107.423 87.5177Z" fill="#A1A1A1"/>
<path d="M89.1196 94.7339C89.3801 94.8623 89.6277 95.0155 89.8588 95.1915C90.598 95.8955 91.302 96.6347 92.006 97.3387C92.8508 98.1835 92.7804 99.0635 91.9708 99.8731C91.2668 100.612 90.5276 101.316 89.8236 102.02C89.3308 102.513 88.838 102.548 88.3452 102.055C87.5708 101.281 86.7612 100.542 86.022 99.7323C85.3532 98.9931 85.2828 98.2187 86.022 97.4795C86.7612 96.7403 87.5004 95.9659 88.2396 95.2267C88.5212 95.0155 88.838 94.9099 89.1196 94.7339Z" fill="#A1A1A1"/>
<path d="M103.516 59.7098C103.637 59.3653 103.815 59.044 104.044 58.7594C104.783 57.9498 105.593 57.2106 106.367 56.401C106.86 55.873 107.353 55.873 107.846 56.3658C108.585 57.105 109.359 57.8442 110.063 58.6186C110.838 59.4986 110.767 60.3786 109.958 61.1882C109.324 61.8803 108.655 62.5383 107.951 63.1594C107.635 63.4058 106.86 63.617 106.684 63.441C105.628 62.4906 104.674 61.4346 103.727 60.4138C103.587 60.3082 103.587 60.0618 103.516 59.7098Z" fill="#A1A1A1"/>
<path d="M88.0633 87.7292C88.4857 87.4828 88.9433 87.2012 89.3657 86.9548C89.7881 86.7084 90.2809 86.4268 90.7385 86.1452C89.8585 85.4764 89.4009 85.4764 87.4649 86.0044C87.4297 84.5964 88.3097 83.646 89.6473 83.646C90.0697 83.646 90.4569 83.646 90.8793 83.6812C92.3577 83.7516 92.7801 84.4204 92.0409 85.7228C91.1961 87.2364 89.8233 87.9052 88.0633 87.7292Z" fill="#A1A1A1"/>
<path d="M105.378 54.9578C106.121 54.3242 106.716 53.7962 107.388 53.233C107.283 52.9514 107.036 52.6698 107.072 52.3882C107.119 51.6997 107.273 51.0227 107.529 50.3818C107.631 50.1354 108.268 49.9594 108.546 50.065C108.824 50.1706 109.004 50.6634 109.004 51.0154C109.12 52.9162 107.6 54.56 105.378 54.9578Z" fill="#A1A1A1"/>
</svg>
