<svg width="176" height="176" viewBox="0 0 176 176" fill="none" xmlns="http://www.w3.org/2000/svg">
<path d="M44.7742 110.141C44.7742 108.451 44.8798 108.134 45.443 108.134V107.958C45.091 107.958 44.739 107.994 44.387 107.994C44.035 107.994 43.7182 107.958 43.4014 107.958V108.134C44.035 108.134 44.0702 108.416 44.0702 110.211V111.408C44.0702 113.027 43.8942 113.133 43.4366 113.168V113.344C43.7886 113.344 44.1054 113.309 44.4222 113.309C44.739 113.309 45.091 113.344 45.4078 113.344V113.168C44.9502 113.098 44.7742 113.133 44.7742 111.936V110.141Z" fill="#A1A1A1"/>
<path d="M48.3294 112.394C48.3294 113.063 48.2942 113.168 48.0478 113.168V113.344C48.2942 113.344 48.5406 113.309 48.7518 113.309C48.963 113.309 49.2446 113.344 49.4558 113.344V113.168C49.0686 113.168 48.963 112.851 48.963 112.535V110.739C48.9821 110.593 48.9715 110.445 48.9318 110.303C48.8922 110.161 48.8243 110.029 48.7323 109.914C48.6403 109.799 48.526 109.703 48.3963 109.633C48.2665 109.564 48.1241 109.521 47.9774 109.507H47.9422C47.5663 109.525 47.2123 109.689 46.9566 109.965V109.507H46.8862C46.5218 109.623 46.142 109.682 45.7598 109.683V109.859C46.147 109.859 46.2878 110.106 46.2878 110.739V112.499C46.2878 113.027 46.2878 113.274 45.7598 113.274V113.45C46.0062 113.45 46.2878 113.415 46.5342 113.415C46.7806 113.415 47.0622 113.45 47.3086 113.45V113.274C47.0622 113.274 46.9566 113.168 46.9566 112.781V110.282C47.0616 110.172 47.1872 110.085 47.3262 110.025C47.4651 109.964 47.6147 109.932 47.7662 109.93C48.0126 109.93 48.3998 110.176 48.3998 110.775L48.3294 112.394Z" fill="#A1A1A1"/>
<path d="M50.1949 109.613H49.8429L49.7373 109.965L50.2301 109.93V112.147C50.2301 113.063 50.6877 113.344 51.1805 113.344C51.3027 113.349 51.4247 113.33 51.5395 113.288C51.6542 113.245 51.7595 113.181 51.8493 113.098L51.7437 112.851C51.6437 112.895 51.5361 112.919 51.4269 112.922C50.9693 112.922 50.8637 112.535 50.8637 112.147V109.93H51.2157C51.3917 109.93 51.5677 109.965 51.7437 109.965L51.8493 109.613H50.8637V108.733H50.7229C50.5532 108.791 50.3738 108.815 50.1949 108.803V109.613Z" fill="#A1A1A1"/>
<path d="M52.9053 110.774C52.9053 110.493 53.0813 109.789 53.6093 109.789C53.7883 109.802 53.9561 109.881 54.0798 110.011C54.2035 110.141 54.2742 110.313 54.2781 110.493C54.2781 110.739 54.2077 110.774 53.9261 110.774H52.9053ZM54.7357 112.781C54.5116 112.945 54.2394 113.032 53.9613 113.027C53.3277 113.027 52.8349 112.323 52.8349 111.408V111.021H54.8413C54.8685 110.917 54.8804 110.81 54.8765 110.704C54.8869 110.546 54.866 110.388 54.8148 110.239C54.7637 110.09 54.6834 109.952 54.5786 109.834C54.4737 109.716 54.3465 109.62 54.2043 109.552C54.062 109.484 53.9076 109.445 53.7501 109.437H53.6797C52.5181 109.437 52.1309 110.528 52.1309 111.443C52.1309 112.569 52.6237 113.379 53.7501 113.379C54.1479 113.382 54.5383 113.272 54.8765 113.062L54.7357 112.781Z" fill="#A1A1A1"/>
<path d="M55.6862 112.393C55.6862 112.886 55.6862 113.062 55.1934 113.168V113.344C55.5102 113.344 55.827 113.309 56.179 113.309C56.531 113.309 56.8478 113.344 57.1646 113.344V113.168C56.4958 113.168 56.3198 112.816 56.3198 112.253V110.528C56.377 110.393 56.4692 110.277 56.5868 110.19C56.7045 110.103 56.8432 110.05 56.9886 110.035C57.1998 110.035 57.2702 110.141 57.4462 110.141C57.6222 110.141 57.8334 109.824 57.8334 109.683C57.8334 109.542 57.5518 109.437 57.3406 109.437C57.1329 109.455 56.9335 109.526 56.761 109.643C56.5885 109.76 56.4488 109.919 56.355 110.105C56.3482 109.882 56.3599 109.658 56.3902 109.437H56.355C56.002 109.549 55.6342 109.608 55.2638 109.613V109.789C55.5806 109.789 55.7566 109.894 55.7566 110.633V112.393H55.6862Z" fill="#A1A1A1"/>
<path d="M60.6844 112.394C60.6844 113.063 60.6492 113.168 60.4028 113.168V113.344C60.6492 113.344 60.8956 113.309 61.1068 113.309C61.318 113.309 61.5996 113.344 61.8108 113.344V113.168C61.4236 113.168 61.318 112.851 61.318 112.535V110.739C61.3507 110.445 61.2651 110.15 61.0803 109.919C60.8955 109.688 60.6265 109.54 60.3324 109.507H60.262C59.8862 109.525 59.5321 109.689 59.2764 109.965V109.507H59.1708C58.8064 109.623 58.4266 109.682 58.0444 109.683V109.859C58.4316 109.859 58.5724 110.106 58.5724 110.739V112.499C58.5724 113.027 58.5724 113.274 58.0444 113.274V113.45C58.2908 113.45 58.5724 113.415 58.8188 113.415C59.0652 113.415 59.3468 113.45 59.5932 113.45V113.274C59.3468 113.274 59.2412 113.168 59.2412 112.781V110.282C59.3463 110.172 59.4719 110.085 59.6108 110.025C59.7498 109.964 59.8993 109.932 60.0508 109.93C60.3324 109.93 60.6844 110.176 60.6844 110.775V112.394Z" fill="#A1A1A1"/>
<path d="M64.2399 112.745C64.1499 112.826 64.0437 112.887 63.9283 112.923C63.813 112.96 63.6912 112.971 63.5711 112.956C63.4877 112.962 63.4042 112.95 63.3253 112.923C63.2464 112.896 63.1737 112.853 63.1115 112.797C63.0493 112.742 62.9987 112.674 62.9628 112.599C62.9269 112.523 62.9063 112.441 62.9023 112.358V112.323C62.9023 111.654 63.4655 111.548 64.2399 111.337V112.78V112.745ZM62.4799 110.598H62.5855C62.5753 110.498 62.5857 110.397 62.6161 110.301C62.6465 110.205 62.6963 110.117 62.7622 110.041C62.8282 109.965 62.909 109.903 62.9997 109.86C63.0904 109.817 63.189 109.792 63.2895 109.788H63.3951C63.5756 109.773 63.7551 109.827 63.8985 109.937C64.0418 110.048 64.1385 110.208 64.1695 110.387V111.056C63.6415 111.372 62.1631 111.513 62.1631 112.534C62.1631 113.097 62.4447 113.449 63.1487 113.449C63.5027 113.452 63.8483 113.341 64.1343 113.132L64.1695 113.414C64.3675 113.385 64.5678 113.373 64.7679 113.379H65.2255V113.203C64.9087 113.168 64.8383 112.956 64.8383 112.64V110.809C64.8633 110.666 64.8594 110.519 64.8267 110.377C64.7941 110.235 64.7333 110.101 64.648 109.983C64.5627 109.865 64.4546 109.765 64.3301 109.689C64.2056 109.613 64.0672 109.563 63.9231 109.542C63.8084 109.507 63.6858 109.507 63.5711 109.542C63.1627 109.543 62.7619 109.652 62.4095 109.859L62.4799 110.598Z" fill="#A1A1A1"/>
<path d="M66.211 109.613H65.859L65.7534 109.965L66.2814 109.93V112.147C66.2814 113.063 66.739 113.344 67.2318 113.344C67.354 113.349 67.476 113.33 67.5908 113.288C67.7055 113.245 67.8108 113.181 67.9006 113.098L67.795 112.851C67.695 112.895 67.5874 112.919 67.4782 112.922C67.0206 112.922 66.915 112.535 66.915 112.147V109.93H67.267C67.443 109.93 67.619 109.965 67.7598 109.965L67.8654 109.613H66.8798V108.733H66.7742C66.6051 108.793 66.4252 108.817 66.2462 108.803L66.211 109.613Z" fill="#A1A1A1"/>
<path d="M69.0975 107.994C69.0481 107.993 68.9993 108.004 68.9541 108.023C68.9089 108.043 68.8684 108.072 68.8352 108.109C68.802 108.145 68.7769 108.188 68.7614 108.235C68.746 108.282 68.7405 108.332 68.7455 108.381V108.416C68.7491 108.52 68.785 108.619 68.8481 108.701C68.9112 108.783 68.9984 108.844 69.0975 108.874C69.1977 108.852 69.2874 108.796 69.3517 108.716C69.416 108.636 69.451 108.536 69.451 108.434C69.451 108.331 69.416 108.231 69.3517 108.151C69.2874 108.071 69.1977 108.016 69.0975 107.994ZM68.1119 109.824C68.4287 109.824 68.6047 109.894 68.6047 110.634V112.394C68.6047 113.027 68.5343 113.168 68.1119 113.168V113.344C68.3935 113.344 68.6399 113.309 68.9215 113.309C69.2031 113.309 69.4495 113.344 69.6959 113.344V113.168C69.3439 113.168 69.2383 112.957 69.2383 112.675V110.176C69.2314 109.964 69.2432 109.752 69.2735 109.542H69.1679C68.8149 109.655 68.4471 109.714 68.0767 109.718V109.824H68.1119Z" fill="#A1A1A1"/>
<path d="M71.7021 109.753C72.5469 109.753 72.5821 111.161 72.5821 111.513C72.5821 112.499 72.3357 113.027 71.7373 113.027C71.1389 113.027 70.8573 112.217 70.8573 111.232C70.8573 110.246 71.1389 109.753 71.7021 109.753ZM71.7725 109.437C70.7869 109.437 70.1533 110.246 70.1533 111.408C70.1533 112.569 70.7869 113.379 71.6669 113.379C72.7933 113.379 73.2861 112.429 73.2861 111.373C73.2861 110.317 72.7229 109.437 71.7725 109.437Z" fill="#A1A1A1"/>
<path d="M76.243 112.394C76.243 113.063 76.2078 113.168 75.9614 113.168V113.344C76.2078 113.344 76.4542 113.309 76.6654 113.309C76.8766 113.309 77.1582 113.344 77.3694 113.344V113.168C76.9822 113.168 76.8766 112.851 76.8766 112.535V110.739C76.8932 110.594 76.8809 110.446 76.8403 110.305C76.7997 110.164 76.7316 110.033 76.64 109.918C76.5484 109.804 76.4351 109.709 76.3065 109.638C76.178 109.568 76.0368 109.523 75.891 109.507H75.8206C75.4447 109.525 75.0907 109.689 74.835 109.965V109.507H74.7646C74.4002 109.623 74.0204 109.682 73.6382 109.683V109.859C74.0254 109.859 74.1662 110.106 74.1662 110.739V112.499C74.1662 113.027 74.1662 113.274 73.6382 113.274V113.45C73.8846 113.45 74.1662 113.415 74.4126 113.415C74.659 113.415 74.9406 113.45 75.187 113.45V113.274C74.9406 113.274 74.835 113.168 74.835 112.781V110.282C74.94 110.172 75.0656 110.085 75.2046 110.025C75.3435 109.964 75.4931 109.932 75.6446 109.93C75.9262 109.93 76.2782 110.176 76.2782 110.775L76.243 112.394Z" fill="#A1A1A1"/>
<path d="M79.8336 112.745C79.7436 112.826 79.6374 112.887 79.522 112.923C79.4067 112.96 79.2849 112.971 79.1648 112.956C79.0815 112.962 78.9979 112.95 78.919 112.923C78.8401 112.896 78.7674 112.853 78.7052 112.797C78.643 112.742 78.5924 112.674 78.5565 112.599C78.5206 112.523 78.5 112.441 78.496 112.358V112.323C78.496 111.654 79.0592 111.548 79.8336 111.337V112.78V112.745ZM78.1088 110.598H78.2144C78.2067 110.499 78.2189 110.398 78.2503 110.304C78.2816 110.209 78.3315 110.121 78.397 110.046C78.4625 109.971 78.5423 109.909 78.6319 109.865C78.7214 109.821 78.8188 109.795 78.9184 109.788H79.024C79.2045 109.773 79.3841 109.827 79.5274 109.937C79.6707 110.048 79.7674 110.208 79.7984 110.387V111.056C79.2704 111.372 77.792 111.513 77.792 112.534C77.792 113.097 78.0736 113.449 78.7776 113.449C79.1316 113.452 79.4772 113.341 79.7632 113.132L79.7984 113.414C79.9847 113.386 80.1732 113.374 80.3616 113.379H80.8192V113.203C80.7511 113.199 80.6846 113.18 80.624 113.149C80.5633 113.118 80.5098 113.075 80.4667 113.022C80.4237 112.969 80.3922 112.908 80.3741 112.842C80.356 112.776 80.3517 112.707 80.3616 112.64V110.809C80.3867 110.666 80.3827 110.519 80.3501 110.377C80.3174 110.235 80.2566 110.101 80.1713 109.983C80.086 109.865 79.9779 109.765 79.8534 109.689C79.7289 109.613 79.5905 109.563 79.4464 109.542C79.3317 109.507 79.2091 109.507 79.0944 109.542C78.6966 109.54 78.3061 109.649 77.968 109.859L78.1088 110.598Z" fill="#A1A1A1"/>
<path d="M81.3468 107.571C81.6636 107.571 81.8396 107.606 81.8396 108.346V112.323C81.8396 112.922 81.6636 113.168 81.3468 113.168V113.344C81.6284 113.344 81.8748 113.309 82.1212 113.309C82.3676 113.309 82.6492 113.344 82.9308 113.344V113.168C82.5788 113.133 82.4732 112.992 82.4732 112.253V108.733C82.4732 108.627 82.5084 107.606 82.5084 107.29H82.3324C82.0156 107.36 81.6636 107.395 81.2764 107.466L81.3468 107.571Z" fill="#A1A1A1"/>
<path d="M84.9024 108.135C85.7472 108.205 85.7824 108.416 85.7824 108.768C85.7824 109.12 85.6768 111.056 85.5712 111.831C85.5008 112.887 85.2896 113.098 84.8672 113.203V113.379C85.1488 113.379 85.4656 113.344 85.7824 113.344C86.0992 113.344 86.3808 113.379 86.6976 113.379V113.203C86.1344 113.133 85.9936 112.887 86.0288 112.253L86.2048 109.085L88.0352 113.379H88.4928L90.288 109.085C90.3232 109.613 90.4992 111.76 90.4992 112.288C90.4992 112.887 90.288 113.133 89.6896 113.168V113.344C90.0416 113.344 90.464 113.309 90.816 113.309C91.168 113.309 91.52 113.344 91.9424 113.344V113.168C91.4496 113.133 91.3088 112.781 91.2736 112.288C91.2384 111.725 91.0624 109.613 91.0624 109.226C91.0624 108.592 91.1328 108.17 91.872 108.099V107.923C91.6256 107.923 91.3792 107.959 91.0976 107.959C90.816 107.959 90.6048 107.923 90.3232 107.923L88.4224 112.323L86.4864 107.923C86.2048 107.923 85.9584 107.959 85.6768 107.959C85.3952 107.959 85.1488 107.923 84.9024 107.923V108.135Z" fill="#A1A1A1"/>
<path d="M92.9277 110.774C92.9277 110.493 93.1037 109.789 93.6317 109.789C93.8108 109.802 93.9786 109.881 94.1023 110.011C94.2259 110.141 94.2966 110.313 94.3005 110.493C94.3005 110.739 94.2301 110.774 93.9485 110.774H92.9277ZM94.7581 112.781C94.534 112.945 94.2619 113.032 93.9837 113.027C93.3501 113.027 92.8573 112.323 92.8573 111.408V111.021H94.8637C94.891 110.917 94.9029 110.81 94.8989 110.704C94.9094 110.546 94.8885 110.388 94.8373 110.239C94.7862 110.09 94.7058 109.952 94.601 109.834C94.4962 109.716 94.369 109.62 94.2267 109.552C94.0845 109.484 93.9301 109.445 93.7725 109.437H93.7021C92.5405 109.437 92.1533 110.528 92.1533 111.443C92.1533 112.569 92.6813 113.379 93.7725 113.379C94.1703 113.382 94.5608 113.272 94.8989 113.062L94.7581 112.781Z" fill="#A1A1A1"/>
<path d="M97.8204 112.64C97.73 112.737 97.6212 112.815 97.5003 112.869C97.3794 112.924 97.2489 112.954 97.1164 112.957C96.518 112.957 96.1308 112.182 96.1308 111.056C96.1308 109.93 96.7644 109.683 97.0108 109.683C97.2572 109.683 97.5388 109.859 97.8556 110.246L97.8204 112.64ZM97.222 107.571C97.7852 107.536 97.8204 107.642 97.8204 108.662V109.718C97.5582 109.541 97.2556 109.432 96.9404 109.402C95.8844 109.402 95.3916 110.493 95.3916 111.302C95.3916 112.288 95.9196 113.344 96.8348 113.344C97.2107 113.327 97.5647 113.162 97.8204 112.886C97.8267 113.018 97.8504 113.148 97.8908 113.274C98.2428 113.238 98.5948 113.238 99.0172 113.238V113.062C98.5596 113.062 98.4892 112.851 98.4892 112.429V107.219H98.3836C98.0143 107.312 97.6372 107.371 97.2572 107.395L97.222 107.571Z" fill="#A1A1A1"/>
<path d="M100.284 107.994C100.235 107.993 100.186 108.004 100.141 108.023C100.096 108.043 100.055 108.072 100.022 108.109C99.989 108.145 99.9638 108.188 99.9484 108.235C99.9329 108.282 99.9274 108.332 99.9324 108.381V108.416C99.9364 108.525 99.9768 108.629 100.047 108.712C100.117 108.795 100.213 108.852 100.32 108.874C100.422 108.851 100.514 108.794 100.578 108.71C100.643 108.627 100.676 108.524 100.672 108.419C100.667 108.314 100.626 108.213 100.556 108.136C100.485 108.058 100.389 108.008 100.284 107.994ZM99.334 109.824C99.6508 109.824 99.8268 109.894 99.8268 110.634V112.429C99.8268 113.062 99.7564 113.203 99.334 113.203V113.379C99.6156 113.379 99.862 113.344 100.144 113.344C100.425 113.344 100.672 113.379 100.953 113.379V113.203C100.601 113.203 100.496 112.992 100.496 112.71V110.211C100.488 109.999 100.499 109.787 100.531 109.578H100.425C100.075 109.701 99.7009 109.737 99.334 109.683V109.824Z" fill="#A1A1A1"/>
<path d="M103.91 112.71C103.739 112.872 103.512 112.96 103.277 112.957C102.96 112.957 102.08 112.71 102.08 111.197C102.08 110.387 102.326 109.718 103.171 109.718C103.84 109.718 104.016 110.105 104.051 110.422H104.227V109.472C103.88 109.4 103.526 109.365 103.171 109.366C101.622 109.366 101.446 110.88 101.446 111.408C101.419 111.632 101.437 111.86 101.499 112.077C101.561 112.295 101.665 112.498 101.806 112.675C101.947 112.851 102.121 112.999 102.319 113.107C102.517 113.216 102.735 113.285 102.96 113.309H103.03C103.444 113.282 103.845 113.149 104.192 112.921L103.91 112.71Z" fill="#A1A1A1"/>
<path d="M106.586 112.745C106.496 112.826 106.389 112.887 106.274 112.923C106.159 112.96 106.037 112.971 105.917 112.956C105.833 112.962 105.75 112.95 105.671 112.923C105.592 112.896 105.519 112.853 105.457 112.797C105.395 112.742 105.344 112.674 105.308 112.599C105.273 112.523 105.252 112.441 105.248 112.358V112.288C105.248 111.619 105.811 111.513 106.621 111.302L106.586 112.745ZM104.861 110.598H104.966C104.956 110.498 104.967 110.397 104.997 110.301C105.027 110.205 105.077 110.117 105.143 110.041C105.209 109.965 105.29 109.903 105.381 109.86C105.471 109.817 105.57 109.792 105.67 109.788H105.776C105.956 109.773 106.136 109.827 106.279 109.937C106.423 110.048 106.519 110.208 106.55 110.387V111.056C106.022 111.372 104.544 111.513 104.544 112.534C104.544 113.097 104.826 113.449 105.53 113.449C105.884 113.452 106.229 113.341 106.515 113.132L106.55 113.414C106.748 113.385 106.949 113.373 107.149 113.379H107.606V113.203C107.29 113.168 107.219 112.956 107.219 112.64V110.809C107.244 110.666 107.24 110.519 107.208 110.377C107.175 110.235 107.114 110.101 107.029 109.983C106.944 109.865 106.835 109.765 106.711 109.689C106.586 109.613 106.448 109.563 106.304 109.542C106.189 109.507 106.067 109.507 105.952 109.542C105.554 109.54 105.164 109.649 104.826 109.859V110.598H104.861Z" fill="#A1A1A1"/>
<path d="M108.099 107.571C108.451 107.571 108.592 107.606 108.592 108.346V112.323C108.592 112.922 108.416 113.168 108.099 113.168V113.344C108.38 113.344 108.627 113.309 108.908 113.309C109.19 113.309 109.436 113.344 109.683 113.344V113.168C109.331 113.133 109.225 112.992 109.225 112.253V108.733C109.225 108.627 109.225 107.606 109.26 107.29H109.084C108.768 107.36 108.416 107.395 108.028 107.466C108.099 107.43 108.099 107.571 108.099 107.571Z" fill="#A1A1A1"/>
<path d="M116.652 111.83C116.605 112.185 116.419 112.506 116.135 112.724C115.852 112.942 115.493 113.038 115.139 112.992C114.826 112.996 114.516 112.938 114.227 112.821C113.937 112.704 113.673 112.531 113.45 112.312C113.228 112.093 113.051 111.831 112.93 111.543C112.809 111.255 112.746 110.946 112.745 110.634V110.422C112.732 110.152 112.773 109.881 112.865 109.626C112.957 109.371 113.099 109.137 113.282 108.937C113.466 108.737 113.687 108.576 113.933 108.462C114.179 108.349 114.445 108.285 114.716 108.275H114.963C116.371 108.275 116.582 109.19 116.582 109.542H116.758C116.758 109.014 116.793 108.486 116.828 108.029C116.441 108.029 115.561 107.958 114.892 107.958C112.569 107.958 111.936 109.578 111.936 110.563C111.936 111.901 112.78 113.414 114.998 113.414C115.498 113.416 115.996 113.345 116.476 113.203C116.647 112.761 116.765 112.3 116.828 111.83H116.652Z" fill="#A1A1A1"/>
<path d="M118.131 110.774C118.131 110.493 118.307 109.789 118.835 109.789C119.014 109.802 119.182 109.881 119.305 110.011C119.429 110.141 119.5 110.313 119.504 110.493C119.504 110.739 119.433 110.774 119.152 110.774H118.131ZM119.996 112.781C119.772 112.945 119.5 113.032 119.222 113.027C118.588 113.027 118.096 112.323 118.096 111.408V111.021H120.102C120.129 110.917 120.141 110.81 120.137 110.704C120.154 110.392 120.05 110.087 119.846 109.851C119.643 109.614 119.356 109.466 119.046 109.437H118.976C117.814 109.437 117.427 110.528 117.427 111.443C117.427 112.569 117.92 113.379 119.046 113.379C119.444 113.382 119.834 113.272 120.172 113.062L119.996 112.781Z" fill="#A1A1A1"/>
<path d="M123.094 112.394C123.094 113.063 123.059 113.168 122.812 113.168V113.344C123.059 113.344 123.305 113.309 123.516 113.309C123.728 113.309 124.009 113.344 124.22 113.344V113.168C123.833 113.168 123.728 112.851 123.728 112.535V110.739C123.746 110.588 123.732 110.434 123.688 110.288C123.644 110.142 123.57 110.007 123.47 109.891C123.371 109.776 123.249 109.682 123.111 109.616C122.974 109.549 122.824 109.513 122.672 109.507H122.636C122.261 109.525 121.907 109.689 121.651 109.965V109.507H121.58C121.216 109.623 120.836 109.682 120.454 109.683V109.859C120.841 109.859 120.982 110.141 120.982 110.739V112.499C120.982 113.027 120.982 113.274 120.489 113.274V113.45C120.736 113.45 120.982 113.415 121.264 113.415C121.545 113.415 121.792 113.45 122.038 113.45V113.274C121.792 113.274 121.686 113.168 121.686 112.781V110.282C121.791 110.172 121.917 110.085 122.056 110.025C122.195 109.964 122.344 109.932 122.496 109.93C122.742 109.93 123.129 110.176 123.129 110.775L123.094 112.394Z" fill="#A1A1A1"/>
<path d="M124.995 109.613H124.643L124.538 109.965L125.03 109.93V112.147C125.03 113.063 125.488 113.344 125.981 113.344C126.103 113.349 126.225 113.33 126.34 113.288C126.455 113.245 126.56 113.181 126.65 113.098L126.544 112.851C126.444 112.895 126.336 112.919 126.227 112.922C125.77 112.922 125.664 112.535 125.664 112.147V109.93H126.016C126.192 109.93 126.368 109.965 126.509 109.965L126.614 109.613H125.629V108.733H125.523C125.354 108.793 125.174 108.817 124.995 108.803V109.578V109.613Z" fill="#A1A1A1"/>
<path d="M127.67 110.774C127.67 110.493 127.846 109.789 128.374 109.789C128.555 109.798 128.725 109.876 128.849 110.007C128.974 110.138 129.043 110.312 129.043 110.493C129.043 110.739 128.973 110.774 128.691 110.774H127.67ZM129.536 112.781C129.312 112.945 129.04 113.032 128.762 113.027C128.128 113.027 127.635 112.323 127.635 111.408V111.021H129.641C129.669 110.917 129.681 110.81 129.677 110.704C129.694 110.392 129.589 110.087 129.386 109.851C129.183 109.614 128.896 109.466 128.586 109.437H128.515C127.354 109.437 126.966 110.528 126.966 111.443C126.966 112.569 127.494 113.379 128.586 113.379C128.983 113.382 129.374 113.272 129.712 113.062L129.536 112.781Z" fill="#A1A1A1"/>
<path d="M130.451 112.393C130.451 112.886 130.451 113.062 129.958 113.168V113.344C130.275 113.344 130.627 113.309 130.944 113.309C131.26 113.309 131.612 113.344 131.929 113.344V113.168C131.26 113.168 131.084 112.816 131.084 112.253V110.528C131.296 110.246 131.472 110.035 131.753 110.035C131.964 110.035 132.035 110.141 132.211 110.141C132.387 110.141 132.598 109.824 132.598 109.683C132.598 109.542 132.316 109.437 132.105 109.437C131.718 109.437 131.401 109.683 131.049 110.105C131.042 109.882 131.054 109.658 131.084 109.437H130.979C130.626 109.549 130.258 109.608 129.888 109.613V109.789C130.204 109.789 130.38 109.894 130.38 110.633V112.393H130.451Z" fill="#A1A1A1"/>
<path d="M76.5248 75.5391C76.5248 69.1327 86.8384 63.5359 88.0352 62.9023H87.8592C88.352 63.1487 99.3696 68.9567 99.3696 75.5391V92.2943L99.5456 92.1183H76.3488L76.5248 92.2943V75.5391ZM76.384 92.4351H99.7568V75.5391C99.7568 68.8511 89.2672 63.1839 88.0704 62.5855L88 62.5503L87.9296 62.5855C86.7328 63.2191 76.2432 68.9215 76.2432 75.5391V92.4351H76.384Z" fill="#A1A1A1"/>
<path d="M87.9649 69.4148C87.5013 69.4054 87.0406 69.4886 86.6097 69.6596C86.1787 69.8305 85.7862 70.0857 85.4551 70.4102C85.124 70.7348 84.861 71.1221 84.6815 71.5495C84.502 71.977 84.4096 72.436 84.4097 72.8996V73.1108C84.4341 73.433 84.4931 73.7516 84.5857 74.0612L84.7617 74.5892C84.7033 74.2759 84.6797 73.9572 84.6913 73.6388C84.775 72.8346 85.1582 72.0913 85.7646 71.5566C86.3711 71.0218 87.1565 70.7348 87.9649 70.7524H88.0353C88.8482 70.7169 89.6434 70.9977 90.2537 71.5359C90.8641 72.074 91.2423 72.8277 91.3089 73.6388C91.3205 73.9572 91.2969 74.2759 91.2385 74.5892L91.4145 74.0964C91.4843 73.7844 91.5198 73.4657 91.5201 73.146C91.5681 72.2179 91.2472 71.3085 90.6274 70.6161C90.0075 69.9237 89.139 69.5045 88.2113 69.45C88.1319 69.4237 88.0484 69.4118 87.9649 69.4148Z" fill="#A1A1A1"/>
<path d="M91.3089 73.6738C91.3243 73.8991 91.3005 74.1254 91.2385 74.3426C91.4306 73.9093 91.5381 73.4434 91.5553 72.9698C91.5553 72.0176 91.177 71.1043 90.5037 70.431C89.8304 69.7577 88.9171 69.3794 87.9649 69.3794C87.0127 69.3794 86.0994 69.7577 85.4261 70.431C84.7528 71.1043 84.3745 72.0176 84.3745 72.9698C84.3746 73.4455 84.483 73.9149 84.6913 74.3426C84.6629 74.1208 84.6512 73.8973 84.6561 73.6738C84.6556 73.2391 84.7409 72.8087 84.907 72.407C85.0732 72.0054 85.3169 71.6404 85.6242 71.3331C85.9315 71.0257 86.2965 70.782 86.6981 70.6159C87.0998 70.4498 87.5303 70.3645 87.9649 70.365H88.0353C88.9076 70.3715 89.7418 70.7233 90.3553 71.3434C90.9689 71.9636 91.3117 72.8015 91.3089 73.6738Z" fill="#A1A1A1"/>
<path d="M96.6593 77.8628C96.5172 76.9184 96.0093 76.0678 95.2453 75.4948C94.4813 74.9218 93.5225 74.6724 92.5761 74.8004C92.5155 74.7981 92.4552 74.8101 92.4001 74.8356C91.9217 74.9343 91.4673 75.1256 91.0625 75.3988L91.1681 75.6452C91.3793 75.5748 91.6257 75.5396 91.8017 75.4692C92.6487 75.3238 93.5193 75.5094 94.2333 75.9877C94.9474 76.4659 95.4505 77.2002 95.6385 78.0388V78.1092C95.7521 78.9562 95.5333 79.8142 95.028 80.5033C94.5226 81.1924 93.77 81.659 92.9281 81.8052C92.7064 81.8336 92.4828 81.8454 92.2593 81.8404L92.2241 82.122C92.6942 82.2506 93.1869 82.2746 93.6673 82.1924C94.1544 82.1179 94.6211 81.9446 95.0389 81.6833C95.4566 81.422 95.8166 81.0781 96.0968 80.6727C96.3769 80.2673 96.5713 79.809 96.668 79.3258C96.7648 78.8426 96.7618 78.3448 96.6593 77.8628Z" fill="#A1A1A1"/>
<path d="M95.6736 77.8976C95.5183 77.0347 95.0273 76.2685 94.3081 75.7671C93.5888 75.2656 92.7001 75.0697 91.8368 75.2224C91.6056 75.2434 91.3795 75.3029 91.168 75.3984C91.5474 75.1261 91.9787 74.9344 92.4352 74.8352C93.3637 74.6765 94.3174 74.8877 95.0923 75.4234C95.8671 75.9591 96.4014 76.7769 96.5808 77.7016C96.7602 78.6264 96.5705 79.5846 96.0523 80.3712C95.534 81.1578 94.7285 81.7103 93.808 81.9104H93.7024C93.2445 81.9758 92.7783 81.9519 92.3296 81.84C92.5542 81.8378 92.7782 81.8142 92.9984 81.7696C93.8612 81.6097 94.6275 81.1191 95.1338 80.4024C95.6401 79.6857 95.8465 78.7995 95.7088 77.9328L95.6736 77.8976Z" fill="#A1A1A1"/>
<path d="M79.2704 77.8628C79.4124 76.9184 79.9203 76.0678 80.6844 75.4948C81.4484 74.9218 82.4072 74.6724 83.3536 74.8004C83.4142 74.7981 83.4745 74.8101 83.5296 74.8356C84.0079 74.9343 84.4623 75.1256 84.8672 75.3988L84.7616 75.6452C84.5504 75.5748 84.304 75.5396 84.128 75.4692C83.2809 75.3238 82.4104 75.5094 81.6963 75.9877C80.9822 76.4659 80.4792 77.2002 80.2912 78.0388V78.1092C80.1775 78.9562 80.3964 79.8142 80.9017 80.5033C81.407 81.1924 82.1596 81.659 83.0016 81.8052C83.2233 81.8336 83.4469 81.8454 83.6704 81.8404L83.7056 82.122C83.2354 82.2506 82.7428 82.2746 82.2624 82.1924C81.2978 82.0071 80.4457 81.448 79.8918 80.6369C79.3379 79.8258 79.1272 78.8286 79.3056 77.8628C79.2704 77.898 79.2704 77.898 79.2704 77.8628Z" fill="#A1A1A1"/>
<path d="M80.2207 77.8976C80.3799 77.0297 80.8771 76.2604 81.6031 75.7588C82.3291 75.2572 83.2246 75.0643 84.0927 75.2224C84.3239 75.2434 84.5499 75.3029 84.7615 75.3984C84.382 75.1261 83.9507 74.9344 83.4943 74.8352C82.5618 74.6824 81.6065 74.9004 80.8326 75.4427C80.0587 75.985 79.5276 76.8085 79.3529 77.7372C79.1782 78.6659 79.3737 79.626 79.8977 80.4125C80.4216 81.1989 81.2324 81.7492 82.1567 81.9456H82.1919C82.6498 82.0111 83.1159 81.9872 83.5647 81.8752C83.34 81.873 83.1161 81.8495 82.8959 81.8048C82.033 81.645 81.2668 81.1544 80.7604 80.4376C80.2541 79.7209 80.0478 78.8347 80.1855 77.968L80.2207 77.8976Z" fill="#A1A1A1"/>
<path d="M93.0339 89.5137H92.7875C91.9297 89.4667 91.1153 89.1217 90.485 88.538C89.8546 87.9544 89.4479 87.1689 89.3352 86.3173C89.2225 85.4657 89.4108 84.6014 89.8676 83.8739C90.3245 83.1464 91.0211 82.6013 91.8371 82.3329L91.8019 82.0513C90.7489 82.1402 89.7736 82.6412 89.0881 83.4454C88.4025 84.2496 88.0622 85.2919 88.1411 86.3457C88.2158 87.273 88.6181 88.1434 89.2759 88.8012C89.9337 89.4591 90.8042 89.8613 91.7315 89.9361C92.1845 89.9642 92.6387 89.9044 93.0691 89.7601L93.0339 89.5137Z" fill="#A1A1A1"/>
<path d="M92.7874 89.4786C92.2848 89.4517 91.7925 89.3253 91.3391 89.1067C90.8857 88.888 90.4802 88.5815 90.1462 88.2049C89.8122 87.8284 89.5563 87.3892 89.3933 86.913C89.2304 86.4367 89.1637 85.9328 89.197 85.4306C89.2417 84.6575 89.5171 83.9156 89.9877 83.3007C90.4583 82.6858 91.1025 82.226 91.837 81.981C91.2923 81.9961 90.7572 82.1281 90.2679 82.368C89.7786 82.6078 89.3465 82.95 89.0009 83.3713C88.6553 83.7926 88.4042 84.2833 88.2646 84.81C88.125 85.3368 88.1002 85.8874 88.1919 86.4246C88.2835 86.9617 88.4895 87.473 88.7958 87.9237C89.1022 88.3743 89.5017 88.754 89.9675 89.0368C90.4333 89.3197 90.9543 89.4993 91.4955 89.5633C92.0367 89.6274 92.5853 89.5745 93.1042 89.4082C93.0075 89.4614 92.8976 89.4859 92.7874 89.4786Z" fill="#A1A1A1"/>
<path d="M82.8609 89.5137H83.1073C83.5909 89.4898 84.065 89.3706 84.5023 89.1627C84.9396 88.9549 85.3315 88.6627 85.6554 88.3028C85.9793 87.9429 86.2288 87.5225 86.3896 87.0658C86.5503 86.6091 86.6192 86.1251 86.5921 85.6417C86.5548 84.8932 86.2883 84.1743 85.8286 83.5824C85.369 82.9905 84.7385 82.5543 84.0225 82.3329L84.0577 82.0513C85.1058 82.1524 86.0735 82.6569 86.7566 83.4581C87.4397 84.2594 87.7846 85.2948 87.7185 86.3457C87.6438 87.273 87.2415 88.1434 86.5837 88.8012C85.9259 89.4591 85.0554 89.8613 84.1281 89.9361C83.6751 89.9642 83.2209 89.9044 82.7905 89.7601L82.8609 89.5137Z" fill="#A1A1A1"/>
<path d="M83.1072 89.4785C83.9962 89.4228 84.8379 89.0589 85.4875 88.4496C86.1371 87.8403 86.5541 87.0236 86.6666 86.1401C86.7791 85.2566 86.5802 84.3615 86.104 83.6088C85.6278 82.8561 84.9042 82.2929 84.0576 82.0161C84.5593 82.0457 85.0503 82.174 85.5023 82.3935C85.9544 82.6131 86.3588 82.9196 86.6922 83.2956C87.0257 83.6716 87.2818 84.1096 87.4458 84.5847C87.6098 85.0597 87.6785 85.5625 87.648 86.0641C87.5974 86.9906 87.2066 87.8657 86.5505 88.5218C85.8944 89.1778 85.0193 89.5687 84.0928 89.6193C83.6749 89.6351 83.2576 89.5755 82.8608 89.4433C82.9396 89.4722 83.0236 89.4842 83.1072 89.4785Z" fill="#A1A1A1"/>
<path d="M112.957 104.192H102.362C102.356 104.452 102.332 104.711 102.291 104.967L102.256 105.143L102.221 105.213C102.221 105.248 102.221 105.248 102.186 105.284L102.115 105.46L102.08 105.53L102.045 105.6C101.939 105.837 101.765 106.036 101.546 106.174C101.327 106.312 101.072 106.382 100.813 106.375C100.573 106.38 100.337 106.306 100.144 106.164C99.9436 106.006 99.7863 105.8 99.6865 105.565L99.7921 105.495C99.9839 105.677 100.232 105.789 100.496 105.812C100.568 105.815 100.64 105.803 100.707 105.776C100.768 105.779 100.828 105.767 100.883 105.741C101.038 105.694 101.177 105.608 101.288 105.49C101.399 105.373 101.478 105.229 101.517 105.072L101.552 104.896L101.587 104.615V103.524H101.235V103.348L101.341 103.312L101.552 103.207C101.622 103.136 101.728 103.101 101.798 102.996L102.045 102.679L102.115 102.573L102.186 102.397L102.362 102.432V103.524H112.429V103.242C112.429 102.89 112.218 102.89 111.795 102.89H105.318V102.045L109.366 98.3844C109.402 98.3492 109.402 98.314 109.437 98.314C109.472 98.314 109.472 98.3492 109.472 98.3844C109.472 98.4196 109.366 98.5604 109.296 98.666C109.296 98.7012 108.979 99.2996 108.979 99.37C109.039 99.5158 109.075 99.6704 109.085 99.8276C109.085 100.074 109.014 100.215 108.909 100.215C108.803 100.215 108.874 99.9332 108.698 99.9332C108.541 99.9613 108.402 100.05 108.31 100.18L106.163 102.01H111.725C112.605 102.01 112.922 102.256 112.922 103.207L112.957 104.192ZM76.7009 105.988C76.8611 106.168 77.0379 106.333 77.2289 106.48L77.1937 106.516L77.2289 106.551C77.1233 106.656 76.7361 107.079 76.7361 107.079C76.7009 107.008 76.1729 106.516 76.1729 106.516C76.3576 106.349 76.5338 106.172 76.7009 105.988ZM77.2289 106.516C77.3953 106.341 77.5716 106.177 77.7569 106.023L78.2849 106.586C78.2849 106.586 77.8273 107.079 77.7569 107.149V107.184C77.7569 107.184 77.4049 106.797 77.2641 106.656L77.2993 106.621C77.2641 106.551 77.2289 106.551 77.2289 106.516ZM73.4625 103.981L73.5329 104.016V104.192H71.5969V97.5396L71.7729 97.5044C71.8433 97.61 71.9489 97.786 72.0193 97.8916L72.1249 98.0676L72.3009 98.2436L72.6177 98.4548L72.7937 98.5604L72.9697 98.6308L72.9345 98.8068H72.4417V103.453H73.0401C73.0344 103.537 73.0464 103.621 73.0753 103.7C73.0753 103.735 73.1105 103.77 73.1809 103.876L73.4273 104.052L73.4625 103.981ZM82.5793 104.509L83.1425 105.072L82.5793 105.636L82.0161 105.072L82.5793 104.509ZM125.418 104.016V104.192H123.482V97.5396L123.658 97.5044C123.728 97.61 123.834 97.786 123.904 97.8916L124.01 98.0676L124.186 98.2436L124.467 98.4548L124.643 98.5604L124.819 98.6308L124.784 98.8068H124.291V103.453H124.89C124.884 103.537 124.896 103.621 124.925 103.7C124.925 103.735 124.96 103.77 124.995 103.876L125.242 104.052L125.312 104.087L125.418 104.016ZM91.8369 103.101C91.8399 103.082 91.8383 103.062 91.8323 103.044C91.8263 103.025 91.816 103.009 91.8023 102.995C91.7885 102.981 91.7718 102.971 91.7533 102.965C91.7348 102.959 91.7152 102.957 91.6961 102.96H86.6977V103.418H91.8721V103.101H91.8369ZM95.0049 97.5044L95.1809 97.5396V104.157H80.0801L77.7569 101.834L77.6513 101.728L77.6161 101.799L77.5809 101.834L77.5105 101.94L77.4753 101.975L77.4401 102.08C77.4635 102.192 77.5259 102.292 77.6161 102.362C77.6826 102.425 77.7532 102.484 77.8273 102.538C77.9329 102.644 78.0385 102.784 78.1441 102.89C78.5539 103.264 78.8057 103.78 78.8481 104.333C78.848 104.567 78.7977 104.798 78.7005 105.01C78.6033 105.223 78.4616 105.412 78.2849 105.565C78.1288 105.683 77.9641 105.789 77.7921 105.882C77.6255 105.954 77.4455 105.99 77.2641 105.988H76.7361C76.4525 105.937 76.1861 105.816 75.9617 105.636C75.7795 105.477 75.6322 105.283 75.5292 105.065C75.4261 104.847 75.3696 104.61 75.3633 104.368V104.157C75.3603 104.085 75.3723 104.013 75.3985 103.946C75.4129 103.801 75.4748 103.665 75.5745 103.559L75.6801 103.629C75.608 103.745 75.5713 103.88 75.5745 104.016C75.6181 104.345 75.781 104.645 76.0321 104.861C76.2139 105.025 76.4306 105.145 76.6657 105.213C76.7682 105.244 76.8756 105.256 76.9825 105.248H77.1937C77.3792 105.198 77.5487 105.101 77.6865 104.967C77.6865 104.957 77.6902 104.949 77.6968 104.942C77.7034 104.935 77.7123 104.932 77.7217 104.932C77.8124 104.846 77.8843 104.742 77.9328 104.627C77.9812 104.512 78.0052 104.388 78.0033 104.263C78.0043 104.157 77.9829 104.052 77.9404 103.955C77.898 103.858 77.8354 103.771 77.7569 103.7L77.7217 103.664C77.6161 103.559 77.4049 103.348 77.1937 103.172L76.9473 102.925C76.8448 102.828 76.7506 102.722 76.6657 102.608C76.6305 102.573 76.5953 102.538 76.5953 102.503C76.5232 102.387 76.4865 102.252 76.4897 102.116V101.94L76.5249 101.869V101.834L76.5601 101.799L76.6657 101.693C76.8417 101.482 76.9825 101.236 77.1585 100.989C77.1585 100.954 77.1937 100.919 77.1937 100.884C77.2335 100.795 77.2574 100.699 77.2641 100.602C77.2641 100.567 77.2289 100.532 77.2289 100.496H77.4401L77.7217 100.778L80.4321 103.488H82.3329V102.644H82.0513L82.0161 102.468C82.2231 102.384 82.4138 102.265 82.5793 102.116C82.7327 101.933 82.8627 101.732 82.9665 101.517L83.1425 101.552V103.524H85.9233V98.842H85.5713L85.5361 98.666L85.7473 98.5956L85.9233 98.5252L85.9937 98.49L86.0641 98.4196H86.0993L86.1345 98.3844L86.2049 98.314C86.2753 98.2436 86.3105 98.138 86.4161 98.0676C86.4602 98.0195 86.4853 97.9569 86.4865 97.8916L86.5217 97.786L86.6977 97.8212V102.256H92.0833C92.1677 102.251 92.2524 102.264 92.3314 102.294C92.4104 102.324 92.4819 102.372 92.5409 102.432C92.5967 102.48 92.6414 102.54 92.6718 102.606C92.7022 102.673 92.7176 102.746 92.7169 102.82V103.453H94.4417V98.842H93.6673L94.1601 98.5252L94.2657 98.4548L94.3713 98.3844L94.4417 98.314L94.5473 98.2084C94.659 98.1201 94.7543 98.0129 94.8289 97.8916L94.8993 97.786L95.0049 97.5044ZM119.68 103.383L119.61 103.277L119.539 103.242L119.363 103.172H119.046V103.453L119.68 103.383ZM122.602 97.5044L122.778 97.5396V104.157H115.491C115.485 104.417 115.462 104.675 115.421 104.932L115.386 105.108L115.35 105.178C115.35 105.213 115.35 105.213 115.315 105.248L115.245 105.424L115.21 105.495L115.174 105.565C115.074 105.806 114.902 106.009 114.681 106.148C114.461 106.286 114.203 106.353 113.942 106.34C113.702 106.345 113.467 106.271 113.274 106.128C113.073 105.971 112.916 105.765 112.816 105.53L112.922 105.46C113.114 105.642 113.362 105.754 113.626 105.776H113.837C113.907 105.776 113.942 105.741 114.013 105.741C114.164 105.688 114.301 105.6 114.411 105.484C114.521 105.367 114.602 105.226 114.646 105.072C114.687 104.911 114.711 104.746 114.717 104.58V103.453H114.365L114.33 103.277L114.506 103.207L114.717 103.101C114.815 103.052 114.9 102.98 114.963 102.89L115.21 102.573L115.28 102.468L115.35 102.292H115.526V103.383H118.342V101.869L118.518 101.834C118.589 102.01 118.765 102.08 118.87 102.186C119.082 102.256 119.222 102.292 119.434 102.362C119.618 102.405 119.807 102.429 119.997 102.432C120.278 102.432 120.454 102.608 120.525 102.925L120.595 103.312H122.038V98.7012H121.264L121.757 98.3844L121.862 98.314L121.968 98.2436L122.038 98.1732L122.144 98.0676C122.256 97.9793 122.351 97.8721 122.426 97.7508L122.496 97.6452L122.602 97.5044ZM97.6801 103.981L97.7505 104.016V104.192H95.8145V97.5396L95.9905 97.5044C96.0432 97.65 96.1273 97.7822 96.2369 97.8916L96.3425 98.0676L96.5185 98.2436L96.8353 98.4548L97.0113 98.5604L97.1873 98.6308L97.1521 98.8068H96.6593V103.453H97.2577C97.252 103.537 97.264 103.621 97.2929 103.7C97.2929 103.735 97.3281 103.77 97.3633 103.876L97.6097 104.087L97.6801 103.981ZM61.2129 102.89L61.0017 102.925C60.9665 102.925 60.9313 102.96 60.8961 102.96C60.788 102.993 60.6907 103.053 60.6145 103.136L60.5793 103.207V103.348H61.2481L61.2129 102.89ZM61.8817 101.869H62.0577V104.509C62.0566 104.906 61.947 105.296 61.7409 105.636C61.5548 105.958 61.2526 106.197 60.8961 106.304C60.7811 106.333 60.6625 106.345 60.5441 106.34H60.2273C60.1301 106.329 60.0361 106.299 59.9512 106.251C59.8664 106.202 59.7926 106.137 59.7345 106.058C59.5531 105.896 59.3986 105.706 59.2769 105.495L59.3825 105.424C59.5805 105.592 59.8275 105.691 60.0865 105.706H60.1921L60.2625 105.671L60.5441 105.636C60.6413 105.602 60.7268 105.541 60.7905 105.46C60.9131 105.333 60.9983 105.174 61.0369 105.002V104.826L61.0721 104.65V104.157V104.192H59.6289L59.5937 104.016V103.629L59.5585 103.418C59.5565 103.21 59.6199 103.006 59.7399 102.835C59.8599 102.665 60.0304 102.536 60.2273 102.468C60.4071 102.421 60.5835 102.362 60.7553 102.292C60.8823 102.249 61.0115 102.214 61.1425 102.186L61.2481 102.151C61.2833 102.151 61.3185 102.116 61.4241 102.08C61.501 102.06 61.5729 102.024 61.6353 101.975C61.8465 101.94 61.8817 101.904 61.8817 101.869ZM51.9201 105.988C51.9201 105.988 52.3073 106.34 52.4481 106.48L52.4129 106.516L52.4481 106.551L51.9201 107.079L51.3569 106.516C51.5538 106.35 51.7418 106.173 51.9201 105.988ZM70.7521 97.5044L70.9281 97.5396V104.157H62.3041V103.981C62.5322 103.903 62.7377 103.77 62.9025 103.594L63.0081 103.488L63.1137 103.383L63.1841 103.207L63.2545 103.031H63.4305V103.348H67.5841V102.96L67.5489 102.925H63.8529L63.8177 102.749C63.9396 102.727 64.0508 102.665 64.1345 102.573C64.244 102.526 64.3406 102.454 64.4161 102.362L64.6273 102.08C64.6977 102.01 64.7329 101.869 64.8033 101.799H64.9793V102.116H67.7953C67.8797 102.11 67.9644 102.123 68.0434 102.153C68.1224 102.184 68.1939 102.231 68.2529 102.292C68.3136 102.337 68.3638 102.396 68.4002 102.462C68.4366 102.529 68.4584 102.603 68.4641 102.679V103.348H70.2241V98.7364H69.4497L69.9425 98.4196L70.0481 98.3492L70.1537 98.2788L70.2241 98.2084L70.3297 98.1028C70.4439 98.0062 70.5499 97.9002 70.6465 97.786L70.7521 97.6804V97.5044ZM52.4833 106.551L52.4481 106.516L52.9409 106.023L53.4689 106.586L52.9057 107.149V107.184C52.9057 107.184 52.5185 106.797 52.4129 106.656L52.4833 106.551ZM101.376 102.01L100.813 101.447L101.376 100.884L101.939 101.447L101.376 102.01ZM59.0657 97.5044L59.2417 97.5396V104.157H55.2993C55.2993 104.157 53.4689 102.362 52.9761 101.834L52.8705 101.728L52.8353 101.799L52.8001 101.834L52.7297 101.94L52.6945 101.975L52.6593 102.08C52.6827 102.192 52.7451 102.292 52.8353 102.362L53.0113 102.538C53.1873 102.714 53.3281 102.89 53.3281 102.89C53.7379 103.264 53.9897 103.78 54.0321 104.333C54.0305 104.563 53.983 104.791 53.8924 105.002C53.8017 105.214 53.6697 105.405 53.5041 105.565C53.3411 105.691 53.1639 105.797 52.9761 105.882C52.8207 105.95 52.653 105.986 52.4833 105.988H51.9553C51.6695 105.944 51.4015 105.822 51.1809 105.636C50.9987 105.477 50.8514 105.283 50.7484 105.065C50.6453 104.847 50.5888 104.61 50.5825 104.368V104.157C50.5795 104.085 50.5915 104.013 50.6177 103.946C50.6463 103.805 50.7065 103.673 50.7937 103.559L50.8993 103.629C50.8434 103.752 50.8077 103.882 50.7937 104.016C50.8373 104.345 51.0002 104.645 51.2513 104.861C51.4413 105.033 51.6712 105.154 51.9201 105.213C52.023 105.242 52.13 105.254 52.2369 105.248H52.4481C52.6336 105.198 52.8031 105.101 52.9409 104.967V104.932C53.0379 104.851 53.1142 104.748 53.1632 104.632C53.2122 104.515 53.2325 104.389 53.2225 104.263C53.2219 104.056 53.147 103.856 53.0113 103.7C52.9761 103.7 52.9761 103.664 52.9409 103.664C52.7857 103.491 52.6212 103.327 52.4481 103.172L52.2017 102.925C52.0992 102.828 52.005 102.722 51.9201 102.608C51.8849 102.573 51.8497 102.538 51.8497 102.503C51.7776 102.387 51.7409 102.252 51.7441 102.116V101.94L51.7793 101.869V101.834L51.8145 101.799C51.8497 101.764 51.8849 101.728 51.8849 101.693C52.0575 101.472 52.2106 101.237 52.3425 100.989C52.3777 100.954 52.3777 100.919 52.4129 100.884C52.4527 100.795 52.4766 100.699 52.4833 100.602C52.4856 100.583 52.4836 100.563 52.4775 100.545C52.4714 100.527 52.4614 100.51 52.4481 100.496H52.6593C52.7647 100.578 52.8594 100.673 52.9409 100.778C53.7153 101.482 55.7217 103.488 55.7217 103.488H58.3969V98.8772H57.6225L58.1153 98.5604L58.2209 98.49L58.3265 98.4196L58.3969 98.3492L58.5025 98.2436C58.606 98.147 58.7002 98.0409 58.7841 97.9268L58.8897 97.8212L59.0657 97.5044Z" fill="#A1A1A1"/>
</svg>
