<svg width="120" height="120" viewBox="0 0 120 120" fill="none" xmlns="http://www.w3.org/2000/svg">
<path d="M22.7674 47.887C22.297 47.5107 21.7795 47.1814 21.2621 46.8521C20.7917 46.6169 20.3213 46.3817 19.8509 46.1936C19.8038 46.1465 19.8038 46.1465 19.7568 46.1465C19.3334 45.9584 18.863 45.8643 18.3926 45.7702C17.734 45.6291 17.0284 45.582 16.3699 45.582C10.725 45.582 6.16211 50.192 6.16211 55.8368C6.16211 58.5652 7.197 61.1994 9.12565 63.1751C11.0073 65.1508 13.5945 66.2798 16.3228 66.2798H21.3091C24.1786 66.2328 26.4836 63.9278 26.4365 61.0583C26.4365 61.0113 26.4365 61.0113 26.4365 60.9642V55.5546C26.3424 52.591 25.0253 49.7686 22.7674 47.887ZM16.464 59.3649C14.6294 59.4119 13.077 57.9537 13.03 56.1191C12.983 54.2845 14.4412 52.7322 16.2758 52.6851C18.1104 52.6381 19.6627 54.0963 19.7097 55.9309C19.7097 55.978 19.7097 55.978 19.7097 56.025C19.7097 57.8125 18.2515 59.3178 16.464 59.3649Z" fill="#A1A1A1"/>
<path d="M28.0831 40.7841L27.8479 40.1255L27.2834 40.5018C26.2485 41.1133 25.1195 41.5367 23.9435 41.7719C23.2379 41.9601 22.4382 42.1953 21.5445 42.4775C18.2516 43.5124 17.9694 47.1815 17.9694 47.3697L17.9224 47.7931L18.3457 47.8872C20.0392 48.4046 24.2728 48.2164 26.6719 45.9115C28.0831 44.5943 28.6476 42.6186 28.0831 40.7841Z" fill="#A1A1A1"/>
<path d="M18.5811 47.4169C18.5811 47.4169 20.3215 44.9708 23.0029 44.3592C25.9664 43.6536 27.4717 41.6779 27.5187 41.0664C27.5187 41.0664 27.3306 43.0891 23.2851 44.4533C22.6265 44.6415 20.792 44.9708 18.5811 47.4169Z" fill="#A1A1A1"/>
<path d="M110.545 45.6292C108.663 45.6292 107.111 47.1345 107.111 49.0632V56.4015C107.111 58.3772 105.465 60.0236 103.489 60.0236H97.0913C95.1157 60.0236 93.4692 58.3772 93.4692 56.4015V48.9691C93.4692 47.0875 91.9169 45.5352 90.0353 45.5352C88.1537 45.5352 86.6013 47.0875 86.6013 48.9691V56.4015C86.6013 58.3772 84.9549 60.0236 82.9792 60.0236H57.9067C55.931 60.0236 54.2846 58.3772 54.2846 56.4015V48.9691C54.2846 47.0875 52.7323 45.5352 50.8507 45.5352C48.969 45.5352 47.4167 47.0875 47.4167 48.9691V56.4015C47.4167 58.3772 45.7703 60.0236 43.7946 60.0236H32.4579C30.5763 60.0236 29.0239 61.5759 29.0239 63.4575C29.0239 65.3391 30.5763 66.8915 32.4579 66.8915H43.7946C46.3818 66.8915 48.875 65.9036 50.8036 64.1631C52.7323 65.9036 55.2254 66.8915 57.8126 66.8915H83.0733C85.6605 66.8915 88.1537 65.9036 90.0823 64.1631C92.011 65.9036 94.5041 66.8915 97.0913 66.8915H103.489C109.228 66.8915 113.885 62.2345 113.885 56.4956V49.1102C113.979 47.2756 112.568 45.7233 110.686 45.6292C110.639 45.6292 110.592 45.6292 110.545 45.6292Z" fill="#A1A1A1"/>
<path d="M100.619 76.1584C102.516 76.1584 104.053 74.621 104.053 72.7245C104.053 70.828 102.516 69.2905 100.619 69.2905C98.723 69.2905 97.1855 70.828 97.1855 72.7245C97.1855 74.621 98.723 76.1584 100.619 76.1584Z" fill="#A1A1A1"/>
<path d="M70.5604 45.0647C72.4569 45.0647 73.9944 43.5272 73.9944 41.6307C73.9944 39.7342 72.4569 38.1968 70.5604 38.1968C68.6639 38.1968 67.1265 39.7342 67.1265 41.6307C67.1265 43.5272 68.6639 45.0647 70.5604 45.0647Z" fill="#A1A1A1"/>
<path d="M51.1799 69.3845C50.6155 69.3845 50.051 69.5256 49.5335 69.7608C49.0631 69.1963 48.2634 69.1493 47.699 69.5726C47.3697 69.8549 47.2286 70.2312 47.2286 70.6546V80.2978C47.1815 81.0034 47.699 81.615 48.4046 81.662C49.1102 81.662 49.5335 81.0505 49.5335 80.2978V77.3343C50.051 77.5695 50.6155 77.6636 51.1799 77.6636C53.4849 77.5695 55.2254 75.5938 55.1313 73.3359C54.9902 71.172 53.2968 69.4786 51.1799 69.3845ZM51.1799 74.9352C50.5214 74.9352 49.9569 74.4178 49.8628 73.7592V73.3359C49.9569 72.6773 50.5214 72.1599 51.1799 72.1599C51.9326 72.2069 52.5441 72.8184 52.5441 73.5711C52.4971 74.2767 51.8856 74.8882 51.1799 74.9352Z" fill="#A1A1A1"/>
<path fill-rule="evenodd" clip-rule="evenodd" d="M89.8942 77.1932V77.0521C89.8942 76.864 89.8471 76.6758 89.8001 76.4876L89.659 76.0643C89.5649 75.782 89.4237 75.4998 89.2826 75.2646C89.0945 74.9353 88.8122 74.6531 88.53 74.3708C88.3418 74.2297 88.1066 74.0886 87.9185 73.9475C87.7773 73.8534 87.5892 73.7593 87.401 73.7123H87.354C87.2128 73.6182 87.0247 73.5711 86.8365 73.5711H86.7895C86.5543 73.5241 86.272 73.4771 86.0368 73.4771C84.9079 73.4771 83.8259 73.9945 83.1203 74.8412C83.0263 74.9353 82.9322 75.0764 82.8381 75.2175C82.697 75.4527 82.5559 75.6879 82.4618 75.9231C82.3677 76.0643 82.3206 76.2054 82.2736 76.3936C82.2266 76.5347 82.1795 76.6758 82.1795 76.8169C82.1325 77.0992 82.0854 77.3814 82.0854 77.6636C82.0854 77.9459 82.1325 78.1811 82.1795 78.4633C82.2266 78.7456 82.3206 78.9808 82.4147 79.263C83.0263 80.7683 84.4845 81.8032 86.1309 81.8502H88.1066C89.2356 81.8032 90.1294 80.8624 90.0823 79.7334V77.5696C89.8942 77.3814 89.9412 77.2873 89.8942 77.1932ZM87.2128 78.1341C87.1658 78.1811 87.1658 78.2752 87.1188 78.3222C87.0717 78.3693 86.9776 78.5104 86.9306 78.6045C86.4602 79.0749 85.6605 79.1219 85.1431 78.6045C84.9079 78.3693 84.7667 77.9929 84.7667 77.6636C84.7667 77.4755 84.8138 77.3344 84.8608 77.1462C84.9079 77.0992 84.9079 77.0051 84.9549 76.958C85.002 76.911 85.002 76.864 85.049 76.8169C85.2842 76.4876 85.6605 76.2995 86.0368 76.2995C86.4132 76.3465 86.7895 76.5347 87.0247 76.8169C87.0717 76.864 87.1188 76.911 87.1188 76.958C87.1188 77.0051 87.1658 77.0521 87.2128 77.1462C87.2599 77.3344 87.3069 77.4755 87.3069 77.6636C87.2599 77.8048 87.2599 77.9459 87.2128 78.1341Z" fill="#A1A1A1"/>
<path d="M90.553 71.4072L90.4589 71.125L90.2237 71.2661C89.8003 71.5013 89.3769 71.6895 88.9065 71.7836C88.8595 71.8306 88.7654 71.8306 88.7184 71.8306C88.4832 71.9247 88.248 71.9717 88.0128 72.0658C87.4012 72.301 86.9308 72.7714 86.7427 73.3829V73.43C86.6486 73.6181 86.6016 73.8533 86.6016 74.0415V74.2297L86.7427 74.2767C86.8368 74.3237 86.9779 74.3237 87.072 74.3708C87.4012 74.4178 87.7776 74.4178 88.1069 74.3237C88.2009 74.3237 88.3421 74.2767 88.4361 74.2767H88.4832C88.7654 74.2297 89.0477 74.1356 89.2829 73.9945C89.5651 73.9004 89.8003 73.7122 89.9885 73.477C90.1296 73.3359 90.2237 73.1948 90.3177 73.0537C90.3648 72.9596 90.4118 72.9125 90.4118 72.8655C90.5059 72.6773 90.6 72.4892 90.6 72.301C90.647 71.9717 90.647 71.6895 90.553 71.4072ZM88.7184 72.9596C88.4832 73.0066 88.295 73.0537 88.0598 73.1477C87.9657 73.1948 87.8246 73.2889 87.7305 73.3359C87.5894 73.43 87.4483 73.5241 87.3542 73.6181H87.3072C87.6835 73.2889 88.1069 73.0066 88.5773 72.8655C89.2358 72.7244 89.8003 72.348 90.2237 71.8306C90.0825 71.9717 89.9885 72.1129 89.8944 72.254C90.0826 72.1129 90.2237 71.9247 90.3177 71.7365C90.2707 71.9247 89.9414 72.5362 88.7184 72.9596Z" fill="#A1A1A1"/>
<path d="M87.3539 73.6182L87.2127 73.7593L86.9775 73.9945C86.9775 73.9474 86.9775 73.9474 87.0246 73.9474C87.0716 73.9004 87.1187 73.8063 87.2127 73.7593C87.2127 73.7122 87.2598 73.6652 87.3539 73.6182Z" fill="#A1A1A1"/>
<path d="M63.3635 74.7001C63.4105 73.9475 62.799 73.2889 62.0464 73.2419C61.67 73.2419 61.2937 73.43 61.0115 73.6652C60.494 73.383 59.9295 73.1948 59.3651 73.1948C57.1071 73.2419 55.3196 75.1235 55.3666 77.4285C55.3666 79.7805 57.1542 81.7091 59.3651 81.7091C59.9295 81.7091 60.494 81.521 61.0115 81.2858C61.2937 81.568 61.67 81.7091 62.0464 81.7091C62.6579 81.7091 63.2224 81.2858 63.3635 80.6742C63.4105 80.6272 63.4105 80.6272 63.4105 80.5331L63.3635 74.7001ZM59.3651 78.8867C58.6124 78.8397 58.0009 78.1811 58.0009 77.4285C58.0009 76.6758 58.5654 76.0172 59.3651 76.0172C60.1647 76.0172 60.8233 76.6758 60.8233 77.4285C60.7763 78.2281 60.1177 78.8867 59.3651 78.8867Z" fill="#A1A1A1"/>
<path d="M72.0186 77.4283C72.0186 75.0763 70.6074 73.2887 68.3965 73.2417C67.785 73.2417 67.1734 73.3828 66.609 73.6651C66.3738 73.4299 66.0445 73.2887 65.7152 73.2887C64.9625 73.3358 64.351 73.9473 64.3981 74.7V80.4389C64.4451 81.1915 64.8214 81.709 65.527 81.709C66.2326 81.709 66.703 81.0974 66.703 80.3448V77.0049C66.7971 76.2523 67.4557 75.6408 68.2083 75.6408C69.008 75.6408 69.6666 76.2052 69.7136 77.0049V80.4389C69.7607 81.1915 70.137 81.709 70.8426 81.709C71.5482 81.709 71.9716 81.0974 71.9716 80.3448V80.2037L72.0186 77.4283Z" fill="#A1A1A1"/>
<path d="M79.8745 69.2905C79.1689 69.2905 78.7455 69.9491 78.7455 70.7017V73.6653C78.181 73.4771 77.6166 73.383 77.0521 73.383C74.7941 73.4301 73.0066 75.2647 73.0536 77.5226C73.0066 79.7805 74.7941 81.6621 77.0521 81.7562C77.6166 81.7562 78.181 81.6151 78.6985 81.3329C78.9337 81.6151 79.31 81.7562 79.6863 81.7562C80.3919 81.8033 80.9564 81.2858 81.0035 80.5802C81.0035 80.5332 81.0035 80.5332 81.0035 80.4861V80.4391C81.0505 80.4861 81.0505 80.4391 81.0505 80.3921V70.7017C81.0975 69.9961 80.5801 69.3376 79.8745 69.2905ZM78.4162 77.6637C78.3692 78.4164 77.7577 78.9808 77.005 78.9338C76.2524 78.8868 75.6879 78.2752 75.7349 77.5226C75.7349 76.7699 76.2994 76.1584 77.0521 76.1584H77.0991C77.8047 76.2055 78.3692 76.7229 78.4162 77.4285V77.6637Z" fill="#A1A1A1"/>
<path fill-rule="evenodd" clip-rule="evenodd" d="M89.8943 77.1931V77.052C89.8943 76.8638 89.8473 76.6756 89.8002 76.4875L89.6591 76.0641C89.565 75.7819 89.4239 75.4996 89.2828 75.2644C89.0476 74.9351 88.7654 74.6529 88.4831 74.3707L87.9186 73.9473L87.3541 73.6651C87.3541 73.618 87.3541 73.618 87.3071 73.618C87.166 73.5239 86.9778 73.4769 86.7897 73.4769C86.7897 73.4769 86.7426 73.4299 86.7426 73.4769C86.5074 73.4299 86.2252 73.3828 85.99 73.3828C84.861 73.3828 83.8261 73.8532 83.0735 74.6999C82.9794 74.794 82.8853 74.9351 82.7912 75.0763C82.6501 75.3115 82.509 75.5467 82.4149 75.7819C82.3208 75.923 82.2738 76.0641 82.2267 76.2523C82.1797 76.3934 82.1327 76.5345 82.1327 76.6756C82.0856 76.9579 82.0386 77.2401 82.0386 77.5224C82.0386 77.8046 82.0856 78.0398 82.1327 78.3221C82.1797 78.6043 82.2738 78.8395 82.3679 79.1217C82.556 79.6392 82.8383 80.1566 83.2616 80.5329C83.9672 81.3326 85.0021 81.803 86.084 81.803H88.0597C89.1887 81.756 90.0825 80.8152 90.0825 79.6862V77.4753C89.9414 77.3812 89.9414 77.3342 89.8943 77.1931ZM84.861 77.099C84.908 77.052 84.908 76.9579 84.9551 76.9108C85.0021 76.8638 85.0021 76.8168 85.0492 76.7697C85.2844 76.4875 85.6607 76.2993 86.037 76.2523C86.4133 76.2523 86.7897 76.4404 87.0249 76.7697C87.0719 76.8168 87.1189 76.8638 87.1189 76.9108C87.1189 76.9579 87.166 77.0049 87.213 77.099C87.3541 77.4283 87.3541 77.8046 87.213 78.1339C87.166 78.1809 87.166 78.275 87.1189 78.3221C87.0719 78.3691 86.9778 78.5102 86.9308 78.6043C86.6956 78.8395 86.3663 78.9806 86.037 78.9806C85.7077 78.9806 85.3784 78.8395 85.1432 78.5573C84.908 78.3221 84.7669 77.9457 84.7669 77.6164C84.7199 77.4283 84.7199 77.2401 84.861 77.099Z" fill="#A1A1A1"/>
<path d="M90.5526 71.4072L90.4586 71.125L90.2233 71.2661C89.8 71.5013 89.3766 71.6895 88.9062 71.7836C88.8592 71.8306 88.7651 71.8306 88.7181 71.8306C88.4829 71.8776 88.2476 71.9717 87.9184 72.0658C87.3068 72.254 86.8364 72.7714 86.6953 73.3829V73.43C86.6012 73.6181 86.5542 73.8533 86.5542 74.0885V74.2767L86.6953 74.3237C86.7894 74.3708 86.9305 74.3708 87.0716 74.4178C87.4009 74.4649 87.7773 74.4649 88.1065 74.3708C88.2006 74.3708 88.3417 74.3237 88.4358 74.3237H88.4829C88.7651 74.2767 89.0473 74.1826 89.2825 74.0415C89.5177 73.9004 89.7529 73.7122 89.9411 73.5241C90.0822 73.3829 90.1763 73.2418 90.2704 73.1007C90.3174 73.0066 90.3645 72.9596 90.3645 72.9125C90.4586 72.7244 90.5056 72.5362 90.5526 72.3481C90.6467 72.0188 90.6467 71.6895 90.5526 71.4072ZM88.7181 72.9596C88.4829 73.0066 88.2947 73.0537 88.0595 73.1477C87.9654 73.1948 87.8243 73.2889 87.7302 73.3359C87.5891 73.43 87.448 73.5241 87.3539 73.6181H87.3068C87.6832 73.2889 88.1065 73.0066 88.5769 72.8655C89.2355 72.7244 89.8 72.348 90.2233 71.8306C90.0822 71.9717 89.9881 72.1129 89.8941 72.254C90.0822 72.1129 90.2233 71.9247 90.3174 71.7365C90.2704 71.9247 89.9411 72.5362 88.7181 72.9596Z" fill="#A1A1A1"/>
<path d="M87.3539 73.6182L87.2127 73.7593H87.1657L86.9775 73.9474L86.9305 73.9945C86.8835 74.0415 86.8364 74.0415 86.8364 74.0886C86.9305 73.9004 87.1187 73.7593 87.2598 73.6182H87.3539Z" fill="#A1A1A1"/>
</svg>
