<svg width="176" height="176" viewBox="0 0 176 176" fill="none" xmlns="http://www.w3.org/2000/svg">
<path d="M65.0777 95.1106C64.9685 94.8469 64.7826 94.622 64.5442 94.4651C64.3057 94.3082 64.0256 94.2265 63.7401 94.2306C63.5063 94.2348 63.2769 94.2951 63.0713 94.4066C62.8573 94.5088 62.6749 94.6669 62.5433 94.8642C62.3919 95.0675 62.2732 95.2931 62.1913 95.533C62.1046 95.8065 62.0572 96.0909 62.0505 96.3778C62.0357 96.5955 62.0655 96.814 62.1381 97.0198C62.2108 97.2256 62.3247 97.4144 62.4729 97.5746C62.6279 97.7199 62.8108 97.8323 63.0104 97.9049C63.2101 97.9775 63.4224 98.0089 63.6345 97.997C63.8501 97.9963 64.064 97.9606 64.2681 97.8914C64.4581 97.8266 64.6364 97.7315 64.7961 97.6098V98.3842C64.7961 98.525 64.5497 98.6306 64.0569 98.7362C63.5641 98.8418 55.1513 98.8418 54.1657 98.8418H53.9193C53.6331 98.8674 53.347 98.7928 53.1097 98.6306C53.0184 98.5393 52.9488 98.4286 52.9061 98.3067C52.8635 98.1849 52.8488 98.0549 52.8633 97.9266L52.8985 94.125L52.0185 94.2658V94.9346C51.255 95.0572 50.5312 95.3587 49.9065 95.8146C49.6699 95.9824 49.4764 96.2038 49.3418 96.4608C49.2072 96.7178 49.1354 97.0029 49.1321 97.293C49.1202 97.5131 49.1689 97.7323 49.2729 97.9266C49.3613 98.1191 49.494 98.288 49.6601 98.4194C49.8286 98.5477 50.0197 98.6432 50.2233 98.701C50.451 98.773 50.6886 98.8086 50.9273 98.8066C51.3224 98.8267 51.7146 98.7286 52.0537 98.525C52.1945 99.3698 52.7929 99.7922 53.8489 99.7922H54.0953C54.4825 99.7922 62.5433 99.7922 62.8249 99.757C63.0962 99.7541 63.3669 99.7306 63.6345 99.6866C63.8809 99.6514 64.0569 99.6162 64.2329 99.581C64.3929 99.544 64.547 99.4847 64.6905 99.405C64.9613 99.2925 65.1764 99.0773 65.2889 98.8066C65.419 98.4458 65.4787 98.0635 65.4649 97.6802C65.5353 96.589 65.3945 95.6738 65.0777 95.1106ZM64.3033 97.0114C64.1182 97.0522 63.9296 97.0757 63.7401 97.0818C63.4871 97.1044 63.235 97.0288 63.0361 96.8706C62.9483 96.7917 62.8802 96.6932 62.8374 96.5832C62.7946 96.4731 62.7783 96.3545 62.7897 96.237C62.7855 95.9531 62.8857 95.6775 63.0713 95.4626C63.1572 95.3602 63.2652 95.2785 63.3871 95.2236C63.509 95.1687 63.6417 95.1421 63.7753 95.1458C63.9162 95.1438 64.0551 95.1785 64.1785 95.2464C64.3019 95.3143 64.4056 95.413 64.4793 95.533C64.6778 95.9266 64.786 96.3595 64.7961 96.8002C64.6201 96.8706 64.4793 96.941 64.3033 97.0114ZM51.1033 97.821C50.95 97.8268 50.7964 97.815 50.6457 97.7858C50.5098 97.7604 50.379 97.7129 50.2585 97.645C50.1622 97.5931 50.0782 97.521 50.0121 97.4338C49.9356 97.333 49.8981 97.208 49.9065 97.0818C49.9117 96.9137 49.9738 96.7524 50.0825 96.6242C50.2198 96.4781 50.3734 96.3482 50.5401 96.237C50.7536 96.1221 50.9776 96.0278 51.2089 95.9554C51.4711 95.8715 51.7435 95.8242 52.0185 95.8146L52.0537 97.6098C51.7653 97.7739 51.4342 97.8475 51.1033 97.821Z" fill="#A1A1A1"/>
<path d="M78.7707 93.7728L78.0667 93.0688L77.3979 93.7728L78.0667 94.4768L78.7707 93.7728Z" fill="#A1A1A1"/>
<path d="M80.4251 93.7728L79.7211 93.0688L79.0171 93.7728L79.7211 94.4768L80.4251 93.7728Z" fill="#A1A1A1"/>
<path d="M91.865 93.5966L91.161 92.8926L90.457 93.5966L91.161 94.3006L91.865 93.5966Z" fill="#A1A1A1"/>
<path d="M91.9706 95.7439L92.6746 95.0399L91.9706 94.3359L91.2666 95.0399L91.9706 95.7439Z" fill="#A1A1A1"/>
<path d="M91.0555 95.0399L90.3515 94.3359L89.6475 95.0399L90.3515 95.7439L91.0555 95.0399Z" fill="#A1A1A1"/>
<path d="M101.65 92.717L101.686 98.2082C101.688 98.3122 101.65 98.4131 101.58 98.4898C101.492 98.576 101.383 98.6369 101.263 98.6658C101.122 98.701 101.017 98.7362 100.841 98.7714C100.665 98.8066 92.8505 98.8066 92.6745 98.8066C91.7945 98.8066 91.3369 98.5602 91.3369 98.1026C91.357 97.939 91.3687 97.7745 91.3721 97.6098C91.4073 97.3634 91.4425 97.0818 91.4777 96.7298L90.7033 96.6594C90.6723 96.774 90.6604 96.8929 90.6681 97.0114C90.6329 97.1522 90.6329 97.2578 90.5977 97.3986C90.5625 97.5394 90.5625 97.645 90.5273 97.7858C90.4921 97.9266 90.4921 97.997 90.4569 98.1026C90.4294 98.2206 90.3777 98.3317 90.305 98.4286C90.2322 98.5256 90.1401 98.6064 90.0345 98.6658C89.7881 98.7714 81.7625 98.8418 81.2697 98.8418H80.6361C80.4249 98.8418 80.2489 98.8066 80.0729 98.8066C80.2634 98.6326 80.4152 98.4204 80.5183 98.1839C80.6214 97.9474 80.6735 97.6918 80.6713 97.4338C80.6791 97.1686 80.6311 96.9048 80.5305 96.6594C80.444 96.4249 80.3124 96.2097 80.1433 96.0258C79.9872 95.8471 79.7953 95.7032 79.5801 95.6034C79.3693 95.5105 79.1416 95.4625 78.9113 95.4625C78.681 95.4625 78.4532 95.5105 78.2425 95.6034C78.0328 95.7122 77.8425 95.8549 77.6793 96.0258C77.5101 96.2097 77.3786 96.4249 77.2921 96.6594C77.1914 96.9048 77.1434 97.1686 77.1513 97.4338C77.1456 97.6923 77.1962 97.9489 77.2995 98.186C77.4028 98.423 77.5564 98.6348 77.7497 98.8066C77.5634 98.8358 77.3749 98.8476 77.1865 98.8418H68.8793C68.6034 98.876 68.3251 98.8002 68.1049 98.6306C68.0135 98.5393 67.9439 98.4286 67.9013 98.3067C67.8586 98.1848 67.844 98.0549 67.8585 97.9266L67.8937 92.6114L67.0137 92.7522L67.0489 98.2434C67.0841 99.2994 67.6825 99.8274 68.8793 99.8274C69.3017 99.8274 77.3977 99.7922 77.8201 99.7218C78.2004 99.6487 78.5765 99.5547 78.9465 99.4402C79.3117 99.5711 79.689 99.6654 80.0729 99.7218C80.4798 99.7918 80.8919 99.8272 81.3049 99.8274C81.7625 99.8274 89.8585 99.757 90.2105 99.6162C90.5135 99.5175 90.7741 99.319 90.9497 99.053C91.2313 99.5458 91.8297 99.7922 92.7097 99.7922C92.9913 99.7922 100.911 99.757 101.193 99.7218C101.432 99.6713 101.659 99.5757 101.862 99.4402C102.061 99.3001 102.228 99.1203 102.354 98.9122C102.486 98.6763 102.547 98.4074 102.53 98.1378L102.566 92.5762L101.65 92.717ZM78.9113 98.525C78.2073 98.3138 77.8905 97.9266 77.8905 97.3986C77.8967 97.2554 77.9203 97.1136 77.9609 96.9762C78.01 96.8473 78.0815 96.7282 78.1721 96.6242C78.2599 96.5302 78.3683 96.4579 78.4889 96.413C78.6256 96.3696 78.7678 96.3459 78.9113 96.3426C79.0432 96.3457 79.1739 96.3694 79.2985 96.413C79.4215 96.4529 79.5311 96.526 79.6153 96.6242C79.7179 96.7188 79.7913 96.841 79.8265 96.9762C79.8698 97.1129 79.8935 97.2552 79.8969 97.3986C79.9321 97.9266 79.5801 98.3138 78.9113 98.525Z" fill="#A1A1A1"/>
<path d="M103.974 99.7922L103.938 92.717L104.818 92.5762L104.748 99.7922H103.974Z" fill="#A1A1A1"/>
<path d="M111.936 98.1376C111.942 98.3794 111.898 98.6198 111.808 98.8438C111.717 99.0679 111.581 99.2709 111.408 99.44C111.019 99.7785 110.515 99.9549 110 99.9328C109.477 99.9777 108.958 99.8131 108.557 99.4753C108.39 99.2964 108.26 99.0859 108.175 98.8562C108.091 98.6265 108.053 98.3822 108.064 98.1376C108.054 97.7919 108.101 97.4469 108.205 97.1168C108.302 96.8157 108.445 96.531 108.627 96.272C108.799 96.0471 109 95.8458 109.225 95.6736C109.449 95.5393 109.704 95.4664 109.965 95.4625C110.237 95.4615 110.505 95.5345 110.739 95.6736C110.98 95.8266 111.185 96.031 111.337 96.272C111.527 96.5396 111.669 96.8371 111.76 97.152C111.899 97.4611 111.959 97.7996 111.936 98.1376ZM109.19 94.4768L108.486 93.7728L109.19 93.0688L109.894 93.7728L109.19 94.4768ZM111.197 98.208C111.192 97.9719 111.169 97.7364 111.126 97.504C111.072 97.3052 110.989 97.1154 110.88 96.9408C110.779 96.7867 110.647 96.6549 110.493 96.5536C110.352 96.4751 110.196 96.4271 110.035 96.4128C109.877 96.4142 109.72 96.4502 109.577 96.5185C109.426 96.593 109.293 96.7014 109.19 96.8353C109.088 96.9758 109.005 97.1297 108.944 97.2928C108.875 97.4727 108.839 97.6635 108.838 97.856C108.831 97.9953 108.855 98.1344 108.91 98.2626C108.965 98.3908 109.049 98.5046 109.155 98.5953C109.409 98.7801 109.722 98.8675 110.035 98.8416C110.176 98.8416 110.352 98.8065 110.493 98.8065C110.627 98.7753 110.757 98.728 110.88 98.6656C110.969 98.6042 111.052 98.5334 111.126 98.4545C111.17 98.3796 111.195 98.2948 111.197 98.208ZM110.845 94.4768L110.141 93.7728L110.845 93.0688L111.549 93.7728L110.845 94.4768Z" fill="#A1A1A1"/>
<path d="M111.647 101.165C112.042 101.032 112.419 100.855 112.774 100.637C113.083 100.462 113.378 100.262 113.654 100.038C113.88 99.8546 114.082 99.6415 114.252 99.4048C114.379 99.2298 114.452 99.022 114.463 98.8064C114.452 98.6522 114.429 98.4992 114.393 98.3488C114.333 98.1458 114.262 97.9461 114.182 97.7504C114.076 97.5392 113.971 97.2928 113.865 97.0464C113.737 96.8041 113.596 96.5691 113.443 96.3424L114.252 95.8848C114.574 96.3105 114.824 96.7862 114.991 97.2928C115.163 97.7432 115.258 98.2191 115.273 98.7008C115.257 99.425 114.968 100.116 114.463 100.637C113.831 101.291 113.044 101.775 112.175 102.045L111.647 101.165Z" fill="#A1A1A1"/>
<path d="M116.787 99.7922L116.716 92.717L117.596 92.5762L117.561 99.7922H116.787Z" fill="#A1A1A1"/>
<path d="M118.159 101.165C118.55 101.025 118.928 100.848 119.286 100.637C119.595 100.462 119.89 100.262 120.166 100.038C120.392 99.8545 120.593 99.6415 120.764 99.4047C120.89 99.2297 120.964 99.022 120.975 98.8063C120.964 98.6522 120.94 98.4992 120.905 98.3487C120.845 98.1458 120.774 97.9461 120.694 97.7503C120.588 97.5391 120.482 97.2927 120.377 97.0463C120.262 96.7968 120.121 96.5607 119.954 96.3423L120.764 95.8847C121.086 96.3105 121.335 96.7861 121.503 97.2927C121.674 97.7432 121.77 98.219 121.785 98.7007C121.768 99.425 121.479 100.116 120.975 100.637C120.343 101.291 119.556 101.775 118.687 102.045L118.159 101.165ZM120.201 94.9695L119.497 94.2655L120.201 93.5615L120.905 94.2655L120.201 94.9695Z" fill="#A1A1A1"/>
<path d="M123.228 101.13C124.847 100.919 125.762 100.32 126.009 99.3697C125.855 99.4931 125.674 99.5776 125.481 99.6161C125.275 99.6742 125.061 99.698 124.847 99.6865C124.621 99.6929 124.396 99.6488 124.189 99.5574C123.982 99.4661 123.798 99.3298 123.65 99.1585C123.334 98.7865 123.171 98.3086 123.193 97.8209C123.185 97.5214 123.233 97.2231 123.334 96.9409C123.413 96.6823 123.545 96.4427 123.721 96.2369C123.865 96.0378 124.06 95.88 124.284 95.7793C124.502 95.6676 124.743 95.6074 124.988 95.6033C125.266 95.5918 125.542 95.6583 125.785 95.7951C126.027 95.9319 126.227 96.1337 126.361 96.3777C126.72 97.0596 126.891 97.8254 126.854 98.5953C126.868 99.0195 126.783 99.4411 126.607 99.8273C126.43 100.196 126.205 100.539 125.938 100.848C125.643 101.141 125.297 101.38 124.918 101.552C124.498 101.759 124.045 101.89 123.58 101.939L123.228 101.13ZM125.023 98.8065C125.225 98.8025 125.425 98.779 125.622 98.7361C125.783 98.6865 125.937 98.6155 126.079 98.5249C126.074 98.0498 125.966 97.5814 125.762 97.1521C125.687 97.0097 125.576 96.8894 125.441 96.803C125.305 96.7166 125.149 96.667 124.988 96.6593C124.854 96.6557 124.722 96.6823 124.6 96.7371C124.478 96.792 124.37 96.8737 124.284 96.9761C124.092 97.2151 123.993 97.5148 124.002 97.8209C123.989 97.9575 124.007 98.0954 124.056 98.2236C124.105 98.3519 124.183 98.4671 124.284 98.5601C124.495 98.7249 124.756 98.8119 125.023 98.8065Z" fill="#A1A1A1"/>
<path d="M49.4491 103.805H50.3643L52.3707 107.219L54.3771 103.805H55.2571L55.5739 110.387H54.6587L54.4475 105.318L52.5819 108.416H52.0891L50.2587 105.353L50.0475 110.387H49.1675L49.4491 103.805Z" fill="#A1A1A1"/>
<path d="M57.1928 103.77L57.8968 104.474L57.1928 105.178L56.4888 104.474L57.1928 103.77ZM56.7704 105.776H57.6504V110.387H56.7704V105.776Z" fill="#A1A1A1"/>
<path d="M58.918 110.387V105.811H59.7628L59.798 106.515C59.8684 106.445 59.9388 106.339 60.0092 106.269C60.0987 106.168 60.2061 106.084 60.326 106.022L60.7484 105.811C60.9332 105.768 61.1219 105.745 61.3116 105.741C61.5601 105.72 61.81 105.757 62.0419 105.849C62.2738 105.94 62.4816 106.084 62.6492 106.269C62.9447 106.677 63.0935 107.173 63.0716 107.677V110.422H62.1916V107.747C62.2099 107.578 62.1945 107.407 62.1461 107.244C62.0978 107.081 62.0175 106.929 61.91 106.797C61.8122 106.69 61.6921 106.607 61.5582 106.552C61.4243 106.497 61.28 106.473 61.1356 106.48C60.9242 106.464 60.7127 106.508 60.5257 106.608C60.3387 106.708 60.1839 106.859 60.0796 107.043C59.9732 107.215 59.9015 107.407 59.8684 107.606C59.8257 107.827 59.8021 108.051 59.798 108.275V110.422H58.918V110.387Z" fill="#A1A1A1"/>
<path d="M64.62 103.77L65.324 104.474L64.62 105.178L63.916 104.474L64.62 103.77ZM64.1624 105.776H65.0424V110.387H64.1624V105.776Z" fill="#A1A1A1"/>
<path d="M66.5564 109.225C66.7273 109.394 66.931 109.526 67.1548 109.613C67.4116 109.716 67.6876 109.764 67.9644 109.753C68.2184 109.765 68.4715 109.716 68.7036 109.613C68.7931 109.576 68.8687 109.512 68.9193 109.43C68.97 109.348 68.993 109.251 68.9852 109.155C68.9828 109.057 68.9588 108.961 68.9148 108.873C68.8633 108.786 68.7907 108.714 68.7036 108.662C68.5683 108.591 68.4269 108.532 68.2812 108.486C68.1052 108.451 67.894 108.381 67.6476 108.31C67.4676 108.28 67.2908 108.233 67.1196 108.169C66.9564 108.109 66.8025 108.026 66.662 107.923C66.5268 107.811 66.4083 107.681 66.31 107.536C66.222 107.361 66.174 107.168 66.1692 106.973C66.1613 106.764 66.21 106.557 66.31 106.374C66.4134 106.2 66.5586 106.055 66.7324 105.952C66.9026 105.834 67.0938 105.751 67.2956 105.705C67.5131 105.645 67.7391 105.622 67.9644 105.635C68.2987 105.622 68.6326 105.67 68.95 105.776C69.2185 105.874 69.4684 106.017 69.6892 106.198L69.1964 106.797C69.0476 106.651 68.8668 106.543 68.6684 106.48C68.4314 106.393 68.1816 106.345 67.9292 106.339C67.6972 106.319 67.4646 106.368 67.2604 106.48C67.1767 106.521 67.108 106.587 67.0638 106.669C67.0197 106.751 67.0022 106.845 67.014 106.937C67.0103 107.039 67.0442 107.138 67.1092 107.216C67.1741 107.294 67.2656 107.345 67.366 107.36C67.6124 107.43 67.894 107.536 68.246 107.641C68.4511 107.679 68.6516 107.738 68.8444 107.817C69.0185 107.878 69.1841 107.961 69.3372 108.064C69.4723 108.175 69.5908 108.306 69.6892 108.451C69.7771 108.626 69.8252 108.818 69.83 109.014C69.8422 109.223 69.7932 109.431 69.6892 109.613C69.5857 109.786 69.4405 109.932 69.2668 110.035C69.0839 110.153 68.8811 110.236 68.6684 110.281C68.4382 110.338 68.2012 110.362 67.9644 110.352C67.6051 110.375 67.2449 110.325 66.9059 110.204C66.5669 110.083 66.2563 109.893 65.9932 109.648L66.5564 109.225Z" fill="#A1A1A1"/>
<path d="M71.3082 106.515H70.4634V105.776H71.3082V104.262H72.1882V105.776H73.5258V106.515H72.1882V108.768C72.1653 109.038 72.2268 109.309 72.3642 109.542C72.4239 109.614 72.4996 109.67 72.5853 109.707C72.6709 109.744 72.764 109.76 72.857 109.753C73.0007 109.753 73.1434 109.729 73.2794 109.683C73.4071 109.617 73.5255 109.534 73.6314 109.437L74.0538 109.965C73.8803 110.13 73.6773 110.261 73.4554 110.352C73.2306 110.439 72.9924 110.487 72.7514 110.493C72.5578 110.509 72.3629 110.483 72.1805 110.416C71.998 110.349 71.8324 110.243 71.6954 110.105C71.4239 109.755 71.2978 109.314 71.3434 108.873V106.515H71.3082Z" fill="#A1A1A1"/>
<path d="M74.793 110.387V105.811H75.6378L75.673 106.551C75.7329 106.46 75.8039 106.377 75.8842 106.304C75.9737 106.203 76.0811 106.12 76.201 106.058C76.3382 105.98 76.4791 105.91 76.6234 105.847C76.8047 105.786 76.996 105.763 77.1866 105.776C77.2819 105.769 77.3777 105.781 77.4682 105.811C77.5533 105.823 77.6362 105.847 77.7146 105.882L77.5034 106.727C77.3552 106.681 77.201 106.657 77.0458 106.656C76.864 106.65 76.6832 106.686 76.5178 106.762C76.3502 106.826 76.2038 106.936 76.0954 107.079C75.9813 107.218 75.8866 107.372 75.8138 107.536C75.7449 107.704 75.7091 107.883 75.7082 108.064V110.493L74.793 110.387Z" fill="#A1A1A1"/>
<path d="M78.5592 111.513C78.621 111.572 78.6924 111.62 78.7705 111.654C78.8705 111.698 78.9781 111.722 79.0872 111.725C79.1852 111.722 79.2814 111.698 79.3689 111.654C79.456 111.603 79.5286 111.53 79.5801 111.443C79.6594 111.337 79.719 111.218 79.7561 111.091C79.8186 110.935 79.889 110.782 79.9672 110.633L80.0729 110.352L78.0312 105.811H79.0521L80.5305 109.261L81.8329 105.811H82.7832L80.9599 110.281C80.8895 110.493 80.7839 110.739 80.7135 110.985C80.6293 111.229 80.5233 111.465 80.3967 111.689C80.2714 111.908 80.1039 112.099 79.9039 112.253C79.6974 112.396 79.451 112.469 79.1999 112.464C78.9953 112.469 78.7918 112.433 78.6015 112.358C78.4533 112.289 78.3119 112.207 78.1791 112.112L78.5592 111.513Z" fill="#A1A1A1"/>
<path d="M87.1835 110.528C86.8436 110.529 86.5074 110.457 86.1979 110.317C85.9137 110.182 85.6524 110.004 85.4235 109.789C85.2075 109.567 85.0397 109.304 84.9307 109.014C84.7983 108.716 84.738 108.39 84.7547 108.064C84.7554 107.739 84.815 107.417 84.9307 107.113C85.0397 106.824 85.2075 106.56 85.4235 106.339C85.6461 106.116 85.9088 105.937 86.1979 105.811C86.5062 105.667 86.8432 105.595 87.1835 105.6C87.5234 105.599 87.8595 105.671 88.1691 105.811C88.4532 105.946 88.7145 106.124 88.9435 106.339C89.1594 106.56 89.3272 106.824 89.4363 107.113C89.5686 107.412 89.6289 107.738 89.6123 108.064C89.6115 108.389 89.5519 108.711 89.4363 109.014C89.314 109.297 89.1477 109.558 88.9435 109.789C88.7145 110.004 88.4532 110.182 88.1691 110.317C87.8595 110.457 87.5234 110.529 87.1835 110.528ZM87.1835 109.753C87.4036 109.765 87.6227 109.717 87.8171 109.613C88.0096 109.524 88.1785 109.392 88.3099 109.225C88.4554 109.077 88.5639 108.896 88.6267 108.697C88.6929 108.505 88.7285 108.303 88.7323 108.099C88.7315 107.895 88.6957 107.693 88.6267 107.501C88.5639 107.302 88.4554 107.121 88.3099 106.973C88.1688 106.817 88.0021 106.686 87.8171 106.585C87.6187 106.493 87.4024 106.445 87.1835 106.445C86.9645 106.445 86.7482 106.493 86.5499 106.585C86.3632 106.683 86.1961 106.814 86.0571 106.973C85.9115 107.121 85.803 107.302 85.7403 107.501C85.671 107.705 85.6354 107.919 85.6347 108.134C85.6324 108.339 85.6682 108.541 85.7403 108.733C85.8113 108.927 85.9188 109.106 86.0571 109.261C86.1981 109.417 86.3648 109.548 86.5499 109.648C86.7566 109.706 86.9691 109.741 87.1835 109.753Z" fill="#A1A1A1"/>
<path d="M90.9496 106.515H90.1118V105.776H90.9566V105.389C90.9457 105.112 90.9937 104.836 91.0974 104.579C91.1721 104.368 91.2923 104.176 91.4494 104.016C91.5908 103.879 91.7584 103.771 91.9422 103.699C92.1342 103.63 92.3366 103.595 92.5406 103.594C92.7794 103.592 93.017 103.627 93.2446 103.699C93.4854 103.772 93.7036 103.906 93.8782 104.087L93.4206 104.65C93.2112 104.451 92.9349 104.338 92.6462 104.333C92.5342 104.325 92.4218 104.343 92.318 104.386C92.2142 104.429 92.1217 104.495 92.0478 104.579C91.873 104.825 91.7862 105.123 91.8014 105.424V105.706H93.1038V106.445H91.8014V110.317H90.9214V106.515H90.9496Z" fill="#A1A1A1"/>
<path d="M101.728 109.226C101.625 109.378 101.507 109.519 101.376 109.648C101.201 109.805 101.013 109.947 100.813 110.07C100.581 110.215 100.333 110.334 100.074 110.422C99.7639 110.509 99.4446 110.556 99.1232 110.563C98.6649 110.577 98.209 110.493 97.7856 110.317C97.4004 110.136 97.0444 109.899 96.7296 109.613C96.4343 109.299 96.2066 108.927 96.0608 108.522C95.9048 108.08 95.8216 107.617 95.8144 107.149C95.8009 106.69 95.8849 106.235 96.0608 105.811C96.2281 105.405 96.4533 105.026 96.7296 104.685C97.0208 104.361 97.3819 104.108 97.7856 103.946C98.2075 103.761 98.6628 103.665 99.1232 103.664C99.4459 103.654 99.7678 103.701 100.074 103.805C100.331 103.882 100.579 103.989 100.813 104.122C101.002 104.245 101.179 104.386 101.341 104.544C101.478 104.667 101.597 104.809 101.693 104.966L101.024 105.53C100.954 105.424 100.848 105.318 100.742 105.178C100.639 105.044 100.507 104.935 100.355 104.861C100.193 104.751 100.015 104.668 99.8272 104.614C99.6117 104.542 99.3856 104.507 99.1584 104.509C98.8181 104.504 98.4811 104.576 98.1728 104.72C97.8906 104.855 97.639 105.047 97.4336 105.283C97.2271 105.532 97.0716 105.819 96.976 106.128C96.8752 106.459 96.8276 106.803 96.8352 107.149C96.8361 107.485 96.8956 107.819 97.0112 108.134C97.0989 108.436 97.2556 108.713 97.4688 108.944C97.6528 109.179 97.8957 109.361 98.1728 109.472C98.4688 109.615 98.7943 109.688 99.1232 109.683C99.3852 109.688 99.6463 109.652 99.8976 109.578C100.088 109.513 100.266 109.418 100.426 109.296C100.562 109.199 100.691 109.093 100.813 108.979C100.918 108.874 100.989 108.768 101.059 108.698L101.728 109.226Z" fill="#A1A1A1"/>
<path d="M102.671 105.776H103.551V108.486C103.522 108.822 103.609 109.158 103.798 109.437C103.896 109.541 104.017 109.62 104.152 109.669C104.286 109.718 104.43 109.735 104.572 109.718C104.784 109.734 104.995 109.69 105.182 109.59C105.369 109.49 105.524 109.34 105.628 109.155C105.735 108.983 105.806 108.792 105.839 108.592C105.882 108.371 105.906 108.148 105.91 107.923V105.776H106.79V110.352H105.952L105.917 109.683C105.847 109.753 105.776 109.859 105.706 109.929C105.607 110.02 105.501 110.102 105.389 110.176L104.967 110.387C104.782 110.43 104.593 110.454 104.403 110.457C104.155 110.478 103.905 110.441 103.673 110.349C103.441 110.258 103.233 110.114 103.066 109.929C102.765 109.524 102.616 109.026 102.643 108.521L102.679 105.776H102.671Z" fill="#A1A1A1"/>
<path d="M108.902 103.805H108.022V110.387H108.902V103.805Z" fill="#A1A1A1"/>
<path d="M110.556 106.515H109.711V105.776H110.556V104.262H111.436V105.776H112.774V106.515H111.436V108.768C111.413 109.038 111.475 109.309 111.612 109.542C111.672 109.614 111.748 109.67 111.833 109.707C111.919 109.744 112.012 109.76 112.105 109.753C112.249 109.753 112.391 109.729 112.527 109.683C112.655 109.617 112.774 109.534 112.879 109.437L113.302 109.965C113.128 110.13 112.925 110.261 112.703 110.352C112.479 110.439 112.24 110.487 111.999 110.493C111.806 110.509 111.611 110.483 111.428 110.416C111.246 110.349 111.08 110.243 110.943 110.105C110.672 109.755 110.546 109.314 110.591 108.873L110.556 106.515Z" fill="#A1A1A1"/>
<path d="M113.83 105.776H114.71V108.486C114.68 108.822 114.767 109.158 114.956 109.437C115.055 109.541 115.176 109.62 115.31 109.669C115.445 109.718 115.589 109.735 115.731 109.718C115.942 109.734 116.154 109.69 116.341 109.59C116.528 109.49 116.682 109.34 116.787 109.155C116.893 108.983 116.965 108.792 116.998 108.592C117.041 108.371 117.064 108.148 117.068 107.923V105.776H117.948V110.352H117.104L117.068 109.683C116.998 109.753 116.928 109.859 116.857 109.929C116.758 110.02 116.652 110.102 116.54 110.176L116.118 110.387C115.933 110.43 115.744 110.454 115.555 110.457C115.306 110.478 115.056 110.441 114.824 110.349C114.592 110.258 114.385 110.114 114.217 109.929C113.917 109.524 113.767 109.026 113.795 108.521L113.83 105.776Z" fill="#A1A1A1"/>
<path d="M119.18 110.387V105.811H120.032L120.067 106.551C120.127 106.46 120.198 106.377 120.278 106.304C120.368 106.203 120.475 106.12 120.595 106.058C120.732 105.98 120.873 105.91 121.018 105.847C121.199 105.786 121.39 105.763 121.581 105.776C121.676 105.769 121.772 105.781 121.862 105.811C121.948 105.823 122.03 105.847 122.109 105.882L121.898 106.727C121.749 106.681 121.595 106.657 121.44 106.656C121.258 106.65 121.077 106.686 120.912 106.762C120.744 106.826 120.598 106.936 120.49 107.079C120.376 107.218 120.281 107.372 120.208 107.536C120.139 107.704 120.103 107.883 120.102 108.064V110.493L119.187 110.387H119.18Z" fill="#A1A1A1"/>
<path d="M126.748 109.718C126.682 109.805 126.598 109.877 126.502 109.929C126.37 110.027 126.229 110.109 126.079 110.176C125.903 110.246 125.692 110.317 125.481 110.387C125.23 110.461 124.969 110.497 124.707 110.493C124.371 110.489 124.038 110.429 123.721 110.317C123.427 110.216 123.162 110.047 122.947 109.824C122.731 109.602 122.563 109.339 122.454 109.049C122.338 108.721 122.279 108.376 122.278 108.029C122.279 107.704 122.338 107.382 122.454 107.078C122.571 106.793 122.738 106.531 122.947 106.304C123.155 106.089 123.407 105.921 123.686 105.811C123.978 105.699 124.288 105.639 124.601 105.635C124.953 105.626 125.302 105.699 125.622 105.846C125.901 105.986 126.143 106.191 126.326 106.445C126.511 106.697 126.642 106.985 126.713 107.289C126.797 107.624 126.844 107.966 126.854 108.31H123.228C123.22 108.508 123.269 108.703 123.369 108.873C123.454 109.039 123.561 109.193 123.686 109.331C123.824 109.465 123.993 109.562 124.179 109.613C124.358 109.681 124.549 109.717 124.742 109.718C125.072 109.731 125.399 109.659 125.692 109.507C125.892 109.413 126.071 109.282 126.22 109.12L126.748 109.718ZM125.939 107.677C125.922 107.335 125.785 107.011 125.551 106.761C125.432 106.63 125.284 106.527 125.12 106.46C124.956 106.393 124.778 106.364 124.601 106.374C124.408 106.372 124.217 106.408 124.038 106.48C123.88 106.545 123.736 106.641 123.615 106.761C123.495 106.882 123.399 107.026 123.334 107.184C123.262 107.338 123.226 107.506 123.228 107.677H125.939Z" fill="#A1A1A1"/>
<path d="M110.697 66.5631C110.204 73.1455 110.802 79.6927 110.662 86.3455C110.626 87.5775 110.802 88.8799 110.697 90.0767C110.697 90.2175 110.662 90.3231 110.415 90.3231C110.112 90.2703 109.803 90.2703 109.5 90.3231C109.394 89.4431 109.43 88.7743 109.359 87.9999C109.183 86.3455 109.289 85.0079 109.289 83.2127C109.254 80.1151 109.007 76.9823 109.218 73.9199C109.289 72.8287 109.289 71.0335 109.254 69.9423C109.169 68.8178 109.158 67.6891 109.218 66.5631C109.709 66.4926 110.207 66.4926 110.697 66.5631Z" fill="#A1A1A1"/>
<path d="M56.0667 64.6975C56.5947 64.7327 56.8411 64.9087 56.8763 65.5071C56.9467 66.4223 56.8059 66.9151 56.9115 67.7951C57.2283 70.7519 56.5243 73.7087 56.8411 76.6655C57.0171 78.2143 56.8411 79.6223 56.9115 81.1711C56.9819 83.4943 56.8763 86.1343 56.8411 88.8799H49.5899C49.3435 88.5279 49.3787 86.6975 49.4491 86.2399C49.5076 85.8202 49.5312 85.3964 49.5195 84.9727C49.4843 83.2479 49.5899 81.7343 49.5899 80.0095C49.6015 79.0093 49.5426 78.0095 49.4139 77.0175C49.2731 76.1375 49.4843 74.5887 49.3787 73.7087C49.2027 72.5823 49.1323 65.9999 49.1675 64.7327C49.1675 64.7327 55.2219 64.6271 56.0667 64.6975Z" fill="#A1A1A1"/>
<path d="M69.372 66.2465C68.9496 66.1057 69.02 66.5985 69.02 66.8449V67.5489C69.02 68.1825 69.0552 69.9073 69.0552 70.5409C69.0552 71.5969 69.1256 72.5121 69.1256 73.3569C69.0904 74.9057 69.0904 76.4897 69.1608 78.0385C69.3016 81.9105 69.1256 85.8177 69.2312 89.6897C69.2312 90.0065 69.4424 90.1121 69.7592 90.1825L70.2168 90.2529C70.1816 86.9441 70.4632 83.4593 70.252 80.1505C70.1816 78.7777 70.2168 77.4049 70.2168 75.9969V72.0193C70.252 71.2097 70.2168 70.4001 70.1816 69.5905C70.1464 68.6049 70.2168 66.6689 69.9352 66.4225C69.7944 66.3169 69.6536 66.3521 69.372 66.2465Z" fill="#A1A1A1"/>
<path d="M62.2266 87.5425C62.649 87.5425 62.5786 87.1905 62.5786 86.9441C62.5786 86.6977 62.649 86.5569 62.649 86.2401C62.649 85.6065 62.6138 83.8465 62.6138 83.2129C62.6138 82.1569 62.5434 81.2417 62.5786 80.3969C62.6138 78.8129 62.649 77.2289 62.5786 75.6801C62.4378 71.7729 62.649 67.8305 62.5434 63.9233C62.5434 63.5713 62.297 63.5713 61.945 63.5361L61.417 63.5713C61.417 66.9153 61.4522 70.4705 61.4874 74.0257C61.5226 75.4337 61.4874 76.4897 61.4874 77.8977C61.4874 79.2353 61.5226 80.2913 61.5226 81.6289C61.5226 82.3329 61.4874 83.1073 61.4874 84.0929C61.4874 85.0785 61.417 86.9793 61.6634 87.2961C61.769 87.5073 61.945 87.5425 62.2266 87.5425Z" fill="#A1A1A1"/>
<path d="M71.7306 89.5841C71.3434 89.5489 71.273 89.3377 71.273 88.8801C71.3082 87.5073 71.2378 84.5857 71.0618 82.8257C70.9206 81.2075 70.956 79.5787 71.1674 77.9681C71.3082 76.8417 71.097 76.0321 71.097 74.6593C71.097 72.8641 71.2026 71.4561 71.2026 70.2241C71.2026 69.4849 71.1674 68.7105 71.1322 67.9713C71.097 67.2321 71.097 65.7185 71.097 65.5425C71.3068 65.5132 71.5188 65.5015 71.7306 65.5073C72.0243 65.5144 72.3128 65.5866 72.5754 65.7185C72.7514 66.4225 72.681 67.9361 72.681 68.7809C72.681 69.2737 72.6458 71.3153 72.681 71.8081C72.7514 72.6177 72.7162 73.4625 72.7162 74.2721C72.7162 75.3281 72.7866 76.3489 72.7866 77.4049C72.7866 78.7425 72.681 80.0449 72.6458 81.3825C72.5754 83.8113 72.8922 86.9793 72.857 89.0209C72.857 89.4433 72.8922 89.6545 72.4698 89.6545C72.2212 89.6699 71.9718 89.6461 71.7306 89.5841Z" fill="#A1A1A1"/>
<path d="M108.48 88.4576C108.55 87.4368 108.339 85.888 108.339 85.0432C108.339 84.5504 108.268 82.5792 108.304 82.1216C108.339 81.3472 108.304 80.5376 108.304 79.728C108.304 78.7072 108.374 77.6864 108.339 76.7008C108.339 75.3984 108.198 74.1312 108.163 72.864C108.057 70.1888 108.48 66.6336 108.304 64.768C107.513 64.6314 106.712 64.5725 105.91 64.592C105.735 66.1814 105.688 67.7823 105.769 69.3792C105.804 70.5408 105.699 71.9136 105.699 73.6736C105.734 75.0112 106.051 76.5952 105.91 77.6512C105.71 79.2159 105.687 80.7981 105.84 82.368C106.051 84.6208 105.98 88.2816 106.016 88.3168L108.48 88.4576Z" fill="#A1A1A1"/>
<path d="M115.519 88.528C115.625 85.7472 115.59 84.0928 115.66 81.6992C115.695 80.0096 115.414 77.8976 115.449 76.1024C115.519 72.864 115.555 71.7376 115.273 68.7104C115.203 68.0416 115.308 66.7392 115.273 66.0704C115.238 65.6128 115.238 65.0144 115.238 64.5568C115.238 64.5568 117.455 65.0496 119.215 64.6624C121.961 64.064 126.537 64.6976 126.537 64.6976C126.819 65.1552 126.854 66.2464 126.854 66.4928C126.819 68.4992 126.783 67.7952 126.819 69.7664C126.889 71.632 126.537 73.3216 126.537 75.9616C126.537 77.7216 126.783 78.848 126.854 80.0096C126.924 81.1712 126.713 82.2272 126.783 84.0928C126.819 85.2544 126.819 88.3168 126.819 88.5984C126.819 88.5984 118.617 88.6336 116.857 88.4224C116.408 88.3855 115.957 88.4212 115.519 88.528Z" fill="#A1A1A1"/>
<path d="M100.524 63.6064C100.559 67.7248 100.595 72.3008 100.806 76.032C100.876 77.264 100.841 78.848 100.876 80.256C100.877 81.1613 100.83 82.0661 100.735 82.9664C100.7 83.6465 100.7 84.3279 100.735 85.008C100.771 85.712 100.771 87.2256 100.7 87.2608C100.257 87.1903 99.8056 87.1903 99.3625 87.2608C99.2217 86.6976 99.3273 86.2048 99.3273 85.6064C99.3977 80.6432 99.0809 77.0528 99.1513 72.4768C99.1865 70.9984 99.1161 68.9568 99.0105 67.5136C98.9049 66.1877 98.9403 64.8544 99.1161 63.536C99.5866 63.5234 100.057 63.547 100.524 63.6064Z" fill="#A1A1A1"/>
<path d="M114.287 63.8178C114.428 65.965 114.322 67.3378 114.358 69.1682C114.393 70.7874 114.569 72.1602 114.463 73.9906C114.393 75.5746 114.534 77.1586 114.569 78.7778C114.604 80.3266 114.639 81.8754 114.639 83.4242C114.674 84.621 114.71 85.7122 114.71 86.909C114.71 87.1202 114.674 87.5426 114.674 87.7538C114.395 87.7115 114.112 87.6997 113.83 87.7186C113.114 87.7847 112.392 87.761 111.682 87.6482C111.436 87.5778 111.647 83.389 111.647 83.0018C111.682 81.4178 111.682 79.8338 111.682 78.285C111.682 76.7362 111.542 75.0114 111.506 73.3922C111.471 71.773 111.577 70.2594 111.542 68.6754C111.506 67.0914 111.471 65.6834 111.401 64.029C111.401 63.7122 111.718 63.5362 112.246 63.677C112.914 63.8178 113.654 63.6066 114.287 63.8178Z" fill="#A1A1A1"/>
<path d="M59.6571 65.8241C59.9012 65.8696 60.1208 66.0012 60.2759 66.1951C60.431 66.3889 60.5112 66.6321 60.5019 66.8801C60.5019 67.6545 60.5019 68.3586 60.4667 69.0274C60.4315 69.8018 60.4315 70.5409 60.4315 71.3505C60.4667 74.7297 60.6075 77.933 60.4667 81.4178C60.3259 84.3745 60.6075 87.261 60.5723 89.9714C59.6923 89.9362 58.6011 89.8306 57.7563 89.7954C58.0027 84.797 57.8267 80.0801 57.7915 74.8705C57.7563 71.9489 58.2491 69.661 57.8267 65.7538C58.4371 65.6884 59.0536 65.7121 59.6571 65.8241Z" fill="#A1A1A1"/>
<path d="M98.2713 76.9118C98.2009 75.1166 98.2361 71.7726 98.3417 69.9774C98.4825 68.0062 97.9897 64.979 96.8985 65.0494C95.9481 65.0142 94.8921 65.1198 93.9417 65.155C93.1673 65.1902 92.1817 65.1902 91.4073 65.2606C90.1049 65.3662 89.9641 65.1902 88.6265 65.1902C86.9721 65.1902 85.5641 65.331 83.9097 65.331C82.3257 65.331 80.5305 65.2958 78.9465 65.155C77.3625 65.0142 75.7081 64.803 74.1593 64.8734C73.9481 64.8734 73.8073 65.8942 73.7721 67.1262C73.7369 68.3582 73.6665 70.8926 73.7369 72.1246C74.3729 71.3628 75.2835 70.8822 76.2713 70.787C77.0432 70.6989 77.8226 70.6989 78.5945 70.787C78.3068 70.4407 77.9755 70.1331 77.6089 69.8718C77.345 69.6404 77.0321 69.4719 76.6937 69.379C76.2613 69.3316 75.8257 69.3198 75.3913 69.3438C75.6554 69.0348 75.9959 68.8007 76.379 68.6647C76.762 68.5288 77.174 68.4959 77.5737 68.5694C78.2777 68.675 79.5097 69.907 79.9321 69.5902C80.4249 69.203 80.2137 67.7246 80.8825 67.5486C81.4105 67.4078 81.7625 69.4142 82.0089 69.8366C82.5924 69.0728 83.4514 68.5675 84.4025 68.4286C84.8953 68.3582 86.4089 68.5694 86.6201 69.2734C86.0221 69.1915 85.4132 69.2764 84.8604 69.5186C84.3076 69.7609 83.8324 70.151 83.4873 70.6462C84.2877 70.3078 85.1645 70.1913 86.0255 70.309C86.8865 70.4267 87.6999 70.7742 88.3801 71.315C88.7321 71.6076 89.0509 71.9381 89.3305 72.3006C89.4631 72.4389 89.561 72.6068 89.6161 72.7904C89.6711 72.974 89.6818 73.168 89.6473 73.3566C89.0137 73.2158 88.4153 72.1246 87.3241 71.8078C86.4007 71.5554 85.4249 71.5676 84.5081 71.843C86.5849 72.195 89.4713 74.9406 88.4505 77.1934C88.1337 77.9326 88.0281 77.4398 87.9225 76.8062C87.8329 76.2143 87.5902 75.6561 87.2185 75.187C86.9178 74.788 86.5884 74.4115 86.2329 74.0606C85.7098 73.6377 85.0726 73.3803 84.4025 73.3214C85.7401 73.7086 86.6201 76.3486 86.7257 76.6302C86.9594 77.3448 87.055 78.0974 87.0073 78.8478C87.0073 79.2702 87.0425 80.7486 86.5145 80.8894C86.5145 80.8894 86.5849 77.3342 84.0857 75.2926C84.7545 76.4542 84.7897 77.8622 84.7193 79.1294C84.7106 79.8158 84.5418 80.4908 84.2265 81.1006C84.1561 81.2414 83.9097 81.9102 83.8041 81.9102C83.4873 81.9806 83.6633 79.939 83.5929 79.5518C83.5225 79.0942 82.7129 76.0318 81.8681 76.8062C81.4457 77.1934 81.6569 78.883 81.7273 79.6574C81.7977 80.6078 81.9033 81.9806 81.9385 82.8958C81.9342 84.6618 82.0518 86.426 82.2905 88.1758C84.5433 86.979 94.3641 81.9454 95.7721 86.099C95.7721 86.2398 95.7017 86.1342 95.7017 86.1342C94.7513 84.691 92.1113 85.4302 90.8089 85.8526C88.4857 86.5566 86.2329 87.7182 84.1209 88.915H96.9337C97.152 88.9137 97.3678 88.8686 97.5683 88.7823C97.7688 88.6961 97.9499 88.5704 98.1009 88.4129C98.2519 88.2553 98.3698 88.069 98.4474 87.865C98.525 87.661 98.5609 87.4435 98.5529 87.2254C98.5177 86.5566 98.5177 85.747 98.5177 84.867C98.5177 83.8814 98.5529 82.8254 98.5881 81.8398C98.5881 80.0094 98.3065 78.883 98.2713 76.9118ZM78.7353 78.9534C78.5884 79.4723 78.4825 80.0019 78.4185 80.5374C78.3833 80.7486 78.2073 81.9806 78.2073 81.9806C78.1307 81.9273 78.0699 81.8543 78.0313 81.7694C77.5385 80.643 77.6441 78.883 77.6441 78.883C77.8201 76.1022 78.8057 75.363 78.8057 75.363C78.3481 75.1166 77.4681 76.1726 76.9753 76.8062C76.3417 77.6862 76.4473 78.2846 76.3769 79.6926C76.0249 79.6222 75.7081 79.059 75.6729 78.6366C75.5673 76.4542 76.5177 74.483 77.5737 73.6734C77.6793 73.5678 76.3769 73.8142 76.1305 73.9198C75.2962 74.2618 74.6188 74.9016 74.2297 75.715C73.3497 77.4398 73.9129 79.4814 73.8073 81.347C73.7369 82.4382 73.8777 83.4942 73.8777 84.5854C73.8777 85.395 73.6665 85.571 74.4761 85.6414C74.7952 85.671 75.1125 85.718 75.4265 85.7822C77.274 86.1694 78.9576 87.1156 80.2489 88.4926C80.4601 85.9934 80.4953 83.6702 80.4953 81.171C80.4953 80.1854 80.6713 78.0382 80.0025 77.1934C79.3689 76.2782 78.8761 78.3902 78.7353 78.9534ZM74.0185 86.275C73.9833 87.2606 74.0537 88.035 74.0537 89.1614C74.8874 89.1325 75.7221 89.156 76.5529 89.2318C77.4681 89.3022 78.4537 89.1966 79.3689 89.3022C77.9257 87.7886 76.1305 86.451 74.0185 86.275ZM75.6025 72.8638C76.2063 72.4906 76.8425 72.1726 77.5033 71.9134C76.9934 71.7223 76.4471 71.6484 75.9048 71.6971C75.3625 71.7459 74.8381 71.916 74.3705 72.195C73.4905 72.723 73.8073 74.2718 73.6665 75.2222C74.1241 74.3422 74.7577 73.3918 75.6025 72.8638Z" fill="#A1A1A1"/>
<path d="M104.29 65.4718C104.349 65.4879 104.403 65.5192 104.446 65.5624C104.49 65.6056 104.521 65.6593 104.537 65.7182C104.607 68.4286 104.678 70.8574 104.854 73.6734C104.965 75.021 104.953 76.3759 104.818 77.7214C104.607 79.4462 105.03 80.819 104.924 82.5438C104.783 84.8318 105.1 86.6974 104.959 88.9502L102.143 89.0206C101.897 89.0206 101.686 88.8094 101.721 88.2462C101.756 87.683 101.721 85.3598 101.721 83.5998C101.721 81.8398 101.967 80.2206 101.756 78.2494C101.65 77.299 101.897 76.243 101.826 75.2926C101.721 73.5326 101.686 72.019 101.615 70.259C101.58 69.203 101.615 67.619 101.58 66.5982C101.545 65.8942 101.721 65.3662 102.108 65.1902C102.566 65.0142 103.798 65.4366 104.29 65.4718Z" fill="#A1A1A1"/>
<path d="M63.5289 86.2398C63.4937 86.9086 63.4937 87.1198 63.4937 87.3662C63.4937 87.5422 63.6345 87.5774 63.7753 87.6126C64.1345 87.7138 64.4987 87.7961 64.8665 87.859C65.1109 87.8999 65.358 87.9234 65.6057 87.9294C66.3449 87.9294 67.0489 88.1758 67.7881 88.1054C67.8233 88.1054 67.8233 88.1054 67.8585 88.0702C67.8937 88.035 68.1049 87.9294 68.1753 87.5422C68.2457 86.9086 68.1049 86.3806 68.1753 85.2542C68.2457 84.1278 68.1753 81.0654 68.2105 80.3262C68.2457 74.7294 67.9289 74.659 68.0697 70.3294C68.1094 69.119 68.0623 67.9074 67.9289 66.7038C67.8937 66.2814 67.6825 65.2254 67.7881 64.4862C67.8012 64.4276 67.801 64.3669 67.7878 64.3084C67.7745 64.25 67.7484 64.1952 67.7113 64.148C67.6743 64.1008 67.6272 64.0625 67.5735 64.0358C67.5198 64.009 67.4609 63.9945 67.4009 63.9934C66.2041 63.923 63.6697 64.1342 63.6697 64.1342C63.527 64.7451 63.4795 65.3744 63.5289 65.9998C63.5641 66.5278 63.4585 67.4078 63.4585 67.9006C63.4585 68.499 63.4233 69.0974 63.4585 69.6958C63.5289 71.2798 63.5641 72.899 63.5289 74.483C63.3881 78.531 63.7753 80.8542 63.5993 84.8318L63.5289 86.2398Z" fill="#A1A1A1"/>
</svg>
