<svg width="120" height="120" viewBox="0 0 120 120" fill="none" xmlns="http://www.w3.org/2000/svg">
<path d="M83.3085 46.852C84.7197 46.1464 85.8017 45.676 86.7895 45.0645C87.1658 44.7352 87.354 44.3118 87.401 43.8414C87.4951 42.7125 87.4481 41.5364 87.4481 40.2193C88.6241 40.2193 89.706 40.1723 90.7409 40.2664C90.9761 40.2664 91.2584 40.6427 91.3054 40.8779C91.3995 41.4424 91.3995 41.9598 91.3995 42.5243C93.3752 41.4894 95.2097 40.5486 97.0443 39.5608C99.5375 38.2436 102.078 36.8794 104.571 35.5623C104.759 35.4682 104.994 35.233 105.182 35.2801C105.794 35.3271 106.546 35.2801 106.923 35.6094C107.44 36.1268 107.017 37.3499 106.264 37.7262C104.289 38.714 102.313 39.6548 100.384 40.6427L90.7879 45.4408C82.6029 49.4392 74.4179 53.4377 66.2799 57.4361L59.7883 60.6819C59.5061 60.823 59.1768 60.9641 58.8475 61.1052C58.5653 61.1052 58.3301 61.1052 58.0479 61.0582C58.189 60.776 58.189 60.3526 58.4242 60.2585C59.8354 59.4588 61.2466 58.7062 62.6578 57.9065C63.8809 57.2479 65.5273 56.8716 66.1388 55.8367C66.7503 54.8018 66.374 53.1554 66.421 51.7912V40.2664C67.597 40.2664 68.679 40.2193 69.7139 40.3134C69.9491 40.3604 70.3254 41.019 70.3254 41.3953C70.3724 44.2648 70.3724 47.1813 70.3724 50.0508V51.4149C70.6547 51.3679 70.9369 51.2738 71.2192 51.1797C73.7593 49.8626 76.3466 48.5455 78.8397 47.1342C79.216 46.852 79.4512 46.4286 79.4512 45.9582C79.4983 44.1237 79.4983 42.2891 79.4983 40.3604H83.3085V46.852Z" fill="#A1A1A1"/>
<path d="M57.7188 62.0464C58.8477 62.4227 59.9767 62.752 61.0586 63.1754C69.2436 66.0448 77.4287 68.9143 85.6137 71.8308C91.7289 73.9946 97.8442 76.2055 103.959 78.3694C106.876 79.4043 109.745 80.3921 112.662 81.427C113.038 81.5681 113.462 81.6152 113.697 81.8974C114.026 82.2267 114.496 82.7912 114.402 83.1205C114.261 83.685 113.697 84.0613 113.085 83.9202C112.991 83.9202 112.897 83.8731 112.85 83.8261C111.345 83.2616 109.839 82.6501 108.334 82.0856L92.952 76.1585C92.6227 76.0174 92.2464 75.9233 91.6349 75.7351V80.6273C91.6349 82.7442 91.6349 82.7442 89.2358 82.509V77.5227C89.2358 74.371 89.2358 74.371 86.1782 73.5242C85.7078 73.3831 85.2374 73.242 84.5318 73.0538V82.3678C84.3436 82.509 84.2966 82.556 84.2495 82.556C82.1798 82.7442 82.1798 82.7442 82.1798 80.6273C82.1798 78.5105 82.2268 76.4878 82.1327 74.418C82.0857 73.9476 81.8034 73.4772 81.3801 73.242C77.7109 71.8308 74.0418 70.5137 70.3726 69.1495C70.2315 69.1024 70.0904 69.1024 69.7611 69.0084V82.4619H67.315V81.2389C67.315 76.5819 67.268 71.9249 67.315 67.2679C67.4091 66.5623 66.9387 65.8567 66.2331 65.6685C63.787 64.7747 61.3409 63.8339 58.8948 62.8931C58.4244 62.705 58.001 62.4698 57.5776 62.2816C57.6247 62.2345 57.6717 62.1405 57.7188 62.0464Z" fill="#A1A1A1"/>
<path d="M62.9872 46.1466C61.8583 46.1466 60.8704 46.1937 59.8826 46.0996C59.5063 46.0055 59.224 45.7703 59.0829 45.441C58.095 42.9008 53.9085 41.913 51.8857 43.7476C50.8038 44.7825 50.9919 46.2878 52.4502 46.9463C53.7203 47.4167 55.0374 47.8401 56.4016 48.1223C57.5776 48.4516 58.8007 48.6868 59.9767 49.0631C62.658 49.8158 64.2573 52.6382 63.4576 55.3665C63.1284 56.4955 62.4228 57.4834 61.482 58.1419C60.353 58.8946 59.1299 59.365 57.8128 59.6472C54.7552 60.1176 51.6505 60.1176 48.9692 58.189C47.2287 56.9189 46.5231 55.1313 46.4761 52.8734C47.6521 52.8734 48.734 52.8264 49.7689 52.8734C50.0041 52.8734 50.3804 53.1557 50.3804 53.3438C50.6627 55.931 52.5443 56.6366 54.6611 56.8718C55.743 56.9189 56.872 56.7778 57.9069 56.4485C58.9418 56.1662 59.6474 55.2254 59.6003 54.1435C59.5533 52.9204 58.7536 52.2619 57.6717 51.9796C55.743 51.4622 53.8144 51.0388 51.8857 50.5214C50.3334 50.098 48.781 49.5806 47.8402 48.0753C46.1938 45.394 47.3698 42.0541 50.6156 40.737C53.8614 39.4199 57.1542 39.4669 60.2589 41.3015C62.1876 42.2423 63.1754 43.7946 62.9872 46.1466Z" fill="#A1A1A1"/>
<path d="M23.2379 46.1464C22.7675 46.0994 22.3441 46.0994 21.8737 46.1464C20.5095 46.2405 19.3335 46.2875 18.9572 44.5C18.722 43.9355 18.2516 43.4651 17.6401 43.324C16.2289 43.0888 14.7706 42.9947 13.3594 43.1358C12.2775 43.1829 11.4778 44.0766 11.5248 45.1586C11.5248 46.2875 12.3245 46.899 13.3124 47.1343C15.4762 47.7458 17.6401 48.2162 19.7569 48.7807C21.4974 49.204 22.8616 50.1448 23.5672 51.8383C24.6021 54.2373 23.7083 57.0127 21.4503 58.3769C18.2516 60.3996 12.4186 60.2585 9.36097 58.1417C7.94976 57.1068 7.00895 55.5545 6.82079 53.814C6.72671 53.0613 6.96191 52.7321 7.7616 52.7791C8.18496 52.8261 8.60833 52.8261 9.03169 52.7791C10.1136 52.685 10.7722 52.8261 11.0074 54.1903C11.1485 54.943 11.9952 55.7897 12.7479 56.166C14.4884 57.0598 16.5111 57.1539 18.2986 56.4012C19.4747 55.9308 20.0862 55.037 20.0391 53.9551C19.9451 52.7321 19.1454 52.1676 18.0634 51.8853C15.8055 51.2738 13.5476 50.7564 11.2896 50.0978C9.21985 49.5333 7.85568 48.1691 7.62048 46.0053C7.38528 43.7473 8.51425 42.1009 10.3959 40.972C13.5476 39.1374 18.8161 39.4667 21.5915 41.8187C22.9086 42.8536 23.5672 44.5 23.2379 46.1464Z" fill="#A1A1A1"/>
<path d="M26.6719 40.3135H30.4351C30.4351 40.7368 30.4821 41.2073 30.4821 41.6306V51.3209C30.4821 52.1677 30.5292 53.0144 30.7173 53.8141C31.0937 55.5075 32.3167 56.3072 33.9161 56.5424C34.7628 56.6835 35.6095 56.6835 36.4563 56.5424C38.7142 56.2131 39.8432 54.896 39.8902 52.4969C39.9373 48.9219 39.8902 45.3468 39.8902 41.7717C39.8902 40.1724 39.8902 40.1724 41.4426 40.1724H43.8416C43.8886 40.7368 43.8887 41.1602 43.8887 41.6306V52.1206C43.8887 56.4483 41.7248 59.0356 37.3971 59.6C34.7628 59.9293 32.0815 59.9293 29.6825 58.424C27.8949 57.3421 26.813 55.7427 26.766 53.72C26.6248 49.7216 26.7189 45.7231 26.7189 41.7247C26.6719 41.2543 26.6719 40.7839 26.6719 40.3135Z" fill="#A1A1A1"/>
<path d="M34.8568 83.0731C30.8584 82.9319 27.4715 81.6148 25.6839 77.8516C23.8964 74.0883 24.1316 70.231 26.6718 66.75C28.3182 64.4921 30.7173 63.4572 33.3986 63.222C36.7384 62.8927 39.9372 63.3631 42.4303 65.9974C45.4409 69.1961 45.9583 73.0064 44.5001 77.0048C43.0889 80.8151 40.0783 82.6497 36.1269 83.026C35.7035 83.0731 35.2802 83.0731 34.8568 83.0731ZM34.8568 81.1444C39.5608 81.4266 42.8066 77.8986 42.8066 73.1005C42.8066 68.3024 39.702 65.0096 34.9979 65.0096C30.0587 65.0096 26.954 68.1142 26.954 73.0535C26.954 77.9927 30.0587 81.1914 34.8568 81.1444Z" fill="#A1A1A1"/>
<path d="M63.5986 69.055C61.8111 69.4784 61.717 69.3373 60.9173 67.832C60.4469 66.9382 59.7413 66.2326 58.8475 65.7622C56.5896 64.5862 53.9083 64.6332 51.6974 65.9504C50.6155 66.5619 50.2391 67.5968 50.3332 68.8198C50.4273 70.0429 51.227 70.6074 52.2148 70.8896C54.6139 71.5482 57.06 71.9715 59.4591 72.6301C60.6351 72.9123 61.764 73.4298 62.7519 74.1354C65.4332 76.2052 64.6805 80.5799 61.3877 81.9911C57.8597 83.5435 53.8142 83.4964 50.3332 81.85C48.3105 80.9563 47.3226 79.1687 47.2286 76.9578C47.1815 76.4404 47.2756 75.97 47.9342 76.0641C48.5927 76.1581 49.4865 75.5937 49.5806 76.7226C49.8628 79.3569 51.5092 80.5329 53.9083 80.9092C55.931 81.2385 57.9538 81.3326 59.8824 80.3447C61.0584 79.7332 61.9992 78.9335 61.9992 77.4753C61.9992 76.017 60.9173 75.2644 59.7413 74.888C57.6715 74.2295 55.5077 73.8061 53.3908 73.2887C52.5441 73.1005 51.7444 72.8653 50.9448 72.5831C49.2983 71.9715 48.1223 70.8896 47.9342 69.008C47.699 67.2205 48.5457 65.4329 50.098 64.4451C52.2619 62.9398 54.708 62.8928 57.2011 63.175C58.3771 63.3632 59.5061 63.6924 60.588 64.2099C62.4696 65.1036 63.6456 66.9853 63.5986 69.055Z" fill="#A1A1A1"/>
<path d="M15.1469 72.9594C15.9936 71.8775 16.6521 70.9837 17.3107 70.09C18.5338 68.4436 19.8979 66.8442 20.9799 65.0567C21.9207 63.5043 23.0967 63.2691 24.8372 63.6454C24.4608 64.1629 24.1786 64.6803 23.8023 65.1507C21.4973 68.1613 19.1923 71.1249 16.9344 74.1355C16.6051 74.6059 16.4169 75.1233 16.4169 75.6878C16.3699 77.8987 16.3699 80.1566 16.3699 82.3205C16.1347 82.4146 16.0406 82.5086 15.9465 82.5086C13.9708 82.6498 13.9708 82.6498 13.9708 80.6741V79.1688C13.9708 74.6059 13.9708 74.6059 11.1014 70.9837C9.36089 68.7728 7.71447 66.5149 5.97398 64.304C5.83286 64.1158 5.73878 63.9277 5.59766 63.7395C7.33815 63.128 8.13784 63.4102 9.12568 64.7274C10.9603 67.2205 12.8419 69.7137 14.6764 72.2068C14.8646 72.442 15.0057 72.6772 15.1469 72.9594Z" fill="#A1A1A1"/>
<path d="M79.8276 64.0692C79.9216 64.0692 80.0628 64.1162 80.1568 64.1632C83.3085 65.057 82.8852 64.6807 82.7911 61.7642C82.7911 61.1527 82.4148 60.9175 81.8503 61.1056C80.1568 61.7171 78.2752 61.9053 77.3815 63.928C77.1463 64.4925 76.4407 64.8689 75.8762 65.2452C75.7821 65.3393 75.4999 65.1511 75.2646 65.1041C75.3587 64.8689 75.4058 64.5396 75.5469 64.4925C76.3466 64.1162 77.1463 63.7869 76.6288 62.658C76.5818 62.5639 76.9111 62.3757 77.0992 62.1876C77.4285 61.8583 77.7107 61.4819 78.0871 61.0586C77.2403 60.7763 76.5818 60.5411 75.9232 60.353V60.0237C76.7699 59.7415 77.6637 59.4122 78.4634 59.1299C78.2282 58.6125 77.8048 58.095 77.8989 57.7658C77.993 57.4365 78.6516 57.2954 79.122 57.0602C78.5104 56.6838 77.8989 56.3545 77.1463 55.9312C78.1812 55.696 79.169 55.3667 80.1568 54.9904C81.2388 54.52 81.2858 53.8614 80.4391 52.9676C81.2388 52.5913 81.7092 52.9206 82.1325 53.5792C82.3677 53.9084 82.6029 54.1436 82.9322 54.3788C83.2145 54.6141 83.4967 54.8022 83.779 55.0374C83.4967 55.2726 83.2145 55.5549 82.9322 55.7901C82.65 55.9782 82.3207 56.1193 81.9914 56.2605C82.4618 56.4957 82.9793 56.7309 83.4967 56.919C82.9322 57.2954 82.5559 57.4835 81.9914 57.8128C82.9793 58.1421 84.2494 56.9661 84.7668 58.6125L82.65 58.8947C82.65 59.0358 82.603 59.224 82.603 59.3651C83.2615 59.5062 83.873 59.6474 84.5316 59.7415C85.1902 59.8355 86.178 59.3651 86.5543 60.7293C86.178 60.7763 85.7547 60.7763 85.3783 60.7293C84.0142 60.5882 83.873 60.6823 83.826 62.0935C83.873 63.0343 83.826 64.0221 83.7319 64.9629C83.5908 66.233 83.0263 66.4212 81.9914 65.7156C81.3799 65.1981 80.5802 64.6337 79.8276 64.0692ZM82.5559 60.1178C80.8154 59.224 79.9216 59.4592 79.3101 60.9645C80.3921 60.7293 81.3329 60.4941 82.5559 60.1178Z" fill="#A1A1A1"/>
<path d="M110.874 64.5863C110.075 64.3981 109.463 64.257 108.899 64.0689C106.123 63.1281 106.123 63.1281 104.1 65.0567C103.724 65.433 103.677 66.4209 102.783 65.9505C101.89 65.4801 100.855 64.9156 100.808 63.5985C100.808 62.8458 100.855 62.0461 100.902 61.2935C100.996 60.3527 101.231 59.4119 101.278 58.424C101.278 57.8595 101.184 57.295 100.996 56.7306C102.454 56.3072 103.865 55.8368 105.371 55.4605C105.935 55.3194 106.5 55.3664 107.064 55.5546C107.77 55.7898 108.146 56.3072 107.581 57.0598C107.534 57.1539 107.393 57.248 107.393 57.3421C106.97 59.9763 104.806 60.4938 102.783 61.1524C101.89 61.4816 101.09 63.6455 101.654 64.4452C101.937 64.6804 102.313 64.8215 102.689 64.7274C103.348 64.4452 103.912 64.1159 104.477 63.6925C104.665 63.5514 104.853 63.4103 104.994 63.2692C104.947 63.1281 104.9 63.034 104.853 63.034C104.477 62.7988 104.053 62.6106 103.677 62.3754C104.006 62.0461 104.383 61.7639 104.759 61.4816C105.418 61.0112 106.123 60.5879 106.829 60.2115C107.111 60.0704 107.487 60.2586 107.864 60.3056C107.723 60.6349 107.581 60.9642 107.393 61.2464C107.205 61.5287 106.923 61.7639 106.688 62.0461C107.017 62.2343 107.346 62.3754 107.676 62.5165C108.852 62.8458 110.263 62.7517 110.874 64.5863ZM102.548 57.5773L102.83 58.1418C103.912 57.7184 104.994 57.3421 106.076 56.8717C106.217 56.7776 106.217 56.2602 106.217 55.9309C106.029 55.8368 105.841 55.7898 105.653 55.8368C104.618 56.4013 103.583 57.0128 102.548 57.5773ZM103.348 59.6471C104.43 59.7411 105.276 59.4589 105.465 58.2359C104.759 58.6592 104.053 59.1296 103.348 59.6471Z" fill="#A1A1A1"/>
<path d="M93.7515 64.0691C95.9153 63.7398 96.0094 63.6928 95.9624 61.67C95.9624 59.7884 95.8683 57.9068 95.8212 56.0252C95.8212 55.0844 95.3038 55.0374 94.5982 55.2726C94.316 55.3196 94.0337 55.4607 93.7515 55.6018C92.7636 56.2134 91.8699 56.0722 90.6938 55.2255C92.8577 54.7551 94.6452 53.5791 96.7621 54.5669C97.4206 54.8492 97.5147 55.2726 97.4206 56.0252C97.2325 57.5305 97.2795 59.0828 97.1854 60.5881C97.0913 62.0934 97.0443 63.5517 96.9032 65.0099C96.8561 65.5744 96.4328 65.7626 95.9153 65.3862C95.2097 64.9158 94.5041 64.4925 93.7515 64.0691Z" fill="#A1A1A1"/>
<path d="M88.4828 59.2711C88.8121 60.4001 89.3766 60.2589 90.1292 59.9297C91.023 59.5063 91.8697 58.8948 92.9516 59.3652C93.6573 59.6474 94.0336 60.0237 93.6102 60.8705C93.422 61.2468 93.328 61.6231 93.1398 62.0465C93.0928 62.1406 93.1398 62.2346 93.0928 62.2817C91.9638 62.7521 90.7878 63.1284 89.5647 63.4107C89.2355 63.4577 88.5769 62.4698 88.3887 61.8583C87.8713 60.1178 87.9183 60.0708 88.4828 59.2711ZM91.6345 60.5882C91.4464 60.6353 91.2111 60.6353 91.1171 60.6823C90.7407 60.9175 90.3644 61.1997 89.9881 61.482C90.1292 61.6231 90.3644 61.9054 90.4115 61.8583C90.8819 61.5761 91.3052 61.2468 91.7286 60.9175C91.6816 60.8234 91.6345 60.6823 91.6345 60.5882Z" fill="#A1A1A1"/>
<path d="M88.3887 57.8124C89.6588 57.4831 90.8348 57.1068 92.0108 56.8716C92.4341 56.8716 92.9046 56.9657 93.2809 57.1538C93.469 57.2479 93.5631 57.4831 93.5631 57.6713C93.5631 57.7653 93.2809 57.9065 93.1398 57.9535C92.4341 58.1887 91.7756 58.4239 91.07 58.6591C89.6117 59.2236 89.3765 59.1766 88.3887 57.8124Z" fill="#A1A1A1"/>
<path d="M103.63 53.5321C104.618 53.2969 105.511 53.0617 106.405 54.0026C104.853 54.6611 103.442 55.2256 101.983 55.8842C102.36 54.8963 103.912 54.8963 103.63 53.5321Z" fill="#A1A1A1"/>
<path d="M79.8275 64.0688C79.5453 63.6925 79.263 63.3632 79.0278 62.9869C79.4512 62.7046 79.8275 62.1401 80.2509 62.1401C80.8154 62.1401 81.3798 62.5165 81.9443 62.7517C81.8973 62.9398 81.8973 63.0809 81.8503 63.2691H79.4512C79.5453 63.5513 79.6864 63.8336 79.8275 64.0688Z" fill="#A1A1A1"/>
<path d="M98.2397 82.2405V82.7807H96.8527V87.3286H96.1884V82.7807H94.7941V82.2405H98.2397ZM100.269 93.277V98.3286H99.6048V94.5618L97.9258 98.3286H97.4586L95.7723 94.5545V98.3286H95.108V93.277H95.8234L97.6922 97.4526L99.561 93.277H100.269Z" fill="#A1A1A1"/>
</svg>
