<svg width="120" height="120" viewBox="0 0 120 120" fill="none" xmlns="http://www.w3.org/2000/svg">
<path d="M74.4648 28.4593C81.709 28.4593 87.5891 59.0355 87.5891 96.7149H98.0791C98.0791 56.119 87.495 23.2378 74.4648 23.2378C67.0324 23.2378 60.3997 33.1163 56.072 48.5926C51.7443 33.1163 45.1116 23.2378 37.6792 23.2378C24.649 23.2378 14.0649 56.1661 14.0649 96.7149H24.5549C24.5549 59.0355 30.435 28.4593 37.6792 28.4593C44.9234 28.4593 50.8035 56.6835 50.8035 91.4463H61.2935C61.3405 56.6835 67.2206 28.4593 74.4648 28.4593ZM103.348 91.4934C104.806 91.4934 105.982 92.6694 105.982 94.1276C105.982 95.5859 104.853 96.7619 103.395 96.7619H103.348C101.889 96.7619 100.713 95.5859 100.713 94.1276C100.713 92.6694 101.889 91.4934 103.348 91.4934ZM103.348 96.3385C104.571 96.3385 105.511 95.3507 105.511 94.1276V94.0806C105.558 92.9046 104.618 91.9167 103.442 91.8697C103.395 91.8697 103.395 91.8697 103.348 91.8697C102.125 91.8697 101.09 92.8576 101.09 94.1276C101.09 95.3977 102.077 96.3385 103.348 96.3385ZM102.313 92.5753H103.489C104.194 92.5753 104.571 92.8575 104.571 93.4691C104.618 93.8924 104.288 94.2688 103.865 94.3158C103.818 94.3158 103.818 94.3158 103.771 94.3158L104.665 95.68H104.147L103.301 94.3158H102.783V95.6329H102.313V92.5753ZM102.783 93.9395H103.301C103.724 93.9395 104.1 93.9395 104.1 93.422C104.1 92.9987 103.771 92.9516 103.442 92.9516H102.83L102.783 93.9395Z" fill="#A1A1A1"/>
</svg>
