<svg width="176" height="176" viewBox="0 0 176 176" fill="none" xmlns="http://www.w3.org/2000/svg">
<path d="M48.875 115.826L48.3118 112.834V116.072C48.3158 116.205 48.2918 116.337 48.2414 116.459C48.2163 116.502 48.1803 116.538 48.1371 116.563C48.0938 116.588 48.0448 116.601 47.995 116.601C47.9451 116.601 47.8961 116.588 47.8528 116.563C47.8096 116.538 47.7737 116.502 47.7486 116.459C47.6673 116.347 47.6298 116.21 47.643 116.072V112.376C47.6252 112.227 47.6628 112.077 47.7486 111.954C47.7916 111.916 47.8419 111.887 47.8963 111.869C47.9507 111.851 48.0082 111.844 48.0654 111.848H48.2766C48.3719 111.837 48.4684 111.849 48.5582 111.883C48.6231 111.925 48.6726 111.987 48.699 112.059C48.748 112.184 48.7834 112.314 48.8046 112.446L49.2974 115.016L49.7902 112.446C49.8169 112.304 49.8522 112.163 49.8958 112.024C49.9221 111.952 49.9716 111.89 50.0366 111.848C50.1263 111.814 50.2228 111.802 50.3182 111.813H50.5294C50.5865 111.808 50.644 111.815 50.6984 111.834C50.7529 111.852 50.8031 111.881 50.8462 111.918C50.9319 112.042 50.9695 112.192 50.9518 112.341V116.037C50.9558 116.169 50.9318 116.301 50.8814 116.424C50.858 116.469 50.8223 116.505 50.7787 116.53C50.735 116.555 50.6852 116.567 50.635 116.565C50.5887 116.571 50.5419 116.56 50.5031 116.534C50.4643 116.508 50.4361 116.469 50.4238 116.424C50.3475 116.31 50.3105 116.174 50.3182 116.037V112.798L49.7902 115.79C49.7578 115.93 49.7343 116.071 49.7198 116.213C49.6945 116.306 49.646 116.39 49.579 116.459C49.548 116.494 49.5099 116.521 49.4673 116.539C49.4248 116.557 49.3788 116.566 49.3326 116.565C49.2578 116.558 49.1856 116.534 49.1214 116.494C49.0564 116.453 49.0069 116.391 48.9806 116.318C48.9365 116.244 48.9123 116.159 48.9102 116.072C48.9278 116.002 48.875 115.931 48.875 115.826Z" fill="#A1A1A1"/>
<path d="M52.0078 112.658C51.9616 112.659 51.9156 112.65 51.873 112.632C51.8305 112.614 51.7924 112.587 51.7614 112.552C51.7236 112.509 51.6947 112.459 51.6766 112.404C51.6584 112.35 51.6514 112.293 51.6558 112.235C51.6531 112.121 51.6904 112.009 51.7614 111.919C51.786 111.886 51.8179 111.859 51.8546 111.841C51.8912 111.823 51.9316 111.813 51.9726 111.813C52.0136 111.813 52.054 111.823 52.0907 111.841C52.1273 111.859 52.1592 111.886 52.1838 111.919C52.2524 112.01 52.2894 112.121 52.2894 112.235C52.2894 112.35 52.2524 112.461 52.1838 112.552C52.1673 112.585 52.1421 112.612 52.111 112.63C52.0799 112.649 52.0441 112.658 52.0078 112.658ZM52.3246 113.538V116.037C52.3378 116.175 52.3003 116.312 52.219 116.424C52.1939 116.467 52.158 116.503 52.1147 116.528C52.0715 116.553 52.0225 116.566 51.9726 116.566C51.9228 116.566 51.8738 116.553 51.8305 116.528C51.7873 116.503 51.7513 116.467 51.7262 116.424C51.65 116.31 51.6129 116.174 51.6206 116.037V113.538C51.6166 113.405 51.6406 113.273 51.691 113.151C51.7614 113.08 51.8318 113.01 51.9022 113.01C51.9524 113.007 52.0023 113.019 52.046 113.044C52.0896 113.069 52.1252 113.106 52.1486 113.151C52.2052 113.198 52.2504 113.257 52.2809 113.324C52.3114 113.391 52.3263 113.464 52.3246 113.538Z" fill="#A1A1A1"/>
<path d="M53.0288 113.151H53.0992V112.306C53.0992 112.235 53.1344 112.165 53.1344 112.095C53.1607 112.042 53.1965 111.994 53.24 111.954C53.2788 111.917 53.3278 111.892 53.3808 111.883C53.4252 111.886 53.4682 111.901 53.5053 111.925C53.5423 111.95 53.5722 111.984 53.592 112.024C53.6362 112.086 53.6607 112.159 53.6624 112.235C53.6624 112.306 53.6976 112.411 53.6976 112.587V113.186H53.944C54.0208 113.181 54.0964 113.206 54.1552 113.256C54.1942 113.32 54.2183 113.393 54.2256 113.467C54.2305 113.514 54.2234 113.561 54.2049 113.604C54.1864 113.647 54.1571 113.685 54.12 113.714C54.0325 113.758 53.9363 113.782 53.8384 113.784H53.7328V115.685C53.734 115.75 53.759 115.813 53.8032 115.861C53.8199 115.882 53.8412 115.9 53.8656 115.912C53.89 115.924 53.9167 115.931 53.944 115.931C53.9936 115.937 54.0435 115.924 54.0848 115.896C54.1282 115.867 54.1804 115.855 54.2321 115.862C54.2837 115.868 54.3313 115.893 54.3664 115.931C54.4054 115.996 54.4295 116.068 54.4368 116.143C54.4371 116.206 54.4211 116.268 54.3902 116.324C54.3594 116.379 54.3148 116.426 54.2608 116.459C54.1093 116.539 53.9388 116.576 53.768 116.565C53.6861 116.574 53.6032 116.566 53.5245 116.542C53.4457 116.518 53.3728 116.478 53.3104 116.424C53.2003 116.321 53.1263 116.185 53.0992 116.037C53.0678 115.827 53.056 115.615 53.064 115.403V113.749H52.9936C52.9518 113.754 52.9094 113.747 52.8718 113.728C52.8342 113.71 52.803 113.68 52.7824 113.643C52.7433 113.579 52.7192 113.507 52.712 113.432C52.7074 113.355 52.7326 113.28 52.7824 113.221C52.8527 113.167 52.9407 113.142 53.0288 113.151Z" fill="#A1A1A1"/>
<path d="M55.141 113.608L55.5634 115.544L55.9506 113.749C55.9718 113.616 56.0072 113.486 56.0562 113.362L56.1618 113.15C56.1881 113.119 56.2204 113.094 56.2566 113.076C56.2929 113.058 56.3325 113.047 56.373 113.045C56.4147 113.039 56.4571 113.046 56.4947 113.065C56.5323 113.084 56.5635 113.114 56.5842 113.15C56.615 113.177 56.6403 113.209 56.6584 113.245C56.6765 113.282 56.6872 113.321 56.6898 113.362C56.7388 113.486 56.7742 113.616 56.7954 113.749L57.1826 115.544L57.605 113.608C57.6207 113.501 57.6443 113.395 57.6754 113.291C57.6754 113.221 57.7106 113.186 57.7458 113.115C57.7939 113.071 57.8565 113.046 57.9218 113.045C57.9623 113.047 58.0018 113.058 58.0381 113.076C58.0744 113.094 58.1066 113.119 58.133 113.15C58.1624 113.184 58.1841 113.223 58.1962 113.266C58.2084 113.308 58.2109 113.353 58.2034 113.397C58.1888 113.539 58.1653 113.68 58.133 113.819L57.605 115.896C57.5838 116.028 57.5484 116.158 57.4994 116.283L57.3938 116.494C57.3674 116.525 57.3352 116.55 57.2989 116.569C57.2626 116.587 57.223 116.597 57.1826 116.6C57.1363 116.601 57.0903 116.592 57.0478 116.574C57.0053 116.556 56.9672 116.529 56.9362 116.494C56.8691 116.425 56.8206 116.341 56.7954 116.248C56.7511 116.122 56.7158 115.992 56.6898 115.861L56.3026 114.171L55.9506 115.861C55.9219 116.041 55.8747 116.218 55.8098 116.389C55.784 116.442 55.744 116.486 55.6942 116.517C55.6444 116.548 55.5869 116.565 55.5282 116.565C55.4629 116.564 55.4003 116.539 55.3522 116.494C55.2968 116.443 55.2494 116.384 55.2114 116.318C55.1673 116.244 55.1431 116.159 55.141 116.072C55.1058 115.966 55.1058 115.896 55.0706 115.861L54.5426 113.784C54.5074 113.573 54.4722 113.467 54.4722 113.397C54.4743 113.31 54.4985 113.225 54.5426 113.15C54.5663 113.117 54.5981 113.089 54.6349 113.071C54.6718 113.053 54.7126 113.044 54.7538 113.045C54.7955 113.039 54.8379 113.046 54.8755 113.065C54.9131 113.084 54.9443 113.114 54.965 113.15C55.0415 113.295 55.1006 113.449 55.141 113.608Z" fill="#A1A1A1"/>
<path d="M60.2096 116.072C60.0846 116.221 59.9284 116.342 59.752 116.424C59.6005 116.508 59.432 116.556 59.2592 116.565C59.1829 116.572 59.1061 116.563 59.0334 116.538C58.9608 116.514 58.8939 116.475 58.8368 116.424C58.7069 116.341 58.608 116.217 58.5552 116.072C58.4832 115.918 58.447 115.749 58.4496 115.579C58.4435 115.366 58.5051 115.157 58.6256 114.981C58.7274 114.809 58.8912 114.683 59.0832 114.629C59.1184 114.629 59.224 114.594 59.4 114.558C59.5471 114.533 59.6895 114.486 59.8224 114.418C59.9549 114.381 60.0844 114.334 60.2096 114.277C60.225 114.106 60.1881 113.934 60.104 113.784C60.0616 113.722 60.0032 113.673 59.9349 113.642C59.8667 113.611 59.7913 113.599 59.7168 113.608C59.6541 113.601 59.5905 113.607 59.53 113.625C59.4696 113.643 59.4134 113.673 59.3648 113.714C59.2779 113.794 59.2063 113.889 59.1536 113.995C59.1172 114.083 59.0699 114.166 59.0128 114.242C58.9961 114.263 58.9748 114.281 58.9504 114.293C58.926 114.305 58.8993 114.312 58.872 114.312C58.8358 114.313 58.8 114.303 58.7689 114.285C58.7378 114.266 58.7125 114.239 58.696 114.206C58.6666 114.173 58.6449 114.134 58.6328 114.091C58.6206 114.049 58.6181 114.004 58.6256 113.96C58.627 113.802 58.663 113.645 58.7312 113.502C58.8148 113.343 58.952 113.219 59.1184 113.15C59.3128 113.046 59.5319 112.998 59.752 113.01C59.9837 112.994 60.2151 113.043 60.4208 113.15C60.5831 113.247 60.7073 113.396 60.7728 113.573C60.8498 113.824 60.8855 114.085 60.8784 114.347V115.333C60.8868 115.511 60.9104 115.687 60.9488 115.861C60.9794 115.977 61.0029 116.094 61.0192 116.213C61.0205 116.259 61.0117 116.305 60.9935 116.348C60.9752 116.39 60.948 116.428 60.9136 116.459C60.8873 116.49 60.855 116.515 60.8188 116.534C60.7825 116.552 60.7429 116.562 60.7024 116.565C60.658 116.562 60.615 116.548 60.5779 116.523C60.5409 116.498 60.511 116.464 60.4912 116.424C60.4232 116.387 60.3633 116.337 60.3149 116.277C60.2665 116.216 60.2308 116.147 60.2096 116.072ZM60.1744 114.84C60.0374 114.898 59.8962 114.945 59.752 114.981C59.576 115.016 59.4352 115.086 59.3648 115.086C59.2868 115.121 59.2154 115.168 59.1536 115.227C59.0833 115.304 59.0454 115.405 59.048 115.509C59.0452 115.634 59.0822 115.758 59.1536 115.861C59.1845 115.907 59.2266 115.944 59.2759 115.968C59.3253 115.993 59.3802 116.004 59.4352 116.002C59.5608 116.005 59.684 115.968 59.7872 115.896C59.8872 115.819 59.971 115.724 60.0336 115.614C60.1004 115.41 60.1244 115.195 60.104 114.981L60.1744 114.84Z" fill="#A1A1A1"/>
<path d="M61.4766 116.037V112.288C61.4726 112.156 61.4966 112.024 61.547 111.901C61.5721 111.858 61.6081 111.822 61.6513 111.797C61.6946 111.772 61.7436 111.759 61.7934 111.759C61.8433 111.759 61.8923 111.772 61.9356 111.797C61.9788 111.822 62.0148 111.858 62.0398 111.901C62.1161 112.015 62.1531 112.151 62.1454 112.288V116.055C62.1587 116.192 62.1211 116.33 62.0398 116.442C62.0148 116.485 61.9788 116.521 61.9356 116.545C61.8923 116.57 61.8433 116.583 61.7934 116.583C61.7436 116.583 61.6946 116.57 61.6513 116.545C61.6081 116.521 61.5721 116.485 61.547 116.442C61.4941 116.314 61.4701 116.175 61.4766 116.037Z" fill="#A1A1A1"/>
<path d="M62.8142 116.037V112.288C62.8102 112.156 62.8342 112.024 62.8846 111.901C62.9097 111.858 62.9457 111.822 62.9889 111.797C63.0322 111.772 63.0812 111.759 63.1311 111.759C63.1809 111.759 63.2299 111.772 63.2732 111.797C63.3164 111.822 63.3524 111.858 63.3775 111.901C63.4537 112.015 63.4907 112.151 63.4831 112.288V116.055C63.4963 116.192 63.4587 116.33 63.3775 116.442C63.3524 116.485 63.3164 116.521 63.2732 116.545C63.2299 116.57 63.1809 116.583 63.1311 116.583C63.0812 116.583 63.0322 116.57 62.9889 116.545C62.9457 116.521 62.9097 116.485 62.8846 116.442C62.8174 116.318 62.7926 116.176 62.8142 116.037Z" fill="#A1A1A1"/>
<path d="M64.4334 112.64C64.3871 112.641 64.3411 112.633 64.2986 112.614C64.2561 112.596 64.218 112.569 64.187 112.535C64.1491 112.492 64.1203 112.441 64.1021 112.387C64.084 112.332 64.0769 112.275 64.0814 112.218C64.0786 112.103 64.116 111.991 64.187 111.901C64.2116 111.868 64.2434 111.842 64.2801 111.823C64.3168 111.805 64.3572 111.795 64.3982 111.795C64.4392 111.795 64.4796 111.805 64.5162 111.823C64.5529 111.842 64.5848 111.868 64.6094 111.901C64.6779 111.992 64.715 112.104 64.715 112.218C64.715 112.332 64.6779 112.443 64.6094 112.535C64.6094 112.587 64.539 112.64 64.4334 112.64ZM64.7854 113.52V116.019C64.7986 116.157 64.761 116.295 64.6798 116.407C64.6547 116.45 64.6187 116.485 64.5755 116.51C64.5322 116.535 64.4832 116.548 64.4334 116.548C64.3835 116.548 64.3345 116.535 64.2913 116.51C64.248 116.485 64.2121 116.45 64.187 116.407C64.1107 116.292 64.0737 116.157 64.0814 116.019V113.52C64.0774 113.388 64.1013 113.256 64.1518 113.133C64.2222 113.063 64.2926 112.992 64.363 112.992C64.4132 112.99 64.463 113.002 64.5067 113.027C64.5503 113.052 64.586 113.089 64.6094 113.133C64.666 113.176 64.7115 113.232 64.7422 113.296C64.7728 113.361 64.7876 113.431 64.7854 113.503V113.52Z" fill="#A1A1A1"/>
<path d="M69.3439 115.051C69.3571 115.32 69.2962 115.588 69.1679 115.825C69.0657 116.039 68.9076 116.222 68.7103 116.353C68.4839 116.481 68.2307 116.553 67.9711 116.565C67.6691 116.586 67.3695 116.498 67.1263 116.318C66.9701 116.177 66.8392 116.011 66.7391 115.825C66.6464 115.64 66.5982 115.435 66.5983 115.227C66.6006 115.129 66.6247 115.033 66.6687 114.945C66.7391 114.875 66.8095 114.805 66.8799 114.805C66.9162 114.804 66.9519 114.814 66.983 114.832C67.0141 114.851 67.0394 114.878 67.0559 114.91C67.1169 114.996 67.1644 115.091 67.1967 115.192C67.2319 115.333 67.3023 115.473 67.3375 115.579C67.3765 115.684 67.4513 115.771 67.5487 115.825C67.6796 115.909 67.8358 115.945 67.9902 115.925C68.1445 115.906 68.2872 115.833 68.3935 115.72C68.4574 115.656 68.5063 115.578 68.5368 115.493C68.5672 115.408 68.5784 115.317 68.5695 115.227C68.5726 115.09 68.5359 114.956 68.4639 114.84C68.3957 114.74 68.2968 114.666 68.1823 114.629C68.0767 114.593 67.9359 114.523 67.7247 114.453C67.502 114.387 67.289 114.292 67.0911 114.171C66.9192 114.077 66.7831 113.928 66.7039 113.749C66.611 113.538 66.563 113.31 66.563 113.08C66.563 112.85 66.611 112.622 66.7039 112.411C66.7992 112.21 66.9608 112.049 67.1615 111.953C67.378 111.838 67.6199 111.777 67.8655 111.777C68.0583 111.775 68.2497 111.811 68.4287 111.883C68.5714 111.956 68.702 112.051 68.8159 112.165C68.9196 112.273 68.9925 112.406 69.0271 112.552C69.0675 112.677 69.0912 112.807 69.0975 112.939C69.0909 113.048 69.0672 113.155 69.0271 113.256C69.0074 113.296 68.9774 113.33 68.9404 113.355C68.9033 113.379 68.8603 113.394 68.8159 113.397C68.7506 113.395 68.688 113.37 68.6399 113.326L68.4991 113.045C68.4431 112.897 68.3723 112.756 68.2879 112.622C68.2308 112.571 68.1639 112.532 68.0913 112.508C68.0186 112.484 67.9418 112.475 67.8655 112.481C67.7868 112.481 67.7089 112.496 67.6363 112.526C67.5637 112.557 67.498 112.601 67.4431 112.657C67.3364 112.759 67.2732 112.898 67.2671 113.045C67.2692 113.131 67.2934 113.216 67.3375 113.291C67.3755 113.356 67.4229 113.416 67.4783 113.467L67.6895 113.573C67.7912 113.619 67.8973 113.654 68.0063 113.678C68.1869 113.736 68.3634 113.807 68.5343 113.889C68.677 113.963 68.8076 114.058 68.9215 114.171C69.0353 114.277 69.1201 114.41 69.1679 114.558C69.3439 114.629 69.3439 114.84 69.3439 115.051Z" fill="#A1A1A1"/>
<path d="M69.9599 113.08H70.0303V112.235C70.0303 112.165 70.0655 112.095 70.0655 112.024C70.0918 111.971 70.1276 111.924 70.1711 111.883C70.2099 111.846 70.259 111.822 70.3119 111.813C70.3564 111.816 70.3993 111.83 70.4364 111.855C70.4735 111.88 70.5034 111.914 70.5231 111.954C70.5673 112.015 70.5919 112.089 70.5935 112.165C70.5935 112.235 70.6287 112.341 70.6287 112.517V113.115H70.8751C70.9519 113.111 71.0276 113.136 71.0863 113.186C71.1253 113.25 71.1494 113.322 71.1567 113.397C71.1616 113.444 71.1545 113.491 71.136 113.534C71.1175 113.577 71.0883 113.615 71.0511 113.643C70.9636 113.687 70.8674 113.711 70.7695 113.714H70.6639V115.615C70.6651 115.68 70.6901 115.742 70.7343 115.791C70.7511 115.812 70.7724 115.83 70.7967 115.842C70.8211 115.854 70.8479 115.86 70.8751 115.861C70.9247 115.866 70.9746 115.854 71.0159 115.826C71.0593 115.797 71.1116 115.785 71.1632 115.791C71.2148 115.798 71.2625 115.823 71.2975 115.861C71.3366 115.925 71.3606 115.997 71.3679 116.072C71.3682 116.136 71.3522 116.198 71.3214 116.254C71.2906 116.309 71.246 116.356 71.1919 116.389C71.0404 116.469 70.87 116.505 70.6991 116.495C70.6172 116.504 70.5343 116.496 70.4556 116.472C70.3769 116.448 70.304 116.407 70.2415 116.354C70.1314 116.251 70.0574 116.115 70.0303 115.967C69.999 115.757 69.9872 115.545 69.9951 115.333V113.696H69.9247C69.883 113.702 69.8406 113.694 69.803 113.676C69.7653 113.657 69.7342 113.627 69.7135 113.591C69.6745 113.526 69.6504 113.454 69.6431 113.379C69.6385 113.303 69.6637 113.227 69.7135 113.168C69.7866 113.118 69.8715 113.088 69.9599 113.08Z" fill="#A1A1A1"/>
<path d="M73.4094 114.981H72.1598C72.1537 115.163 72.1899 115.343 72.2654 115.509C72.3198 115.635 72.3908 115.753 72.4766 115.861C72.5692 115.927 72.6796 115.964 72.7934 115.966C72.8657 115.972 72.9381 115.96 73.0046 115.931C73.0678 115.904 73.1269 115.868 73.1806 115.826C73.251 115.79 73.2862 115.72 73.3566 115.65C73.4147 115.558 73.4859 115.475 73.5678 115.403C73.5846 115.382 73.6059 115.364 73.6303 115.352C73.6546 115.34 73.6814 115.333 73.7086 115.333C73.779 115.333 73.8142 115.368 73.8846 115.403C73.9344 115.462 73.9596 115.538 73.955 115.614C73.9443 115.711 73.9206 115.806 73.8846 115.896C73.8397 116.016 73.7674 116.125 73.6734 116.213C73.571 116.314 73.452 116.398 73.3214 116.459C73.1686 116.535 72.9992 116.571 72.8286 116.565C72.644 116.578 72.459 116.543 72.2922 116.463C72.1254 116.383 71.9826 116.26 71.8782 116.107C71.6172 115.725 71.4932 115.266 71.5262 114.805C71.5305 114.569 71.554 114.333 71.5966 114.101C71.6505 113.902 71.7336 113.712 71.843 113.538C71.9451 113.394 72.0772 113.273 72.2302 113.186C72.3926 113.097 72.5736 113.049 72.7582 113.045C72.9876 113.039 73.2118 113.114 73.3918 113.256C73.5781 113.397 73.7138 113.595 73.779 113.819C73.8795 114.04 73.9277 114.281 73.9198 114.523C73.9198 114.734 73.8846 114.875 73.779 114.946C73.6568 114.966 73.5333 114.977 73.4094 114.981ZM72.1774 114.488H73.339C73.3494 114.252 73.288 114.019 73.163 113.819C73.1153 113.752 73.0518 113.698 72.9782 113.661C72.9045 113.624 72.823 113.606 72.7406 113.608C72.6632 113.606 72.5867 113.624 72.5187 113.662C72.4507 113.699 72.3937 113.753 72.3534 113.819C72.2284 114.019 72.1671 114.252 72.1774 114.488Z" fill="#A1A1A1"/>
<path d="M76.2962 114.981H75.029C75.0229 115.163 75.059 115.343 75.1346 115.509C75.1889 115.635 75.26 115.753 75.3458 115.861C75.4384 115.927 75.5488 115.964 75.6626 115.966C75.7348 115.972 75.8073 115.96 75.8738 115.931C75.9369 115.904 75.9961 115.868 76.0498 115.826C76.1202 115.79 76.1554 115.72 76.2258 115.65C76.2839 115.558 76.355 115.475 76.437 115.403C76.4537 115.382 76.4751 115.364 76.4994 115.352C76.5238 115.34 76.5506 115.333 76.5778 115.333C76.6482 115.333 76.6834 115.368 76.7538 115.403C76.8035 115.462 76.8288 115.538 76.8242 115.614C76.8134 115.711 76.7897 115.806 76.7538 115.896C76.7089 116.016 76.6366 116.125 76.5426 116.213C76.4402 116.314 76.3211 116.398 76.1906 116.459C76.0377 116.535 75.8683 116.571 75.6978 116.565C75.5132 116.578 75.3282 116.543 75.1614 116.463C74.9945 116.383 74.8518 116.26 74.7474 116.107C74.4864 115.725 74.3623 115.266 74.3954 114.805C74.3996 114.569 74.4232 114.333 74.4658 114.101C74.5197 113.902 74.6027 113.712 74.7122 113.538C74.8142 113.394 74.9463 113.273 75.0994 113.186C75.2617 113.097 75.4427 113.049 75.6274 113.045C75.8568 113.039 76.0809 113.114 76.261 113.256C76.4472 113.397 76.583 113.595 76.6482 113.819C76.7486 114.04 76.7968 114.281 76.789 114.523C76.789 114.734 76.7538 114.875 76.6482 114.946C76.53 114.946 76.4121 114.958 76.2962 114.981ZM75.0642 114.488H76.2258C76.2362 114.252 76.1748 114.019 76.0498 113.819C76.002 113.752 75.9385 113.698 75.8649 113.661C75.7912 113.624 75.7097 113.606 75.6274 113.608C75.55 113.606 75.4734 113.624 75.4054 113.662C75.3374 113.699 75.2804 113.753 75.2402 113.819C75.1103 114.017 75.0485 114.252 75.0642 114.488Z" fill="#A1A1A1"/>
<path d="M77.3872 116.002V112.235C77.3831 112.103 77.4071 111.971 77.4576 111.848C77.4826 111.805 77.5186 111.769 77.5618 111.744C77.6051 111.72 77.6541 111.707 77.7039 111.707C77.7538 111.707 77.8028 111.72 77.8461 111.744C77.8893 111.769 77.9253 111.805 77.9503 111.848C78.0266 111.962 78.0636 112.098 78.0559 112.235V116.002C78.0692 116.139 78.0316 116.277 77.9503 116.389C77.9253 116.432 77.8893 116.468 77.8461 116.493C77.8028 116.518 77.7538 116.531 77.7039 116.531C77.6541 116.531 77.6051 116.518 77.5618 116.493C77.5186 116.468 77.4826 116.432 77.4576 116.389C77.414 116.264 77.3903 116.134 77.3872 116.002Z" fill="#A1A1A1"/>
<path d="M81.3294 114.594H80.6958V115.931C80.7031 116.079 80.6664 116.226 80.5902 116.354C80.5651 116.397 80.5291 116.432 80.4859 116.457C80.4427 116.482 80.3937 116.495 80.3438 116.495C80.2939 116.495 80.2449 116.482 80.2017 116.457C80.1584 116.432 80.1225 116.397 80.0974 116.354C80.0212 116.226 79.9844 116.079 79.9918 115.931V112.341C79.9804 112.181 80.0171 112.022 80.0974 111.883C80.1379 111.83 80.192 111.789 80.254 111.764C80.3159 111.739 80.3835 111.732 80.4494 111.742H81.3294C81.5311 111.74 81.7323 111.763 81.9278 111.813C82.0583 111.874 82.1774 111.958 82.2798 112.059C82.3896 112.195 82.4732 112.35 82.5262 112.517C82.5862 112.71 82.6101 112.913 82.5966 113.115C82.6266 113.505 82.514 113.893 82.2798 114.206C82.1653 114.344 82.0187 114.451 81.8529 114.519C81.6872 114.586 81.5074 114.612 81.3294 114.594ZM81.1534 112.446H80.6958V113.89H81.1534C81.2971 113.889 81.4398 113.866 81.5758 113.819C81.6319 113.798 81.6829 113.765 81.7253 113.722C81.7678 113.68 81.8008 113.629 81.8222 113.573C81.8854 113.442 81.9099 113.295 81.8926 113.15C81.9092 112.974 81.859 112.798 81.7518 112.658C81.6814 112.517 81.4702 112.446 81.1534 112.446Z" fill="#A1A1A1"/>
<path d="M83.829 115.227V115.966C83.8422 116.104 83.8046 116.242 83.7234 116.354C83.7 116.398 83.6644 116.435 83.6207 116.46C83.5771 116.485 83.5272 116.497 83.477 116.494C83.4307 116.5 83.3839 116.489 83.3451 116.463C83.3063 116.438 83.2781 116.399 83.2658 116.354C83.1895 116.239 83.1525 116.103 83.1602 115.966V113.538C83.1602 113.15 83.2658 112.939 83.477 112.939C83.5272 112.937 83.5771 112.949 83.6207 112.974C83.6644 112.999 83.7 113.035 83.7234 113.08C83.7702 113.204 83.794 113.335 83.7938 113.467C83.8465 113.311 83.9303 113.167 84.0402 113.045C84.0763 112.996 84.1245 112.957 84.18 112.933C84.2356 112.908 84.2965 112.898 84.357 112.904C84.4277 112.9 84.4984 112.911 84.5649 112.935C84.6314 112.959 84.6924 112.997 84.7442 113.045C84.802 113.083 84.8488 113.135 84.8797 113.197C84.9106 113.259 84.9246 113.328 84.9202 113.397C84.9235 113.484 84.8988 113.571 84.8498 113.643C84.7794 113.714 84.7442 113.749 84.6738 113.749C84.6034 113.749 84.6034 113.714 84.4978 113.678C84.4194 113.643 84.3365 113.62 84.2514 113.608C84.2051 113.607 84.1591 113.616 84.1166 113.634C84.0741 113.652 84.036 113.679 84.005 113.714C83.9374 113.796 83.8892 113.892 83.8642 113.995C83.8209 114.144 83.7973 114.298 83.7938 114.453C83.8215 114.71 83.8333 114.969 83.829 115.227Z" fill="#A1A1A1"/>
<path d="M87.5247 114.699C87.5204 114.935 87.4969 115.171 87.4543 115.403C87.4004 115.602 87.3174 115.792 87.2079 115.966C87.1058 116.11 86.9737 116.23 86.8207 116.318C86.6583 116.406 86.4773 116.455 86.2927 116.459C86.1064 116.467 85.9222 116.418 85.7647 116.318C85.6116 116.23 85.4795 116.11 85.3775 115.966C85.2538 115.799 85.1696 115.607 85.1311 115.403C85.0591 115.175 85.0234 114.938 85.0255 114.699C85.0315 114.451 85.055 114.204 85.0959 113.96C85.1498 113.761 85.2328 113.571 85.3423 113.397C85.4443 113.253 85.5764 113.132 85.7295 113.045C85.8918 112.956 86.0728 112.908 86.2575 112.904C86.4442 112.891 86.6298 112.941 86.7855 113.045C86.9492 113.131 87.0931 113.251 87.2079 113.397C87.3315 113.563 87.4158 113.756 87.4543 113.96C87.4951 114.204 87.5187 114.451 87.5247 114.699ZM86.8911 114.699C86.8985 114.408 86.8382 114.118 86.7151 113.854C86.6753 113.767 86.6106 113.694 86.5291 113.644C86.4476 113.594 86.3531 113.569 86.2575 113.573C86.197 113.567 86.1361 113.577 86.0805 113.601C86.025 113.626 85.9768 113.665 85.9407 113.713C85.8306 113.816 85.7566 113.952 85.7295 114.101C85.6357 114.494 85.6357 114.904 85.7295 115.297C85.7622 115.444 85.8353 115.578 85.9407 115.685C85.9856 115.732 86.0404 115.769 86.1011 115.794C86.1619 115.818 86.2273 115.829 86.2927 115.825C86.3922 115.826 86.4895 115.796 86.5713 115.739C86.6532 115.682 86.7156 115.602 86.7503 115.509C86.8469 115.25 86.8947 114.975 86.8911 114.699Z" fill="#A1A1A1"/>
<path d="M89.8129 115.966V115.896C89.7486 116.014 89.6654 116.121 89.5665 116.213C89.4866 116.291 89.3905 116.351 89.2849 116.389C89.1837 116.429 89.0768 116.453 88.9681 116.459C88.8155 116.461 88.6666 116.412 88.5457 116.318C88.3946 116.225 88.2727 116.091 88.1937 115.931C88.0874 115.759 88.0156 115.568 87.9825 115.368C87.9399 115.136 87.9164 114.9 87.9121 114.664C87.8972 114.225 87.9941 113.789 88.1937 113.397C88.27 113.258 88.3821 113.143 88.5183 113.062C88.6546 112.982 88.8099 112.939 88.9681 112.939C89.1331 112.926 89.2968 112.976 89.4257 113.08C89.5801 113.181 89.7119 113.313 89.8129 113.467V112.2C89.8131 112.056 89.8369 111.914 89.8833 111.778C89.8995 111.735 89.9285 111.699 89.9664 111.673C90.0042 111.648 90.049 111.635 90.0945 111.637C90.1408 111.631 90.1876 111.642 90.2264 111.668C90.2652 111.694 90.2934 111.733 90.3057 111.778C90.3562 111.9 90.3801 112.032 90.3761 112.165V116.002C90.3764 116.134 90.3525 116.265 90.3057 116.389C90.2353 116.459 90.1649 116.53 90.0945 116.53C90.049 116.531 90.0042 116.518 89.9664 116.493C89.9285 116.468 89.8995 116.431 89.8833 116.389C89.84 116.252 89.8163 116.11 89.8129 115.966ZM88.5457 114.699C88.5475 114.901 88.5711 115.101 88.6161 115.298C88.6713 115.434 88.7422 115.564 88.8273 115.685C88.9178 115.76 89.0275 115.809 89.1441 115.826C89.2579 115.823 89.3683 115.786 89.4609 115.72C89.5706 115.631 89.6454 115.507 89.6721 115.368C89.734 115.163 89.7578 114.948 89.7425 114.734C89.7407 114.533 89.7171 114.332 89.6721 114.136C89.6169 113.999 89.5461 113.869 89.4609 113.749C89.3705 113.673 89.2608 113.625 89.1441 113.608C89.0844 113.608 89.0254 113.621 88.9709 113.645C88.9163 113.669 88.8675 113.705 88.8273 113.749C88.7173 113.852 88.6432 113.988 88.6161 114.136C88.5711 114.32 88.5474 114.509 88.5457 114.699Z" fill="#A1A1A1"/>
<path d="M92.7344 115.967V115.861C92.6818 115.987 92.5968 116.096 92.488 116.178C92.4099 116.267 92.314 116.339 92.2064 116.389C92.0939 116.432 91.9749 116.456 91.8544 116.459C91.7017 116.461 91.5528 116.412 91.432 116.319C91.3021 116.235 91.2031 116.112 91.1504 115.967C91.0684 115.705 91.0327 115.431 91.0448 115.157V113.432C91.0408 113.3 91.0647 113.168 91.1152 113.045C91.1442 113.006 91.1811 112.973 91.2235 112.949C91.266 112.924 91.313 112.909 91.3616 112.904C91.4118 112.902 91.4616 112.914 91.5053 112.939C91.5489 112.964 91.5846 113 91.608 113.045C91.6892 113.157 91.7268 113.295 91.7136 113.432V114.84C91.7034 115.005 91.7153 115.171 91.7488 115.333C91.7667 115.449 91.8153 115.559 91.8896 115.65C91.9258 115.687 91.9698 115.716 92.0185 115.734C92.0672 115.752 92.1193 115.76 92.1712 115.755C92.2309 115.755 92.2899 115.743 92.3444 115.718C92.399 115.694 92.4478 115.659 92.488 115.615C92.5977 115.526 92.6725 115.401 92.6992 115.263C92.7376 114.995 92.7494 114.723 92.7344 114.453V113.397C92.7304 113.264 92.7543 113.132 92.8048 113.01C92.8338 112.97 92.8707 112.938 92.9132 112.913C92.9556 112.889 93.0026 112.874 93.0512 112.869C93.1014 112.867 93.1513 112.879 93.1949 112.903C93.2386 112.928 93.2742 112.965 93.2976 113.01C93.368 113.08 93.368 113.221 93.368 113.397V115.931C93.3682 116.064 93.3444 116.195 93.2976 116.319C93.2272 116.389 93.1568 116.459 93.0864 116.459C93.0409 116.461 92.9961 116.448 92.9582 116.423C92.9203 116.398 92.8913 116.361 92.8752 116.319C92.8221 116.278 92.781 116.224 92.7562 116.162C92.7314 116.1 92.7239 116.032 92.7344 115.967Z" fill="#A1A1A1"/>
<path d="M96.2895 115.368C96.2798 115.488 96.2561 115.606 96.2191 115.72C96.1839 115.855 96.1106 115.977 96.0079 116.072C95.9068 116.184 95.7879 116.28 95.6559 116.353C95.5018 116.426 95.3333 116.462 95.1631 116.459C94.9839 116.469 94.8053 116.432 94.6448 116.352C94.4843 116.272 94.3475 116.151 94.2479 116.001C94.0072 115.623 93.8846 115.182 93.8959 114.734C93.8856 114.412 93.9333 114.09 94.0367 113.784C94.1178 113.538 94.2637 113.32 94.4591 113.15C94.6632 113.002 94.9113 112.928 95.1631 112.939C95.322 112.936 95.4791 112.973 95.6207 113.045C95.7513 113.106 95.8703 113.189 95.9727 113.291C96.0667 113.379 96.139 113.487 96.1839 113.608C96.224 113.709 96.2478 113.816 96.2543 113.925C96.2476 114.022 96.2238 114.117 96.1839 114.206C96.1576 114.237 96.1253 114.262 96.089 114.281C96.0528 114.299 96.0132 114.309 95.9727 114.312C95.9455 114.311 95.9187 114.305 95.8944 114.293C95.87 114.28 95.8487 114.263 95.8319 114.241C95.789 114.188 95.7535 114.129 95.7263 114.065C95.6706 113.932 95.5865 113.812 95.4799 113.713C95.3898 113.642 95.2778 113.605 95.1631 113.608C95.0647 113.612 94.9695 113.644 94.8885 113.7C94.8075 113.756 94.744 113.834 94.7055 113.925C94.5859 114.178 94.5257 114.455 94.5295 114.734C94.5223 114.888 94.5341 115.041 94.5647 115.192C94.59 115.317 94.6377 115.436 94.7055 115.544C94.7569 115.631 94.8296 115.704 94.9167 115.755C94.9934 115.795 95.0771 115.819 95.1631 115.825C95.2203 115.83 95.2778 115.823 95.3322 115.805C95.3866 115.787 95.4368 115.758 95.4799 115.72C95.5972 115.617 95.6827 115.483 95.7263 115.333C95.7516 115.24 95.8 115.155 95.8671 115.086C95.9023 115.016 95.9727 115.016 96.0431 115.016C96.0836 115.018 96.1232 115.029 96.1594 115.047C96.1957 115.065 96.228 115.091 96.2543 115.121C96.2832 115.2 96.2952 115.284 96.2895 115.368Z" fill="#A1A1A1"/>
<path d="M96.9233 112.992H96.9937V112.147C96.9937 112.077 97.0289 112.006 97.0289 111.936C97.0552 111.883 97.091 111.835 97.1345 111.795C97.1733 111.758 97.2224 111.733 97.2753 111.725C97.3198 111.727 97.3627 111.742 97.3998 111.767C97.4369 111.791 97.4668 111.825 97.4865 111.865C97.5307 111.927 97.5552 112.001 97.5569 112.077C97.5569 112.147 97.5921 112.253 97.5921 112.429V113.027H97.8385C97.9153 113.022 97.991 113.048 98.0497 113.097C98.0887 113.162 98.1128 113.234 98.1201 113.309C98.125 113.355 98.1179 113.402 98.0994 113.446C98.0809 113.489 98.0517 113.526 98.0145 113.555C97.927 113.599 97.8308 113.623 97.7329 113.625H97.6273V115.526C97.6285 115.592 97.6535 115.654 97.6977 115.702C97.7144 115.724 97.7358 115.741 97.7601 115.753C97.7845 115.765 97.8113 115.772 97.8385 115.773C97.8878 115.774 97.9365 115.762 97.9793 115.737C98.0227 115.709 98.0749 115.697 98.1266 115.703C98.1782 115.709 98.2258 115.734 98.2609 115.773C98.2999 115.837 98.324 115.909 98.3313 115.984C98.3316 116.047 98.3156 116.11 98.2848 116.165C98.2539 116.221 98.2094 116.267 98.1553 116.301C98.0038 116.38 97.8333 116.417 97.6625 116.406C97.5806 116.416 97.4977 116.408 97.419 116.384C97.3402 116.359 97.2674 116.319 97.2049 116.265C97.0948 116.162 97.0208 116.027 96.9937 115.878C96.9623 115.669 96.9506 115.456 96.9585 115.245V113.59H96.8881C96.8464 113.596 96.804 113.589 96.7663 113.57C96.7287 113.551 96.6976 113.521 96.6769 113.485C96.6378 113.42 96.6138 113.348 96.6065 113.273C96.6019 113.197 96.6271 113.121 96.6769 113.062C96.7517 113.018 96.8365 112.994 96.9233 112.992Z" fill="#A1A1A1"/>
<path d="M100.672 115.297C100.684 115.517 100.635 115.737 100.531 115.931C100.496 116.018 100.443 116.097 100.377 116.164C100.31 116.23 100.231 116.283 100.144 116.318C99.9607 116.418 99.7539 116.467 99.5454 116.459C99.3365 116.471 99.1285 116.422 98.947 116.318C98.797 116.239 98.6743 116.116 98.595 115.966C98.5271 115.836 98.4909 115.691 98.4894 115.544C98.4915 115.457 98.5158 115.372 98.5598 115.297C98.5763 115.265 98.6015 115.238 98.6326 115.219C98.6638 115.201 98.6995 115.191 98.7358 115.192C98.763 115.192 98.7898 115.199 98.8141 115.211C98.8385 115.223 98.8598 115.241 98.8766 115.262C98.9195 115.316 98.955 115.375 98.9822 115.438C99.0346 115.574 99.1192 115.695 99.2286 115.79C99.3428 115.866 99.4787 115.903 99.6158 115.896C99.673 115.9 99.7305 115.893 99.7849 115.875C99.8393 115.857 99.8895 115.828 99.9326 115.79C100.003 115.714 100.041 115.613 100.038 115.509C100.038 115.368 100.003 115.227 99.8974 115.192C99.7728 115.093 99.6289 115.021 99.475 114.981C99.287 114.927 99.1088 114.844 98.947 114.734C98.8097 114.666 98.6985 114.555 98.6302 114.417C98.542 114.268 98.4935 114.098 98.4894 113.925C98.4868 113.754 98.5229 113.586 98.595 113.432C98.672 113.271 98.7943 113.136 98.947 113.045C99.1026 112.941 99.2883 112.891 99.475 112.904C99.6299 112.907 99.7838 112.931 99.9326 112.974C100.052 113.003 100.162 113.064 100.249 113.15C100.355 113.221 100.39 113.326 100.461 113.397C100.5 113.486 100.524 113.581 100.531 113.678C100.529 113.765 100.505 113.85 100.461 113.925C100.44 113.961 100.409 113.991 100.371 114.01C100.334 114.028 100.291 114.036 100.249 114.03C100.179 114.03 100.144 113.995 100.073 113.96C100.01 113.881 99.9508 113.799 99.8974 113.713C99.8495 113.635 99.7902 113.564 99.7214 113.502C99.6356 113.454 99.5383 113.429 99.4398 113.432C99.3358 113.429 99.2348 113.467 99.1582 113.537C99.1238 113.568 99.0966 113.606 99.0784 113.649C99.0601 113.692 99.0513 113.738 99.0526 113.784C99.048 113.861 99.0732 113.936 99.123 113.995C99.1847 114.054 99.2562 114.101 99.3342 114.136C99.4398 114.171 99.5454 114.206 99.7214 114.277C99.8986 114.33 100.065 114.413 100.214 114.523C100.327 114.61 100.423 114.718 100.496 114.84C100.607 114.966 100.67 115.129 100.672 115.297Z" fill="#A1A1A1"/>
<path d="M104.562 112.411H103.189V113.608H104.351C104.397 113.607 104.443 113.615 104.485 113.634C104.528 113.652 104.566 113.679 104.597 113.713C104.641 113.788 104.665 113.873 104.667 113.96C104.671 114.047 104.646 114.134 104.597 114.206C104.568 114.243 104.531 114.273 104.488 114.291C104.444 114.31 104.397 114.317 104.351 114.312H103.189V115.861C103.207 116.01 103.169 116.16 103.083 116.283C103.058 116.326 103.022 116.362 102.979 116.387C102.936 116.412 102.887 116.425 102.837 116.425C102.787 116.425 102.738 116.412 102.695 116.387C102.652 116.362 102.616 116.326 102.591 116.283C102.514 116.156 102.478 116.009 102.485 115.861V112.288C102.475 112.181 102.487 112.073 102.52 111.971C102.547 111.899 102.596 111.837 102.661 111.795C102.736 111.751 102.821 111.727 102.907 111.725H104.562C104.608 111.72 104.656 111.727 104.699 111.745C104.742 111.764 104.78 111.793 104.808 111.83C104.838 111.863 104.859 111.903 104.871 111.945C104.884 111.988 104.886 112.033 104.879 112.077C104.876 112.175 104.852 112.271 104.808 112.358C104.732 112.396 104.647 112.414 104.562 112.411Z" fill="#A1A1A1"/>
<path d="M106.885 115.931C106.76 116.081 106.604 116.201 106.427 116.283C106.276 116.367 106.107 116.415 105.935 116.424C105.858 116.431 105.781 116.422 105.709 116.398C105.636 116.373 105.569 116.335 105.512 116.283C105.382 116.2 105.283 116.076 105.231 115.931C105.158 115.777 105.122 115.609 105.125 115.439C105.119 115.226 105.18 115.016 105.301 114.84C105.403 114.669 105.567 114.543 105.759 114.488C105.794 114.488 105.899 114.453 106.075 114.418C106.222 114.392 106.365 114.345 106.498 114.277C106.63 114.24 106.76 114.193 106.885 114.136C106.9 113.965 106.863 113.793 106.779 113.643C106.737 113.582 106.678 113.533 106.61 113.502C106.542 113.471 106.467 113.459 106.392 113.467C106.329 113.46 106.266 113.466 106.205 113.484C106.145 113.502 106.089 113.533 106.04 113.573C105.953 113.653 105.882 113.749 105.829 113.855C105.793 113.942 105.745 114.025 105.688 114.101C105.671 114.123 105.65 114.14 105.626 114.152C105.601 114.164 105.575 114.171 105.547 114.171C105.511 114.172 105.475 114.163 105.444 114.144C105.413 114.125 105.388 114.098 105.371 114.066C105.327 113.991 105.303 113.906 105.301 113.819C105.302 113.661 105.338 113.505 105.407 113.362C105.5 113.211 105.634 113.089 105.794 113.01C105.988 112.906 106.207 112.857 106.427 112.869C106.659 112.853 106.89 112.902 107.096 113.01C107.258 113.106 107.383 113.255 107.448 113.432C107.525 113.683 107.561 113.945 107.554 114.207V115.192C107.562 115.37 107.586 115.547 107.624 115.72C107.655 115.836 107.678 115.954 107.695 116.072C107.696 116.119 107.687 116.164 107.669 116.207C107.651 116.25 107.623 116.288 107.589 116.319C107.563 116.35 107.53 116.375 107.494 116.393C107.458 116.411 107.418 116.422 107.378 116.424C107.333 116.421 107.29 116.407 107.253 116.382C107.216 116.357 107.186 116.323 107.167 116.283C107.037 116.2 106.938 116.076 106.885 115.931ZM106.85 114.664C106.713 114.722 106.571 114.769 106.427 114.805C106.251 114.84 106.111 114.911 106.04 114.911C105.962 114.945 105.891 114.993 105.829 115.051C105.759 115.128 105.721 115.229 105.723 115.333C105.721 115.459 105.757 115.582 105.829 115.685C105.86 115.731 105.902 115.768 105.951 115.792C106.001 115.817 106.055 115.829 106.111 115.826C106.236 115.829 106.359 115.792 106.463 115.72C106.563 115.644 106.646 115.548 106.709 115.439C106.776 115.235 106.8 115.019 106.779 114.805L106.85 114.664Z" fill="#A1A1A1"/>
<path d="M110.44 115.333C110.43 115.452 110.407 115.571 110.369 115.685C110.334 115.82 110.261 115.942 110.158 116.037C110.057 116.149 109.938 116.244 109.806 116.318C109.652 116.39 109.484 116.427 109.313 116.424C109.134 116.434 108.956 116.397 108.795 116.317C108.635 116.236 108.498 116.116 108.398 115.966C108.158 115.588 108.035 115.147 108.046 114.699C108.036 114.376 108.084 114.055 108.187 113.749C108.268 113.503 108.414 113.284 108.609 113.115C108.814 112.967 109.062 112.893 109.313 112.904C109.472 112.901 109.629 112.938 109.771 113.01C109.902 113.071 110.021 113.154 110.123 113.256C110.217 113.344 110.289 113.452 110.334 113.573C110.374 113.674 110.398 113.781 110.405 113.89C110.398 113.987 110.374 114.082 110.334 114.171C110.308 114.202 110.276 114.227 110.239 114.245C110.203 114.264 110.164 114.274 110.123 114.277C110.096 114.276 110.069 114.27 110.045 114.257C110.02 114.245 109.999 114.228 109.982 114.206C109.939 114.153 109.904 114.093 109.877 114.03C109.821 113.897 109.737 113.776 109.63 113.678C109.54 113.607 109.428 113.57 109.313 113.573C109.215 113.577 109.12 113.609 109.039 113.665C108.958 113.721 108.894 113.799 108.856 113.89C108.736 114.142 108.676 114.419 108.68 114.699C108.673 114.853 108.685 115.006 108.715 115.157C108.74 115.282 108.788 115.401 108.856 115.509C108.907 115.596 108.98 115.669 109.067 115.72C109.144 115.759 109.228 115.783 109.313 115.79C109.371 115.795 109.428 115.788 109.483 115.77C109.537 115.751 109.587 115.723 109.63 115.685C109.748 115.582 109.833 115.447 109.877 115.298C109.902 115.205 109.95 115.12 110.017 115.051C110.053 114.981 110.123 114.981 110.193 114.981C110.234 114.983 110.274 114.994 110.31 115.012C110.346 115.03 110.378 115.055 110.405 115.086C110.475 115.157 110.44 115.227 110.44 115.333Z" fill="#A1A1A1"/>
<path d="M111.039 112.939H111.109V112.094C111.109 112.024 111.144 111.953 111.144 111.883C111.17 111.83 111.206 111.782 111.25 111.742C111.289 111.705 111.338 111.681 111.391 111.672C111.435 111.675 111.478 111.689 111.515 111.714C111.552 111.739 111.582 111.773 111.602 111.813C111.646 111.874 111.67 111.948 111.672 112.024C111.672 112.094 111.707 112.2 111.707 112.376V112.992H111.954C112.031 112.987 112.106 113.013 112.165 113.062C112.204 113.126 112.228 113.199 112.235 113.273C112.24 113.32 112.233 113.367 112.215 113.41C112.196 113.454 112.167 113.491 112.13 113.52C112.042 113.564 111.946 113.588 111.848 113.59H111.743V115.491C111.744 115.556 111.769 115.619 111.813 115.667C111.83 115.689 111.851 115.706 111.875 115.718C111.9 115.73 111.926 115.737 111.954 115.737C112.003 115.743 112.053 115.73 112.095 115.702C112.138 115.674 112.19 115.661 112.242 115.668C112.293 115.674 112.341 115.699 112.376 115.737C112.415 115.802 112.439 115.874 112.447 115.949C112.447 116.012 112.431 116.075 112.4 116.13C112.369 116.186 112.325 116.232 112.271 116.265C112.119 116.345 111.949 116.382 111.778 116.371C111.696 116.38 111.613 116.373 111.534 116.348C111.455 116.324 111.383 116.284 111.32 116.23C111.21 116.127 111.136 115.991 111.109 115.843C111.078 115.633 111.066 115.421 111.074 115.209V113.555H111.003C110.962 113.561 110.919 113.553 110.882 113.535C110.844 113.516 110.813 113.486 110.792 113.449C110.753 113.385 110.729 113.313 110.722 113.238C110.717 113.161 110.742 113.086 110.792 113.027C110.869 112.986 110.953 112.956 111.039 112.939Z" fill="#A1A1A1"/>
<path d="M115.157 114.629C115.153 114.865 115.129 115.1 115.087 115.333C115.033 115.532 114.95 115.721 114.84 115.896C114.738 116.04 114.606 116.16 114.453 116.248C114.291 116.336 114.11 116.384 113.925 116.389C113.739 116.397 113.555 116.347 113.397 116.248C113.244 116.16 113.112 116.04 113.01 115.896C112.886 115.729 112.802 115.537 112.763 115.333C112.691 115.105 112.656 114.867 112.658 114.629C112.664 114.381 112.687 114.134 112.728 113.889C112.782 113.691 112.865 113.501 112.975 113.326C113.077 113.182 113.209 113.062 113.362 112.974C113.524 112.886 113.705 112.838 113.89 112.833C114.077 112.821 114.262 112.87 114.418 112.974C114.575 113.07 114.718 113.189 114.84 113.326C114.964 113.493 115.048 113.686 115.087 113.889C115.129 114.134 115.153 114.381 115.157 114.629ZM114.488 114.629C114.496 114.337 114.435 114.048 114.312 113.784C114.272 113.697 114.208 113.624 114.126 113.573C114.045 113.523 113.95 113.499 113.855 113.502C113.794 113.496 113.733 113.506 113.678 113.531C113.622 113.556 113.574 113.594 113.538 113.643C113.428 113.746 113.354 113.882 113.327 114.03C113.233 114.424 113.233 114.834 113.327 115.227C113.359 115.373 113.432 115.508 113.538 115.614C113.583 115.662 113.637 115.699 113.698 115.723C113.759 115.748 113.824 115.759 113.89 115.755C113.989 115.756 114.087 115.725 114.168 115.669C114.25 115.612 114.313 115.532 114.347 115.438C114.461 115.184 114.509 114.906 114.488 114.629Z" fill="#A1A1A1"/>
<path d="M116.318 115.122V115.861C116.331 115.999 116.294 116.136 116.213 116.248C116.189 116.293 116.154 116.329 116.11 116.354C116.066 116.379 116.016 116.391 115.966 116.389C115.92 116.395 115.873 116.384 115.834 116.358C115.796 116.332 115.767 116.293 115.755 116.248C115.679 116.134 115.642 115.998 115.649 115.861V113.432C115.649 113.045 115.755 112.834 115.966 112.834C116.016 112.831 116.066 112.843 116.11 112.868C116.154 112.893 116.189 112.93 116.213 112.975C116.259 113.098 116.283 113.229 116.283 113.362C116.336 113.206 116.42 113.062 116.529 112.939C116.566 112.891 116.614 112.852 116.669 112.827C116.725 112.803 116.786 112.793 116.846 112.799C116.917 112.795 116.988 112.805 117.054 112.83C117.121 112.854 117.182 112.891 117.233 112.939C117.291 112.977 117.338 113.03 117.369 113.092C117.4 113.153 117.414 113.222 117.409 113.291C117.413 113.379 117.388 113.465 117.339 113.538C117.269 113.608 117.233 113.643 117.163 113.643C117.093 113.643 117.093 113.608 116.987 113.573C116.909 113.538 116.826 113.514 116.741 113.503C116.694 113.501 116.648 113.51 116.606 113.528C116.563 113.547 116.525 113.574 116.494 113.608C116.427 113.69 116.379 113.786 116.353 113.89C116.31 114.039 116.287 114.192 116.283 114.347C116.311 114.604 116.323 114.863 116.318 115.122Z" fill="#A1A1A1"/>
<path d="M118.395 116.512L118.466 116.301L117.656 113.591C117.622 113.476 117.599 113.358 117.586 113.239C117.58 113.166 117.592 113.094 117.621 113.027C117.647 112.974 117.683 112.927 117.726 112.887C117.765 112.85 117.814 112.825 117.867 112.816C117.909 112.811 117.951 112.818 117.989 112.837C118.026 112.856 118.058 112.885 118.078 112.922C118.137 113.034 118.185 113.152 118.219 113.274L118.782 115.421L119.275 113.415C119.301 113.283 119.336 113.154 119.381 113.027C119.399 112.96 119.436 112.899 119.486 112.851C119.53 112.828 119.578 112.816 119.627 112.816C119.676 112.816 119.725 112.828 119.768 112.851C119.811 112.892 119.847 112.939 119.874 112.992C119.902 113.046 119.914 113.107 119.909 113.168C119.911 113.229 119.899 113.289 119.874 113.344C119.874 113.415 119.838 113.485 119.838 113.555L119.029 116.512C118.975 116.717 118.905 116.917 118.818 117.111C118.744 117.243 118.648 117.362 118.536 117.463C118.396 117.539 118.238 117.575 118.078 117.568C117.935 117.568 117.792 117.544 117.656 117.498C117.55 117.427 117.515 117.357 117.515 117.181C117.517 117.094 117.541 117.009 117.586 116.935C117.621 116.864 117.691 116.864 117.797 116.864C117.816 116.862 117.835 116.864 117.853 116.87C117.872 116.876 117.888 116.886 117.902 116.899C117.938 116.899 117.973 116.935 118.008 116.935C118.069 116.944 118.131 116.931 118.184 116.899C118.227 116.859 118.263 116.812 118.29 116.759C118.325 116.741 118.36 116.635 118.395 116.512Z" fill="#A1A1A1"/>
<path d="M124.626 114.805C124.617 114.971 124.594 115.136 124.555 115.297C124.488 115.48 124.405 115.657 124.309 115.825C124.202 116.009 124.043 116.156 123.851 116.248C123.657 116.352 123.438 116.401 123.218 116.389C123.051 116.385 122.886 116.361 122.725 116.318C122.572 116.277 122.428 116.205 122.303 116.107C122.168 115.995 122.05 115.864 121.951 115.72C121.848 115.567 121.765 115.401 121.704 115.227C121.637 115.033 121.59 114.832 121.563 114.629C121.533 114.407 121.521 114.183 121.528 113.96C121.525 113.617 121.56 113.274 121.634 112.939C121.708 112.663 121.827 112.402 121.986 112.165C122.116 111.957 122.298 111.787 122.514 111.672C122.709 111.565 122.925 111.505 123.147 111.496C123.409 111.49 123.667 111.564 123.887 111.707C124.096 111.85 124.265 112.044 124.379 112.27C124.486 112.465 124.547 112.682 124.555 112.904C124.553 113.002 124.529 113.098 124.485 113.185C124.415 113.256 124.344 113.326 124.274 113.326C124.198 113.325 124.124 113.3 124.063 113.256C124.002 113.17 123.954 113.075 123.922 112.974C123.84 112.785 123.734 112.607 123.605 112.446C123.48 112.332 123.317 112.269 123.147 112.27C123.002 112.268 122.86 112.311 122.741 112.393C122.621 112.475 122.529 112.592 122.479 112.728C122.285 113.121 122.2 113.558 122.232 113.995C122.226 114.304 122.262 114.611 122.338 114.91C122.383 115.116 122.494 115.301 122.655 115.438C122.796 115.548 122.969 115.61 123.147 115.614C123.24 115.617 123.332 115.599 123.417 115.563C123.502 115.526 123.578 115.472 123.64 115.403C123.801 115.238 123.911 115.03 123.957 114.805L124.063 114.488C124.083 114.451 124.114 114.422 124.152 114.403C124.19 114.384 124.232 114.377 124.274 114.382C124.314 114.385 124.354 114.396 124.39 114.414C124.426 114.432 124.459 114.457 124.485 114.488C124.529 114.528 124.565 114.577 124.589 114.631C124.613 114.686 124.626 114.745 124.626 114.805Z" fill="#A1A1A1"/>
<path d="M127.617 114.594C127.613 114.83 127.59 115.065 127.547 115.298C127.493 115.496 127.41 115.686 127.301 115.861C127.199 116.005 127.066 116.125 126.913 116.213C126.751 116.301 126.57 116.349 126.385 116.354C126.2 116.357 126.017 116.308 125.857 116.213C125.704 116.125 125.572 116.005 125.47 115.861C125.347 115.694 125.262 115.501 125.224 115.298C125.152 115.07 125.116 114.832 125.118 114.594C125.124 114.346 125.148 114.099 125.189 113.854C125.243 113.655 125.326 113.466 125.435 113.291C125.537 113.147 125.669 113.027 125.822 112.939C125.985 112.851 126.166 112.803 126.35 112.798C126.537 112.786 126.723 112.835 126.878 112.939C127.036 113.035 127.178 113.154 127.301 113.291C127.424 113.458 127.509 113.65 127.547 113.854C127.609 114.096 127.632 114.345 127.617 114.594ZM126.984 114.594C126.991 114.302 126.931 114.013 126.808 113.749C126.768 113.662 126.703 113.588 126.622 113.538C126.54 113.488 126.446 113.463 126.35 113.467C126.29 113.461 126.229 113.471 126.173 113.496C126.118 113.52 126.07 113.559 126.033 113.608C125.923 113.711 125.849 113.847 125.822 113.995C125.728 114.389 125.728 114.799 125.822 115.192C125.855 115.338 125.928 115.472 126.033 115.579C126.074 115.623 126.122 115.659 126.177 115.683C126.232 115.707 126.291 115.72 126.35 115.72C126.45 115.72 126.547 115.69 126.629 115.634C126.711 115.577 126.773 115.496 126.808 115.403C126.948 115.158 127.009 114.875 126.984 114.594Z" fill="#A1A1A1"/>
<path d="M128.357 116.354C128.306 116.356 128.256 116.344 128.213 116.319C128.169 116.294 128.134 116.257 128.11 116.213C128.034 116.112 127.996 115.987 128.005 115.861C128.002 115.735 128.039 115.612 128.11 115.509C128.135 115.466 128.171 115.43 128.214 115.405C128.258 115.38 128.307 115.367 128.357 115.367C128.406 115.367 128.455 115.38 128.499 115.405C128.542 115.43 128.578 115.466 128.603 115.509C128.674 115.612 128.711 115.735 128.709 115.861C128.717 115.987 128.679 116.112 128.603 116.213C128.58 116.257 128.544 116.294 128.5 116.319C128.457 116.344 128.407 116.356 128.357 116.354Z" fill="#A1A1A1"/>
<path d="M50.1774 106.885H49.5438C49.1918 106.885 48.9454 106.639 48.8046 106.111C48.7532 106.234 48.6642 106.337 48.5505 106.407C48.4367 106.476 48.3039 106.508 48.171 106.498C47.643 106.498 47.291 105.829 47.291 104.949C47.291 103.999 47.643 103.365 48.2062 103.365H49.403V105.407C49.403 105.829 49.5438 106.075 49.8606 106.075H50.1774V106.885ZM48.347 102.731H47.7838V101.992H48.347V102.731ZM48.7694 104.843V103.999H48.347C48.1006 103.999 47.8894 104.421 47.8894 104.914C47.8894 105.407 48.0654 105.723 48.3118 105.723C48.6286 105.723 48.7694 105.371 48.7694 104.843ZM49.1918 102.731H48.6286V101.992H49.1918V102.731Z" fill="#A1A1A1"/>
<path d="M50.5295 107.941H49.9839V107.202H50.5471L50.5295 107.941ZM51.4095 105.653C51.424 105.949 51.3505 106.243 51.1983 106.498C51.142 106.61 51.0569 106.705 50.9517 106.773C50.8465 106.841 50.7251 106.879 50.5999 106.885H50.0719V106.04H50.4591C50.6703 106.04 50.7759 105.829 50.7759 105.407V103.999H51.4095V105.653ZM51.3743 107.941H50.8111V107.202H51.3919L51.3743 107.941Z" fill="#A1A1A1"/>
<path d="M54.0848 106.885H51.832V106.04H53.4512C53.4512 105.125 53.0992 104.738 52.3248 104.738V103.999C52.6104 103.985 52.8963 104.02 53.1696 104.104C53.768 104.421 54.0848 105.055 54.0848 106.04V106.885ZM53.152 103.488H52.5888V102.749H53.152V103.488Z" fill="#A1A1A1"/>
<path d="M56.7953 105.829C56.8058 106.103 56.7321 106.373 56.5841 106.603C56.5197 106.692 56.4349 106.764 56.3369 106.813C56.2388 106.862 56.1304 106.887 56.0209 106.885H54.5601V106.04H55.2289L54.6657 103.189H55.3345L55.8977 106.04C56.1089 106.04 56.2145 105.829 56.2145 105.371V102.731H56.8129V105.829H56.7953Z" fill="#A1A1A1"/>
<path d="M59.7874 106.885H59.189C59.1186 107.589 58.7666 107.941 58.1682 107.941H58.0978V107.237H58.1682C58.2216 107.24 58.2751 107.233 58.3256 107.215C58.376 107.197 58.4223 107.169 58.4618 107.133C58.5012 107.097 58.5329 107.053 58.5551 107.005C58.5772 106.956 58.5893 106.903 58.5906 106.85C58.4657 106.89 58.3335 106.902 58.2034 106.885C57.605 106.885 57.1826 106.287 57.1826 105.407C57.1826 104.527 57.605 103.963 58.2034 103.963C58.8018 103.963 59.189 104.597 59.189 105.442V106.04H59.7522V106.885H59.7874ZM58.5906 106.04V105.407C58.5906 105.019 58.4498 104.773 58.2034 104.773C57.957 104.773 57.8514 105.019 57.8514 105.371C57.8514 105.723 57.9922 106.005 58.2386 106.005H58.5906V106.04Z" fill="#A1A1A1"/>
<path d="M62.6034 106.885H62.2514C61.8611 106.899 61.4736 106.814 61.125 106.638C60.7777 106.818 60.3892 106.903 59.9986 106.885H59.5762V106.04H59.9986C60.1167 106.038 60.2345 106.027 60.3506 106.005C60.1673 105.683 60.0703 105.319 60.069 104.949C60.0751 104.783 60.0987 104.617 60.1394 104.456C60.2802 103.822 60.6674 103.435 61.125 103.435C61.5826 103.435 61.9698 103.822 62.1106 104.456C62.1512 104.617 62.1748 104.783 62.181 104.949C62.1796 105.319 62.0826 105.683 61.8994 106.005C62.0131 106.04 62.1329 106.052 62.2514 106.04H62.6034V106.885ZM61.3362 105.582C61.425 105.482 61.4926 105.365 61.5349 105.238C61.5773 105.111 61.5935 104.977 61.5826 104.843C61.5826 104.421 61.4066 104.104 61.0898 104.104C61.0181 104.107 60.9484 104.128 60.8869 104.165C60.8254 104.202 60.7741 104.253 60.7378 104.315C60.6622 104.481 60.6261 104.661 60.6322 104.843C60.6213 104.977 60.6375 105.111 60.6798 105.238C60.7222 105.365 60.7898 105.482 60.8786 105.582C60.9399 105.651 61.0111 105.711 61.0898 105.758C61.1887 105.738 61.2765 105.682 61.3362 105.6V105.582ZM61.3714 102.837H60.8082V102.098H61.3714V102.837Z" fill="#A1A1A1"/>
<path d="M63.7649 105.653C63.7794 105.949 63.706 106.243 63.5537 106.498C63.4975 106.61 63.4123 106.705 63.3072 106.773C63.202 106.841 63.0805 106.88 62.9553 106.885H62.3569V106.04H62.8145C63.0257 106.04 63.1313 105.829 63.1313 105.407V102.784H63.7649V105.653Z" fill="#A1A1A1"/>
<path d="M64.8206 106.885H64.187V102.731H64.8206V106.885Z" fill="#A1A1A1"/>
<path d="M69.9598 105.829C69.9598 106.498 69.6782 106.885 69.2206 106.885H67.6014C66.6158 106.885 66.123 106.287 66.123 105.09V103.963H66.7214V105.09C66.7012 105.229 66.7128 105.371 66.7555 105.505C66.7982 105.639 66.8708 105.762 66.9678 105.864C67.1549 105.989 67.3769 106.05 67.6014 106.04H68.763C68.8843 106.045 69.0051 106.021 69.115 105.97C69.1963 105.895 69.258 105.801 69.2948 105.697C69.3316 105.592 69.3424 105.481 69.3262 105.371V103.963H69.9246V105.829H69.9598ZM67.9182 103.963H67.355V103.224H67.9358L67.9182 103.963ZM68.763 103.963H68.1998V103.224H68.763V103.963Z" fill="#A1A1A1"/>
<path d="M71.7551 106.885H71.1567C70.6639 106.885 70.4175 106.498 70.4175 105.829V102.731H71.0511V105.336C71.0511 105.759 71.1215 106.005 71.5791 106.005H71.7551V106.885Z" fill="#A1A1A1"/>
<path d="M75.3806 106.885H71.6494V106.04H74.1838C74.1823 105.73 74.0972 105.426 73.9374 105.16C73.8681 105.034 73.7664 104.928 73.6426 104.854C73.5189 104.779 73.3777 104.739 73.2334 104.738C73.0837 104.754 72.9395 104.803 72.8115 104.882C72.6835 104.961 72.575 105.068 72.4942 105.195C72.4238 105.09 72.3182 104.879 72.1774 104.597C72.2863 104.401 72.444 104.237 72.6352 104.119C72.8264 104.002 73.0445 103.936 73.2686 103.928C73.519 103.928 73.7639 104.001 73.9726 104.139C74.4654 104.456 74.747 105.09 74.8174 106.04H75.3806V106.885ZM73.5854 107.941H73.0222V107.202H73.5854V107.941Z" fill="#A1A1A1"/>
<path d="M75.6799 103.488H75.1167V102.749H75.6799V103.488ZM77.1935 106.903H75.1871V106.058H75.6095C75.8207 106.058 75.9263 105.847 75.9263 105.424V103.981H76.5599V105.389C76.5578 105.602 76.5342 105.814 76.4895 106.023H77.2287V106.903H77.1935ZM76.4895 103.488H75.9263V102.749H76.4895V103.488Z" fill="#A1A1A1"/>
<path d="M79.1119 106.885H77.1055V106.04H77.5279C77.7391 106.04 77.8447 105.829 77.8447 105.407V103.963H78.4959V105.371C78.4938 105.584 78.4702 105.797 78.4255 106.005H79.1647V106.885H79.1119ZM78.4079 103.471H77.8447V102.731H78.4079V103.471Z" fill="#A1A1A1"/>
<path d="M82.0687 106.885H81.3647C81.2953 107.052 81.1779 107.194 81.0276 107.294C80.8773 107.394 80.7006 107.448 80.5199 107.448C80.3377 107.456 80.1577 107.405 80.0059 107.304C79.8541 107.203 79.7383 107.056 79.6752 106.885H79.0063V106.04H79.4992C79.4992 105.125 79.8511 104.526 80.5199 104.526C81.1887 104.526 81.5759 105.09 81.5759 106.04H82.1039V106.885H82.0687ZM80.9423 106.005C80.9423 105.512 80.8016 105.23 80.5552 105.23H80.5199C80.3087 105.23 80.1327 105.547 80.1327 105.97C80.1327 106.392 80.2736 106.709 80.5552 106.709C80.7664 106.709 80.9599 106.427 80.9599 106.005H80.9423Z" fill="#A1A1A1"/>
<path d="M83.9342 106.885H81.8926V106.04H82.315C82.5262 106.04 82.6318 105.829 82.6318 105.407V102.731H83.2654V105.371C83.2633 105.584 83.2397 105.797 83.195 106.005H83.9342V106.885Z" fill="#A1A1A1"/>
<path d="M85.1839 105.653C85.1984 105.949 85.1249 106.243 84.9727 106.498C84.9164 106.61 84.8313 106.705 84.7261 106.773C84.6209 106.841 84.4995 106.88 84.3743 106.885H83.7759V106.04H84.2335C84.4447 106.04 84.5503 105.829 84.5503 105.407V102.784H85.1839V105.653Z" fill="#A1A1A1"/>
<path d="M90.3057 106.885C90.1438 106.895 89.9818 106.866 89.8344 106.798C89.6869 106.73 89.5586 106.627 89.4609 106.498C89.4277 106.881 89.2556 107.24 88.9769 107.505C88.6982 107.771 88.3321 107.926 87.9473 107.941C87.0673 107.941 86.3633 106.991 86.3633 105.759V104.984H86.9969V105.688C86.9969 106.533 87.3489 107.131 87.9825 107.131C88.1119 107.127 88.2392 107.097 88.3571 107.043C88.4749 106.989 88.581 106.913 88.6693 106.818C88.7576 106.723 88.8263 106.612 88.8715 106.49C88.9167 106.369 88.9376 106.24 88.9329 106.111C88.9329 105.759 88.7217 105.547 88.5105 105.547C88.4914 105.545 88.472 105.547 88.4537 105.553C88.4355 105.559 88.4188 105.569 88.4049 105.583V104.808H88.6865C89.1441 104.808 89.4609 105.09 89.6721 105.688C89.6974 105.806 89.7652 105.911 89.8625 105.982C89.9598 106.053 90.0799 106.087 90.2001 106.075H90.3057V106.885ZM87.8769 109.279H87.3137V108.539H87.8769V109.279ZM88.7217 109.279H88.1585V108.539H88.7217V109.279Z" fill="#A1A1A1"/>
<path d="M91.5374 105.653C91.5519 105.949 91.4784 106.243 91.3262 106.498C91.2699 106.61 91.1848 106.705 91.0796 106.773C90.9744 106.841 90.853 106.88 90.7278 106.885H90.1294V106.04H90.587C90.7982 106.04 90.9038 105.829 90.9038 105.407V102.784H91.5374V105.671V105.653Z" fill="#A1A1A1"/>
<path d="M94.5296 106.885H93.9312C93.8608 107.589 93.5088 107.941 92.9104 107.941H92.84V107.237H92.9104C92.9638 107.24 93.0173 107.233 93.0678 107.215C93.1182 107.197 93.1645 107.169 93.2039 107.133C93.2434 107.097 93.2751 107.053 93.2973 107.005C93.3194 106.956 93.3315 106.903 93.3328 106.85C93.2079 106.89 93.0757 106.902 92.9456 106.885C92.3472 106.885 91.9248 106.287 91.9248 105.407C91.9248 104.527 92.3472 103.963 92.9456 103.963C93.544 103.963 93.9312 104.597 93.9312 105.442V106.04H94.4944V106.885H94.5296ZM93.3328 106.04V105.407C93.3328 105.019 93.192 104.773 92.9456 104.773C92.6992 104.773 92.5936 105.019 92.5936 105.371C92.5936 105.723 92.7344 106.005 92.9808 106.005H93.3328V106.04Z" fill="#A1A1A1"/>
<path d="M94.8815 103.488H94.3359V102.749H94.8991L94.8815 103.488ZM96.4303 106.903H94.4239V106.058H94.8463C95.0575 106.058 95.1631 105.847 95.1631 105.424V103.981H95.7967V105.389C95.7946 105.602 95.7711 105.814 95.7263 106.023H96.4655V106.903H96.4303ZM95.7263 103.488H95.1631V102.749H95.7439L95.7263 103.488Z" fill="#A1A1A1"/>
<path d="M99.3871 106.885H98.6831C98.6136 107.052 98.4963 107.194 98.346 107.294C98.1956 107.394 98.019 107.448 97.8383 107.448C97.656 107.456 97.476 107.405 97.3242 107.304C97.1724 107.203 97.0566 107.056 96.9935 106.885H96.3247V106.04H96.8175C96.8175 105.125 97.1695 104.526 97.8383 104.526C98.5071 104.526 98.8943 105.09 98.8943 106.04H99.4223V106.885H99.3871ZM98.2255 106.005C98.2255 105.512 98.0847 105.23 97.8383 105.23H97.8031C97.5919 105.23 97.4159 105.547 97.4159 105.97C97.4159 106.392 97.5567 106.709 97.8383 106.709C98.1199 106.709 98.2255 106.427 98.2255 106.005Z" fill="#A1A1A1"/>
<path d="M100.549 105.653C100.563 105.949 100.49 106.243 100.337 106.498C100.281 106.61 100.196 106.705 100.091 106.773C99.9857 106.841 99.8642 106.88 99.739 106.885H99.1406V106.04H99.6158C99.827 106.04 99.9326 105.829 99.9326 105.407V102.784H100.566V105.671L100.549 105.653Z" fill="#A1A1A1"/>
<path d="M101.64 106.885H101.024V102.731H101.658L101.64 106.885Z" fill="#A1A1A1"/>
<path d="M105.794 106.885H105.16C104.808 106.885 104.562 106.639 104.421 106.111C104.369 106.234 104.28 106.337 104.167 106.407C104.053 106.476 103.92 106.508 103.787 106.498C103.259 106.498 102.907 105.829 102.907 104.949C102.907 103.999 103.259 103.365 103.822 103.365H105.019V105.407C105.019 105.829 105.16 106.075 105.477 106.075H105.794V106.885ZM103.963 102.731H103.4V101.992H103.963V102.731ZM104.386 104.843V103.999H103.963C103.717 103.999 103.506 104.421 103.506 104.914C103.506 105.407 103.682 105.723 103.928 105.723C104.174 105.723 104.386 105.371 104.386 104.843ZM104.773 102.731H104.245V101.992H104.808V102.731H104.773Z" fill="#A1A1A1"/>
<path d="M108.768 106.885H105.53V106.04H108.099C108.029 105.336 107.677 104.808 107.184 104.808H106.058L106.938 102.767H107.677L107.114 103.999H107.466C108.311 104.139 108.768 105.09 108.768 106.568V106.885Z" fill="#A1A1A1"/>
<path d="M111.039 106.885H110.335C110.33 107.035 110.296 107.182 110.232 107.317C110.169 107.453 110.078 107.574 109.966 107.673C109.853 107.772 109.722 107.847 109.58 107.893C109.437 107.939 109.287 107.956 109.138 107.941V107.202C109.56 107.202 109.736 106.92 109.736 106.357V103.963H110.37V106.005H111.039V106.885Z" fill="#A1A1A1"/>
<path d="M114.84 105.371C114.84 106.251 114.418 106.885 113.925 106.885H110.827V106.04H111.39C111.602 106.04 111.707 105.899 111.707 105.406V103.963H112.341V105.371C112.339 105.584 112.315 105.797 112.27 106.005H112.658C112.869 106.005 112.974 105.829 112.974 105.442V103.963H113.608V105.371C113.606 105.584 113.582 105.797 113.538 106.005H113.925C114.136 106.005 114.242 105.829 114.242 105.442V103.963H114.875V105.371H114.84ZM113.115 103.47H112.552V102.731H113.115V103.47ZM113.538 102.414H112.992V101.675H113.555L113.538 102.414ZM113.96 103.47H113.397V102.731H113.96V103.47Z" fill="#A1A1A1"/>
<path d="M119.346 106.885C118.712 106.885 118.29 106.463 118.079 105.688H117.339C116.882 105.688 116.706 105.899 116.706 106.392C116.706 106.885 116.917 107.096 117.339 107.096H118.184V107.976H117.375C116.53 107.976 116.107 107.378 116.107 106.392C116.107 105.653 116.354 105.125 116.847 104.914C116.777 104.686 116.742 104.448 116.741 104.21C116.741 103.4 117.163 102.731 117.727 102.731C117.934 102.746 118.131 102.83 118.285 102.971C118.438 103.111 118.539 103.3 118.571 103.506L118.079 103.858C118.008 103.611 117.903 103.471 117.727 103.471C117.551 103.471 117.339 103.752 117.339 104.139C117.339 104.456 117.41 104.703 117.586 104.773H118.571C118.571 105.618 118.818 106.005 119.311 106.005H119.346V106.885Z" fill="#A1A1A1"/>
<path d="M121.282 106.885H119.275V106.04H119.698C119.909 106.04 120.015 105.829 120.015 105.407V103.963H120.648V105.371C120.646 105.584 120.622 105.797 120.578 106.005H121.317V106.885H121.282ZM120.578 103.471H120.032V102.731H120.595L120.578 103.471Z" fill="#A1A1A1"/>
<path d="M125.717 106.885H121.105V106.04H121.669C121.88 106.04 121.985 105.899 121.985 105.407V104.28H122.619V105.125C123.006 104.421 123.534 103.963 124.027 103.963C124.766 103.963 125.189 104.703 125.259 106.04H125.752V106.885H125.717ZM124.59 106.04V105.952C124.59 105.283 124.379 104.791 123.957 104.791C123.534 104.791 123.077 105.213 122.76 106.058L124.59 106.04Z" fill="#A1A1A1"/>
<path d="M128.251 105.97C128.251 106.814 127.864 107.448 127.231 107.448C127.048 107.456 126.868 107.405 126.717 107.304C126.565 107.203 126.449 107.056 126.386 106.885H125.576V106.04H126.21C126.21 105.125 126.562 104.526 127.231 104.526C127.899 104.526 128.251 105.09 128.251 105.97ZM127.653 106.005C127.653 105.512 127.512 105.23 127.266 105.23H127.231C127.019 105.23 126.843 105.547 126.843 105.97C126.843 106.392 126.984 106.709 127.266 106.709C127.477 106.709 127.653 106.427 127.653 106.005Z" fill="#A1A1A1"/>
<path fill-rule="evenodd" clip-rule="evenodd" d="M86.0815 58.5553C92.6287 57.8161 96.6767 61.1249 99.5279 64.8913C104.526 71.5441 105.301 83.7233 100.302 91.4321C97.9087 95.0929 94.1775 98.4017 89.7071 98.8593C82.9135 99.5985 78.5135 96.0785 75.7327 91.8545C73.1662 87.9224 71.8304 83.3144 71.8959 78.6193C71.8959 73.6561 73.3391 68.9041 75.7327 65.3841C77.8447 62.2513 81.4351 59.0833 86.0815 58.5553ZM85.6591 61.0545C79.7455 62.3569 76.3311 68.9745 75.5919 74.8177C78.3023 70.3473 82.4911 67.3905 89.6719 67.3905C90.0239 67.3201 90.1647 67.0033 90.5519 66.9681C91.2911 67.6017 92.6639 67.3201 92.7343 68.4817C92.7431 68.7838 92.6342 69.0774 92.4306 69.3007C92.227 69.524 91.9446 69.6595 91.6431 69.6785C91.9951 71.1217 91.9246 72.9521 92.4174 74.2545C92.9806 73.6209 94.2127 73.6209 94.0719 72.2833C94.5306 71.8612 95.1083 71.5908 95.7263 71.5089C95.2335 70.9105 94.3535 70.6993 94.0719 69.8545C94.2127 67.9185 93.9311 65.8769 96.6767 66.1233C94.6351 63.0257 90.8159 59.9281 85.6591 61.0545ZM96.7823 68.6929C96.8137 68.5729 96.8105 68.4464 96.7731 68.3281C96.7358 68.2097 96.6657 68.1044 96.5711 68.0241C96.6415 68.2881 96.3951 68.7985 96.7999 68.6929H96.7823ZM88.0527 69.5729C88.5989 70.6379 89.2224 71.6615 89.9183 72.6353C89.8831 71.5089 89.6719 70.5585 89.6015 69.4673C89.0735 69.5025 88.3695 69.3617 88.0527 69.5729ZM99.3167 71.5441C99.0703 70.8049 98.9295 69.9601 98.4367 69.4673C98.3663 70.4881 98.6831 71.1921 99.3167 71.5441ZM90.5519 76.8945C92.7343 76.5425 94.9167 76.2257 96.0079 74.8177C96.1487 74.7825 96.1839 74.6417 96.3247 74.6065C96.2895 74.4305 96.1486 74.6065 96.1134 74.7121C94.4238 75.7329 92.6991 76.7537 89.7775 76.5777C88.0175 74.9937 87.2783 72.3889 86.5039 69.8193C83.6589 70.4425 81.1127 72.02 79.2879 74.2897C77.2815 76.7185 74.9935 80.5553 75.9087 84.2161C77.4223 82.9489 78.4783 81.1537 79.2879 79.3937C79.5695 78.7601 79.7103 77.9153 80.0623 77.3169C81.7167 74.5361 86.6799 77.4577 88.7919 77.9857C89.4607 78.1617 91.819 78.4433 92.0654 77.6689C91.4318 77.7041 90.4815 78.3729 90.0943 77.6689C90.2924 77.4406 90.4474 77.1782 90.5519 76.8945ZM94.7054 72.9521C95.2686 72.8113 96.2543 72.5649 96.2191 72.1777C95.7967 72.5297 95.0926 72.5649 94.7054 72.9521ZM75.5919 78.5489C76.6831 76.2257 78.5487 74.0785 79.8511 72.3185C78.1615 74.0433 75.8383 75.6977 75.5919 78.5489ZM99.7391 76.3313C98.9811 77.2415 98.1051 78.0464 97.1343 78.7249C96.1135 79.4641 94.9519 79.9217 93.8607 80.5905C92.8399 81.2241 92.3471 82.4209 91.5727 82.9841C90.0239 84.1105 88.5455 82.9137 87.3135 82.1041C87.2431 82.4209 88.3695 82.5265 88.2991 83.1953C88.0175 84.4273 86.7151 84.6737 85.4479 84.9553C85.2719 86.5393 87.1727 86.6449 87.9471 87.8065C88.3343 88.3697 88.3343 89.1441 88.7215 89.7777C89.3551 90.8337 91.7838 90.9745 91.8894 92.1713C91.995 93.6145 89.9887 93.7201 90.0239 95.4449C97.5567 93.1921 101.393 84.4977 99.9503 74.4657C99.9855 75.2049 99.7743 75.6977 99.7391 76.3313ZM82.1391 80.8369C81.5055 81.7169 81.8927 82.2801 81.3647 83.0193C80.9775 83.5825 79.7103 84.1809 78.9711 84.7793C78.2319 85.3777 76.8591 86.0817 76.7887 86.8561C76.7535 87.4897 77.9855 89.4609 78.4431 90.1297C80.4495 93.1569 83.3359 95.6561 87.8415 95.7969C88.5455 93.6497 87.8767 92.8753 86.5391 91.7489C85.0959 90.5521 84.1455 89.7073 82.8431 88.5809C81.8927 87.7713 80.8367 87.4193 81.0831 85.7297C81.3647 83.9345 83.1247 82.0689 85.0255 81.4705C83.7759 81.6641 83.1599 80.2561 82.1391 80.8369ZM87.7359 81.9281C89.2143 81.5761 90.3055 83.1601 91.2207 82.0337C90.0239 82.5265 88.6159 80.6961 87.7359 81.9281ZM80.8367 81.9281C80.8015 81.9281 80.0975 82.7729 80.1679 82.9137C80.3791 82.5265 80.8015 82.4209 80.8367 81.9281ZM85.6591 96.6769C85.6591 96.9937 86.1167 96.5713 85.6591 96.6769C81.6463 95.3041 78.8303 92.7345 76.8239 89.4609C76.2255 88.4753 75.8383 86.8913 74.5359 86.6097C76.4015 91.7841 79.7103 95.5505 85.6591 96.6769Z" fill="#A1A1A1"/>
</svg>
