<svg width="120" height="120" viewBox="0 0 120 120" fill="none" xmlns="http://www.w3.org/2000/svg">
<path fill-rule="evenodd" clip-rule="evenodd" d="M86.2248 101.184C86.3189 101.325 86.5071 101.419 86.6482 101.466C86.8364 101.56 87.0245 101.607 87.2127 101.607C87.7772 101.702 88.3417 101.56 88.765 101.137L88.8121 101.09C88.8121 101.184 88.8591 101.231 88.9061 101.278C89.0002 101.419 89.0943 101.513 89.2354 101.607C89.3295 101.654 89.4706 101.654 89.5647 101.654H90.3644V101.184H89.9881L89.894 101.137C89.7999 101.043 89.7529 100.902 89.7058 100.761C89.7058 100.667 89.6588 100.573 89.6588 100.431V95.6804H90.3174V95.21H88.0594V95.6804H88.6709V100.008C88.6709 100.102 88.6709 100.196 88.6239 100.243C88.5298 100.573 88.2946 100.855 88.0124 101.043C87.9183 101.09 87.8242 101.09 87.7301 101.137C87.4479 101.184 87.1186 101.043 86.9305 100.808C86.7893 100.667 86.6952 100.478 86.6482 100.243C86.6012 99.914 86.5541 99.5377 86.5541 99.2084V95.6804H87.1657V95.21H84.9077V95.6804H85.5192V95.9626V99.867C85.5192 100.102 85.5663 100.337 85.6604 100.573C85.7074 100.667 85.7544 100.808 85.8015 100.902C85.8485 101.043 85.9426 101.137 86.0367 101.231" fill="#A1A1A1"/>
<path fill-rule="evenodd" clip-rule="evenodd" d="M81.5208 100.337C81.4267 100.478 81.2856 100.619 81.1445 100.713C81.0034 100.855 80.8152 100.949 80.627 100.996C80.1096 101.184 79.5451 101.137 79.0747 100.855C78.9336 100.761 78.7925 100.666 78.6513 100.525C77.8516 99.6786 77.4283 98.5496 77.4753 97.4207C77.4753 96.715 77.5694 96.0094 77.8517 95.3509C78.0869 94.7864 78.4632 94.2689 78.9806 93.9397C79.1688 93.7985 79.404 93.7045 79.6392 93.6574C80.2978 93.5633 80.9093 93.7515 81.3797 94.2219C81.6619 94.5042 81.8971 94.8334 82.0853 95.2098C82.4616 96.0094 82.6027 96.9032 82.5557 97.797C82.5557 98.1263 82.4616 98.4555 82.3675 98.7848V98.8789C82.2734 98.7848 82.1323 98.6907 81.9912 98.5967C81.8501 98.5026 81.756 98.4555 81.6149 98.4085C81.4267 98.3615 81.1915 98.3144 80.9563 98.2674H79.7333V98.7378H79.9214C80.5329 98.7378 81.0974 99.02 81.4738 99.5375C81.6149 99.6786 81.756 99.8668 81.8971 100.008C81.803 100.149 81.709 100.243 81.6149 100.384L81.5208 100.337ZM85.237 101.278C85.0959 101.278 85.0018 101.278 84.8607 101.231C84.7195 101.184 84.5784 101.137 84.4373 101.09C84.2962 101.043 84.1551 100.949 84.061 100.855C83.9199 100.761 83.8258 100.666 83.7317 100.525C83.4965 100.29 83.3083 100.055 83.0731 99.8197C83.2613 99.4434 83.4495 99.0671 83.5435 98.6437C83.6376 98.2203 83.6847 97.7499 83.6847 97.3266C83.6847 96.7621 83.5906 96.1976 83.3554 95.6802C83.1672 95.1627 82.932 94.6923 82.5557 94.316C82.2264 93.9397 81.8501 93.6104 81.3797 93.3752C80.9093 93.14 80.3918 93.0459 79.8744 93.0459C78.6043 93.14 77.4283 93.8926 76.8638 95.0216C76.6756 95.3979 76.5345 95.7742 76.4404 96.1506C76.3464 96.5739 76.2993 97.0443 76.2993 97.4677C76.2993 97.9851 76.3934 98.5026 76.5345 99.02C76.7227 99.5845 77.0049 100.102 77.3812 100.525C77.5224 100.713 77.7105 100.855 77.8987 100.996C78.1809 101.231 78.5102 101.419 78.8395 101.56C79.5921 101.889 80.4859 101.889 81.2386 101.56C81.6619 101.372 82.0382 101.09 82.3675 100.761L82.4146 100.713C82.5086 100.855 82.6498 100.949 82.7438 101.09C82.885 101.231 83.0261 101.372 83.1672 101.466C83.4495 101.654 83.8258 101.748 84.1551 101.748H85.4252V101.372L85.237 101.278Z" fill="#A1A1A1"/>
<path fill-rule="evenodd" clip-rule="evenodd" d="M40.6428 98.1733C40.5488 97.9851 40.4076 97.797 40.2195 97.6559C40.0313 97.4677 39.8432 97.3266 39.608 97.1855L39.1846 96.9503L38.6671 96.668C38.4319 96.5739 38.2438 96.4798 38.0556 96.3387L37.7263 96.1506L37.3971 95.9154C37.2559 95.8213 37.1148 95.6802 37.0207 95.492C36.9267 95.3038 36.8326 95.1157 36.8326 94.8805C36.8326 94.5512 36.9267 94.2219 37.1619 93.9867C37.303 93.8456 37.4441 93.7515 37.6323 93.7045C37.8675 93.6104 38.1027 93.5633 38.3379 93.5633C38.5731 93.5633 38.8553 93.6104 39.0435 93.7515C39.3257 93.8926 39.5139 94.1278 39.608 94.4101C39.655 94.6923 39.702 95.0216 39.702 95.3038H40.1254V93.2341H39.655C39.5139 93.2341 39.3257 93.187 39.1846 93.14C38.9024 93.0929 38.6201 93.0459 38.3379 93.0459C38.0556 93.0459 37.8204 93.0929 37.5382 93.14C37.2559 93.2341 36.9267 93.3752 36.6915 93.5633C36.3151 93.8456 36.0329 94.2689 35.8918 94.7393C35.8447 94.9275 35.8447 95.0686 35.8447 95.2568C35.8447 95.9624 36.174 96.621 36.7385 97.0443C36.8326 97.1384 36.9737 97.2325 37.1148 97.2795C37.35 97.4207 37.6323 97.5618 37.9145 97.7029C38.1967 97.844 38.432 97.9381 38.7142 98.0792C38.8553 98.1263 38.9964 98.2203 39.0905 98.3144C39.2316 98.4085 39.3728 98.5026 39.4668 98.5967C39.7491 98.8789 39.9372 99.2552 39.8902 99.6316C39.8902 100.008 39.7491 100.384 39.4668 100.666C39.2316 100.855 38.9494 100.996 38.6201 101.043H38.2908C38.1027 101.043 37.9145 101.043 37.7263 100.996C37.6323 100.996 37.5382 100.949 37.4441 100.949L37.1619 100.808C37.0678 100.713 36.9737 100.619 36.8796 100.478C36.8326 100.337 36.7855 100.196 36.7385 100.055V99.8668H36.3151V101.654H38.4319C39.1376 101.701 39.8432 101.466 40.3606 100.996C40.784 100.572 41.0192 100.008 41.0192 99.3963C40.9721 98.973 40.831 98.5496 40.6428 98.1733Z" fill="#A1A1A1"/>
<path fill-rule="evenodd" clip-rule="evenodd" d="M42.9007 98.8791L43.4652 97.1857H43.5592L44.1237 98.8791H42.9007ZM46.1465 101.231C46.0524 101.231 46.0053 101.184 45.9112 101.137H45.8642V101.09L45.8172 100.996C45.7701 100.902 45.7701 100.808 45.7231 100.714L43.8885 95.21H43.5122L41.6306 100.902C41.6306 100.949 41.5835 100.996 41.5835 101.09C41.5835 101.184 41.5365 101.231 41.4895 101.278H40.8779V101.749H42.5243V101.278H42.101C42.2891 100.714 42.4773 100.102 42.6655 99.5377H44.2178L44.7352 101.09L44.7823 101.278H44.3589V101.749H46.3817V101.278H46.2876C46.2876 101.231 46.2405 101.231 46.1465 101.231Z" fill="#A1A1A1"/>
<path fill-rule="evenodd" clip-rule="evenodd" d="M105.512 99.2553C105.465 99.0201 105.324 98.8319 105.182 98.6438C105.088 98.5497 104.994 98.4556 104.9 98.4085C104.806 98.3145 104.665 98.2674 104.571 98.1733C104.336 98.0322 104.054 97.8911 103.771 97.797C103.63 97.75 103.489 97.7029 103.395 97.6089C103.207 97.5148 103.019 97.3737 102.83 97.2325C102.642 97.0914 102.548 96.8562 102.548 96.621C102.548 96.3858 102.595 96.1506 102.783 95.9625C102.878 95.8684 102.972 95.8213 103.113 95.7743C103.254 95.7273 103.442 95.6802 103.583 95.6802C103.912 95.6802 104.195 95.8213 104.383 96.1036C104.43 96.1977 104.477 96.3388 104.477 96.4329V96.7151H104.9V95.1628H104.242C104.006 95.1157 103.818 95.1157 103.583 95.1157C103.348 95.1157 103.16 95.1628 102.925 95.2098C102.689 95.3039 102.454 95.398 102.266 95.5861C102.031 95.8213 101.843 96.1506 101.796 96.4799C101.796 96.621 101.749 96.7151 101.749 96.8562C101.749 97.0444 101.796 97.2325 101.843 97.4207C101.937 97.7029 102.125 97.9852 102.36 98.2204C102.642 98.4556 102.972 98.6438 103.348 98.7849C103.63 98.879 103.865 99.0201 104.101 99.1612C104.289 99.3023 104.43 99.4434 104.571 99.6316C104.618 99.7257 104.665 99.8668 104.618 100.008C104.665 100.431 104.43 100.808 104.054 100.996C103.912 101.043 103.724 101.09 103.583 101.09H103.16L102.972 101.043C102.877 100.996 102.83 100.996 102.783 100.902C102.736 100.902 102.736 100.855 102.736 100.808C102.736 100.761 102.689 100.572 102.642 100.478V100.055H102.172V101.654H103.724C103.959 101.654 104.195 101.607 104.43 101.56C104.665 101.466 104.947 101.372 105.135 101.184C105.324 100.996 105.465 100.808 105.512 100.572C105.606 100.337 105.653 100.055 105.653 99.7727C105.559 99.6786 105.559 99.4905 105.512 99.2553Z" fill="#A1A1A1"/>
<path fill-rule="evenodd" clip-rule="evenodd" d="M97.9383 98.8791L98.5027 97.1857H98.5968L99.1613 98.8791H97.9383ZM101.231 101.231C101.137 101.231 101.09 101.184 100.996 101.137H100.949V101.09L100.902 100.996C100.855 100.902 100.855 100.808 100.808 100.714L98.9731 95.21H98.5968L96.7152 100.902C96.7152 100.949 96.6682 100.996 96.6682 101.09C96.6682 101.184 96.6211 101.231 96.5741 101.278H96.0566V101.749H97.609V101.278H97.1856C97.3738 100.714 97.5619 100.102 97.7501 99.5377H99.3495L99.8669 101.09L99.9139 101.278H99.4906V101.749H101.513V101.278H101.419C101.372 101.231 101.325 101.231 101.231 101.231Z" fill="#A1A1A1"/>
<path fill-rule="evenodd" clip-rule="evenodd" d="M15.7586 95.7271C15.8997 95.7741 15.9938 95.8212 16.1349 95.8682C16.276 95.9152 16.3701 96.0093 16.4642 96.1504C16.5583 96.2445 16.6053 96.3856 16.6523 96.5268C16.6994 96.6679 16.6994 96.856 16.6994 96.9972V97.2324C16.6994 97.3735 16.6523 97.5146 16.5583 97.6087C16.4171 97.8439 16.1349 98.0321 15.8527 98.0791C15.7115 98.1261 15.5234 98.1261 15.3823 98.1261H15.2882V95.633H15.4763C15.5704 95.68 15.7115 95.68 15.7586 95.7271ZM16.276 101.043C16.0879 101.09 15.9467 101.09 15.7586 101.09H15.2882V98.6906H15.6645C15.8527 98.6906 16.0408 98.6906 16.229 98.7377C16.4171 98.7377 16.6523 98.8317 16.7935 98.9729C16.8875 99.0669 16.9816 99.2081 17.0757 99.3492C17.1227 99.5373 17.1698 99.6785 17.1698 99.8666C17.1698 100.055 17.1698 100.243 17.0757 100.384C17.0287 100.572 16.8875 100.713 16.7464 100.854C16.5583 100.949 16.4171 100.996 16.276 101.043ZM17.7343 98.6436C17.5932 98.5025 17.452 98.3613 17.2639 98.2673H17.1698C17.2639 98.1732 17.3579 98.0791 17.405 97.985C17.5932 97.7028 17.6872 97.3264 17.6872 96.9972V96.6208C17.6402 96.1975 17.452 95.8212 17.1227 95.586C16.6523 95.2567 16.0408 95.0685 15.4763 95.1156H13.7358V95.586H14.2533V101.137H13.7358V101.607H16.1349C16.6523 101.607 17.2168 101.466 17.6402 101.184C18.0165 100.854 18.2047 100.384 18.1576 99.8666C18.1576 99.6785 18.1106 99.4433 18.0636 99.2551C17.9695 99.0199 17.8754 98.8317 17.7343 98.6436Z" fill="#A1A1A1"/>
<path fill-rule="evenodd" clip-rule="evenodd" d="M27.8477 101.419L27.9418 101.513C28.0359 101.654 28.224 101.702 28.4122 101.702H29.2589V101.231H28.8356C28.7885 101.231 28.7885 101.184 28.7415 101.184C28.6474 101.09 28.6004 100.949 28.5533 100.808C28.5063 100.714 28.5063 100.573 28.5063 100.478V95.7274H29.1178V95.257H26.8599V95.7274H27.4714V100.008C27.4714 100.102 27.4714 100.196 27.4244 100.243C27.3303 100.573 27.0951 100.855 26.8128 101.043C26.7188 101.09 26.6247 101.09 26.5306 101.09C26.2483 101.137 25.9191 100.996 25.7309 100.761C25.6839 100.667 25.5898 100.62 25.5427 100.526C25.4957 100.431 25.4487 100.337 25.4487 100.243C25.4016 99.914 25.3546 99.5377 25.3546 99.2084V95.6804H25.9661V95.21H23.8022V95.6804H24.4138V95.9626V99.3966C24.3667 100.102 24.6019 100.808 25.0723 101.325C25.4016 101.607 25.872 101.796 26.3424 101.749C26.8128 101.749 27.2362 101.56 27.5184 101.231L27.5655 101.184V101.278C27.6125 101.325 27.6596 101.419 27.7066 101.466" fill="#A1A1A1"/>
<path fill-rule="evenodd" clip-rule="evenodd" d="M52.6852 100.949V101.137H52.6382C52.5441 101.184 52.497 101.184 52.403 101.184H52.2148V101.654H54.1905V101.184H53.7201C53.7201 101.09 53.673 100.949 53.673 100.854L53.1556 96.1975V95.7271C53.2026 95.7271 53.2497 95.68 53.2967 95.68H53.673V95.2096H52.45L50.8506 99.7726H50.7565L49.1572 95.1626H47.8871V95.633H48.4045V95.9623L47.746 100.902C47.746 100.996 47.746 101.09 47.6989 101.184H47.2285V101.654H48.7808V101.184H48.5927C48.4986 101.184 48.4045 101.184 48.3104 101.137V100.949L48.6868 97.4205H48.7808L50.3332 101.654H50.6154L52.1678 97.3735H52.2618L52.6852 100.949Z" fill="#A1A1A1"/>
<path fill-rule="evenodd" clip-rule="evenodd" d="M111.203 101.231H110.827V101.09V95.6328H111.439V95.1624H109.228V95.6328H109.792V98.0319H107.393V95.5858L108.005 95.5388V95.0684H105.841V95.5388H106.452V100.948C106.452 100.995 106.452 100.995 106.405 100.995H105.888V101.466H108.099V100.995H107.487V100.854V98.5964H109.886V100.995H109.322V101.466H111.533V100.995L111.203 101.231Z" fill="#A1A1A1"/>
<path fill-rule="evenodd" clip-rule="evenodd" d="M114.167 101.231H113.743V95.633H114.402V95.1626H112.144V95.633H112.756V101.137C112.567 101.184 112.332 101.184 112.144 101.184V101.654H114.402V101.184L114.167 101.231Z" fill="#A1A1A1"/>
<path fill-rule="evenodd" clip-rule="evenodd" d="M93.7983 96.3856C93.7983 96.4797 93.8454 96.5738 93.8454 96.6679V96.9972C93.8454 97.2794 93.7513 97.5617 93.6102 97.7969C93.5161 97.938 93.375 98.0321 93.2339 98.0791C93.0457 98.1261 92.9046 98.1732 92.7164 98.1732H92.4812V95.68H92.7164C92.8575 95.68 92.9987 95.68 93.1398 95.7271C93.375 95.7741 93.5631 95.9152 93.7043 96.1034C93.7043 96.1975 93.7043 96.2916 93.7983 96.3856ZM92.9516 98.7847C93.1398 98.9729 93.3279 99.2081 93.422 99.4903C93.5161 99.7255 93.5631 99.9607 93.6102 100.196L93.7983 100.996C93.7983 101.09 93.8454 101.184 93.8924 101.278C93.8924 101.325 93.9395 101.372 93.9395 101.419C94.0806 101.607 94.2688 101.701 94.504 101.701H95.4448V101.231H95.3507C95.2096 101.231 95.1155 101.184 94.9744 101.137C94.9273 101.137 94.8803 101.09 94.8803 101.043L94.8332 100.949C94.7862 100.807 94.7392 100.713 94.6921 100.572L94.504 99.8666L94.3628 99.3492C94.3158 99.2081 94.2688 99.0199 94.1747 98.8788C94.1276 98.7377 94.0336 98.5965 93.8924 98.5025H93.9395C94.2688 98.3143 94.504 97.985 94.6451 97.6087C94.7392 97.3735 94.7392 97.1383 94.7392 96.9031C94.7392 96.5738 94.6451 96.2445 94.504 95.9152C94.2217 95.5389 93.7983 95.2567 93.3279 95.2096C93.1398 95.1626 92.9046 95.1626 92.7164 95.1626H90.8348V95.633H91.3522V95.7271V101.137C91.1641 101.184 90.9289 101.184 90.7407 101.184V101.654H92.8575V101.184H92.3401V98.7377H92.7164L92.9516 98.7847Z" fill="#A1A1A1"/>
<path fill-rule="evenodd" clip-rule="evenodd" d="M21.2623 100.949C21.0742 101.043 20.839 101.137 20.6038 101.137H20.5097V95.7741H20.5567C20.839 95.7741 21.1212 95.8682 21.3564 96.0093C21.6387 96.1505 21.8268 96.3857 21.9679 96.6679C22.062 96.8561 22.1561 97.0442 22.2031 97.2794C22.2502 97.5146 22.2972 97.7028 22.3443 97.938V98.6436C22.3443 98.9729 22.2972 99.3022 22.2502 99.6314C22.062 100.149 21.7327 100.619 21.2623 100.949ZM19.0985 95.586H19.4748V101.137H18.8633V101.607H20.6508C21.4505 101.607 22.2031 101.278 22.6736 100.666C22.7676 100.525 22.8617 100.337 22.9558 100.196C23.238 99.6314 23.3792 99.0199 23.3321 98.4084C23.3321 97.7969 23.238 97.2324 23.0499 96.6679C22.9558 96.3857 22.7676 96.1034 22.5795 95.8682C22.3443 95.633 22.062 95.3978 21.7798 95.2567C21.5916 95.1626 21.3564 95.1156 21.1212 95.0685C20.886 95.0215 20.6508 95.0215 20.4156 95.0215H18.8633V95.4919L19.0985 95.586Z" fill="#A1A1A1"/>
<path fill-rule="evenodd" clip-rule="evenodd" d="M64.7748 97.2324C64.8218 97.4205 64.8688 97.6557 64.9159 97.8909C64.9629 98.1261 64.9629 98.3613 64.9629 98.5965C64.9629 98.8788 64.9629 99.114 64.9159 99.3962C64.8688 99.9137 64.6336 100.384 64.2573 100.713C64.1162 100.902 63.928 100.996 63.6928 101.09C63.5047 101.137 63.3636 101.184 63.1754 101.184H63.0813V95.7271H63.1283C63.5047 95.7271 63.881 95.9152 64.1632 96.1975C64.3044 96.3386 64.3984 96.4797 64.4925 96.6679C64.5866 96.856 64.6807 97.0442 64.7748 97.2324ZM65.2922 96.1975C65.057 95.8682 64.6807 95.586 64.3044 95.3978C64.1162 95.3037 63.881 95.2567 63.6458 95.2096C63.4106 95.1626 63.1754 95.1626 62.9402 95.1626H61.4819V95.633H61.9994V101.137H61.529V101.607H63.2224C64.0221 101.607 64.7748 101.278 65.2452 100.666C65.3392 100.525 65.4333 100.337 65.5274 100.196C65.8097 99.6314 65.9508 99.0199 65.9508 98.4084C65.9978 97.5617 65.7626 96.762 65.3392 96.0564" fill="#A1A1A1"/>
<path fill-rule="evenodd" clip-rule="evenodd" d="M57.1072 98.8788L57.6717 97.1853H57.7658L58.3303 98.8788H57.1072ZM59.0359 101.231H58.7066V101.701H60.7293V101.231H60.4471C60.3059 101.231 60.2119 101.137 60.1648 101.043L60.1178 100.949C60.0707 100.854 60.0707 100.76 60.0237 100.666L58.1421 95.1626H57.7658L55.8842 100.854C55.8842 100.902 55.8841 100.996 55.8371 101.043L55.743 101.231H55.2256V101.701H56.7779V101.231H56.3546L56.919 99.4903H58.4714L58.9888 101.043C58.9888 101.09 59.0359 101.137 59.0359 101.231Z" fill="#A1A1A1"/>
<path fill-rule="evenodd" clip-rule="evenodd" d="M68.4908 99.3495L68.9142 98.0323H69.0083L69.4316 99.3495H68.4908ZM71.1251 101.184C71.078 101.184 70.984 101.137 70.9369 101.09C70.8899 100.996 70.8428 100.855 70.8428 100.761L69.2905 96.1978H68.9612L67.4089 100.949C67.3618 101.043 67.3619 101.137 67.3148 101.231H66.7974V101.701H68.2086V101.231H67.8793L68.3027 99.9139H69.6198L69.9961 101.043L70.0431 101.231H69.7139V101.701H71.4073V101.231H71.3132C71.2192 101.231 71.1721 101.184 71.1251 101.184Z" fill="#A1A1A1"/>
<path fill-rule="evenodd" clip-rule="evenodd" d="M33.681 100.714C33.681 100.808 33.634 100.855 33.5869 100.902L33.4929 100.996C33.4458 101.043 33.3517 101.09 33.2577 101.09H31.8935V95.5861H32.505V95.1157H30.2471V95.5861H30.8586V95.8213V101.09H30.2471V101.56H34.1985V99.7257H33.7751V99.9138C33.7751 100.102 33.7751 100.337 33.681 100.525" fill="#A1A1A1"/>
<path fill-rule="evenodd" clip-rule="evenodd" d="M75.1704 100.667V100.902C75.1704 100.949 75.1234 100.996 75.1234 101.043L75.0763 101.137C75.0293 101.184 74.9822 101.184 74.8882 101.231H73.7592V96.6682H74.2766V96.1978H72.395V96.6682H72.8184V101.184H72.395V101.654H75.6408V100.102H75.1704V100.29C75.2174 100.431 75.2174 100.525 75.1704 100.667Z" fill="#A1A1A1"/>
<path fill-rule="evenodd" clip-rule="evenodd" d="M7.99704 98.4087L8.98489 95.6803H9.07897L10.0668 98.4087H7.99704ZM12.654 101.231C12.56 101.231 12.4659 101.184 12.4188 101.137C12.3718 101.137 12.3248 101.09 12.3248 101.043C12.2777 100.996 12.2307 100.949 12.2307 100.902L12.1366 100.667C12.0896 100.573 12.0896 100.478 12.0425 100.431L9.31417 92.8579L6.53879 100.62C6.49175 100.761 6.44471 100.949 6.35063 101.09L6.30358 101.137C6.2095 101.137 6.16246 101.184 6.06838 101.184H5.64502V101.654H7.57368V101.184H7.00919L7.10327 100.902L7.76184 99.0202H10.255L10.9135 100.902C10.9135 100.949 10.9606 100.996 10.9606 101.043C10.9606 101.09 11.0076 101.137 11.0076 101.231C10.9135 101.231 10.8195 101.278 10.7254 101.278H10.5372V101.749H12.9363V101.278H12.8422C12.7481 101.278 12.7011 101.278 12.654 101.231Z" fill="#A1A1A1"/>
<path d="M39.3728 78.9336H38.0557V80.0155H39.3728V78.9336Z" fill="#A1A1A1"/>
<path fill-rule="evenodd" clip-rule="evenodd" d="M38.9495 85.7544C38.8084 85.7544 38.6673 85.7074 38.5261 85.6604C38.385 85.6133 38.2439 85.5663 38.1028 85.4722C38.0087 85.4252 37.9146 85.3781 37.8676 85.284C37.6794 85.0959 37.5853 84.8607 37.5853 84.5784C37.5383 84.4373 37.5383 84.2492 37.5383 84.108C37.5383 83.9199 37.5383 83.6847 37.5853 83.4965C37.6324 83.2613 37.7264 83.0261 37.8205 82.8379C38.0557 82.4616 38.4791 82.1794 38.9025 82.0853C39.1847 82.0383 39.4199 81.9912 39.7021 81.9912H39.8433C40.0314 81.9912 40.2196 81.9912 40.4078 82.0383C40.5489 82.0853 40.737 82.1323 40.8782 82.1794C41.1604 82.2735 41.3486 82.4616 41.5367 82.6968C41.819 83.1202 41.9601 83.5906 41.9601 84.108C41.9601 84.3903 41.913 84.6255 41.866 84.9077C41.7249 85.284 41.4426 85.5663 41.0663 85.7074C40.643 85.8485 40.2196 85.9426 39.7962 85.8956C39.514 85.8956 39.2788 85.8956 38.9965 85.8485M47.1345 84.2962V78.9336H45.0177V79.5922H45.3C45.394 79.5922 45.4411 79.5922 45.5352 79.6392C45.8174 79.8274 45.9585 80.1566 45.9585 80.4859V84.8136C45.9585 84.9548 45.9115 85.0959 45.8644 85.237C45.8174 85.3781 45.7233 85.4722 45.6292 85.5663C45.4411 85.7074 45.2529 85.8015 45.0177 85.8485H42.7598C43.1361 85.3311 43.3243 84.7196 43.2772 84.108C43.2772 83.3554 42.995 82.6027 42.4775 82.0383C42.3364 81.8971 42.1482 81.756 41.9601 81.6149C41.7719 81.4738 41.5367 81.3797 41.3015 81.3326C41.0663 81.2856 40.8311 81.2386 40.5489 81.1915H38.9965C38.7143 81.1915 38.4791 81.2386 38.1969 81.2856C37.9616 81.3327 37.7265 81.4267 37.5383 81.5208C37.3031 81.6149 37.0679 81.8031 36.8797 81.9912C36.7386 82.1323 36.6445 82.2735 36.5504 82.4146C36.2212 82.885 36.08 83.4965 36.08 84.061C36.08 84.6725 36.2682 85.284 36.6445 85.8015H33.5399V81.1445H31.423V81.8031H31.7053C31.7994 81.8031 31.8464 81.8031 31.9405 81.8501C32.2227 82.0383 32.3638 82.3675 32.3638 82.6968V85.5663C32.3638 85.9896 32.3168 86.366 32.2698 86.7893C32.2227 86.9775 32.1286 87.1186 32.0346 87.2597C31.7523 87.542 31.329 87.6361 30.9526 87.542L31.2349 88.2476H31.5642C32.0816 88.2476 32.552 88.1065 32.9283 87.7301C33.1635 87.4949 33.3047 87.1657 33.3987 86.8364H45.2529C45.5352 86.8364 45.8644 86.7423 46.0996 86.5541C46.3819 86.366 46.6171 86.0837 46.7112 85.7544C46.7582 85.6133 46.8052 85.4252 46.8523 85.284C46.8993 85.1429 46.8993 84.9548 46.8993 84.7666C47.1345 84.6725 47.1345 84.4844 47.1345 84.2962Z" fill="#A1A1A1"/>
<path d="M41.3957 78.9336H40.0786V80.0155H41.3957V78.9336Z" fill="#A1A1A1"/>
<path d="M101.607 87.2598H100.29V88.2476H101.607V87.2598Z" fill="#A1A1A1"/>
<path d="M12.1365 87.2598H10.8193V88.2476H12.1365V87.2598Z" fill="#A1A1A1"/>
<path d="M10.1609 87.2598H8.84375V88.2476H10.1609V87.2598Z" fill="#A1A1A1"/>
<path d="M26.5779 78.9336H25.2607V80.0155H26.5779V78.9336Z" fill="#A1A1A1"/>
<path d="M24.6023 78.9336H23.2852V80.0155H24.6023V78.9336Z" fill="#A1A1A1"/>
<path d="M28.6003 78.9336H27.2832V80.0155H28.6003V78.9336Z" fill="#A1A1A1"/>
<path fill-rule="evenodd" clip-rule="evenodd" d="M19.0984 86.8366H21.3093C21.6386 86.8366 21.9679 86.7425 22.2971 86.6014C22.4853 86.5073 22.6735 86.3662 22.7676 86.178C22.8616 86.3191 23.0028 86.4132 23.1439 86.5073C23.285 86.6014 23.4732 86.6955 23.6613 86.7425C23.8495 86.7895 24.0847 86.8366 24.2728 86.8366C24.461 86.8366 24.6492 86.8366 24.8373 86.7895C25.0255 86.7425 25.2607 86.6955 25.4489 86.6014C25.7311 86.4603 25.9663 86.2721 26.1545 85.9899C26.2956 86.178 26.4837 86.3662 26.6719 86.4603C27.0012 86.6955 27.3775 86.8366 27.8009 86.7895C28.3654 86.8366 28.8828 86.6484 29.3062 86.3191C29.5884 86.0839 29.8236 85.7547 29.9177 85.3783L30.0588 84.8139C30.1059 84.6257 30.1059 84.3905 30.1059 84.2023V81.1447H27.989V81.8033H28.2713C28.3654 81.8033 28.4124 81.8033 28.5065 81.8503C28.7887 82.0385 28.9298 82.3678 28.9298 82.697V84.7198C28.8828 84.9079 28.8358 85.049 28.7887 85.2372C28.7417 85.3313 28.6946 85.3783 28.6476 85.4724C28.6006 85.5665 28.5065 85.6135 28.4594 85.6606C28.4124 85.7076 28.3183 85.7547 28.2242 85.8017C27.989 85.8487 27.8009 85.8487 27.5657 85.8017C27.2364 85.7076 26.9541 85.4724 26.766 85.1902C26.7189 85.1431 26.6719 85.0491 26.6719 84.955V81.1917H24.5551V81.8503H24.8373C24.9314 81.8503 25.0255 81.8503 25.0725 81.8973C25.3548 82.0855 25.4959 82.4148 25.4959 82.7441V83.9201C25.4959 84.2494 25.4959 84.5786 25.4018 84.9079C25.3548 85.0491 25.3077 85.1902 25.2607 85.2843C25.1666 85.4724 25.0255 85.6135 24.8844 85.7076C24.7432 85.8017 24.508 85.8958 24.3199 85.8487C24.0847 85.8487 23.8495 85.8017 23.6613 85.6606C23.4732 85.5195 23.332 85.3783 23.238 85.1902C23.238 85.0961 23.1909 85.0491 23.1439 84.955V81.1917H21.0271V81.8503H21.3093C21.4034 81.8503 21.4504 81.8503 21.5445 81.8973C21.8267 82.0855 21.9679 82.4148 21.9679 82.7441V85.0491C21.9679 85.1431 21.9679 85.2843 21.9208 85.3783C21.9208 85.4724 21.8738 85.5665 21.8267 85.6606C21.7327 85.8017 21.5915 85.8958 21.4504 85.8958H19.4277C19.3336 85.8958 19.2395 85.8487 19.1925 85.8017C19.0514 85.7076 18.9102 85.5665 18.8162 85.4254C18.7691 85.3313 18.7221 85.2843 18.675 85.1902C18.581 85.002 18.4869 84.8138 18.4398 84.6257C18.2517 84.1553 18.0165 83.6378 17.8283 83.1674L17.7342 82.9322C17.6402 82.697 17.5461 82.5089 17.452 82.2737C17.3579 82.1796 17.2638 82.0385 17.1697 81.9444C17.0757 81.8033 16.9816 81.7092 16.8875 81.6151C16.7464 81.474 16.5582 81.3799 16.323 81.3329C16.0878 81.2858 15.8997 81.2388 15.6645 81.2388H13.1243C12.5127 81.2858 12.0423 81.7562 11.9953 82.3678V82.65C11.9953 82.7441 12.0423 82.8382 12.0894 82.9322C12.2775 83.3556 12.4187 83.7319 12.6068 84.1553C12.748 84.5786 12.8891 84.955 13.0772 85.3313C13.1243 85.5195 13.2184 85.7076 13.3124 85.8487H7.76167C7.62055 85.8487 7.47943 85.8017 7.33831 85.7076C7.29127 85.6606 7.19719 85.6135 7.15015 85.5195C7.10311 85.4254 7.05607 85.3783 7.00902 85.2843C6.96198 85.1902 6.91494 85.0491 6.91494 84.955C6.91494 84.8609 6.91494 84.7198 6.8679 84.6257V82.65C6.8679 82.3207 7.00902 82.0385 7.24423 81.8503C7.33831 81.8033 7.43239 81.7562 7.52647 81.7562H7.80871V81.0977H5.69189V84.6257C5.69189 84.8138 5.73893 85.002 5.78598 85.1902C5.83302 85.3783 5.88006 85.5665 5.97414 85.7547C6.06822 85.9428 6.20934 86.131 6.35046 86.3191C6.53862 86.4603 6.72678 86.6014 6.96198 86.6955C7.19719 86.7895 7.47943 86.8366 7.76167 86.7895H15.9937L15.8056 86.0839H15.6174C15.5704 86.0839 15.4763 86.0839 15.4293 86.0369C15.2411 85.9899 15.0529 85.8487 14.9588 85.7076C14.8648 85.5665 14.7707 85.4724 14.6766 85.3313C14.5825 85.1902 14.4884 85.002 14.4414 84.8609C14.1592 84.1082 13.8299 83.4026 13.5476 82.65V82.4148C13.5476 82.3677 13.5476 82.2737 13.5947 82.2266C13.6888 82.0855 13.8769 81.9914 14.0651 81.9914C14.2062 81.9444 14.3473 81.9444 14.4884 81.9444H14.7707C15.0529 81.9444 15.3352 81.9914 15.6174 82.1326C15.6645 82.1796 15.7585 82.2266 15.8056 82.2737L15.9467 82.4148C16.0408 82.5089 16.0878 82.65 16.1349 82.7441C16.1819 82.8852 16.2289 83.0263 16.323 83.1204L16.3701 83.2615C16.4641 83.5438 16.6053 83.826 16.6993 84.1082C16.8405 84.5316 17.0286 84.9079 17.1697 85.3313C17.2638 85.5195 17.3579 85.7076 17.452 85.8958C17.499 85.9899 17.5461 86.0839 17.6402 86.178L17.9224 86.4603C18.0635 86.6014 18.2987 86.6955 18.4869 86.7425C18.581 86.7425 18.7221 86.7895 18.8162 86.7895L19.0984 86.8366Z" fill="#A1A1A1"/>
<path fill-rule="evenodd" clip-rule="evenodd" d="M48.6869 86.0367V86.1308H48.1224V86.7893H50.5685V86.1308H49.91V78.9336H47.7461V79.5922H48.0283C48.1224 79.5922 48.1695 79.5922 48.2635 79.6392C48.5458 79.8274 48.6869 80.1566 48.6869 80.4859V86.0367Z" fill="#A1A1A1"/>
<path fill-rule="evenodd" clip-rule="evenodd" d="M67.7382 86.4133C67.55 86.8367 67.2207 87.166 66.7973 87.3541C66.5621 87.4482 66.3269 87.4953 66.0917 87.4953C65.8565 87.4953 65.6684 87.4482 65.4332 87.4012C65.198 87.3071 65.0098 87.213 64.8217 87.0249C64.6805 86.8837 64.5394 86.6956 64.4453 86.5074C64.3512 86.2722 64.2572 86.037 64.2101 85.8018C64.116 85.4255 64.069 85.0962 64.069 84.7199C64.069 84.0143 64.2101 83.3087 64.5864 82.6972C64.7746 82.4149 65.0569 82.1797 65.3861 82.0856C65.4802 82.0386 65.6213 82.0386 65.7154 81.9915H66.421C66.7503 82.0386 67.0796 82.1797 67.3618 82.4149C67.5029 82.556 67.6441 82.7442 67.7382 82.9324C67.8322 83.1676 67.9263 83.4028 67.9734 83.638C68.1145 84.3436 68.1145 85.0962 67.9734 85.8018C67.8793 85.99 67.8322 86.2252 67.7382 86.4133ZM80.1568 85.5196C80.0157 85.6137 79.8746 85.6607 79.7334 85.7548C79.4982 85.8018 79.3101 85.8489 79.0749 85.8489H72.3481V84.0143C72.3481 83.732 72.3951 83.4968 72.4422 83.2146C72.5833 82.6971 72.9126 82.2738 73.43 82.0856C73.6652 81.9915 73.9475 81.9445 74.1827 81.9445H78.9808C79.169 81.9445 79.3101 81.9445 79.4982 81.9915C79.7334 82.0386 79.9686 82.1327 80.1568 82.2738C80.2509 82.3679 80.345 82.462 80.4391 82.6031C80.7213 83.0264 80.8624 83.4968 80.8154 84.0143V84.4847C80.7683 84.6258 80.7213 84.814 80.6743 84.9551C80.5331 85.1433 80.345 85.3314 80.1568 85.5196ZM85.4253 84.2965V78.981H83.3085V79.6395H83.5908C83.6848 79.6395 83.7319 79.6395 83.826 79.6866C84.1082 79.8747 84.2493 80.204 84.2493 80.5333V84.861C84.2493 85.0021 84.2023 85.1433 84.1552 85.2844C84.1082 85.4255 84.0141 85.5196 83.92 85.6137C83.7319 85.7548 83.5437 85.8489 83.3085 85.8959H81.568C81.6621 85.7548 81.7562 85.5666 81.8503 85.4255C82.0384 85.0492 82.1325 84.5788 82.1325 84.1554C82.1325 83.8261 82.0855 83.4968 81.9914 83.1676C81.8503 82.6031 81.4739 82.0856 81.0035 81.7563C80.8154 81.6152 80.6272 81.5211 80.392 81.4741C80.1568 81.38 79.9686 81.333 79.7334 81.333C79.4982 81.2859 79.263 81.2859 79.0278 81.2859H74.0886C73.4771 81.2859 72.9126 81.4271 72.3951 81.7093V81.2859H70.2783V81.9445H70.5606C70.6547 81.9445 70.7017 81.9445 70.7958 81.9915C71.078 82.1797 71.2191 82.509 71.2191 82.8383V85.9429H69.1964C69.2905 85.5666 69.3375 85.1903 69.3375 84.814C69.3375 84.2024 69.1964 83.638 68.9612 83.0735C68.8671 82.8383 68.726 82.6501 68.5849 82.4619C68.3026 82.0856 67.9734 81.8034 67.55 81.6152C66.8914 81.333 66.1388 81.2859 65.4332 81.38C65.198 81.4271 64.9628 81.4741 64.7276 81.5682C64.2572 81.7563 63.8338 82.0856 63.5516 82.509C63.4575 82.6501 63.3634 82.7912 63.2693 82.9794C62.9871 83.5909 62.846 84.2024 62.7989 84.861C62.7989 85.2373 62.846 85.6137 62.94 85.99H61.8581C61.6229 85.99 61.3877 85.8959 61.1995 85.7548C61.1055 85.6137 61.0114 85.4255 60.9173 85.2844C60.8232 85.0962 60.7291 84.9081 60.6821 84.7199L60.3999 84.0143L59.9765 83.0264C59.8354 82.6971 59.6942 82.3679 59.5061 82.0386C59.412 81.8975 59.3179 81.8034 59.2238 81.7093C59.0827 81.5682 58.8946 81.4741 58.6594 81.4271C58.4242 81.38 58.236 81.333 58.0008 81.333H52.5441V83.1676H53.1556V82.8853C53.1556 82.6031 53.3438 82.3208 53.579 82.1797C53.6731 82.1327 53.8142 82.1327 53.9083 82.1327H57.0129C57.2011 82.1327 57.3422 82.1327 57.5304 82.1797C57.7186 82.2267 57.9067 82.3208 58.0478 82.4149C58.283 82.6501 58.4712 82.9794 58.5653 83.3087C58.6594 83.5439 58.7534 83.732 58.8475 83.9672L59.0357 84.4847L59.2709 85.0492C59.365 85.2844 59.6002 85.8489 59.6942 86.037H52.4971V87.0249H63.4104C63.9749 87.9186 64.9628 88.4831 66.0447 88.4361C66.7503 88.4361 67.4559 88.2009 68.0204 87.7775C68.3026 87.5423 68.5378 87.3071 68.726 86.9778H83.6848C83.9671 86.9778 84.2964 86.8837 84.5316 86.6956C84.8138 86.5074 85.049 86.2252 85.1431 85.8959C85.1901 85.7548 85.2372 85.5666 85.2842 85.4255C85.3313 85.2844 85.3313 85.0962 85.3783 84.908C85.3783 84.6728 85.4253 84.4847 85.4253 84.2965Z" fill="#A1A1A1"/>
<path fill-rule="evenodd" clip-rule="evenodd" d="M87.0245 86.1311H86.4129V86.7897H88.859V86.1311H88.2946V78.981H86.1777V79.6395H86.4129C86.507 79.6395 86.5541 79.6395 86.6481 79.6866C86.9304 79.8747 87.0715 80.204 87.0715 80.5333L87.0245 86.1311Z" fill="#A1A1A1"/>
<path fill-rule="evenodd" clip-rule="evenodd" d="M102.924 86.2723C103.018 86.4134 103.159 86.5545 103.301 86.6486C103.536 86.7897 103.818 86.8367 104.1 86.8367H114.308V85.8489H109.745C109.557 85.8489 109.369 85.8489 109.181 85.7548C108.71 85.6607 108.334 85.3315 108.193 84.9081C108.146 84.767 108.099 84.6259 108.099 84.4847V84.0143C108.052 83.5439 108.193 83.0735 108.428 82.6502C108.522 82.509 108.616 82.3679 108.757 82.2738C108.898 82.1327 109.086 82.0386 109.275 81.9916C109.463 81.9445 109.698 81.8975 109.886 81.8975H112.991C113.273 81.8975 113.555 82.0857 113.696 82.3209C113.743 82.415 113.743 82.5561 113.743 82.6502V82.9324H114.355V81.0978H109.745C108.851 81.0037 107.958 81.333 107.346 81.9916C106.876 82.509 106.64 83.2146 106.687 83.9202C106.687 84.4847 106.829 85.0962 107.158 85.5667L107.252 85.7078H104.147C104.006 85.7078 103.818 85.6607 103.724 85.5196C103.677 85.4726 103.63 85.3785 103.583 85.3315C103.536 85.2844 103.489 85.1903 103.489 85.0962V81.0978H101.372V81.7564H101.654C101.748 81.7564 101.795 81.7564 101.889 81.8034C102.172 81.9916 102.313 82.3209 102.313 82.6502V85.0962C102.313 85.4255 102.077 85.7078 101.748 85.7548H100.102C99.8666 85.7548 99.6314 85.6607 99.4432 85.5196C99.3491 85.3785 99.255 85.1903 99.161 85.0492C99.0669 84.8611 98.9728 84.6729 98.9258 84.4847L98.6435 83.7791L98.2201 82.7913C98.079 82.462 97.9379 82.1327 97.7497 81.8034C97.5616 81.4741 97.2793 81.2389 96.903 81.1449C96.6678 81.0978 96.4797 81.0508 96.2445 81.0508H90.7878V82.8854H91.3993V82.6031C91.3993 82.3209 91.5875 82.0386 91.8227 81.8975C91.9167 81.8505 92.0579 81.8505 92.1519 81.8505H95.2566C95.4448 81.8505 95.5859 81.8505 95.774 81.8975C95.9622 81.9445 96.1504 82.0386 96.2915 82.1327C96.5267 82.3679 96.7149 82.6972 96.8089 83.0265C96.903 83.2617 96.9971 83.4498 97.0912 83.685L97.2793 84.2025L97.5145 84.767C97.6086 85.0022 97.8438 85.5667 97.9379 85.7548H90.7407V86.7427H101.748C102.172 86.7427 102.595 86.5545 102.877 86.2252L102.924 86.2723Z" fill="#A1A1A1"/>
<path fill-rule="evenodd" clip-rule="evenodd" d="M57.5303 23.6143L59.9764 25.7781L62.3754 23.6143H57.5303Z" fill="#A1A1A1"/>
<path fill-rule="evenodd" clip-rule="evenodd" d="M73.242 43.3713C73.7595 43.9828 74.2299 44.5944 74.7944 45.1589C75.3588 45.7233 75.7822 46.1937 76.4408 46.8523L74.7473 42.1953L73.1479 43.1832L73.242 43.3713Z" fill="#A1A1A1"/>
<path fill-rule="evenodd" clip-rule="evenodd" d="M62.6106 31.5172C62.8458 31.9876 63.081 32.458 63.2692 32.9284C63.6455 33.8222 64.0689 34.6689 64.4452 35.5626C64.6334 36.033 64.8686 36.5035 65.1038 36.9268C65.5271 37.7735 65.9035 38.6203 66.2327 39.467C66.515 40.2196 66.8443 40.9252 67.0795 41.6779C67.3617 42.4776 67.644 43.3243 67.8321 44.171C67.9262 44.5944 67.9732 44.9707 67.9732 45.3941C68.4907 45.6763 68.9611 46.0526 69.3844 46.429L70.6545 47.6991C71.5483 48.734 72.395 49.8159 73.1947 50.9449L79.1688 50.3804L78.7925 50.0981C77.1461 48.8751 75.5938 47.4639 74.2296 45.9586C72.6773 44.2651 71.3131 42.4305 70.0901 40.5019C68.867 38.5262 67.7851 36.5035 66.7972 34.3866C65.7623 32.0346 64.8215 29.5885 64.0689 27.1424C63.7396 26.1546 63.5044 25.1197 63.2222 24.1318L60.4468 26.625V28.977C61.3405 29.6356 62.0932 30.5293 62.6106 31.5172Z" fill="#A1A1A1"/>
<path fill-rule="evenodd" clip-rule="evenodd" d="M70.4665 30.9995C71.031 30.9995 71.5955 31.2347 72.0188 31.658C72.4893 32.1284 72.7245 32.6929 72.7245 33.3515V42.2891L74.4649 41.2072V31.5169C74.4649 30.8583 74.2297 30.2468 73.7593 29.7764C73.2889 29.306 72.7244 29.0708 72.0659 29.0708H67.9734L66.7974 30.9995H70.4665Z" fill="#A1A1A1"/>
<path fill-rule="evenodd" clip-rule="evenodd" d="M66.2328 30.0589L67.0325 28.7418L65.4331 27.6128L66.2328 30.0589Z" fill="#A1A1A1"/>
<path fill-rule="evenodd" clip-rule="evenodd" d="M73.3828 57.6714L79.2158 51.415L73.3828 51.9795V57.6714Z" fill="#A1A1A1"/>
<path fill-rule="evenodd" clip-rule="evenodd" d="M75.8289 56.4014L73.1006 59.412L74.7 60.0235L76.0641 56.5425L75.8289 56.4014Z" fill="#A1A1A1"/>
<path fill-rule="evenodd" clip-rule="evenodd" d="M66.3742 62.7987C66.3742 63.128 66.3272 63.4103 66.2801 63.7395L66.186 64.1629L67.7384 62.9399L66.2331 61.5757L66.2801 62.0461C66.3272 62.2813 66.3742 62.5635 66.3742 62.7987Z" fill="#A1A1A1"/>
<path fill-rule="evenodd" clip-rule="evenodd" d="M73.8062 63.0339C73.2418 63.3161 72.6302 63.4572 72.0187 63.4572H68.6788L66.4209 65.2448H73.6651C74.5589 65.2448 75.4527 64.8684 76.1112 64.2569C76.8168 63.5513 77.2402 62.5635 77.2402 61.5756V56.9186L76.9579 56.8716L75.4056 60.87C75.3586 61.1523 75.2645 61.4345 75.1234 61.6697C74.8411 62.2812 74.3707 62.7516 73.8062 63.0339Z" fill="#A1A1A1"/>
<path fill-rule="evenodd" clip-rule="evenodd" d="M74.0416 61.5758C74.1357 61.4346 74.2297 61.2935 74.2768 61.1524L74.3709 61.0113L72.5833 60.3057C72.4893 60.3527 72.4422 60.4468 72.3481 60.4938C72.1129 60.5409 71.8777 60.5879 71.6425 60.5879H66.6562L68.726 62.4695H72.0189C72.7715 62.5166 73.5241 62.1873 74.0416 61.5758Z" fill="#A1A1A1"/>
<path fill-rule="evenodd" clip-rule="evenodd" d="M70.6074 49.2511C70.2781 48.8278 69.9018 48.4044 69.5255 47.9811C69.1021 47.5106 68.6317 47.0873 68.1613 46.711C67.9731 46.5698 67.785 46.4287 67.5968 46.3346C67.0794 46.6639 66.5619 46.8991 65.9504 46.9932C65.3859 47.1343 64.7744 47.2284 64.2099 47.2754L62.3283 47.4166C61.5286 47.4166 60.776 47.4636 59.9763 47.4636C58.7532 47.4636 57.4831 47.4166 56.2601 47.3225C55.3193 47.2284 54.3785 47.0873 53.4847 46.805C53.1084 46.6639 52.7321 46.5228 52.3557 46.2876C52.0265 46.4758 51.7442 46.6639 51.462 46.9462C50.5682 47.7929 49.7215 48.7337 48.9688 49.7215C48.4984 50.3801 47.981 51.0387 47.5576 51.6972V58.0007L48.1691 57.3891C48.5455 56.9658 48.8747 56.5424 49.157 56.119C49.4863 55.6486 49.8156 55.1312 50.1448 54.6608C50.9445 53.3907 51.6972 52.0265 52.4028 50.7094H67.3146C68.4435 52.8262 69.7136 54.896 71.1248 56.8246C71.5012 57.248 71.8775 57.6714 72.3009 58.0477V51.7443C71.8305 50.8505 71.266 50.0038 70.6074 49.2511Z" fill="#A1A1A1"/>
<path fill-rule="evenodd" clip-rule="evenodd" d="M40.6899 51.415L46.6641 57.6714V51.9795L40.6899 51.415Z" fill="#A1A1A1"/>
<path fill-rule="evenodd" clip-rule="evenodd" d="M46.9465 59.4118L44.2181 56.4482L43.9829 56.5894L45.3471 60.0233L46.9465 59.4118Z" fill="#A1A1A1"/>
<path fill-rule="evenodd" clip-rule="evenodd" d="M61.8581 61.952C62.5167 61.2464 63.1752 60.5407 63.7868 59.7881L64.022 59.5059H58.4712L58.9416 59.7881C59.412 60.0703 59.8354 60.3996 60.2587 60.7289C60.7762 61.1523 61.2466 61.5756 61.764 61.999L61.8581 61.952Z" fill="#A1A1A1"/>
<path fill-rule="evenodd" clip-rule="evenodd" d="M61.7171 65.386C61.3408 66.2798 60.7293 67.0795 59.9766 67.691C59.4121 68.1614 58.7065 68.4907 58.0009 68.6789C56.7308 69.0552 55.4137 69.1493 54.0966 68.9141L53.2969 68.7729L53.9554 69.1963C54.7551 69.7138 55.6959 70.0901 56.6367 70.2312C57.4835 70.3723 58.3302 70.3253 59.1299 70.1371C60.0236 69.949 60.8704 69.5726 61.6701 69.1022C62.6579 68.4437 63.5046 67.5969 64.1632 66.6091C64.8688 65.5272 65.2922 64.2571 65.3862 62.9399C65.4333 62.0462 65.2922 61.1524 65.0099 60.3057L64.9158 60.0234C64.0691 61.0583 63.2224 62.0462 62.2816 62.987C62.1405 63.7867 61.9523 64.5864 61.7171 65.386Z" fill="#A1A1A1"/>
<path fill-rule="evenodd" clip-rule="evenodd" d="M46.2408 63.0339C45.8174 62.7987 45.4881 62.4694 45.2059 62.0931C44.9236 61.7167 44.7355 61.2934 44.5943 60.823L43.042 56.8716L42.7598 56.9186V61.5756C42.7598 62.4694 43.089 63.3632 43.7006 64.0217C44.3591 64.7744 45.347 65.1977 46.3348 65.1977H56.5426L54.708 63.4102H47.9812C47.3697 63.5043 46.7582 63.3632 46.2408 63.0339Z" fill="#A1A1A1"/>
<path fill-rule="evenodd" clip-rule="evenodd" d="M57.295 64.257C57.3891 63.8336 57.4361 63.4103 57.4361 62.9869C57.3891 62.4695 57.295 61.9991 57.0598 61.5287L56.9657 61.2935L55.6016 62.9399L57.248 64.4922L57.295 64.257Z" fill="#A1A1A1"/>
<path fill-rule="evenodd" clip-rule="evenodd" d="M47.9812 62.4698H54.708L56.2604 60.5882H47.9342C47.746 60.5412 47.5579 60.4471 47.4168 60.353L45.6763 61.0116L45.7704 61.1527C45.9585 61.5761 46.3348 61.9524 46.7582 62.1406C46.9464 62.2346 47.1345 62.3287 47.3697 62.3758C47.5579 62.4698 47.746 62.4698 47.9812 62.4698Z" fill="#A1A1A1"/>
<path fill-rule="evenodd" clip-rule="evenodd" d="M60.7289 65.1982C60.87 64.8689 61.0112 64.4926 61.1052 64.1163C61.1993 63.7399 61.2464 63.3636 61.2934 62.9873C60.5408 62.2817 59.7881 61.6231 58.9414 61.0586C58.471 60.7294 58.0006 60.4471 57.4831 60.2119L57.8595 60.8705C58.1887 61.482 58.4239 62.1406 58.518 62.8462C58.6121 63.5988 58.518 64.3985 58.1887 65.1041C57.389 66.5153 56.0249 67.4561 54.4255 67.6913L53.5317 67.8795L54.4255 68.0206C54.8018 68.0677 55.1781 68.1147 55.5545 68.1147C56.213 68.1147 56.8716 68.0206 57.4831 67.8795C58.1417 67.6913 58.8003 67.4091 59.3647 66.9857C59.8822 66.4683 60.3526 65.8568 60.7289 65.1982Z" fill="#A1A1A1"/>
<path fill-rule="evenodd" clip-rule="evenodd" d="M54.4727 27.6128L52.9204 28.7418L53.7201 30.0119C53.9553 29.2592 54.2375 28.4125 54.4727 27.6128Z" fill="#A1A1A1"/>
<path fill-rule="evenodd" clip-rule="evenodd" d="M61.1995 38.8081C61.3877 39.4667 61.6229 40.1252 61.8581 40.7838C62.1403 41.5835 62.4696 42.4302 62.893 43.1829H56.9188C57.06 42.9477 57.2011 42.6654 57.2952 42.3832C57.3892 42.1009 57.6244 41.5835 57.7656 41.2072C58.6123 38.9022 59.3179 36.5502 59.8824 34.1982C60.3058 35.9386 60.6821 37.2087 61.1525 38.8552M55.2724 46.1934C56.8248 46.3816 58.3771 46.4757 59.9294 46.4757C61.4347 46.4757 62.94 46.4287 64.4453 46.2405C65.0098 46.1464 65.5743 46.0523 66.1388 45.8642C66.421 45.7701 66.7032 45.629 66.9384 45.4878C66.9384 45.1115 66.8914 44.6882 66.7973 44.3118C66.5621 43.2769 66.2328 42.2891 65.8565 41.3013C65.3391 39.9371 64.7746 38.62 64.1631 37.3028C63.9749 36.8795 63.7397 36.4561 63.5515 36.0327L62.4226 33.3985C62.1874 32.881 61.9522 32.4106 61.717 31.8932C61.5288 31.5169 61.2936 31.1876 61.0114 30.9053C60.6821 30.529 60.3528 30.1997 59.9294 29.9175L59.8353 30.0116C59.1297 30.529 58.5653 31.1876 58.1889 31.9402C57.9537 32.4106 57.7656 32.834 57.5304 33.3044L56.3544 35.9387C56.1662 36.4561 55.931 36.9265 55.6488 37.3969C55.2724 38.1966 54.8491 38.9963 54.5668 39.796C54.1435 40.7838 52.9204 43.8885 52.9204 45.2997V45.4408C53.2027 45.5819 53.4849 45.723 53.7671 45.8171C54.2375 46.0053 54.755 46.0994 55.2724 46.1934Z" fill="#A1A1A1"/>
<path fill-rule="evenodd" clip-rule="evenodd" d="M51.3681 45.7701C51.5092 45.629 51.6974 45.5349 51.8855 45.4408L51.9796 45.3938C51.9796 44.8763 52.0737 44.3589 52.2148 43.8414C52.3559 43.2299 52.5441 42.6184 52.7793 42.0068C53.2027 40.7838 53.6731 39.5607 54.1905 38.3847C54.3787 37.9143 54.6139 37.4439 54.8491 36.9735C55.0843 36.5502 55.2724 36.1268 55.4606 35.7034L56.5896 33.0692C56.8248 32.5517 57.06 32.0343 57.3422 31.5168C57.8597 30.529 58.6123 29.7293 59.5061 29.0707V26.7187L56.6837 24.2256C56.4485 25.2605 56.1662 26.3424 55.8369 27.3773C55.0372 29.9175 54.0964 32.4106 53.0145 34.8097C51.8855 37.2558 50.5684 39.6078 49.0631 41.8657C47.9812 43.5121 46.7111 45.0645 45.394 46.5227C44.1239 47.8399 42.7127 49.0629 41.2074 50.1448L40.8311 50.38L46.8993 50.9445C47.5108 50.0037 48.1694 49.1099 48.875 48.2632C49.2042 47.8399 49.5806 47.4165 49.9569 46.9931C50.4273 46.5698 50.8977 46.1464 51.3681 45.7701Z" fill="#A1A1A1"/>
<path fill-rule="evenodd" clip-rule="evenodd" d="M47.9814 28.1301H52.0739L55.0845 25.9192C55.1315 25.1195 55.1786 24.3669 55.1315 23.5672H54.1437L54.1907 23.332C54.3319 22.7675 54.6141 22.2501 54.9904 21.8267C55.3668 21.3563 55.8372 20.9329 56.3546 20.6036C58.4714 19.2865 61.1057 19.2395 63.2695 20.4155C63.834 20.6977 64.3044 21.0741 64.7278 21.5445C65.1982 22.0619 65.5745 22.6734 65.7627 23.332L65.8097 23.5672H64.6807V23.8024C64.6807 24.461 64.7278 25.1195 64.7748 25.7781L67.8795 28.0831H72.0661C72.9599 28.0831 73.8066 28.4594 74.4651 29.0709C75.1237 29.7295 75.5 30.6232 75.453 31.5641V41.4425L77.0053 45.5821L77.2876 45.535V30.0588C77.2876 28.6005 76.3938 27.2834 75.0296 26.7189C74.5122 26.5307 73.9947 26.4367 73.4303 26.4367H66.2331V25.3547H67.1739V24.555C67.1739 23.7554 67.0328 23.0027 66.7035 22.2971C66.4683 21.7326 66.092 21.2152 65.7156 20.7448C65.2452 20.2273 64.7278 19.804 64.1633 19.4276C62.8932 18.628 61.3879 18.2046 59.8826 18.2046C57.2484 18.2046 54.7552 19.6158 53.3911 21.8737C52.9207 22.7205 52.6854 23.6613 52.6854 24.6021V25.4018H53.6733V26.4837H46.0057C45.159 26.5307 44.3123 26.86 43.7478 27.5186C43.0892 28.2242 42.7129 29.165 42.7129 30.1058V45.3939L42.9951 45.441L44.5475 41.3485V31.5641C44.5475 30.6703 44.8767 29.7765 45.5353 29.165C46.1468 28.5064 47.0406 28.1301 47.9814 28.1301Z" fill="#A1A1A1"/>
<path fill-rule="evenodd" clip-rule="evenodd" d="M44.1241 46.2878C45.1119 45.3 46.0527 44.218 46.8994 43.1361L45.3001 42.1953L43.5596 46.8523L44.1241 46.2878Z" fill="#A1A1A1"/>
<path fill-rule="evenodd" clip-rule="evenodd" d="M49.5805 30.9995H53.2026L51.9795 29.0708H47.9811C47.3225 29.0708 46.711 29.306 46.2876 29.7764C45.8172 30.2468 45.582 30.8583 45.582 31.5169V41.1602L47.3225 42.1951V33.3985C47.2755 32.1284 48.2633 31.0465 49.5805 30.9995Z" fill="#A1A1A1"/>
</svg>
