<svg width="176" height="176" viewBox="0 0 176 176" fill="none" xmlns="http://www.w3.org/2000/svg">
<path d="M111.373 100.922H108.557V60.0898L104.959 56.6367H76.0954L61.0474 71.1954V80.6994L64.3914 84.1526H67.2813V100.876H61.952C61.6899 100.916 61.4532 101.055 61.2908 101.265C61.1283 101.475 61.0525 101.739 61.079 102.002V115.906L64.599 119.36H114.263C114.263 119.36 114.935 119.289 114.935 118.304V104.357L111.373 100.922Z" fill="white"/>
<path d="M62.3357 115.537H111.028V102.048H104.544V57.8828H76.4756L62.1914 71.7516V80.2771H68.6084V102.101H62.3709L62.3357 115.537Z" fill="#A1A1A1"/>
<path d="M101.323 69.3441V79.9041C101.323 79.9041 102.249 92.3931 86.5638 101.587C86.5638 101.587 72.695 94.6987 71.6777 80.3054V69.3441C71.6777 69.3441 85.3811 60.7377 101.323 69.3441Z" fill="white"/>
<path d="M98.9963 69.5517L73.0962 81.3824C72.9658 80.5166 72.8987 79.6425 72.8955 78.767V70.048C72.8955 70.048 85.1838 62.9235 98.9963 69.5587V69.5517Z" fill="white"/>
<path d="M79.7314 88.2535V94.9415C79.7314 94.9415 76.4402 91.5447 75.8594 89.9255L79.7314 88.1655V88.2535Z" fill="#A1A1A1"/>
<path d="M86.5464 85.0925V100.25L83.0264 97.8525V86.5638L86.5464 85.0186V85.0925Z" fill="#A1A1A1"/>
<path d="M93.3784 81.9489V95.0398L89.9253 98.0775V83.5118L93.3784 81.8926V81.9489Z" fill="#A1A1A1"/>
<path d="M100.197 78.8936L96.8706 80.3016V90.4638C96.8706 90.4638 100.158 86.2644 100.197 78.9041V78.8936Z" fill="#A1A1A1"/>
<path d="M98.669 73.6067V76.1481L96.205 77.2569V74.1488H95.7686L96.1874 73.4448L97.0041 73.0259V76.0988L97.8383 75.68V73.8812L98.669 73.6067Z" fill="#A1A1A1"/>
<path d="M98.6692 73.1879L97.8525 73.4589V72.6423L98.6692 72.3149V73.1879Z" fill="#A1A1A1"/>
<path d="M93.3784 78.5839L95.6171 77.5279V76.6549C95.6171 76.6549 95.5608 75.0745 93.653 75.7292V76.3839C93.653 76.3839 94.9413 75.9474 94.9413 77.0879L93.3784 77.7426V78.5769V78.5839Z" fill="#A1A1A1"/>
<path d="M92.8153 78.7671V76.9684C92.8153 76.9684 92.5443 76.1131 91.6537 76.6939L90.8899 77.1127V78.9291L90.0521 79.3479C90.0521 79.3479 89.2003 79.6999 89.2003 78.9959V77.8308L88.3801 78.394V79.1227C88.3801 79.1227 88.183 80.8827 90.0345 80.1963L91.5622 79.4923V77.5316C91.5578 77.4932 91.5616 77.4543 91.5733 77.4174C91.585 77.3806 91.6044 77.3466 91.6302 77.3177C91.6559 77.2889 91.6875 77.2658 91.7228 77.25C91.7581 77.2342 91.7963 77.226 91.835 77.226C91.8736 77.226 91.9119 77.2342 91.9472 77.25C91.9825 77.2658 92.0141 77.2889 92.0398 77.3177C92.0656 77.3466 92.0849 77.3806 92.0966 77.4174C92.1084 77.4543 92.1122 77.4932 92.1078 77.5316V79.0769L92.8153 78.7671Z" fill="#A1A1A1"/>
<path d="M91.2703 80.7841L90.4536 81.0587V80.2209L91.2703 79.8936V80.7841Z" fill="#A1A1A1"/>
<path d="M90.1825 81.2382L89.3623 81.5128V80.6926L90.1825 80.3652V81.2382Z" fill="#A1A1A1"/>
<path d="M87.1093 81.3823V77.5103L86.2715 77.9679L86.0005 78.6402H86.4194V81.7096L87.1093 81.3823Z" fill="#A1A1A1"/>
<path d="M85.7296 78.3306V81.1677C85.7296 81.1677 85.6908 82.5123 83.6387 82.9101V82.0758C83.6387 82.0758 85.0467 81.7485 85.0467 81.1114V78.6016L85.7296 78.3306Z" fill="#A1A1A1"/>
<path d="M84.4797 78.894V81.1116L83.6455 81.5481V79.1686L84.4797 78.894Z" fill="#A1A1A1"/>
<path d="M83.0719 80.7314V83.2553L77.7919 85.6911V82.5231H77.373L77.7004 81.9212L78.4994 81.5692V84.5858L80.8825 83.4946V82.9314C80.8825 82.9314 80.8649 82.0796 79.6646 82.8434L79.0626 83.1145L79.2809 82.4422C79.2809 82.4422 80.446 81.6783 81.1359 81.9142C81.8258 82.15 81.5548 83.206 81.5548 83.206L82.3186 82.8786V80.9884L83.0719 80.7314Z" fill="#A1A1A1"/>
<path d="M82.9841 80.2948L82.2202 80.5658V79.7668L82.9841 79.457V80.2948Z" fill="#A1A1A1"/>
<path d="M82.0759 80.6748L81.312 80.9599V80.1573L82.0759 79.8511V80.6748Z" fill="#A1A1A1"/>
<path d="M74.895 86.9653L77.1302 85.9093V85.0363C77.1302 85.0363 77.0774 83.4558 75.1696 84.1105V84.7653C75.1696 84.7653 76.4579 84.3288 76.4579 85.4693L74.895 86.124V86.9617V86.9653Z" fill="#A1A1A1"/>
<path d="M84.1457 71.0971C84.307 71.0971 84.4378 70.9505 84.4378 70.7697C84.4378 70.5889 84.307 70.4424 84.1457 70.4424C83.9843 70.4424 83.8535 70.5889 83.8535 70.7697C83.8535 70.9505 83.9843 71.0971 84.1457 71.0971Z" fill="#A1A1A1"/>
<path d="M82.2378 69.2984L82.3645 68.7176C82.3645 68.7176 84.2935 67.2603 84.8743 68.4782V69.6961L79.0205 72.3678V71.6955L80.5658 71.0619V70.4987C80.5658 70.4987 80.4567 69.9144 79.0205 70.8507V70.3051C79.0205 70.3051 80.1856 69.1963 81.0023 69.9953C81.122 70.2636 81.1717 70.5579 81.1466 70.8507L84.3146 69.3054V68.7598C84.3146 68.7598 84.2231 68.0875 82.2026 69.4321L82.2378 69.2984Z" fill="#A1A1A1"/>
<path d="M76.6763 71.3893C76.6763 71.3893 76.2574 73.0225 77.2043 73.0225C77.5119 73.0528 77.8205 72.9752 78.0773 72.8032C78.3341 72.6311 78.5232 72.3752 78.6123 72.0792V70.4424L76.6763 71.3893ZM78.0596 72.0405C78.0169 72.1807 77.926 72.3013 77.803 72.3812C77.68 72.461 77.5328 72.4949 77.3873 72.4769C76.9121 72.4769 77.1304 71.7131 77.1304 71.7131L78.0596 71.2801V72.0405Z" fill="#A1A1A1"/>
<path d="M77.2218 70.6782C77.3832 70.6782 77.514 70.5316 77.514 70.3508C77.514 70.17 77.3832 70.0234 77.2218 70.0234C77.0605 70.0234 76.9297 70.17 76.9297 70.3508C76.9297 70.5316 77.0605 70.6782 77.2218 70.6782Z" fill="#A1A1A1"/>
<path d="M77.8766 70.3681C78.038 70.3681 78.1688 70.2215 78.1688 70.0407C78.1688 69.8599 78.038 69.7134 77.8766 69.7134C77.7153 69.7134 77.5845 69.8599 77.5845 70.0407C77.5845 70.2215 77.7153 70.3681 77.8766 70.3681Z" fill="#A1A1A1"/>
<path d="M76.6763 78.767L90.091 72.5859C90.2596 72.4849 90.3847 72.3249 90.442 72.1369C90.4992 71.9489 90.4845 71.7464 90.4008 71.5686C90.363 71.4801 90.3074 71.4003 90.2376 71.3341C90.1678 71.2679 90.0851 71.2168 89.9947 71.1838C89.9043 71.1508 89.8081 71.1367 89.7121 71.1423C89.616 71.148 89.5222 71.1732 89.4363 71.2166L87.1623 72.3606C87.1623 72.3606 86.9652 72.4345 86.9652 72.2339V70.9244C86.9652 70.9244 86.8737 70.0902 85.7297 70.5443V67.2319L85.3108 67.3763V73.6489L85.7297 73.5046V71.3926C85.7297 71.3926 85.7297 71.1356 86.2014 71.1356C86.2014 71.1356 86.5288 71.1004 86.5288 71.3539V72.4275C86.5288 72.4275 86.5288 72.7795 87.0004 72.7795C87.4721 72.7795 89.5454 71.6707 89.5454 71.6707C89.5454 71.6707 89.8974 71.4911 89.8974 71.9452C89.8974 71.9452 89.9326 72.1635 88.7886 72.5999L76.6833 78.2319L76.6763 78.767Z" fill="#A1A1A1"/>
<path d="M84.146 71.498L83.09 71.931V72.4766C83.09 72.4766 83.9454 71.8219 84.308 72.0612V72.3499C83.8226 72.4588 83.3913 72.7356 83.09 73.1313V73.7121C83.09 73.7121 83.0161 74.2577 83.8539 74.2577C84.6916 74.2577 84.8712 73.332 84.8712 73.332V72.3147C84.8712 72.3675 84.924 71.498 84.1425 71.498H84.146ZM84.3467 73.4059V73.4763L84.3291 73.515L84.2939 73.5854L84.2552 73.6593L84.2024 73.7121L84.1284 73.7509L84.058 73.786H83.9665L83.8926 73.8036H83.8011L83.7659 73.786H83.7307L83.692 73.7332V73.6945L83.6744 73.6593V73.5854L83.6568 73.515V73.4235L83.6744 73.3883V73.2968L83.692 73.2405L84.396 72.9131L84.3467 73.4059Z" fill="#A1A1A1"/>
<path d="M82.6745 74.2401V71.0721C82.5985 71.0651 82.5218 71.0743 82.4496 71.0992C82.3773 71.1241 82.3112 71.164 82.2557 71.2164V72.3252C81.0941 72.635 81.0025 73.1419 81.0025 73.1419V74.0148C81.0025 74.5076 80.911 75.2327 81.5129 75.2327C82.7309 75.2715 82.6745 74.2331 82.6745 74.2331V74.2401ZM82.2381 74.5499C82.2381 74.5499 81.5657 75.0215 81.4038 74.6766V73.3143C81.5059 73.1887 81.6325 73.0851 81.7759 73.0101C81.9194 72.935 82.0766 72.89 82.2381 72.8779V74.5499Z" fill="#A1A1A1"/>
<path d="M80.492 75.2962V72.1282C80.4162 72.1212 80.3397 72.1308 80.268 72.1563C80.1963 72.1819 80.131 72.2227 80.0766 72.276V73.3848C78.9115 73.6911 78.82 74.2015 78.82 74.2015V75.0744C78.82 75.5637 78.732 76.2923 79.3304 76.2923C80.5659 76.3099 80.492 75.2927 80.492 75.2927V75.2962ZM80.0766 75.6024C80.0766 75.6024 79.4043 76.0776 79.2389 75.7327V74.3669C79.3419 74.2414 79.4692 74.1381 79.6131 74.0631C79.7571 73.988 79.9148 73.9429 80.0766 73.9304V75.6024Z" fill="#A1A1A1"/>
<path d="M77.2046 76.5316L78.331 75.8769C78.331 75.8769 78.602 74.4689 77.7114 74.4689C77.573 74.4641 77.4349 74.4875 77.3058 74.5378C77.1767 74.588 77.0591 74.6641 76.9603 74.7612C76.8615 74.8584 76.7836 74.9746 76.7311 75.1029C76.6787 75.2311 76.653 75.3687 76.6554 75.5073V76.8695C76.6559 76.9425 76.6709 77.0147 76.6996 77.0819C76.7282 77.149 76.77 77.2098 76.8225 77.2606C76.8749 77.3114 76.937 77.3512 77.005 77.3778C77.073 77.4043 77.1456 77.417 77.2186 77.4151C77.4266 77.4182 77.6323 77.3719 77.8189 77.2801C78.0055 77.1883 78.1677 77.0537 78.2922 76.8871V76.4154C78.2922 76.4154 77.363 76.961 77.1834 76.8519C76.9265 76.7041 77.201 76.5422 77.201 76.5422L77.2046 76.5316ZM77.7502 74.8948C78.0212 74.8948 77.9297 75.5143 77.9297 75.5143C77.7261 75.6892 77.5 75.836 77.2574 75.9508C77.1306 75.9508 77.113 75.5671 77.113 75.5671C77.113 75.0954 77.7502 74.8948 77.7502 74.8948Z" fill="#A1A1A1"/>
<path d="M74.4236 74.2722V72.7058C74.4236 72.7058 74.4588 72.2728 75.4796 71.9067L76.1343 71.6885V78.6018C76.1343 78.6018 76.173 79.2037 75.1733 79.4747C75.1733 79.4747 73.8991 80.0027 73.8991 79.1227V76.525C73.8991 76.525 73.8076 75.821 75.2613 75.5605V76.1413C75.2613 76.1413 74.3356 76.3595 74.3004 76.9051V78.7778C74.3119 78.8393 74.3379 78.8973 74.3763 78.9468C74.4147 78.9963 74.4644 79.036 74.5212 79.0624C74.5779 79.0889 74.6402 79.1015 74.7028 79.0992C74.7654 79.0968 74.8266 79.0795 74.8812 79.0488C75.3529 78.8517 75.7365 78.7602 75.7365 78.2674V72.4594C75.7365 72.4594 75.0325 72.4981 75.0325 72.9698V74.149L74.4236 74.2722Z" fill="#A1A1A1"/>
<path d="M69.1503 109.373H66.9327V108.391H67.4783V106.321H66.6616L67.3339 105.339H68.4603V108.416H69.1327V109.377L69.1503 109.373Z" fill="white"/>
<path d="M70.1322 109.373V106.304H69.0234V105.322H72.0788V106.304H70.97V109.356L70.1322 109.373Z" fill="white"/>
<path d="M73.624 109.373V106.304H72.5117V105.322H75.5812V106.304H74.4724V109.356L73.6205 109.373H73.624Z" fill="white"/>
<path d="M79.0381 109.373V105.339H79.904V106.867H81.1395V105.339H81.9773V109.373H81.1571V107.849H79.8864V109.373H79.0381Z" fill="white"/>
<path d="M76.1128 109.373V108.416H76.676V106.304H76.1128V105.339H78.2037V106.321H77.6581V108.416H78.2037V109.394L76.1128 109.373Z" fill="white"/>
<path d="M84.7474 105.339H84.1279L82.5122 109.373H83.4908L83.8005 108.669H85.0924L85.3458 109.373H86.4018L84.7474 105.339ZM84.1279 107.884L84.4024 106.959L84.7544 107.884H84.1279Z" fill="white"/>
<path d="M90.0344 107.247C90.0514 107.002 90.0174 106.755 89.9345 106.523C89.8515 106.291 89.7215 106.079 89.5525 105.9C89.3836 105.721 89.1794 105.578 88.9527 105.482C88.7261 105.385 88.482 105.337 88.2357 105.339H86.708V109.373H88.38C90.1998 109.373 90.0344 107.247 90.0344 107.247ZM88.3096 108.391H87.5106V106.322H88.2357C88.3598 106.322 88.4824 106.348 88.5956 106.399C88.7088 106.45 88.8099 106.524 88.8923 106.617C88.9747 106.71 89.0366 106.819 89.0739 106.937C89.1112 107.055 89.123 107.18 89.1086 107.304C89.1086 107.282 89.1826 108.391 88.3096 108.391Z" fill="white"/>
<path d="M95.0718 107.008H95.9623C95.9623 105.336 94.1425 105.336 94.1425 105.336C92.1607 105.336 92.2346 107.353 92.2346 107.353C92.212 107.611 92.2437 107.871 92.3279 108.117C92.412 108.362 92.5467 108.587 92.7231 108.777C92.8996 108.967 93.114 109.118 93.3524 109.22C93.5908 109.322 93.8479 109.373 94.1073 109.37C95.7793 109.37 95.9623 107.733 95.9623 107.733H95.0401C94.9705 107.93 94.8398 108.1 94.6669 108.218C94.4941 108.336 94.2881 108.395 94.0791 108.388C93.3153 108.388 93.0618 107.772 93.0618 107.209C93.0715 107.074 93.1081 106.943 93.1695 106.822C93.2309 106.702 93.3159 106.596 93.4193 106.509C93.5228 106.422 93.6426 106.357 93.7716 106.318C93.9007 106.278 94.0364 106.265 94.1706 106.279C94.3811 106.276 94.5858 106.348 94.7487 106.481C94.9116 106.615 95.0223 106.801 95.0612 107.008H95.0718Z" fill="white"/>
<path d="M96.5605 109.373V105.339H97.5602V108.416H99.1055V109.377L96.5605 109.373Z" fill="white"/>
<path d="M99.5069 105.339V107.937C99.5048 108.138 99.5446 108.337 99.6238 108.522C99.7031 108.706 99.82 108.873 99.9671 109.009C100.114 109.146 100.288 109.251 100.478 109.317C100.668 109.382 100.87 109.408 101.07 109.391C101.07 109.391 102.559 109.412 102.559 107.902V105.357H101.594V107.958C101.594 107.958 101.612 108.412 101.031 108.412C100.96 108.425 100.888 108.422 100.818 108.403C100.749 108.383 100.685 108.349 100.631 108.301C100.577 108.254 100.534 108.195 100.506 108.129C100.478 108.063 100.465 107.991 100.468 107.92V105.339H99.5069Z" fill="white"/>
<path d="M105.558 107.265C105.558 107.265 106.029 107.194 106.029 106.466C106.032 106.32 106.005 106.175 105.952 106.04C105.898 105.905 105.818 105.781 105.717 105.677C105.616 105.572 105.495 105.488 105.361 105.43C105.227 105.373 105.084 105.342 104.938 105.339H103.249V109.373H104.794C105.758 109.373 106.156 108.884 106.156 108.103C106.172 108.008 106.169 107.912 106.148 107.818C106.127 107.725 106.087 107.637 106.031 107.559C105.976 107.481 105.905 107.415 105.824 107.365C105.743 107.314 105.652 107.28 105.558 107.265ZM104.248 106.885V106.181H104.85C104.85 106.181 105.202 106.198 105.202 106.652C105.209 106.7 105.204 106.749 105.188 106.794C105.173 106.84 105.147 106.881 105.113 106.915C105.079 106.949 105.038 106.975 104.992 106.991C104.946 107.006 104.898 107.011 104.85 107.004H104.213L104.231 106.878L104.248 106.885ZM104.977 108.374H104.248V107.712H104.952C104.952 107.712 105.368 107.733 105.368 108.096C105.375 108.085 105.431 108.374 104.977 108.374Z" fill="white"/>
<path d="M77.5142 111.045H78.0774V113.281H77.5142V111.045Z" fill="white"/>
<path d="M78.623 113.281V111.045H79.1686V111.901C79.1844 111.922 79.2048 111.939 79.2283 111.951C79.2519 111.963 79.2778 111.969 79.3042 111.969C79.3305 111.969 79.3565 111.963 79.38 111.951C79.4035 111.939 79.424 111.922 79.4397 111.901V111.045H79.8586V111.883C79.8709 111.901 79.8873 111.915 79.9063 111.925C79.9253 111.934 79.9463 111.94 79.9677 111.94C79.9891 111.94 80.0101 111.934 80.0291 111.925C80.0481 111.915 80.0644 111.901 80.0768 111.883V111.045H80.5485V111.749C80.5561 111.824 80.5465 111.9 80.5206 111.971C80.4947 112.042 80.4531 112.106 80.399 112.159C80.3448 112.211 80.2794 112.251 80.2078 112.274C80.1361 112.298 80.0601 112.305 79.9853 112.295C79.7107 112.295 79.6579 112.147 79.6579 112.147C79.6054 112.224 79.5282 112.28 79.4393 112.307C79.3503 112.334 79.2549 112.33 79.1686 112.295V113.274L78.623 113.281Z" fill="white"/>
<path d="M82.238 113.281H81.3298C81.3298 113.281 80.8405 113.302 80.8405 112.556C80.8405 112.556 80.8757 112.154 81.0376 112.154C80.9679 112.083 80.9143 111.997 80.8803 111.903C80.8463 111.809 80.8327 111.709 80.8405 111.609C80.8892 111.438 80.9951 111.289 81.1405 111.186C81.2859 111.084 81.462 111.034 81.6396 111.046H82.238V111.584H81.534C81.3861 111.584 81.3861 112.003 81.534 112.003H82.238V112.422H81.4037C81.3298 112.422 81.3298 112.841 81.4037 112.841H82.238V113.281Z" fill="white"/>
<path d="M83.491 113.281V111.609H82.6567V111.045H84.0366V113.302H83.491V113.281Z" fill="white"/>
<path d="M86.1274 112.591H86.9652V113.295H86.1274V112.591Z" fill="white"/>
<path d="M89.7812 113.281V111.063H89.3095L88.6372 111.683V112.01H89.218V113.281H89.7812Z" fill="white"/>
<path d="M91.0521 111.063C91.0521 111.063 90.1826 110.958 90.1826 111.957C90.1826 112.609 90.9253 112.591 90.9253 112.591C90.9253 112.591 90.6367 113.295 90.4889 113.295H91.1682C91.5582 112.924 91.7976 112.423 91.8405 111.887C91.8449 111.782 91.8278 111.678 91.7903 111.58C91.7528 111.482 91.6958 111.393 91.6226 111.317C91.5495 111.242 91.4618 111.183 91.3649 111.143C91.268 111.103 91.1639 111.083 91.0591 111.084L91.0521 111.063ZM90.9992 112.211C90.9345 112.211 90.8712 112.192 90.8174 112.156C90.7635 112.12 90.7216 112.069 90.6968 112.009C90.672 111.949 90.6656 111.883 90.6782 111.82C90.6908 111.756 90.722 111.698 90.7678 111.652C90.8136 111.606 90.8719 111.575 90.9354 111.562C90.9989 111.55 91.0647 111.556 91.1245 111.581C91.1843 111.606 91.2355 111.648 91.2714 111.702C91.3074 111.755 91.3266 111.819 91.3266 111.883C91.3286 111.927 91.3215 111.97 91.3058 112.011C91.29 112.052 91.266 112.089 91.2352 112.119C91.2044 112.15 91.1675 112.174 91.1269 112.19C91.0862 112.206 91.0428 112.213 90.9992 112.211Z" fill="white"/>
<path d="M94.7444 113.281L95.4695 111.792V111.063H94.0615V111.609H94.9345L94.1002 113.281H94.7444Z" fill="white"/>
<path d="M92.1431 111.901C92.1431 111.901 92.1431 111.063 92.9069 111.063C92.9069 111.063 93.6707 110.975 93.6707 111.901C93.6179 112.447 92.9069 112.866 92.9069 112.866H93.6707V113.281H92.224V112.809L93.0794 112.045C93.0794 112.045 93.1498 111.609 92.8611 111.609C92.6957 111.609 92.6781 111.901 92.6781 111.901H92.1431Z" fill="white"/>
</svg>
