<svg width="120" height="120" viewBox="0 0 120 120" fill="none" xmlns="http://www.w3.org/2000/svg">
<path d="M64.7275 82.4149H109.745V37.4443H64.7275V82.4149ZM87.8244 40.3138C88.3888 42.3836 88.8592 44.5004 89.3297 46.6172C81.6621 48.7811 74.3708 52.1209 67.7381 56.5427V40.3138H87.8244ZM90.5057 59.8826C90.5057 63.4577 90.2234 67.0327 89.706 70.6078C81.8502 68.3499 74.4649 64.7748 67.7852 60.0708C74.4649 55.3667 81.8502 51.8387 89.706 49.5808C90.2234 53.0147 90.4586 56.4486 90.5057 59.8826ZM106.782 79.4514H67.6911V63.5517C74.2767 67.9265 81.521 71.3134 89.1885 73.4773C88.8122 75.5 88.3418 77.5227 87.8244 79.4984H90.882C91.3524 77.7579 91.7287 76.0174 92.058 74.2769C96.9032 75.4059 101.842 76.1115 106.782 76.2997V79.4514ZM106.782 73.3361C101.984 73.148 97.1854 72.4894 92.5284 71.3134C93.0929 67.5502 93.3751 63.7399 93.3751 59.9296C93.3751 56.2134 93.0929 52.4973 92.5284 48.8281C97.1854 47.6991 101.936 47.0406 106.735 46.8054V73.3361H106.782ZM106.782 43.9359C101.842 44.1241 96.9032 44.7826 92.105 45.9586C91.7758 44.077 91.3053 42.1954 90.882 40.3608H106.782V43.9359Z" fill="#A1A1A1"/>
<path d="M10.4428 73.2889L7.99671 72.7244C6.8207 72.4422 6.25621 71.8307 6.25621 70.8899C6.39733 69.6198 7.5263 68.726 8.79639 68.8671C10.3487 68.726 11.7599 69.855 11.9481 71.4073L14.5353 70.4665C13.8768 67.8322 11.3836 66.0447 8.65527 66.374C5.83285 66.2329 3.43379 68.3967 3.24563 71.1721C3.24563 73.336 4.89204 75.1705 7.0559 75.4528L9.64312 76.0173C10.9132 76.2995 11.6188 77.0051 11.6188 77.993C11.4777 79.2631 10.3487 80.1568 9.07864 80.0157C9.07864 80.0157 9.07864 80.0157 9.0316 80.0157C7.2911 80.2039 5.69173 78.9338 5.50357 77.1462C5.50357 77.1462 5.50357 77.1462 5.50357 77.0992L2.82227 78.04C3.10451 79.7805 4.845 82.4618 9.0316 82.4618C12.7948 82.4618 14.6294 79.8746 14.6294 77.7578C14.6294 75.4057 12.8419 73.5241 10.4428 73.2889Z" fill="#A1A1A1"/>
<path d="M23.8963 66.374C19.6626 66.6092 16.4168 70.1843 16.605 74.3709C16.3228 78.6045 19.5685 82.2266 23.7551 82.4618C23.7551 82.4618 23.7551 82.4618 23.8022 82.4618H24.2726C27.3772 82.603 30.1526 80.6273 31.0934 77.6637L28.5062 76.817C27.9888 78.7456 26.2012 80.0157 24.2255 79.8746C21.6854 79.8746 19.6626 77.8048 19.6626 75.3117H31.0934V74.3709C31.0934 69.6198 28.5062 66.4211 23.7551 66.4211M19.7097 72.8656C19.8037 70.6547 21.6383 68.9142 23.8492 68.9612C25.966 68.7731 27.8006 70.3254 28.0358 72.4422V72.8656H19.7097Z" fill="#A1A1A1"/>
<path d="M37.5851 62.0933H34.6216V82.0384H37.5851V62.0933Z" fill="#A1A1A1"/>
<path d="M55.1312 79.216V66.7974H52.2147V68.9612C51.368 67.2207 49.5334 66.1858 47.6518 66.374C43.3711 66.374 40.4546 69.9961 40.4546 74.2768C40.4546 78.5575 43.1829 82.3677 47.6518 82.3677C49.6275 82.4618 51.462 81.4269 52.3558 79.6864V79.9216C52.3558 80.6272 52.4028 81.2858 52.4969 81.9914H55.3664C55.2723 81.0976 55.2253 80.1098 55.2253 79.216M47.887 79.8275C45.0645 79.8275 43.4652 77.4285 43.4652 74.3238C43.4652 71.2192 45.2527 69.0553 47.934 69.0553C50.6153 69.0553 52.2617 71.2192 52.2617 74.3238C52.2617 77.4285 50.5683 79.8275 47.887 79.8275Z" fill="#A1A1A1"/>
<path d="M12.7009 58.4242H54.9902V51.4152C55.0843 49.6747 54.5668 47.9812 53.4849 46.6641C52.1678 45.2058 50.2862 44.4532 48.3575 44.5943H37.3501V42.8068H34.4806V55.6488H26.9541V37.4912H24.0847V55.6018H16.6523V42.8068H12.7009C6.77381 42.8068 2.9165 45.7703 2.9165 50.3332C2.9165 56.3544 7.99686 58.4242 12.7009 58.4242ZM37.3971 55.6018V47.5108H48.4516C49.5335 47.4167 50.6154 47.8401 51.3681 48.5927C51.9796 49.3924 52.2148 50.4273 52.1678 51.4152V55.6018H37.3971ZM11.8071 45.7703H13.7828V55.6488H11.8071C8.84359 55.6488 5.83301 54.0494 5.83301 50.4273C5.83301 47.2286 8.79655 45.8644 11.8071 45.8644" fill="#A1A1A1"/>
<path d="M15.2411 37.5386C14.3944 37.5386 13.7358 38.1971 13.7358 39.0439C13.7358 39.0439 13.7358 39.0439 13.7358 39.0909C13.7358 39.9376 14.3944 40.5962 15.2411 40.5962C16.0879 40.5962 16.7464 39.9376 16.7464 39.0909C16.7464 39.0909 16.7464 39.0909 16.7464 39.0439C16.7464 38.1971 16.0408 37.5386 15.2411 37.5386Z" fill="#A1A1A1"/>
<path d="M10.3486 37.5386C9.50183 37.5386 8.84326 38.1971 8.84326 39.0439C8.84326 39.0439 8.84326 39.0439 8.84326 39.0909C8.84326 39.9376 9.50183 40.5962 10.3486 40.5962C11.1953 40.5962 11.8538 39.9376 11.8538 39.0909C11.8538 39.0909 11.8538 39.0909 11.8538 39.0439C11.8538 38.1971 11.1953 37.5386 10.3486 37.5386Z" fill="#A1A1A1"/>
<path d="M114.966 81.1448L114.402 80.157H113.932V81.0978H113.555V78.5576H114.872C114.966 78.6047 115.06 78.6517 115.155 78.7458C115.249 78.7928 115.296 78.8869 115.343 78.981V79.3103C115.343 79.4514 115.296 79.6395 115.202 79.7807C115.108 79.9218 114.966 80.0159 114.825 80.0629L115.39 81.0978L114.966 81.1448ZM114.496 79.6395C114.59 79.6395 114.684 79.5925 114.778 79.5455C114.919 79.4043 114.919 79.1691 114.778 78.981C114.684 78.8869 114.59 78.8869 114.496 78.8869H113.932V79.5925L114.496 79.6395Z" fill="#A1A1A1"/>
<path d="M114.355 82.5563C112.85 82.5563 111.626 81.3332 111.626 79.828C111.626 78.3227 112.85 77.0996 114.355 77.0996C115.86 77.0996 117.083 78.3227 117.083 79.828C117.083 80.5336 116.801 81.2392 116.236 81.7566C115.813 82.3211 115.107 82.6033 114.355 82.5563ZM114.355 77.7111C113.179 77.7111 112.238 78.699 112.238 79.875C112.238 81.051 113.226 81.9918 114.402 81.9918C115.578 81.9918 116.519 81.004 116.519 79.828C116.519 79.2635 116.283 78.746 115.86 78.3697C115.484 77.9463 114.919 77.7111 114.355 77.7111Z" fill="#A1A1A1"/>
</svg>
