<svg width="120" height="120" viewBox="0 0 120 120" fill="none" xmlns="http://www.w3.org/2000/svg">
<path d="M70.6549 36.5974C70.4197 36.5503 70.1374 36.5503 69.9022 36.5974C69.2907 36.5974 68.6792 36.6915 68.1147 36.9267C67.2209 37.2089 66.3742 37.6793 65.6686 38.2908C65.7156 38.1027 65.7627 37.9615 65.8097 37.7734C66.3742 36.2681 66.092 34.5746 65.0571 33.3516C64.7278 32.9282 64.3515 32.5519 63.9281 32.2226C63.8811 32.1756 63.834 32.1285 63.7399 32.1285C63.5988 32.0345 63.4107 32.0815 63.2695 32.2226C62.9403 32.5989 62.7051 33.0693 62.4699 33.4927C61.8583 34.951 61.9995 36.5974 62.8932 37.9145C63.0343 38.0556 63.1284 38.1967 63.1755 38.3849C62.3287 37.9145 61.3879 37.6323 60.4471 37.5382C59.8356 37.4911 59.2241 37.4911 58.6596 37.6323C58.4244 37.6793 58.1421 37.7263 57.9069 37.8204C57.7658 37.8675 57.6717 38.0086 57.7188 38.1497C57.7188 38.1967 57.7188 38.1967 57.7658 38.2438C58.2362 38.9024 58.8948 39.4198 59.6004 39.702C60.4942 40.0784 61.482 40.2195 62.4699 40.1254C62.611 40.1254 62.7991 40.1254 62.9403 40.0313C62.7991 40.0313 62.7051 39.9843 62.611 39.9843C61.6702 39.8432 60.8234 39.3728 60.1649 38.7142C60.8234 38.526 61.482 38.526 62.1406 38.6201C62.7991 38.7142 63.4577 38.9024 64.0692 39.1846C63.6459 38.3849 63.4577 37.5382 63.4577 36.6444C63.5047 36.0799 63.6929 35.5154 63.9752 34.998C64.3515 35.4214 64.6337 35.8918 64.8689 36.3622C65.1512 37.2559 65.1982 38.1967 65.01 39.1375C65.5275 38.7142 66.092 38.4319 66.7035 38.1497C67.315 37.9145 67.9736 37.7734 68.6321 37.8204C68.1147 38.5731 67.4091 39.1376 66.6094 39.5139C66.5153 39.5609 66.4212 39.5609 66.3272 39.608C66.4683 39.608 66.6565 39.608 66.7976 39.608C67.7384 39.5139 68.6792 39.1846 69.4789 38.6201C70.1374 38.1497 70.6549 37.5382 70.8901 36.7855C70.9842 36.8326 70.843 36.5974 70.6549 36.5974Z" fill="#A1A1A1"/>
<path d="M55.5548 54.943C55.4136 54.943 55.3666 55.0371 55.2725 55.0841C54.2847 55.7427 53.1557 56.119 51.9326 56.1661C49.5806 56.2131 47.1345 54.896 46.6171 52.4499C46.4289 51.2739 46.57 50.0508 47.0404 48.9219C47.5579 47.5577 48.2635 46.2876 48.875 44.9705C49.2513 44.1708 49.6277 43.4652 49.9569 42.6655C50.6155 41.2543 50.3803 39.9371 49.5336 38.6671C48.6398 37.3029 47.2286 36.5973 45.5352 36.315C43.3713 35.9387 41.3015 36.315 39.2317 36.9266C36.1741 37.8203 33.4928 39.749 31.6582 42.3832C31.0938 43.23 30.7645 44.2178 30.6704 45.2527C30.5293 46.2406 30.6234 47.2284 30.9997 48.1222C31.6112 49.7215 32.8813 50.6153 34.7159 50.9916C36.7856 51.415 38.9495 50.9916 40.737 49.8156C42.6187 48.6396 44.0769 46.8521 44.7825 44.7823C44.9236 44.3119 45.0177 43.8885 45.0177 43.4181C45.0648 42.6655 44.218 41.8188 43.3243 41.6776C42.8539 41.5836 42.3834 41.6306 41.9601 41.8188L41.4897 41.9599C41.1604 42.101 40.7841 42.0069 40.5489 41.7717C40.2666 41.5365 40.2196 41.1132 40.4548 40.7839C40.8782 40.2194 41.4897 39.8431 42.1953 39.6549C44.2651 39.4197 46.0056 39.9842 46.8052 42.0069C47.2757 43.1829 47.2757 44.453 46.8052 45.629C45.7704 48.7337 43.4183 51.2739 40.4078 52.544C37.1149 53.9081 33.3047 53.4848 30.3882 51.368C29.2592 50.4742 28.5065 49.2041 28.3184 47.7929C27.848 44.5941 29.071 41.8658 31.2349 39.4667C33.5869 36.8795 36.6445 35.2802 40.2196 34.3864C41.6778 34.0571 43.1831 34.0101 44.6414 34.1512C45.6763 34.2453 46.7582 34.4334 47.7461 34.8097C48.9221 35.2331 49.957 35.9387 50.7566 36.9266C51.5563 37.8203 52.1208 38.8552 52.4031 40.0312C52.5442 40.878 52.4971 41.7247 52.2149 42.5244C51.7915 43.7945 51.227 45.0646 50.6155 46.2876C49.9569 47.5106 49.4395 48.7807 49.1102 50.0979C48.9691 50.8035 48.9691 51.5091 49.1102 52.1676C49.3925 53.3907 50.7566 54.2374 52.1208 54.0963C53.6261 53.9081 55.0844 53.2025 56.1663 52.1676C58.2831 50.286 59.6943 48.0281 60.8703 45.629C61.8111 43.8885 62.6578 42.054 63.5987 40.3135C63.9279 39.749 64.6806 39.5138 65.2451 39.8431C65.2921 39.8901 65.3862 39.9371 65.4332 39.9842C65.7625 40.2664 65.8096 40.6898 65.6214 41.0661C65.0099 42.3362 64.3513 43.5593 63.7398 44.8764C61.2937 49.6275 58.6124 54.2845 55.884 58.9415C55.0373 60.3527 54.1906 61.7639 53.3909 63.2221C53.1557 63.6455 52.7323 63.8807 52.2619 63.8337H51.8856C51.0859 63.8337 50.6626 63.3162 51.0389 62.6106C51.2741 62.1402 51.6034 61.6698 51.8856 61.2464C53.0616 59.2707 54.1906 57.3421 55.3666 55.3194C55.4607 55.0841 55.5548 55.0371 55.5548 54.943Z" fill="#A1A1A1"/>
<path d="M91.5877 50.9449C91.5407 50.7097 91.3055 50.5216 91.0703 50.5216C90.8351 50.5216 90.5999 50.6627 90.4117 50.8508C89.565 51.9328 88.436 52.7795 87.1189 53.2969C86.2721 53.7203 85.2843 53.8614 84.3435 53.7674C81.8504 53.4381 80.4391 51.1801 81.3329 49.1104C81.9444 47.8403 82.65 46.5702 83.2616 45.3001C84.2024 43.3244 84.955 41.3017 85.8488 39.2789C86.0369 38.8085 86.4133 38.3851 86.4603 37.9147C86.5073 37.5384 86.2251 37.1621 85.8488 37.1151C85.7547 37.1151 85.6606 37.1151 85.5665 37.1621C85.2843 37.2091 85.0491 37.2562 84.7669 37.3503C84.2494 37.5855 83.6379 37.5855 83.1675 37.2562L82.603 37.021C82.1326 36.7858 81.6622 36.5506 81.1447 36.4095C79.075 35.892 76.8641 35.939 74.8413 36.5506C72.5364 37.2562 70.4195 38.4322 68.585 40.0316C68.4909 40.1256 68.3027 40.1727 68.1616 40.1256C67.8794 40.0316 67.5501 39.9845 67.2208 40.0786C66.8915 40.0786 66.6563 40.3608 66.6563 40.6901C66.6563 40.7842 66.6563 40.8312 66.7034 40.8783C66.7504 41.0194 66.7974 41.1605 66.8915 41.3017C66.9385 41.4898 67.0326 41.678 66.8445 41.8661C66.2329 42.5247 65.7155 43.2303 65.3392 44.03C64.1632 45.9116 63.5046 48.0755 63.4576 50.2864C63.4105 50.992 63.5046 51.7446 63.7398 52.4032C64.4454 54.7082 66.1859 56.3075 69.2906 56.2135C70.7959 56.1664 72.2541 55.7901 73.5712 55.1315C74.5591 54.6141 75.5469 54.0496 76.4407 53.4381C77.1463 52.9206 77.946 52.4973 78.7927 52.215C79.2161 52.0739 79.6395 52.215 79.9217 52.5443C80.1569 52.8265 80.3451 53.1088 80.5332 53.391C81.0036 54.2848 81.8033 54.9434 82.7441 55.2726C83.6849 55.5549 84.6257 55.696 85.6136 55.6019C87.8245 55.4138 89.8943 54.3789 91.3525 52.6854C91.6818 52.1209 91.917 51.5565 91.5877 50.9449ZM78.2753 49.1574C74.5591 53.1558 69.5258 54.9904 67.0326 53.1558C64.5395 51.3683 65.4333 46.6172 69.1024 42.5247C72.8186 38.4792 77.8519 36.6917 80.3451 38.5263C82.8382 40.3608 81.9915 45.1119 78.2753 49.1574Z" fill="#A1A1A1"/>
<path d="M46.9932 57.9068C47.0402 57.2953 47.5576 56.7778 48.2162 56.7778C48.8277 56.8249 49.2511 57.3894 49.2041 57.9538C49.157 58.5654 48.5925 58.9887 48.0281 58.9417C47.4165 58.8947 46.9932 58.4713 46.9932 57.9068Z" fill="#A1A1A1"/>
<path d="M50.145 57.9066C50.1921 57.2951 50.7095 56.7777 51.3681 56.7777C51.9796 56.7306 52.497 57.201 52.5441 57.8125C52.5441 57.8596 52.5441 57.8596 52.5441 57.9066C52.497 58.5182 51.9796 58.9886 51.321 58.9886C50.7565 59.0356 50.2391 58.5652 50.145 57.9066Z" fill="#A1A1A1"/>
<path d="M5.83309 85.6603L6.63278 87.7301H7.66767L5.17453 81.1915H3.99852L1.50538 87.7301H2.49323L3.29291 85.6603H5.83309ZM3.43403 85.0018L4.18668 83.1201C4.3278 82.7438 4.46892 82.3205 4.563 81.8971C4.65708 82.2734 4.7982 82.6968 4.93933 83.1201L5.69197 85.0018H3.43403ZM10.4431 87.7301V84.9547L12.8891 81.2385H11.8072L10.7253 83.0261C10.443 83.5435 10.1608 83.9669 9.97265 84.3432C9.73744 83.8728 9.50224 83.4494 9.22 83.0261L8.18511 81.2385H7.10318L9.40816 85.0488V87.8242H10.349V87.7301H10.4431ZM16.6994 85.6603L17.4991 87.7301H18.534L15.9938 81.1915H14.8178L12.3247 87.7301H13.3125L14.1122 85.6603H16.6994ZM14.2533 85.0018L15.006 83.1201C15.1471 82.7438 15.2882 82.3205 15.3823 81.8971C15.4764 82.2734 15.6175 82.6968 15.7586 83.1201L16.5113 85.0018H14.2533ZM21.4975 87.4008C22.1091 87.6831 22.7206 87.8242 23.3792 87.8242C25.1196 87.8242 25.9664 86.9304 25.9664 85.9426C25.9664 84.9547 25.3078 84.4843 24.0848 84.0139C23.0499 83.6376 22.6265 83.3553 22.6265 82.7438C22.6265 82.2734 23.0028 81.756 23.9907 81.756C24.4611 81.756 24.9315 81.8501 25.3548 82.0853L25.6371 81.3797C25.1196 81.1444 24.5552 81.0504 24.0377 81.0504C22.6265 81.0504 21.6857 81.803 21.6857 82.7909C21.6857 83.7317 22.4383 84.2491 23.6144 84.6254C24.6022 84.9547 24.9785 85.331 24.9785 85.8955C24.9785 86.5071 24.414 87.0245 23.4732 87.0245C22.8617 87.0245 22.2972 86.8834 21.7798 86.6011L21.4975 87.4008ZM27.2365 87.7301H28.2243V85.0958C28.5066 85.1429 28.7418 85.1429 29.024 85.1429C29.8237 85.1899 30.6704 84.9547 31.2819 84.3902C31.6583 84.0139 31.8464 83.5435 31.8464 83.0261C31.8464 82.5086 31.6112 81.9912 31.1879 81.6619C30.7645 81.2856 30.0589 81.0974 29.1181 81.0974C28.5066 81.0974 27.895 81.1444 27.3305 81.2385L27.2365 87.7301ZM28.1773 81.8501C28.4595 81.803 28.7418 81.803 29.071 81.803C30.153 81.803 30.8115 82.2264 30.8115 83.0731C30.8115 83.9198 30.1059 84.4373 28.977 84.4373C28.6947 84.4373 28.4595 84.4373 28.1773 84.3902V81.8501ZM36.8327 83.9669H33.9632V81.8501H36.9738V81.1444H33.0224V87.6831H37.1149V87.0245H33.9162V84.6725H36.7857L36.8327 83.9669ZM43.3243 86.8363C42.8068 87.0245 42.2894 87.1186 41.7719 87.1186C39.9844 87.1186 38.9495 86.0837 38.9495 84.4843C38.9495 82.7909 40.1255 81.803 41.819 81.803C42.3364 81.803 42.8539 81.8971 43.2772 82.0853L43.5124 81.3797C42.9479 81.1915 42.3364 81.0974 41.7719 81.0974C39.514 81.0974 37.9617 82.4616 37.9617 84.5314C37.9617 86.6482 39.514 87.8712 41.6308 87.8712C42.2894 87.9183 42.9479 87.7771 43.5595 87.5419L43.3243 86.8363ZM44.7355 87.7301H45.7233V81.1915H44.7355V87.7301ZM51.0859 85.6603L51.8856 87.7301H52.9205L50.4274 81.1915H49.2514L46.7582 87.7301H47.7461L48.5457 85.6603H51.0859ZM48.6869 85.0018L49.4395 83.1201C49.5806 82.7438 49.7218 82.3205 49.8158 81.8971C49.9099 82.2734 50.051 82.6968 50.1922 83.1201L50.9448 85.0018H48.6869ZM54.0024 87.7301H58.0949V87.0245H54.8962V81.2385H53.9554V87.7301H54.0024ZM59.1298 87.7301H60.1177V81.1915H59.1298V87.7301ZM61.3407 87.4008C61.9523 87.6831 62.5638 87.8242 63.2223 87.8242C64.9628 87.8242 65.8096 86.9304 65.8096 85.9426C65.8096 84.9547 65.151 84.4843 63.928 84.0139C62.8931 83.6376 62.4697 83.3553 62.4697 82.7438C62.4697 82.2734 62.846 81.756 63.8339 81.756C64.3043 81.756 64.7747 81.8501 65.1981 82.0853L65.4803 81.3797C64.9628 81.1444 64.3984 81.0504 63.8809 81.0504C62.4697 81.0504 61.5289 81.803 61.5289 82.7909C61.5289 83.7317 62.2815 84.2491 63.4576 84.6254C64.4454 84.9547 64.8217 85.331 64.8217 85.8955C64.8217 86.5071 64.2572 87.0245 63.3164 87.0245C62.7049 87.0245 62.1404 86.8834 61.623 86.6011L61.3407 87.4008ZM68.4909 87.7301H69.4787V81.8971H71.7367V81.1444H66.28V81.8971H68.4909V87.7301ZM74.8413 81.1915V87.7301H75.8292V84.6725H79.4042V87.7301H80.3921V81.1915H79.4042V83.9198H75.8292V81.1915H74.8413ZM84.908 81.0974C83.1204 81.0033 81.5681 82.4145 81.474 84.2021C81.474 84.2962 81.474 84.3902 81.474 84.4843C81.3799 86.2248 82.7441 87.7301 84.4846 87.8242C84.5787 87.8242 84.6728 87.8242 84.7668 87.8242C86.6485 87.8242 88.2008 86.6011 88.2008 84.3432C88.2949 82.6027 86.9307 81.1445 85.1902 81.0504C85.0961 81.0974 85.002 81.0974 84.908 81.0974ZM84.8609 81.756C86.4133 81.756 87.2129 83.0731 87.2129 84.4373C87.2129 85.8955 86.3662 87.1656 84.8609 87.1656C83.3556 87.1656 82.5089 85.8955 82.5089 84.5314C82.5089 83.0731 83.2616 81.756 84.8609 81.756ZM89.0946 87.4008C89.7061 87.6831 90.3176 87.8242 90.9762 87.8242C92.7167 87.8242 93.5634 86.9304 93.5634 85.9426C93.5634 84.9547 92.9048 84.4843 91.6818 84.0139C90.6469 83.6376 90.2235 83.3553 90.2235 82.7438C90.2235 82.2734 90.5998 81.756 91.5877 81.756C92.0581 81.756 92.5285 81.8501 92.9519 82.0853L93.2341 81.3797C92.7167 81.1444 92.1522 81.0504 91.6347 81.0504C90.2235 81.0504 89.2827 81.803 89.2827 82.7909C89.2827 83.7317 90.0354 84.2491 91.2114 84.6254C92.1992 84.9547 92.5755 85.331 92.5755 85.8955C92.5755 86.5071 92.0111 87.0245 91.0703 87.0245C90.4587 87.0245 89.8942 86.8834 89.3768 86.6011L89.0946 87.4008ZM94.8335 87.7301H95.8213V85.0958C96.1036 85.1429 96.3388 85.1429 96.621 85.1429C97.4207 85.1899 98.2674 84.9547 98.879 84.3902C99.2553 84.0139 99.4434 83.5435 99.4434 83.0261C99.4434 82.5086 99.2082 81.9912 98.7849 81.6619C98.3615 81.2856 97.6559 81.0974 96.7151 81.0974C96.1036 81.0974 95.4921 81.1444 94.9276 81.2385L94.8335 87.7301ZM95.7272 81.8501C96.0095 81.803 96.2917 81.803 96.621 81.803C97.7029 81.803 98.3615 82.2264 98.3615 83.0731C98.3615 83.9198 97.6559 84.4373 96.5269 84.4373C96.2447 84.4373 96.0095 84.4373 95.7272 84.3902V81.8501ZM100.619 87.7301H101.607V81.1915H100.619V87.7301ZM104.618 87.7301H105.606V81.8971H107.864V81.1444H102.407V81.8971H104.618V87.7301ZM111.627 85.6603L112.427 87.7301H113.461L110.968 81.1915H109.792L107.299 87.7301H108.287L109.087 85.6603H111.627ZM109.181 85.0018L109.933 83.1201C110.075 82.7438 110.216 82.3205 110.31 81.8971C110.404 82.2734 110.545 82.6968 110.686 83.1201L111.439 85.0018H109.181ZM114.496 87.7301H118.589V87.0245H115.39V81.2385H114.449L114.496 87.7301ZM5.83309 85.6603L6.63278 87.7301H7.66767L5.17453 81.1915H3.99852L1.50538 87.7301H2.49323L3.29291 85.6603H5.83309ZM3.43403 85.0018L4.18668 83.1201C4.3278 82.7438 4.46892 82.3205 4.563 81.8971C4.65708 82.2734 4.7982 82.6968 4.93933 83.1201L5.69197 85.0018H3.43403ZM10.4431 87.7301V84.9547L12.8891 81.2385H11.8072L10.7253 83.0261C10.443 83.5435 10.1608 83.9669 9.97265 84.3432C9.73744 83.8728 9.50224 83.4965 9.22 83.0261L8.18511 81.2385H7.10318L9.40816 85.0018V87.7771L10.4431 87.7301ZM16.6994 85.6603L17.4991 87.7301H18.534L15.9938 81.1915H14.8178L12.3247 87.7301H13.3125L14.1122 85.6603H16.6994ZM14.2533 85.0018L15.006 83.1201C15.1471 82.7438 15.2882 82.3205 15.3823 81.8971C15.4764 82.2734 15.6175 82.6968 15.7586 83.1201L16.5113 85.0018H14.2533ZM21.4975 87.4008C22.1091 87.6831 22.7206 87.8242 23.3792 87.8242C25.1196 87.8242 25.9664 86.9304 25.9664 85.9426C25.9664 84.9547 25.3078 84.4843 24.0848 84.0139C23.0499 83.6376 22.6265 83.3553 22.6265 82.7438C22.6265 82.2734 23.0028 81.756 23.9907 81.756C24.4611 81.756 24.9315 81.8501 25.3548 82.0853L25.6371 81.3797C25.1196 81.1444 24.5552 81.0504 24.0377 81.0504C22.6265 81.0504 21.6857 81.803 21.6857 82.7909C21.6857 83.7317 22.4383 84.2491 23.6144 84.6254C24.6022 84.9547 24.9785 85.331 24.9785 85.8955C24.9785 86.5071 24.414 87.0245 23.4732 87.0245C22.8617 87.0245 22.2972 86.8834 21.7798 86.6011L21.4975 87.4008ZM27.2365 87.7301H28.2243V85.0958C28.5066 85.1429 28.7418 85.1429 29.024 85.1429C29.8237 85.1899 30.6704 84.9547 31.2819 84.3902C31.6583 84.0139 31.8464 83.5435 31.8464 83.0261C31.8464 82.5086 31.6112 81.9912 31.1879 81.6619C30.7645 81.2856 30.0589 81.0974 29.1181 81.0974C28.5066 81.0974 27.895 81.1444 27.3305 81.2385L27.2365 87.7301ZM28.1773 81.8501C28.4595 81.803 28.7418 81.803 29.071 81.803C30.153 81.803 30.8115 82.2264 30.8115 83.0731C30.8115 83.9198 30.1059 84.4373 28.977 84.4373C28.6947 84.4373 28.4595 84.4373 28.1773 84.3902V81.8501ZM36.8327 83.9669H33.9632V81.8501H36.9738V81.1444H33.0224V87.6831H37.1149V87.0245H33.9162V84.6725H36.7857L36.8327 83.9669ZM43.3243 86.8363C42.8068 87.0245 42.2894 87.1186 41.7719 87.1186C39.9844 87.1186 38.9495 86.0837 38.9495 84.4843C38.9495 82.7909 40.1255 81.803 41.819 81.803C42.3364 81.803 42.8068 81.8971 43.2772 82.0853L43.5124 81.3797C42.9479 81.1444 42.3364 81.0504 41.7719 81.0974C39.514 81.0974 37.9617 82.4616 37.9617 84.5314C37.9617 86.6482 39.514 87.8712 41.6308 87.8712C42.2894 87.9183 42.9479 87.7771 43.5595 87.5419L43.3243 86.8363ZM44.7355 87.7301H45.7233V81.1915H44.7355V87.7301ZM51.0859 85.6603L51.8856 87.7301H52.9205L50.4274 81.1915H49.2514L46.7582 87.7301H47.7461L48.5457 85.6603H51.0859ZM48.6869 85.0018L49.4395 83.1201C49.5806 82.7438 49.7218 82.3205 49.8158 81.8971C49.9099 82.2734 50.051 82.6968 50.1922 83.1201L50.9448 85.0018H48.6869ZM54.0024 87.7301H58.0949V87.0245H54.8962V81.2385H53.9554L54.0024 87.7301ZM59.1298 87.7301H60.1177V81.1915H59.1298V87.7301ZM61.3407 87.4008C61.9523 87.6831 62.5638 87.8242 63.2223 87.8242C64.9628 87.8242 65.8096 86.9304 65.8096 85.9426C65.8096 84.9547 65.151 84.4843 63.928 84.0139C62.8931 83.6376 62.4697 83.3553 62.4697 82.7438C62.4697 82.2734 62.846 81.756 63.8339 81.756C64.3043 81.756 64.7747 81.8501 65.1981 82.0853L65.4803 81.3797C64.9628 81.1444 64.3984 81.0504 63.8809 81.0504C62.4697 81.0504 61.5289 81.803 61.5289 82.7909C61.5289 83.7317 62.2815 84.2491 63.4576 84.6254C64.4454 84.9547 64.8217 85.331 64.8217 85.8955C64.8217 86.5071 64.2572 87.0245 63.3164 87.0245C62.7049 87.0245 62.1404 86.8834 61.623 86.6011L61.3407 87.4008ZM68.4909 87.7301H69.4787V81.8971H71.7367V81.1444H66.28V81.8971H68.4909V87.7301ZM74.8413 81.1915V87.7301H75.8292V84.6725H79.4042V87.7301H80.3921V81.1915H79.4042V83.9198H75.8292V81.1915H74.8413ZM84.908 81.0974C83.1204 81.0033 81.5681 82.4145 81.474 84.2021C81.474 84.2962 81.474 84.3902 81.474 84.4843C81.3799 86.2248 82.6971 87.7301 84.4376 87.8242C84.5787 87.8242 84.6728 87.8242 84.8139 87.8242C86.6955 87.8242 88.2478 86.6011 88.2478 84.3432C88.3419 82.6027 86.9777 81.1445 85.2372 81.0504C85.0961 81.0974 85.002 81.0974 84.908 81.0974ZM84.8609 81.756C86.4133 81.756 87.2129 83.0731 87.2129 84.4373C87.2129 85.8955 86.3662 87.1656 84.8609 87.1656C83.3556 87.1656 82.5089 85.8955 82.5089 84.5314C82.5089 83.0731 83.2616 81.756 84.8609 81.756ZM89.0946 87.4008C89.7061 87.6831 90.3176 87.8242 90.9762 87.8242C92.7167 87.8242 93.5634 86.9304 93.5634 85.9426C93.5634 84.9077 92.9048 84.4843 91.6818 84.0139C90.6469 83.6376 90.2235 83.3553 90.2235 82.7438C90.2235 82.2734 90.5998 81.756 91.5877 81.756C92.0581 81.756 92.5285 81.8501 92.9519 82.0853L93.2341 81.3797C92.7167 81.1444 92.1522 81.0504 91.6347 81.0504C90.2235 81.0504 89.2827 81.803 89.2827 82.7909C89.2827 83.7317 90.0354 84.2491 91.2114 84.6254C92.1992 84.9547 92.5755 85.331 92.5755 85.8955C92.5755 86.5071 92.0111 87.0245 91.0703 87.0245C90.4587 87.0245 89.8942 86.8834 89.3768 86.6011L89.0946 87.4008ZM94.8335 87.7301H95.8213V85.0958C96.1036 85.1429 96.3388 85.1429 96.621 85.1429C97.4207 85.1899 98.2674 84.9547 98.879 84.3902C99.2553 84.0139 99.4434 83.5435 99.4434 83.0261C99.4434 82.5086 99.2082 81.9912 98.7849 81.6619C98.3615 81.2856 97.6559 81.0974 96.7151 81.0974C96.1036 81.0974 95.4921 81.1444 94.9276 81.2385L94.8335 87.7301ZM95.7272 81.8501C96.0095 81.803 96.2917 81.803 96.621 81.803C97.7029 81.803 98.3615 82.2264 98.3615 83.0731C98.3615 83.9198 97.6559 84.4373 96.5269 84.4373C96.2447 84.4373 96.0095 84.4373 95.7272 84.3902V81.8501ZM10.9135 74.6999V75.8289C9.59632 75.8289 9.22 75.6407 8.70256 74.9822C8.37327 76.4404 6.91502 77.4283 5.12749 77.4283C3.05771 77.4283 1.36426 76.017 1.36426 74.0884V73.0065H2.58731V73.9943C2.58731 75.4526 3.57516 76.4404 5.12749 76.4404C6.49166 76.4404 7.57359 75.5937 7.57359 74.6529C7.57359 74.0884 7.15022 73.665 6.58574 73.618C6.5387 73.618 6.49166 73.618 6.44462 73.618H6.25646V72.6301H6.72686C7.62063 72.5831 8.42031 73.0065 8.84368 73.8061C9.31408 74.5588 9.73744 74.841 10.3019 74.841H10.8664L10.9135 74.6999ZM6.7739 79.5451H5.55085V78.4631H6.7739V79.5451ZM4.70412 79.5451H3.52812V78.4631H4.70412V79.5451ZM21.0271 75.8289H10.3019V74.6999H11.525C12.1365 74.6999 12.4658 74.3236 12.4658 73.5239V71.8775H13.6418V73.1946C14.6296 72.0186 15.8057 71.4071 16.9817 71.4071C18.8162 71.4071 19.757 72.5361 19.757 74.6999H21.0271V75.8289ZM18.487 74.6999V74.3706C18.487 73.1005 17.8284 72.3479 16.8405 72.3479C15.6175 72.3479 14.3474 73.3828 13.6418 74.6529L18.487 74.6999ZM31.1879 75.8289H20.4626V74.6999H21.6857C22.2972 74.6999 22.6265 74.3236 22.6265 73.5239V71.8775H23.8496V73.1946C24.8374 72.0186 26.0134 71.4071 27.1894 71.4071C29.024 71.4071 29.9648 72.5361 29.9648 74.6999H31.2349L31.1879 75.8289ZM28.6477 74.6999V74.3706C28.6477 73.1005 27.9891 72.3479 27.0013 72.3479C25.7782 72.3479 24.5081 73.3828 23.8025 74.6529L28.6477 74.6999ZM39.6081 75.8289H30.9056V74.6999H37.162C37.162 74.1354 36.9738 73.618 36.5975 73.1946C36.1271 72.6772 35.4685 72.3949 34.7629 72.442C34.4336 72.442 34.1514 72.489 33.8221 72.6301C33.4458 72.7713 33.1165 72.9594 32.8343 73.2417C32.6931 73.0535 32.505 72.7713 32.2227 72.3949C32.552 72.1127 32.9754 71.8775 33.3988 71.6893C33.8692 71.5012 34.3396 71.4071 34.81 71.4071C35.5156 71.4071 36.1741 71.5482 36.7857 71.8775C37.7735 72.442 38.385 73.5239 38.385 74.6999H39.561L39.6081 75.8289ZM35.4215 70.5604H34.1984V69.4784H35.4215V70.5604ZM40.4078 70.5604H39.1847V69.4784H40.4078V70.5604ZM42.4775 70.5604H41.2545V69.4784H42.4775V70.5604ZM44.2651 75.8289H39.2788V74.6999H40.4078C40.69 74.747 40.9723 74.6058 41.1604 74.3706C41.2545 74.1354 41.3015 73.9002 41.3015 73.618V71.4071H42.5246V73.5709C42.5716 73.9473 42.4775 74.3706 42.2423 74.6999H44.3121L44.2651 75.8289ZM47.0405 74.0884C47.0405 75.2644 46.4289 75.8289 45.2529 75.8289H43.9828V74.6999H45.0177C45.4411 74.6999 45.6763 74.6058 45.8174 74.3706C45.9115 74.1354 45.9115 73.9002 45.9115 73.665V69.5725H47.1345V74.0884H47.0405ZM49.3454 75.8289H48.1224V69.5725H49.3454V75.8289ZM59.5062 75.8289H58.2361C57.3423 75.8759 56.5426 75.2644 56.3074 74.4177C55.9781 74.8881 55.4607 75.1233 54.9432 75.1703C53.7672 75.2174 52.7794 74.3706 52.7323 73.1946C52.7323 73.1005 52.7323 73.0065 52.7323 72.9124C52.7323 71.5012 53.6261 70.5604 54.9432 70.5604H57.6245V73.618C57.5775 74.1825 58.0009 74.6999 58.5653 74.794C58.6594 74.794 58.7065 74.794 58.8006 74.794H59.6002L59.5062 75.8289ZM56.2604 72.7713V71.4071H55.1314C54.3788 71.4071 53.7672 71.9716 53.7202 72.7242C53.7202 72.7713 53.7202 72.8183 53.7202 72.8653C53.6731 73.5709 54.1906 74.1825 54.8492 74.2295H54.8962C55.7429 74.1825 56.3074 73.5239 56.2604 72.7713ZM55.3666 69.7136H54.1436V68.6788H55.3666V69.7136ZM57.4364 69.7136H56.2133V68.6788H57.4364V69.7136ZM62.3756 74.0884C62.3756 75.2644 61.7641 75.8289 60.5881 75.8289H59.271V74.6999H60.3058C60.7292 74.6999 60.9644 74.6058 61.1055 74.3706C61.1996 74.1354 61.1996 73.9002 61.1996 73.665V71.4071H62.4227V74.0884H62.3756ZM60.2588 77.9457H59.0358V76.8638H60.2588V77.9457ZM62.3286 77.9457H61.1055V76.8638H62.3286V77.9457ZM64.6806 75.8289H63.4576V69.5725H64.6806V75.8289ZM65.151 68.8199C64.9628 69.1021 64.7747 69.2432 64.5395 69.2432C64.3513 69.1962 64.1632 69.1021 63.975 69.008C63.7868 68.8669 63.5516 68.7728 63.3164 68.7728C63.1283 68.7728 62.9401 68.8669 62.846 69.0551L62.7519 68.7258C62.9401 68.4436 63.1283 68.3024 63.3164 68.3024C63.5516 68.3495 63.7398 68.3965 63.928 68.5376C64.0691 68.6787 64.2572 68.7258 64.4924 68.7728C64.6806 68.7728 64.8688 68.6788 65.0099 68.4906L65.151 68.8199ZM77.4285 74.6999V75.8289C76.1114 75.8289 75.7351 75.6407 75.2176 74.9822C74.8884 76.4404 73.4301 77.4283 71.6426 77.4283C69.5728 77.4283 67.8793 76.017 67.8793 74.0884V73.0065H69.1024V73.9943C69.1024 75.4526 70.0902 76.4404 71.6426 76.4404C73.0068 76.4404 74.0887 75.5937 74.0887 74.6529C74.0887 74.0884 73.6653 73.665 73.1008 73.618C73.0538 73.618 73.0068 73.618 72.9597 73.618H72.7715V72.6301H73.242C74.1357 72.5831 74.9354 73.0065 75.3588 73.8061C75.8292 74.5588 76.2525 74.841 76.817 74.841H77.3815L77.4285 74.6999ZM81.3799 69.8077H80.1569V68.7728H81.3799V69.8077ZM84.4376 75.8289H83.2145C82.3678 75.8759 81.5681 75.6878 80.8155 75.3114C80.0628 75.6878 79.2631 75.8759 78.4164 75.8289H77.0993V74.6999H78.3694C78.6986 74.6999 79.075 74.6999 79.4042 74.6058C79.075 74.3706 78.7927 74.0884 78.6046 73.7121C78.4164 73.3828 78.3694 73.0535 78.3694 72.6772C78.3694 72.442 78.4164 72.2538 78.5105 72.0186C78.9338 71.0778 79.8746 70.5133 80.9095 70.5604C82.1326 70.5604 83.4497 71.313 83.4497 72.6772C83.4497 73.0535 83.3556 73.3828 83.1675 73.7121C82.9793 74.0884 82.6971 74.4177 82.3678 74.6529C82.6971 74.747 83.0264 74.747 83.4027 74.747H84.5316L84.4376 75.8289ZM81.474 73.9002C81.8974 73.618 82.1796 73.1476 82.1796 72.6301C82.1796 72.3009 82.0855 72.0186 81.8503 71.7834C81.5681 71.5482 81.1918 71.4071 80.8155 71.4071C80.4391 71.4071 80.0628 71.5012 79.7806 71.7834C79.5454 72.0186 79.4513 72.3009 79.4513 72.6301C79.4513 73.1476 79.7335 73.618 80.1569 73.9002C80.3921 74.0414 80.6273 74.1825 80.8625 74.2766C81.0977 74.1354 81.2859 73.9943 81.474 73.9002ZM84.0142 75.8289V74.6999H85.1432C85.7547 74.6999 86.084 74.3236 86.084 73.5239V71.4071H87.307V73.4769C87.3541 73.8532 87.307 74.2295 87.1189 74.6058V74.6529H88.2478C88.8594 74.6529 89.1886 74.2766 89.1886 73.5709V71.36H90.4117V73.4298C90.4587 73.8062 90.3646 74.2295 90.1765 74.6058H91.3995C92.0111 74.6058 92.3403 74.2295 92.3403 73.5239V71.313H93.5634V73.3828C93.5634 73.8062 93.4693 74.2295 93.2812 74.6058H95.1157V75.7348H84.1553L84.0142 75.8289ZM89.0946 67.9731H90.3176V69.0551H89.0946V67.9731ZM90.1294 69.4784H91.3525V70.5604H90.1294V69.4784ZM88.0597 69.4784H89.2827V70.5604H88.0597V69.4784ZM95.7272 70.5604H94.5512V69.4784H95.7743V70.5604H95.7272ZM97.797 70.5604H96.574V69.4784H97.797V70.5604ZM99.6316 75.8289H94.6453V74.6999H95.7743C96.0565 74.747 96.3388 74.6058 96.5269 74.3706C96.621 74.1354 96.6681 73.9002 96.6681 73.618V71.4071H97.8911V73.5709C97.9381 73.9473 97.8441 74.3706 97.6089 74.6999H99.6786L99.6316 75.8289ZM99.2082 75.8289V74.6999H100.337C100.949 74.6999 101.278 74.3236 101.278 73.5239V71.4071H102.501V73.4769C102.548 73.8532 102.501 74.2295 102.313 74.6058V74.6529H103.442C104.053 74.6529 104.383 74.2766 104.383 73.5709V71.36H105.606V73.4298C105.653 73.8062 105.559 74.2295 105.371 74.6058H106.594C107.205 74.6058 107.534 74.2295 107.534 73.5239V71.313H108.757V73.3828C108.757 73.8062 108.663 74.2295 108.475 74.6058H110.31V75.7348H99.3494L99.2082 75.8289ZM116.143 74.4177C116.143 75.6878 115.155 76.6286 113.744 76.6286C112.991 76.6756 112.285 76.3463 111.815 75.7348H109.886V74.6058H111.345V74.3236C111.345 73.0535 112.38 72.1127 113.791 72.1127C115.061 72.1597 116.096 73.1476 116.143 74.4177ZM114.92 74.4177C114.967 73.7591 114.449 73.1476 113.791 73.1476H113.744C113.132 73.1476 112.615 73.618 112.568 74.2766C112.568 74.3236 112.568 74.3706 112.568 74.4177C112.521 75.0762 113.038 75.6878 113.697 75.6878C113.744 75.6878 113.744 75.6878 113.791 75.6878C114.402 75.6878 114.92 75.1703 114.92 74.5588C114.92 74.5118 114.92 74.4647 114.92 74.4177ZM100.619 87.7301H101.607V81.1915H100.619V87.7301ZM104.618 87.7301H105.606V81.8971H107.864V81.1444H102.407V81.8971H104.618V87.7301ZM111.627 85.6603L112.427 87.7301H113.461L110.968 81.1915H109.792L107.299 87.7301H108.287L109.087 85.6603H111.627ZM109.181 85.0018L109.933 83.1201C110.075 82.7438 110.216 82.3205 110.31 81.8971C110.404 82.2734 110.545 82.6968 110.686 83.1201L111.439 85.0018H109.181ZM114.496 87.7301H118.589V87.0245H115.39V81.2385H114.449L114.496 87.7301Z" fill="#A1A1A1"/>
</svg>
