<svg width="120" height="120" viewBox="0 0 120 120" fill="none" xmlns="http://www.w3.org/2000/svg">
<path d="M34.1514 76.3466H32.8814V74.7002C32.9284 74.1828 32.8343 73.6653 32.6932 73.1479C32.5991 72.8656 32.3169 72.6775 31.9876 72.6775C31.6583 72.6775 31.329 72.9127 31.2349 73.2419C31.1409 73.7124 31.0938 74.2298 31.0938 74.7002V82.4619C31.0938 83.0263 31.1409 83.5908 31.2349 84.1083C31.282 84.4846 31.6113 84.7198 31.9876 84.7198C32.3639 84.7198 32.6932 84.4846 32.7873 84.1553C32.9284 83.6849 32.9754 83.1675 32.9754 82.6971V80.5332H34.2455V82.6971C34.2455 84.7198 33.4929 85.7076 32.0346 85.7076C30.5764 85.7076 29.8237 84.6728 29.8237 82.5559V74.7002C29.8237 72.6304 30.5293 71.6426 31.9876 71.6426C33.4458 71.6426 34.1514 72.6775 34.1514 74.7472V76.3466Z" fill="#A1A1A1"/>
<path d="M35.4214 77.7107H35.9859V74.1356C35.9388 73.477 36.174 72.8185 36.5974 72.3481C37.0208 71.8777 37.5852 71.6425 38.1968 71.6895C38.8083 71.6895 39.3728 71.9247 39.7961 72.3951C40.2195 72.8655 40.4547 73.477 40.4077 74.1356V85.6605H39.1376V78.9337H37.256V85.6605H35.9859V78.9337H35.4214V77.7107ZM37.256 73.9945V77.6636H39.1376V73.9945C39.1376 73.1478 38.8083 72.6774 38.1968 72.6774C37.5852 72.6774 37.256 73.1478 37.256 73.9945Z" fill="#A1A1A1"/>
<path d="M43.4654 79.0748V85.6134H42.1953V79.0278H41.6309V77.9458H42.1953V74.7471C42.1953 73.6652 42.3835 72.8655 42.7598 72.3951C43.2302 71.8776 43.8888 71.6424 44.5474 71.6895C44.9237 71.6895 45.3 71.6895 45.6763 71.7365V72.7714C45.347 72.7244 45.0648 72.7244 44.7355 72.7244C44.3592 72.6773 43.9829 72.8184 43.7006 73.1007C43.5125 73.6181 43.4654 74.1356 43.5125 74.653V77.8988H45.5352V78.9807H43.4654V79.0748Z" fill="#A1A1A1"/>
<path d="M48.2633 79.0748V85.6134H46.9932V79.0278H46.4287V77.9458H46.9932V74.7471C46.9932 73.6652 47.1814 72.8655 47.5577 72.3951C48.0281 71.8776 48.6867 71.6424 49.3452 71.6895C49.7215 71.6895 50.0979 71.6895 50.4742 71.7365V72.7714C50.1449 72.7244 49.8627 72.7244 49.5334 72.7244C49.1571 72.6773 48.7807 72.8184 48.4985 73.1007C48.3103 73.6181 48.2633 74.1356 48.3103 74.653V77.8988H50.3331V78.9807H48.2633V79.0748Z" fill="#A1A1A1"/>
<path d="M55.3664 84.5315V85.5664C54.7549 85.6134 54.3786 85.6604 54.1434 85.6604C53.2496 85.6604 52.5911 85.4252 52.2147 84.9078C51.8384 84.2492 51.6503 83.4966 51.6973 82.7439V79.0748H51.1328V78.0399H51.6973V74.8412C51.6973 73.7592 51.8855 72.9595 52.2618 72.4891C52.6381 72.0187 53.2026 71.8306 54.0493 71.8306C54.4256 71.8306 54.802 71.8306 55.1783 71.8776V72.9125C54.896 72.8655 54.5668 72.8655 54.2845 72.8655C53.673 72.8655 53.2967 73.0066 53.1556 73.3359C53.0144 73.8063 52.9674 74.3237 53.0144 74.8412V78.0869H55.0372V79.1218H53.0144V82.838C53.0144 83.3084 53.0615 83.7318 53.2496 84.1551C53.5319 84.5785 54.0023 84.7667 54.5197 84.7196C54.802 84.6256 55.0842 84.5315 55.3664 84.5315Z" fill="#A1A1A1"/>
<path d="M57.9537 71.7837H56.6836V85.6606H57.9537V71.7837Z" fill="#A1A1A1"/>
<path d="M61.0113 85.6136H59.7412V71.7837H60.9172V72.4893C61.2935 72.0189 61.858 71.6896 62.4696 71.6426C62.94 71.6426 63.3633 71.8307 63.6926 72.16C64.0219 72.6304 64.21 73.1949 64.163 73.7594V85.6136H62.8929V73.7594C62.8929 73.1479 62.6577 72.8656 62.2344 72.8656C61.9051 72.8656 61.5758 73.0067 61.3876 73.289C61.1524 73.5712 61.0113 73.9946 61.0113 74.3709V85.6136Z" fill="#A1A1A1"/>
<path d="M69.5725 84.5315V85.5664C68.961 85.6134 68.5847 85.6604 68.3495 85.6604C67.4557 85.6604 66.7971 85.4252 66.4208 84.9078C66.0445 84.2492 65.8563 83.4966 65.9034 82.7439V79.0748H65.3389V78.0399H65.9034V74.8412C65.9034 73.7592 66.0915 72.9595 66.4678 72.4891C66.8442 72.0187 67.4086 71.8306 68.2554 71.8306C68.6317 71.8306 69.008 71.8306 69.3843 71.8776V72.9125C69.1021 72.8655 68.7728 72.8655 68.4906 72.8655C67.8791 72.8655 67.5027 73.0066 67.3616 73.3359C67.2205 73.8063 67.1734 74.3237 67.2205 74.8412V78.0869H69.2432V79.1218H67.2205V82.838C67.2205 83.3084 67.2675 83.7318 67.4557 84.1551C67.7379 84.5785 68.2083 84.7667 68.7258 84.7196C69.008 84.6256 69.2903 84.5315 69.5725 84.5315Z" fill="#A1A1A1"/>
<path d="M78.2282 85.6136H74.418V71.7837H75.6881V84.4375H78.2282V85.6136Z" fill="#A1A1A1"/>
<path d="M78.981 77.7107H79.5454V74.1356C79.4984 73.477 79.7336 72.8185 80.157 72.3481C80.5803 71.8777 81.1448 71.6425 81.7563 71.6895C82.3679 71.6895 82.9323 71.9247 83.3557 72.3951C83.7791 72.8655 84.0143 73.477 83.9672 74.1356V85.6605H82.6972V78.9337H80.8155V85.6605H79.5454V78.9337H78.981V77.7107ZM80.8155 73.9945V77.6636H82.6972V73.9945C82.6972 73.1478 82.3679 72.6774 81.7563 72.6774C81.1448 72.6774 80.8155 73.1478 80.8155 73.9945Z" fill="#A1A1A1"/>
<path d="M87.683 85.6136H85.7544V71.7838H87.683C88.2946 71.7367 88.8591 71.9719 89.2824 72.3953C89.7528 72.9598 89.988 73.6654 89.941 74.371V76.3467C89.941 76.77 89.8469 77.1464 89.6587 77.5227C89.4235 77.852 89.0943 78.1813 88.7179 78.3694C89.7058 78.9339 90.2703 80.0158 90.1762 81.1448V82.9323C90.1762 84.7199 89.3295 85.6136 87.683 85.6136ZM87.4949 72.8187H87.0245V77.8049H87.4949C87.8242 77.8049 88.1534 77.6638 88.3887 77.3816C88.6239 77.0052 88.765 76.5819 88.7179 76.1585V74.418C88.7179 73.9947 88.6239 73.5713 88.3416 73.242C88.1535 72.9598 87.8242 72.8187 87.4949 72.8187ZM87.636 78.8869H87.0245V84.5317H87.636C88.4827 84.5317 88.9061 83.9202 88.9061 82.6971V80.8626C88.9061 80.3451 88.765 79.8747 88.5298 79.4513C88.3887 79.1221 88.0123 78.8869 87.636 78.8869Z" fill="#A1A1A1"/>
<path d="M89.8002 98.1264C89.2828 96.6682 87.1189 96.8093 87.1189 96.8093H78.6987V96.2448C78.6517 95.8685 78.7928 95.5392 79.028 95.2569C79.3102 95.0688 79.6866 94.9747 80.0629 94.9747H84.814V93.7516H80.0629C79.3573 93.7046 78.6987 93.8928 78.1342 94.2691C77.7109 94.7395 77.4757 95.351 77.5227 96.0096V98.0323H87.5893C88.4831 98.0323 88.9535 98.5498 89.0006 99.1142C89.0476 99.3494 89.0476 99.6317 89.0006 99.8669H77.3345C77.0523 99.8669 76.7701 99.7258 76.5819 99.5376C76.3937 99.2554 76.2997 98.879 76.2997 98.5027V87.5894H75.0296V98.5027C74.9825 99.2083 75.1707 99.8669 75.547 100.431C75.9233 100.808 76.4408 100.996 77.0053 100.996H78.3224C79.9218 100.996 82.2738 101.043 82.9323 101.043C85.8489 101.043 87.8245 101.043 87.9657 100.996H89.9414C90.0354 100.008 90.0825 98.4086 89.8002 98.1264Z" fill="#A1A1A1"/>
<path d="M35.6098 102.313H34.3867V103.536H35.6098V102.313Z" fill="#A1A1A1"/>
<path d="M47.2284 87.6362V98.5496C47.2284 98.9259 47.1343 99.2552 46.9462 99.5845C46.711 100.008 44.9705 99.8667 44.6412 99.9138H43.9826C43.7945 99.6315 43.7004 99.2552 43.7004 98.8789V87.6833H42.4773V98.8789C42.4773 99.2082 42.5244 99.5845 42.5714 99.9138H40.1724V101.137H42.4773L46.4287 101.09C46.9462 101.09 47.5107 100.902 47.887 100.525C48.2633 100.149 48.4044 99.4904 48.4044 98.5966V87.6833H47.2284V87.6362Z" fill="#A1A1A1"/>
<path d="M39.3259 100.008V96.3855V96.2914C39.2318 95.5858 38.9025 94.9743 38.3851 94.5039L37.4913 95.3506C37.7735 95.6329 37.9617 96.0092 38.0087 96.3855C38.0558 96.6678 38.0558 99.7724 38.0558 100.008H31.2349V96.3855H29.9648V101.184H39.3729" fill="#A1A1A1"/>
<path d="M72.3481 91.6348H71.125V92.8578H72.3481V91.6348Z" fill="#A1A1A1"/>
<path d="M54.3788 91.6348H53.1558V92.8578H54.3788V91.6348Z" fill="#A1A1A1"/>
<path d="M67.1737 102.313H65.9507V103.536H67.1737V102.313Z" fill="#A1A1A1"/>
<path d="M65.6684 102.313H64.4453V103.536H65.6684V102.313Z" fill="#A1A1A1"/>
<path d="M61.623 102.313H60.3999V103.536H61.623V102.313Z" fill="#A1A1A1"/>
<path d="M60.0707 102.313H58.8477V103.536H60.0707V102.313Z" fill="#A1A1A1"/>
<path d="M73.9476 99.9139V96.433C73.9946 95.8214 73.7594 95.2099 73.3361 94.7395C72.9598 94.2691 72.3953 93.9869 71.7838 94.0339C71.1722 94.0339 70.6077 94.2691 70.2314 94.6925C69.8551 95.1629 69.6199 95.8214 69.6669 96.433V99.9139H68.3498V96.1507C68.2557 95.4451 67.9264 94.8336 67.409 94.3632L66.5152 95.2099C66.7975 95.4922 66.9856 95.8685 67.0327 96.2448C67.0797 96.527 67.0797 99.8669 67.0797 99.8669H62.799V96.1507C62.705 95.4451 62.3757 94.8336 61.8582 94.3632L60.9645 95.2099C61.2467 95.4922 61.4349 95.8685 61.4819 96.2448C61.5289 96.527 61.5289 99.8669 61.5289 99.8669H57.1072V96.3389H55.8371V99.8669H52.0738V96.2448V96.1507C51.9797 95.4451 51.6505 94.8336 51.133 94.3632L50.2393 95.2099C50.5215 95.4922 50.7097 95.8685 50.7567 96.2448C50.8037 96.527 50.8037 99.6317 50.8037 99.8669V101.043H74.5591V99.9139H73.9476ZM72.6775 99.9139H70.8429V96.3389C70.8429 95.4922 71.1252 95.0688 71.7367 95.0688C72.3482 95.0688 72.6305 95.4922 72.6305 96.3389V99.9139H72.6775Z" fill="#A1A1A1"/>
<path d="M31.8935 108.852H31.329V108.099C31.329 107.864 31.282 107.628 31.2349 107.393C31.1879 107.252 31.0938 107.205 30.9056 107.205C30.7645 107.205 30.6234 107.299 30.5764 107.44C30.5293 107.676 30.5293 107.864 30.5293 108.099V111.58C30.5293 111.815 30.5293 112.097 30.5764 112.333C30.6234 112.474 30.7645 112.615 30.9056 112.615C31.0468 112.615 31.2349 112.521 31.282 112.38C31.329 112.144 31.3761 111.956 31.3761 111.721V110.733H31.9405V111.721C31.9405 112.615 31.6113 113.085 30.9527 113.085C30.2941 113.085 29.9648 112.615 29.9648 111.674V108.193C29.9648 107.252 30.2941 106.782 30.9527 106.782C31.6113 106.782 31.9405 107.252 31.9405 108.193V108.899L31.8935 108.852Z" fill="#A1A1A1"/>
<path d="M39.0433 110.122V113.085H38.4789V110.122H38.2437V109.651H38.4789V108.193C38.4789 107.817 38.5259 107.487 38.7141 107.158C38.9022 106.923 39.1845 106.782 39.5137 106.829H40.0312V107.299H39.6078C39.4197 107.252 39.2315 107.346 39.1374 107.487C39.0433 107.723 39.0433 107.958 39.0433 108.193V109.651H39.9371V110.122H39.0433Z" fill="#A1A1A1"/>
<path d="M43.1361 110.122V113.085H42.5716V110.122H42.3364V109.651H42.5716V108.193C42.5716 107.817 42.6187 107.487 42.8068 107.158C42.995 106.923 43.2772 106.782 43.6065 106.829H44.124V107.299H43.7476C43.5595 107.252 43.3713 107.346 43.2772 107.487C43.1832 107.723 43.1832 107.958 43.1832 108.193V109.651H44.0769V110.122H43.1361Z" fill="#A1A1A1"/>
<path d="M48.2636 112.568V113.038C47.9814 113.038 47.7932 113.085 47.6991 113.085C47.2758 113.085 46.9935 112.991 46.8524 112.756C46.6642 112.473 46.5702 112.097 46.6172 111.768V110.121H46.335V109.651H46.5702V108.193C46.5702 107.816 46.6172 107.487 46.8054 107.158C46.9935 106.923 47.3228 106.829 47.605 106.829H48.1225V107.299C47.9814 107.299 47.8403 107.252 47.6991 107.252C47.511 107.205 47.2758 107.299 47.1817 107.487C47.1346 107.722 47.1346 107.911 47.1346 108.146V109.604H48.0284V110.074H47.1346V111.768C47.1346 111.956 47.1346 112.144 47.2287 112.332C47.3228 112.52 47.511 112.568 47.7932 112.568C48.0284 112.662 48.1225 112.615 48.2636 112.568Z" fill="#A1A1A1"/>
<path d="M52.3557 112.568V113.038C52.0735 113.038 51.8853 113.085 51.7912 113.085C51.3679 113.085 51.0856 112.991 50.9445 112.756C50.7564 112.473 50.6623 112.097 50.7093 111.768V110.121H50.4741V109.651H50.7093V108.193C50.7093 107.816 50.7564 107.487 50.9445 107.158C51.1327 106.923 51.462 106.829 51.7442 106.829H52.2617V107.299C52.1205 107.299 51.9794 107.252 51.8383 107.252C51.6501 107.205 51.4149 107.299 51.3208 107.487C51.2738 107.722 51.2738 107.911 51.2738 108.146V109.604H52.1676V110.074H51.2738V111.768C51.2738 111.956 51.2738 112.144 51.3679 112.332C51.462 112.52 51.6501 112.568 51.9324 112.568C52.0735 112.662 52.1676 112.615 52.3557 112.568Z" fill="#A1A1A1"/>
<path d="M34.9981 106.734C34.3395 106.734 34.0103 107.205 34.0103 108.146V111.721C34.0103 112.661 34.3395 113.132 34.9981 113.132C35.6567 113.132 35.9859 112.661 35.9859 111.721V108.193C35.9859 107.252 35.6567 106.781 34.9981 106.734ZM35.4215 109.416V111.768C35.4215 112.003 35.4215 112.191 35.3744 112.426C35.3274 112.567 35.1863 112.661 35.0451 112.661C34.904 112.661 34.7629 112.614 34.7159 112.473C34.6688 112.238 34.6218 112.003 34.6218 111.768V111.062V108.146C34.6218 107.91 34.6218 107.722 34.6688 107.487C34.7159 107.346 34.857 107.252 34.9981 107.252C35.1392 107.252 35.2803 107.299 35.3274 107.44C35.3744 107.675 35.4215 107.91 35.4215 108.146V109.416Z" fill="#A1A1A1"/>
<path d="M81.3328 112.568V113.038C81.0505 113.038 80.8624 113.085 80.7683 113.085C80.3449 113.085 80.0627 112.991 79.9216 112.756C79.7334 112.473 79.6393 112.097 79.6864 111.768V110.121H79.4512V109.651H79.6864V108.193C79.6864 107.816 79.7334 107.487 79.9216 107.158C80.1097 106.923 80.439 106.829 80.7213 106.829H81.2387V107.299C81.0976 107.299 80.9565 107.252 80.8153 107.252C80.6272 107.205 80.392 107.299 80.2979 107.487C80.2509 107.722 80.2509 107.911 80.2509 108.146V109.604H81.1446V110.074H80.2509V111.768C80.2509 111.956 80.2509 112.144 80.3449 112.332C80.439 112.52 80.6272 112.568 80.9094 112.568C81.0976 112.662 81.2387 112.615 81.3328 112.568Z" fill="#A1A1A1"/>
<path d="M76.3467 106.829H75.7823H75.0767V107.346H75.7823V113.085H76.3467V107.346H77.0524V106.829H76.3467Z" fill="#A1A1A1"/>
<path d="M66.2798 109.51H66.515V107.911C66.515 107.628 66.6091 107.346 66.7972 107.111C66.9854 106.923 67.2206 106.829 67.5028 106.829C67.7851 106.829 68.0203 106.923 68.2084 107.158C68.3966 107.393 68.4907 107.675 68.4907 107.958V113.132H67.9732V110.074H67.1265V113.132H66.562V110.121H66.3268V109.51H66.2798ZM67.1265 107.816V109.463H67.9732V107.816C67.9732 107.44 67.8321 107.252 67.5499 107.252C67.3147 107.252 67.1736 107.44 67.1265 107.816Z" fill="#A1A1A1"/>
<path d="M63.0811 106.734C62.4225 106.734 62.0933 107.205 62.0933 108.146V111.721C62.0933 112.661 62.4225 113.132 63.0811 113.132C63.7397 113.132 64.069 112.661 64.069 111.721V108.193C64.069 107.252 63.7397 106.781 63.0811 106.734ZM63.4574 109.416V111.768C63.4574 112.003 63.4574 112.191 63.4104 112.426C63.3634 112.567 63.2222 112.661 63.0811 112.661C62.94 112.661 62.7989 112.614 62.7518 112.473C62.7048 112.238 62.6577 112.003 62.6577 111.768V111.062V108.146C62.6577 107.91 62.6577 107.722 62.7048 107.487C62.7518 107.346 62.8929 107.252 63.0341 107.252C63.1752 107.252 63.3163 107.299 63.3634 107.44C63.4104 107.675 63.4574 107.91 63.4574 108.146V109.416Z" fill="#A1A1A1"/>
<path d="M59.0829 109.792C59.224 109.698 59.3652 109.557 59.5063 109.416C59.6004 109.275 59.6474 109.087 59.6474 108.898V108.005C59.6474 107.675 59.5533 107.346 59.3652 107.111C59.177 106.923 58.8948 106.829 58.6125 106.829H57.7188V113.085H58.2832V110.027H58.5655C58.7536 110.027 58.8948 110.121 58.9888 110.263C59.0829 110.451 59.13 110.639 59.13 110.874V112.897V112.991H59.6944V110.921C59.7415 110.451 59.5063 110.027 59.0829 109.792ZM58.9418 109.322C58.8477 109.463 58.6596 109.51 58.5184 109.51H58.3303V107.252H58.5655C58.7066 107.252 58.8477 107.299 58.9418 107.44C59.0359 107.581 59.0829 107.769 59.0829 107.958V108.757C59.13 108.945 59.0829 109.181 58.9418 109.322Z" fill="#A1A1A1"/>
<path d="M85.0492 109.792C85.1904 109.698 85.3315 109.557 85.4726 109.416C85.5667 109.275 85.6137 109.087 85.6137 108.898V108.005C85.6137 107.675 85.5196 107.346 85.3315 107.111C85.1433 106.923 84.8611 106.829 84.5788 106.829H83.6851V113.085H84.2495V110.027H84.5318C84.7199 110.027 84.8611 110.121 84.9552 110.263C85.0492 110.451 85.0963 110.639 85.0963 110.874V112.897V112.991H85.6608V110.921C85.7548 110.451 85.4726 109.98 85.0492 109.792ZM84.9081 109.322C84.814 109.463 84.6259 109.51 84.4848 109.51H84.2966V107.252H84.5318C84.6729 107.252 84.814 107.299 84.9081 107.44C85.0022 107.581 85.0492 107.769 85.0492 107.958V108.757C85.0963 108.945 85.0492 109.181 84.9081 109.322Z" fill="#A1A1A1"/>
<path d="M72.3479 110.027C72.1597 109.886 71.9715 109.792 71.7363 109.792H71.6422C71.5011 109.792 71.407 109.698 71.36 109.604C71.313 109.369 71.2659 109.133 71.2659 108.898V108.099C71.2659 107.863 71.2659 107.675 71.313 107.44C71.4541 107.252 71.6893 107.205 71.9245 107.205H72.3479V106.734H71.8304C71.5011 106.734 71.1718 106.828 70.9366 107.017C70.7485 107.299 70.6544 107.675 70.7014 108.004V108.804C70.6544 109.228 70.7485 109.651 71.0307 109.98C71.2189 110.121 71.407 110.215 71.6422 110.215H71.7363C71.8774 110.215 71.9715 110.309 72.0186 110.404C72.0656 110.639 72.1127 110.874 72.1127 111.109V111.627C72.1127 111.862 72.1127 112.097 72.0186 112.285C71.9715 112.426 71.6893 112.52 71.407 112.52H70.9837V112.991H71.5011C71.8304 113.038 72.1597 112.897 72.3949 112.661C72.536 112.426 72.6301 112.191 72.6301 111.909V111.109C72.7242 110.733 72.6301 110.309 72.3479 110.027Z" fill="#A1A1A1"/>
<path d="M89.7058 110.027C89.5176 109.886 89.3294 109.792 89.0942 109.792H89.0002C88.859 109.792 88.765 109.698 88.7179 109.604C88.6709 109.369 88.6238 109.133 88.6238 108.898V108.099C88.6238 107.863 88.6238 107.675 88.6709 107.44C88.812 107.252 89.0472 107.205 89.2824 107.205H89.7058V106.734H89.1883C88.859 106.734 88.5298 106.828 88.2946 107.017C88.1064 107.299 88.0123 107.675 88.0594 108.004V108.804C88.0123 109.228 88.1064 109.651 88.3886 109.98C88.5768 110.121 88.765 110.215 89.0002 110.215H89.0942C89.2354 110.215 89.3294 110.309 89.3765 110.404C89.4235 110.639 89.4706 110.874 89.4706 111.109V111.627C89.4706 111.862 89.4706 112.097 89.3765 112.285C89.3294 112.426 89.0472 112.52 88.765 112.52H88.3416V112.991H88.859C89.1883 113.038 89.5176 112.897 89.7528 112.661C89.8939 112.426 89.988 112.191 89.988 111.909V111.109C90.035 110.733 89.941 110.356 89.7058 110.027Z" fill="#A1A1A1"/>
<path d="M33.3044 36.9735C33.3044 36.9735 28.7885 32.3636 31.658 24.2256C31.705 24.2256 34.7156 27.9888 33.3044 36.9735Z" fill="#A1A1A1"/>
<path d="M33.4927 35.7039C33.822 34.4338 34.2924 33.1637 34.8569 31.9877C35.3743 29.9179 35.8447 27.4248 35.7036 25.355C34.5276 25.7313 33.6338 26.6251 33.2104 27.754C33.7749 30.3883 33.869 33.0696 33.4927 35.7039Z" fill="#A1A1A1"/>
<path d="M45.0647 62.5636C45.0647 62.5636 39.9844 64.1159 37.209 60.2116C37.209 60.1646 42.1012 59.2708 45.0647 62.5636Z" fill="#A1A1A1"/>
<path d="M37.303 52.7791C39.8902 49.5804 39.9372 44.9704 37.35 41.7246C37.303 41.7246 34.4805 46.3816 37.303 52.7791Z" fill="#A1A1A1"/>
<path d="M37.3032 52.6853C37.3032 52.6853 31.5172 52.8264 29.4004 45.8174C29.4004 45.8174 34.0103 46.57 37.3032 52.6853Z" fill="#A1A1A1"/>
<path d="M33.2573 36.9737C33.2573 36.9737 40.1252 32.9753 38.5258 26.1074C38.5729 26.1545 33.9629 31.7523 33.2573 36.9737Z" fill="#A1A1A1"/>
<path d="M37.2559 23.238C37.2559 23.238 42.3363 17.4991 40.4077 12.8892C40.4077 12.8892 35.1391 16.7935 37.2559 23.238Z" fill="#A1A1A1"/>
<path d="M39.373 20.7448C39.373 20.7448 43.8418 18.8632 45.5353 19.7569C45.5353 19.7569 44.5945 23.6613 37.3032 23.1909C37.3503 23.1909 38.3851 21.1682 39.373 20.7448Z" fill="#A1A1A1"/>
<path d="M45.9585 14.065C45.9585 14.065 47.6049 8.232 53.7202 7.10303C53.7202 7.10303 51.7915 13.3594 45.9585 14.065Z" fill="#A1A1A1"/>
<path d="M46.0995 14.0181H46.0524L46.0054 14.0651C46.0524 14.0651 46.0995 14.0651 46.0995 14.0181Z" fill="#A1A1A1"/>
<path d="M52.2149 10.0197C51.2741 11.4309 50.004 12.5599 48.4517 13.3125C49.3454 13.1714 50.2862 13.1244 51.18 13.1244C53.2498 12.5129 55.3196 11.478 56.2133 9.78451C56.2133 9.78451 54.8021 9.12595 52.2149 10.0197Z" fill="#A1A1A1"/>
<path d="M48.4516 13.3124C47.699 13.6416 46.8993 13.8768 46.0996 14.018C48.7339 15.8525 52.2619 15.8525 54.8962 14.018C52.9205 12.889 49.8628 13.1242 48.4516 13.3124Z" fill="#A1A1A1"/>
<path d="M39.3728 20.7446C39.3728 20.7446 40.1724 20.4153 41.2073 20.0861C42.7126 18.5808 44.1238 16.7462 44.359 14.9116C43.0419 15.1468 41.7718 15.7113 40.7369 16.6051C40.4076 18.2515 39.702 19.8038 38.7612 21.168C38.9494 21.0269 39.1376 20.8857 39.3728 20.7446Z" fill="#A1A1A1"/>
<path d="M37.115 52.356C36.2213 50.1921 35.892 47.793 36.1742 45.441C35.5157 43.6065 34.4808 41.96 33.1166 40.5488C32.458 42.8538 32.458 45.3469 33.1637 47.6519C34.8101 48.922 36.1272 50.5214 37.115 52.356Z" fill="#A1A1A1"/>
<path d="M37.1621 52.6851C37.2091 52.7321 37.2562 52.7321 37.3032 52.7791C37.3032 52.7321 37.2562 52.7321 37.2562 52.6851H37.1621Z" fill="#A1A1A1"/>
<path d="M39.608 60.0706C40.4548 60.1176 41.3015 60.3058 42.1012 60.588C41.1133 59.7413 40.3137 58.7064 39.7962 57.5304C37.9146 56.5896 37.0679 57.3893 37.0679 57.3893C37.7735 58.4242 38.6672 59.3179 39.608 60.0706Z" fill="#A1A1A1"/>
<path d="M45.0648 62.5168C45.0177 62.5168 45.0177 62.4697 44.9707 62.4697L45.0648 62.5168Z" fill="#A1A1A1"/>
<path d="M42.1483 60.5881C43.2302 60.9644 44.218 61.623 45.0177 62.4697C45.1588 62.5167 45.3 62.6108 45.4411 62.6579C45.4411 62.6579 43.8887 56.5426 39.3258 54.2847C39.3258 54.3317 38.8084 57.6716 42.1483 60.5881Z" fill="#A1A1A1"/>
<path d="M70.2783 13.077C67.644 11.9481 64.6805 11.854 61.9521 12.7948C61.9521 12.7948 64.116 16.2287 70.2783 13.077Z" fill="#A1A1A1"/>
<path d="M81.333 20.4157C81.333 20.4157 76.2527 16.1821 71.8779 17.1699C74.1829 19.9453 77.8521 21.1684 81.333 20.4157Z" fill="#A1A1A1"/>
<path d="M86.4131 34.1984C86.4131 34.1984 79.5452 29.3062 82.1324 21.9209C82.0854 21.9679 86.4131 25.8723 86.4131 34.1984Z" fill="#A1A1A1"/>
<path d="M83.5905 51.5562C83.5905 51.5562 88.1064 47.2285 86.2718 39.4668C86.2718 39.4668 82.7908 41.9129 83.5905 51.5562Z" fill="#A1A1A1"/>
<path d="M74.6533 61.1996C74.6533 61.1996 77.0053 56.7778 80.6274 54.8491C81.286 55.7899 78.6047 59.9765 74.6533 61.1996Z" fill="#A1A1A1"/>
<path d="M83.3554 51.415C82.6028 52.8263 81.7561 54.0963 80.7212 55.3194L83.3554 51.415Z" fill="#A1A1A1"/>
<path d="M81.7563 20.6509C82.4149 21.6858 82.9794 22.7677 83.4498 23.8967L81.7563 20.6509Z" fill="#A1A1A1"/>
<path d="M81.7561 20.6509C81.7561 20.6509 81.7561 12.3718 76.2994 11.9955C76.2994 11.9484 75.6879 16.6525 81.7561 20.6509Z" fill="#A1A1A1"/>
<path d="M68.0204 12.3717C66.5621 11.666 65.245 10.7252 64.116 9.54923C62.7519 9.31403 61.3877 9.45515 60.1176 9.92555C60.1176 9.92555 60.0235 10.49 61.3877 11.5249C61.9051 11.9012 62.4696 12.2305 63.0811 12.5128C64.7276 12.0894 66.374 12.0424 68.0204 12.3717Z" fill="#A1A1A1"/>
<path d="M63.5517 8.93745C64.8218 10.3487 66.327 11.5247 68.0205 12.3714C68.7261 12.5125 69.4317 12.7007 70.0903 12.9829H70.1373C68.8672 7.52624 62.3286 6.86768 62.3286 6.86768L62.6109 7.52624C62.8461 8.04368 63.1753 8.51409 63.5517 8.93745Z" fill="#A1A1A1"/>
<path d="M80.9096 20.086H81.0037C77.6638 17.6399 76.6759 15.0057 76.3937 13.4533C75.594 12.9829 74.7473 12.7007 73.8535 12.5596C73.8535 12.5596 74.1358 15.4761 75.4999 17.3106C77.4756 17.9222 79.3102 18.863 80.9096 20.086Z" fill="#A1A1A1"/>
<path d="M85.9896 22.4852C85.0959 23.5201 85.0488 25.684 85.0488 26.7659C85.8956 29.0709 86.366 31.517 86.366 34.0101C89.2825 29.7295 87.2127 21.1211 85.9896 22.4852Z" fill="#A1A1A1"/>
<path d="M81.7564 27.2366C80.8155 26.531 79.7807 25.9195 78.6987 25.4961C79.1221 31.6113 85.1433 33.7282 86.2252 34.0574C85.3785 33.3989 82.556 30.9528 81.7564 27.2366Z" fill="#A1A1A1"/>
<path d="M90.3646 41.8188C88.8593 42.6185 87.5422 43.7945 86.5544 45.1587C85.9428 48.9219 83.9671 51.1328 83.6379 51.4151C83.6379 51.4621 83.6379 51.5092 83.5908 51.5562C83.5908 51.5562 92.0581 45.441 90.3646 41.8188Z" fill="#A1A1A1"/>
<path d="M83.638 45.676C83.2616 41.4423 82.1327 40.9249 82.1327 41.113C82.0856 42.6183 81.8975 42.6183 81.9445 45.3937C82.0386 49.4392 83.2616 51.0856 83.5909 51.4619C83.4027 49.5333 83.4498 47.6046 83.638 45.676Z" fill="#A1A1A1"/>
<path d="M83.5908 51.4622L83.6379 51.5093V51.3682C83.6379 51.4622 83.5908 51.4622 83.5908 51.4622Z" fill="#A1A1A1"/>
<path d="M79.9217 57.2952C79.8746 57.2952 79.8276 57.3423 79.7806 57.3893C79.122 58.2831 78.3694 59.0828 77.4756 59.7413C78.6046 59.318 79.7335 59.0828 80.9095 58.9887C81.9915 58.4713 82.8852 57.6245 83.4968 56.5896C82.4619 56.3544 80.9566 56.8719 79.9217 57.2952Z" fill="#A1A1A1"/>
<path d="M77.4757 59.7413C76.629 60.3528 75.6882 60.8703 74.6533 61.1996C74.6533 61.1996 82.9795 62.3285 83.9203 59.2709C83.9203 59.2709 81.1449 58.3771 77.4757 59.7413Z" fill="#A1A1A1"/>
<path d="M83.4024 51.3682C83.4024 51.3682 83.5435 51.4152 83.4964 51.4152L83.4494 51.3682L83.2612 51.2741V51.3211H83.1672L83.4024 51.2271V51.3682H83.4494C83.4494 51.3211 83.4494 51.3211 83.4024 51.3682H83.4494C83.4964 51.3211 83.4964 51.3682 83.4024 51.3682H83.2612V51.4152H83.3083L83.2612 51.4623C83.2612 51.5093 83.3083 51.5093 83.3553 51.5093L83.4964 51.3682C83.4964 51.3682 83.5435 51.3682 83.4494 51.3211C83.4964 51.3682 83.4964 51.3682 83.4024 51.3682H83.4964C83.4964 51.3211 83.4964 51.3211 83.4024 51.3682C83.4494 51.3211 83.4964 51.3211 83.5435 51.3211L83.4024 51.3682L83.2142 51.2271V51.2741H83.1672L83.1201 51.3211L83.4024 51.3682Z" fill="#A1A1A1"/>
<path d="M37.4912 52.7323V52.7793L37.3971 52.6852L37.4912 52.7323H37.3971L37.6323 52.5441L37.5853 52.5912H37.4442C37.6323 52.7323 37.6323 52.7323 37.4912 52.7323L37.3501 52.6852H37.3971V52.7323H37.4912L37.3971 52.7793C37.4442 52.7793 37.3971 52.8734 37.4912 52.8264C37.5383 52.8264 37.5383 52.8264 37.5383 52.7793H37.6323L37.7735 52.6852C37.8675 52.6382 37.8675 52.6382 37.8205 52.6382H37.7735C37.8205 52.6382 37.8205 52.6382 37.8675 52.5912L37.7735 52.6382H37.7264L37.7735 52.5912L37.6323 52.4971V52.5912H37.5853C37.5383 52.5441 37.5383 52.5912 37.5383 52.5912C37.5383 52.5912 37.4912 52.5912 37.5383 52.6382C37.4912 52.6382 37.4912 52.6852 37.4442 52.6852L37.4912 52.7323Z" fill="#A1A1A1"/>
<path d="M75.1236 41.4428C72.9597 38.3381 70.1373 35.7038 66.8445 33.8222C66.7034 33.7752 66.28 23.144 66.28 23.144C66.6093 21.6858 67.3619 20.6039 66.3741 18.6752C65.4333 18.6282 60.6351 18.2989 57.6716 18.2048C56.2134 18.1578 54.7081 18.3459 53.2969 18.7693L51.3212 19.5219C51.3212 19.5219 51.3682 22.8618 51.9327 23.6145C51.9327 23.6145 52.262 31.4702 52.262 32.9755C52.262 34.4808 51.9327 34.5749 51.9327 34.5749C50.4274 34.8101 42.0542 40.6431 42.0542 48.0754C42.1483 53.0147 43.6065 57.8598 46.2408 62.0464C46.7582 62.7991 47.0875 62.705 47.3227 62.658C47.5579 62.6109 51.5093 62.658 52.0268 62.6109C52.5442 62.5639 54.0025 62.6109 54.3317 62.6109C54.661 62.6109 64.1632 62.7991 64.4454 62.7991C64.7277 62.7991 72.2541 62.4228 72.4893 62.3757C72.9127 62.2346 73.289 62.0935 73.6653 61.9053C77.8519 56.0253 78.6046 46.6172 75.1236 41.4428ZM76.8641 50.8038C76.817 51.1801 76.817 51.5564 76.77 51.9328L76.6289 53.0617C76.3937 54.4729 76.0644 55.8371 75.594 57.2013C75.4058 57.7658 75.2177 58.1891 75.0765 58.5184C75.0295 58.6595 74.9354 58.8477 74.8413 58.9888V59.0359C74.6532 59.4592 74.465 59.8826 74.2769 60.2589C74.1828 60.4941 74.0417 60.6823 73.9476 60.9175C73.8065 61.1056 73.6653 61.2938 73.4772 61.4349C73.242 61.6231 73.0068 61.7642 72.7245 61.9053C72.4423 61.9994 72.2071 62.0935 71.9248 62.1876C70.937 62.1876 69.9962 62.1876 69.0083 62.1405H64.7747C64.3984 62.1405 63.975 62.1405 63.5987 62.1876C62.7049 62.1876 61.7641 62.2346 60.9174 62.2346C60.0707 62.2346 59.5532 62.1876 58.8006 62.1405H58.3772C57.9068 62.2346 57.3894 62.2346 56.919 62.1876H54.0495C53.1557 62.1405 52.309 62.1876 51.4152 62.2816C50.8507 62.2346 50.5215 62.1876 50.004 62.1405H48.5458C48.1694 62.1876 47.7461 62.1876 47.3698 62.1876H47.3227L47.2757 62.1405C47.2286 62.0464 47.1346 61.9524 47.0405 61.8583C46.9934 61.8112 46.9464 61.7642 46.8994 61.6701C46.8523 61.6231 46.8053 61.529 46.7112 61.482C46.6171 61.4349 46.5701 61.3408 46.523 61.2468C46.476 61.1527 46.3819 61.1056 46.3349 61.0116C46.2878 60.9175 46.3349 60.7293 46.2878 60.6352C46.2408 60.5411 46.1467 60.4471 46.0997 60.353C45.6763 59.7415 45.347 59.0829 45.0648 58.4243C44.6885 57.6246 44.3592 56.825 44.0769 55.9782C43.8417 55.3667 43.7006 54.7552 43.5595 54.0966C43.5124 53.9555 43.4654 53.7673 43.4654 53.6262C43.3713 53.4851 43.2772 53.2969 43.2302 53.1558C43.2302 53.1558 43.1361 52.7795 43.042 52.262C42.948 51.7446 42.8539 50.992 42.7598 50.2863C42.6657 49.5807 42.6187 48.8281 42.5716 48.3106C42.5246 47.7932 42.5246 47.4169 42.5246 47.4169V47.2287L42.5716 47.1817C43.042 46.7583 43.6065 46.429 44.171 46.1468C44.5944 45.9586 45.0177 45.8175 45.4881 45.7705C45.6293 45.7705 45.7233 45.7705 45.8645 45.7234H46.1938C46.429 45.7234 46.6642 45.7705 46.8994 45.8175C47.3698 45.9116 47.8402 46.0998 48.2635 46.335C48.4987 46.429 48.6869 46.5702 48.8751 46.6642C49.0632 46.8054 49.2514 46.8994 49.4866 46.9935C49.9099 47.2287 50.3333 47.4169 50.7567 47.605C51.18 47.7932 51.6034 47.9343 52.0738 47.9814C52.309 48.0284 52.4972 48.0284 52.7324 47.9814C52.7794 47.9814 52.8264 47.9814 52.8735 47.9343C52.9205 47.9343 52.9676 47.8873 53.0146 47.8873C53.0616 47.8873 53.0616 47.8873 53.1087 47.8402L53.2028 47.7932L53.2969 47.7462L53.3909 47.6991C53.8143 47.511 54.2847 47.3698 54.7081 47.2287C55.4607 46.9935 56.0252 46.8524 56.5426 46.7113C57.0601 46.5702 57.6246 46.4761 58.142 46.429C58.2361 46.429 58.3302 46.429 58.3772 46.382C58.3772 46.382 58.6124 46.335 58.8006 46.2879L59.2239 46.1938C59.8825 46.0998 60.5881 46.0057 61.2467 45.9586H62.2816C62.6108 46.0057 62.9872 46.0527 63.3165 46.1468C63.4105 46.1468 63.4576 46.1938 63.5517 46.1938C63.7398 46.2409 63.928 46.2879 64.0691 46.382C64.1632 46.429 64.2573 46.429 64.3513 46.4761C64.4454 46.5231 64.5395 46.5231 64.6336 46.5702L65.7626 46.8524C67.1267 47.1346 68.5379 47.1346 69.8551 46.7583C70.2314 46.6642 70.5607 46.5231 70.8899 46.382C71.0311 46.335 71.1252 46.2409 71.2663 46.1938C71.3133 46.1468 71.4074 46.1468 71.4544 46.0998C71.5015 46.0527 71.5956 46.0527 71.6426 46.0057C71.9248 45.9116 72.2071 45.8646 72.4893 45.8175C73.0538 45.7705 73.5713 45.8175 74.1357 45.9116C74.6061 45.9586 75.0295 46.0527 75.4529 46.1938C75.9233 46.2879 76.3937 46.429 76.817 46.6642H76.77L76.8641 46.7113L76.817 46.8054H76.9582C76.9582 46.9935 76.9582 47.1346 77.0052 47.3228C77.0052 47.6521 77.0993 48.1225 77.0993 48.734V49.6748C76.9582 50.0511 76.9111 50.4275 76.8641 50.8038Z" fill="#A1A1A1"/>
<path d="M74.8414 41.3016C72.7245 38.1499 69.8551 35.5627 66.5622 33.6811C66.4211 33.6341 66.4211 21.874 66.4211 21.874C66.4211 21.874 66.9856 18.6752 66.4682 18.393C66.233 18.2989 65.9978 18.2519 65.7626 18.2519C65.7626 18.2519 60.7292 18.1578 57.3894 18.0637C55.9311 18.0167 54.4258 18.2048 53.0146 18.6282L51.3212 19.1456C51.3212 19.1456 50.9448 21.8269 51.6975 23.5204C51.6975 23.5204 51.9797 31.3291 51.9797 32.7873C51.9797 34.2456 51.6505 34.3867 51.6505 34.3867C50.1452 34.6219 41.772 40.4549 41.772 47.8873C41.8661 52.8265 43.3243 57.6717 45.9586 61.8583C46.476 62.6109 46.8053 62.5169 47.0405 62.4698C47.2757 62.4228 51.2271 62.4698 51.7445 62.4228C52.262 62.3757 53.7202 62.4228 54.0495 62.4228C54.3788 62.4228 63.8809 62.6109 64.1161 62.6109C64.3514 62.6109 71.9248 62.2346 72.16 62.1876C72.5834 62.0464 72.9597 61.9053 73.3361 61.7172C77.5697 55.8842 78.3694 46.4761 74.8414 41.3016ZM76.6289 50.7097C76.5818 51.086 76.5818 51.4624 76.5348 51.8387L76.3937 52.9677C76.1585 54.3789 75.8292 55.743 75.3588 57.1072C75.1706 57.6717 74.9825 58.0951 74.8414 58.4243C74.7943 58.5655 74.7002 58.7536 74.6062 58.8947V58.9418C74.418 59.3651 74.2298 59.7885 74.0417 60.1648C73.9476 60.4 73.8065 60.5882 73.7124 60.8234C73.5713 61.0116 73.4301 61.1997 73.242 61.3408C73.0068 61.529 72.7716 61.6701 72.4893 61.8112C72.2071 61.9053 71.9719 61.9994 71.6896 62.0935C70.7018 62.0935 69.761 62.0935 68.7731 62.0464H64.5395C64.1632 62.0464 63.7398 62.0464 63.3635 62.0935C62.4697 62.0935 61.5289 62.1405 60.6822 62.1405C59.8355 62.1405 59.318 62.0935 58.5654 62.0464H58.142C57.6716 62.1405 57.1542 62.1405 56.6838 62.0935H53.8143C52.9205 62.0464 52.0738 62.0935 51.18 62.1876C50.6156 62.1405 50.2863 62.0935 49.7688 62.0464H48.2165C47.8402 62.0935 47.4168 62.0935 47.0405 62.0935C47.0405 62.0935 44.2651 56.825 43.9829 55.8842C43.7006 54.9434 43.1361 53.2029 43.1361 53.0617C43.1361 53.0617 43.0421 52.6854 42.948 52.168C42.8539 51.6505 42.7598 50.8979 42.6657 50.1923C42.5717 49.4867 42.5246 48.734 42.4776 48.2166C42.4305 47.8403 42.4305 47.4639 42.4776 47.0876C42.8539 46.6642 43.2773 46.335 43.7947 46.0527C44.2181 45.8646 44.6414 45.7234 45.1118 45.6764C45.253 45.6764 45.347 45.6764 45.4882 45.6294H45.8174C46.0526 45.6294 46.2878 45.6764 46.523 45.7234C46.9935 45.8175 47.4639 46.0057 47.8872 46.2409C48.0754 46.335 48.3106 46.4761 48.4987 46.6172C48.6869 46.7583 48.8751 46.8524 49.1103 46.9465C49.5336 47.1817 49.957 47.3699 50.3804 47.558C50.8037 47.7462 51.2271 47.8873 51.6975 47.9343C51.9327 47.9814 52.1209 47.9814 52.3561 47.9343C52.4031 47.9343 52.4501 47.9343 52.4972 47.8873C52.5442 47.8873 52.5913 47.8403 52.6383 47.8403C52.6853 47.8403 52.6853 47.8403 52.7324 47.7932L52.8265 47.7462L52.9205 47.6991L53.0146 47.6521C53.438 47.4639 53.9084 47.3228 54.3318 47.1817C54.9433 46.9935 55.5548 46.8054 56.1663 46.6642C56.6838 46.5231 57.2483 46.429 57.7657 46.382C57.8598 46.382 57.9539 46.382 58.0009 46.335C58.0009 46.335 58.2361 46.2879 58.4243 46.2409C58.6124 46.1938 58.8476 46.1468 58.8476 46.1468C59.5062 46.0527 60.2118 45.9586 60.8704 45.9116C61.1996 45.9116 61.576 45.9116 61.9053 45.9586C62.2345 46.0057 62.6109 46.0527 62.9401 46.1468C63.0342 46.1468 63.0813 46.1938 63.1753 46.1938C63.3635 46.2409 63.5517 46.2879 63.6928 46.382C63.7869 46.429 63.8809 46.429 63.975 46.4761C64.0691 46.5231 64.1632 46.5231 64.2573 46.5702L65.3862 46.8524C66.7504 47.1346 68.1616 47.1346 69.4788 46.7583C69.8551 46.6642 70.1844 46.5231 70.5136 46.382C70.6548 46.335 70.7488 46.2409 70.89 46.1938C70.937 46.1468 71.0311 46.1468 71.0781 46.0998C71.1252 46.0527 71.2192 46.0527 71.2663 46.0057C71.5485 45.9116 71.8308 45.8646 72.113 45.8175C72.6775 45.7705 73.1949 45.8175 73.7594 45.9116C74.2298 45.9586 74.6532 46.0527 75.0766 46.1938C75.547 46.2879 76.0174 46.429 76.4407 46.6642H76.3937L76.4878 46.7113L76.4407 46.8054H76.5818C76.5818 46.9935 76.5818 47.1346 76.6289 47.3228C76.6289 47.6521 76.723 48.1225 76.723 48.734V49.6748C76.723 49.9571 76.6759 50.3334 76.6289 50.7097Z" fill="#A1A1A1"/>
<path d="M86.46 13.2184C86.46 14.2062 85.6603 15.0059 84.6725 15.0059C84.6725 15.0059 84.6725 15.0059 84.6254 15.0059C83.6376 15.0059 82.8379 14.1592 82.8379 13.1713C82.8379 12.1835 83.6376 11.3838 84.6254 11.3838C84.6254 11.3838 84.6254 11.3838 84.6725 11.3838C85.6603 11.4308 86.46 12.2305 86.46 13.2184ZM84.6725 14.8177C85.5662 14.8177 86.2718 14.1121 86.2718 13.2184C86.2718 12.3246 85.5662 11.619 84.6725 11.619C83.7787 11.619 83.026 12.3246 83.026 13.2184C83.0731 14.1121 83.7787 14.8177 84.6725 14.8177Z" fill="#A1A1A1"/>
<path d="M85.3311 13.7358C85.3311 13.5006 85.2841 13.3124 85.0489 13.2183C85.19 13.1713 85.2841 13.0772 85.3311 12.9361C85.4252 12.7009 85.3311 12.4186 85.0959 12.3245C85.0489 12.3245 85.0018 12.2775 84.9548 12.2775C84.8137 12.2305 84.6255 12.2775 84.4844 12.2305H84.061V14.065H84.2962V13.2654H84.8137C84.9548 13.2654 85.0489 13.3124 85.0489 13.4535C85.0489 13.5006 85.0489 13.5946 85.0959 13.6417C85.0959 13.7358 85.0959 13.8769 85.143 13.971C85.143 14.018 85.143 14.018 85.19 14.065H85.4722C85.3311 14.018 85.3311 13.8769 85.3311 13.7358ZM84.8137 13.1242H84.2962V12.5127H84.8137C85.0018 12.5127 85.0959 12.6538 85.0959 12.842C85.0959 13.0302 85.0018 13.1713 84.8137 13.1242Z" fill="#A1A1A1"/>
<path d="M76.7697 45.4882C76.4404 43.9359 75.8759 42.5247 74.9822 41.2075L74.6999 41.3957C75.3114 42.2895 75.7818 43.3243 76.1111 44.3592C76.1582 44.5944 76.2052 44.8767 76.2993 45.1119C76.3934 45.5352 76.4404 45.9116 76.5345 46.2879C76.0641 46.0997 75.5466 45.9586 75.0292 45.8645C74.5588 45.7704 74.0884 45.6764 73.618 45.6293C72.9124 45.4882 72.2068 45.5352 71.5482 45.6764L71.0308 45.8175C70.8896 45.8645 70.7015 45.9116 70.5604 46.0056C70.2781 46.1468 69.9959 46.2879 69.6666 46.382C68.3965 46.8053 67.0794 46.8524 65.7622 46.6172C65.433 46.5231 65.1507 46.382 64.7744 46.2879C64.5392 46.2409 64.304 46.1938 64.1158 46.1468C63.8806 46.0997 63.6454 46.0527 63.4102 45.9586C63.2691 45.9116 63.0809 45.8645 62.8928 45.8175C62.7046 45.7704 62.5635 45.7234 62.3753 45.7234C62.0461 45.6764 61.7168 45.6293 61.3875 45.6293C60.7289 45.5823 60.1174 45.6293 59.4588 45.6764C59.1295 45.7234 58.8473 45.7704 58.518 45.7704L57.5772 45.9116C56.9187 46.0056 56.2601 46.0997 55.6486 46.2879C54.8959 46.5231 54.1903 46.7583 53.4847 47.0405C53.2965 47.0876 53.1084 47.1817 52.9673 47.2287L52.685 47.3698C52.5909 47.4169 52.5439 47.4169 52.4498 47.4639C52.1205 47.558 51.7442 47.558 51.4149 47.4639C50.8975 47.3228 50.333 47.1346 49.8626 46.8524C49.157 46.5231 48.5455 46.0997 47.8399 45.7234C47.5106 45.5352 47.0872 45.3941 46.7109 45.3471C46.5227 45.3 46.2875 45.253 46.0994 45.253H45.5349C45.3467 45.253 45.1115 45.3 44.9234 45.3471L44.3589 45.4882C44.1707 45.5352 43.9825 45.6293 43.7944 45.7234C43.6062 45.8175 43.4181 45.9116 43.2769 46.0527C42.9477 46.2879 42.6654 46.5701 42.3832 46.8053C42.3361 46.8524 42.2891 46.8994 42.2891 46.9465V48.2636C42.3361 48.6399 42.3832 48.9692 42.3832 49.3455C42.4302 50.0511 42.5713 50.7567 42.7125 51.4153L42.8536 52.4031C42.9006 52.6383 42.9006 52.8265 42.9477 53.0617C43.0417 53.5321 43.2299 54.2377 43.371 54.7081C43.4651 55.0374 43.6062 55.3667 43.7473 55.696C43.7944 55.8371 43.8414 56.0252 43.8885 56.1664C43.9355 56.3075 43.9825 56.4486 44.0766 56.5897C44.3118 57.2013 44.547 57.8128 44.8763 58.3773C44.9234 58.3773 45.0174 58.4713 45.0645 58.5654C45.1115 58.6595 45.1115 58.6595 45.1586 58.7066C45.2526 58.9888 45.3938 59.3181 45.4878 59.6003C45.5819 59.6944 45.676 59.8355 45.723 59.9766C46.0053 60.7293 46.3816 61.4819 46.805 62.1875L46.852 62.2346C46.8991 62.2816 46.9461 62.3287 47.0402 62.3757H46.8991C46.7579 62.2816 46.5698 62.1875 46.4757 62.0464C46.3346 61.9053 46.2405 61.7171 46.1464 61.529C45.676 60.8234 45.2526 60.0707 44.9234 59.271C44.1707 57.7187 43.5592 56.1193 43.0888 54.4729C42.9947 54.1436 42.9477 53.8144 42.8536 53.5321C42.7595 53.2028 42.7125 52.9206 42.6654 52.5913C42.4773 51.5094 42.3361 50.4274 42.2421 49.3926C42.195 48.8751 42.195 48.3577 42.195 47.8402C42.195 47.3228 42.2421 46.8524 42.2891 46.3349L42.3361 45.9586C42.3361 45.8175 42.3832 45.7234 42.4302 45.5823L42.5243 45.206L42.6184 44.8767C42.7125 44.5944 42.8065 44.3122 42.9477 43.9829C43.2769 43.2303 43.6533 42.5247 44.0766 41.8191C44.3589 41.3957 44.5941 40.9253 44.9234 40.5019C45.2526 40.0786 45.4878 39.7963 45.7701 39.467C46.0523 39.1378 46.3346 38.8555 46.6168 38.5733C46.8991 38.291 47.2283 37.9617 47.7928 37.4443C47.7928 37.3973 47.9339 37.2561 47.981 37.1621L48.1691 36.9739C48.5455 36.6917 48.9218 36.4094 49.2981 36.1742C49.4863 36.0331 49.6274 35.892 49.7685 35.7508C50.0508 35.6097 50.38 35.3745 50.7564 35.1864L51.3208 34.9041C51.509 34.81 51.6972 34.763 51.8853 34.716H51.9324C51.9794 34.6689 51.9794 34.6689 52.0265 34.6689L52.0735 34.6219L52.1205 34.5748C52.1676 34.5278 52.1676 34.5278 52.1676 34.4808C52.1676 34.4337 52.2146 34.3867 52.2617 34.3396C52.3087 34.2926 52.3087 34.1515 52.3557 34.1044C52.4028 33.9633 52.4028 33.7752 52.4498 33.634V31.7054C52.4028 30.7175 52.3557 29.9178 52.2617 29.0711V28.6948C52.2617 27.754 52.2617 26.8132 52.3557 25.8724C52.3557 25.6842 52.3087 25.496 52.3087 25.3079C52.3087 24.8375 52.3087 24.1319 52.2617 23.4263C52.2617 23.3792 52.2617 23.3322 52.2146 23.3322C51.9324 22.6266 51.7442 21.921 51.6501 21.1683V20.1334C51.6972 19.8512 51.7442 19.569 51.7442 19.2867C52.3557 19.0986 52.9673 18.9104 53.5317 18.7222C54.0492 18.5811 54.6137 18.487 55.1311 18.3929C55.7897 18.2989 56.4482 18.2518 57.1068 18.2048C57.7654 18.1577 58.471 18.2048 59.1766 18.2518C60.5878 18.2989 61.999 18.2989 63.4102 18.3459H64.2099C64.7744 18.3929 65.3389 18.3929 65.9034 18.44H66.1386C66.2326 18.44 66.2797 18.487 66.3738 18.487C66.4678 18.487 66.4208 18.5341 66.4678 18.5341C66.5149 18.5341 66.5149 18.6281 66.5149 18.6752C66.5149 18.7693 66.5619 18.8163 66.5619 18.9104C66.609 19.3808 66.5619 19.8512 66.5149 20.3216C66.4678 20.792 66.4208 21.2624 66.3267 21.7328V21.7799C66.3267 22.5325 66.3738 23.2381 66.3738 23.8967V25.3549C66.3738 25.402 66.3267 25.3549 66.3267 25.402C66.3267 26.2487 66.3738 27.1895 66.3738 28.1303C66.3738 28.2244 66.3267 28.1303 66.3267 28.1303C66.3738 29.0241 66.3738 29.4945 66.2326 29.3063C66.2797 29.5415 66.2797 30.153 66.3267 30.4353C66.2797 31.282 66.2797 32.1758 66.3267 33.0225C66.3267 33.1636 66.3267 33.3518 66.3738 33.4929V33.634V33.6811C66.3738 33.7281 66.4208 33.7752 66.4678 33.8222L66.5149 33.8692H66.5619L66.656 33.9163L66.8442 34.0104C67.0794 34.1515 67.3146 34.2926 67.5498 34.3867C68.0202 34.6689 68.3965 34.9041 68.6787 35.0923C69.5725 35.7508 70.3722 36.4565 71.1719 37.1621C72.5831 38.4792 73.0535 39.1378 73.2417 39.1378C73.5239 39.467 73.8061 39.7963 74.0413 40.1726C74.3236 40.5019 74.5588 40.8782 74.794 41.2075L74.8881 41.1605L74.9351 41.2075V41.1605L75.1233 41.0664L75.0292 40.9253H75.0762C74.2766 39.7963 73.3828 38.7144 72.3949 37.7265C71.266 36.5035 69.9959 35.4216 68.6317 34.4808C68.1613 34.1515 67.6909 33.8692 67.1735 33.587L66.8912 33.4459V33.2107C66.8912 32.9284 66.8912 32.6932 66.8442 32.411L66.7971 30.8586C66.7971 29.8238 66.7501 28.7889 66.7501 27.7069C66.7501 26.625 66.7971 25.3079 66.7501 24.273V21.7799C66.8442 21.1213 66.9382 20.5098 66.9853 19.8512C66.9853 19.5219 66.9853 19.1926 66.9853 18.8634C66.9853 18.6752 66.9383 18.487 66.8442 18.2989C66.8442 18.2518 66.7971 18.2518 66.7971 18.2048C66.7501 18.2048 66.7501 18.2048 66.7031 18.1577C66.656 18.1577 66.609 18.1107 66.5619 18.1107C66.5149 18.1107 66.3738 18.0637 66.2797 18.0166C66.1386 17.9696 66.0445 17.9696 65.9034 18.0166H65.9504L64.9626 17.9696C64.8214 17.9696 64.7274 17.9696 64.5862 17.9225C62.8457 17.7344 61.1052 17.6403 59.3647 17.6403C58.7062 17.6403 58.0476 17.5933 57.3891 17.5933C56.7305 17.5933 56.0249 17.6403 55.3663 17.6873C54.6607 17.7814 54.0021 17.9225 53.3436 18.1107L51.4149 18.6752C51.2738 18.7222 51.1797 18.8163 51.1797 18.9574C51.0856 19.7101 51.0386 20.5098 51.0856 21.2624C51.0856 22.0151 51.2738 22.7677 51.556 23.4733C51.6031 24.9316 51.6972 26.3428 51.7913 27.7069C51.8383 28.7418 51.9324 29.7297 51.9794 30.7175L52.0265 32.5521C52.0265 32.8343 52.0265 33.1636 51.9794 33.4459C51.9794 33.587 51.9324 33.7281 51.8853 33.8692C51.8853 33.9163 51.8383 34.0104 51.8383 34.0574C51.8383 34.1044 51.7913 34.1044 51.7913 34.1515V34.1985C51.3679 34.2926 50.9916 34.4808 50.6623 34.716C50.286 34.9512 49.9567 35.1393 49.5804 35.4216C48.8747 35.892 48.2162 36.4564 47.6047 37.0209C47.2283 37.3032 46.8991 37.6325 46.5698 38.0088C46.3816 38.0088 45.4408 38.9025 44.547 40.0786C44.0766 40.6901 43.7003 41.3016 43.324 41.9602C43.0417 42.4776 42.8065 42.9951 42.6184 43.5125C42.6184 43.6066 42.6654 43.5125 42.6184 43.5595C42.4302 44.077 42.2421 44.5944 42.1009 45.1119C41.9598 45.7234 41.8187 46.382 41.7717 47.0405C41.7717 47.1817 41.7716 47.3698 41.7246 47.5109V49.5807C41.7246 49.7689 41.7246 49.957 41.7717 50.1452C41.7717 50.2863 41.8187 50.4745 41.8657 50.6156C41.9128 50.7567 41.9128 50.9449 41.9598 51.086C42.0069 51.4153 42.1009 51.6975 42.148 51.9327L42.3361 53.0147C42.4302 53.391 42.5243 53.7203 42.5713 54.0966C42.6184 54.4729 42.6654 54.7552 42.7125 55.0844C42.7595 55.4137 42.8536 55.743 42.9477 56.1664C43.2299 56.6368 43.5121 57.2013 43.7003 57.7187C44.0296 58.4243 44.3589 59.177 44.6411 59.7414C44.9704 60.4 45.3467 61.0586 45.723 61.7171C45.723 61.7642 45.7701 61.8112 45.723 61.8112C45.8171 61.9994 45.9112 62.1405 46.0523 62.2816C46.1934 62.4227 46.3816 62.5639 46.5698 62.6579C46.6638 62.705 46.805 62.752 46.9461 62.752C47.0402 62.752 47.1343 62.752 47.2283 62.705H47.6517C48.4043 62.752 49.157 62.705 49.8626 62.5639H50.4741C51.0386 62.5639 51.509 62.6109 52.0265 62.6109C52.5439 62.6109 53.0143 62.6579 53.6258 62.6579H59.4588L62.6105 62.705L64.2099 62.752C64.7744 62.752 65.2918 62.705 65.8093 62.705C66.9853 62.705 68.0672 62.6579 69.1962 62.5639C69.7607 62.5168 70.3252 62.5168 70.8896 62.4698C71.1719 62.4698 71.4541 62.4227 71.7834 62.4227C71.9245 62.4227 72.1127 62.4227 72.2538 62.3757H72.3949C72.442 62.3757 72.489 62.3287 72.5361 62.3287C72.5831 62.3287 72.6772 62.2816 72.7713 62.2346C73.0535 62.1405 73.2887 61.9994 73.618 61.8583C73.665 61.8583 73.665 61.8112 73.7121 61.8112C74.3236 60.9645 74.841 60.0237 75.2644 59.0358V58.9888C76.5815 56.1664 77.2871 53.1087 77.3342 50.0041C77.2871 48.4988 77.099 46.9935 76.7697 45.4882ZM47.981 62.3757H47.3224C47.5576 62.3757 47.8399 62.3757 48.0751 62.3287H48.1691C48.6395 62.3287 49.11 62.2816 49.5804 62.2346H49.7685L50.0037 62.2816C50.2389 62.3287 50.4741 62.3287 50.6623 62.3757H47.981ZM68.7728 62.3287C67.7379 62.4227 66.7971 62.4698 65.8093 62.4698C65.3389 62.4698 64.8685 62.5168 64.3981 62.5168H63.6925C63.4573 62.5168 63.2221 62.5168 62.9869 62.4698C62.3283 62.4227 61.6697 62.4227 60.9641 62.3757H61.6697C62.6105 62.3287 63.5513 62.3287 64.5392 62.2816H65.0566C65.48 62.2816 65.9034 62.3287 66.3738 62.3287H69.1962C69.0551 62.2816 68.9139 62.2816 68.7728 62.3287ZM72.3949 62.0935H72.3009C72.6772 61.9523 73.0535 61.7642 73.3357 61.4819C73.3828 61.4349 73.3357 61.529 73.3828 61.529L73.4298 61.4819C73.3828 61.576 73.3357 61.6231 73.2887 61.7171C73.0065 61.8583 72.7242 61.9523 72.3949 62.0935ZM74.1825 60.3059C74.2295 60.2589 74.2295 60.2118 74.2765 60.1648C74.2295 60.1648 74.1825 60.2118 74.1825 60.3059ZM76.6756 52.5913C76.6756 52.5443 76.6756 52.5443 76.6286 52.5443C76.7226 51.9798 76.7697 51.3683 76.8167 50.7567H76.7227V50.7097C76.7227 50.7567 76.7226 50.7567 76.6756 50.7567H76.4874V50.8508C76.4404 50.8508 76.4404 50.8508 76.4404 50.8038C76.4404 51.2742 76.3934 51.7446 76.2993 52.215C76.2522 52.6383 76.2052 53.1087 76.1111 53.5321C75.8289 54.52 75.5466 55.6019 75.2174 56.6838C75.1233 57.0131 74.9822 57.3424 74.841 57.7187L74.6529 58.1891C74.6058 58.3773 74.5117 58.5184 74.4177 58.6595C74.2765 58.9888 74.1354 59.271 73.9943 59.6003C73.8532 59.9296 73.665 60.2118 73.5239 60.4941C73.3357 60.7763 73.1005 61.0115 72.8653 61.1997C72.489 61.4349 72.0657 61.6231 71.6423 61.7171H68.5376C67.8791 61.7171 67.1735 61.7171 66.4678 61.7642H65.5741C65.48 61.7642 65.3859 61.7642 65.2918 61.7171C65.0096 61.6701 64.7274 61.6701 64.4451 61.6231C64.1629 61.576 63.9277 61.576 63.6454 61.576C63.128 61.576 62.5165 61.576 61.7168 61.6231C60.4937 61.6701 59.2707 61.576 58.0006 61.576H57.9065C57.8595 61.576 57.7183 61.6231 57.6243 61.6231H53.0143C52.685 61.6231 52.3087 61.6231 51.9794 61.6701C51.7913 61.6701 51.6501 61.6701 51.462 61.7171C51.2738 61.7171 51.1327 61.7642 50.9445 61.8112H50.6623C50.286 61.8112 49.9567 61.7642 49.5804 61.7642C49.2511 61.7642 48.9688 61.8112 48.6395 61.8112H48.2162L47.0872 61.8583C46.4757 60.6822 45.8642 59.4592 45.2526 58.2832C45.1586 58.0009 45.0174 57.7187 44.8293 57.4365C44.8763 57.3894 44.7822 57.1542 44.6882 56.8249C44.5941 56.4957 44.3589 56.0723 44.2648 55.6489C43.9825 54.7081 43.6062 53.6732 43.4651 53.1558C43.4181 53.1087 43.4181 53.1558 43.4181 53.1558C43.4181 53.1558 43.371 53.0147 43.371 52.9676C43.371 52.8735 43.324 52.8265 43.324 52.7324C43.2769 52.5443 43.2299 52.3561 43.2299 52.1679C43.1829 51.7446 43.0888 51.3212 43.0417 50.8978C42.9947 50.6626 42.9947 50.4745 42.9477 50.2863C42.9006 50.0982 42.9006 49.91 42.9006 49.7218C42.8536 49.4396 42.8536 49.1574 42.8536 48.8751C42.8065 48.687 42.7595 48.4517 42.7595 48.2636C42.7125 48.0754 42.7125 47.8402 42.6654 47.6991V47.1817L43.2299 46.6172C43.6062 46.429 44.0296 46.2879 44.453 46.1938C44.5941 46.0997 44.6882 46.0056 44.8293 45.9586C44.9234 45.9116 45.0174 45.9116 45.1115 45.8645C45.2056 45.8175 45.3467 45.8175 45.4878 45.8175C45.723 45.8175 45.9582 45.8175 46.1934 45.8175C46.4286 45.8645 46.6638 45.9116 46.852 45.9586C47.0402 46.0056 47.2754 46.0997 47.4635 46.1938C47.6047 46.2408 47.6987 46.2879 47.7928 46.382C47.9339 46.429 48.0751 46.5231 48.1691 46.6172L48.2162 46.6642L49.4863 47.3698H49.3922C49.8156 47.6521 50.286 47.8402 50.8034 47.8873L51.2268 48.0284C51.556 48.1695 51.9324 48.2165 52.3087 48.2165C52.4969 48.2165 52.685 48.1695 52.8732 48.0754C53.0143 47.9813 53.2025 47.9343 53.3906 47.8873C53.814 47.7461 54.1903 47.558 54.6137 47.4169L55.8838 46.9935C56.4012 46.8524 56.7305 46.8053 57.0127 46.7113L58.0476 46.5701C58.3769 46.5231 58.7532 46.429 59.0825 46.382C59.7881 46.2879 60.4937 46.2409 61.1993 46.2409C61.5757 46.2879 61.952 46.3349 62.3283 46.382L62.8457 46.5231L63.3632 46.6642C63.6925 46.7583 64.0688 46.8994 64.4922 46.9935C64.9155 47.0876 65.2918 47.1817 65.7152 47.2287C66.1856 47.2757 66.656 47.3228 67.1264 47.3228C67.5968 47.3228 68.0202 47.2757 68.4906 47.1817H68.5376C69.2432 47.0876 69.9018 46.8524 70.5133 46.5701C70.8426 46.429 71.1248 46.2879 71.4071 46.1938C71.7364 46.0997 72.0656 46.0527 72.3949 46.0527C72.7242 46.0527 73.0535 46.0527 73.3828 46.0997C73.7121 46.1468 74.0414 46.1938 74.3706 46.2879C74.9822 46.429 75.5937 46.6172 76.2052 46.8524L76.2522 46.8994C76.2522 46.9465 76.2993 47.0405 76.3463 47.0405H76.3934C76.4874 48.3106 76.5345 49.5337 76.4874 50.8038H76.8167V50.3804C76.8167 50.8038 76.8167 51.2742 76.7697 51.6975C76.7697 51.9798 76.7697 52.262 76.6756 52.5913Z" fill="#A1A1A1"/>
<path d="M90.3647 42.4774C90.3647 42.3363 90.3176 42.1952 90.2706 42.054C90.2235 41.9129 90.1765 41.7718 90.0824 41.6307L90.0354 41.7248V41.6307H89.9883C89.7531 41.7718 89.565 41.9129 89.3768 42.007C89.0946 42.1481 88.8594 42.2892 88.6242 42.4774C88.5301 42.5244 88.436 42.5715 88.389 42.6656C88.1067 42.9008 87.8245 43.136 87.5422 43.4182C87.4011 43.5593 87.26 43.7004 87.1189 43.8416L87.0718 43.8886C86.9307 44.0297 86.8366 44.1708 86.6955 44.312C86.5544 44.4531 86.5544 44.5001 86.4603 44.5942C86.4603 44.5001 86.5073 44.4061 86.5073 44.2649C86.5544 43.7475 86.5544 43.23 86.5073 42.7126C86.5073 42.5244 86.4603 42.3363 86.4603 42.1481V41.7718L86.4133 41.3955C86.4603 41.0662 86.4603 40.7369 86.5073 40.4076C86.5544 40.0783 86.5544 39.8431 86.5544 39.5609C86.6014 38.573 86.5544 37.6793 86.5544 36.8326C86.5544 36.5974 86.5544 36.4092 86.5073 36.174V35.7506C86.5073 35.3743 86.5074 35.045 86.4603 34.6687C86.4133 34.4335 86.4133 34.1983 86.3662 34.0101C86.4603 33.869 86.5073 33.7279 86.5544 33.5868C86.6485 33.3986 86.7426 33.2104 86.8366 33.0223C86.9307 32.7871 87.0248 32.5989 87.0718 32.5048C87.1189 32.4108 87.1189 32.2696 87.1189 32.1756C87.1659 32.0344 87.213 31.9404 87.213 31.7992C87.307 31.7052 87.3541 31.564 87.4011 31.47C87.3541 31.2347 87.4011 30.9995 87.4482 30.7643C87.4482 30.6232 87.4952 30.5291 87.5422 30.388C87.5893 30.2469 87.5893 30.1528 87.5893 30.0117C87.6363 29.8235 87.6363 29.6824 87.5893 29.6354V29.5413C87.6363 29.3531 87.6834 29.165 87.6834 28.9768V28.2712C87.6834 28.1771 87.6834 28.036 87.6363 27.9419C87.6363 27.5656 87.6363 27.1893 87.5893 26.813C87.5893 26.3896 87.5422 26.0133 87.4482 25.5899C87.4011 25.3547 87.3541 25.0725 87.307 24.8843C87.213 24.3198 87.0718 23.8024 86.8366 23.2849C86.7426 23.0027 86.6014 22.7675 86.4603 22.5323C86.3662 22.4382 86.2722 22.2971 86.131 22.25C85.9899 22.203 85.9429 22.25 85.8958 22.25C85.8017 22.2971 85.7547 22.3441 85.7077 22.3912L85.8488 22.4852C85.9429 22.3912 86.084 22.3441 86.1781 22.3912C86.1781 22.3912 86.2251 22.3912 86.2251 22.4382C86.2251 22.4852 86.2721 22.4852 86.2721 22.5323C86.4133 22.7204 86.5073 22.9556 86.6485 23.1908C86.6955 23.2849 86.7426 23.426 86.7896 23.5201C87.0248 24.1787 87.1659 24.8373 87.26 25.5429V25.8721C87.26 26.0133 87.307 26.1073 87.3541 26.2485C87.4011 26.907 87.4482 27.6126 87.4011 28.2712C87.4482 28.6475 87.4482 29.0709 87.4011 29.4472C87.4011 29.5883 87.3541 29.7295 87.3541 29.9176C87.307 30.5291 87.1659 31.1407 87.0248 31.7052C86.9778 31.7992 86.9307 31.9404 86.9307 32.0344C86.7896 32.4108 86.6955 32.74 86.5544 33.0693C86.5073 33.1634 86.4603 33.2104 86.4603 33.3045C86.4603 33.3986 86.4133 33.3986 86.3662 33.4456C86.3192 33.4927 86.3192 33.4927 86.3192 33.5397V33.4456C86.3192 33.2104 86.2721 33.0693 86.2721 32.8812V32.693C86.3192 32.4578 86.2722 32.2696 86.2251 32.0344V31.8463C86.2251 31.7052 86.1781 31.517 86.131 31.3759V31.3288C86.084 31.1407 86.084 30.9995 86.131 30.8114C86.131 30.7643 86.084 30.7643 86.084 30.7173C86.084 30.4351 85.9899 30.1999 85.8958 29.9647V29.7765C85.8958 29.5883 85.8488 29.4002 85.8017 29.212C85.8017 29.1179 85.7547 29.0239 85.7547 28.9298C85.6606 28.6475 85.5665 28.3653 85.4725 28.036C85.4725 27.989 85.4725 27.989 85.4254 27.9419C85.3313 27.5656 85.2373 27.2363 85.0961 26.907C85.0491 26.86 85.0491 26.7659 85.0021 26.7189C85.0021 26.4837 85.0021 26.2955 84.955 26.0603V25.8251V25.3547C84.955 25.2136 84.955 25.1195 85.0021 25.1665V24.9784C85.0961 24.6491 85.1432 24.3669 85.1432 24.0376C85.1902 23.8494 85.2843 23.6612 85.3313 23.5201C85.3784 23.426 85.4254 23.2849 85.4725 23.1908C85.5195 23.0968 85.5195 23.0968 85.4725 23.0497C85.5195 23.0027 85.5665 22.9556 85.5665 22.8616L85.7077 22.6734L85.6606 22.6264L85.5665 22.5793V22.6264C85.4254 22.8145 85.2843 23.0497 85.1902 23.2849C85.0491 23.5672 84.955 23.8494 84.8609 24.1317C84.8609 24.2257 84.8139 24.3198 84.8139 24.4139C84.7669 24.7902 84.7198 25.1665 84.6728 25.5429C84.6728 25.731 84.6257 25.9662 84.6257 26.1544V26.4366C84.6257 26.3896 84.6257 26.3896 84.5787 26.3896C84.3905 25.8251 84.1553 25.2606 83.8731 24.7432V24.6961C83.826 24.555 83.779 24.4609 83.732 24.3198C83.6849 24.2257 83.6379 24.0846 83.6379 23.9905C83.5908 23.8965 83.5438 23.7553 83.4968 23.6612C83.4027 23.4731 83.3086 23.2849 83.2145 23.0497C83.1204 22.8145 82.9793 22.6264 82.8852 22.4382C82.603 21.9208 82.2737 21.4033 81.9444 20.9329C81.8033 20.7447 81.6622 20.5566 81.5681 20.3684V20.1332C81.5681 19.851 81.5681 19.6158 81.5211 19.3335C81.5211 19.2395 81.5211 19.1454 81.474 19.0513C81.427 18.722 81.3799 18.3927 81.2859 18.0634C81.2388 17.8753 81.2388 17.6871 81.1918 17.546V17.499C81.0977 17.1697 81.0036 16.8874 80.9095 16.5582L80.8625 16.37V16.3229C80.8155 16.0407 80.7214 15.7585 80.6273 15.5233C80.4391 15.0999 80.2039 14.7236 79.9687 14.3473C79.7335 13.9709 79.4513 13.6416 79.075 13.3594L78.6516 13.0772C78.2753 12.7949 77.8519 12.5597 77.4286 12.3716C77.3815 12.3245 77.2874 12.3245 77.1934 12.2775C77.1934 12.1364 76.3937 11.9482 76.1585 11.9952H76.0644C76.0173 11.9952 75.9233 12.0423 75.9233 12.0893C75.8762 12.4186 75.8762 12.7479 75.9233 13.0772C75.9703 13.1712 75.9703 13.2653 76.0173 13.3594V13.4535C75.9703 13.4535 75.9703 13.4535 75.9703 13.4064C75.5469 13.1712 75.1236 12.9831 74.6532 12.889C74.6061 12.842 74.5121 12.842 74.418 12.842C74.418 12.7479 73.9005 12.6068 73.5712 12.6068C73.4772 12.6068 73.4301 12.6538 73.3831 12.7479V12.7949C73.3831 12.889 73.4301 12.936 73.4301 13.0301H73.4772C73.5242 13.3124 73.6653 13.8768 73.6653 14.065C73.4301 13.9709 73.242 13.8768 73.0068 13.7828C72.7716 13.6887 72.5834 13.5946 72.3482 13.5476C71.9719 13.4064 71.5485 13.3124 71.1251 13.2653C70.7488 13.1712 70.4195 13.1242 70.0432 13.0772C70.0432 13.0301 70.0432 13.0301 69.9962 12.9831C69.9021 12.5597 69.761 12.1364 69.5728 11.76C69.5728 11.666 69.5258 11.6189 69.4787 11.5719C69.5728 11.4778 69.1965 10.8192 69.0083 10.6311C68.8672 10.3959 68.4909 9.9725 68.3968 9.83138C68.3027 9.78434 68.2557 9.7373 68.1616 9.69026L67.9264 9.45505C67.8794 9.36097 67.8323 9.26689 67.7382 9.17281C67.5971 9.17281 67.3619 8.98465 67.2208 8.89057C67.1267 8.79649 67.0326 8.74945 66.9386 8.70241C66.8445 8.65537 66.7504 8.56129 66.6563 8.51425C66.5622 8.42017 66.4681 8.37312 66.327 8.37312C66.28 8.37312 66.28 8.32609 66.2329 8.32609C66.0918 8.232 65.9977 8.13792 65.8566 8.04384C65.7155 7.94976 65.4803 7.90272 65.2921 7.80864C65.1981 7.7616 65.104 7.7616 65.0569 7.71456C64.7747 7.57344 64.4454 7.47936 64.1632 7.38528C63.8339 7.24416 63.5046 7.15008 63.1753 7.10304C62.9872 7.05599 62.752 7.00895 62.5638 7.00895C62.4697 7.00895 62.3286 6.96191 62.2345 6.96191C62.1875 6.96191 62.1875 6.96191 62.1404 7.00895V7.05599C62.2816 7.43232 62.4227 7.80864 62.6108 8.18496C62.799 8.56129 63.0342 8.89057 63.3164 9.17281L63.4105 9.07873L63.3164 9.12577L63.5987 9.40801C63.1283 9.31393 62.7049 9.31393 62.2345 9.40801C62.0934 9.45505 61.9523 9.45505 61.8582 9.50209C61.4819 9.54913 61.1055 9.59618 60.7292 9.69026C60.6822 9.69026 60.5881 9.69026 60.5411 9.7373C60.494 9.64322 60.1177 9.7373 59.8355 9.87842H59.7884C59.7414 9.87842 59.6943 9.92546 59.6943 10.0195V10.1607C59.6943 10.2077 59.6943 10.2077 59.7414 10.2547H59.7884C59.8825 10.4899 60.2118 10.8663 60.2588 11.0074C60.3059 11.0544 60.3999 11.1015 60.447 11.1485L60.6351 11.3367C60.6822 11.4307 60.6822 11.5248 60.7763 11.6189C60.9644 11.666 61.1055 11.76 61.2467 11.8541C61.2937 11.9012 61.3878 11.9482 61.4819 12.0423C61.5759 12.0893 61.623 12.1364 61.7171 12.1834C61.8112 12.2775 61.9523 12.3245 61.9993 12.2775L62.0934 12.3245C62.1875 12.4186 62.2816 12.5127 62.4227 12.5597C62.4697 12.5597 62.4697 12.5597 62.5168 12.6068C62.4227 12.6068 62.3286 12.6538 62.2816 12.7008C62.2345 12.7008 62.1404 12.7008 62.0934 12.7479C62.0464 12.7008 61.8112 12.7479 61.623 12.7949C61.5289 12.842 61.4819 12.936 61.5289 13.0301V13.0772C61.623 13.2183 61.7641 13.3124 61.8111 13.4064C61.9993 13.5946 62.2345 13.7828 62.4697 13.9709C62.5638 13.9709 62.6108 14.018 62.7049 14.065L62.9401 14.2061C62.9872 14.3002 63.0342 14.3943 63.1283 14.4413C63.2224 14.3943 63.5046 14.4884 63.6457 14.5354C63.7398 14.5354 63.8339 14.5825 63.928 14.6295C64.022 14.6765 64.1161 14.6765 64.2102 14.6765C64.3513 14.7236 64.4454 14.7236 64.4925 14.6765H64.5865C64.7277 14.7236 64.8688 14.7706 65.0099 14.7706C65.1981 14.7706 65.3392 14.7706 65.5273 14.7236C65.6214 14.7236 65.6685 14.7236 65.7625 14.6765L66.1859 14.6295L66.5622 14.5825C66.7034 14.5825 66.8445 14.5354 66.9856 14.5354L67.409 14.3943C67.5501 14.3473 67.7853 14.3002 67.9264 14.2532C68.3027 14.1121 68.679 13.9709 69.0083 13.8298C69.3847 13.6887 69.7139 13.5005 70.0432 13.3124C70.6077 13.4064 71.1251 13.5005 71.6896 13.6416C72.3482 13.8298 73.0068 14.065 73.6653 14.3473C73.7124 14.3473 73.7124 14.3943 73.7594 14.3943C73.7594 14.4884 73.8064 14.5825 73.8064 14.6765C73.8064 14.7706 73.7594 14.8647 73.8064 15.0058C73.9476 15.1469 74.0416 15.3821 74.0887 15.5703C74.1357 15.6644 74.1828 15.8055 74.1828 15.8996C74.2298 15.9937 74.2769 16.1348 74.3239 16.2289C74.3709 16.37 74.465 16.5111 74.5121 16.5111L74.5591 16.6052C74.6061 16.7934 74.6532 16.9345 74.7473 17.0756C74.7943 17.1226 74.7943 17.1697 74.8413 17.2167C74.6532 17.1697 74.5121 17.1697 74.3239 17.1697H73.8535C73.4301 17.1226 72.9597 17.1226 72.5364 17.1226H72.3012C72.3012 17.0756 72.16 17.0756 72.0189 17.0756C71.8778 17.0756 71.6896 17.1226 71.5485 17.1697C71.4544 17.1697 71.4074 17.2638 71.4074 17.3578C71.4074 17.4519 71.4074 17.4049 71.4544 17.4049L71.6426 17.593L72.3482 18.2986C72.4423 18.3457 72.4893 18.3927 72.5834 18.4398L72.8186 18.6279C72.8656 18.722 72.9127 18.8161 73.0068 18.9102C73.1479 18.9102 73.3831 19.0983 73.5242 19.1924C73.6183 19.2865 73.7124 19.3335 73.8064 19.3806C73.9005 19.4747 73.9946 19.4747 74.0887 19.5217C74.2298 19.6158 74.3239 19.6628 74.418 19.6158L74.5121 19.6628C74.6532 19.7569 74.7943 19.851 74.9354 19.9451C75.1236 20.0391 75.3117 20.0862 75.4999 20.1332C75.594 20.1803 75.6881 20.1803 75.7821 20.1803C75.9233 20.2273 76.0644 20.2743 76.2526 20.3214L76.723 20.4625C77.0522 20.5566 77.4286 20.6507 77.7578 20.6977C77.946 20.7447 78.1812 20.7447 78.3694 20.7447C78.6046 20.7447 78.8398 20.7918 79.075 20.7918L79.7806 20.7447C80.0158 20.7447 80.251 20.6977 80.4862 20.6507C80.6743 20.6036 80.8625 20.5566 81.0507 20.5566C81.0977 20.5566 81.1447 20.5566 81.1918 20.5095L81.6152 20.7918L81.5681 20.6977L81.6152 20.7447C81.6622 20.7918 81.7092 20.8859 81.7563 20.9329C82.3208 21.7796 82.8382 22.6264 83.2616 23.5201C83.1675 23.426 83.1204 23.2849 83.0734 23.1908C82.8382 22.8616 82.556 22.5323 82.2737 22.25C82.2267 22.156 82.1326 22.1089 82.0856 22.0148L81.9915 21.9208C81.9444 21.8737 81.8974 21.8737 81.8504 21.9208V21.9678V22.0148C81.8033 22.156 81.7092 22.3441 81.6622 22.4852C81.6152 22.5793 81.6152 22.7204 81.6152 22.8145C81.5681 22.9086 81.5681 22.9556 81.5681 23.0497C81.5211 23.2379 81.474 23.426 81.427 23.6142C81.427 23.6612 81.427 23.6612 81.474 23.7083V23.7553C81.427 23.8494 81.427 23.9435 81.3799 24.0376V24.1787C81.2859 24.4139 81.2388 24.6961 81.2859 24.9784V25.2136C81.2859 25.4017 81.3329 25.5429 81.3329 25.731V25.8251C81.3329 26.0133 81.3329 26.2014 81.2859 26.3896C81.2859 26.4366 81.2859 26.4837 81.3329 26.4837C81.3329 26.6718 81.38 26.907 81.427 27.0952C81.38 27.0952 81.3799 27.0482 81.3329 27.0482C81.2859 27.0482 81.1447 26.907 81.0507 26.86C80.8155 26.6718 80.5803 26.5307 80.3451 26.3896C80.251 26.3425 80.2039 26.2955 80.1099 26.2485C79.7806 26.0603 79.4513 25.9192 79.122 25.731C78.9338 25.6369 78.7457 25.5429 78.5575 25.4958C78.5105 25.4958 78.4634 25.4958 78.4164 25.5429V25.5899V25.6369C78.4164 25.8251 78.4634 25.9662 78.4634 26.1544C78.4634 26.3425 78.5105 26.4837 78.5575 26.6718L78.6046 26.907V26.9541C78.6046 27.0952 78.6046 27.2363 78.6516 27.3774C78.6986 27.5186 78.7457 27.7067 78.7927 27.8478C79.075 28.7886 79.5454 29.6354 80.2039 30.388L80.5803 30.7643C80.9095 31.1407 81.2859 31.4699 81.6622 31.7992C81.7092 31.8463 81.7563 31.8933 81.8504 31.9404C81.8033 32.0815 82.5089 32.5519 82.7441 32.693C82.9793 32.8812 83.5438 33.1634 83.732 33.3045C83.826 33.3516 83.9201 33.3986 84.0142 33.3986C84.1553 33.4456 84.2494 33.4927 84.3435 33.5868C84.4376 33.6808 84.4846 33.7749 84.6257 33.822C84.8609 33.822 85.0961 33.869 85.2843 34.0101C85.4254 34.0572 85.5195 34.1042 85.6606 34.1513C85.7547 34.1983 85.8488 34.1983 85.8958 34.2453H85.9429L85.9899 34.2924L86.0369 34.3394H86.131C86.1781 34.9039 86.2721 35.4213 86.2721 35.7506C86.2721 35.7977 86.2721 35.7506 86.3192 35.7506C86.3192 35.9388 86.3662 36.174 86.3662 36.4562C86.3662 36.7385 86.3662 37.0207 86.4133 37.303C86.4603 37.7263 86.4603 38.1967 86.4133 38.6201C86.4133 38.8553 86.4603 39.1846 86.4603 39.3727L86.4133 40.3135C86.4133 40.3606 86.3662 40.4547 86.3662 40.5017V40.4076C86.4603 40.3606 86.3192 39.655 86.2251 39.2787C86.2251 39.1846 86.131 39.1375 86.0369 39.1846C85.9899 39.1846 85.9899 39.1846 85.9899 39.2316C85.9429 39.2787 85.8958 39.2786 85.8958 39.3257V39.3727C85.6136 39.655 85.3313 39.9843 85.0961 40.3135C85.0491 40.4076 85.0021 40.5487 84.955 40.6428L84.7669 40.9721C84.6728 41.0662 84.5787 41.1603 84.4846 41.2543C84.5317 41.3955 84.3435 41.7718 84.2494 41.9599C84.2024 42.1011 84.1553 42.1952 84.1083 42.3363C84.0613 42.4774 84.0142 42.5715 83.9672 42.7126C83.9201 42.9008 83.8731 43.0419 83.9201 43.136L83.8731 43.23C83.779 43.4182 83.732 43.6064 83.6849 43.7945C83.6379 44.0297 83.5908 44.312 83.5438 44.5472C83.5438 44.6883 83.4968 44.7824 83.4968 44.8765L83.4497 45.0646V45.0176C83.4497 44.7824 83.4027 44.5001 83.3556 44.2649C83.3556 44.1708 83.3086 44.1238 83.3086 44.0297C83.2616 43.7004 83.1675 43.3712 83.1204 43.0889C83.0734 42.9008 83.0264 42.7126 82.9793 42.5715C82.9793 42.5244 82.9793 42.5244 82.9323 42.5244C82.8382 42.2422 82.6971 41.9129 82.5089 41.6777C82.4619 41.6307 82.4148 41.5836 82.4148 41.4895C82.4148 41.4425 82.4148 41.4425 82.3678 41.4425C82.3208 41.3014 82.2267 41.2073 82.1326 41.1132L82.0385 41.0191C81.9915 41.0191 81.9915 41.0191 81.9444 40.9721H81.8504C81.8033 41.0191 81.8033 41.0191 81.7563 41.0191C81.7563 41.0662 81.7092 41.0662 81.7092 41.1132V41.3484C81.6622 41.7718 81.6151 42.1952 81.5681 42.6185C81.5211 43.0419 81.474 43.4652 81.5211 43.8886C81.5211 44.0297 81.5681 44.2179 81.5681 44.359V45.9584C81.427 46.0054 81.5211 46.7581 81.5681 46.9933H81.6152C81.6152 47.1814 81.6622 47.3696 81.7092 47.5578C81.7563 47.6989 81.7563 47.887 81.7563 48.0282C81.8033 48.1222 81.8504 48.2163 81.8504 48.3104C81.8974 48.4045 81.8974 48.5456 81.9444 48.6397C81.9915 48.7338 81.8974 48.8278 81.8974 48.969C81.9915 49.016 82.0856 49.3453 82.1796 49.5335C82.2267 49.6275 82.2267 49.7687 82.2737 49.8627C82.3208 49.9568 82.3678 50.0979 82.4148 50.192C82.4619 50.3331 82.556 50.4743 82.603 50.4743C82.65 50.4743 82.65 50.5213 82.65 50.5683C82.6971 50.7095 82.7441 50.8976 82.8382 51.0387C82.9323 51.1799 83.0264 51.321 83.1675 51.4621V51.5091H83.2145V51.6032V51.6973C83.1204 51.8384 83.0734 51.9325 82.9793 52.0736C82.4148 52.9204 81.9915 53.673 81.3329 54.5197C81.1447 54.7549 80.9566 54.9901 80.7684 55.2253C80.7214 55.3194 80.6743 55.4135 80.5803 55.4605V55.1783C80.5803 55.1313 80.5803 55.0372 80.5332 54.9901C80.5332 54.9431 80.4862 54.9431 80.4862 54.8961C80.4391 54.849 80.3921 54.849 80.3451 54.849C80.298 54.8961 80.251 54.8961 80.251 54.9431C80.251 54.9901 80.1569 54.9901 80.1099 55.0372C79.9687 55.0842 79.8747 55.1313 79.7806 55.2253V55.2724H79.7335C79.6865 55.2724 79.5924 55.3194 79.5454 55.3194C79.4983 55.3665 79.4983 55.3665 79.4983 55.4135C79.3102 55.4605 79.1691 55.5546 79.0279 55.6957C78.9809 55.7428 78.9339 55.7428 78.9339 55.7898L78.6986 56.025L78.6516 56.0721C78.5575 56.1191 78.4164 56.2132 78.3223 56.2602L78.2753 56.3073C78.1342 56.3543 77.899 56.5895 77.899 56.7306L77.8049 56.8247C77.6638 56.8718 77.5697 56.9658 77.4756 57.107L77.3345 57.2481C77.0993 57.5303 76.8641 57.7655 76.6289 58.0948C76.6289 58.1418 76.5818 58.1418 76.5818 58.1889C76.5818 58.2359 76.4407 58.283 76.3937 58.377C76.3466 58.4711 76.3466 58.4711 76.2996 58.5182C76.1585 58.6593 76.0173 58.8474 75.9233 59.0356L75.8292 59.1767C75.7821 59.2708 75.6881 59.3649 75.641 59.459C75.594 59.5531 75.5469 59.6001 75.4999 59.5531C75.4999 59.6001 75.4529 59.6471 75.4529 59.6942C75.3117 59.8823 75.1706 60.0705 75.0765 60.3057C74.9825 60.3998 74.8884 60.4939 74.8413 60.635C74.8413 60.682 74.7943 60.682 74.7943 60.7291C74.7002 60.8231 74.5591 60.9172 74.418 60.9643L74.5121 61.1054L74.7002 60.9643L74.6061 61.1054L74.5591 61.1995L74.5121 61.2465C74.465 61.2935 74.465 61.2935 74.5121 61.3406V61.3876L74.5591 61.4347H74.6532C74.8413 61.4347 75.0295 61.4817 75.2177 61.4817H75.4529C75.6881 61.5758 75.9703 61.6228 76.2055 61.6228C77.0052 61.7169 77.8049 61.7169 78.6046 61.6228C78.7457 61.6228 78.8868 61.5758 79.0279 61.5758C79.4513 61.5758 79.8276 61.5287 80.251 61.4817H80.4391C80.4862 61.6228 81.1918 61.4347 81.427 61.3406V61.2935C81.6622 61.2465 82.1796 61.0583 82.3678 61.0113C82.4619 60.9643 82.5089 60.9172 82.603 60.8702L82.8852 60.7291C82.9793 60.7291 83.1204 60.682 83.2145 60.635C83.2145 60.5879 83.3086 60.4939 83.3556 60.3998L83.5908 60.1646L83.826 59.9294C83.8731 59.8353 83.9672 59.7412 83.9672 59.6471C84.0142 59.5531 84.0142 59.506 84.0612 59.4119V59.3649C84.0612 59.3178 84.0142 59.2708 83.9672 59.2708H83.779C83.6379 59.2238 83.4968 59.1767 83.3556 59.1297C83.1675 59.0826 82.9793 59.0826 82.7912 59.0826H82.556C82.2737 59.0826 81.9444 59.0356 81.6622 59.0356H81.427C81.5681 58.9415 81.7563 58.8004 81.8504 58.7534C81.9444 58.7063 81.9444 58.6593 81.9444 58.6122L82.1326 58.4711C82.2267 58.4711 82.5089 58.1418 82.603 58.0948C82.65 58.0478 82.6971 58.0007 82.7912 57.9537L82.9323 57.8126C82.9793 57.7185 83.0264 57.6244 83.0734 57.5303C83.1675 57.4362 83.2616 57.3892 83.3556 57.2951C83.4497 57.201 83.4968 57.0599 83.5438 56.9188C83.5908 56.8717 83.5908 56.8247 83.5908 56.7777V56.7306C83.5908 56.6836 83.5908 56.6366 83.5438 56.6366H83.4968C83.2616 56.5895 83.0734 56.5895 82.8382 56.5895C82.603 56.5425 82.3678 56.5895 82.1326 56.6366C81.9915 56.6366 81.8504 56.6836 81.7092 56.7306C81.1447 56.8717 80.5803 57.0599 80.0158 57.2951C80.1569 57.107 80.251 56.9188 80.3451 56.7306C80.3921 56.6366 80.4391 56.5895 80.4862 56.4954C80.6273 56.2602 80.6743 56.025 80.7214 55.7898C81.0507 55.3665 81.427 54.9431 81.7092 54.5197C81.8504 54.3316 81.9915 54.1905 82.1326 54.0023C82.3208 53.72 82.4148 53.4848 82.603 53.2026C82.8382 52.8263 83.0734 52.45 83.2616 52.1207C83.3556 51.9796 83.4497 51.8384 83.4968 51.6973C83.5438 51.6973 83.5438 51.6973 83.5908 51.6503C83.6379 51.6032 83.779 51.5091 83.826 51.4621V51.4151C84.1083 51.1799 84.4376 50.9447 84.7669 50.7095C84.8139 50.6154 84.8609 50.5213 84.955 50.4743L85.2373 50.2391C85.3313 50.192 85.4725 50.145 85.5665 50.0979C85.5665 49.9568 85.8488 49.7216 86.0369 49.5805C86.131 49.5335 86.2721 49.3923 86.3192 49.2983L86.6014 49.016C86.7426 48.8749 86.8366 48.7808 86.8366 48.6867L86.9307 48.5926C87.0718 48.4986 87.213 48.3574 87.3541 48.2163C87.5422 48.0282 87.6834 47.84 87.8245 47.6518C87.9186 47.5578 87.9656 47.4637 88.0126 47.4166C88.2478 47.1344 88.5301 46.8521 88.7653 46.5699C89.0005 46.2877 89.2357 45.9584 89.5179 45.5821C89.612 45.488 89.6591 45.3469 89.7061 45.2528C89.7531 45.1587 89.8002 45.0176 89.8472 44.9235C90.1295 44.4531 90.3176 43.9356 90.4117 43.3712C90.4117 43.0889 90.3647 42.8067 90.3647 42.4774ZM85.0021 24.9313C85.0021 25.0254 85.0021 25.1195 84.955 25.2136L85.0021 24.9313ZM63.3635 8.93761C63.2694 8.79649 63.1283 8.70241 63.0342 8.56129C63.0342 8.51425 63.0342 8.51425 62.9872 8.46721C62.8931 8.27904 62.752 8.09088 62.6579 7.90272L62.5168 7.62048L62.2816 7.00895L63.0812 7.15008C63.1283 7.19712 63.2224 7.24416 63.3164 7.24416C63.4105 7.2912 63.5046 7.24416 63.6457 7.2912C64.2102 7.47936 64.7277 7.66752 65.2451 7.90272C65.5744 7.9968 65.9037 8.13792 66.1859 8.27904C66.28 8.32609 66.4211 8.42017 66.5152 8.46721C66.9386 8.74945 67.3619 9.03169 67.7382 9.36097C67.8323 9.40801 67.8794 9.50209 67.9264 9.59617C68.0205 9.7373 68.1146 9.83138 68.2557 9.92546L68.585 10.2547L68.7261 10.4429C68.7731 10.4899 68.7731 10.537 68.8202 10.584C68.8672 10.6311 68.9613 10.8192 69.0083 10.9133C69.0554 11.0074 69.1024 11.0544 69.1495 11.1015C69.1965 11.1485 69.1965 11.1955 69.2435 11.2896C69.2906 11.4307 69.3376 11.5719 69.4317 11.666C69.4787 11.666 69.4787 11.666 69.4787 11.713V11.76C69.4787 11.8071 69.5258 11.9012 69.5258 11.9482C69.5258 11.9952 69.5728 11.9952 69.5728 12.0423C69.5728 12.2304 69.6669 12.4186 69.761 12.6068C69.761 12.6538 69.761 12.7008 69.808 12.7479C69.808 12.7949 69.808 12.7949 69.8551 12.842C69.761 12.7949 69.6669 12.7479 69.5728 12.6538H69.4787C69.2906 12.5597 69.1024 12.5127 68.8672 12.5127C68.8202 12.5127 68.7731 12.5127 68.7731 12.4656H68.7261C68.585 12.3716 68.4438 12.3245 68.2557 12.3245C68.1616 12.3245 68.1146 12.2775 68.0205 12.2775H67.9734C67.6442 12.1364 67.3149 11.9482 66.9386 11.76C66.8915 11.76 66.8915 11.713 66.8445 11.713C66.7504 11.666 66.6563 11.6189 66.6093 11.5248C66.5622 11.4778 66.5152 11.4778 66.4682 11.4307L65.9977 11.1015C65.9037 11.0074 65.8096 10.9603 65.7155 10.9133L65.6685 10.8663C65.5744 10.7722 65.4333 10.7251 65.3392 10.6311C65.1981 10.584 65.1981 10.4899 65.2451 10.4899C65.1981 10.4899 65.151 10.4429 65.104 10.3959C64.9629 10.2547 64.8217 10.1136 64.6336 9.9725L64.4454 9.78434L64.1161 9.45505C63.928 9.26689 63.8339 9.17281 63.7869 9.21985L63.3635 8.93761ZM62.1875 12.0893L61.9052 11.9482C61.5289 11.713 61.1526 11.4778 60.8233 11.1955C60.7763 11.1485 60.7292 11.0544 60.6351 11.0074C60.447 10.7722 60.2588 10.6311 60.1177 10.4429C60.0707 10.3959 60.0707 10.3488 60.0236 10.3018C59.9766 10.2547 59.9766 10.2547 59.9766 10.2077V10.1607C60.0707 10.1607 60.1177 10.1136 60.1647 10.0666C60.2118 10.0666 60.2588 10.0195 60.3059 10.0195C60.447 10.0195 60.5881 9.9725 60.6822 9.92546C60.6822 9.87842 60.6822 9.87842 60.7292 9.87842H60.9644C61.0115 9.87842 61.0115 9.83138 61.0585 9.83138C61.2467 9.83138 61.3878 9.83138 61.5759 9.78434H61.7171C61.8112 9.78434 61.9523 9.7373 62.0464 9.69026H62.0934C62.2345 9.69026 62.3286 9.69026 62.4697 9.7373H62.5168C62.7049 9.78434 62.846 9.7373 63.0342 9.69026H63.1753C63.3164 9.7373 63.4105 9.78434 63.5516 9.78434C63.5987 9.78434 63.6928 9.78434 63.7398 9.83138H63.7869C64.0221 10.0666 64.2573 10.2547 64.4925 10.4899C64.5395 10.4899 64.5395 10.537 64.5865 10.537C64.6336 10.537 64.6806 10.6781 64.7747 10.7251C64.8688 10.7722 64.8688 10.7722 64.8688 10.8192C65.0099 10.9133 65.104 11.0074 65.2451 11.1015C65.3392 11.1485 65.4333 11.1955 65.4803 11.2896C65.5744 11.3367 65.6685 11.4307 65.7625 11.4778C65.8566 11.5248 65.9037 11.5719 65.8566 11.6189C65.9037 11.6189 65.9507 11.666 65.9977 11.666C66.1859 11.8071 66.3741 11.9482 66.6093 12.0423C66.6563 12.0893 66.7034 12.1364 66.7974 12.1834H66.4211C66.2329 12.0893 65.9977 12.0893 65.8096 12.0893H64.6806C64.3513 12.0893 63.975 12.1364 63.6457 12.2304C63.3635 12.2304 63.0812 12.2775 62.799 12.3716H62.752C62.6108 12.2304 62.4227 12.1364 62.1875 12.0893ZM69.6199 13.2653H69.5258C69.3847 13.3124 69.1965 13.3594 69.0554 13.4535C69.0083 13.5005 68.9143 13.5476 68.8202 13.5476L68.1146 13.8298L67.9264 13.8768L67.7382 13.9239L67.3619 14.018H67.1738C67.0797 14.018 67.0326 14.1121 66.9386 14.1121C66.7034 14.1591 66.4682 14.2061 66.2329 14.2061C65.9977 14.2061 65.7625 14.2061 65.5273 14.2532C65.3862 14.3002 65.2451 14.2532 65.104 14.3002H64.6806C64.5865 14.3002 64.4925 14.2532 64.3513 14.2532C63.928 14.1591 63.5046 14.065 63.1283 13.8768C63.0812 13.8298 62.9872 13.7828 62.9401 13.7357C62.846 13.6887 62.7049 13.5946 62.6108 13.5005C62.4697 13.4535 62.3756 13.3594 62.2816 13.2653L62.1404 13.1242L62.0464 13.0301C61.9993 12.9831 61.9523 12.889 61.9052 12.842H61.9523C62.0934 12.842 62.1875 12.842 62.2816 12.7479C62.2816 12.7008 62.2816 12.7008 62.3286 12.7008H62.5638C62.6108 12.7008 62.6108 12.6538 62.6579 12.6538C62.846 12.6538 63.0342 12.6538 63.1753 12.5597C63.2224 12.5597 63.2694 12.5597 63.3164 12.5127C63.4105 12.4656 63.5516 12.4656 63.6457 12.4186H63.6928C63.8339 12.4186 63.928 12.4186 64.0691 12.4656C64.1161 12.4656 64.1161 12.4656 64.1161 12.4186C64.3043 12.4186 64.4454 12.3716 64.6336 12.3245H64.7747C64.9158 12.3716 65.0099 12.3716 65.151 12.3245H66.4682C66.5622 12.3245 66.6093 12.3716 66.7034 12.3716H66.8445C67.0326 12.4186 67.2678 12.4186 67.456 12.4186C67.503 12.4656 67.5971 12.4656 67.6442 12.5127H67.6912C67.8323 12.5597 67.9734 12.5597 68.0675 12.6068H68.1146C68.1616 12.6068 68.2086 12.6538 68.2557 12.6538C68.3027 12.6538 68.4438 12.7008 68.5379 12.7479C68.7731 12.7949 68.9613 12.889 69.1965 12.936H69.2435C69.3376 12.9831 69.4787 13.0301 69.5728 13.0301C69.6199 13.0301 69.6669 13.0772 69.7139 13.0772H69.761L69.6199 13.2653ZM74.7943 16.417C74.7473 16.2759 74.6532 16.1818 74.6061 16.0407C74.3709 15.5233 74.2298 15.0058 74.0416 14.4884C74.0416 14.4413 73.9946 14.3473 73.9946 14.3002C73.9946 14.2532 73.9476 14.065 73.9005 13.9239C73.8535 13.6887 73.7594 13.4535 73.7124 13.2183L73.6653 12.9831V12.7479H73.9005C73.9476 12.7479 74.0416 12.7949 74.0887 12.7949C74.2298 12.842 74.3709 12.889 74.5121 12.936H74.6061C74.6532 12.9831 74.7002 13.0301 74.7943 13.0301H74.8884C75.0765 13.1712 75.2647 13.2653 75.4999 13.3124C75.5469 13.3594 75.594 13.3594 75.641 13.4064C75.6881 13.4535 75.8762 13.5005 75.9703 13.5476V13.6416C75.9703 13.7357 75.9233 13.8298 75.9233 13.9239L75.9703 13.9709V14.065C75.9703 14.1121 76.0173 14.1121 76.0173 14.1591C76.0173 14.3002 76.0644 14.3943 76.1114 14.5354C76.1585 14.6295 76.2055 14.7236 76.2526 14.8177V14.8647C76.2526 14.9117 76.2996 14.9588 76.2996 15.0529L76.4407 15.4762C76.4877 15.6173 76.5818 15.7585 76.6759 15.8996C76.723 15.9466 76.7229 15.9937 76.77 16.0407V16.0877C76.817 16.1348 76.8641 16.1818 76.8641 16.2759C77.0052 16.4641 77.0993 16.6993 77.2404 16.8874C77.2404 16.9345 77.2874 16.9345 77.2874 16.9815C77.3345 17.0756 77.3815 17.1697 77.4756 17.2638C77.5226 17.3108 77.5697 17.3578 77.5697 17.4049C77.7108 17.6401 77.899 17.8282 78.0871 18.0164L78.2282 18.2046L78.5575 18.5338C78.6986 18.6279 78.6986 18.675 78.6516 18.722C78.6986 18.722 78.7457 18.8161 78.7927 18.8161C78.8398 18.8161 78.8398 18.8631 78.8398 18.9102C78.6987 18.8161 78.5575 18.722 78.4164 18.675H78.3694C78.2282 18.5809 78.0401 18.4868 77.899 18.4398C77.7578 18.3457 77.5697 18.2516 77.3815 18.2046C77.3345 18.1575 77.2404 18.1105 77.1934 18.0634C77.1463 18.0164 77.1463 18.0164 77.0993 18.0164C76.9582 17.9223 76.77 17.8282 76.6289 17.7812C76.1585 17.593 75.641 17.4049 75.1236 17.2638C75.0765 16.9345 74.9354 16.6522 74.7943 16.417ZM78.8868 18.6279L78.9339 18.675L79.0279 18.769L78.8868 18.6279ZM80.5803 20.4625H80.1569C80.1099 20.4625 80.0628 20.4625 80.0158 20.5095C79.9687 20.5095 79.8747 20.5095 79.8276 20.5566C79.7335 20.5566 79.6395 20.6036 79.4983 20.6036C79.2161 20.6507 78.8868 20.6507 78.6046 20.6036L78.1812 20.5566H77.946L77.7108 20.5095C77.6167 20.4625 77.5697 20.4625 77.4756 20.4155H77.1463C77.0052 20.4155 76.8641 20.3684 76.723 20.3214C76.5818 20.2743 76.4878 20.2273 76.3466 20.1803C76.2055 20.1332 76.1114 20.0862 75.9703 20.0391C75.8292 19.9921 75.7351 19.9451 75.594 19.898C75.4529 19.851 75.2647 19.8039 75.1236 19.7569C74.9825 19.7099 74.7943 19.6628 74.6532 19.5687C74.5591 19.5217 74.418 19.4276 74.3239 19.3806C73.9005 19.1454 73.4772 18.8161 73.0538 18.5338L72.8656 18.3457C72.7245 18.2516 72.6304 18.1105 72.4893 18.0164C72.3482 17.9223 72.2541 17.8282 72.16 17.7342L72.0189 17.593C71.9719 17.546 71.9719 17.499 71.9248 17.499L71.8778 17.4519C71.9248 17.4519 71.9248 17.4519 71.9719 17.4049H72.5834L72.6304 17.3578H72.6775C72.7245 17.3578 72.8186 17.3578 72.8656 17.4049C72.9127 17.4049 72.9127 17.4049 72.9597 17.3578C73.0538 17.4049 73.1479 17.4049 73.242 17.4049H74.1357C74.2769 17.4519 74.418 17.4519 74.5121 17.546H74.6061C74.7943 17.6401 75.0295 17.6401 75.2177 17.6401C75.2647 17.6401 75.3117 17.6871 75.3588 17.6871C75.4999 17.7812 75.641 17.8282 75.7821 17.8753C75.8762 17.9223 75.9233 17.9223 76.0173 17.9694C76.3937 18.1105 76.77 18.2516 77.1934 18.3927C77.2404 18.3927 77.2404 18.4398 77.2874 18.4398C77.3345 18.4398 77.4286 18.5338 77.5226 18.5809C77.5697 18.6279 77.6167 18.6279 77.6638 18.6279C77.899 18.722 78.1342 18.8631 78.3223 18.9572L78.5105 19.0513V19.0983C78.6516 19.1454 78.7457 19.1924 78.8868 19.2865C79.0279 19.3335 79.075 19.3806 79.0279 19.4276C79.075 19.4276 79.122 19.4747 79.1691 19.4747C79.3572 19.6628 79.5924 19.8039 79.8747 19.898C80.0158 19.9921 80.1099 20.0862 80.251 20.1803C80.4862 20.3684 80.5803 20.4155 80.6273 20.3684L80.7684 20.5095L80.8155 20.5566L80.5803 20.4625ZM81.0977 20.2743L81.0036 20.1803C80.8625 19.9921 80.6743 19.9451 80.4862 19.8039C80.3921 19.7569 80.298 19.6628 80.2039 19.6158C80.1099 19.5687 80.1569 19.5687 80.1099 19.5687C79.9687 19.4747 79.8747 19.3335 79.7335 19.2395C79.6865 19.1924 79.5924 19.1454 79.5454 19.0513L79.1691 18.722L78.8398 18.3457V18.2986C78.7927 18.2516 78.7927 18.2046 78.7457 18.1105L78.5105 17.8753C78.4164 17.7812 78.3223 17.6871 78.2282 17.546C78.1342 17.4049 78.0871 17.3108 77.993 17.1697C77.899 17.0286 77.8519 16.9345 77.7578 16.7934C77.6638 16.6522 77.6167 16.5582 77.5226 16.417L77.4756 16.37C77.4756 16.3229 77.4286 16.3229 77.4286 16.2759C77.3345 16.1348 77.2404 15.9937 77.1934 15.8055C77.0993 15.6173 77.0522 15.4762 76.9582 15.2881C76.723 14.7706 76.5818 14.2061 76.3937 13.7357C76.3937 13.6887 76.3466 13.5946 76.3466 13.5476V13.3124C76.2996 12.9831 76.2526 12.6538 76.2526 12.3245V12.1364C76.3466 12.1834 76.4878 12.1834 76.5818 12.2304C76.6759 12.2304 76.723 12.2304 76.817 12.2775C76.8641 12.2775 76.9582 12.3245 77.0052 12.3245C77.1463 12.3716 77.2874 12.4186 77.4286 12.4656H77.5226C77.5697 12.5127 77.6638 12.5597 77.7108 12.6068H77.8049C77.8519 12.7008 77.946 12.7479 78.0401 12.7949L78.3223 12.936C78.3694 12.9831 78.4164 12.9831 78.4634 13.0301C78.5575 13.0772 78.6986 13.1712 78.7927 13.2653L78.8398 13.3124C78.9339 13.4064 79.0279 13.5476 79.075 13.6887C79.122 13.6887 79.122 13.7357 79.1691 13.7357C79.2161 13.8298 79.3102 13.9239 79.4043 14.018C79.4983 14.1121 79.5924 14.2061 79.6395 14.2061C79.6865 14.2532 79.6865 14.3002 79.7335 14.3473C79.7806 14.4884 79.8747 14.6295 79.9687 14.7706C80.0158 14.8647 80.0628 14.9117 80.1099 15.0058C80.298 15.3821 80.4862 15.7585 80.6743 16.1818C80.6743 16.2289 80.6743 16.2289 80.7214 16.2759C80.7214 16.37 80.7684 16.4641 80.8155 16.5582C80.8155 16.6052 80.8625 16.6522 80.8625 16.6993C80.9566 16.9815 81.0036 17.2167 81.0977 17.4519L81.1447 17.6401C81.1918 17.7812 81.2388 17.9223 81.2388 18.0634C81.2859 18.2046 81.2859 18.2516 81.2388 18.2516C81.1918 18.2516 81.2859 18.3927 81.2859 18.4398C81.2859 18.722 81.3329 19.0043 81.427 19.2865V19.8039C81.427 20.0391 81.474 20.2743 81.5211 20.5095V20.5566L81.0977 20.2743ZM84.4846 33.3986C84.3905 33.3516 84.2965 33.3045 84.2024 33.2104C83.8731 33.0223 83.5438 32.8812 83.2616 32.693L83.0264 32.5519C82.9793 32.5048 82.9323 32.5048 82.8852 32.4578C82.8382 32.4108 82.65 32.2696 82.556 32.1756C82.4619 32.0815 82.4148 32.0815 82.3208 32.0344C82.2267 31.9874 82.1796 31.9404 82.1326 31.8933C81.9915 31.7992 81.9915 31.7052 81.7563 31.564H81.7092L81.6622 31.517C81.6152 31.4699 81.5681 31.3759 81.5211 31.3288C81.474 31.2818 81.474 31.2818 81.427 31.2818C81.2859 31.0936 81.1447 30.9055 80.9566 30.7643L80.8155 30.6232C80.7214 30.4821 80.5803 30.4351 80.4862 30.341L80.4391 30.2939C80.3451 30.1528 80.251 30.0117 80.2039 29.8706C80.1569 29.8706 80.1569 29.8235 80.1099 29.8235C79.9687 29.6354 79.8276 29.4472 79.6865 29.2591C79.6395 29.212 79.6395 29.165 79.6395 29.1179C79.5924 28.9298 79.4983 28.7887 79.4043 28.6475C79.3572 28.5534 79.3102 28.5064 79.3102 28.4123C79.122 27.989 78.9809 27.5656 78.8398 27.0952C78.8398 27.0482 78.8398 27.0011 78.7927 26.9541C78.7927 26.86 78.7457 26.7189 78.7457 26.6248C78.7457 26.5307 78.6986 26.4837 78.6986 26.4366C78.6516 26.2014 78.6046 25.9662 78.6046 25.731C78.7457 25.7781 78.8868 25.8251 79.0279 25.9192C79.1691 25.9662 79.2161 26.0133 79.1691 26.0603C79.2161 26.0603 79.3102 26.1073 79.3572 26.1073C79.6395 26.2955 79.9217 26.4366 80.2039 26.5778L80.6743 26.907C80.9566 27.0952 81.0507 27.1893 81.0977 27.1422L81.427 27.3774V27.4715C81.427 27.7067 81.474 27.8949 81.5681 28.083C81.5681 28.1301 81.6152 28.2242 81.6152 28.2712C81.6152 28.3653 81.6622 28.4123 81.7092 28.4594C81.8974 28.9298 82.0856 29.4002 82.3208 29.8706C82.3208 29.9176 82.3678 29.9647 82.3678 30.0117C82.4148 30.1528 82.4619 30.2469 82.556 30.341C82.603 30.388 82.65 30.4351 82.65 30.5291L82.9323 30.9525L82.9793 30.9995C82.9793 31.0466 83.0264 31.0936 83.0264 31.1407C83.0734 31.2347 83.1675 31.3288 83.2616 31.4229L83.3556 31.517L83.4027 31.564C83.4968 31.7052 83.6379 31.8463 83.732 31.9874C83.8731 32.1285 83.9201 32.1756 83.826 32.1756C83.8731 32.2226 83.9672 32.2696 84.0142 32.3167C84.2494 32.5989 84.4846 32.8812 84.7669 33.1164C84.908 33.3045 85.0491 33.4456 85.2373 33.5868L85.3313 33.6808C85.0021 33.6338 84.7198 33.5397 84.4846 33.3986ZM85.9899 33.9631C85.8488 33.822 85.7547 33.7279 85.6606 33.7279L85.5665 33.6338L85.5195 33.5868C85.4254 33.4456 85.3313 33.3045 85.1902 33.2104C85.0491 33.1164 84.908 33.0223 84.8139 32.8812L84.6728 32.74C84.3905 32.4578 84.1083 32.1285 83.8731 31.7992C83.732 31.6111 83.5908 31.4229 83.4497 31.2818L83.4027 31.2347C83.2616 31.0936 83.1675 30.9055 83.0734 30.7643C82.9793 30.5762 82.8382 30.388 82.6971 30.1999C82.65 30.1528 82.65 30.0587 82.603 30.0117V29.9647C82.556 29.8235 82.5089 29.6824 82.4619 29.5413C82.4148 29.4002 82.3208 29.2591 82.2267 29.0239C81.9915 28.5064 81.8033 27.989 81.7092 27.4715C81.5681 26.9541 81.5211 26.3896 81.427 25.9192C81.38 25.731 81.3799 25.5429 81.3329 25.3547C81.3329 24.7902 81.3799 24.2257 81.474 23.6612C81.5211 23.5672 81.5211 23.4731 81.5211 23.379C81.5681 23.379 81.6622 23.1438 81.7563 22.8616C81.8033 22.6734 81.8504 22.4382 81.9444 22.25C82.1796 22.4852 82.3678 22.7204 82.556 22.9556C82.65 23.0497 82.7441 23.1438 82.8382 23.1908L83.0734 23.5201C83.1204 23.6612 83.1675 23.8024 83.2145 23.8965C83.4497 24.0376 83.5908 24.2728 83.6849 24.508C83.779 24.6491 83.826 24.7432 83.8731 24.8843L84.0142 25.1665V25.2136C84.0142 25.2606 84.0142 25.2606 84.0612 25.2606C84.1083 25.3547 84.1553 25.4958 84.2024 25.5899C84.2965 25.8721 84.4376 26.1544 84.5317 26.3896C84.6257 26.6248 84.7198 26.9541 84.8139 27.1893C85.0021 27.6126 85.0961 28.036 85.2373 28.4123C85.4254 29.0239 85.5195 29.6354 85.6606 30.2469C85.8017 30.8584 85.8958 31.4699 85.9899 32.0815C85.9899 32.2696 86.0369 32.5048 86.084 32.693C86.0369 32.9282 86.0369 33.1634 86.084 33.3986C85.9899 33.5397 85.9899 33.7749 85.9899 33.9631ZM82.5089 59.2708C82.8382 59.2708 83.1204 59.3178 83.4497 59.3649H83.5438V59.4119C83.4497 59.6001 83.3086 59.8353 83.1675 59.9764C82.9793 60.1646 82.7912 60.3057 82.603 60.3998C82.5089 60.4468 82.4619 60.4939 82.3678 60.4939C82.0856 60.635 81.8033 60.7291 81.5681 60.8231C81.5211 60.8231 81.427 60.8702 81.3799 60.8702C81.3329 60.8702 81.2859 60.8702 81.2388 60.9172C81.1447 60.9172 81.0036 60.9172 80.9095 60.9643C80.8155 60.9643 80.7684 61.0113 80.6743 61.0113C80.6273 61.0113 80.5332 61.0113 80.4862 61.0583C80.3451 61.0583 80.2039 61.0583 80.0628 61.1054L80.0158 61.1524H79.7806C79.7335 61.1524 79.7335 61.1995 79.6865 61.1995C79.4983 61.1524 79.3102 61.1524 79.122 61.2465H78.9809C78.8398 61.2465 78.7457 61.2935 78.6046 61.2935H78.5575C78.4164 61.2935 78.2753 61.2935 78.1342 61.2465H78.0401C77.8519 61.1995 77.6167 61.2465 77.4286 61.2935H77.2874C77.1463 61.2465 77.0052 61.2465 76.8641 61.2465H76.6289C76.2525 61.2465 75.8292 61.2465 75.4529 61.1995H75.3588C75.2647 61.1995 75.1706 61.1524 75.0765 61.1524H75.0295C75.1706 61.1524 75.2647 61.0583 75.4058 61.0113C75.4529 61.0113 75.4529 61.0113 75.4529 61.0583C75.4999 61.0113 75.5469 60.9643 75.594 60.9643C75.8762 60.9172 76.1114 60.7761 76.2996 60.5879C76.4407 60.5409 76.5818 60.4468 76.723 60.3527C76.9582 60.2116 77.0522 60.1175 77.0522 60.0705L77.0993 60.0235H77.1463C77.2404 60.0235 77.2874 59.9764 77.3345 59.9294H77.3815C77.946 59.7883 78.4634 59.6001 78.9809 59.4119C79.0279 59.4119 79.075 59.3649 79.1691 59.3649C79.5454 59.2708 79.9687 59.2238 80.3451 59.1767C80.4862 59.2238 80.6273 59.2238 80.7684 59.2238H80.8155C80.8625 59.2238 80.8625 59.2238 80.8625 59.1767H80.9566C81.474 59.1297 81.9915 59.1767 82.5089 59.2708ZM80.0628 57.2951H80.1569C80.298 57.2951 80.4391 57.201 80.5803 57.107C80.6273 57.0599 80.7214 57.0599 80.7684 57.0129C81.1447 56.8717 81.5211 56.7777 81.9444 56.7306C81.9915 56.7306 82.0385 56.7777 82.0856 56.7777C82.1326 56.7777 82.2267 56.7306 82.2737 56.7306C82.5089 56.6836 82.7441 56.7306 82.9793 56.7777C82.8852 56.9658 82.7912 57.154 82.65 57.2951C82.603 57.3422 82.556 57.4362 82.4619 57.4833C82.2267 57.7185 81.9444 58.0007 81.7092 58.1889C81.6622 58.2359 81.6152 58.283 81.5211 58.283C81.3799 58.4241 81.1918 58.5652 81.0036 58.6593C80.9566 58.7063 80.9095 58.7063 80.8625 58.7534C80.8155 58.8004 80.8155 58.8004 80.7684 58.8004C80.7214 58.8004 80.5803 58.8474 80.5332 58.8945H80.298C80.2039 58.8945 80.1569 58.8474 80.0158 58.8945C80.0158 58.9415 80.0158 58.9415 79.9687 58.9415H79.9217C79.8747 58.9415 79.8276 58.9415 79.7806 58.8945C79.7335 58.8945 79.7335 58.8945 79.7335 58.9415C79.5924 58.8945 79.4513 58.9415 79.3102 58.9886H79.2161C79.122 58.9886 79.0279 59.0356 78.9339 59.0826H78.6046C78.5575 59.0826 78.5575 59.0826 78.5575 59.1297C78.4164 59.1297 78.2753 59.1767 78.1342 59.2708H77.8519L77.899 59.2238C78.1812 58.9886 78.4164 58.7534 78.6516 58.5182C78.8398 58.377 78.9809 58.1889 79.122 58.0007L79.3572 57.7655C79.4983 57.6244 79.5454 57.5303 79.4983 57.4833L79.5454 57.4362L79.6865 57.3892L80.0628 57.2951ZM80.3451 55.6957C80.298 55.8839 80.251 56.0721 80.1569 56.2602L80.0158 56.4954C79.8747 56.6836 79.7335 56.9188 79.5924 57.154C79.5454 57.201 79.4983 57.2951 79.4043 57.3892C79.3572 57.4833 79.3102 57.5303 79.2631 57.6244C79.2161 57.6714 79.1691 57.7655 79.122 57.8126C79.075 57.8596 79.0279 57.9066 78.9809 58.0007L78.9339 58.0478C78.8868 58.0948 78.7927 58.1418 78.7457 58.2359C78.6986 58.33 78.5575 58.4711 78.4634 58.5652L78.4164 58.6122C78.3223 58.7063 78.2282 58.7534 78.1812 58.8474V58.8945L77.7578 59.3179L77.7108 59.3649L77.6638 59.4119C77.4756 59.459 77.3345 59.5531 77.2404 59.6942C77.1934 59.7412 77.1934 59.7883 77.1934 59.8353C77.1463 59.8823 77.0993 59.8823 77.0522 59.9294C76.9111 60.0235 76.817 60.1175 76.6759 60.1646C76.4877 60.2587 76.3466 60.3527 76.1585 60.4468C76.1114 60.4939 76.0644 60.5409 75.9703 60.5409C75.7351 60.682 75.4529 60.8231 75.1706 60.9172C75.0295 60.9643 74.8413 61.0113 74.7002 61.1054H74.6532C74.6532 61.0583 74.6532 61.0583 74.7002 61.0583C74.7473 60.9643 74.7943 60.9172 74.8413 60.8231L74.9354 60.7291C75.0765 60.4939 75.2177 60.3057 75.3588 60.1175C75.4999 59.8823 75.641 59.6471 75.8292 59.459C75.9233 59.3649 76.0173 59.2238 76.1114 59.0826V59.0356C76.2525 58.8474 76.4407 58.6122 76.5818 58.4241C76.6289 58.377 76.6759 58.33 76.6759 58.283C76.723 58.283 76.723 58.283 76.723 58.2359C76.9111 58.0948 77.0993 57.9537 77.2404 57.7655C77.7108 57.2481 78.3223 56.7777 78.7457 56.2602L79.0279 55.978L79.2631 55.7898L79.4983 55.6487L79.9687 55.3194C80.0158 55.3194 80.0628 55.2724 80.1099 55.2253C80.1569 55.2724 80.298 55.2253 80.4391 55.1313V55.2253H80.4862C80.3921 55.3665 80.3451 55.5076 80.3451 55.6957ZM83.0264 43.4182C83.0264 43.3241 82.9793 43.2771 82.9793 43.183L83.0264 43.4182ZM83.2616 46.0995C83.2616 46.1465 83.2145 46.1936 83.2145 46.2406C83.1675 46.4758 83.1675 46.711 83.1675 46.9462V47.7459C83.1675 48.2163 83.1204 48.6867 83.1675 49.1571C83.1675 49.2512 83.1204 49.2983 83.1204 49.3923C83.1204 49.4864 83.1675 49.5805 83.1675 49.7216C83.2145 50.145 83.2145 50.5213 83.1675 50.9447C83.0264 50.7565 82.9323 50.6154 82.8382 50.4272C82.7912 50.2861 82.7441 50.192 82.65 50.0979C82.4619 49.6275 82.2737 49.1101 82.1796 48.5926C82.1796 48.4986 82.1326 48.4045 82.1326 48.3104C82.0856 47.9811 81.9915 47.6518 81.9444 47.3696L81.8974 47.1344V46.6169C81.8974 46.5229 81.8504 46.4758 81.8504 46.3817V46.1936C81.8974 46.0525 81.8974 45.9113 81.8504 45.7702L81.8033 45.7232V45.6761C81.8033 45.5821 81.8033 45.535 81.8504 45.4409C81.8504 45.3939 81.8503 45.3939 81.8033 45.3469C81.8503 45.1117 81.8503 44.9235 81.8033 44.6883V44.5001C81.8033 44.359 81.7563 44.2179 81.7563 44.0768V44.0297C81.7563 43.8886 81.8033 43.7475 81.8504 43.6064V43.5123C81.8974 43.2771 81.8974 43.0889 81.8504 42.8537V42.7126C81.8974 42.5715 81.9444 42.3833 81.9444 42.2422C81.9444 42.1481 81.9444 42.054 81.9915 42.007C81.9915 41.7718 82.0385 41.5836 82.0385 41.3484V41.2543C82.0856 41.3014 82.1326 41.3014 82.1326 41.3484L82.2267 41.4425C82.2737 41.5366 82.3208 41.5836 82.3678 41.6777C82.4148 41.7718 82.4148 41.7718 82.4619 41.8188C82.556 42.054 82.6971 42.2892 82.7912 42.5244L82.8382 42.7126C82.8852 42.8537 82.9323 42.9478 82.9793 43.0889C83.0264 43.23 83.0264 43.2771 82.9793 43.2771C82.9323 43.2771 83.0264 43.4182 83.0734 43.4182C83.0734 43.7004 83.1204 43.9827 83.2616 44.2649C83.2616 44.4531 83.3086 44.5942 83.3086 44.7824C83.3556 45.0646 83.3556 45.2057 83.4027 45.2057L83.4497 45.5821C83.3086 45.7232 83.2616 45.9113 83.2616 46.0995ZM83.4968 51.1328C83.4968 51.1328 83.4497 51.1799 83.4027 51.0858V50.9917V50.7095V50.5683C83.4497 50.3331 83.4027 50.0509 83.3556 49.8157C83.3556 49.6746 83.3556 49.5805 83.3086 49.4394V48.3104C83.3086 47.9341 83.3556 47.5578 83.3556 47.2285C83.3556 47.1344 83.4027 47.0403 83.4027 46.9462V46.5699C83.4027 46.2406 83.4497 45.8643 83.5438 45.535C83.6379 45.2057 83.6849 44.8294 83.732 44.5001C83.732 44.312 83.779 44.0768 83.826 43.8886C83.8731 43.7004 83.9201 43.4652 83.9672 43.2771C84.0142 43.136 84.0613 42.9948 84.1083 42.8067C84.2965 42.1952 84.5317 41.6307 84.8139 41.0662C84.8609 40.9721 84.955 40.878 85.0021 40.7839C85.0961 40.5958 85.2373 40.4547 85.3313 40.2665C85.4254 40.0783 85.5195 39.9372 85.6606 39.7961C85.7077 39.7491 85.7547 39.655 85.8488 39.6079L85.9429 39.5139V39.6079C85.9429 39.702 85.9899 39.7961 86.0369 39.8902C86.0369 39.9843 86.084 40.0313 86.084 40.1254C86.084 40.3135 86.084 40.5017 86.1781 40.6428L86.2251 40.6899V41.0191C86.2251 41.0662 86.2251 41.0662 86.2721 41.1132V41.3955C86.3192 41.7248 86.3662 42.1011 86.4133 42.4304V42.5715C86.4133 42.7596 86.4133 42.9478 86.3192 43.0889V43.183C86.2721 43.4182 86.2721 43.7004 86.3192 43.9356V44.1238C86.2721 44.312 86.2251 44.5001 86.2251 44.6883C86.2251 44.7824 86.1781 44.8765 86.1781 44.9705C86.1781 45.0646 86.131 45.1587 86.131 45.2528C86.084 45.4409 86.0369 45.6761 85.9899 45.8643C85.7547 46.8051 85.4254 47.7459 85.0491 48.6397C85.0491 48.6867 85.0491 48.6867 85.0021 48.6867C84.955 48.8278 84.908 48.9219 84.8609 48.8749C84.8609 48.9219 84.8139 49.016 84.8139 49.063C84.7198 49.1571 84.6257 49.2983 84.5787 49.4394C84.5317 49.5335 84.4376 49.6275 84.3905 49.7216L84.2964 49.9098C84.1083 50.3331 83.826 50.7565 83.4968 51.1328ZM90.2235 42.4774V43.23C90.2235 43.3712 90.1765 43.4652 90.1765 43.6064C89.9883 44.2649 89.6591 44.9235 89.2827 45.488L89.0946 45.6761C89.0005 45.7702 89.0005 45.9113 88.9064 46.0054C88.483 46.5229 88.0597 47.0403 87.5893 47.5107C87.307 47.84 87.0718 48.1222 86.7896 48.4045L86.4603 48.7338C86.0369 49.1571 85.5665 49.5805 85.0961 49.9568C85.0021 50.0039 84.908 50.0979 84.8139 50.145C84.5317 50.3331 84.2964 50.5683 84.0612 50.7565C84.1083 50.7095 84.1083 50.6624 84.1553 50.6154V50.5213L84.2024 50.4743L84.3905 50.2861C84.3905 50.2391 84.3905 50.2391 84.4376 50.192C84.6257 50.0039 84.7669 49.8157 84.8609 49.5805C84.908 49.5335 84.955 49.4864 84.955 49.3923C85.0491 49.2983 85.0961 49.1571 85.0961 49.016C85.1432 48.9219 85.1902 48.8749 85.1902 48.7808C85.2373 48.6867 85.3313 48.5456 85.4254 48.4515V48.3574C85.5665 48.1693 85.6606 47.887 85.6606 47.6518C85.7077 47.6048 85.7077 47.5578 85.7077 47.5107C85.8017 47.3696 85.8958 47.1814 85.9429 46.9933C85.9899 46.8992 85.9899 46.8051 86.0369 46.711C86.084 46.617 86.084 46.5699 86.084 46.5229C86.1781 46.2877 86.2251 46.0995 86.2721 45.8643C86.3192 45.7232 86.3192 45.6291 86.3662 45.488C86.4133 45.3469 86.4133 45.2528 86.4133 45.1117V45.0646L86.5544 44.9235C86.6014 44.8765 86.6485 44.8294 86.6485 44.7824L87.213 44.0768L87.4011 43.9356C87.4952 43.7945 87.5893 43.7004 87.7304 43.6064C87.8245 43.4652 87.9186 43.4182 87.9186 43.5123C87.9186 43.4652 88.0126 43.3712 88.0597 43.3712C88.3419 43.183 88.5771 42.9478 88.8123 42.7126L89.2827 42.3833C89.565 42.1952 89.7061 42.1011 89.6591 42.054C89.7061 42.007 89.7531 41.9599 89.8472 41.9599L89.9413 41.9129H89.9883C89.9883 42.007 89.9883 42.054 90.0354 42.1011V42.1952L90.0824 42.3363C90.2235 42.3833 90.2235 42.4304 90.2235 42.4774Z" fill="#A1A1A1"/>
</svg>
