<svg width="120" height="120" viewBox="0 0 120 120" fill="none" xmlns="http://www.w3.org/2000/svg">
<path d="M66.7975 46.6171L47.6991 65.7625L28.5537 46.6171L47.6991 27.4717L66.7975 46.6171Z" fill="#A1A1A1"/>
<path d="M4.51611 54.9432L12.4189 62.846L12.7011 46.6641L4.51611 54.9432Z" fill="#A1A1A1"/>
<path d="M20.6035 54.7549L12.4185 62.8458L20.4624 70.8427L20.6035 70.7016V54.7549Z" fill="#A1A1A1"/>
<path d="M28.4596 78.8396L36.7387 70.7016L28.4126 62.3755V78.8396H28.4596Z" fill="#A1A1A1"/>
<path d="M20.4624 70.8428L20.6035 70.9839V70.7017L20.4624 70.8428Z" fill="#A1A1A1"/>
<path d="M53.0618 38.3378L53.1088 38.2908L44.7827 30.4351L36.8799 38.2908L53.0618 38.3378Z" fill="#A1A1A1"/>
<path d="M36.8329 70.7957L36.7388 70.7017L36.8329 70.7957Z" fill="#A1A1A1"/>
<path d="M28.4126 78.8869V78.9339H28.5067L28.4596 78.8398L28.4126 78.8869Z" fill="#A1A1A1"/>
<path d="M45.0648 78.9336H44.9707L45.0648 79.0277V78.9336Z" fill="#A1A1A1"/>
<path d="M61.3405 46.5229L61.1523 52.4971V62.9871L69.2433 54.9432L61.3405 46.5229Z" fill="#A1A1A1"/>
<path d="M28.5065 78.9337H44.9706L36.8327 70.7957L36.7386 70.7017L28.4595 78.8396L28.5065 78.9337Z" fill="#A1A1A1"/>
<path d="M12.701 29.8234L12.6539 29.7764L4.42188 38.3848L12.701 46.6639V29.8234Z" fill="#A1A1A1"/>
<path d="M4.46875 54.9902L4.51579 54.9432L4.46875 54.8491V54.9902Z" fill="#A1A1A1"/>
<path d="M12.7008 29.8237L12.6538 46.6171L20.6036 38.5732L12.7008 29.8237Z" fill="#A1A1A1"/>
<path d="M12.7008 29.7295L12.6538 29.7765L12.7008 29.8236V29.7295Z" fill="#A1A1A1"/>
<path d="M24.7901 26.1543C22.391 23.7552 18.5337 23.7552 16.1346 26.1543L12.7007 29.7764L28.5062 29.8705L24.7901 26.1543Z" fill="#A1A1A1"/>
<path d="M28.5062 29.8236L12.7007 29.7295V29.8236L20.6035 38.5731L28.5062 29.8236Z" fill="#A1A1A1"/>
<path d="M20.6035 54.7552V70.7019L28.3652 62.2817L20.6976 54.6611L20.6035 54.7552Z" fill="#A1A1A1"/>
<path d="M28.4122 62.3753L28.3652 62.2812L20.6035 70.7015V70.9837L28.4122 78.8395V62.3753Z" fill="#A1A1A1"/>
<path d="M44.9238 63.0343V62.9873L36.7388 70.7019L36.8329 70.796L44.9708 78.934H45.0649L44.9238 63.0343Z" fill="#A1A1A1"/>
<path d="M44.9705 78.9336H28.5063L32.4577 82.885C34.6216 85.3311 38.3378 85.5663 40.7839 83.4024C40.878 83.3083 41.0191 83.2143 41.1132 83.1202L45.1116 79.1218V79.0277L44.9705 78.9336Z" fill="#A1A1A1"/>
<path d="M36.8799 38.291L44.9238 46.5231L53.0618 38.3381L36.8799 38.291Z" fill="white"/>
<path d="M53.1086 38.291L53.0615 38.3381H53.1086V38.291Z" fill="#A1A1A1"/>
<path d="M69.2436 54.943V38.8081L61.3408 46.5227L69.2436 54.943Z" fill="#A1A1A1"/>
<path d="M53.2026 70.984L61.1525 62.9871L53.2026 54.5669V70.984Z" fill="#A1A1A1"/>
<path d="M45.0645 79.0277L45.1115 79.0747L45.2526 78.9336H45.0645V79.0277Z" fill="#A1A1A1"/>
<path d="M53.0143 54.708L49.204 58.4712L44.9233 62.9871V63.0342L53.0143 71.1251L53.1084 71.0781L53.2024 70.984V54.8962V54.5669L53.0143 54.708Z" fill="#A1A1A1"/>
<path d="M44.9233 63.0342L45.0645 78.9338H45.2526L53.0143 71.1251L44.9233 63.0342Z" fill="#A1A1A1"/>
<path d="M45.0645 79.1219L45.1115 79.0749L45.0645 79.0278V79.1219Z" fill="#A1A1A1"/>
<path d="M57.3422 26.5307C54.9431 24.1317 51.0858 24.1317 48.6867 26.5307L44.8765 30.4351H61.2465L57.3422 26.5307Z" fill="#A1A1A1"/>
<path d="M61.1523 30.4351H44.7822L53.1084 38.2908L61.1523 30.4351Z" fill="#A1A1A1"/>
<path d="M63.5984 32.8812L61.1523 30.4351V34.1512L61.3405 46.5229L69.2433 38.8082L63.5984 32.8812Z" fill="#A1A1A1"/>
<path d="M12.2776 46.2405L4.42188 38.3848L4.46892 54.8489L4.51596 54.943L12.2776 47.0402L12.6539 46.6168L12.2776 46.2405Z" fill="#A1A1A1"/>
<path d="M20.6035 54.567L12.6537 46.6172L12.4185 62.8461L20.6035 54.7552L20.6976 54.6611L20.6035 54.567Z" fill="#A1A1A1"/>
<path d="M55.2724 52.4971L53.2026 54.5669L61.1525 62.9871L61.3406 46.5229L55.2724 52.4971Z" fill="white"/>
<path d="M61.1523 30.4351L53.1084 38.2908V38.3378L61.3405 46.5229L61.1523 34.1512V30.4351Z" fill="white"/>
<path d="M115.484 64.1159C114.966 63.8336 114.355 63.7395 113.79 63.8336C112.944 64.0688 112.85 64.5392 112.85 64.5392V78.8865H115.437V64.1159H115.484Z" fill="#A1A1A1"/>
<path d="M113.838 84.6724C113.038 84.9076 112.897 85.378 112.897 85.378V95.2565H115.484V84.9076C115.484 84.9547 114.637 84.4372 113.838 84.6724Z" fill="#A1A1A1"/>
<path d="M90.8351 76.6756H88.4831V74.1354C88.436 73.618 88.8594 73.1946 89.3768 73.1476H89.4239H89.8943C90.4117 73.1476 90.8351 73.5709 90.8351 74.0884V74.1354V76.6756ZM108.946 63.8336C108.146 64.0688 108.005 64.5392 108.005 64.5392V73.9002C108.005 76.1111 106.029 76.6286 105.088 76.6286H102.972C103.442 75.7348 103.677 74.7469 103.63 73.7121V68.0672C103.113 67.785 102.501 67.6909 101.937 67.785C101.09 68.0202 100.996 68.4906 100.996 68.4906V73.9002C100.996 76.1111 99.0201 76.6286 98.0793 76.6286H96.7622V72.1597C96.7622 71.36 96.8092 69.8077 95.9154 68.6787C95.0217 67.5498 93.3753 66.9382 91.1173 66.9382C88.8594 66.9382 87.4952 67.5968 87.4952 68.5847C87.4482 69.1491 87.7304 69.6666 88.2008 69.9488C88.2008 69.9488 88.9064 69.1962 91.0703 69.1962C93.2342 69.1962 94.0338 70.0899 94.0338 70.8896V76.6286H92.8108V73.3828C92.8108 72.2538 91.6818 71.266 90.2706 71.266H89.0005C87.5893 71.266 86.4603 72.2068 86.4603 73.3828V76.6286H84.0613V75.4525C84.0613 74.6529 84.1083 73.1005 83.2145 71.9716C82.3208 70.8426 80.6744 70.2311 78.4164 70.2311C76.1585 70.2311 74.7943 70.8896 74.7943 71.8775C74.7473 72.442 75.0295 72.9594 75.4999 73.2417C75.4999 73.2417 76.2055 72.489 78.3694 72.489C80.5333 72.489 81.3329 73.3828 81.3329 74.1825V76.6286H73.8535V78.8865H105.794C108.428 78.8865 110.686 77.3812 110.686 73.7121V64.0688C110.639 64.1158 109.792 63.5984 108.946 63.8336Z" fill="#A1A1A1"/>
<path d="M102.172 66.4682C102.877 66.4682 103.489 65.8567 103.489 65.1511C103.489 64.4455 102.877 63.834 102.172 63.834C101.466 63.834 100.854 64.4455 100.854 65.1511C100.854 65.8567 101.466 66.4682 102.172 66.4682Z" fill="#A1A1A1"/>
<path d="M114.261 83.4497C114.967 83.4497 115.578 82.8382 115.578 82.1326C115.578 81.427 114.967 80.8625 114.261 80.8154C113.555 80.8154 112.944 81.427 112.944 82.1326C112.944 82.8852 113.508 83.4497 114.261 83.4497Z" fill="#A1A1A1"/>
<path d="M67.7383 82.0857C67.7383 82.7913 68.3498 83.4028 69.0554 83.4028C69.761 83.4028 70.3725 82.7913 70.3725 82.0857C70.3725 81.3801 69.761 80.7686 69.0554 80.7686C68.3498 80.7686 67.7383 81.333 67.7383 82.0857Z" fill="#A1A1A1"/>
<path d="M63.7395 80.7686C63.0339 80.7686 62.4224 81.3801 62.4224 82.0857C62.4224 82.7913 63.0339 83.4028 63.7395 83.4028C64.4451 83.4028 65.0566 82.7913 65.0566 82.0857C65.0566 81.3801 64.4921 80.7686 63.7865 80.7686C63.7865 80.7686 63.7865 80.7686 63.7395 80.7686Z" fill="#A1A1A1"/>
<path d="M65.0099 79.9216H67.5972C69.9021 79.9216 71.7838 78.04 71.7838 75.735V71.5014H68.1146V70.2783C68.1146 69.902 68.4439 69.5727 68.8202 69.5257C68.9613 69.4786 69.1025 69.4786 69.2436 69.4786H71.7838V67.0796H68.3969C67.8324 67.0796 67.2679 67.3148 66.8445 67.6911C66.6093 67.9263 66.4212 68.1615 66.233 68.4438C66.1389 68.5849 66.0919 68.726 66.0448 68.8671C65.8567 69.2905 65.7156 69.8079 65.7156 70.2783V74.0886H69.0554V75.0294C69.0554 75.9702 68.4439 77.4755 67.0797 77.4755H65.3863C64.4455 77.4755 63.6458 76.2054 63.6458 75.1705V71.5955C63.6458 71.5955 61.8582 70.6076 61.0115 72.0188C60.9645 72.3481 60.9174 72.6774 60.9174 73.0067V75.735C60.8704 77.993 62.6109 79.8275 64.8688 79.9216C64.9159 79.9216 65.0099 79.9216 65.0099 79.9216Z" fill="#A1A1A1"/>
<path d="M104.9 93.234C103.113 93.3281 101.607 91.9169 101.513 90.1293C101.419 88.3418 102.83 86.8365 104.618 86.7424C106.405 86.6483 107.911 88.0596 108.005 89.8471C108.005 89.8941 108.005 89.9412 108.005 89.9882C108.052 91.7287 106.688 93.187 104.9 93.234ZM107.958 81.615V85.6605C107.111 84.8138 105.982 84.2963 104.806 84.2493C101.654 84.2963 99.1611 86.8835 99.2082 90.0353C99.2552 93.187 101.842 95.6801 104.994 95.6331C108.052 95.586 110.498 93.1399 110.592 90.0823V80.8153C110.592 80.8624 107.958 79.9216 107.958 81.615Z" fill="#A1A1A1"/>
<path d="M66.9857 84.3906H65.8097C63.1284 84.3906 60.9175 86.2722 60.9175 88.5302V95.3981H63.6929V88.8124C63.6929 87.6835 64.5866 86.7426 65.7156 86.7426C65.7156 86.7426 65.7156 86.7426 65.7626 86.7426H67.0798C68.2087 86.7426 69.1495 87.6364 69.1495 88.7654C69.1495 88.7654 69.1495 88.7654 69.1495 88.8124V95.3981H71.9249V88.5302C71.8779 86.2722 69.667 84.3906 66.9857 84.3906Z" fill="#A1A1A1"/>
<path d="M81.3798 93.3752C81.3798 93.3752 79.4512 93.5163 78.134 93.5163C77.2873 93.5633 76.5817 92.9048 76.5346 92.058C76.5346 92.011 76.5346 92.011 76.5346 91.964C76.5346 91.4936 76.5817 90.4587 78.3222 90.4587C79.3571 90.4587 80.3449 90.5528 81.3798 90.6939V93.3752ZM78.7455 84.2964C76.2054 84.2964 74.8412 84.9079 74.8412 85.8958C74.8412 86.4602 75.0764 86.9777 75.4998 87.307C76.4406 86.7425 77.4755 86.4602 78.5574 86.5073C79.263 86.5073 81.4269 86.4602 81.4269 88.53V88.6241C80.1097 88.53 78.7926 88.53 77.4755 88.5771C74.653 88.6711 73.9004 90.788 73.9004 91.7758C73.9004 92.7637 73.9004 95.3509 77.8518 95.5861C79.9686 95.7272 82.0854 95.6802 84.1552 95.3509V88.7652C84.1081 85.4724 81.2857 84.2964 78.7455 84.2964Z" fill="#A1A1A1"/>
<path d="M91.7757 84.3434C90.7878 84.4845 89.847 84.8609 89.0473 85.4254V81.0036C88.5299 80.7213 87.9184 80.6272 87.3539 80.7213C86.5542 80.9565 86.4131 81.4269 86.4131 81.4269V95.3979H89.0003V89.1415C89.0003 87.4951 90.3174 86.7895 91.5875 86.7895C92.8576 86.7895 94.0807 87.4481 94.0807 89.1415V95.3979H96.762V88.2007C96.856 85.0961 93.8925 84.0612 91.7757 84.3434Z" fill="#A1A1A1"/>
</svg>
