<svg width="120" height="120" viewBox="0 0 120 120" fill="none" xmlns="http://www.w3.org/2000/svg">
<path d="M29.3532 69.5256C29.071 68.82 28.3654 68.3496 27.5657 68.3496C27.2364 68.3496 26.9542 68.4437 26.6719 68.5848C26.3897 68.7259 26.1545 68.9141 25.9663 69.1963C25.7782 69.4786 25.59 69.7608 25.4959 70.0901C25.4018 70.4664 25.3078 70.8428 25.3078 71.2191C25.2607 71.8306 25.4489 72.3951 25.8722 72.8185C26.2956 73.1948 26.8601 73.43 27.4246 73.3829C27.7068 73.3829 27.9891 73.3359 28.2713 73.2418C28.5065 73.1477 28.7417 73.0066 28.9769 72.8655V73.9004C28.9769 74.0885 28.6476 74.2297 27.9891 74.3708C27.3305 74.5119 16.0878 74.5119 14.7707 74.5119H14.4414C14.0651 74.5589 13.6888 74.4649 13.3595 74.2297C13.1243 73.9945 12.9832 73.6181 13.0302 73.2889L13.0773 68.2085L11.9013 68.3967V69.2904C10.8664 69.4315 9.92556 69.8549 9.07883 70.4664C8.42027 70.9368 8.04395 71.6424 8.04395 72.4421C8.04395 72.7244 8.09099 73.0066 8.23211 73.2889C8.37323 73.5241 8.51435 73.7593 8.74955 73.9474C8.98475 74.1356 9.21995 74.2297 9.5022 74.3237C9.78444 74.4178 10.1137 74.4649 10.443 74.4649C10.9604 74.5119 11.4779 74.3708 11.9483 74.0885C12.1365 75.2175 12.9361 75.782 14.3474 75.782H14.6766C15.1941 75.782 25.9663 75.782 26.3427 75.735C26.719 75.735 27.0483 75.6879 27.4246 75.6409C27.7539 75.5938 27.9891 75.5468 28.2243 75.4998C28.4595 75.4527 28.6476 75.3586 28.8358 75.2646C29.2121 75.1234 29.4944 74.8412 29.6355 74.4649C29.8236 73.9945 29.8707 73.477 29.8707 72.9596C29.9648 71.5013 29.7766 70.2783 29.3532 69.5256ZM28.3183 72.0658C28.0831 72.1128 27.8009 72.1599 27.5657 72.1599C27.2364 72.2069 26.9071 72.0658 26.6249 71.8776C26.3897 71.6424 26.2486 71.3602 26.2956 71.0309C26.2956 70.6546 26.4367 70.2783 26.6719 69.996C26.9071 69.7138 27.2364 69.5727 27.6127 69.5727C27.9891 69.5727 28.3654 69.7608 28.5535 70.0901C28.8358 70.6076 28.9769 71.172 28.9769 71.7836C28.7417 71.8776 28.5535 71.9717 28.3183 72.0658ZM10.6782 73.1477C10.49 73.1477 10.2548 73.1477 10.0667 73.1007C9.87852 73.0537 9.69036 73.0066 9.54924 72.9125C9.40812 72.8655 9.31404 72.7244 9.21995 72.6303C9.12587 72.4892 9.07883 72.348 9.07883 72.1599C9.07883 71.9247 9.17291 71.7365 9.31403 71.5484C9.5022 71.3602 9.69036 71.172 9.92556 71.0309C10.2078 70.8898 10.49 70.7487 10.8193 70.6546C11.1486 70.5605 11.5249 70.4664 11.9013 70.4664L11.9483 72.8655C11.572 73.0537 11.1486 73.1477 10.6782 73.1477Z" fill="#A1A1A1"/>
<path d="M47.652 67.7382L46.7112 66.7974L45.8174 67.7382L46.7112 68.679L47.652 67.7382Z" fill="#A1A1A1"/>
<path d="M49.8626 67.7382L48.9218 66.7974L47.981 67.7382L48.9218 68.679L49.8626 67.7382Z" fill="#A1A1A1"/>
<path d="M65.1511 67.5028L64.2103 66.562L63.2695 67.5028L64.2103 68.4436L65.1511 67.5028Z" fill="#A1A1A1"/>
<path d="M65.2919 70.3723L66.2327 69.4315L65.2919 68.4907L64.3511 69.4315L65.2919 70.3723Z" fill="#A1A1A1"/>
<path d="M64.0691 69.4315L63.1283 68.4907L62.1875 69.4315L63.1283 70.3723L64.0691 69.4315Z" fill="#A1A1A1"/>
<path d="M78.2282 66.3268L78.2752 73.6651C78.2752 73.8063 78.2282 73.9474 78.1341 74.0414C78.04 74.1355 77.8518 74.2296 77.7107 74.2767C77.5226 74.3237 77.3814 74.3707 77.1462 74.4178C76.911 74.4648 66.4681 74.4648 66.2329 74.4648C65.0569 74.4648 64.4453 74.1355 64.4453 73.524C64.4924 73.2888 64.4924 73.1006 64.4924 72.8654C64.5394 72.5362 64.5864 72.1598 64.6335 71.6894L63.5986 71.5954C63.5516 71.7365 63.5516 71.9246 63.5516 72.0658C63.5045 72.2539 63.5045 72.395 63.4575 72.5832C63.4104 72.7714 63.4104 72.9125 63.3634 73.1006C63.3164 73.2888 63.3164 73.3829 63.2693 73.524C63.1752 73.8533 62.9871 74.1355 62.7048 74.2767C62.3756 74.4178 51.6503 74.5119 50.9918 74.5119H50.1451C49.8628 74.5119 49.6276 74.4648 49.3924 74.4648C49.9099 73.9944 50.1921 73.3358 50.1921 72.6302C50.1921 72.2539 50.1451 71.9246 50.0039 71.5954C49.9099 71.2661 49.7217 70.9838 49.4865 70.7486C49.2983 70.5134 49.0161 70.3253 48.7338 70.1841C48.1694 69.9489 47.5108 69.9489 46.9463 70.1841C46.6641 70.3253 46.4289 70.5134 46.1937 70.7486C45.9585 70.9838 45.7703 71.2661 45.6762 71.5954C45.5351 71.9246 45.4881 72.2539 45.4881 72.6302C45.4881 73.3358 45.7703 73.9944 46.2877 74.4648C46.0525 74.5119 45.7703 74.5119 45.5351 74.5119H34.4336C34.0572 74.5589 33.6809 74.4648 33.3987 74.2296C33.1635 73.9944 33.0224 73.6181 33.0694 73.2888L33.1164 66.1857L31.9404 66.3739L31.9875 73.7122C32.0345 75.1234 32.8342 75.829 34.4336 75.829C34.9981 75.829 45.8173 75.7819 46.3818 75.6879C46.8993 75.5938 47.3697 75.4527 47.8871 75.3115C48.3575 75.4997 48.875 75.5938 49.3924 75.6879C49.9569 75.7819 50.4743 75.829 51.0388 75.829C51.6503 75.829 62.4696 75.7349 62.94 75.5467C63.3634 75.4056 63.6927 75.1704 63.9279 74.7941C64.3042 75.4527 65.1039 75.7819 66.2799 75.7819C66.6562 75.7819 77.2403 75.7349 77.6166 75.6879C77.9459 75.6408 78.2282 75.4997 78.5104 75.3115C78.7926 75.1234 78.9808 74.8882 79.169 74.6059C79.3571 74.2767 79.4042 73.9474 79.4042 73.571L79.4512 66.1387L78.2282 66.3268ZM47.8401 74.0885C46.8993 73.8063 46.4759 73.2888 46.4759 72.5832C46.4759 72.395 46.5229 72.2069 46.57 72.0187C46.617 71.8306 46.7111 71.6894 46.8522 71.5483C46.9463 71.4072 47.1345 71.3131 47.2756 71.2661C47.4638 71.219 47.6519 71.172 47.8401 71.172C48.0282 71.172 48.1694 71.219 48.3575 71.2661C48.4986 71.3131 48.6868 71.4072 48.7809 71.5483C48.922 71.6894 49.0161 71.8306 49.0631 72.0187C49.1102 72.2069 49.1572 72.395 49.1572 72.5832C49.2042 73.2888 48.7338 73.8063 47.8401 74.0885Z" fill="#A1A1A1"/>
<path d="M81.3327 75.7819L81.2856 66.3268L82.4617 66.1387L82.3676 75.7819H81.3327Z" fill="#A1A1A1"/>
<path d="M92.0109 73.5712C92.0109 74.2297 91.7757 74.8413 91.3053 75.3117C90.7879 75.7821 90.1293 76.0173 89.4237 75.9702C88.7181 76.0173 88.0125 75.8291 87.495 75.3587C87.0246 74.8883 86.7894 74.2297 86.8365 73.5712C86.8365 73.1008 86.8835 72.6304 87.0246 72.207C87.1658 71.7836 87.3539 71.4073 87.5891 71.078C87.8243 70.7958 88.1066 70.5135 88.3888 70.2783C88.671 70.0902 89.0474 69.9961 89.3767 69.9961C89.753 69.9961 90.0823 70.0902 90.4115 70.2783C90.7408 70.4665 91.0231 70.7488 91.2112 71.078C91.4464 71.4544 91.6346 71.8307 91.7757 72.254C91.9639 72.6304 92.0109 73.1008 92.0109 73.5712ZM88.3418 68.679L87.401 67.7382L88.3418 66.7974L89.2826 67.7382L88.3418 68.679ZM91.0231 73.6653C91.0231 73.336 90.976 73.0537 90.929 72.7245C90.8349 72.4422 90.7408 72.207 90.5997 71.9718C90.4586 71.7836 90.2704 71.5955 90.0823 71.4544C89.8941 71.3603 89.7059 71.2662 89.4707 71.2662C89.2355 71.2662 89.0474 71.3132 88.8592 71.4073C88.671 71.5014 88.4829 71.6425 88.3418 71.8307C88.2006 72.0188 88.1066 72.207 88.0125 72.4422C87.9184 72.6774 87.8714 72.9597 87.8714 73.1949C87.8714 73.5712 88.0125 73.9475 88.2947 74.1827C88.624 74.4179 89.0474 74.559 89.4707 74.512C89.6589 74.512 89.8941 74.4649 90.0823 74.4649C90.2704 74.4179 90.4586 74.3709 90.5997 74.2768C90.7408 74.1827 90.8349 74.0886 90.929 73.9945C90.976 73.8534 91.0231 73.7593 91.0231 73.6653ZM90.5527 68.679L89.6119 67.7382L90.5527 66.7974L91.4935 67.7382L90.5527 68.679Z" fill="#A1A1A1"/>
<path d="M91.5874 77.6166C92.1048 77.4284 92.6223 77.1932 93.0927 76.911C93.5161 76.6758 93.8924 76.3936 94.2687 76.1113C94.5509 75.8761 94.8332 75.5939 95.0684 75.2646C95.2566 75.0294 95.3506 74.7471 95.3506 74.4649C95.3506 74.2767 95.3036 74.0415 95.2566 73.8534C95.1625 73.5711 95.0684 73.3359 94.9743 73.0537C94.8332 72.7714 94.6921 72.4422 94.5509 72.1129C94.3628 71.7836 94.1746 71.4543 93.9865 71.1721L95.0684 70.5605C95.4918 71.125 95.821 71.7836 96.0562 72.4422C96.2914 73.0537 96.4326 73.6652 96.4326 74.3238C96.4326 75.3116 96.0092 76.2054 95.3506 76.911C94.5039 77.8048 93.469 78.4163 92.293 78.7926L91.5874 77.6166Z" fill="#A1A1A1"/>
<path d="M98.4554 75.7819L98.3613 66.3268L99.5373 66.1387L99.4903 75.7819H98.4554Z" fill="#A1A1A1"/>
<path d="M100.29 77.6168C100.807 77.4286 101.325 77.1934 101.795 76.9112C102.219 76.676 102.595 76.3937 102.971 76.1115C103.254 75.8763 103.536 75.594 103.771 75.2648C103.959 75.0296 104.053 74.7473 104.053 74.4651C104.053 74.2769 104.006 74.0417 103.959 73.8535C103.865 73.5713 103.771 73.3361 103.677 73.0539C103.536 72.7716 103.395 72.4423 103.254 72.1131C103.112 71.7838 102.924 71.4545 102.689 71.1722L103.771 70.5607C104.194 71.1252 104.524 71.7838 104.759 72.4423C104.994 73.0539 105.135 73.6654 105.135 74.324C105.135 75.3118 104.712 76.2056 104.053 76.9112C103.207 77.8049 102.172 78.4165 100.996 78.7928L100.29 77.6168ZM103.018 69.3377L102.078 68.3969L103.018 67.4561L103.959 68.3969L103.018 69.3377Z" fill="#A1A1A1"/>
<path d="M107.064 77.5696C109.228 77.2873 110.451 76.4876 110.78 75.2175C110.592 75.4057 110.31 75.4998 110.074 75.5468C109.792 75.6409 109.51 75.6409 109.228 75.6409C108.616 75.6409 108.052 75.4057 107.628 74.9353C107.205 74.4179 106.97 73.8063 107.017 73.1478C107.017 72.7244 107.064 72.3481 107.205 71.9718C107.299 71.6425 107.487 71.3132 107.722 71.031C107.91 70.7487 108.193 70.5605 108.475 70.4194C108.757 70.2783 109.086 70.1842 109.416 70.1842C110.168 70.1372 110.874 70.5605 111.25 71.2191C111.721 72.1129 111.956 73.1478 111.909 74.1827C111.909 74.7471 111.815 75.3116 111.58 75.8291C111.344 76.2995 111.062 76.7699 110.686 77.1932C110.31 77.5696 109.839 77.8988 109.322 78.1341C108.757 78.4163 108.146 78.6045 107.534 78.6515L107.064 77.5696ZM109.463 74.4649C109.745 74.4649 109.98 74.4179 110.262 74.3708C110.498 74.3238 110.686 74.2297 110.874 74.0886C110.874 73.477 110.733 72.8185 110.451 72.254C110.262 71.8777 109.839 71.5954 109.416 71.5954C109.039 71.5954 108.71 71.7366 108.475 72.0188C108.24 72.3481 108.099 72.7244 108.099 73.1478C108.052 73.5241 108.193 73.9004 108.475 74.1356C108.757 74.3238 109.133 74.4649 109.463 74.4649Z" fill="#A1A1A1"/>
<path d="M8.46714 81.1445H9.69019L12.3715 85.7074L15.0528 81.1445H16.2288L16.6522 89.9411H15.4291L15.1469 83.1673L12.6537 87.3068H11.9952L9.54907 83.2143L9.26683 89.9411H8.09082L8.46714 81.1445Z" fill="#A1A1A1"/>
<path d="M18.8163 81.0977L19.7571 82.0385L18.8163 82.9793L17.8755 82.0385L18.8163 81.0977ZM18.2518 83.779H19.4278V89.9412H18.2518V83.779Z" fill="#A1A1A1"/>
<path d="M21.1211 89.9413V83.826H22.2501L22.2971 84.7668C22.3912 84.6728 22.4853 84.5316 22.5793 84.4376C22.7205 84.2964 22.8616 84.2024 23.0027 84.1083L23.5672 83.826C23.8024 83.779 24.0846 83.732 24.3198 83.732C24.9784 83.6849 25.637 83.9201 26.1074 84.4376C26.4837 85.002 26.7189 85.6606 26.6719 86.3192V89.9883H25.4958V86.4133C25.5429 85.9429 25.4018 85.5195 25.1195 85.1432C24.8373 84.8609 24.461 84.7198 24.0846 84.7198C23.5202 84.6728 22.9557 84.955 22.6734 85.4724C22.5323 85.7076 22.4382 85.9429 22.3912 86.2251C22.3441 86.5073 22.2971 86.8366 22.2971 87.1189V89.9883L21.1211 89.9413Z" fill="#A1A1A1"/>
<path d="M28.7416 81.0977L29.6824 82.0385L28.7416 82.9793L27.8008 82.0385L28.7416 81.0977ZM28.1301 83.779H29.3061V89.9412H28.1301V83.779Z" fill="#A1A1A1"/>
<path d="M31.3288 88.3889C31.564 88.6241 31.8463 88.8123 32.1285 88.9064C32.4578 89.0475 32.8341 89.0945 33.2104 89.0945C33.5397 89.0945 33.869 89.0475 34.1983 88.9064C34.4335 88.8123 34.5746 88.5771 34.5746 88.2949C34.5746 88.1537 34.5276 88.0126 34.4805 87.9185C34.4335 87.8245 34.2924 87.6833 34.1983 87.6363C34.0101 87.5422 33.822 87.4481 33.6338 87.4011C33.3986 87.3541 33.1164 87.26 32.7871 87.1659C32.5519 87.1189 32.3167 87.0718 32.0815 86.9777C31.8463 86.8836 31.6581 86.7896 31.4699 86.6484C31.2818 86.5073 31.1407 86.3192 30.9995 86.131C30.9055 85.8958 30.8114 85.6606 30.8114 85.3784C30.8114 85.0961 30.8584 84.8139 30.9995 84.5787C31.1407 84.3435 31.3288 84.1553 31.564 84.0142C31.7992 83.8731 32.0344 83.7319 32.3167 83.6849C32.5989 83.5908 32.9282 83.5908 33.2104 83.5908C33.6338 83.5908 34.1042 83.6379 34.5276 83.779C34.9039 83.9201 35.2332 84.1083 35.5154 84.3435L34.8568 85.1432C34.6687 84.955 34.4335 84.8139 34.1512 84.7198C33.822 84.6257 33.4927 84.5316 33.1634 84.5316C32.8341 84.4846 32.5519 84.5787 32.2696 84.7198C32.0344 84.8139 31.8933 85.0961 31.9403 85.3313C31.9403 85.6136 32.1285 85.8488 32.4107 85.8958C32.74 85.9899 33.1164 86.131 33.5868 86.2721C33.869 86.3192 34.1512 86.4132 34.3864 86.5073C34.6216 86.6014 34.8568 86.6955 35.045 86.8366C35.2332 86.9777 35.3743 87.1659 35.5154 87.3541C35.6095 87.5893 35.7036 87.8245 35.7036 88.1067C35.7036 88.3889 35.6565 88.6712 35.5154 88.9064C35.3743 89.1416 35.1861 89.3297 34.9509 89.4709C34.7157 89.612 34.4335 89.7531 34.1512 89.8001C33.822 89.8942 33.5397 89.8942 33.2104 89.8942C32.2226 89.9413 31.2818 89.612 30.5762 88.9534L31.3288 88.3889Z" fill="#A1A1A1"/>
<path d="M37.6793 84.7669H36.5503V83.7791H37.6793V81.7563H38.8553V83.7791H40.6428V84.7669H38.8553V87.7775C38.8082 88.1538 38.9023 88.4831 39.0905 88.8124C39.2316 89.0006 39.5138 89.0946 39.749 89.0946C39.9372 89.0946 40.1254 89.0476 40.3135 89.0006C40.5017 88.9065 40.6428 88.8124 40.7839 88.6713L41.3484 89.3769C41.1132 89.6121 40.831 89.7532 40.5487 89.8943C40.2665 89.9884 39.9372 90.0825 39.6079 90.0825C39.0905 90.1295 38.573 89.9414 38.1967 89.565C37.8204 89.0946 37.6793 88.5302 37.7263 87.9186L37.6793 84.7669Z" fill="#A1A1A1"/>
<path d="M42.3364 89.9411V83.8258H43.4654L43.5124 84.8137C43.6065 84.6726 43.7006 84.5785 43.7947 84.4844C43.9358 84.3433 44.0769 84.2492 44.218 84.1551C44.4062 84.061 44.5944 83.967 44.7825 83.8729C45.0177 83.7788 45.3 83.7788 45.5352 83.7788C45.6763 83.7788 45.7704 83.7788 45.9115 83.8258C46.0056 83.8258 46.1467 83.8729 46.2408 83.9199L45.9585 85.0489C45.7704 85.0019 45.5352 84.9548 45.347 84.9548C45.1118 84.9548 44.8766 85.0019 44.6414 85.0959C44.4062 85.19 44.218 85.3311 44.0769 85.5193C43.9358 85.7075 43.7947 85.8956 43.7006 86.1308C43.6065 86.366 43.5595 86.6012 43.5595 86.8364V90.0822L42.3364 89.9411Z" fill="#A1A1A1"/>
<path d="M47.3697 91.4467C47.4637 91.5408 47.5578 91.5878 47.6519 91.6349C47.793 91.6819 47.9342 91.729 48.0753 91.729C48.2164 91.729 48.3575 91.6819 48.4516 91.6349C48.5457 91.5878 48.6868 91.4467 48.7338 91.3526C48.8279 91.2115 48.922 91.0704 48.969 90.8822C49.0631 90.6941 49.1572 90.4589 49.2513 90.2707L49.3924 89.8944L46.6641 83.8262H48.0282L50.0039 88.4361L51.7444 83.8262H53.0145L50.5684 89.8003C50.4743 90.0825 50.3332 90.4118 50.2391 90.7411C50.1451 91.0704 50.0039 91.3997 49.8158 91.6819C49.6276 91.9642 49.4394 92.2464 49.1572 92.4346C48.875 92.6227 48.5457 92.7168 48.2164 92.7168C47.9342 92.7168 47.6519 92.6698 47.4167 92.5757C47.2285 92.4816 47.0404 92.3875 46.8522 92.2464L47.3697 91.4467Z" fill="#A1A1A1"/>
<path d="M58.8947 90.1296C58.4243 90.1296 58.0009 90.0355 57.5776 89.8474C57.2013 89.6592 56.872 89.424 56.5427 89.1417C56.2604 88.8595 56.0252 88.4832 55.8841 88.1069C55.696 87.7305 55.6489 87.2601 55.6489 86.8368C55.6489 86.4134 55.743 85.99 55.8841 85.5667C56.0252 85.1904 56.2604 84.814 56.5427 84.5318C56.8249 84.2495 57.2013 84.0143 57.5776 83.8262C58.0009 83.638 58.4243 83.5439 58.8947 83.5439C59.3651 83.5439 59.7885 83.638 60.2118 83.8262C60.5882 84.0143 60.9174 84.2495 61.2467 84.5318C61.529 84.814 61.7642 85.1904 61.9053 85.5667C62.0935 85.943 62.1405 86.4134 62.1405 86.8368C62.1405 87.2601 62.0464 87.6835 61.9053 88.1069C61.7642 88.4832 61.529 88.8125 61.2467 89.1417C60.9174 89.424 60.5882 89.6592 60.2118 89.8474C59.8355 90.0355 59.3651 90.1296 58.8947 90.1296ZM58.8947 89.0947C59.177 89.0947 59.4592 89.0477 59.7414 88.9065C59.9766 88.7654 60.2118 88.6243 60.4 88.3891C60.5882 88.2009 60.7293 87.9657 60.8234 87.6835C60.9174 87.4483 60.9645 87.166 60.9645 86.8838C60.9645 86.6016 60.9174 86.3193 60.8234 86.0841C60.7293 85.8019 60.5882 85.5667 60.4 85.3785C60.2118 85.1904 59.9766 85.0022 59.7414 84.8611C59.224 84.6259 58.5654 84.6259 58.048 84.8611C57.8128 85.0022 57.5776 85.1904 57.3894 85.3785C57.2013 85.5667 57.0601 85.8019 56.9661 86.0841C56.872 86.3664 56.8249 86.6486 56.8249 86.9309C56.8249 87.2131 56.872 87.4953 56.9661 87.7305C57.0601 88.0128 57.2013 88.248 57.3894 88.4361C57.5776 88.6243 57.8128 88.8125 58.048 88.9536C58.3302 89.0006 58.6125 89.0477 58.8947 89.0947Z" fill="#A1A1A1"/>
<path d="M63.9278 84.7667H62.7988V83.7788H63.9278V83.2614C63.9278 82.885 63.9748 82.5087 64.116 82.1794C64.21 81.8972 64.3982 81.662 64.5864 81.4268C64.7745 81.2386 65.0097 81.0975 65.2449 81.0034C65.4801 80.9093 65.7624 80.8623 66.0446 80.8623C66.3739 80.8623 66.7032 80.9093 66.9854 81.0034C67.3147 81.0975 67.5969 81.2857 67.8321 81.5209L67.2206 82.2735C66.9384 81.9913 66.5621 81.8502 66.1857 81.8502C65.9035 81.8502 65.5742 81.9442 65.386 82.1794C65.1508 82.5087 65.0568 82.885 65.0568 83.3084V83.6847H66.7973V84.6726H65.0568V89.847H63.8808L63.9278 84.7667Z" fill="#A1A1A1"/>
<path d="M78.3691 88.3889C78.228 88.5771 78.0869 88.7652 77.8987 88.9534C77.6635 89.1416 77.4283 89.3297 77.146 89.5179C76.8168 89.7061 76.4875 89.8472 76.1582 89.9883C75.7348 90.0824 75.3115 90.1765 74.8881 90.1765C74.2766 90.1765 73.665 90.0824 73.1006 89.8472C72.5831 89.612 72.1127 89.2827 71.6894 88.9064C71.313 88.483 70.9838 88.0126 70.7956 87.4481C70.6074 86.8366 70.4663 86.2251 70.4663 85.6135C70.4663 85.002 70.5604 84.3905 70.7956 83.826C71.0308 83.2615 71.313 82.7911 71.6894 82.3207C72.0657 81.8973 72.5831 81.5681 73.1006 81.3329C73.665 81.0977 74.2766 80.9565 74.8881 80.9565C75.3115 80.9565 75.7348 81.0036 76.1582 81.1447C76.4875 81.2388 76.8168 81.3799 77.146 81.5681C77.3812 81.7562 77.6164 81.9444 77.8516 82.1326C78.0398 82.2737 78.1809 82.5089 78.322 82.697L77.4283 83.4497C77.3342 83.3086 77.1931 83.1674 77.052 82.9793C76.9108 82.7911 76.7227 82.65 76.5345 82.5559C76.2993 82.4148 76.0641 82.3207 75.8289 82.2266C75.5467 82.1326 75.2174 82.0855 74.9351 82.0855C74.4647 82.0855 74.0414 82.1796 73.618 82.3678C73.2417 82.5559 72.9124 82.7911 72.6302 83.1204C72.3479 83.4497 72.1598 83.826 72.0186 84.2494C71.8775 84.6727 71.8305 85.1431 71.8305 85.6135C71.8305 86.0839 71.9246 86.5073 72.0657 86.9307C72.1598 87.354 72.395 87.6833 72.6772 88.0126C72.9124 88.3419 73.2417 88.5771 73.618 88.7182C73.9943 88.9064 74.4647 89.0004 74.8881 89.0004C75.2174 89.0004 75.5937 88.9534 75.923 88.8593C76.1582 88.7652 76.3934 88.6241 76.6286 88.483C76.8168 88.3419 77.0049 88.2008 77.146 88.0596C77.2872 87.9185 77.3812 87.7774 77.4753 87.6833L78.3691 88.3889Z" fill="#A1A1A1"/>
<path d="M79.5922 83.7788H80.7682V87.4009C80.7211 87.8713 80.8623 88.2947 81.0975 88.671C81.3797 88.9532 81.756 89.0944 82.1324 89.0473C82.6968 89.0944 83.2613 88.8121 83.5436 88.2947C83.6847 88.0595 83.7788 87.8243 83.8258 87.542C83.8729 87.2598 83.9199 86.9305 83.9199 86.6483V83.7788H85.0959V89.8941H83.9669L83.9199 89.0003C83.8258 89.0944 83.7317 89.2355 83.6377 89.3296C83.4965 89.4707 83.3554 89.5648 83.2143 89.6589L82.6498 89.9411C82.4146 89.9881 82.1324 90.0352 81.8972 90.0352C81.2386 90.0822 80.58 89.847 80.1096 89.3296C79.6863 88.7651 79.4981 88.1065 79.5451 87.448L79.5922 83.7788Z" fill="#A1A1A1"/>
<path d="M87.9187 81.1445H86.7427V89.9411H87.9187V81.1445Z" fill="#A1A1A1"/>
<path d="M90.1295 84.7669H89.0005V83.7791H90.1295V81.7563H91.3055V83.7791H93.093V84.7669H91.3055V87.7775C91.2584 88.1538 91.3525 88.4831 91.5407 88.8124C91.6818 89.0006 91.964 89.0946 92.1992 89.0946C92.3874 89.0946 92.5756 89.0476 92.7637 89.0006C92.9519 88.9065 93.093 88.8124 93.2341 88.6713L93.7986 89.3769C93.5634 89.6121 93.2812 89.7532 92.9989 89.8943C92.7167 89.9884 92.3874 90.0825 92.0581 90.0825C91.5407 90.1295 91.0232 89.9414 90.6469 89.565C90.2706 89.0946 90.1295 88.5302 90.1765 87.9186L90.1295 84.7669Z" fill="#A1A1A1"/>
<path d="M94.5043 83.7788H95.6803V87.4009C95.6333 87.8713 95.7744 88.2947 96.0096 88.671C96.2918 88.9532 96.6681 89.0944 97.0445 89.0473C97.609 89.0944 98.1734 88.8121 98.4557 88.2947C98.5968 88.0595 98.6909 87.8243 98.7379 87.542C98.785 87.2598 98.832 86.9305 98.832 86.6483V83.7788H100.008V89.8941H98.879L98.832 89.0003C98.7379 89.0944 98.6438 89.2355 98.5498 89.3296C98.4086 89.4707 98.2675 89.5648 98.1264 89.6589L97.5619 89.9411C97.3267 89.9881 97.0445 90.0352 96.8093 90.0352C96.1507 90.0822 95.4921 89.847 95.0217 89.3296C94.5984 88.7651 94.4102 88.1065 94.4573 87.448L94.5043 83.7788Z" fill="#A1A1A1"/>
<path d="M101.654 89.9411V83.8258H102.783L102.83 84.8137C102.924 84.6726 103.018 84.5785 103.113 84.4844C103.254 84.3433 103.395 84.2492 103.536 84.1551C103.724 84.061 103.912 83.967 104.1 83.8729C104.336 83.7788 104.618 83.7788 104.853 83.7788C104.994 83.7788 105.088 83.7788 105.229 83.8258C105.323 83.8258 105.465 83.8729 105.559 83.9199L105.276 85.0489C105.088 85.0019 104.853 84.9548 104.665 84.9548C104.43 84.9548 104.194 85.0019 103.959 85.0959C103.724 85.19 103.536 85.3311 103.395 85.5193C103.254 85.7075 103.113 85.8956 103.018 86.1308C102.924 86.366 102.877 86.6012 102.877 86.8364V90.0822L101.654 89.9411Z" fill="#A1A1A1"/>
<path d="M111.768 89.0475C111.674 89.1416 111.58 89.2827 111.439 89.3297C111.251 89.4709 111.062 89.565 110.874 89.659C110.639 89.7531 110.357 89.8472 110.075 89.9413C109.745 90.0354 109.369 90.0824 109.04 90.0824C108.569 90.0824 108.146 89.9883 107.723 89.8472C107.346 89.7061 106.97 89.4709 106.688 89.1886C106.405 88.9064 106.17 88.5301 106.029 88.1537C105.888 87.7304 105.794 87.26 105.794 86.7896C105.794 86.3662 105.888 85.9428 106.029 85.5195C106.17 85.1432 106.405 84.7668 106.688 84.4846C106.97 84.2023 107.299 83.9671 107.676 83.826C108.052 83.6849 108.475 83.5908 108.899 83.5908C109.369 83.5908 109.839 83.6849 110.263 83.8731C110.639 84.0612 110.968 84.3435 111.204 84.6728C111.439 85.002 111.627 85.3784 111.721 85.8017C111.815 86.2251 111.909 86.6955 111.909 87.1659H107.064C107.064 87.4481 107.111 87.6833 107.252 87.9185C107.346 88.1537 107.487 88.3419 107.676 88.5301C107.864 88.7182 108.099 88.8593 108.334 88.9064C108.569 89.0005 108.852 89.0475 109.087 89.0475C109.51 89.0475 109.981 88.9534 110.357 88.7653C110.639 88.6241 110.874 88.483 111.062 88.2478L111.768 89.0475ZM110.686 86.3192C110.686 85.8488 110.498 85.4254 110.169 85.0961C109.839 84.7198 109.369 84.5316 108.899 84.5787C108.663 84.5787 108.381 84.6257 108.146 84.7198C107.723 84.908 107.393 85.2372 107.205 85.6606C107.111 85.8488 107.064 86.084 107.064 86.3192H110.686Z" fill="#A1A1A1"/>
<path d="M90.3173 31.3757C89.6587 40.1723 90.4584 48.9218 90.2702 57.8124C90.2232 59.4588 90.4584 61.1993 90.3173 62.7987C90.3173 62.9869 90.2702 63.128 89.941 63.128C89.5176 63.0809 89.1413 63.0809 88.7179 63.128C88.5768 61.952 88.6238 61.0582 88.5298 60.0233C88.2945 57.8124 88.4357 56.0249 88.4357 53.6258C88.3886 49.4863 88.0594 45.2997 88.3416 41.2072C88.4357 39.7489 88.4357 37.3499 88.3886 35.8916C88.2945 34.3863 88.2475 32.881 88.3416 31.3757C89.0002 31.2817 89.6587 31.2817 90.3173 31.3757Z" fill="#A1A1A1"/>
<path d="M17.3108 28.8829C18.0164 28.93 18.3457 29.1652 18.3927 29.9649C18.4868 31.1879 18.2986 31.8465 18.4397 33.0225C18.8631 36.9739 17.9223 40.9253 18.3457 44.8767C18.5809 46.9464 18.3457 48.828 18.4397 50.8978C18.5338 54.0025 18.3927 57.5305 18.3457 61.1997H8.65535C8.32606 60.7293 8.3731 58.2832 8.46718 57.6716C8.56127 57.1071 8.56127 56.5427 8.56127 55.9782C8.51423 53.6732 8.65535 51.6505 8.65535 49.3455C8.65535 48.0284 8.60831 46.6642 8.42014 45.3471C8.23198 44.171 8.51422 42.1013 8.3731 40.9253C8.1379 39.42 8.04382 30.6234 8.09086 28.93C8.09086 28.93 16.1818 28.7888 17.3108 28.8829Z" fill="#A1A1A1"/>
<path d="M35.092 30.9526C34.5275 30.7645 34.6216 31.423 34.6216 31.7523V32.6931C34.6216 33.5398 34.6686 35.8448 34.6686 36.6916C34.6686 38.1028 34.7627 39.3258 34.7627 40.4548C34.7157 42.5246 34.7157 44.6414 34.8098 46.7112C34.9979 51.8856 34.7627 57.1071 34.9038 62.2815C34.9038 62.7049 35.1861 62.846 35.6094 62.9401L36.221 63.0342C36.1739 58.6124 36.5503 53.9554 36.268 49.5336C36.1739 47.699 36.221 45.8644 36.221 43.9828V38.6672C36.268 37.5853 36.221 36.5034 36.1739 35.4215C36.1269 34.1043 36.221 31.5171 35.8447 31.1878C35.6565 31.0467 35.4683 31.0938 35.092 30.9526Z" fill="#A1A1A1"/>
<path d="M25.5429 59.4121C26.1074 59.4121 26.0133 58.9417 26.0133 58.6124C26.0133 58.2831 26.1074 58.095 26.1074 57.6716C26.1074 56.8249 26.0603 54.4729 26.0603 53.6261C26.0603 52.2149 25.9662 50.9919 26.0133 49.8629C26.0603 47.7461 26.1074 45.6293 26.0133 43.5595C25.8251 38.338 26.1074 33.0695 25.9662 27.848C25.9662 27.3776 25.6369 27.3776 25.1665 27.3306L24.4609 27.3776C24.4609 31.8464 24.508 36.5975 24.555 41.3486C24.6021 43.2302 24.555 44.6414 24.555 46.523C24.555 48.3106 24.6021 49.7218 24.6021 51.5093C24.6021 52.4501 24.555 53.485 24.555 54.8021C24.555 56.1193 24.4609 58.6595 24.7902 59.0828C24.9313 59.3651 25.1665 59.4121 25.5429 59.4121Z" fill="#A1A1A1"/>
<path d="M38.244 62.1405C37.7265 62.0934 37.6324 61.8112 37.6324 61.1997C37.6795 59.3651 37.5854 55.4607 37.3502 53.1087C37.162 50.9449 37.2091 48.781 37.4913 46.6171C37.6795 45.1118 37.3972 44.0299 37.3972 42.1953C37.3972 39.7963 37.5384 37.9147 37.5384 36.2683C37.5384 35.2804 37.4913 34.2455 37.4443 33.2577C37.3972 32.2698 37.3972 30.2471 37.3972 30.0119C37.6795 29.9648 37.9617 29.9648 38.244 29.9648C38.6203 29.9648 39.0437 30.0589 39.3729 30.2471C39.6081 31.1879 39.5141 33.2106 39.5141 34.3396C39.5141 34.9982 39.467 37.7265 39.5141 38.3851C39.6081 39.467 39.5611 40.596 39.5611 41.6779C39.5611 43.0891 39.6552 44.4533 39.6552 45.8645C39.6552 47.652 39.5141 49.3925 39.467 51.1801C39.3729 54.4258 39.7963 58.6595 39.7493 61.3878C39.7493 61.9523 39.7963 62.2345 39.2318 62.2345C38.9025 62.2345 38.5733 62.1875 38.244 62.1405Z" fill="#A1A1A1"/>
<path d="M87.3539 60.6349C87.448 59.2707 87.1657 57.2009 87.1657 56.0719C87.1657 55.4134 87.0716 52.7791 87.1187 52.1676C87.1657 51.1327 87.1187 50.0508 87.1187 48.9688C87.1187 47.6047 87.2128 46.2405 87.1657 44.9234C87.1657 43.1829 86.9776 41.4894 86.9305 39.796C86.7894 36.2209 87.3539 31.4698 87.1187 28.9767C86.0838 28.7885 85.0019 28.6944 83.9199 28.7415C83.6847 30.8583 83.6377 33.0222 83.7318 35.139C83.7788 36.6913 83.6377 38.5259 83.6377 40.8779C83.6847 42.6654 84.1081 44.7822 83.9199 46.1935C83.6377 48.2632 83.6377 50.3801 83.8259 52.4969C84.1081 55.5075 84.014 60.3997 84.0611 60.4467L87.3539 60.6349Z" fill="#A1A1A1"/>
<path d="M96.7621 60.7292C96.9032 57.013 96.8562 54.8021 96.9502 51.6033C96.9973 49.3454 96.6209 46.523 96.668 44.1239C96.7621 39.7962 96.8091 38.2909 96.4328 34.2455C96.3387 33.3517 96.4798 31.6112 96.4328 30.7174C96.3857 30.1059 96.3857 29.3062 96.3857 28.6947C96.3857 28.6947 99.3493 29.3532 101.701 28.8358C105.37 28.0361 111.486 28.8828 111.486 28.8828C111.862 29.4944 111.909 30.9526 111.909 31.2819C111.862 33.9632 111.815 33.0224 111.862 35.6567C111.956 38.1498 111.486 40.4077 111.486 43.9358C111.486 46.2878 111.815 47.7931 111.909 49.3454C112.003 50.8977 111.721 52.309 111.815 54.8021C111.862 56.3544 111.862 60.4469 111.862 60.8233C111.862 60.8233 100.902 60.8703 98.5496 60.5881C97.9851 60.541 97.3736 60.5881 96.7621 60.7292Z" fill="#A1A1A1"/>
<path d="M76.7227 27.4245C76.7698 32.9283 76.8168 39.0435 77.099 44.0298C77.1931 45.6762 77.1461 47.793 77.1931 49.6746C77.1931 50.8977 77.1461 52.0737 77.005 53.2968C76.9579 54.1905 76.9579 55.1313 77.005 56.0251C77.052 56.9659 77.052 58.9886 76.9579 59.0357C76.3464 58.9416 75.7819 58.9416 75.1704 59.0357C74.9822 58.283 75.1233 57.6245 75.1233 56.8248C75.2174 50.1921 74.7941 45.394 74.8881 39.2787C74.9352 37.303 74.8411 34.5747 74.7 32.646C74.5589 30.8585 74.6059 29.071 74.8411 27.3305C75.4997 27.2834 76.1112 27.3305 76.7227 27.4245Z" fill="#A1A1A1"/>
<path d="M95.1156 27.7069C95.3038 30.5763 95.1626 32.4109 95.2097 34.857C95.2567 37.0209 95.4919 38.8554 95.3508 41.3015C95.2567 43.4183 95.4449 45.5352 95.4919 47.699C95.539 49.7688 95.586 51.8386 95.586 53.9083C95.6331 55.5077 95.6801 56.966 95.6801 58.5653C95.6801 58.8476 95.6331 59.4121 95.6331 59.6943C95.2567 59.6473 94.8804 59.6002 94.5041 59.6473C93.5633 59.7414 92.5754 59.6943 91.6346 59.5532C91.3053 59.4591 91.5876 53.8613 91.5876 53.3439C91.6346 51.227 91.6346 49.1102 91.6346 47.0405C91.6346 44.9707 91.4465 42.6657 91.3994 40.5018C91.3524 38.338 91.4935 36.3152 91.4465 34.1984C91.3994 32.0816 91.3524 30.2 91.2583 27.9891C91.2583 27.5657 91.6817 27.3305 92.3873 27.5187C93.281 27.7069 94.2689 27.4246 95.1156 27.7069Z" fill="#A1A1A1"/>
<path d="M22.109 30.3883C22.7676 30.5294 23.285 31.0939 23.238 31.7995C23.238 32.8344 23.238 33.7752 23.191 34.669C23.1439 35.7039 23.1439 36.6917 23.1439 37.7736C23.191 42.2895 23.3791 46.5702 23.191 51.2272C23.0028 55.1786 23.3791 59.0359 23.3321 62.658C22.1561 62.611 20.6978 62.4698 19.5688 62.4228C19.8981 55.7431 19.6629 49.4397 19.6159 42.4777C19.5688 38.5733 20.2274 35.5157 19.6629 30.2942C20.5097 30.2001 21.3093 30.2001 22.109 30.3883Z" fill="#A1A1A1"/>
<path d="M73.7123 45.2056C73.6182 42.8066 73.6652 38.3377 73.8064 35.9387C73.9945 33.3044 73.336 29.2589 71.8777 29.353C70.6076 29.306 69.1964 29.4471 67.9263 29.4941C66.8914 29.5412 65.5743 29.5412 64.5394 29.6353C62.7989 29.7764 62.6107 29.5412 60.8232 29.5412C58.6123 29.5412 56.7307 29.7293 54.5198 29.7293C52.403 29.7293 50.0039 29.6823 47.8871 29.4941C45.7703 29.306 43.5594 29.0237 41.4896 29.1178C41.2074 29.1178 41.0192 30.482 40.9722 32.1284C40.9251 33.7748 40.8311 37.1617 40.9251 38.8081C41.7719 37.7732 42.9949 37.1617 44.312 37.0206C45.3469 36.8795 46.3818 36.8795 47.4167 37.0206C47.0404 36.5502 46.57 36.1268 46.0996 35.7975C45.7703 35.4683 45.3469 35.2801 44.8765 35.139C44.312 35.0919 43.7005 35.0449 43.136 35.0919C43.8416 34.2452 44.9706 33.8689 46.0525 34.057C46.9933 34.1982 48.6398 35.8446 49.2042 35.4212C49.8628 34.9038 49.5806 32.9281 50.4743 32.6929C51.1799 32.5047 51.6503 35.186 51.9796 35.7505C52.7793 34.7156 53.9083 34.057 55.1784 33.8689C55.8369 33.7748 57.8597 34.057 58.1419 34.9979C56.4955 34.7627 54.8961 35.4683 53.9553 36.8324C56.1192 35.8916 58.6594 36.2679 60.4939 37.7262C60.9643 38.1025 61.3877 38.5729 61.764 39.0433C62.1403 39.4196 62.2815 39.9371 62.1874 40.4545C61.3407 40.2664 60.541 38.8081 59.0827 38.3848C57.8597 38.0555 56.5425 38.0555 55.3195 38.4318C58.0949 38.9022 61.9522 42.5714 60.588 45.5819C60.1646 46.5698 60.0235 45.9112 59.8824 45.0645C59.7413 44.2648 59.459 43.5122 58.9416 42.9006C58.5182 42.3832 58.0949 41.8657 57.6245 41.3953C56.9189 40.8309 56.0721 40.5016 55.1784 40.4075C56.9659 40.9249 58.1419 44.453 58.283 44.8293C58.6123 45.7701 58.7064 46.805 58.6594 47.7928C58.6594 48.3573 58.7064 50.333 58.0008 50.5212C58.0008 50.5212 58.0949 45.7701 54.755 43.0418C55.6488 44.5941 55.6958 46.4757 55.6017 48.1692C55.6017 49.11 55.3665 50.0037 54.9432 50.8034C54.8491 50.9916 54.5198 51.8853 54.3787 51.8853C53.9553 51.9794 54.1905 49.2511 54.0964 48.7336C54.0024 48.1221 52.9204 44.0296 51.7915 45.0645C51.227 45.5819 51.5092 47.8399 51.6033 48.8748C51.6974 50.1449 51.8385 51.9794 51.8855 53.2025C51.8855 55.5545 52.0267 57.9065 52.3559 60.2585C55.3665 58.6592 68.4908 51.9324 70.3724 57.4832C70.3724 57.6713 70.2783 57.5302 70.2783 57.5302C69.0082 55.6015 65.4802 56.5894 63.7397 57.1539C60.6351 58.0947 57.6245 59.647 54.802 61.2464H71.9247C73.1478 61.2464 74.0886 60.2585 74.0886 59.0355V58.9884C74.0416 58.0947 74.0416 57.0127 74.0416 55.8367C74.0416 54.5196 74.0886 53.1084 74.1356 51.7913C74.1356 49.3452 73.7593 47.8399 73.7123 45.2056ZM47.6049 47.934C47.4167 48.6396 47.2756 49.3452 47.1815 50.0508C47.1345 50.333 46.8993 51.9794 46.8993 51.9794C46.8052 51.8853 46.7111 51.7913 46.6641 51.6972C46.0055 50.1919 46.1466 47.8399 46.1466 47.8399C46.3818 44.1237 47.6989 43.1358 47.6989 43.1358C47.0874 42.8066 45.9114 44.2178 45.2528 45.0645C44.4061 46.2405 44.5472 47.0402 44.4532 48.9218C43.9828 48.8277 43.5594 48.0751 43.5124 47.5106C43.3712 44.5941 44.6413 41.9598 46.0525 40.8779C46.1937 40.7368 44.4532 41.0661 44.1239 41.2072C42.9949 41.6776 42.1011 42.5243 41.5837 43.6062C40.4077 45.9112 41.1603 48.6396 41.0192 51.1327C40.9251 52.591 41.1133 54.0022 41.1133 55.4604C41.1133 56.5423 40.8311 56.7775 41.913 56.8716C42.3363 56.9187 42.7597 56.9657 43.1831 57.0598C45.6292 57.5772 47.8871 58.8473 49.6276 60.6819C49.9098 57.342 49.9569 54.2374 49.9569 50.8975C49.9569 49.5804 50.1921 46.7109 49.2983 45.5819C48.4516 44.3589 47.793 47.1813 47.6049 47.934ZM41.3015 57.7184C41.2544 59.0355 41.3485 60.0704 41.3485 61.5757C42.4775 61.5286 43.5594 61.5757 44.6884 61.6698C45.9114 61.7638 47.2285 61.6227 48.4516 61.7638C46.5229 59.7411 44.1239 57.9536 41.3015 57.7184ZM43.4183 39.796C44.218 39.2785 45.0647 38.8552 45.9585 38.5259C44.5943 38.0084 43.042 38.1496 41.7719 38.9022C40.5959 39.6078 41.0192 41.6776 40.8311 42.9477C41.4426 41.7717 42.2893 40.5016 43.4183 39.796Z" fill="#A1A1A1"/>
<path d="M81.7564 29.9178C81.8975 29.9648 82.0386 30.106 82.0857 30.2471C82.1798 33.8692 82.2738 37.115 82.509 40.8782C82.6502 42.6657 82.6502 44.5003 82.462 46.2878C82.1798 48.5928 82.7443 50.4274 82.6031 52.7324C82.415 55.79 82.8383 58.2831 82.6502 61.2937L78.8869 61.3878C78.5577 61.3878 78.2754 61.1056 78.3225 60.3529C78.3695 59.6003 78.3225 56.4956 78.3225 54.1436C78.3225 51.7916 78.6517 49.6277 78.3695 46.9935C78.2284 45.7234 78.5577 44.3121 78.4636 43.0421C78.3225 40.69 78.2754 38.6673 78.1813 36.3153C78.1343 34.9041 78.1813 32.7873 78.1343 31.4231C78.0873 30.4823 78.3225 29.7767 78.8399 29.5415C79.4514 29.3063 81.0978 29.8708 81.7564 29.9178Z" fill="#A1A1A1"/>
<path d="M27.2834 57.6716C27.2364 58.5653 27.2364 58.8476 27.2364 59.1769C27.2364 59.4121 27.4246 59.4591 27.6127 59.5061C28.0831 59.6473 28.6006 59.7413 29.071 59.8354C29.4003 59.8825 29.7295 59.9295 30.0588 59.9295C31.0467 59.9295 31.9875 60.2588 32.9753 60.1647C33.0224 60.1647 33.0224 60.1647 33.0694 60.1177C33.1165 60.0706 33.3987 59.9295 33.4928 59.4121C33.5869 58.5653 33.3987 57.8597 33.4928 56.3544C33.5869 54.8491 33.4928 50.7566 33.5398 49.7688C33.5869 42.2894 33.1635 42.1953 33.3517 36.4093C33.3987 34.8099 33.3517 33.1635 33.1635 31.5642C33.1165 30.9997 32.8342 29.5885 32.9753 28.6006C33.0224 28.3184 32.8342 28.0361 32.552 27.9421C32.5049 27.9421 32.4579 27.9421 32.4579 27.9421C30.8585 27.848 27.4716 28.1302 27.4716 28.1302C27.2834 28.9299 27.2364 29.7766 27.2834 30.6234C27.3305 31.329 27.1894 32.505 27.1894 33.1635C27.1894 33.9632 27.1423 34.7629 27.1894 35.5626C27.2834 37.6794 27.3305 39.8433 27.2834 41.9601C27.0953 47.3697 27.6127 50.4744 27.3775 55.79L27.2834 57.6716Z" fill="#A1A1A1"/>
</svg>
