<svg width="176" height="176" viewBox="0 0 176 176" fill="none" xmlns="http://www.w3.org/2000/svg">
<path d="M66.1406 100.637V94.9696H80.6078V89.8656C80.6078 83.8464 77.5806 79.9392 71.139 79.9392H70.3998V74.2368H71.4558C77.6158 74.2368 81.2414 76.6656 84.3038 81.4528C85.6766 83.6352 86.3454 86.5568 86.3454 90.288V100.672H66.1406V100.637Z" fill="#A1A1A1"/>
<path d="M45.9006 78.5663C45.8969 79.1626 45.6584 79.7335 45.2367 80.1552C44.815 80.5769 44.2442 80.8154 43.6478 80.8191C43.0503 80.8191 42.4773 80.5817 42.0549 80.1592C41.6324 79.7368 41.395 79.1638 41.395 78.5663C41.395 77.9688 41.6324 77.3958 42.0549 76.9733C42.4773 76.5508 43.0503 76.3135 43.6478 76.3135C44.2442 76.3172 44.815 76.5557 45.2367 76.9774C45.6584 77.3991 45.8969 77.9699 45.9006 78.5663Z" fill="#A1A1A1"/>
<path d="M45.9006 84.8673C45.8969 85.4636 45.6584 86.0345 45.2367 86.4562C44.815 86.8779 44.2442 87.1164 43.6478 87.1201C43.3517 87.121 43.0584 87.0634 42.7846 86.9505C42.5109 86.8376 42.2622 86.6717 42.0528 86.4623C41.8434 86.253 41.6775 86.0042 41.5646 85.7305C41.4517 85.4568 41.3941 85.1634 41.395 84.8673C41.395 84.5731 41.4535 84.2818 41.5671 84.0104C41.6808 83.7391 41.8473 83.493 42.0569 83.2866C42.2666 83.0802 42.5153 82.9176 42.7884 82.8083C43.0615 82.6989 43.3537 82.645 43.6478 82.6497C44.2384 82.6523 44.8046 82.8857 45.2255 83.3C45.6464 83.7144 45.8887 84.2768 45.9006 84.8673Z" fill="#A1A1A1"/>
<path d="M67.5842 79.904V74.2368H53.6098C48.0834 74.2368 47.4146 77.5808 47.4146 79.904V84.7264C47.4146 90.8864 49.8434 95.5328 54.6306 98.5952C56.7778 99.9328 59.6642 100.637 63.3249 100.637V94.9344H63.0786C57.0594 94.9344 53.1522 90.8864 53.1522 84.4448V79.9392H67.5842V79.904Z" fill="#A1A1A1"/>
<path d="M92.928 75.9265V78.2145C92.9367 78.4053 92.9034 78.5955 92.8304 78.772C92.7574 78.9484 92.6465 79.1066 92.5056 79.2353C92.3628 79.3627 92.1954 79.4596 92.0139 79.5201C91.8323 79.5806 91.6403 79.6035 91.4496 79.5873C91.2317 79.5955 91.0147 79.5556 90.8139 79.4704C90.6131 79.3852 90.4336 79.2569 90.288 79.0945C89.9993 78.7643 89.8481 78.336 89.8656 77.8977C89.8498 77.3942 90.0259 76.9034 90.3584 76.5249C90.5014 76.3687 90.6755 76.2442 90.8695 76.1593C91.0635 76.0745 91.2731 76.0311 91.4848 76.0321C91.7186 76.0363 91.948 76.0967 92.1536 76.2081L92.4352 75.9617H92.928V75.9265ZM92.0832 76.8769C91.939 76.8123 91.7836 76.7764 91.6256 76.7713C91.5028 76.7719 91.3817 76.8008 91.2718 76.8557C91.1619 76.9106 91.0662 76.9902 90.992 77.0881C90.8173 77.3071 90.7295 77.5829 90.7456 77.8625C90.736 78.1092 90.7971 78.3534 90.9216 78.5665C90.9835 78.6469 91.0637 78.7112 91.1556 78.754C91.2475 78.7969 91.3483 78.8171 91.4496 78.8129C91.5339 78.8169 91.6181 78.8033 91.6969 78.773C91.7757 78.7427 91.8473 78.6964 91.9072 78.6369C91.9583 78.5799 91.9972 78.513 92.0214 78.4403C92.0457 78.3677 92.0547 78.2908 92.048 78.2145V76.8769H92.0832ZM91.4144 74.5185C91.4749 74.5127 91.5358 74.5226 91.5914 74.5472C91.6469 74.5719 91.6951 74.6105 91.7312 74.6593C91.8134 74.7593 91.8626 74.8823 91.872 75.0113C91.8755 75.0767 91.8648 75.1421 91.8405 75.2029C91.8161 75.2637 91.7789 75.3184 91.7312 75.3633C91.6913 75.4078 91.6424 75.4433 91.5878 75.4677C91.5333 75.492 91.4742 75.5046 91.4144 75.5046C91.3547 75.5046 91.2956 75.492 91.241 75.4677C91.1864 75.4433 91.1376 75.4078 91.0976 75.3633C91.0534 75.3232 91.0181 75.2743 90.9938 75.2198C90.9696 75.1652 90.957 75.1062 90.9568 75.0465C90.9533 74.9812 90.9641 74.9158 90.9884 74.855C91.0127 74.7942 91.05 74.7395 91.0976 74.6945C91.1248 74.6353 91.1702 74.5863 91.2272 74.5547C91.2842 74.523 91.3498 74.5103 91.4144 74.5185ZM92.4704 74.5185C92.5309 74.5127 92.5918 74.5226 92.6474 74.5472C92.7029 74.5719 92.7511 74.6105 92.7872 74.6593C92.8349 74.7043 92.8721 74.759 92.8965 74.8198C92.9208 74.8806 92.9315 74.946 92.928 75.0113C92.9339 75.0718 92.924 75.1328 92.8993 75.1883C92.8747 75.2438 92.836 75.292 92.7872 75.3281C92.7471 75.3723 92.6982 75.4077 92.6437 75.4319C92.5891 75.4562 92.5301 75.4688 92.4704 75.4689C92.41 75.4748 92.349 75.4649 92.2935 75.4403C92.238 75.4156 92.1898 75.377 92.1536 75.3281C92.1094 75.288 92.0741 75.2391 92.0498 75.1846C92.0256 75.13 92.013 75.071 92.0128 75.0113C92.0093 74.946 92.0201 74.8806 92.0444 74.8198C92.0687 74.759 92.106 74.7043 92.1536 74.6593C92.1898 74.6105 92.238 74.5719 92.2935 74.5472C92.349 74.5226 92.41 74.5127 92.4704 74.5185Z" fill="#A1A1A1"/>
<path d="M94.3007 76.0674C94.4868 76.037 94.6754 76.0252 94.8639 76.0322C95.1061 76.0221 95.3477 76.0639 95.5723 76.155C95.797 76.2461 95.9995 76.3843 96.1663 76.5602C96.4661 76.9001 96.6291 77.3391 96.6239 77.7922V78.7074C96.6286 78.8191 96.6091 78.9304 96.5665 79.0337C96.524 79.137 96.4595 79.2299 96.3775 79.3058C96.309 79.3758 96.2267 79.4307 96.1358 79.4671C96.0448 79.5035 95.9473 79.5205 95.8495 79.517H93.5967V78.7778H95.5679C95.5914 78.7794 95.615 78.7759 95.637 78.7676C95.6591 78.7593 95.6791 78.7464 95.6958 78.7297C95.7125 78.7131 95.7254 78.693 95.7337 78.671C95.742 78.6489 95.7454 78.6253 95.7439 78.6018V77.933C95.7542 77.6375 95.6538 77.3488 95.4623 77.1234C95.2462 76.9353 94.9739 76.8239 94.6879 76.8066C94.5694 76.7945 94.4496 76.8065 94.3359 76.8418V76.0674H94.3007Z" fill="#A1A1A1"/>
<path d="M98.9825 79.517C98.7517 79.5322 98.5207 79.4885 98.3114 79.3899C98.1021 79.2914 97.9212 79.1414 97.7857 78.9538C97.5282 78.622 97.3916 78.2122 97.3985 77.7922C97.3814 77.5553 97.4132 77.3175 97.492 77.0934C97.5707 76.8694 97.6946 76.6639 97.8561 76.4898C98.013 76.3347 98.2004 76.214 98.4064 76.1352C98.6125 76.0564 98.8326 76.0213 99.0529 76.0322C99.3799 76.0285 99.6998 76.1269 99.9681 76.3138C100.135 76.4397 100.268 76.6056 100.354 76.7963C100.44 76.987 100.477 77.1964 100.461 77.405V78.7778H100.672V79.517H100.426C100.419 79.9812 100.229 80.424 99.8977 80.749C99.6735 80.9639 99.3927 81.1104 99.0881 81.1714C98.8822 81.2295 98.6682 81.2532 98.4545 81.2418H98.1025L97.7505 80.7842V80.4674C97.9251 80.4955 98.1018 80.5073 98.2785 80.5026C99.0529 80.5026 99.4753 80.1506 99.5457 79.4818H98.9825V79.517ZM99.5809 77.405C99.5849 77.3207 99.5713 77.2365 99.541 77.1577C99.5107 77.0789 99.4644 77.0073 99.4049 76.9474C99.3531 76.8992 99.2921 76.8619 99.2256 76.8377C99.1591 76.8135 99.0884 76.8029 99.0177 76.8066C98.9081 76.8049 98.7998 76.8296 98.7017 76.8786C98.6037 76.9276 98.5189 76.9995 98.4545 77.0882C98.3018 77.3032 98.2272 77.5641 98.2433 77.8274C98.2322 77.9555 98.2484 78.0845 98.2909 78.2059C98.3334 78.3272 98.4012 78.4382 98.4897 78.5314C98.5662 78.6243 98.6633 78.6982 98.7733 78.7471C98.8832 78.796 99.0031 78.8185 99.1233 78.813H99.6161V77.405H99.5809Z" fill="#A1A1A1"/>
<path d="M101.904 78.7422H100.602V79.4814H101.904V78.7422Z" fill="#A1A1A1"/>
<path d="M103.136 78.7422H101.833V79.4814H103.136V78.7422Z" fill="#A1A1A1"/>
<path d="M104.333 78.7426C104.217 78.439 104.157 78.117 104.157 77.7922C104.145 77.5476 104.183 77.3033 104.268 77.0736C104.353 76.8439 104.482 76.6334 104.649 76.4546C104.792 76.3126 104.963 76.2017 105.151 76.129C105.339 76.0563 105.539 76.0233 105.741 76.0322C106.089 76.0286 106.432 76.1265 106.726 76.3138C106.882 76.44 107.005 76.6019 107.084 76.7858C107.164 76.9696 107.198 77.1699 107.184 77.3698V78.5314C107.182 78.5806 107.195 78.6294 107.219 78.6722C107.236 78.6936 107.257 78.7111 107.281 78.7233C107.306 78.7354 107.333 78.742 107.36 78.7426H107.43V79.4818H107.113C107.012 79.4859 106.911 79.4657 106.819 79.4229C106.728 79.38 106.647 79.3157 106.585 79.2354C106.486 79.3847 106.349 79.5054 106.189 79.5857C106.028 79.6659 105.849 79.7029 105.67 79.693C105.476 79.6999 105.284 79.6622 105.107 79.5829C104.93 79.5036 104.773 79.3847 104.649 79.2354L104.438 79.4818H103.101V78.7426H104.333ZM106.339 77.405C106.334 77.2369 106.272 77.0756 106.163 76.9474C106.108 76.8911 106.042 76.8465 105.97 76.8163C105.897 76.786 105.819 76.7708 105.741 76.7714C105.632 76.7737 105.525 76.8002 105.427 76.8489C105.33 76.8976 105.245 76.9673 105.177 77.053C105.025 77.268 104.95 77.5289 104.966 77.7922C104.952 78.0884 105.025 78.3824 105.177 78.637C105.23 78.7312 105.307 78.81 105.399 78.8656C105.492 78.9212 105.597 78.9516 105.705 78.9538C105.822 78.9451 105.935 78.9124 106.038 78.8579C106.141 78.8034 106.231 78.7282 106.304 78.637V77.405H106.339Z" fill="#A1A1A1"/>
<path d="M108.662 78.7422H107.36V79.4814H108.662V78.7422Z" fill="#A1A1A1"/>
<path d="M110.739 74.2368V78.7072C110.74 78.8978 110.679 79.0834 110.563 79.2352C110.499 79.3239 110.414 79.3958 110.316 79.4448C110.218 79.4938 110.11 79.5185 110 79.5168H108.663V78.7776H109.754C109.807 78.7688 109.856 78.7443 109.895 78.7072C109.93 78.672 109.93 78.6368 109.93 78.5664V74.2368H110.739Z" fill="#A1A1A1"/>
<path d="M112.534 74.2368V79.3408L112.112 79.6928H111.689V74.2368H112.534Z" fill="#A1A1A1"/>
<path d="M117.744 75.9262V78.5662C117.744 78.6366 117.744 78.6718 117.779 78.707C117.793 78.7204 117.81 78.7304 117.828 78.7365C117.846 78.7426 117.866 78.7445 117.885 78.7422H118.096V79.4814H117.639C117.53 79.4791 117.423 79.4526 117.325 79.4039C117.228 79.3553 117.142 79.2855 117.075 79.1998C116.838 79.4253 116.523 79.5513 116.195 79.5518C115.845 79.5586 115.506 79.4329 115.245 79.1998C115.065 79.014 114.925 78.7931 114.834 78.5508C114.743 78.3086 114.703 78.0502 114.717 77.7918C114.707 77.2999 114.883 76.8223 115.21 76.4542C115.346 76.2988 115.514 76.1744 115.702 76.0893C115.89 76.0043 116.094 75.9607 116.301 75.9614C116.557 75.9695 116.808 76.0293 117.04 76.1374L117.357 75.891H117.744V75.9262ZM116.864 76.8766C116.72 76.812 116.564 76.7761 116.407 76.771C116.287 76.7726 116.17 76.7984 116.061 76.8468C115.952 76.8952 115.854 76.9652 115.773 77.0526C115.604 77.261 115.516 77.5237 115.527 77.7918C115.516 78.0545 115.59 78.3137 115.738 78.531C115.809 78.6204 115.901 78.6922 116.004 78.741C116.108 78.7898 116.222 78.8143 116.336 78.8126C116.517 78.8117 116.697 78.7759 116.864 78.707V76.8766ZM116.195 74.5182C116.256 74.5124 116.317 74.5223 116.372 74.5469C116.428 74.5716 116.476 74.6102 116.512 74.659C116.56 74.704 116.597 74.7587 116.621 74.8195C116.646 74.8803 116.656 74.9457 116.653 75.011C116.659 75.0715 116.649 75.1325 116.624 75.188C116.6 75.2435 116.561 75.2917 116.512 75.3278C116.472 75.372 116.423 75.4074 116.369 75.4316C116.314 75.4559 116.255 75.4685 116.195 75.4686C116.135 75.4745 116.074 75.4646 116.018 75.44C115.963 75.4153 115.915 75.3767 115.879 75.3278C115.834 75.2877 115.799 75.2388 115.775 75.1843C115.75 75.1297 115.738 75.0707 115.738 75.011C115.734 74.9457 115.745 74.8803 115.769 74.8195C115.794 74.7587 115.831 74.704 115.879 74.659C115.919 74.6149 115.968 74.5795 116.022 74.5553C116.077 74.531 116.136 74.5184 116.195 74.5182ZM117.287 74.5182C117.347 74.5124 117.408 74.5223 117.463 74.5469C117.519 74.5716 117.567 74.6102 117.603 74.659C117.651 74.704 117.688 74.7587 117.713 74.8195C117.737 74.8803 117.748 74.9457 117.744 75.011C117.75 75.0715 117.74 75.1325 117.715 75.188C117.691 75.2435 117.652 75.2917 117.603 75.3278C117.539 75.3892 117.459 75.4307 117.372 75.4473C117.285 75.4639 117.195 75.4549 117.113 75.4214C117.031 75.3878 116.961 75.3312 116.91 75.2583C116.86 75.1855 116.831 75.0996 116.829 75.011C116.825 74.9457 116.836 74.8803 116.86 74.8195C116.885 74.7587 116.922 74.704 116.97 74.659C117.006 74.6102 117.054 74.5716 117.11 74.5469C117.165 74.5223 117.226 74.5124 117.287 74.5182Z" fill="#A1A1A1"/>
<path d="M120.138 76.1377V78.7777H120.49V79.5169H120.243L119.997 79.2001C119.93 79.297 119.841 79.3763 119.736 79.4314C119.632 79.4866 119.516 79.5159 119.399 79.5169H118.061V78.7777H119.117C119.144 78.7772 119.171 78.7706 119.195 78.7584C119.22 78.7462 119.241 78.7288 119.258 78.7073C119.295 78.6685 119.319 78.6194 119.328 78.5665V76.1377H120.138ZM118.624 80.0449C118.685 80.039 118.746 80.0489 118.801 80.0736C118.857 80.0983 118.905 80.1369 118.941 80.1857C119.031 80.2806 119.082 80.4066 119.082 80.5377C119.082 80.6688 119.031 80.7948 118.941 80.8897C118.901 80.9339 118.852 80.9692 118.797 80.9935C118.743 81.0177 118.684 81.0303 118.624 81.0305C118.564 81.0364 118.503 81.0265 118.447 81.0018C118.392 80.9771 118.344 80.9385 118.307 80.8897C118.217 80.7948 118.167 80.6688 118.167 80.5377C118.167 80.4066 118.217 80.2806 118.307 80.1857C118.344 80.1369 118.392 80.0983 118.447 80.0736C118.503 80.0489 118.564 80.039 118.624 80.0449ZM119.68 80.0449C119.741 80.039 119.802 80.0489 119.857 80.0736C119.913 80.0983 119.961 80.1369 119.997 80.1857C120.087 80.2806 120.138 80.4066 120.138 80.5377C120.138 80.6688 120.087 80.7948 119.997 80.8897C119.957 80.9341 119.908 80.9697 119.854 80.994C119.799 81.0184 119.74 81.0309 119.68 81.0309C119.62 81.0309 119.561 81.0184 119.507 80.994C119.452 80.9697 119.403 80.9341 119.363 80.8897C119.273 80.7948 119.223 80.6688 119.223 80.5377C119.223 80.4066 119.273 80.2806 119.363 80.1857C119.404 80.1415 119.452 80.1061 119.507 80.0819C119.562 80.0577 119.621 80.0451 119.68 80.0449Z" fill="#A1A1A1"/>
<path d="M121.405 77.4046C121.553 76.9445 121.867 76.5557 122.285 76.3134C122.594 76.1305 122.947 76.0332 123.306 76.0318C123.66 76.0287 124.005 76.1398 124.291 76.3486C124.671 76.6007 124.956 76.9723 125.101 77.4046L125.031 77.6158C124.813 77.7427 124.612 77.8964 124.432 78.0734C124.252 78.2626 124.119 78.4918 124.045 78.7422H125.171V79.4814H123.623C123.555 79.478 123.489 79.4606 123.428 79.4303C123.368 79.4001 123.314 79.3575 123.271 79.3054H123.235C123.191 79.3646 123.132 79.4117 123.064 79.4424C122.996 79.4731 122.922 79.4865 122.848 79.4814H120.455V78.7422H122.496C122.42 78.5104 122.301 78.2954 122.144 78.1086C121.97 77.9019 121.754 77.7341 121.511 77.6158L121.405 77.4046ZM124.221 77.3694C124.126 77.1687 123.964 77.0071 123.763 76.9118C123.609 76.8397 123.441 76.8036 123.271 76.8062C123.085 76.8028 122.902 76.8516 122.743 76.947C122.559 77.0536 122.412 77.2131 122.32 77.4046C122.519 77.5151 122.688 77.6721 122.813 77.8622C123.005 78.0753 123.149 78.3274 123.235 78.6014H123.271C123.375 78.3177 123.53 78.0553 123.728 77.827C123.843 77.6283 124.014 77.4688 124.221 77.3694Z" fill="#A1A1A1"/>
<path d="M126.439 78.7422H125.136V79.4814H126.439V78.7422Z" fill="#A1A1A1"/>
<path d="M127.635 78.7426C127.52 78.439 127.46 78.117 127.459 77.7922C127.448 77.5476 127.486 77.3033 127.571 77.0736C127.655 76.8439 127.785 76.6334 127.952 76.4546C128.095 76.3126 128.266 76.2017 128.453 76.129C128.641 76.0563 128.842 76.0233 129.043 76.0322C129.392 76.0286 129.735 76.1265 130.029 76.3138C130.184 76.44 130.307 76.6019 130.387 76.7858C130.467 76.9696 130.501 77.1699 130.487 77.3698V78.5314C130.485 78.5806 130.497 78.6294 130.522 78.6722C130.538 78.6936 130.56 78.7111 130.584 78.7233C130.609 78.7354 130.635 78.742 130.663 78.7426H130.733V79.4818H130.416C130.315 79.4859 130.214 79.4657 130.122 79.4229C130.03 79.38 129.95 79.3157 129.888 79.2354C129.789 79.3847 129.652 79.5054 129.491 79.5857C129.331 79.6659 129.152 79.7029 128.973 79.693C128.779 79.6999 128.586 79.6622 128.409 79.5829C128.232 79.5036 128.076 79.3847 127.952 79.2354L127.741 79.4818H126.403V78.7426H127.635ZM129.642 77.405C129.637 77.2369 129.574 77.0756 129.466 76.9474C129.411 76.8911 129.345 76.8465 129.272 76.8163C129.2 76.786 129.122 76.7708 129.043 76.7714C128.934 76.7737 128.827 76.8002 128.73 76.8489C128.633 76.8976 128.547 76.9673 128.48 77.053C128.327 77.268 128.253 77.5289 128.269 77.7922C128.254 78.0884 128.328 78.3824 128.48 78.637C128.533 78.7312 128.609 78.81 128.702 78.8656C128.795 78.9212 128.9 78.9516 129.008 78.9538C129.124 78.9451 129.237 78.9124 129.34 78.8579C129.443 78.8034 129.534 78.7282 129.607 78.637V77.405H129.642Z" fill="#A1A1A1"/>
<path d="M131.578 76.2433C131.965 76.1165 132.368 76.0454 132.775 76.0321C133.031 76.0204 133.286 76.0647 133.523 76.162C133.76 76.2593 133.973 76.4072 134.147 76.5953C134.457 76.9433 134.621 77.397 134.605 77.8625V78.7073C134.608 78.8052 134.591 78.9027 134.555 78.9936C134.519 79.0845 134.464 79.1668 134.394 79.2353C134.327 79.321 134.241 79.3907 134.144 79.4394C134.046 79.4881 133.939 79.5146 133.831 79.5169H130.663V78.7777H133.619C133.643 78.7793 133.666 78.7758 133.689 78.7675C133.711 78.7592 133.731 78.7463 133.747 78.7296C133.764 78.713 133.777 78.6929 133.785 78.6709C133.793 78.6488 133.797 78.6252 133.795 78.6017V77.9329C133.803 77.7832 133.779 77.6336 133.724 77.494C133.67 77.3544 133.586 77.2281 133.479 77.1233C133.359 77.0185 133.219 76.9394 133.068 76.891C132.916 76.8425 132.757 76.8258 132.599 76.8417C132.266 76.8527 131.935 76.8999 131.613 76.9825V76.2433H131.578ZM132.563 80.0449C132.624 80.0391 132.685 80.0489 132.74 80.0736C132.796 80.0983 132.844 80.1369 132.88 80.1857C132.971 80.2806 133.021 80.4067 133.021 80.5377C133.021 80.6688 132.971 80.7948 132.88 80.8897C132.84 80.9342 132.791 80.9697 132.737 80.9941C132.682 81.0184 132.623 81.031 132.563 81.031C132.504 81.031 132.445 81.0184 132.39 80.9941C132.335 80.9697 132.287 80.9342 132.247 80.8897C132.156 80.7948 132.106 80.6688 132.106 80.5377C132.106 80.4067 132.156 80.2806 132.247 80.1857C132.287 80.1415 132.336 80.1062 132.39 80.0819C132.445 80.0577 132.504 80.0451 132.563 80.0449Z" fill="#A1A1A1"/>
<path d="M93.4912 84.7617V87.4017C93.4912 87.4721 93.4912 87.5073 93.5264 87.5425C93.5403 87.5558 93.557 87.5659 93.5752 87.572C93.5935 87.5781 93.6129 87.58 93.632 87.5777H93.8432V88.3169H93.3856C93.2767 88.3146 93.1697 88.2881 93.0723 88.2394C92.9749 88.1907 92.8896 88.121 92.8224 88.0353C92.5848 88.2608 92.2699 88.3868 91.9424 88.3873C91.5925 88.3941 91.253 88.2684 90.992 88.0353C90.812 87.8495 90.6722 87.6286 90.5813 87.3863C90.4905 87.1441 90.4505 86.8857 90.464 86.6273C90.4542 86.1354 90.6302 85.6578 90.9568 85.2897C91.0928 85.1343 91.2606 85.0099 91.4489 84.9248C91.6371 84.8398 91.8414 84.7962 92.048 84.7969C92.3037 84.805 92.5552 84.8648 92.7872 84.9729L93.104 84.7265H93.4912V84.7617ZM92.6464 85.7121C92.5022 85.6475 92.3467 85.6116 92.1888 85.6065C92.0696 85.6081 91.952 85.6339 91.8431 85.6823C91.7341 85.7307 91.6362 85.8007 91.5552 85.8881C91.386 86.0965 91.2984 86.3592 91.3088 86.6273C91.298 86.89 91.3721 87.1492 91.52 87.3665C91.5917 87.4559 91.6829 87.5277 91.7866 87.5765C91.8903 87.6253 92.0038 87.6498 92.1184 87.6481C92.2995 87.6472 92.4788 87.6114 92.6464 87.5425V85.7121ZM91.9776 83.3185C92.038 83.3127 92.099 83.3226 92.1545 83.3472C92.21 83.3719 92.2582 83.4105 92.2944 83.4593C92.342 83.5043 92.3793 83.559 92.4036 83.6198C92.4279 83.6806 92.4387 83.746 92.4352 83.8113C92.441 83.8718 92.4311 83.9328 92.4065 83.9883C92.3818 84.0438 92.3432 84.092 92.2944 84.1281C92.2542 84.1723 92.2053 84.2077 92.1508 84.2319C92.0963 84.2562 92.0373 84.2688 91.9776 84.2689C91.9171 84.2748 91.8561 84.2649 91.8006 84.2402C91.7451 84.2156 91.6969 84.177 91.6608 84.1281C91.6166 84.088 91.5812 84.0391 91.557 83.9846C91.5327 83.93 91.5201 83.871 91.52 83.8113C91.5164 83.746 91.5272 83.6806 91.5515 83.6198C91.5759 83.559 91.6131 83.5043 91.6608 83.4593C91.7015 83.416 91.7506 83.3812 91.805 83.357C91.8594 83.3328 91.918 83.3197 91.9776 83.3185ZM93.0336 83.3185C93.094 83.3127 93.155 83.3226 93.2105 83.3472C93.266 83.3719 93.3142 83.4105 93.3504 83.4593C93.398 83.5043 93.4353 83.559 93.4596 83.6198C93.4839 83.6806 93.4947 83.746 93.4912 83.8113C93.497 83.8718 93.4871 83.9328 93.4625 83.9883C93.4378 84.0438 93.3992 84.092 93.3504 84.1281C93.2865 84.1895 93.2061 84.231 93.1191 84.2476C93.0321 84.2642 92.9421 84.2552 92.8601 84.2216C92.7781 84.1881 92.7076 84.1315 92.6572 84.0586C92.6067 83.9858 92.5785 83.8999 92.576 83.8113C92.5724 83.746 92.5832 83.6806 92.6075 83.6198C92.6319 83.559 92.6691 83.5043 92.7168 83.4593C92.7575 83.416 92.8066 83.3812 92.861 83.357C92.9154 83.3328 92.974 83.3197 93.0336 83.3185Z" fill="#A1A1A1"/>
<path d="M95.8849 84.9375V87.5071C95.8745 87.6957 95.8137 87.8781 95.7089 88.0351C95.6417 88.1208 95.5563 88.1905 95.459 88.2392C95.3616 88.2879 95.2546 88.3144 95.1457 88.3167H93.8081V87.5775H94.8993C94.9522 87.5687 95.0013 87.5442 95.0401 87.5071C95.0753 87.4719 95.0753 87.4367 95.0753 87.3663V84.9023H95.8849V84.9375ZM94.3713 88.8799C94.4318 88.8741 94.4927 88.884 94.5482 88.9086C94.6038 88.9333 94.6519 88.9719 94.6881 89.0207C94.7785 89.1156 94.8289 89.2417 94.8289 89.3727C94.8289 89.5038 94.7785 89.6298 94.6881 89.7247C94.6482 89.7692 94.5993 89.8047 94.5447 89.8291C94.4901 89.8534 94.4311 89.866 94.3713 89.866C94.3115 89.866 94.2525 89.8534 94.1979 89.8291C94.1433 89.8047 94.0945 89.7692 94.0545 89.7247C93.9641 89.6298 93.9137 89.5038 93.9137 89.3727C93.9137 89.2417 93.9641 89.1156 94.0545 89.0207C94.0907 88.9719 94.1389 88.9333 94.1944 88.9086C94.2499 88.884 94.3108 88.8741 94.3713 88.8799ZM95.4273 88.8799C95.4878 88.8741 95.5487 88.884 95.6042 88.9086C95.6598 88.9333 95.7079 88.9719 95.7441 89.0207C95.8263 89.1207 95.8754 89.2437 95.8849 89.3727C95.8884 89.4381 95.8776 89.5035 95.8533 89.5643C95.829 89.6251 95.7917 89.6798 95.7441 89.7247C95.7042 89.7692 95.6553 89.8047 95.6007 89.8291C95.5461 89.8534 95.4871 89.866 95.4273 89.866C95.3675 89.866 95.3085 89.8534 95.2539 89.8291C95.1993 89.8047 95.1505 89.7692 95.1105 89.7247C95.0201 89.6298 94.9697 89.5038 94.9697 89.3727C94.9697 89.2417 95.0201 89.1156 95.1105 89.0207C95.1506 88.9765 95.1995 88.9412 95.2541 88.917C95.3086 88.8927 95.3676 88.8801 95.4273 88.8799Z" fill="#A1A1A1"/>
<path d="M98.8415 84.9375V87.5775H99.1935V88.3167H98.8415C98.8461 88.5771 98.7877 88.8347 98.6712 89.0676C98.5548 89.3005 98.3837 89.5018 98.1727 89.6543C97.8143 89.9124 97.3823 90.0482 96.9407 90.0415H96.6591L96.3071 89.5839V89.2671C96.4459 89.2963 96.5878 89.3081 96.7295 89.3023C97.5391 89.3023 97.9615 88.8799 97.9615 88.0351V84.9023H98.8415V84.9375Z" fill="#A1A1A1"/>
<path d="M106.55 84.9375V87.5071C106.556 87.7152 106.48 87.9172 106.339 88.0703C106.277 88.1506 106.197 88.2149 106.105 88.2578C106.013 88.3007 105.912 88.3209 105.811 88.3167H104.333L104.086 87.9999H104.051C103.986 88.0987 103.897 88.1796 103.792 88.235C103.688 88.2903 103.571 88.3184 103.453 88.3167H101.974L101.693 87.9999H101.657C101.592 88.0987 101.503 88.1796 101.399 88.235C101.294 88.2903 101.177 88.3184 101.059 88.3167H99.0879V87.5775H100.813C100.836 87.5791 100.86 87.5756 100.882 87.5673C100.904 87.559 100.924 87.5461 100.941 87.5294C100.957 87.5127 100.97 87.4927 100.978 87.4706C100.987 87.4486 100.99 87.425 100.989 87.4015V85.7823H101.833V87.5775H103.171C103.195 87.5791 103.218 87.5756 103.24 87.5673C103.262 87.559 103.282 87.5461 103.299 87.5294C103.316 87.5127 103.329 87.4927 103.337 87.4706C103.345 87.4486 103.349 87.425 103.347 87.4015V85.3599H104.192V87.5775H105.494C105.518 87.5791 105.541 87.5756 105.563 87.5673C105.586 87.559 105.606 87.5461 105.622 87.5294C105.639 87.5127 105.652 87.4927 105.66 87.4706C105.668 87.4486 105.672 87.425 105.67 87.4015V84.9375H106.55Z" fill="#A1A1A1"/>
<path d="M111.197 83.0719V87.5423C111.2 87.6401 111.183 87.7376 111.147 87.8285C111.111 87.9195 111.056 88.0018 110.986 88.0703C110.918 88.156 110.833 88.2257 110.736 88.2744C110.638 88.3231 110.531 88.3495 110.422 88.3519H107.606L107.254 87.8943V87.6127H108.944L107.782 83.9871H108.592L109.754 87.6127H110.141C110.168 87.6121 110.195 87.6056 110.219 87.5934C110.243 87.5812 110.265 87.5637 110.282 87.5423C110.317 87.5071 110.317 87.4719 110.317 87.4015V83.0719H111.197ZM107.747 83.1071C107.679 82.9765 107.643 82.8318 107.642 82.6847C107.641 82.4941 107.702 82.3085 107.818 82.1567C107.88 82.0901 107.957 82.0394 108.043 82.0088C108.128 81.9782 108.22 81.9685 108.31 81.9807C108.431 81.9871 108.549 82.0108 108.662 82.0511V82.4383C108.583 82.412 108.5 82.4001 108.416 82.4031C108.205 82.4031 108.099 82.5087 108.099 82.7551C108.101 82.8419 108.126 82.9267 108.17 83.0015C108.201 83.0358 108.239 83.0631 108.281 83.0813C108.324 83.0995 108.37 83.1083 108.416 83.1071H108.874V83.2831L108.698 83.4943H107.466V83.1071H107.747Z" fill="#A1A1A1"/>
<path d="M112.992 83.0718V88.1406L112.569 88.5278H112.147V83.0718H112.992Z" fill="#A1A1A1"/>
<path d="M118.202 84.7617V87.4017C118.202 87.4721 118.202 87.5073 118.237 87.5425C118.251 87.5558 118.267 87.5659 118.286 87.572C118.304 87.5781 118.323 87.58 118.342 87.5777H118.554V88.3169H118.096C117.987 88.3146 117.88 88.2881 117.783 88.2394C117.685 88.1907 117.6 88.121 117.533 88.0353C117.295 88.2608 116.98 88.3868 116.653 88.3873C116.303 88.3941 115.963 88.2684 115.702 88.0353C115.522 87.8495 115.383 87.6286 115.292 87.3863C115.201 87.1441 115.161 86.8857 115.174 86.6273C115.165 86.1354 115.341 85.6578 115.667 85.2897C115.803 85.1343 115.971 85.0099 116.159 84.9248C116.348 84.8398 116.552 84.7962 116.758 84.7969C117.014 84.805 117.266 84.8648 117.498 84.9729L117.814 84.7265H118.202V84.7617ZM117.322 85.7121C117.177 85.6475 117.022 85.6116 116.864 85.6065C116.745 85.6081 116.627 85.6339 116.518 85.6823C116.409 85.7307 116.311 85.8007 116.23 85.8881C116.061 86.0965 115.974 86.3592 115.984 86.6273C115.973 86.89 116.047 87.1492 116.195 87.3665C116.267 87.4559 116.358 87.5277 116.462 87.5765C116.566 87.6253 116.679 87.6498 116.794 87.6481C116.975 87.6472 117.154 87.6114 117.322 87.5425V85.7121ZM116.688 83.3185C116.748 83.3127 116.809 83.3226 116.865 83.3472C116.92 83.3719 116.969 83.4105 117.005 83.4593C117.052 83.5043 117.09 83.559 117.114 83.6198C117.138 83.6806 117.149 83.746 117.146 83.8113C117.151 83.8718 117.142 83.9328 117.117 83.9883C117.092 84.0438 117.054 84.092 117.005 84.1281C116.965 84.1723 116.916 84.2077 116.861 84.2319C116.807 84.2562 116.748 84.2688 116.688 84.2689C116.628 84.2748 116.567 84.2649 116.511 84.2402C116.456 84.2156 116.407 84.177 116.371 84.1281C116.327 84.088 116.292 84.0391 116.267 83.9846C116.243 83.93 116.231 83.871 116.23 83.8113C116.227 83.746 116.238 83.6806 116.262 83.6198C116.286 83.559 116.324 83.5043 116.371 83.4593C116.412 83.416 116.461 83.3812 116.515 83.357C116.57 83.3328 116.628 83.3197 116.688 83.3185ZM117.744 83.3185C117.804 83.3127 117.865 83.3226 117.921 83.3472C117.976 83.3719 118.025 83.4105 118.061 83.4593C118.108 83.5043 118.146 83.559 118.17 83.6198C118.194 83.6806 118.205 83.746 118.202 83.8113C118.207 83.8718 118.198 83.9328 118.173 83.9883C118.148 84.0438 118.11 84.092 118.061 84.1281C117.997 84.1895 117.917 84.231 117.83 84.2476C117.743 84.2642 117.653 84.2552 117.571 84.2216C117.489 84.1881 117.418 84.1315 117.368 84.0586C117.317 83.9858 117.289 83.8999 117.286 83.8113C117.283 83.746 117.294 83.6806 117.318 83.6198C117.342 83.559 117.38 83.5043 117.427 83.4593C117.468 83.416 117.517 83.3812 117.571 83.357C117.626 83.3328 117.684 83.3197 117.744 83.3185Z" fill="#A1A1A1"/>
<path d="M120.595 84.9375V87.5775H120.947V88.3167H120.701L120.455 87.9999C120.387 88.0968 120.298 88.1761 120.194 88.2312C120.09 88.2864 119.974 88.3157 119.856 88.3167H118.519V87.5775H119.575C119.602 87.577 119.629 87.5704 119.653 87.5582C119.677 87.546 119.699 87.5286 119.715 87.5071C119.752 87.4683 119.777 87.4192 119.786 87.3663V84.9375H120.595ZM119.082 88.8799C119.142 88.874 119.203 88.8839 119.259 88.9086C119.314 88.9333 119.362 88.9719 119.399 89.0207C119.489 89.1156 119.539 89.2416 119.539 89.3727C119.539 89.5038 119.489 89.6298 119.399 89.7247C119.358 89.7689 119.31 89.8042 119.255 89.8285C119.2 89.8527 119.141 89.8653 119.082 89.8655C119.021 89.8714 118.96 89.8615 118.905 89.8368C118.849 89.8121 118.801 89.7735 118.765 89.7247C118.675 89.6298 118.624 89.5038 118.624 89.3727C118.624 89.2416 118.675 89.1156 118.765 89.0207C118.803 88.974 118.852 88.9369 118.907 88.9125C118.962 88.888 119.022 88.8769 119.082 88.8799ZM120.138 88.8799C120.198 88.874 120.259 88.8839 120.315 88.9086C120.37 88.9333 120.418 88.9719 120.455 89.0207C120.545 89.1156 120.595 89.2416 120.595 89.3727C120.595 89.5038 120.545 89.6298 120.455 89.7247C120.415 89.7691 120.366 89.8047 120.311 89.829C120.257 89.8534 120.198 89.8659 120.138 89.8659C120.078 89.8659 120.019 89.8534 119.964 89.829C119.91 89.8047 119.861 89.7691 119.821 89.7247C119.731 89.6298 119.68 89.5038 119.68 89.3727C119.68 89.2416 119.731 89.1156 119.821 89.0207C119.861 88.9765 119.91 88.9412 119.965 88.9169C120.019 88.8927 120.078 88.8801 120.138 88.8799Z" fill="#A1A1A1"/>
<path d="M122.144 87.5775C122.028 87.274 121.969 86.952 121.968 86.6271C121.957 86.3826 121.995 86.1383 122.08 85.9086C122.164 85.6789 122.294 85.4684 122.461 85.2895C122.604 85.1475 122.774 85.0367 122.962 84.964C123.15 84.8913 123.351 84.8583 123.552 84.8671C123.901 84.8636 124.243 84.9614 124.538 85.1487C124.693 85.275 124.816 85.4369 124.896 85.6207C124.975 85.8046 125.01 86.0049 124.995 86.2047V87.3663C124.994 87.4156 125.006 87.4643 125.031 87.5071C125.047 87.5286 125.069 87.546 125.093 87.5582C125.117 87.5704 125.144 87.577 125.171 87.5775H125.242V88.3167H124.925C124.824 88.3209 124.723 88.3007 124.631 88.2578C124.539 88.2149 124.459 88.1506 124.397 88.0703C124.297 88.2196 124.161 88.3404 124 88.4206C123.84 88.5009 123.661 88.5379 123.482 88.5279C123.288 88.5348 123.095 88.4972 122.918 88.4179C122.741 88.3385 122.585 88.2196 122.461 88.0703L122.25 88.3167H120.912V87.5775H122.144ZM124.151 86.2399C124.145 86.0719 124.083 85.9105 123.975 85.7823C123.92 85.7261 123.854 85.6815 123.781 85.6513C123.709 85.621 123.631 85.6057 123.552 85.6063C123.443 85.6086 123.336 85.6351 123.239 85.6838C123.141 85.7325 123.056 85.8022 122.989 85.8879C122.836 86.103 122.762 86.3638 122.778 86.6271C122.763 86.9234 122.837 87.2173 122.989 87.4719C123.042 87.5662 123.118 87.645 123.211 87.7006C123.303 87.7561 123.409 87.7865 123.517 87.7887C123.633 87.78 123.746 87.7474 123.849 87.6929C123.952 87.6384 124.043 87.5631 124.115 87.4719V86.2399H124.151Z" fill="#A1A1A1"/>
<path d="M127.283 84.9377V87.5777H127.635V88.3169H127.389L127.143 88.0001C127.075 88.097 126.986 88.1763 126.882 88.2315C126.778 88.2866 126.662 88.3159 126.544 88.3169H125.207V87.5777H126.263C126.29 87.5772 126.317 87.5706 126.341 87.5584C126.365 87.5463 126.387 87.5288 126.403 87.5073C126.44 87.4685 126.465 87.4195 126.474 87.3665V84.9377H127.283ZM126.861 83.3185C126.921 83.3127 126.982 83.3226 127.038 83.3472C127.093 83.3719 127.142 83.4105 127.178 83.4593C127.225 83.5043 127.263 83.559 127.287 83.6198C127.311 83.6806 127.322 83.746 127.319 83.8113C127.324 83.8718 127.315 83.9328 127.29 83.9883C127.265 84.0438 127.227 84.092 127.178 84.1281C127.114 84.1895 127.034 84.231 126.946 84.2476C126.859 84.2642 126.769 84.2552 126.687 84.2216C126.605 84.1881 126.535 84.1315 126.485 84.0586C126.434 83.9858 126.406 83.8999 126.403 83.8113C126.4 83.746 126.411 83.6806 126.435 83.6198C126.459 83.559 126.497 83.5043 126.544 83.4593C126.635 83.3839 126.744 83.3351 126.861 83.3185Z" fill="#A1A1A1"/>
<path d="M129.712 84.9377V87.5777H130.064V88.3169H129.818L129.571 88.0001C129.504 88.097 129.415 88.1763 129.311 88.2315C129.207 88.2866 129.091 88.3159 128.973 88.3169H127.635V87.5777H128.691C128.718 87.5772 128.745 87.5706 128.77 87.5584C128.794 87.5463 128.815 87.5288 128.832 87.5073C128.869 87.4685 128.894 87.4195 128.902 87.3665V84.9377H129.712ZM128.269 83.3185C128.329 83.3127 128.39 83.3226 128.446 83.3472C128.501 83.3719 128.549 83.4105 128.586 83.4593C128.633 83.5043 128.671 83.559 128.695 83.6198C128.719 83.6806 128.73 83.746 128.726 83.8113C128.732 83.8718 128.722 83.9328 128.698 83.9883C128.673 84.0438 128.634 84.092 128.586 84.1281C128.546 84.1723 128.497 84.2077 128.442 84.2319C128.388 84.2562 128.329 84.2688 128.269 84.2689C128.208 84.2748 128.147 84.2649 128.092 84.2402C128.036 84.2156 127.988 84.177 127.952 84.1281C127.908 84.088 127.873 84.0391 127.848 83.9846C127.824 83.93 127.811 83.871 127.811 83.8113C127.808 83.746 127.819 83.6806 127.843 83.6198C127.867 83.559 127.904 83.5043 127.952 83.4593C128.043 83.3839 128.152 83.3351 128.269 83.3185ZM129.36 83.3185C129.421 83.3127 129.481 83.3226 129.537 83.3472C129.593 83.3719 129.641 83.4105 129.677 83.4593C129.724 83.5043 129.762 83.559 129.786 83.6198C129.81 83.6806 129.821 83.746 129.818 83.8113C129.824 83.8718 129.814 83.9328 129.789 83.9883C129.764 84.0438 129.726 84.092 129.677 84.1281C129.613 84.1895 129.533 84.231 129.446 84.2476C129.359 84.2642 129.269 84.2552 129.187 84.2216C129.105 84.1881 129.034 84.1315 128.984 84.0586C128.933 83.9858 128.905 83.8999 128.902 83.8113C128.899 83.746 128.91 83.6806 128.934 83.6198C128.958 83.559 128.996 83.5043 129.043 83.4593C129.084 83.416 129.133 83.3812 129.187 83.357C129.242 83.3328 129.301 83.3197 129.36 83.3185Z" fill="#A1A1A1"/>
<path d="M132.106 83.0718V87.5774H132.458V88.3166H132.211L131.93 87.9998C131.863 88.0967 131.773 88.176 131.669 88.2312C131.565 88.2863 131.449 88.3156 131.331 88.3166H129.994V87.5774H131.085C131.112 87.5769 131.139 87.5703 131.163 87.5581C131.188 87.546 131.209 87.5285 131.226 87.507C131.254 87.4657 131.266 87.4158 131.261 87.3662V83.0366H132.106V83.0718Z" fill="#A1A1A1"/>
<path d="M134.534 83.0718V87.5422C134.535 87.7327 134.474 87.9183 134.358 88.0702C134.294 88.1589 134.209 88.2308 134.111 88.2798C134.013 88.3288 133.905 88.3535 133.795 88.3518H132.422V87.6126H133.514C133.566 87.6038 133.616 87.5792 133.654 87.5422C133.69 87.507 133.69 87.4718 133.69 87.4014V83.0718H134.534Z" fill="#A1A1A1"/>
<path d="M92.6815 94.6882H91.5551L91.2383 95.6386H90.8511L91.9071 92.541H92.3999L93.4207 95.6386H92.9983L92.6815 94.6882ZM92.5759 94.3714L92.1183 92.9634L91.6255 94.3714H92.5759Z" fill="#A1A1A1"/>
<path d="M94.0898 92.541H93.7378V95.6386H94.0898V92.541Z" fill="#A1A1A1"/>
<path d="M95.4272 93.421H95.744V93.7378C95.8154 93.6261 95.9146 93.535 96.0319 93.4733C96.1491 93.4116 96.2804 93.3814 96.4128 93.3858C96.5272 93.3791 96.6411 93.4055 96.7409 93.4616C96.8407 93.5178 96.9223 93.6014 96.976 93.7026C97.0494 93.5996 97.1458 93.5152 97.2576 93.4562C97.3701 93.4128 97.4891 93.389 97.6096 93.3858C98.032 93.3858 98.2432 93.597 98.2432 93.9842V95.6386H97.8912V94.125C97.8912 93.8434 97.7504 93.6674 97.504 93.6674C97.4364 93.6707 97.3702 93.6881 97.3096 93.7184C97.249 93.7487 97.1953 93.7913 97.152 93.8434C97.1038 93.8952 97.0665 93.9562 97.0423 94.0227C97.0181 94.0892 97.0076 94.1599 97.0112 94.2306V95.6386H96.6592V94.125C96.6592 93.8434 96.5184 93.6674 96.272 93.6674C96.2044 93.6707 96.1382 93.6881 96.0776 93.7184C96.017 93.7487 95.9633 93.7913 95.92 93.8434C95.8689 93.9004 95.8301 93.9673 95.8058 94.04C95.7816 94.1126 95.7726 94.1895 95.7792 94.2658V95.6738H95.4272V93.421Z" fill="#A1A1A1"/>
<path d="M100.672 95.3215V95.6031C100.604 95.627 100.533 95.6389 100.461 95.6383C100.25 95.6383 100.109 95.5327 100.109 95.3215C100.028 95.4297 99.9211 95.5156 99.7979 95.571C99.6748 95.6264 99.5395 95.6496 99.4049 95.6383C99.3139 95.6441 99.2227 95.6311 99.137 95.6C99.0513 95.5689 98.9729 95.5205 98.9068 95.4577C98.8407 95.3949 98.7883 95.3191 98.7529 95.2351C98.7174 95.1511 98.6998 95.0607 98.7009 94.9695C98.6984 94.877 98.716 94.785 98.7525 94.6999C98.7889 94.6149 98.8434 94.5387 98.9121 94.4767C99.0569 94.3736 99.2275 94.3126 99.4049 94.3007L100.109 94.1247V93.9487C100.109 93.7375 99.9329 93.6319 99.6161 93.6319C99.2993 93.6319 99.1585 93.7727 99.1233 94.0191H98.7713C98.7695 93.8556 98.8187 93.6956 98.9121 93.5615C99.0007 93.4646 99.1101 93.389 99.2319 93.3403C99.3538 93.2915 99.4851 93.2709 99.6161 93.2799C100.144 93.2799 100.426 93.4911 100.426 93.8783V95.1103C100.426 95.2159 100.461 95.2863 100.567 95.2863C100.567 95.3567 100.602 95.3567 100.672 95.3215ZM100.074 94.4767L99.5457 94.6175C99.4007 94.6317 99.2646 94.6936 99.1585 94.7935C99.1242 94.8245 99.0969 94.8626 99.0787 94.9051C99.0605 94.9476 99.0517 94.9936 99.0529 95.0399C99.0529 95.2511 99.1937 95.3919 99.4753 95.3919C99.5678 95.3944 99.6598 95.3768 99.7449 95.3403C99.8299 95.3039 99.9061 95.2494 99.9681 95.1807C100.049 95.1078 100.099 95.0073 100.109 94.8991V94.4767H100.074Z" fill="#A1A1A1"/>
<path d="M102.995 95.6385H102.608L102.186 93.8785L101.763 95.6385H101.376L100.778 93.4209H101.165L101.587 95.1457L101.975 93.4209H102.397L102.819 95.1457L103.242 93.4209H103.629L102.995 95.6385Z" fill="#A1A1A1"/>
<path d="M105.846 95.3215V95.6031C105.779 95.627 105.707 95.6389 105.635 95.6383C105.424 95.6383 105.283 95.5327 105.283 95.3215C105.202 95.4297 105.095 95.5156 104.972 95.571C104.849 95.6264 104.714 95.6496 104.579 95.6383C104.488 95.6441 104.397 95.6311 104.311 95.6C104.226 95.5689 104.147 95.5205 104.081 95.4577C104.015 95.3949 103.963 95.3191 103.927 95.2351C103.892 95.1511 103.874 95.0607 103.875 94.9695C103.873 94.877 103.89 94.785 103.927 94.6999C103.963 94.6149 104.018 94.5387 104.086 94.4767C104.231 94.3736 104.402 94.3126 104.579 94.3007L105.283 94.1247V93.9487C105.283 93.7375 105.107 93.6319 104.79 93.6319C104.474 93.6319 104.333 93.7727 104.298 94.0191H103.946C103.944 93.8556 103.993 93.6956 104.086 93.5615C104.175 93.4646 104.284 93.389 104.406 93.3403C104.528 93.2915 104.659 93.2709 104.79 93.2799C105.318 93.2799 105.6 93.4911 105.6 93.8783V95.1103C105.6 95.2159 105.635 95.2863 105.741 95.2863C105.741 95.3567 105.776 95.3567 105.846 95.3215ZM105.248 94.4767L104.72 94.6175C104.575 94.6317 104.439 94.6936 104.333 94.7935C104.298 94.8245 104.271 94.8626 104.253 94.9051C104.235 94.9476 104.226 94.9936 104.227 95.0399C104.227 95.2511 104.368 95.3919 104.65 95.3919C104.742 95.3944 104.834 95.3768 104.919 95.3403C105.004 95.3039 105.08 95.2494 105.142 95.1807C105.223 95.1078 105.273 95.0073 105.283 94.8991V94.4767H105.248Z" fill="#A1A1A1"/>
<path d="M107.923 92.541V95.6386H107.571V95.3218C107.511 95.4352 107.419 95.5287 107.306 95.5911C107.194 95.6535 107.066 95.6822 106.938 95.6738C106.799 95.6866 106.66 95.6604 106.536 95.5982C106.411 95.536 106.307 95.4403 106.234 95.3218C106.086 95.0784 106.012 94.7969 106.023 94.5122C106.007 94.1945 106.107 93.8819 106.304 93.6322C106.385 93.5448 106.483 93.4748 106.592 93.4264C106.701 93.378 106.819 93.3522 106.938 93.3506C107.066 93.3422 107.194 93.3709 107.306 93.4333C107.419 93.4958 107.511 93.5893 107.571 93.7026V92.541H107.923ZM107.008 93.7026C106.917 93.6993 106.826 93.7204 106.746 93.7637C106.665 93.807 106.598 93.871 106.551 93.949C106.43 94.1248 106.368 94.3344 106.375 94.5474C106.369 94.7768 106.444 95.001 106.586 95.181C106.635 95.2466 106.699 95.2998 106.772 95.3365C106.845 95.3731 106.926 95.3922 107.008 95.3922C107.09 95.3922 107.171 95.3731 107.244 95.3365C107.318 95.2998 107.381 95.2466 107.431 95.181C107.551 95.0052 107.613 94.7957 107.607 94.5826C107.617 94.3581 107.555 94.1361 107.431 93.949C107.397 93.8675 107.337 93.7993 107.261 93.7548C107.185 93.7103 107.096 93.692 107.008 93.7026Z" fill="#A1A1A1"/>
<path d="M110.176 92.541V95.6386H109.824V95.3218C109.763 95.4352 109.671 95.5287 109.559 95.5911C109.446 95.6535 109.318 95.6822 109.19 95.6738C109.052 95.6866 108.912 95.6604 108.788 95.5982C108.664 95.536 108.559 95.4403 108.486 95.3218C108.338 95.0784 108.265 94.7969 108.275 94.5122C108.259 94.1945 108.36 93.8819 108.557 93.6322C108.638 93.5448 108.736 93.4748 108.845 93.4264C108.953 93.378 109.071 93.3522 109.19 93.3506C109.318 93.3422 109.446 93.3709 109.559 93.4333C109.671 93.4958 109.763 93.5893 109.824 93.7026V92.541H110.176ZM109.261 93.7026C109.169 93.6993 109.079 93.7204 108.998 93.7637C108.918 93.807 108.851 93.871 108.803 93.949C108.682 94.1248 108.621 94.3344 108.627 94.5474C108.621 94.7768 108.696 95.001 108.838 95.181C108.887 95.2466 108.951 95.2998 109.024 95.3365C109.098 95.3731 109.179 95.3922 109.261 95.3922C109.343 95.3922 109.423 95.3731 109.497 95.3365C109.57 95.2998 109.634 95.2466 109.683 95.181C109.804 95.0052 109.865 94.7957 109.859 94.5826C109.869 94.3581 109.808 94.1361 109.683 93.949C109.646 93.8702 109.585 93.8044 109.51 93.7605C109.435 93.7165 109.348 93.6963 109.261 93.7026Z" fill="#A1A1A1"/>
<path d="M112.605 95.3215V95.6031C112.537 95.627 112.465 95.6389 112.394 95.6383C112.182 95.6383 112.042 95.5327 112.042 95.3215C111.961 95.4297 111.854 95.5156 111.731 95.571C111.607 95.6264 111.472 95.6496 111.338 95.6383C111.247 95.6441 111.155 95.6311 111.07 95.6C110.984 95.5689 110.906 95.5205 110.839 95.4577C110.773 95.3949 110.721 95.3191 110.686 95.2351C110.65 95.1511 110.632 95.0607 110.634 94.9695C110.631 94.877 110.649 94.785 110.685 94.6999C110.722 94.6149 110.776 94.5387 110.845 94.4767C110.99 94.3736 111.16 94.3126 111.338 94.3007L112.042 94.1247V93.9487C112.042 93.7375 111.866 93.6319 111.549 93.6319C111.232 93.6319 111.091 93.7727 111.056 94.0191H110.704C110.702 93.8556 110.751 93.6956 110.845 93.5615C110.933 93.4646 111.043 93.389 111.165 93.3403C111.286 93.2915 111.418 93.2709 111.549 93.2799C112.077 93.2799 112.358 93.4911 112.358 93.8783V95.1103C112.358 95.2159 112.394 95.2863 112.499 95.2863C112.499 95.3567 112.499 95.3567 112.605 95.3215ZM112.006 94.4767L111.478 94.6175C111.333 94.6317 111.197 94.6936 111.091 94.7935C111.057 94.8245 111.03 94.8626 111.011 94.9051C110.993 94.9476 110.984 94.9936 110.986 95.0399C110.986 95.2511 111.126 95.3919 111.408 95.3919C111.5 95.3944 111.592 95.3768 111.677 95.3403C111.763 95.3039 111.839 95.2494 111.901 95.1807C111.981 95.1078 112.032 95.0073 112.042 94.8991V94.4767H112.006Z" fill="#A1A1A1"/>
<path d="M112.957 92.541H113.274V93.7378C113.361 93.625 113.468 93.5295 113.591 93.4562C113.709 93.3927 113.845 93.3681 113.978 93.3858C114.158 93.3846 114.332 93.447 114.471 93.5618C114.53 93.6217 114.576 93.6933 114.607 93.7721C114.637 93.8509 114.651 93.9351 114.647 94.0194V95.6738H114.33V94.1602C114.337 94.0945 114.327 94.0282 114.303 93.9669C114.278 93.9056 114.239 93.8511 114.189 93.8082C114.146 93.7704 114.096 93.7415 114.041 93.7234C113.987 93.7052 113.929 93.6982 113.872 93.7026C113.79 93.7006 113.708 93.7188 113.635 93.7556C113.561 93.7924 113.498 93.8467 113.45 93.9138C113.335 94.0657 113.273 94.2512 113.274 94.4418V95.6738H112.957V92.541Z" fill="#A1A1A1"/>
<path d="M118.096 93.4209H117.744C117.744 92.9985 117.498 92.8225 117.005 92.8225C116.829 92.8098 116.655 92.8597 116.512 92.9633C116.456 93.0111 116.412 93.0705 116.381 93.1374C116.351 93.2043 116.335 93.277 116.336 93.3505C116.334 93.4545 116.371 93.5555 116.442 93.6321C116.552 93.7248 116.686 93.7857 116.829 93.8081L117.533 93.9841C117.991 94.1249 118.202 94.3713 118.202 94.7585C118.205 94.8921 118.179 95.0249 118.124 95.1468C118.069 95.2687 117.987 95.3766 117.885 95.4625C117.639 95.6373 117.341 95.7241 117.04 95.7089C116.854 95.725 116.666 95.6949 116.494 95.6212C116.322 95.5475 116.171 95.4326 116.055 95.2865C115.93 95.0994 115.868 94.8775 115.879 94.6529H116.231C116.227 94.7508 116.244 94.8483 116.28 94.9392C116.317 95.0301 116.372 95.1124 116.442 95.1809C116.629 95.3055 116.851 95.3672 117.075 95.3569C117.263 95.3799 117.452 95.3294 117.603 95.2161C117.67 95.1683 117.725 95.1049 117.762 95.0312C117.798 94.9576 117.817 94.876 117.815 94.7937C117.815 94.5473 117.639 94.4065 117.287 94.3009L116.547 94.0897C116.384 94.0615 116.236 93.9743 116.132 93.8446C116.028 93.7149 115.976 93.5516 115.984 93.3857C115.977 93.2566 116.002 93.1278 116.057 93.011C116.113 92.8942 116.197 92.7931 116.301 92.7169C116.516 92.5641 116.777 92.4896 117.04 92.5057C117.213 92.4902 117.387 92.5174 117.546 92.5849C117.706 92.6525 117.846 92.7582 117.955 92.8929C118.065 93.0343 118.127 93.2069 118.131 93.3857V93.4209H118.096Z" fill="#A1A1A1"/>
<path d="M119.504 93.3503C119.647 93.3412 119.79 93.3687 119.919 93.4304C120.049 93.492 120.16 93.5856 120.243 93.7023C120.391 93.9458 120.465 94.2272 120.454 94.5119C120.47 94.8297 120.37 95.1423 120.173 95.3919C120.087 95.4827 119.983 95.5546 119.868 95.603C119.753 95.6515 119.629 95.6755 119.504 95.6735C119.361 95.6827 119.218 95.6551 119.089 95.5935C118.959 95.5319 118.848 95.4383 118.765 95.3215C118.612 95.08 118.539 94.7972 118.554 94.5119C118.538 94.1833 118.637 93.8595 118.835 93.5967C119.022 93.438 119.259 93.3507 119.504 93.3503ZM119.504 93.6671C119.417 93.6647 119.33 93.6824 119.251 93.7191C119.171 93.7557 119.101 93.8102 119.046 93.8783C118.931 94.0696 118.87 94.2887 118.87 94.5119C118.87 94.7352 118.931 94.9543 119.046 95.1455C119.096 95.2081 119.161 95.257 119.235 95.2877C119.309 95.3185 119.389 95.3301 119.469 95.3215C119.556 95.324 119.643 95.3062 119.722 95.2696C119.802 95.233 119.872 95.1785 119.926 95.1103C120.047 94.9345 120.109 94.725 120.102 94.5119C120.113 94.2874 120.051 94.0654 119.926 93.8783C119.879 93.8113 119.815 93.757 119.742 93.7201C119.668 93.6833 119.586 93.6651 119.504 93.6671Z" fill="#A1A1A1"/>
<path d="M122.531 94.16H122.179C122.18 94.0965 122.168 94.0335 122.143 93.975C122.119 93.9166 122.082 93.864 122.035 93.8208C121.989 93.7776 121.934 93.7447 121.873 93.7243C121.813 93.7039 121.75 93.6964 121.686 93.7024C121.6 93.6997 121.515 93.7214 121.44 93.765C121.365 93.8086 121.304 93.8722 121.264 93.9488C121.152 94.14 121.102 94.3617 121.123 94.5824C121.118 94.8064 121.179 95.027 121.299 95.216C121.349 95.2785 121.414 95.3274 121.488 95.3582C121.562 95.389 121.642 95.4006 121.722 95.392C121.787 95.3939 121.852 95.3825 121.912 95.3585C121.973 95.3344 122.028 95.2981 122.074 95.252C122.121 95.2058 122.157 95.1507 122.181 95.0901C122.205 95.0294 122.216 94.9644 122.214 94.8992H122.566C122.564 95.0182 122.538 95.1356 122.49 95.2444C122.441 95.3532 122.372 95.4513 122.285 95.5328C122.128 95.6635 121.925 95.7267 121.722 95.7088C121.579 95.7179 121.436 95.6904 121.306 95.6288C121.177 95.5672 121.065 95.4736 120.982 95.3568C120.834 95.1264 120.761 94.8561 120.771 94.5824C120.755 94.2538 120.855 93.93 121.053 93.6672C121.139 93.5765 121.242 93.5046 121.358 93.4561C121.473 93.4076 121.597 93.3836 121.722 93.3856C121.856 93.3781 121.99 93.4029 122.112 93.4581C122.235 93.5132 122.342 93.597 122.426 93.7024C122.506 93.8409 122.543 94.0003 122.531 94.16Z" fill="#A1A1A1"/>
<path d="M123.095 92.5407C123.122 92.5413 123.148 92.5478 123.173 92.56C123.197 92.5722 123.219 92.5897 123.235 92.6111C123.272 92.6499 123.297 92.699 123.306 92.7519C123.305 92.7792 123.299 92.8059 123.286 92.8303C123.274 92.8546 123.257 92.876 123.235 92.8927C123.196 92.9298 123.147 92.9543 123.095 92.9631C123.067 92.9626 123.04 92.956 123.016 92.9438C122.992 92.9317 122.97 92.9142 122.954 92.8927C122.917 92.8539 122.892 92.8049 122.883 92.7519C122.884 92.7247 122.89 92.6979 122.903 92.6736C122.915 92.6492 122.932 92.6279 122.954 92.6111C122.967 92.5867 122.988 92.567 123.013 92.5544C123.038 92.5419 123.067 92.5371 123.095 92.5407ZM123.271 95.6383H122.919V93.4207H123.235V95.6383H123.271Z" fill="#A1A1A1"/>
<path d="M125.629 94.6177H124.08C124.073 94.777 124.11 94.9352 124.186 95.0754C124.24 95.1658 124.317 95.2398 124.411 95.2894C124.504 95.339 124.608 95.3623 124.714 95.3569C124.842 95.3616 124.967 95.3223 125.07 95.2454C125.172 95.1685 125.245 95.0588 125.277 94.9346H125.629C125.616 95.0448 125.582 95.1515 125.527 95.2482C125.473 95.3449 125.4 95.4298 125.312 95.4977C125.145 95.6395 124.932 95.7147 124.714 95.7089C124.571 95.7181 124.428 95.6905 124.298 95.6289C124.169 95.5673 124.057 95.4737 123.974 95.3569C123.822 95.1154 123.748 94.8326 123.763 94.5474C123.754 94.2196 123.853 93.898 124.045 93.6322C124.131 93.5414 124.234 93.4695 124.35 93.4211C124.465 93.3726 124.589 93.3486 124.714 93.3506C124.9 93.338 125.086 93.3875 125.242 93.4914C125.385 93.5998 125.494 93.7461 125.558 93.9137C125.607 94.1453 125.63 94.3812 125.629 94.6177ZM125.277 94.3362C125.281 94.2518 125.267 94.1676 125.237 94.0889C125.207 94.0101 125.16 93.9385 125.101 93.8786C125.045 93.8228 124.98 93.7785 124.907 93.7483C124.835 93.7181 124.757 93.7026 124.678 93.7026C124.6 93.7026 124.522 93.7181 124.45 93.7483C124.377 93.7785 124.311 93.8228 124.256 93.8786C124.141 94.0033 124.079 94.1668 124.08 94.3362H125.277Z" fill="#A1A1A1"/>
<path d="M126.931 93.4207V93.7023H126.509V95.1807C126.503 95.2303 126.516 95.2802 126.544 95.3215C126.561 95.343 126.582 95.3604 126.606 95.3726C126.631 95.3848 126.657 95.3914 126.685 95.3919C126.768 95.3932 126.851 95.3814 126.931 95.3567L126.966 95.6735C126.839 95.6985 126.709 95.7103 126.579 95.7087C126.297 95.7087 126.157 95.6031 126.157 95.3567V93.7023H125.875V93.4207H126.157V92.9631L126.473 92.7871V93.4207H126.931Z" fill="#A1A1A1"/>
<path d="M128.621 93.4209H128.973L128.023 96.1313C127.999 96.2624 127.929 96.3806 127.826 96.4646C127.723 96.5486 127.592 96.5927 127.459 96.5889C127.351 96.5824 127.244 96.5586 127.143 96.5185L127.213 96.2017C127.279 96.2304 127.352 96.2424 127.424 96.2369C127.565 96.2369 127.635 96.1665 127.706 96.0257L127.847 95.6737L127.143 93.4561H127.495L128.023 95.1809L128.621 93.4209Z" fill="#A1A1A1"/>
<path d="M130.874 93.4206V93.7022H130.522V95.6382H130.205V93.7022H129.923V93.4206H130.205V93.0334C130.198 92.9625 130.208 92.8909 130.232 92.824C130.256 92.757 130.295 92.6963 130.346 92.6462C130.389 92.596 130.443 92.557 130.504 92.5325C130.566 92.5079 130.632 92.4986 130.698 92.5054C130.759 92.4962 130.821 92.5087 130.874 92.5406V92.8222H130.768C130.627 92.8222 130.522 92.8926 130.522 93.0334V93.3854H130.874V93.4206Z" fill="#A1A1A1"/>
<path d="M132.07 93.3503C132.213 93.3412 132.356 93.3687 132.486 93.4304C132.615 93.492 132.727 93.5856 132.81 93.7023C132.958 93.9458 133.031 94.2272 133.021 94.5119C133.036 94.8297 132.936 95.1423 132.739 95.3919C132.653 95.4827 132.55 95.5546 132.434 95.603C132.319 95.6515 132.195 95.6755 132.07 95.6735C131.928 95.6827 131.785 95.6551 131.655 95.5935C131.526 95.5319 131.414 95.4383 131.331 95.3215C131.179 95.08 131.105 94.7972 131.12 94.5119C131.104 94.1833 131.204 93.8595 131.402 93.5967C131.585 93.4322 131.824 93.3441 132.07 93.3503ZM132.07 93.6671C131.983 93.6647 131.896 93.6824 131.817 93.7191C131.738 93.7557 131.668 93.8102 131.613 93.8783C131.498 94.0696 131.437 94.2887 131.437 94.5119C131.437 94.7352 131.498 94.9543 131.613 95.1455C131.663 95.2081 131.728 95.257 131.802 95.2877C131.875 95.3185 131.956 95.3301 132.035 95.3215C132.123 95.324 132.209 95.3062 132.289 95.2696C132.368 95.233 132.438 95.1785 132.493 95.1103C132.613 94.9345 132.675 94.725 132.669 94.5119C132.679 94.2874 132.617 94.0654 132.493 93.8783C132.445 93.8113 132.382 93.757 132.308 93.7201C132.234 93.6833 132.153 93.6651 132.07 93.6671Z" fill="#A1A1A1"/>
<path d="M133.479 93.4209H133.795V93.8433C133.936 93.5265 134.112 93.3857 134.394 93.3857H134.499V93.7377C134.339 93.7212 134.178 93.7584 134.042 93.8433C133.961 93.9259 133.899 94.0259 133.863 94.1357C133.826 94.2455 133.815 94.3622 133.831 94.4769V95.6386H133.479V93.4209Z" fill="#A1A1A1"/>
<path d="M91.52 99.4401V100.848H91.1328V97.7505H93.104V98.1025H91.52V99.0881H92.928V99.4401H91.52Z" fill="#A1A1A1"/>
<path d="M95.533 100.531V100.813C95.4651 100.836 95.3937 100.848 95.3218 100.848C95.1106 100.848 94.9698 100.742 94.9698 100.531C94.889 100.639 94.7819 100.725 94.6588 100.78C94.5356 100.836 94.4003 100.859 94.2658 100.848C94.1748 100.854 94.0836 100.841 93.9979 100.809C93.9121 100.778 93.8338 100.73 93.7677 100.667C93.7016 100.604 93.6492 100.529 93.6137 100.445C93.5783 100.361 93.5606 100.27 93.5618 100.179C93.5593 100.086 93.5769 99.9945 93.6133 99.9094C93.6498 99.8243 93.7042 99.7482 93.773 99.6862C93.9178 99.5831 94.0884 99.5221 94.2658 99.5102L94.9698 99.3342V99.1582C94.9698 98.947 94.7938 98.8414 94.477 98.8414C94.1602 98.8414 94.0194 98.9822 93.9842 99.2286H93.6322C93.6303 99.0651 93.6795 98.9051 93.773 98.771C93.8616 98.6741 93.9709 98.5985 94.0928 98.5497C94.2147 98.501 94.346 98.4803 94.477 98.4894C95.005 98.4894 95.2866 98.7006 95.2866 99.0878V100.32C95.2866 100.425 95.3218 100.496 95.4274 100.496C95.4274 100.566 95.4626 100.566 95.533 100.531ZM94.9346 99.6862L94.4066 99.827C94.2616 99.8412 94.1254 99.9031 94.0194 100.003C93.985 100.034 93.9578 100.072 93.9395 100.115C93.9213 100.157 93.9125 100.203 93.9138 100.249C93.9138 100.461 94.0546 100.601 94.3362 100.601C94.4287 100.604 94.5206 100.586 94.6057 100.55C94.6908 100.513 94.7669 100.459 94.829 100.39C94.9096 100.317 94.9598 100.217 94.9698 100.109V99.6862H94.9346Z" fill="#A1A1A1"/>
<path d="M96.0254 98.5953H96.3422V98.9121C96.4136 98.8004 96.5128 98.7093 96.63 98.6476C96.7473 98.5859 96.8786 98.5557 97.011 98.5601C97.1253 98.5535 97.2392 98.5798 97.339 98.6359C97.4389 98.6921 97.5205 98.7757 97.5742 98.8769C97.6475 98.7739 97.744 98.6895 97.8558 98.6305C97.9683 98.5871 98.0873 98.5633 98.2078 98.5601C98.6302 98.5601 98.8414 98.7713 98.8414 99.1585V100.813H98.4894V99.2993C98.4894 99.0177 98.3486 98.8417 98.1022 98.8417C98.0345 98.8451 97.9683 98.8624 97.9077 98.8927C97.8471 98.923 97.7935 98.9656 97.7502 99.0177C97.702 99.0695 97.6647 99.1305 97.6405 99.197C97.6163 99.2635 97.6057 99.3342 97.6094 99.4049V100.813H97.2574V99.2993C97.2574 99.0177 97.1166 98.8417 96.8702 98.8417C96.8025 98.8451 96.7363 98.8624 96.6757 98.8927C96.6151 98.923 96.5615 98.9656 96.5182 99.0177C96.4671 99.0747 96.4282 99.1416 96.404 99.2143C96.3798 99.2869 96.3707 99.3638 96.3774 99.4401V100.848H96.0254V98.5953Z" fill="#A1A1A1"/>
<path d="M99.6863 97.7505C99.7135 97.751 99.7403 97.7576 99.7647 97.7698C99.789 97.7819 99.8103 97.7994 99.8271 97.8209C99.8642 97.8597 99.8887 97.9087 99.8975 97.9617C99.897 97.9889 99.8904 98.0157 99.8782 98.04C99.866 98.0644 99.8486 98.0857 99.8271 98.1025C99.7883 98.1395 99.7392 98.1641 99.6863 98.1729C99.6591 98.1724 99.6323 98.1658 99.6079 98.1536C99.5836 98.1414 99.5622 98.124 99.5455 98.1025C99.5084 98.0637 99.4839 98.0146 99.4751 97.9617C99.4756 97.9345 99.4822 97.9077 99.4944 97.8833C99.5066 97.859 99.524 97.8376 99.5455 97.8209C99.5807 97.7505 99.6159 97.7505 99.6863 97.7505ZM99.8271 100.848H99.5103V98.6305H99.8271V100.848Z" fill="#A1A1A1"/>
<path d="M100.883 97.7505H100.531V100.848H100.883V97.7505Z" fill="#A1A1A1"/>
<path d="M102.854 98.5952H103.206L102.256 101.306C102.232 101.437 102.163 101.555 102.059 101.639C101.956 101.723 101.826 101.767 101.693 101.763C101.584 101.757 101.477 101.733 101.376 101.693L101.446 101.376C101.513 101.405 101.585 101.417 101.658 101.411C101.798 101.411 101.869 101.341 101.939 101.2L102.08 100.848L101.376 98.6304H101.728L102.256 100.355L102.854 98.5952Z" fill="#A1A1A1"/>
<path d="M104.685 100.848V97.7506H105.811C105.99 97.7407 106.169 97.7776 106.329 97.8579C106.49 97.9382 106.627 98.0589 106.726 98.2082C106.923 98.5375 107.02 98.9162 107.008 99.2994C107.043 99.7281 106.917 100.155 106.656 100.496C106.55 100.614 106.42 100.708 106.273 100.768C106.127 100.829 105.969 100.857 105.811 100.848H104.685ZM105.037 100.496H105.741C106.339 100.496 106.621 100.109 106.621 99.2994C106.621 98.4898 106.339 98.1026 105.741 98.1026H105.037V100.496Z" fill="#A1A1A1"/>
<path d="M109.437 99.8272H107.888C107.881 99.9865 107.918 100.145 107.994 100.285C108.048 100.375 108.126 100.449 108.219 100.499C108.312 100.548 108.416 100.572 108.522 100.566C108.65 100.571 108.775 100.532 108.878 100.455C108.981 100.378 109.054 100.268 109.085 100.144H109.437C109.424 100.254 109.39 100.361 109.335 100.458C109.281 100.554 109.208 100.639 109.12 100.707C108.953 100.849 108.74 100.924 108.522 100.918C108.379 100.928 108.236 100.9 108.106 100.838C107.977 100.777 107.866 100.683 107.782 100.566C107.63 100.325 107.556 100.042 107.571 99.7568C107.562 99.4291 107.661 99.1075 107.853 98.8416C107.939 98.7509 108.043 98.679 108.158 98.6305C108.273 98.5821 108.397 98.558 108.522 98.56C108.708 98.5474 108.894 98.5969 109.05 98.7008C109.193 98.8093 109.302 98.9556 109.366 99.1232C109.415 99.3547 109.438 99.5907 109.437 99.8272ZM109.085 99.5456C109.089 99.4613 109.075 99.3771 109.045 99.2983C109.015 99.2196 108.968 99.1479 108.909 99.088C108.854 99.0323 108.788 98.988 108.715 98.9578C108.643 98.9276 108.565 98.912 108.486 98.912C108.408 98.912 108.33 98.9276 108.258 98.9578C108.185 98.988 108.119 99.0323 108.064 99.088C107.95 99.2128 107.887 99.3763 107.888 99.5456H109.085Z" fill="#A1A1A1"/>
<path d="M110.88 100.848H110.528L109.789 98.5952H110.176L110.739 100.426L111.337 98.5952H111.689L110.88 100.848Z" fill="#A1A1A1"/>
<path d="M113.942 99.8272H112.393C112.387 99.9865 112.423 100.145 112.499 100.285C112.553 100.375 112.631 100.449 112.724 100.499C112.817 100.548 112.922 100.572 113.027 100.566C113.155 100.571 113.281 100.532 113.383 100.455C113.486 100.378 113.559 100.268 113.59 100.144H113.942C113.93 100.254 113.895 100.361 113.841 100.458C113.786 100.554 113.713 100.639 113.625 100.707C113.459 100.849 113.246 100.924 113.027 100.918C112.884 100.928 112.741 100.9 112.612 100.838C112.482 100.777 112.371 100.683 112.288 100.566C112.135 100.325 112.062 100.042 112.077 99.7568C112.067 99.4291 112.166 99.1075 112.358 98.8416C112.444 98.7509 112.548 98.679 112.663 98.6305C112.778 98.5821 112.902 98.558 113.027 98.56C113.214 98.5474 113.399 98.5969 113.555 98.7008C113.698 98.8093 113.808 98.9556 113.872 99.1232C113.938 99.3517 113.962 99.5902 113.942 99.8272ZM113.59 99.5456C113.594 99.4613 113.581 99.3771 113.55 99.2983C113.52 99.2196 113.474 99.1479 113.414 99.088C113.359 99.0323 113.293 98.988 113.221 98.9578C113.148 98.9276 113.07 98.912 112.992 98.912C112.913 98.912 112.836 98.9276 112.763 98.9578C112.691 98.988 112.625 99.0323 112.569 99.088C112.455 99.2128 112.392 99.3763 112.393 99.5456H113.59Z" fill="#A1A1A1"/>
<path d="M114.893 97.7505H114.541V100.848H114.893V97.7505Z" fill="#A1A1A1"/>
<path d="M116.406 98.5598C116.549 98.5507 116.692 98.5782 116.822 98.6398C116.951 98.7014 117.063 98.7951 117.146 98.9118C117.294 99.1552 117.367 99.4367 117.357 99.7214C117.372 100.039 117.272 100.352 117.075 100.601C116.989 100.692 116.886 100.764 116.77 100.813C116.655 100.861 116.531 100.885 116.406 100.883C116.263 100.892 116.12 100.865 115.991 100.803C115.862 100.741 115.75 100.648 115.667 100.531C115.515 100.29 115.441 100.007 115.456 99.7214C115.44 99.3928 115.54 99.069 115.738 98.8062C115.921 98.6417 116.16 98.5535 116.406 98.5598ZM116.406 98.8766C116.319 98.8741 116.232 98.8919 116.153 98.9286C116.073 98.9652 116.004 99.0197 115.949 99.0878C115.834 99.2791 115.773 99.4981 115.773 99.7214C115.773 99.9447 115.834 100.164 115.949 100.355C115.999 100.418 116.064 100.466 116.137 100.497C116.211 100.528 116.292 100.54 116.371 100.531C116.459 100.533 116.545 100.516 116.625 100.479C116.704 100.442 116.774 100.388 116.829 100.32C116.949 100.144 117.011 99.9345 117.005 99.7214C117.015 99.4969 116.953 99.2749 116.829 99.0878C116.781 99.0208 116.718 98.9664 116.644 98.9296C116.57 98.8928 116.489 98.8746 116.406 98.8766Z" fill="#A1A1A1"/>
<path d="M117.885 101.763V98.5954H118.202V98.9474C118.268 98.8285 118.365 98.7297 118.483 98.6615C118.6 98.5933 118.734 98.5583 118.87 98.5602C119.008 98.5513 119.146 98.5792 119.27 98.6411C119.394 98.7029 119.499 98.7965 119.574 98.9122C119.727 99.1668 119.8 99.4607 119.786 99.757C119.802 100.064 119.701 100.366 119.504 100.602C119.423 100.689 119.325 100.759 119.216 100.808C119.107 100.856 118.99 100.882 118.87 100.883C118.747 100.887 118.624 100.859 118.514 100.804C118.404 100.749 118.308 100.667 118.237 100.567V101.763H117.885ZM118.8 98.877C118.714 98.8743 118.628 98.896 118.553 98.9396C118.479 98.9832 118.418 99.0469 118.378 99.1234C118.253 99.3105 118.191 99.5324 118.202 99.757C118.196 99.981 118.257 100.202 118.378 100.391C118.427 100.453 118.492 100.502 118.566 100.533C118.64 100.564 118.72 100.575 118.8 100.567C118.887 100.569 118.974 100.551 119.054 100.515C119.133 100.478 119.203 100.424 119.258 100.355C119.378 100.18 119.44 99.9701 119.434 99.757C119.444 99.5324 119.382 99.3105 119.258 99.1234C119.207 99.048 119.139 98.986 119.06 98.9431C118.98 98.9001 118.891 98.8774 118.8 98.877Z" fill="#A1A1A1"/>
<path d="M120.313 98.5953H120.63V98.9121C120.702 98.8004 120.801 98.7093 120.918 98.6476C121.035 98.5859 121.167 98.5557 121.299 98.5601C121.413 98.5535 121.527 98.5798 121.627 98.6359C121.727 98.6921 121.809 98.7757 121.862 98.8769C121.936 98.7739 122.032 98.6895 122.144 98.6305C122.256 98.5871 122.375 98.5633 122.496 98.5601C122.918 98.5601 123.129 98.7713 123.129 99.1585V100.813H122.777V99.2993C122.777 99.0177 122.637 98.8417 122.39 98.8417C122.323 98.8451 122.256 98.8624 122.196 98.8927C122.135 98.923 122.082 98.9656 122.038 99.0177C121.99 99.0695 121.953 99.1305 121.929 99.197C121.904 99.2635 121.894 99.3342 121.897 99.4049V100.813H121.545V99.2993C121.545 99.0177 121.405 98.8417 121.158 98.8417C121.091 98.8451 121.024 98.8624 120.964 98.8927C120.903 98.923 120.85 98.9656 120.806 99.0177C120.755 99.0747 120.716 99.1416 120.692 99.2143C120.668 99.2869 120.659 99.3638 120.665 99.4401V100.848H120.313V98.5953Z" fill="#A1A1A1"/>
<path d="M125.594 99.8272H124.045C124.038 99.9865 124.074 100.145 124.15 100.285C124.205 100.375 124.282 100.449 124.375 100.499C124.468 100.548 124.573 100.572 124.678 100.566C124.806 100.571 124.932 100.532 125.035 100.455C125.137 100.378 125.21 100.268 125.242 100.144H125.594C125.581 100.254 125.547 100.361 125.492 100.458C125.438 100.554 125.365 100.639 125.277 100.707C125.11 100.849 124.897 100.924 124.678 100.918C124.535 100.928 124.392 100.9 124.263 100.838C124.134 100.777 124.022 100.683 123.939 100.566C123.787 100.325 123.713 100.042 123.728 99.7568C123.719 99.4291 123.818 99.1075 124.01 98.8416C124.095 98.7509 124.199 98.679 124.314 98.6305C124.43 98.5821 124.553 98.558 124.678 98.56C124.865 98.5474 125.051 98.5969 125.206 98.7008C125.349 98.8093 125.459 98.9556 125.523 99.1232C125.572 99.3547 125.595 99.5907 125.594 99.8272ZM125.242 99.5456C125.246 99.4613 125.232 99.3771 125.202 99.2983C125.171 99.2196 125.125 99.1479 125.066 99.088C125.01 99.0323 124.944 98.988 124.872 98.9578C124.8 98.9276 124.722 98.912 124.643 98.912C124.565 98.912 124.487 98.9276 124.414 98.9578C124.342 98.988 124.276 99.0323 124.221 99.088C124.106 99.2128 124.043 99.3763 124.045 99.5456H125.242Z" fill="#A1A1A1"/>
<path d="M126.192 98.5954H126.509V98.9826C126.575 98.8533 126.676 98.7451 126.8 98.6704C126.925 98.5957 127.068 98.5575 127.213 98.5602C127.393 98.559 127.567 98.6213 127.705 98.7362C127.762 98.7911 127.806 98.8569 127.837 98.9294C127.867 99.002 127.882 99.08 127.881 99.1586V100.848H127.565V99.2994C127.573 99.242 127.568 99.1835 127.549 99.1285C127.531 99.0735 127.5 99.0235 127.459 98.9825C127.418 98.9415 127.368 98.9106 127.313 98.8923C127.258 98.874 127.2 98.8687 127.142 98.877C127.06 98.875 126.978 98.8932 126.905 98.93C126.831 98.9668 126.768 99.0211 126.72 99.0882C126.616 99.2438 126.567 99.4295 126.579 99.6162V100.848H126.227V98.5954H126.192Z" fill="#A1A1A1"/>
<path d="M129.395 98.595V98.8766H128.973V100.355C128.968 100.405 128.98 100.455 129.008 100.496C129.025 100.517 129.046 100.535 129.071 100.547C129.095 100.559 129.122 100.566 129.149 100.566C129.232 100.568 129.316 100.556 129.395 100.531L129.431 100.848C129.303 100.873 129.173 100.885 129.043 100.883C128.762 100.883 128.621 100.777 128.621 100.531V98.8766H128.339V98.595H128.621V98.1374L128.938 97.9614V98.595H129.395Z" fill="#A1A1A1"/>
</svg>
