<svg width="120" height="120" viewBox="0 0 120 120" fill="none" xmlns="http://www.w3.org/2000/svg">
<path d="M99.4434 71.7834C102.313 69.2433 104.43 67.738 105.512 66.8912C105.559 66.8442 105.653 66.7971 105.7 66.7501C106.029 66.5149 106.358 66.2797 106.688 65.9975H106.735C106.876 65.9034 107.017 65.7623 107.158 65.6682C107.299 65.5741 107.44 65.433 107.581 65.3389L107.628 65.2919L108.193 64.8685V64.7744C107.064 65.2448 105.888 65.48 104.665 65.48C103.63 65.48 102.642 65.2919 101.654 65.0096C100.243 66.9853 99.4434 69.3373 99.4434 71.7834Z" fill="#A1A1A1"/>
<path d="M114.12 48.7807C114.073 48.8748 114.026 48.9218 113.979 49.0159C113.791 49.2982 113.65 49.5334 113.461 49.7686C113.038 50.3801 112.568 50.9446 112.05 51.462C111.58 51.9324 111.109 52.4028 110.592 52.8262C108.993 54.2374 107.299 55.4134 106.688 55.9309C105.794 56.6365 104.947 57.295 104.1 58.0006C103.912 58.1888 103.724 58.3299 103.536 58.5181C102.219 59.6471 101.043 60.9171 100.008 62.2813C98.5966 64.1629 97.7499 66.0445 97.7969 67.9732C97.7969 69.4315 98.2673 70.8897 99.114 72.1128C99.067 72.1128 99.067 72.1128 99.067 72.0657C95.4449 70.1841 92.3873 68.1614 90.5056 65.8564C89.3767 64.5393 88.6711 62.8928 88.624 61.1523C88.6711 56.5894 93.6573 52.4969 98.7847 48.5455C99.3022 48.1692 99.7726 47.7929 100.29 47.3695C100.384 47.3225 100.431 47.2284 100.525 47.1814C103.301 45.0645 105.982 42.9477 107.722 40.8309C107.769 40.7839 107.817 40.7368 107.864 40.6427L107.911 40.5957C108.052 40.6427 108.146 40.6898 108.287 40.7368C111.015 41.7717 113.273 44.5001 113.932 48.0281C113.979 48.2633 114.073 48.4985 114.12 48.7807Z" fill="#A1A1A1"/>
<path d="M99.4434 72.301V72.6774C99.3023 72.4892 99.1612 72.301 99.0671 72.1129C98.2204 70.8898 97.75 69.4316 97.75 67.9733C97.75 66.0447 98.5967 64.0219 100.337 61.811C100.29 62.2344 99.9609 63.0341 100.102 63.3634C100.243 63.6927 100.431 64.0219 100.714 64.3042C100.996 64.5864 101.325 64.7746 101.701 64.9157C100.243 66.9384 99.4434 69.4316 99.4434 71.9247V72.301Z" fill="#A1A1A1"/>
<path d="M98.9731 42.3364C102.195 42.3364 104.806 39.7249 104.806 36.5034C104.806 33.2819 102.195 30.6704 98.9731 30.6704C95.7517 30.6704 93.1401 33.2819 93.1401 36.5034C93.1401 39.7249 95.7517 42.3364 98.9731 42.3364Z" fill="#A1A1A1"/>
<path d="M103.395 32.646C100.996 30.5292 97.2795 30.7644 95.1626 33.1635C94.2218 34.2454 93.7044 35.6096 93.7044 37.0208C93.7044 38.432 94.2218 39.7962 95.1626 40.8781C92.7165 38.7613 92.4343 35.0921 94.5511 32.646C96.6679 30.1999 100.337 29.9177 102.783 32.0345C103.018 32.1756 103.207 32.4108 103.395 32.646Z" fill="#A1A1A1"/>
<path d="M115.296 45.1586C115.296 45.3468 115.249 45.4879 115.249 45.6761C115.202 46.0524 115.108 46.4758 115.014 46.8521V46.8991C114.825 47.5577 114.496 48.2163 114.12 48.7808V48.6867C114.073 48.4515 114.073 48.2633 114.026 48.0281C113.367 44.5001 111.109 41.7717 108.381 40.7369C108.616 40.4546 108.804 40.1253 108.992 39.796C109.463 38.9964 109.792 38.1026 109.98 37.2088L109.886 37.1147C110.31 37.5381 110.78 37.9615 111.203 38.3848C112.614 39.702 114.073 41.1132 114.825 42.7596C114.825 42.8066 114.825 42.8066 114.872 42.8537C114.967 43.0889 115.061 43.3711 115.155 43.6534C115.155 43.7004 115.202 43.7945 115.202 43.8415V43.9356C115.249 44.0767 115.249 44.2178 115.249 44.359V44.406C115.249 44.6882 115.296 44.9234 115.296 45.1586Z" fill="#A1A1A1"/>
<path opacity="0.64" d="M109.933 37.2559C109.651 38.526 109.134 39.749 108.334 40.7839C108.193 40.7369 108.099 40.6898 107.958 40.6428C108.24 40.3135 108.475 39.9842 108.71 39.6079C109.134 38.8552 109.463 38.0085 109.651 37.1618C109.651 37.1148 109.698 37.0677 109.698 36.9736L109.886 37.1618L109.933 37.2559Z" fill="#A1A1A1"/>
<path d="M108.287 40.7842C108.24 40.8312 108.193 40.9253 108.099 40.9723C108.052 41.0194 108.005 41.0664 107.958 41.1605C106.217 43.2773 103.536 45.3941 100.761 47.511C100.667 47.558 100.619 47.6521 100.525 47.6991C100.008 48.0754 99.5376 48.4518 99.0201 48.8751C93.8927 52.8265 88.8594 56.919 88.8594 61.529C88.9064 63.1284 89.4709 64.6807 90.4588 65.9508C90.788 66.4212 91.1644 66.8446 91.5877 67.2679C89.7061 65.4333 88.5771 63.4576 88.5771 61.2467V61.1997C88.6242 56.6368 93.6105 52.5443 98.7379 48.5929C99.2553 48.2166 99.7257 47.8402 100.243 47.4169C100.337 47.3698 100.384 47.2758 100.478 47.2287C103.254 45.1119 105.935 42.9951 107.676 40.8783C107.723 40.8312 107.77 40.7842 107.817 40.6901L107.864 40.6431C108.005 40.6431 108.146 40.6901 108.287 40.7842Z" fill="#A1A1A1"/>
<path d="M113.179 61.0586C110.121 63.3165 107.534 65.2452 105.511 66.8446C104.335 67.7383 101.983 69.4788 98.8317 72.3483C97.1853 73.8065 95.727 75.4059 94.504 77.1934C93.4221 78.7458 92.9046 80.6274 92.9517 82.509C92.9987 83.9673 93.4691 85.4255 94.2688 86.6486C94.6922 87.2601 95.0685 87.6364 95.1155 87.7305C96.0093 88.5772 97.1383 89.1417 98.3613 89.4239C98.6906 88.5302 99.0669 87.6834 99.4903 86.8838C99.9607 86.0841 100.666 85.0021 103.112 82.6031C104.147 81.5682 105.417 80.3451 107.252 78.7928C109.087 77.2405 109.651 77.0053 111.391 75.4529C112.332 74.6062 113.179 73.7125 113.932 72.7246C114.543 71.9249 115.061 71.0782 115.437 70.1374C115.813 69.1025 115.954 68.0206 115.954 66.9386C115.766 64.6807 114.778 62.6109 113.179 61.0586Z" fill="#A1A1A1"/>
<path d="M115.39 70.137C115.249 70.5134 115.061 70.8897 114.92 71.219C114.873 69.9959 114.638 68.8199 114.261 67.6909C113.65 65.9975 112.662 64.4922 111.345 63.2691C112.097 62.7047 112.85 62.1402 113.65 61.5757C114.967 63.081 115.767 64.9626 115.908 66.9853C115.955 68.0202 115.767 69.1021 115.39 70.137Z" fill="#A1A1A1"/>
<path d="M99.5373 86.7897C99.5373 86.8367 99.4903 86.8367 99.4903 86.8838C99.0199 87.6835 98.6436 88.5302 98.3613 89.424C97.1383 89.1888 96.0093 88.6243 95.1155 87.7305C94.7862 87.4012 94.504 87.0249 94.2688 86.6486C93.4691 85.4255 93.0458 83.9673 92.9517 82.509C92.9046 80.6274 93.4221 78.7458 94.504 77.1935C94.9274 76.5819 95.3978 75.9234 95.8682 75.3589C94.4099 78.1813 94.551 81.5212 96.2445 84.2025C96.4797 84.6258 96.809 85.0022 97.1383 85.3314C97.7968 85.943 98.6436 86.4604 99.5373 86.7897Z" fill="#A1A1A1"/>
<path d="M113.65 61.529C112.85 62.1405 112.097 62.705 111.345 63.2224C111.203 63.0813 111.015 62.9402 110.827 62.7991C111.58 62.2346 112.379 61.6701 113.179 61.0586L113.226 61.1056L113.273 61.1527C113.414 61.2468 113.508 61.3879 113.65 61.529Z" fill="#A1A1A1"/>
<path d="M111.298 63.2692C109.228 64.8216 107.44 66.1857 105.935 67.3147C104.759 68.2085 102.407 69.949 99.2554 72.8184C97.609 74.2767 96.1508 75.8761 94.9277 77.6636C93.8458 79.2159 93.3283 81.0975 93.3754 82.9791C93.4224 84.4374 93.8928 85.8486 94.6455 87.1187C94.8807 87.448 95.1159 87.7302 95.257 87.9184C95.1629 87.8713 95.1159 87.7773 95.0218 87.7302C94.6925 87.4009 94.4103 87.0246 94.1751 86.6483C93.3754 85.4252 92.952 83.967 92.8579 82.5087C92.8109 80.6271 93.3283 78.7455 94.4103 77.1932C95.6333 75.4057 97.0916 73.7592 98.738 72.348C101.89 69.4786 104.242 67.7381 105.418 66.8443C106.923 65.7153 108.711 64.3512 110.733 62.7988C110.968 62.8929 111.157 63.0811 111.298 63.2692Z" fill="#A1A1A1"/>
<path d="M78.2754 41.7717V58.8003C80.157 58.8003 81.6623 57.295 81.6623 55.4134V38.3848C79.7807 38.3848 78.2754 39.8901 78.2754 41.7717Z" fill="#A1A1A1"/>
<path d="M75.4057 51.6034V38.5732C73.5711 38.5732 72.0658 40.0785 72.0658 41.9131V51.8857C72.1129 52.6854 71.8777 53.485 71.3602 54.1436C70.4665 55.1785 68.726 55.3667 67.4559 55.3667H63.8808C63.9749 55.2255 64.069 55.1315 64.116 54.9903C65.292 53.0146 65.3391 50.5685 64.2101 48.5458C62.893 46.0527 60.0705 44.077 55.7428 42.7128C53.8612 42.1013 51.8855 41.6309 49.9098 41.3957C49.7217 43.1832 50.8977 44.8767 52.6382 45.3471C55.8369 46.0997 59.9294 47.652 61.1995 50.1452C61.764 51.133 61.764 52.309 61.1995 53.2969C60.3998 54.6611 58.5182 55.4137 56.1662 55.4137H50.4273C48.5927 55.4137 47.0874 56.919 47.0874 58.7536H67.5029C70.3724 58.7536 72.5833 57.9539 73.9945 56.3545C75.0764 54.9903 75.5468 53.2969 75.4057 51.6034Z" fill="#A1A1A1"/>
<path d="M24.1787 42.3362V58.8944C26.0603 58.8944 27.5656 57.3891 27.5656 55.5075V38.9493C25.731 38.9023 24.1787 40.4076 24.1787 42.3362C24.1787 42.2892 24.1787 42.2892 24.1787 42.3362Z" fill="#A1A1A1"/>
<path d="M18.3926 76.5347H21.262C21.3561 76.5347 21.4032 76.5817 21.4032 76.6758V77.8988C21.4032 77.9929 21.3561 78.04 21.262 78.04H18.5337C18.4396 78.04 18.3926 77.9929 18.3926 77.8988V76.5347Z" fill="#A1A1A1"/>
<path d="M33.5868 57.7658C34.7628 58.4714 36.127 58.8477 37.4912 58.8477C39.0435 58.8477 40.5958 58.3773 41.8659 57.4835C41.7718 58.3773 41.3485 59.2711 40.6899 59.8826C39.7021 60.8234 38.1497 61.2468 36.0799 61.2938C33.822 61.2938 33.6338 64.5396 33.6338 64.5396H33.869C34.6217 64.5866 35.2803 64.6337 35.9859 64.6337C39.0435 64.6337 41.4425 63.834 43.0419 62.2817C44.5002 60.9175 45.2999 58.9888 45.2528 57.0131V51.039C45.2528 46.7583 41.7718 43.2773 37.4912 43.2773C33.2105 43.2773 29.7295 46.7583 29.7295 51.039C29.7295 53.8144 31.2348 56.3546 33.5868 57.7658ZM37.4441 55.4138C35.0451 55.4138 33.0694 53.4381 33.0694 51.039C33.0694 48.6399 35.0451 46.6642 37.4441 46.6642C39.8432 46.6642 41.8189 48.6399 41.8189 51.039C41.8659 53.4381 39.9373 55.3667 37.5852 55.4138C37.5382 55.4138 37.4912 55.4138 37.4441 55.4138Z" fill="#A1A1A1"/>
<path d="M15.5233 44.5471C11.2426 44.5471 7.80864 48.0281 7.7616 52.3088C7.7616 53.3907 7.9968 54.4256 8.42016 55.4134H7.43232C5.5507 55.4134 4.04541 56.9187 4.04541 58.8004H18.4868C20.3684 58.8004 21.8737 57.2951 21.8737 55.4134H12.4656C11.6189 54.6138 11.1485 53.4848 11.1485 52.3088C11.1485 49.9097 13.1242 47.934 15.5233 47.934C16.0407 47.934 16.5581 48.0281 17.0756 48.2163C17.1697 48.2633 17.3108 48.3104 17.4049 48.3574C20.4155 49.6275 22.156 48.5456 22.25 48.4515L21.9208 47.9811C20.5095 45.8172 18.1105 44.5001 15.5233 44.5471Z" fill="#A1A1A1"/>
<path d="M16.1348 81.568C16.8404 81.568 17.4519 80.9565 17.4519 80.2509V67.0796C16.7463 67.0796 16.1348 67.6911 16.1348 68.3967V81.568Z" fill="#A1A1A1"/>
<path d="M57.6716 77.946C57.6716 79.2161 56.8719 80.4862 55.3666 80.4862C54.4258 80.4862 53.0616 79.8276 53.0616 77.946V71.7837C52.356 71.7837 51.7445 72.3952 51.7445 73.1008V77.946C51.7445 78.9809 51.1329 80.4862 49.4395 80.4862C47.6049 80.4862 47.1345 78.8397 47.1345 77.946V71.7837C46.4289 71.7837 45.8174 72.3952 45.8174 73.1008V77.993C45.8174 79.8746 46.9464 81.8033 49.4395 81.8033C50.6625 81.8033 51.7915 81.1918 52.403 80.1098C53.0146 81.1918 54.1906 81.8503 55.4136 81.8033C58.0008 81.8033 58.9416 79.8276 58.9416 77.993V71.7837C58.236 71.7837 57.6716 72.3482 57.6716 73.0538V77.946Z" fill="#A1A1A1"/>
<path d="M8.74944 71.6896C5.97406 71.8778 3.90428 74.2768 4.09244 77.0052C4.2806 79.7806 6.67966 81.8503 9.408 81.6622C10.7251 81.5681 11.9011 81.0036 12.7949 80.0158V80.251C12.7949 80.9566 13.3594 81.5211 14.065 81.5211V76.6759C14.112 73.9476 11.9482 71.6896 9.21984 71.6426C9.03168 71.6426 8.89056 71.6426 8.74944 71.6896ZM12.842 76.7229C12.842 78.7927 11.1955 80.4391 9.12576 80.4391C7.05598 80.4391 5.40957 78.7927 5.40957 76.7229C5.40957 74.6532 7.05598 73.0067 9.12576 73.0067C11.1485 73.0067 12.7949 74.6532 12.842 76.7229C12.7949 76.6759 12.7949 76.6759 12.842 76.7229Z" fill="#A1A1A1"/>
<path d="M38.7143 71.6896C35.9389 71.8778 33.8691 74.2768 34.0573 77.0052C34.2454 79.7806 36.6445 81.8503 39.3728 81.6622C40.69 81.5681 41.866 81.0036 42.7598 80.0158V80.251C42.7598 80.9566 43.3242 81.5211 44.0298 81.5211V76.6759C44.0769 73.9476 41.866 71.6896 39.1376 71.6426C38.9965 71.6426 38.8554 71.6426 38.7143 71.6896ZM42.8068 76.7229C42.8068 78.7927 41.1604 80.4391 39.0906 80.4391C37.0208 80.4391 35.3744 78.7927 35.3744 76.7229C35.3744 74.6532 37.0208 73.0067 39.0906 73.0067C41.1133 73.0067 42.8068 74.6532 42.8068 76.6759C42.8068 76.6759 42.8068 76.6759 42.8068 76.7229Z" fill="#A1A1A1"/>
<path d="M64.8686 71.6896C62.0932 71.8778 60.0234 74.2768 60.2116 77.0052C60.3997 79.7806 62.7988 81.8503 65.5271 81.6622C66.8443 81.5681 68.0203 81.0036 68.9141 80.0158V80.251C68.9141 80.9566 69.4785 81.5211 70.1841 81.5211V76.6759C70.2312 73.9476 68.0673 71.6896 65.339 71.6426C65.1979 71.6426 65.0567 71.6426 64.8686 71.6896ZM68.9611 76.7229C68.9611 78.7927 67.3147 80.4391 65.2449 80.4391C63.1751 80.4391 61.5287 78.7927 61.5287 76.7229C61.5287 74.6532 63.1751 73.0067 65.2449 73.0067C67.2676 73.0067 68.9611 74.6532 68.9611 76.6759C68.9611 76.6759 68.9611 76.6759 68.9611 76.7229Z" fill="#A1A1A1"/>
<path d="M76.2524 71.6896C73.477 71.8778 71.4072 74.2768 71.5954 77.0052C71.7835 79.7806 74.1826 81.8503 76.9109 81.6622C78.2281 81.5681 79.4041 81.0036 80.2978 80.0158V80.251C80.2978 80.9566 80.8623 81.5211 81.5679 81.5211V76.6759C81.615 73.9476 79.4041 71.6896 76.6757 71.6426C76.5346 71.6426 76.3935 71.6426 76.2524 71.6896ZM76.6287 80.4391C74.5589 80.4391 72.9125 78.7927 72.9125 76.7229C72.9125 74.6532 74.5589 73.0067 76.6287 73.0067C78.6985 73.0067 80.3449 74.6532 80.3449 76.7229C80.3449 78.7457 78.6985 80.4391 76.6757 80.4391C76.6757 80.4391 76.6757 80.4391 76.6287 80.4391Z" fill="#A1A1A1"/>
<path d="M31.3758 73.3358C30.435 72.2539 29.0708 71.6894 27.6596 71.6894C24.8842 71.6894 22.6733 73.9944 22.6733 76.7227C22.6733 79.4981 24.9783 81.709 27.7067 81.709C30.435 81.709 32.6929 79.451 32.6929 76.7227V67.1265C31.9873 67.1265 31.4229 67.6909 31.4229 68.3966L31.3758 73.3358ZM31.3758 76.7227C31.3758 78.7925 29.7294 80.4389 27.6596 80.4389C25.5898 80.4389 23.9434 78.7925 23.9434 76.7227C23.9434 74.6529 25.5898 73.0065 27.6596 73.0065C29.6824 73.0065 31.3758 74.6529 31.3758 76.6757C31.3758 76.6757 31.3758 76.6757 31.3758 76.7227Z" fill="#A1A1A1"/>
</svg>
