<svg width="120" height="120" viewBox="0 0 120 120" fill="none" xmlns="http://www.w3.org/2000/svg">
<path d="M98.7374 76.064C97.5614 75.4525 94.8801 74.5117 94.8801 72.7712C94.8801 71.2659 96.1973 70.5133 97.6555 70.5133C98.7374 70.4662 99.7723 70.7955 100.619 71.407C100.995 71.6422 101.231 72.0656 101.278 72.489L101.654 74.1824H102.454V69.3372C101.184 68.7257 99.7723 68.4905 98.3611 68.5376C94.5038 68.5376 90.3643 70.184 90.3643 74.841C90.3643 77.9927 92.2929 79.498 94.9272 80.9092C96.6206 81.803 99.4901 82.6967 99.4901 84.9076C99.4901 86.9774 97.7026 87.73 96.0561 87.73C95.0213 87.73 93.9864 87.4478 93.0926 86.8833C92.5751 86.507 92.5281 86.0836 92.34 85.2839L91.9636 83.3082H90.8817V88.9531C92.5752 89.7057 94.4097 90.0821 96.2443 89.988C100.196 89.988 103.959 87.3067 103.959 82.8378C104.006 79.0746 101.654 77.5693 98.7374 76.064Z" fill="#A1A1A1"/>
<path d="M24.4609 68.632C22.8615 68.585 21.2622 69.0083 19.851 69.808V72.2541C20.1802 72.16 20.5095 72.113 20.8388 72.113C24.7902 72.113 26.1073 77.3815 26.1073 80.5332C26.1073 83.4027 25.4488 87.3541 21.8267 87.3541C20.5566 87.26 19.3335 86.7425 18.3927 85.8488V59.8354H10.3018V60.3059C11.4307 60.3059 12.3715 61.1996 12.3715 62.3286C12.3715 62.3286 12.3715 62.3286 12.3715 62.3756V88.2949C14.9117 89.1416 17.593 89.565 20.2743 89.612C27.6126 89.612 32.2226 85.6136 32.2226 77.946C32.2226 73.289 29.6824 68.679 24.4609 68.632Z" fill="#A1A1A1"/>
<path d="M50.7096 87.2128V76.1113C50.7096 70.9368 48.1695 68.1614 42.9009 68.1614C40.2196 68.0673 37.6324 69.0552 35.6567 70.8898C34.9041 71.5954 34.4337 72.5832 34.3396 73.6181V73.6652C34.3396 74.7941 35.2334 75.6879 36.3623 75.6879C37.4913 75.6879 38.3851 74.7941 38.3851 73.7122C38.3851 73.7122 38.3851 73.7122 38.3851 73.6652V73.5711V72.3951C38.4791 71.3602 38.9496 70.8898 40.596 70.8898C42.6657 70.6546 44.5474 72.1599 44.7826 74.2767C44.8296 74.5119 44.8296 74.7471 44.7826 74.9823V78.8396V85.6605C43.9358 86.272 42.948 86.6013 41.9131 86.6483C40.3137 86.6953 38.9966 85.4252 38.9496 83.8259V83.4495C38.9496 81.662 39.7963 80.0626 43.3713 79.1689V77.2873C36.3623 78.8396 33.0225 80.486 33.0225 84.8608C33.0225 88.1536 35.6097 89.8941 38.5732 89.8941C40.9723 89.8941 43.3243 88.9533 45.1118 87.3539H45.3941V89.3296H52.7324V88.9533H52.3561C51.4152 88.9062 50.7096 88.1536 50.7096 87.2128Z" fill="#A1A1A1"/>
<path d="M87.4948 87.3068V72.395C87.2596 70.4193 85.0017 68.3965 81.3796 68.3025C78.416 68.0673 75.6877 69.8548 74.6998 72.6302C72.7712 77.5694 68.8198 77.1931 68.8198 77.1931V87.2127C68.8198 88.1535 68.0671 88.9061 67.1263 88.9061H66.75V89.2825H77.193V88.9061H76.9578C76.064 88.9061 75.3114 88.2005 75.3114 87.2597V74.5588C75.3114 73.0065 76.5814 71.7835 78.0867 71.7835C79.6391 71.7835 80.8621 73.0065 80.8621 74.5588V87.2127C80.8621 88.1535 80.1095 88.9532 79.1216 88.9532V89.3295H89.6587V88.9532H89.2353C88.2945 88.9532 87.5418 88.2476 87.4948 87.3068Z" fill="#A1A1A1"/>
<path d="M89.0942 63.4575C88.0593 63.4575 87.1655 64.3042 87.1655 65.3391V65.3862C87.1655 65.5273 87.1655 65.7155 87.2126 65.8566V65.9036C87.2596 65.9977 87.2596 66.0918 87.3066 66.1859L89.0942 71.3133L90.8817 66.2329C90.9288 66.0918 90.9758 65.9977 91.0228 65.8566C91.0699 65.7155 91.0699 65.5743 91.0699 65.4332C91.0228 64.3983 90.1761 63.5046 89.0942 63.4575Z" fill="#A1A1A1"/>
<path d="M70.9367 70.8896C70.9367 69.008 69.3844 67.4556 67.5027 67.4556C65.48 67.3615 63.5513 68.3964 62.4694 70.1369C62.2342 70.5132 61.999 70.9366 61.8579 71.36L61.8108 68.8198H53.4377L53.3906 69.7136H55.8367V87.0715C55.8367 88.0123 55.0841 88.7649 54.1433 88.7649H53.7669V89.1412H64.0218V88.7649H63.5984C62.6576 88.7649 61.9049 88.0123 61.9049 87.0715V74.2765C61.8109 72.3949 62.7517 70.6544 64.351 69.6665C63.7865 71.4541 64.7744 73.3357 66.5619 73.9002C68.3024 74.4646 70.137 73.5238 70.7485 71.8304C70.8896 71.5481 70.9367 71.2188 70.9367 70.8896Z" fill="#A1A1A1"/>
<path d="M69.1494 63.4574L69.9491 64.8686C78.6045 61.3406 80.6743 57.5303 80.6743 50.9447V39.3257H72.8186V39.702C73.7594 39.702 74.512 40.4547 74.512 41.3955V50.9917C74.512 56.6836 74.3709 60.8231 69.1494 63.4574Z" fill="#A1A1A1"/>
<path d="M56.1193 56.0722C56.4015 56.2604 56.7308 56.4956 57.2012 56.7778C58.8946 58.0009 60.9174 58.7065 63.0342 58.7065C66.1859 58.9417 68.9613 56.5426 69.1965 53.3909V53.3439V41.3486C69.1965 40.4078 69.9491 39.6551 70.8899 39.6551V39.2788H61.3407V39.6551C62.3286 39.6551 63.1283 40.4548 63.1283 41.4427V51.2741C63.1283 53.7202 61.8111 55.3666 59.5062 55.3666C59.0358 55.3666 58.5183 55.2725 58.0949 55.0844C57.5775 54.8962 57.1071 54.661 56.6367 54.3788C56.8249 53.2498 56.9189 52.0738 56.9189 50.8978V39.3258H48.1224V39.7022C49.5806 39.7022 50.7566 40.8782 50.7566 42.3364V50.9448C50.7566 56.7778 50.5685 60.8703 45.394 63.5046L46.1937 64.9158C52.1679 62.3756 54.9903 59.7414 56.1193 56.0722Z" fill="#A1A1A1"/>
<path d="M84.0141 33.2576V54.9432C84.2023 56.7307 86.225 58.5183 89.5649 58.6124C92.2462 58.8476 94.7393 57.2011 95.586 54.661C97.3265 50.1921 100.902 50.5214 100.902 50.5214V42.4775C100.902 41.6778 101.56 40.9722 102.36 40.9722H102.407H102.783V40.5959H93.4222V40.9722H93.6574C94.4571 40.9722 95.1156 41.6308 95.1156 42.4775V52.9205C95.1627 54.3317 94.0807 55.4607 92.6695 55.5077C91.2583 55.5547 90.1294 54.4728 90.0823 53.0616V33.3046C90.0823 32.4579 90.7879 31.7523 91.6346 31.7523V31.376H82.0854V31.7523H82.4618C83.3085 31.7053 84.0141 32.4109 84.0141 33.2576C84.0611 33.3046 84.0611 33.3046 84.0141 33.2576Z" fill="#A1A1A1"/>
<path d="M97.5146 55.9782C97.5146 57.7657 98.9729 59.224 100.76 59.224C102.548 59.224 104.006 57.7657 104.006 55.9782C104.006 54.1907 102.548 52.7324 100.76 52.7324C98.9729 52.7324 97.5146 54.1907 97.5146 55.9782Z" fill="#A1A1A1"/>
<path d="M64.8688 36.5033C66.6564 36.5033 68.1146 35.045 68.1146 33.2575C68.1146 31.47 66.6564 30.0117 64.8688 30.0117C63.0813 30.0117 61.623 31.47 61.623 33.2575C61.623 35.045 63.0813 36.5033 64.8688 36.5033Z" fill="#A1A1A1"/>
<path d="M53.5788 36.5033C55.3663 36.5033 56.8246 35.045 56.8246 33.2575C56.8246 31.47 55.3663 30.0117 53.5788 30.0117C51.7913 30.0117 50.333 31.47 50.333 33.2575C50.333 35.045 51.7913 36.5033 53.5788 36.5033Z" fill="#A1A1A1"/>
<path d="M13.4534 43.0889C13.1241 43.0889 12.7948 42.9948 12.5126 42.8067C12.2774 42.6656 12.0892 42.4304 11.9951 42.1481L12.6066 41.7718C12.7478 42.1481 13.1241 42.3833 13.5004 42.3363C13.6415 42.3363 13.7827 42.2892 13.9238 42.2422C14.0649 42.1481 14.1119 41.9129 14.0179 41.7718C13.9708 41.7248 13.9708 41.6777 13.9238 41.6777C13.7356 41.5836 13.5004 41.4895 13.3122 41.4425C13.1711 41.3955 13.03 41.3484 12.8889 41.3014C12.7478 41.2543 12.6066 41.1603 12.5126 41.0662C12.3714 40.9721 12.2774 40.878 12.2303 40.7369C12.1833 40.5958 12.1362 40.4547 12.1362 40.3135C12.1362 39.9843 12.2774 39.702 12.5126 39.5139C12.7478 39.2786 13.077 39.1846 13.4063 39.1846C13.6886 39.1846 13.9708 39.2787 14.206 39.4198C14.4412 39.5609 14.6294 39.7961 14.7235 40.0313L14.1119 40.4076C14.0179 40.1254 13.7356 39.8902 13.4063 39.9372C13.2652 39.9372 13.1241 39.9843 13.03 40.0313C12.9359 40.0783 12.8889 40.2195 12.8889 40.3135C12.8889 40.4547 12.9359 40.5487 13.03 40.6428C13.2182 40.7369 13.4063 40.831 13.5945 40.878L13.8767 40.9721C13.9708 40.9721 14.0179 41.0191 14.1119 41.0662C14.206 41.1132 14.2531 41.1603 14.3471 41.2073C14.3942 41.2543 14.4883 41.3014 14.5353 41.3484C14.5823 41.3955 14.6764 41.4895 14.7235 41.5366C14.8175 41.6777 14.8646 41.8659 14.8646 42.054C14.8646 42.3833 14.7235 42.6656 14.4883 42.9008C14.206 42.9948 13.8297 43.0889 13.4534 43.0889Z" fill="#A1A1A1"/>
<path d="M17.1696 39.2314H16.417V42.9947H17.1696V39.2314Z" fill="#A1A1A1"/>
<path d="M21.1683 39.2314H21.9209V42.9947H21.3564L19.757 40.6897V42.9947H19.0044V39.2314H19.5689L21.1683 41.5364V39.2314Z" fill="#A1A1A1"/>
<path d="M25.4958 43.0888C24.9784 43.0888 24.4609 42.9006 24.0846 42.5243C23.332 41.7246 23.332 40.5016 24.1317 39.7489C24.7432 39.1374 25.684 39.0433 26.4366 39.4196C26.7189 39.5608 26.9541 39.796 27.0952 40.0782L26.4837 40.4545C26.3896 40.2664 26.2955 40.1723 26.1074 40.0782C25.6369 39.796 25.0254 39.9371 24.6491 40.3134C24.2257 40.8309 24.2257 41.5835 24.6491 42.1009C25.0254 42.4773 25.6369 42.5243 26.1074 42.3361C26.2955 42.2421 26.3896 42.148 26.4837 41.9598L27.0952 42.3361C26.907 42.6184 26.7189 42.8066 26.4366 42.9947C26.1544 43.1358 25.8251 43.1829 25.4958 43.0888Z" fill="#A1A1A1"/>
<path d="M29.447 42.2891H31.0464V42.9947H28.6943V39.2314H30.9993V39.9371H29.447V40.7367H30.8582V41.4423H29.447V42.2891Z" fill="#A1A1A1"/>
<path d="M12.8419 45.6763H13.5004V49.4395H12.7478V46.476L12.0422 46.6641L11.854 46.0526C11.901 46.0056 12.8419 45.6763 12.8419 45.6763Z" fill="#A1A1A1"/>
<path d="M15.8523 46.8991C15.8523 47.0872 15.8994 47.2754 16.0405 47.3224C16.2757 47.5576 16.6991 47.5576 16.9343 47.3224C17.1695 47.0872 17.1695 46.6639 16.9343 46.4287C16.7931 46.3346 16.652 46.2405 16.5109 46.2405C16.3698 46.2405 16.1816 46.2876 16.0875 46.4287C15.9464 46.5698 15.8523 46.7109 15.8523 46.8991ZM17.828 46.8991C17.828 47.1813 17.734 47.4165 17.5928 47.6517L16.4168 49.4393H15.5701L16.4168 48.2162C16.0405 48.2162 15.7112 48.0751 15.429 47.8399C14.9586 47.3224 14.9586 46.4757 15.429 45.9583C15.9935 45.4879 16.8402 45.4879 17.4047 45.9583C17.6869 46.1935 17.828 46.5698 17.828 46.8991Z" fill="#A1A1A1"/>
<path d="M19.8505 46.8991C19.8505 47.0872 19.8976 47.2754 20.0387 47.3224C20.2739 47.5576 20.6973 47.5576 20.9325 47.3224C21.0736 47.2284 21.1206 47.0402 21.1206 46.8991C21.1206 46.758 21.0736 46.5698 20.9325 46.4757C20.7914 46.3816 20.6502 46.2876 20.5091 46.2876C20.368 46.2876 20.1798 46.3346 20.0857 46.4757C19.9446 46.5698 19.8505 46.758 19.8505 46.8991ZM21.8733 46.8991C21.8733 47.1813 21.7792 47.4165 21.6381 47.6517L20.4621 49.4393H19.6153L20.5091 48.2162C20.1328 48.2162 19.8035 48.0751 19.5213 47.8399C19.0509 47.3224 19.0509 46.4757 19.5213 45.9583C20.0857 45.4879 20.8854 45.4879 21.4499 45.9583C21.7322 46.1935 21.9203 46.5698 21.8733 46.8991Z" fill="#A1A1A1"/>
<path d="M23.1437 49.4393V48.9219L24.4138 47.6048C24.649 47.4166 24.7901 47.1344 24.8372 46.8521C24.8842 46.6169 24.6961 46.3817 24.4138 46.3347C24.3668 46.3347 24.3668 46.3347 24.3197 46.3347C24.0375 46.3347 23.8023 46.5228 23.7082 46.758L23.0967 46.3817C23.1908 46.1465 23.3789 45.9584 23.6141 45.8172C23.8023 45.6761 24.0845 45.582 24.3197 45.582C24.649 45.582 24.9783 45.6761 25.2135 45.9113C25.4957 46.1465 25.6369 46.4758 25.5898 46.8051C25.5428 47.2755 25.3076 47.6518 24.9783 47.9811L24.2256 48.7337H25.6369V49.4393H23.1437Z" fill="#A1A1A1"/>
<path d="M109.698 86.8838C109.698 88.1538 108.663 89.2358 107.393 89.2828H107.346C106.029 89.2828 104.947 88.2479 104.947 86.9308C104.947 85.6137 105.982 84.5317 107.299 84.5317C108.616 84.5317 109.698 85.6137 109.698 86.8838ZM109.463 86.9308C109.51 85.7548 108.569 84.814 107.393 84.7669C106.217 84.7199 105.276 85.6607 105.229 86.8367C105.182 88.0127 106.123 88.9535 107.299 89.0006C108.428 89.0476 109.416 88.1538 109.463 86.9778C109.463 86.9778 109.463 86.9778 109.463 86.9308Z" fill="#A1A1A1"/>
<path d="M108.381 88.1538C108.287 87.9186 108.24 87.6834 108.193 87.4482C108.146 87.26 108.052 87.0719 107.91 86.9308C108.193 86.7896 108.334 86.5074 108.287 86.2251C108.287 85.9899 108.193 85.8018 108.052 85.6607C107.816 85.4725 107.534 85.3784 107.205 85.3784C106.97 85.3784 106.781 85.3784 106.546 85.4255H106.452V88.2008H106.97V87.0248H107.205C107.44 87.0248 107.581 87.1189 107.628 87.4482C107.675 87.6834 107.722 87.8716 107.816 88.1068L107.863 88.1538H108.381ZM107.769 86.2722C107.769 86.5544 107.581 86.6485 107.299 86.6485H107.017V85.8488H107.252C107.628 85.8959 107.816 86.037 107.769 86.2722Z" fill="#A1A1A1"/>
</svg>
