<svg width="120" height="120" viewBox="0 0 120 120" fill="none" xmlns="http://www.w3.org/2000/svg">
<path d="M72.3952 40.4076C69.1024 41.3484 66.0918 42.1481 63.1282 43.0889C62.4226 43.3712 61.7641 43.8416 61.2466 44.4061C59.5532 46.1936 58.0008 48.0282 56.3544 49.8157C56.0251 50.145 55.3666 50.2391 54.8962 50.4272C54.8021 50.2861 54.708 50.192 54.6139 50.0509C55.9311 47.9811 57.2482 45.9114 58.6124 43.7945C57.013 42.9478 55.7429 42.9949 54.4728 44.359C51.9797 47.0874 49.1572 49.3924 45.2999 49.8157C43.7946 50.0509 42.2423 50.0509 40.737 49.9098C38.0557 49.5335 36.5504 47.6048 36.3152 44.8294C36.08 41.6307 37.3971 38.9023 39.3728 36.6444C41.6778 33.9631 44.3121 31.6111 46.8523 29.118C47.3227 28.7887 47.8401 28.5064 48.3576 28.2712C48.4987 28.3653 48.5928 28.5064 48.7339 28.6005C48.1694 29.3061 47.6519 30.0117 47.0875 30.7173C45.8644 32.1756 44.265 33.3045 43.7946 35.4214C42.7127 40.1724 45.6763 43.5123 50.4744 42.6185C51.18 42.4774 51.8385 42.3833 52.7793 42.2422C52.4971 41.1132 52.3089 40.0313 51.9326 38.9494C51.4152 37.3971 51.6033 36.174 52.8734 34.998C54.661 33.3516 56.3074 31.5641 58.236 29.5884C58.6124 30.4351 58.8476 30.9996 59.1298 31.517C59.6943 32.5049 60.1647 33.5868 60.9173 34.3865C63.0812 36.5974 64.4454 36.5033 66.5622 34.2454C69.1964 31.4229 71.7837 28.5535 75.2646 26.7189C76.0643 26.2955 76.9111 25.9192 77.8048 25.637C79.9687 24.9314 81.8033 26.1544 81.5681 28.4123C81.3799 29.8706 80.8154 31.2818 79.9687 32.5049C79.4042 33.3986 79.3572 33.9631 79.8276 34.8098C81.2388 37.303 83.0733 38.3849 85.7076 38.0556C85.2372 37.0207 84.8609 36.0329 84.3434 35.1391C83.6378 33.9161 83.7319 32.8812 84.7668 31.8933C86.178 30.5292 87.4951 29.118 88.9534 27.7538C90.1294 26.6248 90.835 26.7189 91.5877 28.2242C92.1051 29.3061 92.4814 30.4351 92.9989 31.47C93.8456 33.1164 93.3752 34.6217 92.2462 35.7977C89.706 38.479 87.1659 41.1603 84.3905 43.6064C82.4618 45.3469 79.9216 45.7702 77.3344 45.488C74.9824 45.2528 73.7594 43.6534 72.8656 41.6777C72.7245 41.2544 72.5363 40.7369 72.3952 40.4076ZM66.7974 36.3151C69.1964 35.7977 71.2192 35.3743 73.1949 34.9039C73.5712 34.8098 74.0886 34.4806 74.0886 34.1983C74.0416 33.7749 73.8064 33.3986 73.4771 33.1634C73.0537 32.8812 72.5833 32.7401 72.1129 32.7401C69.902 32.9282 68.1616 34.0101 66.7974 36.3151Z" fill="#A1A1A1"/>
<path d="M30.1061 100.996C25.1198 100.996 23.4734 99.4904 22.5326 95.539C21.4506 91.0702 23.1441 87.1659 24.7435 83.3086C26.0135 80.2509 27.707 77.4285 29.2123 74.465C29.8709 73.1949 30.5765 72.9597 31.8936 73.7594C35.7039 76.1114 36.1743 75.8762 34.2456 80.8154C33.7282 82.1796 33.1637 83.5437 32.5992 84.9079C31.8936 86.5543 31.5173 86.6014 30.1531 85.5665C29.4475 85.049 28.836 83.4026 27.6129 84.955C26.531 86.3191 26.578 88.5771 27.9892 89.4708C29.0241 90.0824 30.2472 90.4116 31.4702 90.4116C34.8571 90.2235 37.8677 88.7652 40.549 86.7425C40.8783 86.4603 41.3017 85.8958 41.2546 85.5665C40.8313 83.3085 42.1014 81.6151 42.901 79.7335C43.2774 78.8868 43.5596 77.993 43.983 77.1933C44.2182 76.7229 44.8297 75.9702 45.0649 76.0643C45.5823 76.2054 46.335 76.7699 46.382 77.2403C46.6643 79.0279 47.1347 81.0036 46.7113 82.65C45.6764 86.4132 44.5004 90.1764 42.7599 93.6104C40.0316 98.973 34.7631 100.478 30.1061 100.996Z" fill="#A1A1A1"/>
<path d="M62.752 84.1553C61.9994 87.2129 61.4349 90.0353 60.5882 92.7637C60.3059 93.7515 59.5062 94.6453 58.7536 95.3979C54.4729 99.6316 50.1452 103.865 45.7234 108.005C44.5004 109.087 43.1362 109.933 41.6309 110.545C40.2667 111.156 39.373 110.31 39.7022 108.804C40.2667 106.311 40.643 103.724 41.6779 101.419C42.3835 99.8197 43.9829 98.5967 45.3 97.3266C50.0982 92.6225 54.9433 87.9185 59.7885 83.2615C60.2118 82.8381 61.0586 82.4618 61.529 82.6029C61.9994 82.8381 62.3757 83.6378 62.752 84.1553Z" fill="#A1A1A1"/>
<path d="M78.9806 83.685C78.4162 89.1888 77.4283 94.0339 73.1476 97.609C69.3844 100.761 66.0445 104.477 62.3754 107.77C61.0583 108.899 59.6 109.839 58.0006 110.498C56.5424 111.157 55.7897 110.263 56.119 108.663C56.5894 106.594 56.9187 104.477 57.5773 102.501C58.0477 101.231 58.7533 100.055 59.6941 99.1143C65.1508 93.7517 70.6545 88.4361 76.2053 83.1676C76.6757 82.7442 77.3342 82.509 77.9928 82.6031C78.5102 82.7442 78.8395 83.4969 78.9806 83.685Z" fill="#A1A1A1"/>
<path d="M82.3207 97.1852C80.7683 97.1382 79.8746 95.821 80.6272 94.3628C81.7091 92.246 83.0733 90.3173 84.5786 88.4827C85.3783 87.5419 86.6954 87.0245 87.8714 86.46C88.8122 85.9896 88.9063 85.5192 88.3418 84.7195C87.401 83.5435 86.5543 82.2734 85.8487 80.9092C85.5194 80.1566 85.4724 79.2628 85.8017 78.5102C86.7425 76.7226 87.8244 75.0292 89.0004 73.3828C89.753 72.2068 90.5998 72.6301 91.2113 73.4769C92.6696 75.4055 94.0808 77.4283 95.492 79.404C98.5966 83.7787 98.3614 83.6846 95.9153 88.4357C93.6574 92.7634 89.8001 94.5039 85.6605 96.0562C84.4845 96.4796 83.2615 96.8559 82.3207 97.1852Z" fill="#A1A1A1"/>
<path d="M85.9426 59.3649C84.6725 59.8353 83.4495 60.588 82.1794 60.7762C72.7713 62.1403 63.4103 63.3634 54.0022 64.6335C48.6396 65.3391 43.277 65.9976 37.8674 66.6562C37.8203 66.468 37.7262 66.3269 37.6792 66.1388C38.9963 65.6684 40.2194 64.9157 41.5836 64.7275C52.1676 63.2223 62.7517 61.811 73.2888 60.3998C77.4283 59.8353 81.5679 59.3179 85.6604 58.7534C85.8015 58.9416 85.8956 59.1297 85.9426 59.3649Z" fill="#A1A1A1"/>
<path d="M61.4818 69.0083C61.8111 69.1965 62.1404 69.3846 62.4697 69.6198C63.4575 70.5606 64.3983 71.5485 65.3391 72.4893C66.4681 73.6183 66.374 74.7943 65.2921 75.8762C64.3513 76.864 63.3634 77.8048 62.4226 78.7457C61.7641 79.4042 61.1055 79.4513 60.4469 78.7927C59.4121 77.7578 58.3301 76.77 57.3423 75.688C56.4485 74.7002 56.3544 73.6653 57.3423 72.6775C58.3301 71.6896 59.318 70.6547 60.3058 69.6669C60.6821 69.3846 61.1055 69.2435 61.4818 69.0083Z" fill="#A1A1A1"/>
<path d="M80.7212 22.2031C80.8623 21.7327 81.1446 21.3094 81.4268 20.933C82.4146 19.8511 83.4966 18.8633 84.5315 17.7813C85.19 17.0757 85.8486 17.0757 86.5072 17.7343C87.495 18.7221 88.5299 19.71 89.4707 20.7449C90.5056 21.9209 90.4115 23.0969 89.3296 24.1788C88.4828 25.1196 87.5891 25.9664 86.6483 26.8131C86.2249 27.1424 85.19 27.4246 84.9548 27.1894C83.5436 25.9193 82.2735 24.5081 81.0034 23.1439C80.8153 23.0028 80.8153 22.6735 80.7212 22.2031Z" fill="#A1A1A1"/>
<path d="M60.0706 59.6471C60.6351 59.3178 61.2466 58.9415 61.8111 58.6122C62.3756 58.2829 63.0341 57.9066 63.6456 57.5303C62.4696 56.6365 61.8581 56.6365 59.2709 57.3421C59.2239 55.4605 60.3999 54.1904 62.1874 54.1904C62.7519 54.1904 63.2693 54.1904 63.8338 54.2375C65.8095 54.3316 66.374 55.2253 65.3861 56.9658C64.2572 58.9885 62.4226 59.8823 60.0706 59.6471Z" fill="#A1A1A1"/>
<path d="M83.2144 15.8524C84.2022 15.0056 85.0019 14.3 85.8957 13.5474C85.7545 13.1711 85.4253 12.7947 85.4723 12.4184C85.5193 11.4776 85.7545 10.5838 86.0838 9.73712C86.2249 9.40783 87.0717 9.17263 87.448 9.31375C87.8243 9.45487 88.0595 10.1134 88.0595 10.5838C88.2477 13.124 86.1779 15.3349 83.2144 15.8524Z" fill="#A1A1A1"/>
</svg>
