<svg width="120" height="120" viewBox="0 0 120 120" fill="none" xmlns="http://www.w3.org/2000/svg">
<path d="M26.5308 57.9536C26.5778 57.9536 26.5778 57.9536 26.5778 58.0007L26.5308 57.9536Z" fill="#A1A1A1"/>
<path d="M96.2917 57.9538C96.2917 57.9538 94.8334 58.0009 93.14 58.0009V51.6975C93.093 50.4274 93.0459 48.6398 92.9989 45.4881C93.2341 43.8417 93.6574 42.2424 94.269 40.7371C94.9746 39.0907 95.2568 38.338 95.1157 37.0209C95.1627 35.8919 94.8334 33.8692 92.7637 33.3047H95.7272C96.0095 33.681 95.9624 35.5156 95.8683 36.033C95.7743 36.4564 95.7743 36.8798 95.8213 37.3031C95.8213 39.0436 95.7272 40.5959 95.7272 42.3364C95.6802 43.3713 95.7743 44.4062 95.9154 45.3941C96.1035 46.2878 95.8213 47.8872 95.9624 48.781C96.2447 49.9099 96.3387 56.6367 96.2917 57.9538Z" fill="#A1A1A1"/>
<path d="M89.3768 45.1118C89.7061 46.476 89.565 48.1694 89.4709 49.3455C89.1416 52.262 89.0005 54.8021 88.9064 57.6246C88.9064 57.7657 88.7183 57.8598 88.4831 57.9068C87.9186 57.9538 85.9429 58.189 85.9429 58.189C85.8958 56.8719 85.7077 53.0146 85.6606 51.9797C85.6136 50.9448 85.5195 48.4046 85.3313 45.6763C85.3313 45.0177 86.131 44.5944 86.2251 44.4062C86.9778 43.4184 86.8837 42.0072 86.8837 41.4427C86.8837 40.8782 86.8837 34.3396 86.3192 34.3396C85.7547 34.3396 86.2251 42.0072 85.3784 42.0072C84.5317 42.0072 85.1902 34.6218 84.6257 34.6218C84.0613 34.6218 84.4376 41.9601 83.8261 42.0072C83.2145 42.0542 83.4497 39.9844 83.4497 38.9495C83.4497 37.115 83.5438 34.6689 83.4968 34.1044C83.4497 33.5399 83.8261 33.3047 84.2965 33.3047L89.7061 33.3517C89.9413 35.7508 89.2827 37.6794 89.612 40.0785C89.8002 41.866 88.9535 43.2772 89.3768 45.1118Z" fill="#A1A1A1"/>
<path d="M54.7548 50.2391C54.8489 52.6381 54.7078 55.3194 54.6607 58.1418H49.9567C50.0508 56.6836 49.9097 52.5911 49.8156 51.8855C49.8626 50.7095 49.4863 48.1222 49.5333 44.7824C49.5333 44.1238 49.3922 43.9357 50.3801 43.3712C52.7791 42.8067 54.6607 40.784 54.4255 38.2438C54.3315 36.0799 53.0614 34.0101 51.1327 33.2104H53.861C54.4255 33.2575 54.6137 33.4457 54.6607 34.0572C54.7078 34.998 54.5667 35.5154 54.7078 36.4092C55.0371 39.4198 54.3315 42.5244 54.6607 45.535C54.8489 47.1814 54.7078 48.5927 54.7548 50.2391Z" fill="#A1A1A1"/>
<path d="M62.6578 35.2804C62.7048 34.6219 62.7048 34.3867 62.7048 34.1044C62.7048 33.9163 62.5637 33.9163 62.4226 33.8222C62.2815 33.7281 61.5759 33.587 61.3407 33.5399C61.1055 33.4929 60.8232 33.4458 60.588 33.4458C59.8824 33.4458 59.1298 33.2106 58.3771 33.2577C58.3301 33.2577 58.3301 33.2577 58.3301 33.3047C58.1419 33.4458 58.0008 33.634 58.0008 33.8692C57.9067 34.4807 58.0949 35.0452 58.0008 36.2212C57.9067 37.3972 58.0008 40.5489 58.0008 41.3016C57.9538 47.0405 58.283 47.1346 58.1419 51.6034C58.0949 52.8265 58.1419 54.0966 58.283 55.3196C58.4242 56.0723 58.4712 56.872 58.4242 57.6246C58.3771 57.8598 58.5182 58.095 58.7534 58.142H58.8005C60.0235 58.1891 62.5637 58.0009 62.5637 58.0009C62.7048 57.3894 62.7519 56.7308 62.7048 56.0723C62.6578 55.5078 62.7989 54.614 62.7989 54.0966C62.7989 53.485 62.846 52.8735 62.7989 52.262C62.7048 50.6156 62.7048 48.9692 62.7519 47.3228C62.893 43.1832 62.5167 40.7371 62.6578 36.6446V35.2804Z" fill="#A1A1A1"/>
<path d="M80.2039 57.5775C80.1568 57.8597 79.9687 58.0479 79.6864 58.142H78.9808C79.263 58.0009 79.4042 57.7186 79.4983 57.1071C79.5453 56.3074 79.5453 55.5548 79.4042 54.7551C79.3101 54.0024 78.9338 51.2741 78.7456 50.1451C78.4634 49.2984 77.5696 47.8401 76.817 47.652C76.0643 47.4638 75.8291 47.2286 75.8291 46.3819C75.9232 45.9585 76.6288 34.2455 76.5347 33.2106C77.3344 33.1635 78.1341 33.1635 78.9338 33.2106C79.3571 33.2106 79.5923 33.4458 79.5453 33.728C79.4983 34.4807 79.5923 35.2803 79.7805 36.033C80.0627 37.256 80.1098 38.5261 80.0157 39.7492C79.7805 44.171 80.2979 44.2651 80.2039 50.051C80.2039 50.8037 80.345 53.9554 80.1568 55.1314C80.0627 56.3544 80.345 56.9189 80.2039 57.5775Z" fill="#A1A1A1"/>
<path d="M26.5308 57.9536C26.5778 57.9536 26.5778 57.9536 26.5778 58.0007L26.5308 57.9536Z" fill="#A1A1A1"/>
<path d="M31.6113 55.1784C31.4702 56.3544 31.7524 56.9189 31.6113 57.5304C31.5642 57.8126 31.329 58.0478 31.0468 58.0949H30.9527C29.7297 58.189 28.5066 57.9067 27.2836 57.9067H27.2365C27.2836 56.0721 27.1895 52.1678 27.1895 51.5092C27.2365 50.5684 26.8602 48.2634 26.9543 45.2999V44.9236C27.0484 44.7354 27.1424 44.5943 27.2836 44.4532C28.1303 43.6064 29.1181 43.136 29.5415 42.2423C29.7767 41.7719 29.8708 41.2074 29.9178 40.6899C30.0119 39.0906 29.5885 37.4912 28.7418 36.127C28.3185 35.4214 27.7069 34.8099 26.9543 34.4336C26.5309 34.3395 26.1076 34.3395 25.6842 34.5276C24.8375 34.7628 24.1319 35.3744 23.8026 36.1741C23.7555 36.2211 23.7555 36.2681 23.7085 36.3152C23.7555 35.9389 23.8026 35.5625 23.7555 35.1862C23.6615 34.5276 23.7555 33.8691 23.9907 33.2576C23.9907 33.2576 29.6826 33.0694 31.7054 33.1164C31.7054 33.1164 31.7524 44.1709 31.6583 49.9569C31.6113 50.8977 31.7524 54.0964 31.6113 55.1784Z" fill="#A1A1A1"/>
<path d="M46.429 53.532C46.476 54.7551 46.429 57.8597 46.429 58.189C46.429 58.189 44.5003 58.189 42.901 58.142C43.6536 57.6716 44.3122 57.06 44.7355 56.2604C45.7704 52.9205 43.7477 48.5457 43.4184 47.5108C43.0421 46.3348 42.8539 45.8174 42.4306 44.7825C42.1954 44.0299 41.9602 43.3243 41.772 42.9009C41.6309 42.6186 41.5368 42.2894 41.4897 41.9601C41.5838 40.5018 41.9131 38.6202 41.9131 38.1498C42.0072 37.209 42.1483 34.857 42.1483 33.6339C42.2424 33.6339 42.2894 33.5869 42.3835 33.5399C43.8888 32.9283 46.3349 33.5399 46.3349 33.5399C46.3349 33.5399 46.3819 33.6339 46.3819 33.681C46.476 34.2455 46.5231 34.8099 46.5231 35.3744V36.2682C46.5231 37.256 46.476 37.1149 46.5231 38.7613V40.737C46.5231 41.3015 46.476 41.913 46.429 42.5716C46.3819 43.3243 46.3819 44.171 46.3819 45.1118C46.3819 46.8993 46.5231 48.0753 46.5701 49.2513C46.429 50.6625 46.3819 52.1208 46.429 53.532Z" fill="#A1A1A1"/>
<path d="M42.3834 56.5427C42.1952 56.8249 41.4896 57.5776 41.4896 57.1072C41.4896 56.6368 41.2544 44.8296 41.2544 44.4533C41.2544 44.3122 41.3955 44.2181 41.4426 44.4533C41.5837 45.1589 41.7248 46.0997 41.8659 46.7113C41.96 47.4169 42.1011 48.1225 42.1952 48.6399C42.3363 49.4396 42.4304 50.0982 42.5715 50.7567C42.6186 50.9919 42.6656 51.4153 42.7126 51.6975C42.8538 52.4031 42.9008 53.0617 42.9479 53.7673C42.9479 54.614 42.8538 55.79 42.3834 56.5427Z" fill="#A1A1A1"/>
<path d="M42.6654 57.5775C42.5713 57.6246 42.4302 57.7187 42.3831 57.6246C42.3361 57.5305 42.2891 57.5305 42.3361 57.4835C43.1358 57.0131 43.5592 55.79 43.6062 55.3196C43.6532 54.7551 43.6532 54.1906 43.5592 53.6262C43.4651 52.9676 43.371 52.2149 43.2769 51.4153C43.1828 50.8978 42.9476 50.3333 42.8535 49.8159C42.7124 49.2044 42.5713 48.6399 42.4302 47.7931C42.3361 47.3698 42.2891 46.9935 42.2891 46.5701C42.2891 46.476 42.4772 46.476 42.5243 46.6642C42.6183 46.9464 42.7124 47.2757 42.8065 47.5579C43.0887 48.734 43.418 49.8629 43.8414 50.9919C44.0766 51.7445 44.2648 52.4972 44.4059 53.2498C44.6411 54.2847 44.4529 55.3666 43.9355 56.3075C43.6062 56.8249 43.1358 57.2483 42.6654 57.5775Z" fill="#A1A1A1"/>
<path d="M37.9616 43.8416C37.9146 44.7824 38.1027 45.7703 38.0557 46.664V46.8992C37.9616 47.6519 37.9616 48.4516 37.9616 49.2042C37.9616 50.1921 38.0557 51.1799 38.0557 52.1678V57.2952C38.0557 57.4833 38.0557 57.6244 38.0087 57.8126C37.9146 58.0478 37.7735 58.1419 37.6323 58.1419L34.8099 58.0948C34.6688 55.6958 34.9981 53.7671 34.8569 51.3681C34.7158 49.5805 35.1862 48.1223 34.951 46.3348C34.8569 44.9235 34.8099 43.5123 34.904 42.1011C35.0921 39.1846 35.1392 36.6444 35.1862 33.822C35.1862 33.6809 35.2803 33.5868 35.4214 33.5398C35.9389 33.4457 37.1619 33.0694 37.6323 33.2575C38.0087 33.4457 38.1968 33.9631 38.1498 34.7158C38.1027 35.7977 38.1498 37.4441 38.1027 38.526C38.1027 40.4077 38.0557 42.007 37.9616 43.8416Z" fill="#A1A1A1"/>
<path d="M72.6775 53.5318C72.7245 54.7548 72.6775 57.8595 72.7245 58.1888H72.5834C71.9248 58.1888 69.3846 58.1888 66.7974 58.1418C66.6093 57.6243 66.3741 57.1069 66.1389 56.5894C65.6214 55.6957 65.9037 55.1782 66.4681 54.8019C66.7504 54.5667 67.0797 54.4726 67.456 54.5196C68.1145 54.4726 68.2557 54.2374 68.2557 53.9552V53.2966C68.2557 52.2147 68.3027 51.0387 68.3027 50.8975C68.2557 47.4165 68.2557 42.6655 68.2557 42.6655C68.2557 41.2072 68.3027 39.6549 68.3027 37.8673C68.2557 36.7854 67.5501 36.7854 67.3149 36.7854C66.4681 36.7384 65.5744 35.9387 66.2329 34.6686C66.4681 34.2452 66.6563 33.8219 66.8445 33.3515C68.7261 33.2104 70.6077 33.2574 72.4423 33.5396C72.6775 34.1041 72.7715 34.7627 72.7245 35.3742C72.6775 37.444 72.6304 36.6913 72.6775 38.7611C72.7245 40.6898 72.3952 42.3832 72.3952 45.1116C72.3952 46.8991 72.6775 48.0751 72.7245 49.2511C72.7715 50.333 72.6304 51.2739 72.6304 52.8262C72.6304 53.0614 72.6775 53.2966 72.6775 53.5318Z" fill="#A1A1A1"/>
<path d="M6.30329 75.2175L5.64473 74.606L5.0332 75.2175L5.64473 75.876L6.30329 75.2175Z" fill="#A1A1A1"/>
<path d="M4.13952 74.606L3.48096 75.2175L4.13952 75.876L4.79809 75.2175L4.13952 74.606Z" fill="#A1A1A1"/>
<path d="M40.8312 71.6895C41.0664 71.6895 41.3016 71.6425 41.5368 71.5954C41.772 71.5484 41.9602 71.4543 42.1484 71.3132C42.3365 71.1721 42.4776 71.0309 42.6188 70.8428C42.7599 70.6076 42.8069 70.3724 42.8069 70.1372L42.854 65.0098L42.0543 65.1509L42.1013 70.2313C42.1013 70.3253 42.0543 70.4194 42.0072 70.4665C41.9132 70.5135 41.8191 70.6076 41.725 70.6546C41.6309 70.7017 41.4898 70.7487 41.3487 70.7487C41.2076 70.7487 41.0664 70.7957 40.9253 70.7957H39.2789C38.9967 70.8428 38.7615 70.7487 38.5262 70.6076C38.6674 70.3253 38.7615 70.0431 38.7615 69.7138C38.7615 69.4316 38.7144 69.1493 38.6203 68.9141C38.5262 68.6789 38.3851 68.4437 38.244 68.2556C37.9618 67.8322 37.4914 67.597 36.9739 67.644C36.5506 67.6911 36.1272 67.8792 35.7979 68.1615C35.3275 68.5848 34.9512 69.1023 34.716 69.6668L34.8101 65.0568L34.0104 65.1979L34.1045 70.7957H28.93C29.2593 70.4665 29.4004 70.0431 29.4004 69.5727C29.4004 69.3375 29.3534 69.1023 29.3063 68.8671C29.2123 68.6319 29.1182 68.4437 29.0241 68.2556C28.93 68.0674 28.7889 67.9263 28.6007 67.8322C28.4596 67.7381 28.3185 67.644 28.1303 67.644C27.8951 67.644 27.6599 67.7381 27.4718 67.9263C27.2366 68.1144 27.0484 68.3496 26.8602 68.6319C26.625 68.9141 26.4839 69.2434 26.3898 69.6197C26.2487 69.996 26.1546 70.3724 26.1076 70.7957H8.70265C8.37337 70.7957 8.09113 70.7487 7.80888 70.6076C7.52664 70.4194 7.29144 70.1842 7.05624 69.949L6.44471 70.4665C6.82104 70.8898 7.05624 71.1721 7.19736 71.3602C7.29144 71.5013 7.38552 71.6425 7.43256 71.8306C7.43256 71.9717 7.38552 72.1129 7.2444 72.2069C7.10328 72.3481 6.91512 72.4421 6.72696 72.5362C6.49175 72.6303 6.25655 72.7244 6.02135 72.7714C5.73911 72.8185 5.50391 72.8655 5.22166 72.8655C4.75126 72.9125 4.23382 72.7244 3.85749 72.4421C3.52821 72.1599 3.34005 71.7365 3.34005 71.2661C3.34005 70.7017 3.52821 70.0901 3.85749 69.6197L3.34005 69.2904C3.10485 69.6197 2.91669 69.996 2.77556 70.3724C2.63444 70.7487 2.5874 71.125 2.5874 71.5013C2.5874 71.8306 2.63444 72.1599 2.77556 72.4892C2.86964 72.7714 3.05781 73.0066 3.29301 73.1948C3.52821 73.383 3.81045 73.5711 4.09269 73.6652C4.42198 73.7593 4.7983 73.8534 5.12758 73.8534C5.50391 73.8534 5.88023 73.8063 6.20951 73.6652C6.53879 73.5711 6.86808 73.43 7.19736 73.2418C7.4796 73.0537 7.7148 72.8655 7.90296 72.6303C8.04409 72.4421 8.18521 72.2069 8.18521 71.9717C8.18521 71.8777 8.18521 71.7365 8.13817 71.6425C8.27929 71.6895 8.37337 71.7365 8.51449 71.7365C8.65561 71.7365 8.74969 71.7836 8.89081 71.7836H26.1546C26.2017 72.1129 26.2487 72.3951 26.3898 72.6773C26.4839 72.9126 26.625 73.1948 26.8132 73.383C27.0014 73.5711 27.1895 73.7122 27.4247 73.8534C27.6599 73.9474 27.9422 73.9945 28.1774 73.9945C28.3655 73.9945 28.6007 73.9474 28.7889 73.9004C28.9771 73.8063 29.1182 73.7122 29.3063 73.6182C29.4475 73.477 29.5415 73.3359 29.6356 73.1948C29.7297 73.0066 29.7767 72.8185 29.7767 72.6303C29.7767 72.3481 29.6827 72.0658 29.5415 71.8306H35.3745C36.2683 71.8777 37.1621 71.6895 37.9618 71.3132C38.0558 71.4073 38.1499 71.5013 38.291 71.5954C38.6203 71.7365 38.9496 71.8306 39.3259 71.8306H40.1727L40.8312 71.6895ZM26.9073 69.902C27.0014 69.6668 27.0954 69.4316 27.2366 69.1964C27.3306 69.0082 27.4718 68.82 27.6129 68.6789C27.707 68.5378 27.8951 68.4908 28.0362 68.4908C28.1303 68.4908 28.2244 68.5378 28.3185 68.5848C28.4126 68.6319 28.4596 68.726 28.5537 68.82C28.6007 68.9141 28.6478 69.0552 28.6948 69.1493C28.7418 69.2904 28.7418 69.3845 28.7418 69.5256C28.7418 69.8549 28.5537 70.1842 28.2714 70.3253C27.801 70.5605 27.2366 70.6546 26.7191 70.6546C26.7662 70.4664 26.8132 70.1842 26.9073 69.902ZM28.7418 72.8185C28.5537 72.9596 28.3655 73.0066 28.1303 73.0066C27.801 73.0066 27.4718 72.8655 27.2366 72.6303C27.0014 72.3481 26.8132 72.0188 26.7662 71.6425C27.1895 71.5954 27.6129 71.5013 27.9892 71.3602C28.6478 71.5013 28.9771 71.8306 28.9771 72.3481C28.9771 72.5362 28.883 72.7244 28.7418 72.8185ZM35.2334 70.7487H34.6689C34.9512 70.1372 35.3275 69.6197 35.7509 69.1023C36.0331 68.773 36.4565 68.5848 36.8798 68.5378C37.021 68.5378 37.1621 68.5848 37.3032 68.6319C37.4443 68.6789 37.5384 68.773 37.6325 68.8671C37.7266 68.9612 37.8206 69.1023 37.8677 69.2434C37.9147 69.3845 37.9618 69.5256 37.9618 69.6668C37.9618 70.0431 37.7266 70.3724 37.3502 70.4665C36.6446 70.7017 35.939 70.7957 35.2334 70.7487Z" fill="#A1A1A1"/>
<path d="M44.9237 71.6893L44.9707 65.0566L44.124 65.1507L44.2181 71.6893H44.9237Z" fill="#A1A1A1"/>
<path d="M48.6869 73.1951C48.9221 73.3832 49.2043 73.5714 49.5336 73.6655C49.9099 73.7595 50.2863 73.8536 50.6626 73.8536C51.0389 73.8536 51.4152 73.8066 51.7445 73.6655C52.0738 73.5714 52.356 73.3832 52.5912 73.1951C52.8264 73.0069 53.0146 72.7717 53.1557 72.4895C53.2968 72.2072 53.3439 71.925 53.3439 71.5957C53.3439 71.4075 53.3439 71.2194 53.2968 71.0312L53.1557 70.3256C53.1087 70.0904 53.0146 69.8552 52.9205 69.62C52.8264 69.3848 52.7324 69.1496 52.6383 68.9614L51.8856 69.3848C51.9797 69.62 52.0738 69.8552 52.1679 70.0904C52.262 70.3256 52.356 70.5138 52.4031 70.749C52.4501 70.9371 52.4972 71.1253 52.5442 71.3134C52.5912 71.4546 52.5912 71.6427 52.5912 71.7838C52.5912 71.972 52.5442 72.1131 52.4501 72.2543C52.356 72.3954 52.2149 72.5365 52.0268 72.6306C51.8386 72.7247 51.6504 72.8187 51.4152 72.9128C51.18 72.9599 50.8978 73.0069 50.6626 73.0069C50.1922 73.0539 49.6747 72.8658 49.2984 72.5835C48.9691 72.3013 48.781 71.8779 48.781 71.4075C48.781 70.843 48.9691 70.2315 49.2984 69.7611L48.781 69.4318C48.4987 69.7611 48.3106 70.1374 48.2165 70.5138C48.0754 70.8901 48.0283 71.2664 48.0283 71.6427C48.0283 71.972 48.0754 72.3013 48.2165 72.5835C48.3106 72.7717 48.4987 73.0069 48.6869 73.1951Z" fill="#A1A1A1"/>
<path d="M51.1798 67.7382L50.5682 67.0796L49.9097 67.7382L50.5682 68.3497L51.1798 67.7382Z" fill="#A1A1A1"/>
<path d="M77.3345 67.3148L76.723 66.6562L76.0645 67.3148L76.723 67.9734L77.3345 67.3148Z" fill="#A1A1A1"/>
<path d="M75.7819 71.5013C76.0641 71.4072 76.2993 71.2191 76.4405 70.9839C76.7227 71.4543 77.2402 71.6895 78.0398 71.6895H79.2158C79.4981 71.6895 79.7333 71.6424 79.9215 71.6424C80.1096 71.6424 80.3448 71.5954 80.4859 71.5483L80.9093 71.4072C81.1445 71.3131 81.3797 71.0779 81.4738 70.8427C81.6149 70.5135 81.662 70.1842 81.662 69.8078C81.709 68.9611 81.5679 68.1144 81.2386 67.3617C80.9563 66.6561 80.2037 66.3269 79.4981 66.6091C79.451 66.6091 79.404 66.6561 79.404 66.6561C79.2158 66.7502 79.0277 66.8913 78.8866 67.0795C78.7454 67.2677 78.6514 67.4558 78.5573 67.691C78.4632 67.9262 78.4162 68.2085 78.4162 68.4437C78.4162 68.867 78.5573 69.2434 78.7925 69.5726C79.0747 69.8549 79.4511 70.043 79.8744 69.996C80.0626 69.996 80.2507 69.949 80.4389 69.9019C80.6271 69.8549 80.7682 69.7608 80.9093 69.6197V70.3253C80.9093 70.4664 80.6741 70.5605 80.2507 70.6546C79.5922 70.7487 78.8866 70.7957 78.228 70.7487H77.9928C77.1931 70.7487 76.7697 70.5135 76.7697 70.1371C76.7697 69.996 76.7698 69.8078 76.8168 69.6667C76.8638 69.3845 76.8638 69.1493 76.9109 68.867L76.2053 68.773C76.2053 68.867 76.1582 68.9611 76.1582 69.1022C76.1582 69.2434 76.1112 69.3374 76.1112 69.4786C76.1112 69.6197 76.0641 69.7138 76.0641 69.8078C76.0641 69.9019 76.0171 69.996 76.0171 70.0901C75.9701 70.3253 75.8289 70.5135 75.5937 70.6075C75.2645 70.7016 74.9352 70.7487 74.6059 70.7487H57.6243V70.6546C57.6714 69.949 57.5302 69.1963 57.1539 68.5848C56.8717 68.1144 56.4013 67.8792 55.8838 67.8792C55.6486 67.8792 55.4134 67.9262 55.2253 68.0203C55.0371 68.1144 54.8489 68.2555 54.7078 68.4437C54.5667 68.6318 54.4256 68.82 54.3785 69.0552C54.2844 69.2904 54.2374 69.5726 54.2374 69.8549C54.1904 70.3253 54.4256 70.8427 54.8019 71.125C55.2723 71.4543 55.7897 71.5954 56.3542 71.5954H56.7305C56.4013 72.301 55.5545 72.7243 54.2844 72.9125L54.6608 73.7592C55.3193 73.7122 55.9309 73.43 56.4483 73.0536C56.9187 72.6773 57.248 72.2069 57.4832 71.6895H74.5589C74.9352 71.7365 75.3585 71.6895 75.7819 71.5013ZM80.58 69.1963C80.3919 69.2434 80.2507 69.2904 80.0626 69.2904C79.8274 69.2904 79.5922 69.2434 79.404 69.1022C79.2629 68.9611 79.1688 68.773 79.1688 68.5378C79.1688 68.2555 79.2629 68.0203 79.451 67.8321C79.5922 67.644 79.8274 67.5499 80.0626 67.5499C80.3448 67.5499 80.58 67.691 80.6741 67.9262C80.8623 68.3026 80.9563 68.6789 80.9563 69.1022C80.9093 69.0552 80.7682 69.1022 80.58 69.1963ZM56.4953 70.7957C55.4605 70.7957 54.9901 70.5135 54.9901 69.9019C54.9901 69.6197 55.0841 69.3374 55.2253 69.1022C55.3664 68.9141 55.6486 68.773 55.8838 68.82C56.2131 68.82 56.4953 69.0552 56.6365 69.3374C56.8717 69.8078 56.9657 70.3253 56.9187 70.8427L56.4953 70.7957Z" fill="#A1A1A1"/>
<path d="M80.7213 65.057L80.1097 64.3984L79.4512 65.057L80.1097 65.7156L80.7213 65.057Z" fill="#A1A1A1"/>
<path d="M86.4132 65.1039L85.8016 64.4453L85.1431 65.1039L85.8016 65.7624L86.4132 65.1039Z" fill="#A1A1A1"/>
<path d="M87.9656 65.1039L87.307 64.4453L86.6484 65.1039L87.307 65.7624L87.9656 65.1039Z" fill="#A1A1A1"/>
<path d="M106.688 67.6912L106.829 68.0675C107.346 67.8793 107.864 67.7853 108.428 67.7382L108.522 67.2208C108.428 67.2208 108.334 67.2208 108.24 67.2678C108.146 67.2678 108.005 67.3148 107.911 67.3148C107.769 67.3148 107.581 67.2678 107.487 67.1737C107.393 67.1267 107.346 66.9856 107.346 66.8915C107.346 66.7974 107.393 66.7033 107.487 66.6563C107.675 66.5152 107.958 66.5152 108.146 66.6563L108.334 66.374C108.193 66.1859 108.005 66.0918 107.769 66.0918C107.346 66.0918 106.97 66.4681 106.97 66.8915C106.97 67.1267 107.111 67.3619 107.299 67.456C107.205 67.503 107.158 67.503 107.064 67.5501C106.829 67.6441 106.782 67.6441 106.688 67.6912Z" fill="#A1A1A1"/>
<path d="M110.639 73.1947L109.98 72.5361L109.369 73.1947L109.98 73.8533L110.639 73.1947Z" fill="#A1A1A1"/>
<path d="M110.874 73.1947L111.486 73.8533L112.144 73.1947L111.486 72.5361L110.874 73.1947Z" fill="#A1A1A1"/>
<path d="M113.32 71.5953C113.649 71.5483 113.979 71.4542 114.308 71.3131C114.543 71.4072 114.825 71.5013 115.061 71.5953C115.296 71.6424 115.578 71.6894 115.813 71.6894C116.284 71.7365 116.801 71.5483 117.177 71.2661C117.507 70.9838 117.695 70.5134 117.648 70.09C117.648 69.6667 117.601 69.2904 117.46 68.914C117.319 68.5377 117.13 68.2084 116.895 67.8792C116.66 67.5499 116.331 67.2676 116.001 67.0324C115.625 66.7972 115.249 66.562 114.825 66.4209L114.449 67.2206C114.825 67.3617 115.155 67.5499 115.484 67.738C115.766 67.9262 116.048 68.2084 116.284 68.4436C116.472 68.7259 116.66 69.0081 116.801 69.2904C116.942 69.5726 116.989 69.9019 116.989 70.2312C116.989 70.3723 116.895 70.5134 116.66 70.6075C116.378 70.7016 116.096 70.7486 115.813 70.7486H115.343C115.672 70.4193 115.86 69.996 115.86 69.5256C115.86 69.2904 115.813 69.1022 115.766 68.867C115.672 68.6788 115.578 68.4907 115.437 68.3496C115.296 68.2084 115.155 68.0673 114.967 67.9732C114.778 67.8792 114.59 67.8321 114.402 67.8321C114.214 67.8321 114.026 67.8792 113.838 67.9732C113.649 68.0673 113.508 68.2084 113.367 68.3496C113.226 68.4907 113.132 68.6788 113.038 68.867C112.944 69.0552 112.944 69.2904 112.944 69.5256C112.944 69.9489 113.085 70.3723 113.414 70.7016C113.273 70.7016 113.085 70.7486 112.944 70.7486H112.426C111.627 70.7486 111.203 70.5134 111.203 70.1371C111.203 69.996 111.203 69.8078 111.25 69.6667C111.297 69.3844 111.297 69.1492 111.344 68.867L110.639 68.7729C110.639 68.867 110.592 68.9611 110.592 69.1022C110.592 69.2433 110.545 69.3374 110.545 69.4785C110.545 69.6196 110.498 69.7137 110.498 69.8078C110.498 69.9019 110.451 70.043 110.451 70.09C110.404 70.3253 110.262 70.5134 110.027 70.6075C109.698 70.7016 109.369 70.7486 109.039 70.7486C108.24 70.7486 107.816 70.5134 107.816 70.1371C107.816 69.996 107.816 69.8078 107.863 69.6667C107.91 69.3844 107.91 69.1492 107.958 68.867L107.252 68.7729C107.252 68.867 107.205 68.9611 107.205 69.1022C107.205 69.2433 107.158 69.3374 107.158 69.4785C107.158 69.6196 107.111 69.7137 107.111 69.8078C107.111 69.9019 107.064 70.043 107.064 70.09C107.017 70.3253 106.876 70.5134 106.64 70.6075C106.311 70.7016 105.982 70.7486 105.653 70.7486H88.9532C88.718 70.7957 88.4358 70.7016 88.2476 70.5605C88.1065 70.4193 88.0124 70.1841 88.0124 69.9489L88.0594 66.4209L87.2598 66.562V67.1735C86.5541 67.3147 85.8956 67.5499 85.3311 67.9732C84.9077 68.3025 84.6255 68.7729 84.6255 69.3374C84.6255 69.5256 84.6725 69.7137 84.7666 69.9019C84.8607 70.0901 85.0018 70.2312 85.1429 70.3253C85.2841 70.4664 85.4722 70.5605 85.6604 70.6075C85.8485 70.7016 86.0837 70.7016 86.3189 70.7016C86.6953 70.7016 87.0245 70.6075 87.3538 70.4664C87.495 71.219 88.0124 71.6424 89.0002 71.6424H105.417C105.794 71.6424 106.17 71.5953 106.546 71.4542C106.829 71.3601 107.064 71.172 107.205 70.9368C107.487 71.4072 108.005 71.6424 108.804 71.6424C109.181 71.6424 109.557 71.5953 109.933 71.4542C110.215 71.3601 110.451 71.172 110.592 70.9368C110.874 71.4072 111.391 71.6424 112.191 71.6424C112.567 71.7365 112.944 71.6894 113.32 71.5953ZM113.743 69.0081C114.073 68.6788 114.543 68.6788 114.872 69.0081C115.014 69.1492 115.108 69.3844 115.108 69.5726C115.108 70.043 114.825 70.3252 114.261 70.5134C114.026 70.4193 113.791 70.2782 113.649 70.09C113.508 69.9489 113.414 69.7608 113.414 69.5256C113.508 69.3844 113.555 69.1492 113.743 69.0081ZM86.413 69.9019C86.2719 69.9019 86.1308 69.9019 85.9897 69.8548C85.8485 69.8078 85.7545 69.8078 85.6133 69.7608C85.5193 69.7137 85.4252 69.6667 85.3781 69.5726C85.3311 69.4785 85.2841 69.3374 85.2841 69.2433C85.2841 69.1022 85.3311 68.9611 85.4252 68.82C85.5193 68.6788 85.6604 68.5377 85.8485 68.4907C86.0367 68.3966 86.2249 68.3025 86.4601 68.2555L87.1657 68.1144V69.7608C86.9305 69.8548 86.6482 69.9019 86.413 69.9019Z" fill="#A1A1A1"/>
<path d="M4.04534 79.3102C4.2335 79.075 4.51574 78.8868 4.79798 78.7457C5.12727 78.6045 5.45655 78.5105 5.83287 78.5105C6.06807 78.5105 6.30328 78.5575 6.53848 78.6046C6.72664 78.6516 6.9148 78.7457 7.10296 78.8868C7.24408 78.9809 7.38521 79.122 7.52633 79.2161C7.66745 79.3101 7.76153 79.4513 7.80857 79.5924L8.51417 78.9809C8.42009 78.8397 8.27897 78.6986 8.13785 78.5105C7.99673 78.3223 7.80857 78.1812 7.57337 78.0871C7.33816 77.946 7.10296 77.8519 6.82072 77.7578C6.49144 77.6637 6.16216 77.6167 5.83287 77.6167C5.36247 77.6167 4.84503 77.7108 4.42166 77.8989C3.9983 78.0871 3.66902 78.3223 3.33973 78.6516C3.01045 78.9809 2.77525 79.4042 2.63413 79.8276C2.44597 80.298 2.39893 80.7684 2.39893 81.2388C2.39893 81.7563 2.49301 82.2267 2.63413 82.6971C2.82229 83.1204 3.05749 83.4967 3.33973 83.826C3.9983 84.4846 4.89207 84.8609 5.83287 84.8609C6.16216 84.8609 6.49144 84.8139 6.82072 84.7198C7.10296 84.6257 7.38521 84.4846 7.62041 84.3435C7.85561 84.2024 8.04377 84.0612 8.18489 83.8731C8.32601 83.7319 8.46713 83.5908 8.56121 83.4497L7.85561 82.8852C7.76153 82.9793 7.71449 83.0734 7.62041 83.1675C7.52633 83.3086 7.3852 83.4027 7.24408 83.4967C7.05592 83.5908 6.86776 83.6849 6.6796 83.779C6.11512 83.9672 5.45655 83.9672 4.89207 83.7319C4.60982 83.5908 4.32758 83.4027 4.13942 83.1675C3.95126 82.9323 3.7631 82.65 3.66902 82.3207C3.57494 81.9915 3.48085 81.6151 3.48085 81.2859C3.48085 80.9095 3.52789 80.5802 3.66902 80.251C3.62198 79.8746 3.7631 79.5454 4.04534 79.3102Z" fill="#A1A1A1"/>
<path d="M13.7826 84.1553V79.8276H12.8418V82.0856C12.8418 82.3208 12.8418 82.5089 12.7948 82.7441C12.7477 82.9793 12.6537 83.1675 12.5596 83.3557C12.4655 83.5438 12.3244 83.685 12.1362 83.779C11.948 83.8731 11.7128 83.9672 11.4776 83.9672C11.1954 84.0142 10.8661 83.8731 10.678 83.6379C10.4428 83.3557 10.3487 83.0264 10.3957 82.6501V79.8276H9.45491V82.6971C9.40787 83.2616 9.59603 83.779 9.92531 84.2024C10.3016 84.5787 10.8191 84.8139 11.3365 84.7669C11.5247 84.7669 11.7128 84.7198 11.901 84.6728C12.0421 84.6258 12.2303 84.5787 12.3714 84.4846C12.5125 84.4376 12.6066 84.2965 12.7007 84.2024C12.7948 84.1083 12.8889 84.0142 12.9359 83.9201L12.9829 84.6258H13.8767V84.1553H13.7826Z" fill="#A1A1A1"/>
<path d="M15.9935 77.7109H15.0527V84.6259H15.9935V77.7109Z" fill="#A1A1A1"/>
<path d="M18.2986 77.8989H17.2637V78.9338H18.2986V77.8989Z" fill="#A1A1A1"/>
<path d="M18.2518 79.8276H17.311V84.6258H18.2518V79.8276Z" fill="#A1A1A1"/>
<path d="M22.109 79.6866C21.9209 79.6866 21.7327 79.7336 21.5445 79.7807C21.4034 79.8277 21.2153 79.8748 21.0741 79.9688C20.933 80.0629 20.8389 80.157 20.7449 80.2511C20.6508 80.3452 20.5567 80.4392 20.5097 80.5333L20.4626 79.8277H19.5688V84.6729H20.5097V82.462C20.5097 82.2268 20.5567 81.9916 20.6037 81.7564C20.6508 81.5212 20.7449 81.333 20.8389 81.1449C20.933 80.9567 21.0741 80.8156 21.2623 80.7215C21.4505 80.6274 21.6857 80.5333 21.9209 80.5333C22.2031 80.4863 22.5324 80.6274 22.7206 80.8626C22.9087 81.1449 23.0028 81.5212 23.0028 81.8505V84.6729H23.9436V81.8034C23.9906 81.2389 23.8025 80.7215 23.4732 80.2981C23.1439 79.8748 22.6265 79.6396 22.109 79.6866Z" fill="#A1A1A1"/>
<path d="M29.071 84.2021V81.3797C29.1181 80.9092 28.9299 80.4388 28.5536 80.1096C28.1302 79.7803 27.6128 79.6392 27.0953 79.6392C26.8601 79.6392 26.6249 79.6392 26.3897 79.6862L25.8253 79.8273C25.6841 79.8744 25.543 79.9684 25.4019 80.0155C25.3078 80.0625 25.2137 80.1566 25.1196 80.2036L25.543 80.8152C25.6841 80.7211 25.8723 80.627 26.1075 80.4859C26.3897 80.3918 26.672 80.3448 26.9542 80.3448C27.2835 80.3448 27.5657 80.4388 27.848 80.58C28.0832 80.7681 28.2243 81.0504 28.1773 81.3326V81.5208H26.9542C26.3897 81.4737 25.8253 81.6619 25.4019 81.9912C25.0726 82.3205 24.8374 82.7438 24.8374 83.2142C24.8374 83.4494 24.8844 83.6846 24.9785 83.9198C25.0726 84.108 25.2137 84.2491 25.3548 84.3902C25.543 84.5314 25.7312 84.6254 25.9193 84.6725C26.1075 84.7195 26.2957 84.7666 26.4838 84.7666C26.8131 84.7666 27.0953 84.7195 27.3776 84.5784C27.6598 84.4373 27.895 84.2491 28.0832 84.0139V84.5784H28.9299V84.3432L29.071 84.2021ZM28.1773 82.8849C28.1773 83.0261 28.1302 83.1672 28.0832 83.3083C27.9891 83.4494 27.895 83.5905 27.8009 83.6846C27.6598 83.7787 27.5187 83.8728 27.3776 83.9198C27.1894 83.9669 27.0483 84.0139 26.8601 84.0139C26.5779 84.0139 26.3427 83.9669 26.1075 83.8258C25.9193 83.6846 25.8253 83.4965 25.8253 83.2613C25.8253 83.1672 25.8253 83.0261 25.8723 82.932C25.9193 82.7909 25.9664 82.6968 26.0605 82.6027C26.1545 82.5086 26.2957 82.4145 26.4368 82.3675C26.6249 82.3205 26.8601 82.2734 27.0483 82.2734H27.7069C27.8009 82.2734 27.895 82.2734 27.9891 82.3205C28.0832 82.3675 28.1302 82.3205 28.1302 82.3675V82.8849H28.1773Z" fill="#A1A1A1"/>
<path d="M32.834 79.7803C32.6458 79.7803 32.4576 79.8273 32.2695 79.8744C32.0813 79.9214 31.9402 80.0155 31.7991 80.1096C31.658 80.2036 31.5639 80.2977 31.4698 80.3918C31.3757 80.4859 31.3287 80.58 31.2346 80.674L31.1875 79.9214H30.3408V84.7195H31.2816V82.1793C31.2816 81.9912 31.3287 81.803 31.3757 81.6148C31.4698 81.4737 31.5639 81.2856 31.658 81.1444C31.7991 81.0033 31.9402 80.9092 32.0813 80.8152C32.2695 80.7211 32.4576 80.7211 32.6458 80.7211C32.7869 80.7211 32.9751 80.7681 33.1162 80.8152L33.3044 79.9684C33.2103 79.9214 33.1632 79.9214 33.0692 79.9214C33.0221 79.7803 32.928 79.7803 32.834 79.7803Z" fill="#A1A1A1"/>
<path d="M36.1738 83.4497L34.6215 79.8276H33.5396L35.7034 84.5787L35.5623 84.908C35.4682 85.0962 35.4212 85.2373 35.3741 85.4254C35.3271 85.5666 35.28 85.6606 35.186 85.8018C35.1389 85.8958 35.0448 85.9899 34.9508 86.037C34.8567 86.084 34.7626 86.1311 34.6685 86.1311C34.5744 86.1311 34.4333 86.084 34.3392 86.037C34.2452 85.9899 34.1511 85.9429 34.104 85.8488L33.6807 86.5074L34.104 86.7896C34.5744 86.9778 35.0448 86.8837 35.4682 86.6485C35.6564 86.4603 35.8445 86.2722 35.9856 86.084C36.1268 85.8488 36.2208 85.6136 36.3149 85.3314C36.409 85.0962 36.5031 84.861 36.5972 84.6258L38.5258 79.9217H37.4909L36.1738 83.4497Z" fill="#A1A1A1"/>
<path d="M43.3714 77.7109L40.6431 84.6259H41.678L42.3836 82.6972H45.206L45.9116 84.6259H47.0406L44.3122 77.7109H43.3714ZM42.7128 81.8505L43.8418 78.8399L44.9708 81.8505H42.7128Z" fill="#A1A1A1"/>
<path d="M50.3331 79.7803C50.145 79.7803 49.9568 79.8273 49.7687 79.8744C49.5805 79.9214 49.4394 80.0155 49.2983 80.1096C49.1571 80.2036 49.0631 80.2977 48.969 80.3918C48.8749 80.4859 48.8279 80.58 48.7338 80.674L48.6867 79.9214H47.793V84.7195H48.7338V82.1793C48.7338 81.9912 48.7808 81.803 48.8279 81.6148C48.9219 81.4737 49.016 81.2856 49.1101 81.1444C49.2512 81.0033 49.3923 80.9092 49.5335 80.8152C49.7216 80.7211 49.9098 80.7211 50.0979 80.7211C50.2391 80.7211 50.4272 80.7681 50.5684 80.8152L50.7565 79.9684C50.6624 79.9214 50.6154 79.9214 50.5213 79.9214C50.5213 79.7803 50.4272 79.7803 50.3331 79.7803Z" fill="#A1A1A1"/>
<path d="M54.2848 83.8729C54.1437 83.9199 53.9556 83.967 53.8144 83.967C53.6263 83.967 53.4381 83.8729 53.297 83.7318C53.1559 83.4965 53.0618 83.2143 53.1088 82.9321V80.58H54.52V79.8274H53.1088V78.228H52.168V79.8274H51.3213V80.58H52.168V83.0261C52.121 83.4965 52.2621 83.967 52.5443 84.3433C52.8266 84.6255 53.2499 84.8137 53.6733 84.7666C54.1908 84.7666 54.6612 84.5785 55.0375 84.2022L54.6141 83.6377C54.52 83.7788 54.3789 83.8729 54.2848 83.8729Z" fill="#A1A1A1"/>
<path d="M59.0829 82.2737C58.8947 82.1797 58.7536 82.0856 58.5654 81.9915C58.3773 81.8974 58.1421 81.8504 57.9539 81.8033C57.6246 81.7093 57.3424 81.6152 57.0131 81.5211C56.7779 81.4741 56.6368 81.2859 56.6368 81.0507C56.6368 80.8625 56.7309 80.6744 56.919 80.5803C57.1542 80.4862 57.3894 80.4392 57.6246 80.4392C57.8598 80.4392 58.1421 80.4862 58.3773 80.5803C58.5654 80.6744 58.7536 80.7685 58.9418 80.9096L59.4592 80.298C59.224 80.1099 58.9888 79.9688 58.7066 79.8276C58.3773 79.7336 58.0009 79.6865 57.6717 79.6865C57.4365 79.6865 57.2013 79.7336 56.9661 79.7806C56.7309 79.8277 56.5427 79.9217 56.3545 80.0628C56.1664 80.204 56.0252 80.3451 55.9312 80.5333C55.8371 80.7214 55.79 80.9096 55.79 81.1448C55.79 81.3329 55.8371 81.5211 55.9312 81.7093C56.0252 81.8504 56.1664 82.0385 56.3075 82.1326C56.4956 82.2267 56.6368 82.3208 56.8249 82.4149C57.0131 82.4619 57.2013 82.556 57.3894 82.603C57.6246 82.6501 57.8128 82.6971 58.048 82.7912C58.1891 82.8382 58.3302 82.8853 58.4713 82.9793C58.5654 83.0264 58.6595 83.1205 58.7066 83.2146C58.7536 83.3086 58.7536 83.4027 58.7536 83.4968C58.7536 83.732 58.6125 83.9202 58.4243 83.9672C58.1891 84.0613 57.9069 84.1083 57.6717 84.1083C57.3894 84.1083 57.1072 84.0613 56.8249 83.9672C56.5897 83.8731 56.3545 83.732 56.2134 83.5438L55.6489 84.1554C56.1664 84.6728 56.919 84.955 57.6717 84.861C57.9069 84.861 58.1891 84.8139 58.4243 84.7669C58.6595 84.7198 58.8477 84.6258 59.0358 84.4846C59.224 84.3435 59.3651 84.2024 59.5062 84.0142C59.6474 83.8261 59.6944 83.6379 59.6944 83.4027C59.6944 83.1675 59.6474 82.9794 59.5533 82.7912C59.3651 82.603 59.224 82.4619 59.0829 82.2737Z" fill="#A1A1A1"/>
<path d="M64.0688 79.3102C64.2569 79.075 64.5392 78.8868 64.8214 78.7457C65.1507 78.6045 65.48 78.5105 65.8563 78.5105C66.0915 78.5105 66.3267 78.5575 66.5619 78.6046C66.7501 78.6516 66.9382 78.7457 67.1264 78.8868C67.2675 78.9809 67.4086 79.122 67.5498 79.2161C67.6909 79.3101 67.785 79.4513 67.832 79.5924L68.5376 78.9809C68.4435 78.8397 68.3024 78.6986 68.1613 78.5105C68.0202 78.3223 67.832 78.1812 67.5968 78.0871C67.3616 77.946 67.1264 77.8519 66.8442 77.7578C66.5149 77.6637 66.1856 77.6167 65.8563 77.6167C65.3859 77.6167 64.8685 77.7108 64.4451 77.8989C64.0217 78.0871 63.6925 78.3223 63.3632 78.6516C63.0339 78.9809 62.7987 79.4042 62.6576 79.8276C62.4694 80.298 62.4224 80.7684 62.4224 81.2388C62.4224 81.7563 62.5164 82.2267 62.6576 82.6971C62.8457 83.1204 63.0809 83.4967 63.3632 83.826C64.0217 84.4846 64.9155 84.8609 65.8563 84.8609C66.1856 84.8609 66.5149 84.8139 66.8442 84.7198C67.1264 84.6257 67.4086 84.4846 67.6438 84.3435C67.879 84.2024 68.0672 84.0612 68.2083 83.8731C68.3495 83.7319 68.4906 83.5908 68.5847 83.4497L67.879 82.8852C67.785 82.9793 67.7379 83.0734 67.6438 83.1675C67.5498 83.3086 67.4086 83.4027 67.2675 83.4967C67.0794 83.5908 66.8912 83.6849 66.703 83.779C66.1386 83.9672 65.48 83.9672 64.9155 83.7319C64.6333 83.5908 64.351 83.4027 64.1629 83.1675C63.9747 82.9323 63.7865 82.65 63.6925 82.3207C63.5984 81.9915 63.5043 81.6151 63.5043 81.2859C63.5043 80.9095 63.5513 80.5802 63.6925 80.251C63.6925 79.8746 63.8336 79.5454 64.0688 79.3102Z" fill="#A1A1A1"/>
<path d="M73.4772 80.4392C73.242 80.204 72.9598 80.0158 72.6776 79.8747C72.3483 79.7336 72.019 79.6865 71.6427 79.6865C71.2664 79.6865 70.9371 79.7336 70.6078 79.8747C70.3255 80.0158 70.0433 80.204 69.8081 80.4392C69.5729 80.6744 69.3847 80.9566 69.2907 81.2389C69.0555 81.8504 69.0555 82.603 69.2907 83.2146C69.4318 83.4968 69.6199 83.779 69.8081 84.0142C70.0433 84.2494 70.3255 84.4376 70.6078 84.5787C71.2664 84.8139 72.019 84.8139 72.6776 84.5787C72.9598 84.4376 73.242 84.2494 73.4772 84.0142C73.7125 83.779 73.9006 83.4968 73.9947 83.2146C74.2299 82.603 74.2299 81.8504 73.9947 81.2389C73.8536 80.9566 73.7125 80.6744 73.4772 80.4392ZM73.148 82.8382C73.1009 83.0264 72.9598 83.2616 72.8187 83.4027C72.6776 83.5438 72.4894 83.685 72.3012 83.779C71.8779 83.9672 71.4075 83.9672 70.9841 83.779C70.7959 83.685 70.6078 83.5438 70.4667 83.3557C70.3255 83.1675 70.2315 82.9794 70.1374 82.7912C70.0433 82.603 70.0433 82.3678 70.0433 82.1797C70.0433 81.9445 70.0903 81.7563 70.1374 81.5211C70.1844 81.3329 70.3255 81.0977 70.4667 80.9566C70.6078 80.8155 70.7959 80.6744 70.9841 80.5803C71.4075 80.3921 71.8779 80.3921 72.3012 80.5803C72.4894 80.6744 72.6776 80.8155 72.8187 81.0037C72.9598 81.1918 73.0539 81.38 73.148 81.5681C73.242 81.7563 73.242 81.9915 73.242 82.1797C73.195 82.4149 73.195 82.6501 73.148 82.8382Z" fill="#A1A1A1"/>
<path d="M80.9567 79.6866C80.5804 79.6866 80.2511 79.7807 79.9218 79.9688C79.6396 80.157 79.4044 80.3452 79.2162 80.5804C79.0751 80.2981 78.8869 80.0629 78.6517 79.9218C78.3695 79.7807 78.0402 79.6866 77.7109 79.6866C77.5228 79.6866 77.3346 79.7336 77.1464 79.7807C77.0053 79.8277 76.8642 79.8748 76.7231 79.9688C76.582 80.0629 76.4879 80.157 76.3938 80.2511C76.2997 80.3452 76.2527 80.4392 76.1586 80.5333L76.1115 79.8277H75.2178V84.6729H76.1586V82.462C76.1586 82.2268 76.1586 82.0386 76.2056 81.8034C76.2527 81.6153 76.3467 81.3801 76.4408 81.1919C76.5349 81.0037 76.676 80.8626 76.8642 80.7685C77.0523 80.6744 77.2405 80.5804 77.4757 80.5804C77.758 80.5804 78.0402 80.6745 78.2284 80.9097C78.4165 81.1919 78.5106 81.5682 78.5106 81.8975V84.7199H79.4514V82.0386C79.4514 81.8505 79.4985 81.6623 79.5455 81.4741C79.5925 81.286 79.6866 81.1449 79.8277 81.0037C79.9689 80.8626 80.11 80.7685 80.2511 80.6745C80.3922 80.5804 80.5804 80.5333 80.7685 80.5333C81.0508 80.5333 81.333 80.6274 81.5212 80.8626C81.7093 81.1449 81.8034 81.5212 81.8034 81.8505V84.6729H82.7442V81.8034C82.7913 81.2389 82.6031 80.7215 82.2738 80.2981C81.9445 79.8748 81.4741 79.6396 80.9567 79.6866Z" fill="#A1A1A1"/>
<path d="M89.7531 79.6866C89.3768 79.6866 89.0475 79.7807 88.7182 79.9688C88.436 80.157 88.2008 80.3452 88.0126 80.5804C87.8715 80.2981 87.6833 80.0629 87.4481 79.9218C87.1659 79.7807 86.8366 79.6866 86.5073 79.6866C86.3191 79.6866 86.131 79.7336 85.9428 79.7807C85.8017 79.8277 85.6606 79.8748 85.5195 79.9688C85.3783 80.0629 85.2843 80.157 85.1902 80.2511C85.0961 80.3452 85.049 80.4392 84.955 80.5333L84.9079 79.8277H84.0142V84.6729H84.955V82.462C84.955 82.2268 84.955 82.0386 85.002 81.8034C85.049 81.6153 85.1431 81.3801 85.2372 81.1919C85.3313 81.0037 85.4724 80.8626 85.6606 80.7685C85.8487 80.6744 86.0369 80.5804 86.2721 80.5804C86.5543 80.5804 86.8366 80.6745 87.0247 80.9097C87.2129 81.1919 87.307 81.5682 87.307 81.8975V84.7199H88.2478V82.0386C88.2478 81.8505 88.2948 81.6623 88.3419 81.4741C88.3889 81.286 88.483 81.1449 88.6241 81.0037C88.7652 80.8626 88.9064 80.7685 89.0475 80.6745C89.1886 80.5804 89.3768 80.5333 89.5649 80.5333C89.8472 80.5333 90.1294 80.6274 90.3176 80.8626C90.5057 81.1449 90.5998 81.5212 90.5998 81.8505V84.6729H91.5406V81.8034C91.5877 81.2389 91.3995 80.7215 91.0702 80.2981C90.7409 79.8748 90.2705 79.6396 89.7531 79.6866Z" fill="#A1A1A1"/>
<path d="M93.7987 79.8276H92.8579V84.6258H93.7987V79.8276Z" fill="#A1A1A1"/>
<path d="M93.8454 77.8989H92.8105V78.9338H93.8454V77.8989Z" fill="#A1A1A1"/>
<path d="M98.4086 82.2737C98.2204 82.1797 98.0793 82.0856 97.8911 81.9915C97.703 81.8974 97.4678 81.8504 97.2796 81.8033C96.9503 81.7093 96.6681 81.6152 96.3388 81.5211C96.1036 81.4741 95.9625 81.2859 95.9625 81.0507C95.9625 80.8625 96.0565 80.6744 96.2447 80.5803C96.4799 80.4862 96.7151 80.4392 96.9503 80.4392C97.1855 80.4392 97.4678 80.4862 97.703 80.5803C97.8911 80.6273 98.1263 80.7685 98.2674 80.9096L98.7849 80.298C98.5497 80.1099 98.3145 79.9688 98.0322 79.8276C97.703 79.7336 97.3266 79.6865 96.9973 79.6865C96.7621 79.6865 96.5269 79.7336 96.2917 79.7806C96.0565 79.8277 95.8684 79.9217 95.6802 80.0628C95.4921 80.204 95.3509 80.3451 95.2569 80.5333C95.1628 80.7214 95.1157 80.9096 95.1157 81.1448C95.1157 81.3329 95.1628 81.5211 95.2569 81.7093C95.3509 81.8974 95.4921 82.0385 95.6332 82.1326C95.8213 82.2267 95.9625 82.3208 96.1506 82.4149C96.3388 82.4619 96.5269 82.556 96.7151 82.603C96.9503 82.6501 97.1385 82.6971 97.3737 82.7912C97.5148 82.8382 97.6559 82.8853 97.797 82.9793C97.8911 83.0264 97.9852 83.1205 98.0322 83.2146C98.0793 83.3086 98.0793 83.4027 98.0793 83.4968C98.0793 83.732 97.9382 83.9202 97.75 83.9672C97.5148 84.0613 97.2325 84.1083 96.9973 84.1083C96.7151 84.1083 96.4329 84.0613 96.1506 83.9672C95.9154 83.8731 95.6802 83.732 95.5391 83.5438L94.9746 84.1554C95.4921 84.6728 96.2447 84.955 96.9973 84.861C97.2325 84.861 97.5148 84.8139 97.75 84.7669C97.9852 84.7198 98.1734 84.6258 98.3615 84.4846C98.5497 84.3435 98.6908 84.2024 98.8319 84.0142C98.973 83.8261 99.0201 83.6379 99.0201 83.4027C99.0201 83.1675 98.973 82.9794 98.879 82.7912C98.7378 82.603 98.5497 82.4149 98.4086 82.2737Z" fill="#A1A1A1"/>
<path d="M103.301 82.2737C103.112 82.1797 102.971 82.0856 102.783 81.9915C102.595 81.8974 102.36 81.8504 102.172 81.8033C101.842 81.7093 101.56 81.6152 101.231 81.5211C100.996 81.4741 100.855 81.2859 100.855 81.0507C100.855 80.8625 100.949 80.6744 101.137 80.5803C101.372 80.4862 101.607 80.4392 101.842 80.4392C102.078 80.4392 102.36 80.4862 102.595 80.5803C102.783 80.6273 103.018 80.7685 103.16 80.9096L103.677 80.298C103.442 80.1099 103.207 79.9688 102.924 79.8276C102.595 79.7336 102.219 79.6865 101.889 79.6865C101.654 79.6865 101.419 79.7336 101.184 79.7806C100.949 79.8277 100.76 79.9217 100.572 80.0628C100.384 80.204 100.243 80.3451 100.149 80.5333C100.055 80.7214 100.008 80.9096 100.008 81.1448C100.008 81.3329 100.055 81.5211 100.149 81.7093C100.243 81.8974 100.384 82.0385 100.525 82.1326C100.713 82.2267 100.855 82.3208 101.043 82.4149C101.231 82.4619 101.419 82.556 101.607 82.603C101.842 82.6501 102.031 82.6971 102.266 82.7912C102.407 82.8382 102.548 82.8853 102.689 82.9793C102.783 83.0264 102.877 83.1205 102.924 83.2146C102.971 83.3086 102.971 83.4027 102.971 83.4968C102.971 83.732 102.83 83.9202 102.642 83.9672C102.407 84.0613 102.125 84.1083 101.889 84.1083C101.607 84.1083 101.325 84.0613 101.043 83.9672C100.808 83.8731 100.572 83.732 100.431 83.5438L99.8667 84.1554C100.384 84.6728 101.137 84.955 101.889 84.861C102.125 84.861 102.407 84.8139 102.642 84.7669C102.877 84.7198 103.065 84.6258 103.254 84.4846C103.442 84.3435 103.583 84.2024 103.724 84.0142C103.818 83.8261 103.912 83.6379 103.912 83.4027C103.912 83.1675 103.865 82.9794 103.771 82.7912C103.583 82.603 103.442 82.4619 103.301 82.2737Z" fill="#A1A1A1"/>
<path d="M105.841 79.8276H104.9V84.6258H105.841V79.8276Z" fill="#A1A1A1"/>
<path d="M105.888 77.8989H104.853V78.9338H105.888V77.8989Z" fill="#A1A1A1"/>
<path d="M111.298 80.4391C111.062 80.2039 110.78 80.0158 110.498 79.8746C109.839 79.6394 109.087 79.6394 108.428 79.8746C108.146 80.0158 107.864 80.2039 107.628 80.4391C107.393 80.6743 107.205 80.9566 107.111 81.2388C106.876 81.8503 106.876 82.603 107.111 83.2145C107.252 83.4967 107.44 83.779 107.628 84.0142C107.864 84.2494 108.146 84.4376 108.428 84.5787C109.087 84.8139 109.839 84.8139 110.498 84.5787C110.78 84.4376 111.062 84.2494 111.298 84.0142C111.533 83.779 111.721 83.4967 111.815 83.2145C112.05 82.603 112.05 81.8503 111.815 81.2388C111.721 80.9566 111.533 80.6743 111.298 80.4391ZM110.968 82.8382C110.921 83.0264 110.78 83.2616 110.639 83.4027C110.498 83.5438 110.31 83.6849 110.122 83.779C109.698 83.9672 109.228 83.9672 108.804 83.779C108.616 83.6849 108.428 83.5438 108.287 83.3556C108.146 83.1675 108.052 82.9793 107.958 82.7911C107.864 82.603 107.864 82.3678 107.864 82.1796C107.864 81.9444 107.911 81.7563 107.958 81.5211C108.005 81.3329 108.146 81.0977 108.287 80.9566C108.428 80.8155 108.616 80.6743 108.804 80.5802C109.228 80.3921 109.698 80.3921 110.122 80.5802C110.31 80.6743 110.498 80.8154 110.639 81.0036C110.78 81.1918 110.874 81.3799 110.968 81.5681C111.062 81.7563 111.062 81.9915 111.062 82.1796C111.062 82.4148 111.062 82.65 110.968 82.8382Z" fill="#A1A1A1"/>
<path d="M115.625 79.6866C115.437 79.6866 115.249 79.7336 115.061 79.7807C114.92 79.8277 114.731 79.8748 114.59 79.9688C114.449 80.0629 114.355 80.157 114.261 80.2511C114.167 80.3452 114.073 80.4392 114.026 80.5333L113.979 79.8277H113.085V84.6729H114.026V82.462C114.026 82.2268 114.073 81.9916 114.12 81.7564C114.167 81.5212 114.261 81.333 114.355 81.1449C114.449 80.9567 114.59 80.8156 114.778 80.7215C114.967 80.6274 115.202 80.5333 115.437 80.5333C115.719 80.4863 116.049 80.6274 116.237 80.8626C116.425 81.1449 116.519 81.5212 116.519 81.8505V84.6729H117.46V81.8034C117.507 81.2389 117.319 80.7215 116.989 80.2981C116.66 79.8748 116.143 79.6396 115.625 79.6866Z" fill="#A1A1A1"/>
</svg>
