<svg width="120" height="120" viewBox="0 0 120 120" fill="none" xmlns="http://www.w3.org/2000/svg">
<path d="M62.2344 33.2104C64.3982 33.3516 66.5621 33.4457 68.7259 33.6338C72.1128 33.9161 75.4997 34.3394 78.7455 35.5625C80.3449 36.174 81.568 37.2559 82.791 38.3379C84.2963 39.6079 85.8016 40.878 87.2128 42.2892C87.8714 42.9948 88.3888 43.7945 88.8122 44.6413C88.9533 45.1587 88.9063 45.7232 88.6711 46.1936C88.2007 47.1344 87.401 47.887 86.4131 48.3104C85.7075 48.6397 84.9078 48.5927 84.2022 48.2634C82.4617 47.5107 81.1916 46.1466 79.8745 44.8294C77.7106 42.6656 75.5938 40.5017 73.3829 38.4319C71.4543 36.5033 69.1023 35.1391 66.468 34.3865C65.3861 34.1042 64.3041 33.9161 63.2222 33.7279C62.8459 33.7279 62.4696 33.7749 62.0932 33.869C62.6577 35.4213 63.2222 36.8326 63.7397 38.2438C64.163 39.5139 64.5864 40.784 64.9157 42.1011C65.8565 45.7232 66.6562 49.3453 66.468 53.1085C66.468 53.9553 66.2798 54.7549 65.9976 55.5546C65.5272 56.5895 64.9627 57.4833 64.2101 58.33C61.3406 61.5758 58.1889 64.5393 54.7549 67.1736C52.1677 69.1023 49.0631 68.8671 46.9462 66.3739C44.5001 63.4574 42.8537 59.9294 42.2422 56.1662C41.7718 53.5789 42.9949 51.4151 45.1587 50.0509C46.9933 48.9219 49.016 48.0752 50.9447 47.1344C53.9553 45.7232 56.8718 44.0768 59.6001 42.1481C61.811 40.5017 62.3755 38.3378 62.1403 35.8447C62.1403 35.7036 62.0932 35.5625 62.0932 35.4213C62.0932 34.7628 61.6699 34.1042 62.0932 33.4927C62.1403 33.3516 62.1873 33.2575 62.2344 33.2104Z" fill="#A1A1A1"/>
<path d="M61.6229 33.681C60.7762 34.5277 59.9765 35.4215 59.1297 36.2212C55.884 39.3729 52.403 42.2423 48.3575 44.3121C46.1466 45.4411 43.8416 46.476 41.2074 46.1467C38.8553 45.8645 36.5033 45.4881 34.1983 45.0177C31.7052 44.5003 29.2121 43.8888 26.766 43.0891C24.2728 42.2894 23.7083 40.5959 24.8373 38.291C25.1196 37.6794 25.5429 37.1149 26.0133 36.6445C27.0012 35.6096 27.942 34.5277 29.0239 33.5869C31.8463 31.1879 34.998 31.376 38.2909 32.3639C41.6778 33.3988 45.0176 34.4336 48.4516 35.3274C50.098 35.7037 51.7444 35.986 53.4379 36.1741C55.884 36.4093 58.0949 35.6567 60.1176 34.3866L61.3877 33.5399C61.4818 33.5399 61.5758 33.5869 61.6229 33.681Z" fill="#A1A1A1"/>
<path d="M84.0612 63.7397C83.4967 64.4924 82.6029 64.9157 81.6621 64.9157C79.4983 65.0098 77.4755 64.3983 75.4998 63.6456C73.9005 63.0812 72.4892 62.0933 71.4544 60.7291C70.4195 59.2709 69.8079 57.5304 69.7609 55.7429C69.6668 54.1905 69.8079 52.5912 69.7139 50.9918C69.5727 48.4516 69.3846 45.8644 69.1494 43.3242C68.8201 40.0314 66.9385 37.5853 64.5394 35.5155C64.3983 35.3744 64.2101 35.2333 64.069 35.0921C63.9749 34.951 63.9279 34.8569 63.8809 34.7158C64.8217 35.3273 65.5743 35.7507 66.327 36.2682C67.9734 37.3971 69.6668 38.479 71.2192 39.7491C73.6653 41.7248 76.0643 43.7946 78.4634 45.8173C80.5802 47.6049 81.7092 49.9099 82.4148 52.4971C83.1204 55.1784 83.873 57.8597 84.5316 60.541C84.8609 61.6229 84.6727 62.7989 84.0612 63.7397Z" fill="#A1A1A1"/>
<path d="M61.1526 33.4455C59.5062 33.3514 57.8598 33.3044 56.2133 33.2103C53.8613 33.0222 51.5093 32.834 49.2043 32.5518C45.8645 32.2225 42.5716 31.5169 39.4199 30.4349C37.8676 29.8234 36.5034 28.7885 35.5626 27.3773C34.7159 26.2013 33.8692 25.0253 33.0695 23.8023C32.1757 22.391 32.552 21.3562 34.1514 20.9798C36.8798 20.3213 39.7022 20.039 42.4776 20.6976C43.7947 21.0269 44.9707 21.9206 45.6763 23.0966C47.4168 25.6368 49.4395 27.9418 51.7915 29.9645C53.3909 31.3287 55.3666 32.0343 57.3894 32.5047C58.4242 32.7399 59.4591 32.9281 60.494 33.1162L61.1526 33.2574V33.4455Z" fill="#A1A1A1"/>
<path d="M61.0584 32.9751C60.2117 32.4577 59.365 31.9873 58.6123 31.4228C55.978 29.5412 53.3438 27.7066 50.8036 25.7309C49.6746 24.7431 48.5457 23.6611 47.5578 22.5322C47.0404 22.0147 46.9463 21.215 47.2756 20.5565C47.6049 19.8509 47.9341 19.1453 48.3105 18.4867C48.7809 17.4518 49.9569 16.9814 50.9918 17.3577C52.8263 17.9222 54.6139 18.5808 56.4014 19.3334C57.6715 19.8979 57.8126 20.6035 57.3422 21.9206C56.8248 23.1907 56.5425 24.4608 56.4014 25.825C56.3073 27.7537 57.107 29.2119 58.4712 30.482C59.365 31.3287 60.2587 32.1284 61.1525 32.9281C61.1525 32.8811 61.1054 32.9281 61.0584 32.9751Z" fill="#A1A1A1"/>
<path d="M62.2344 33.2103L62.0933 33.3514L61.811 33.0691C62.8459 32.0343 63.8338 30.9994 64.9627 30.0115C66.374 28.7414 67.8792 27.5184 69.7609 27.0009C70.5135 26.7657 71.3132 26.7657 72.1129 26.9069C74.1827 27.4713 76.2524 28.1299 78.2752 28.9296C80.2038 29.6822 81.0506 31.2816 81.2858 33.2573C81.3798 33.8218 81.0035 34.3392 80.4861 34.4333C80.439 34.4333 80.392 34.4333 80.3449 34.4333C79.7334 34.4333 79.1219 34.3392 78.5574 34.1981C76.2054 33.4455 73.8534 32.5987 71.4543 31.8461C70.3724 31.5168 69.2905 31.2816 68.1615 31.1405C65.8565 30.9053 63.9279 31.705 62.2344 33.2103Z" fill="#A1A1A1"/>
<path d="M61.8111 33.0694C61.623 32.8812 61.4818 32.6931 61.3407 32.5049C60.6351 30.247 59.8825 27.989 59.318 25.6841C59.1298 24.6492 59.1298 23.5672 59.2239 22.4853C59.2239 21.9208 59.6473 21.4034 60.2118 21.3563C61.7641 21.0741 63.3164 20.7919 64.8687 20.6037C66.0448 20.5096 66.9856 21.2152 67.8323 21.8738C68.632 22.4853 69.3376 23.1909 69.9962 23.9436C70.5606 24.5551 70.3725 25.2137 69.6198 25.4959C69.1024 25.6841 68.5379 25.7311 67.9734 25.9193C66.4211 26.3897 64.8217 26.813 63.2694 27.3775C61.8111 27.895 61.3407 29.4473 61.4348 30.7174C61.5289 31.5171 61.67 32.2697 61.8111 33.0694Z" fill="#A1A1A1"/>
<path d="M43.8414 100.478C40.7838 100.384 38.5729 100.243 36.4561 99.5374C35.4682 99.2082 34.7626 98.5966 34.7156 97.5617C34.6685 96.5268 34.8567 95.492 35.8445 94.8334C36.6913 94.1278 37.9143 94.1278 38.8081 94.7393C39.2785 95.0686 39.7959 95.3979 40.2663 95.7272C41.3012 96.5268 42.5713 96.5739 43.7943 96.668C46.4756 96.8561 49.157 96.715 51.6031 95.3038C53.1554 94.41 54.4725 93.1399 55.4133 91.6347C55.9778 90.6938 56.4953 89.706 56.9657 88.7181C57.2949 88.1066 57.2479 87.401 56.8245 86.8365C56.213 85.9898 55.5074 85.1901 54.7548 84.4845C53.861 83.5907 54.0492 82.2736 55.2722 81.8503C55.8367 81.615 56.4953 81.8503 56.7775 82.3677C57.1068 82.9322 57.389 83.5437 57.7183 84.1082C57.9065 84.3904 58.1417 84.6256 58.4239 84.8608C58.6591 84.5786 59.0354 84.3434 59.1766 84.0141C60.2114 81.4269 61.8579 79.1219 63.9747 77.2873C66.1856 75.3587 69.1491 74.5119 72.0186 74.9824C72.6301 75.0294 73.1475 75.4998 73.2887 76.1113C73.4298 76.7229 73.1005 77.3814 72.489 77.6166C71.9245 77.8518 71.313 77.9929 70.7014 77.9929C66.8912 77.9459 64.1628 79.6394 62.4694 83.0263C61.2934 85.4253 60.3055 87.8714 59.1766 90.2705C56.9186 95.1627 53.3906 98.6907 47.9809 99.9608C46.3816 100.29 44.6881 100.337 43.8414 100.478Z" fill="#A1A1A1"/>
<path d="M77.7109 85.8488C77.5697 86.131 77.4286 86.4603 77.2875 86.7896C76.8171 88.3419 76.3467 89.9413 75.8763 91.5407C75.547 92.6696 75.2177 92.9519 74.0417 92.9519H69.1025C67.6913 92.9519 67.2209 92.4815 67.1738 91.0232C67.1738 89.3768 67.2209 87.6833 67.2209 86.0369V81.7092C67.2209 80.6743 67.7383 80.0628 68.6791 80.0628C69.4788 80.0158 70.1374 80.5802 70.1844 81.3329C70.1844 81.474 70.1844 81.5681 70.1844 81.7092L70.0433 88.6241C70.0433 88.9064 70.0903 89.2357 70.0903 89.5179C70.0433 89.9883 70.4196 90.4117 70.89 90.4117C70.9371 90.4117 70.9841 90.4117 71.0311 90.4117C71.6427 90.4587 72.2542 90.3646 72.8657 90.2235C73.242 90.0824 73.5243 89.8472 73.7124 89.4709C74.371 87.6833 74.9825 85.8488 75.5941 84.0612C75.6881 83.826 75.7352 83.6379 75.8293 83.4027C76.0645 82.5089 76.8171 81.8033 77.7579 81.6622C78.6987 81.6622 79.4984 82.2737 79.7807 83.1675C81.1919 86.9777 82.556 90.835 84.0143 94.6453C84.6258 96.1976 85.3785 97.7029 85.99 99.2553C86.1781 99.7257 86.3193 100.243 86.3663 100.761C86.3663 101.607 85.8018 102.313 85.0021 102.548C84.2495 102.83 83.4028 102.501 83.0735 101.701C82.509 100.243 82.0386 98.7378 81.5682 97.2325C81.0037 95.398 80.4392 93.6104 79.8747 91.7759C79.6395 91.0232 79.2632 90.6469 78.4165 90.741C77.7579 90.8821 77.0993 90.4587 77.0053 89.8002C77.0053 89.7531 77.0053 89.659 76.9582 89.612C76.8641 88.9534 77.3816 88.3889 78.1342 88.2008C78.3224 88.1537 78.6046 87.8715 78.6046 87.7774C78.4165 87.1189 78.1813 86.5073 77.9461 85.8958C77.899 85.8488 77.805 85.8488 77.7109 85.8488Z" fill="#A1A1A1"/>
<path d="M24.0375 85.5195C23.9905 85.4724 23.9905 85.4254 23.9905 85.3784C23.6612 84.7198 23.5671 83.9671 23.8023 83.2615C24.2727 82.65 25.0254 82.4148 25.731 82.603C26.3895 82.7911 26.8599 83.4497 26.7658 84.1553V90.3646C26.8129 91.2584 26.1543 92.011 25.2606 92.1051C25.2135 92.1051 25.1194 92.1051 25.0724 92.1051C24.1316 92.0581 23.5671 91.3054 23.6141 90.2235C23.6612 89.1416 23.5201 88.9064 22.4852 88.6712C21.8266 88.5301 21.121 88.483 20.4624 88.5771C20.1802 88.6241 19.8039 89.0945 19.7098 89.4238C19.2394 91.4466 18.816 93.5163 18.3927 95.5861C18.1104 97.0444 17.3107 97.6088 15.8054 97.3736C14.9587 97.2325 14.4883 96.668 14.7235 95.8213C15.0998 94.4101 15.5232 92.9989 15.9936 91.5877C16.8874 88.8593 17.3578 86.0369 17.4989 83.1675C17.6871 81.0036 17.4989 78.8397 16.8403 76.77C16.7933 76.4877 16.8403 76.1584 17.0285 75.9232C17.3578 75.3117 18.3456 75.0295 19.1923 75.2647C19.8509 75.4058 20.2743 76.0173 20.2743 76.6759C20.3684 78.2753 20.3684 79.8746 20.3684 81.474C20.3684 82.603 20.2272 83.779 20.1802 84.9079C20.1332 86.0369 20.2272 86.2721 21.3092 86.3662C22.25 86.3662 23.3319 86.5544 24.0375 85.5195Z" fill="#A1A1A1"/>
<path d="M85.4724 87.3541V88.7653C85.5665 89.1887 85.6136 89.612 85.6136 90.0354C85.4724 90.741 84.7668 91.2584 84.0612 91.1173C83.3086 91.1173 82.65 90.5058 82.603 89.7531C82.5559 87.5422 82.603 85.3784 82.65 83.1675C82.65 82.556 83.0263 82.0385 83.6379 81.8504C84.2964 81.6622 85.002 81.8974 85.3784 82.5089C86.0369 83.4497 86.6955 84.4846 87.3541 85.4254C87.8245 86.084 88.2949 86.6955 88.8123 87.3541C88.9064 87.4952 89.0946 87.5893 89.2827 87.5422C89.4238 87.4482 89.5179 87.307 89.5179 87.1189C89.4709 85.7077 89.4709 84.2494 89.3297 82.8382C89.1886 81.0507 88.9064 79.3102 88.7182 77.5226C88.6241 76.5818 88.6241 75.6881 89.3768 74.9354C89.9413 74.3239 90.835 74.0887 91.6347 74.3709C92.3874 74.5591 92.9048 75.2647 92.8578 76.0174C92.8578 77.1463 92.7637 78.2753 92.5755 79.3572C92.0581 82.556 92.3403 85.7547 92.2933 88.9535V91.3055C92.2933 92.3404 91.917 92.8578 91.2114 93.093C90.5058 93.3282 89.8002 92.9519 89.2357 92.1992C88.3419 90.8821 87.4481 89.565 86.5073 88.2479C86.2721 87.9186 85.9899 87.5893 85.7076 87.307C85.7076 87.26 85.5665 87.307 85.4724 87.3541Z" fill="#A1A1A1"/>
<path d="M31.9874 86.084C31.8463 86.3663 31.7052 86.6485 31.5641 86.9308C30.1058 91.4466 28.6476 95.9155 27.1893 100.431C27.0482 100.949 26.813 101.466 26.5778 101.937C26.0133 102.783 24.9314 103.019 24.0847 102.548C23.332 102.125 23.0027 101.231 23.332 100.431C23.6613 99.5846 24.0376 98.7379 24.3669 97.8912C25.3548 95.5392 26.3426 93.2342 27.2834 90.8822C28.2242 88.5301 29.0239 86.037 29.9177 83.6379C30.0117 83.3557 30.294 83.1675 30.4351 82.9323C30.4822 82.8853 30.4822 82.7442 30.5292 82.6971C30.6703 82.4619 30.7644 82.1326 30.9526 82.0856C32.0345 81.5682 33.2575 81.6622 33.7279 82.8853C34.4806 84.8139 35.1862 86.7426 35.8918 88.7183C36.2211 89.565 36.5033 90.4118 36.7856 91.2585C37.0678 91.9641 36.7385 92.7638 36.0329 93.046C35.9859 93.046 35.9388 93.0931 35.8918 93.0931C35.1392 93.3753 34.2924 92.999 34.0102 92.2463V92.1993C33.9161 91.9641 33.8691 91.7759 33.822 91.5407C33.822 91.1174 33.4457 90.741 33.0223 90.741C32.9753 90.741 32.8812 90.741 32.8342 90.7881C32.646 90.7881 32.4578 90.7881 32.2697 90.7881C31.6111 90.7881 31.0937 90.2706 31.0937 89.6121C30.9996 89.0005 31.423 88.389 32.0345 88.2949H32.0815C32.8812 88.2479 32.8342 87.9186 32.5519 87.3541C32.3638 86.9778 32.2226 86.6015 32.0815 86.2252C32.0815 86.1311 32.0345 86.1311 31.9874 86.084Z" fill="#A1A1A1"/>
<path d="M96.0092 92.9986H94.3158C93.5631 93.0457 92.9516 92.4812 92.9046 91.7756C92.9046 91.7286 92.9046 91.6815 92.9046 91.5874V86.6952C92.9046 85.7074 93.5161 85.1429 94.551 85.19C95.3507 85.237 95.9622 85.8956 95.9152 86.6952C95.9152 86.7423 95.9152 86.7893 95.9152 86.8364C95.8681 87.7301 95.774 88.6239 95.774 89.5177C95.774 90.2703 96.0563 90.4585 96.7619 90.5055C98.3613 90.5525 99.3491 89.5647 99.3021 87.9653V87.1656C99.208 85.5192 98.3142 84.6255 96.6208 84.6255H94.1276C93.375 84.6255 92.8575 84.2491 92.7635 83.6847C92.6223 82.7909 92.9046 82.1323 93.7983 82.0382C96.3385 81.756 99.0198 81.4267 100.996 83.5906C102.689 85.4251 102.83 87.6361 101.983 89.894C101.184 92.0108 99.4432 92.9516 97.2323 93.0457C96.856 92.9987 96.4326 92.9986 96.0092 92.9986Z" fill="#A1A1A1"/>
<path d="M46.0524 87.4479V83.3554C46.0054 82.6968 46.4758 82.1323 47.1343 81.9912C48.1692 81.9442 49.1571 82.0382 50.192 82.0382C50.4742 81.9912 50.7564 81.9912 51.0387 81.9912C53.1555 82.3205 54.6138 84.2962 54.2845 86.413C54.1904 86.9775 53.9552 87.542 53.6259 88.0124C53.0614 88.8591 50.8505 89.4236 50.0038 88.8591C49.6745 88.5768 49.5334 88.1535 49.5804 87.7301C49.6745 87.3538 49.9097 86.9775 50.239 86.7893C50.8976 86.6012 51.2269 86.2719 51.1328 85.6133C51.0387 84.9547 50.4742 84.8136 49.9097 84.8136C48.9219 84.7666 48.8748 84.8136 48.8748 85.8015C48.9219 87.636 48.9689 89.5177 49.063 91.3522C49.11 92.199 48.4515 92.9986 47.6047 93.0457C46.8521 93.1398 46.0995 92.6223 46.0054 91.8226C46.0054 91.7286 46.0054 91.5874 46.0054 91.4934V87.4008C46.0054 87.4479 46.0054 87.4479 46.0524 87.4479Z" fill="#A1A1A1"/>
<path d="M40.3136 81.7563C41.2074 81.8504 42.0541 81.9445 42.9479 82.1327C45.394 82.8383 46.4288 85.99 44.9236 88.0598C44.1709 89.0476 43.089 89.2828 41.913 89.3769C40.2195 89.518 40.2195 89.518 40.3136 91.1644C40.3606 92.1052 40.0784 92.6697 39.4198 92.952C38.7142 93.3283 37.8675 93.046 37.4912 92.3875C37.3971 92.1993 37.3501 92.0112 37.3501 91.7759C37.303 90.5529 37.3501 89.2828 37.3971 88.0598C37.3971 87.6834 37.4912 87.3542 37.6323 87.0249C37.7734 86.5545 38.2438 86.3193 38.6672 86.4604C38.6672 86.4604 38.6672 86.4604 38.7142 86.4604C39.1846 86.5545 39.655 86.7426 40.1254 86.8367C40.5018 86.9778 40.9251 86.9778 41.3485 86.9308C41.7248 86.7897 42.007 86.4604 42.1482 86.0841C42.1952 85.6607 42.0541 85.2373 41.7718 84.9081C41.4426 84.5317 40.8781 84.5317 40.5018 84.814C40.2195 85.0021 39.9843 85.2373 39.7491 85.4725C39.2787 85.9429 38.5731 86.0841 38.0086 85.7548C37.3971 85.4725 37.3501 84.9551 37.3501 84.3906C37.3501 82.1797 37.6323 81.8975 39.8902 81.8975H40.3136V81.7563Z" fill="#A1A1A1"/>
<path d="M92.9986 96.9503C93.3749 96.4799 93.7513 96.0095 94.2217 95.6332C94.5509 95.492 94.9273 95.398 95.3036 95.398C95.4447 95.398 95.5858 95.445 95.727 95.445C96.0562 95.3509 96.6207 95.1157 96.7148 95.2098C97.0441 95.6331 97.2322 96.1036 97.3734 96.621C97.4674 97.0444 97.6086 97.4677 97.7497 97.8441L97.8908 97.4207C97.8908 97.3736 97.8908 97.2325 97.9379 97.2325C98.2201 97.0444 98.5964 96.621 98.6905 96.7151C99.302 97.1384 100.243 96.3388 100.666 97.2325C100.854 97.6088 100.619 97.9381 100.243 98.0793C99.4431 98.3145 99.2079 98.8789 99.255 99.6316C99.302 99.9138 99.255 100.243 99.1139 100.525C98.9257 100.808 98.6435 101.043 98.3142 101.09C98.126 101.09 97.8438 100.666 97.7497 100.384C97.7027 100.055 97.7027 99.6786 97.7497 99.3493C97.1382 99.5375 96.5266 99.6786 95.9622 99.9138C95.1154 100.243 94.2687 99.9138 93.6101 98.973C93.469 98.7378 93.3279 98.5026 93.2809 98.4085C92.9516 98.8789 92.6693 99.5845 92.1989 99.9138C91.7285 100.243 90.9288 100.243 90.1762 100.431C90.1762 100.525 90.0821 100.808 90.0351 101.137C89.941 101.56 89.6117 101.842 89.2354 101.701C88.9531 101.56 88.7179 101.278 88.6709 100.949C88.765 99.3964 88.9061 97.844 89.0472 96.2917C89.0943 95.7743 89.4235 95.5861 89.941 95.6332C90.3173 95.6802 90.7407 95.6802 91.117 95.6802C91.9637 95.6802 92.6693 96.1976 92.9986 96.9503ZM96.2444 97.797C95.8681 97.3736 95.5858 97.0914 95.3036 96.7621C95.0684 96.9973 94.6921 97.1855 94.598 97.4677C94.4569 97.9381 95.0214 98.5967 95.3977 98.5026C95.727 98.3145 96.0092 98.0792 96.2444 97.797ZM91.8226 97.9381C91.4933 97.5618 91.3052 97.2325 91.0229 97.0914C90.7407 96.9503 90.1762 97.6089 90.2703 97.9852C90.4114 98.3145 90.6466 98.6437 90.9288 98.8789C91.2111 98.5967 91.5404 98.3145 91.8226 97.9381Z" fill="#A1A1A1"/>
<path d="M102.454 97.5147C102.689 97.1854 102.971 96.9032 103.3 96.668C103.63 96.5739 103.959 96.4798 104.288 96.4798C104.382 96.8091 104.382 97.1854 104.335 97.5147C104.194 97.844 103.959 98.1262 103.724 98.4085L104.9 99.4433C105.323 99.7726 105.464 100.196 105.088 100.619C104.712 101.043 104.335 100.808 103.959 100.525C103.583 100.243 103.253 99.9608 102.83 99.5845C102.877 99.8197 102.924 100.055 102.924 100.29C102.877 100.713 102.689 101.137 102.219 101.09C101.889 100.996 101.607 100.808 101.466 100.478C101.184 99.02 100.948 97.5147 100.713 96.0564C100.666 95.586 100.619 95.0686 101.278 94.9745C101.936 94.8804 102.077 95.3508 102.172 95.8212C102.266 96.2916 102.36 96.8091 102.454 97.5147Z" fill="#A1A1A1"/>
<path d="M44.5944 78.1343C44.3121 78.1343 44.218 78.0872 44.0769 78.0872C42.8068 78.0402 42.8539 78.0402 42.7127 79.2632C42.7127 79.4984 42.4305 79.6866 42.2894 79.8748C42.1012 79.6866 41.819 79.4514 41.819 79.2632C41.7719 78.1813 41.7719 77.0994 41.819 76.0174C41.866 75.7822 42.0542 75.5941 42.2894 75.547C42.3835 75.5 42.6657 75.7822 42.7598 75.9234C42.9009 76.2997 42.8068 77.0053 42.995 77.0523C43.5595 77.1464 44.1239 77.1464 44.6884 77.0994C44.6414 76.7701 44.6414 76.3938 44.6884 76.0645C44.7355 75.8293 44.9707 75.6882 45.1588 75.5C45.3 75.6882 45.6292 75.8763 45.6292 76.0645C45.6763 77.1464 45.6763 78.2283 45.6292 79.3103C45.6292 79.4984 45.347 79.6866 45.1588 79.8748C45.0177 79.6866 44.7355 79.4984 44.6884 79.2632C44.5944 78.8869 44.5473 78.5106 44.5944 78.1343Z" fill="#A1A1A1"/>
<path d="M31.8463 79.4042C31.6582 79.5924 31.5171 79.8746 31.423 79.8746C31.2348 79.8746 30.9055 79.7335 30.8585 79.5924C30.6703 79.0279 30.3411 78.9808 29.8236 79.0279C29.4002 79.0749 28.9298 78.9808 28.7887 79.5924C28.7417 79.7335 28.3654 79.8276 28.1772 79.8276C28.0831 79.8276 27.895 79.4512 27.942 79.2631C28.3183 78.0871 28.7417 76.9581 29.2121 75.8291C29.4002 75.3587 30.1059 75.2176 30.294 75.688C30.9055 76.864 31.3289 78.1341 31.8463 79.4042ZM29.9647 76.7699H29.7766C29.6354 77.1933 29.5414 77.5696 29.4002 78.04H30.3881C30.247 77.6167 30.1059 77.1933 29.9647 76.7699Z" fill="#A1A1A1"/>
<path d="M41.5839 79.4041C41.4428 79.5923 41.3487 79.8275 41.2076 79.8745C41.0194 79.9216 40.7842 79.8275 40.6901 79.6393C40.596 79.2159 40.1727 78.9337 39.7493 79.0278C39.7023 79.0278 39.7023 79.0278 39.6552 79.0278C39.1848 79.0748 38.7144 78.9807 38.5733 79.6393C38.4322 79.8275 38.197 79.8745 38.0088 79.8275C37.8206 79.6863 37.7266 79.4982 37.7266 79.263C38.1029 78.087 38.5263 76.958 38.9967 75.829C39.2319 75.3116 39.9375 75.2175 40.1256 75.6879C40.6431 76.911 41.1135 78.134 41.5839 79.4041ZM40.1256 78.087C39.9845 77.5695 39.8434 77.1932 39.7493 76.7698H39.5611C39.42 77.1932 39.2789 77.6166 39.1378 78.087H40.1256Z" fill="#A1A1A1"/>
<path d="M25.7313 79.4044C25.5902 79.5925 25.449 79.8277 25.3079 79.8748C25.0727 79.8748 24.8845 79.7336 24.7905 79.5455C24.4612 78.981 23.7556 78.7928 23.1911 79.1221C23.0029 79.2162 22.8618 79.3573 22.7677 79.5455C22.6736 79.7336 22.3914 79.7807 22.1562 79.8748C22.0621 79.6396 21.874 79.3573 21.921 79.1692C22.2503 78.1343 22.6266 77.0994 23.05 76.0645C23.1911 75.7352 23.4733 75.547 23.8026 75.5C24.0378 75.5 24.3671 75.8293 24.5082 76.1115C24.9316 77.1935 25.3079 78.2754 25.7313 79.4044ZM23.2852 78.0872H24.3201C24.1319 77.6168 23.9908 77.1935 23.8497 76.7701H23.7085C23.5674 77.1935 23.4263 77.5698 23.2852 78.0872Z" fill="#A1A1A1"/>
<path d="M26.3427 78.087V77.2403C26.3427 76.7699 26.3897 76.2995 25.6841 76.3936C25.543 76.3936 25.4019 76.1584 25.2607 76.0172C25.4019 75.8761 25.543 75.5939 25.7311 75.5939C26.4368 75.5468 27.1424 75.5468 27.848 75.5939C28.0361 75.5939 28.1772 75.8291 28.3184 75.9702C28.1772 76.1113 28.0361 76.3936 27.895 76.3936C27.3305 76.3936 27.3305 76.7228 27.3305 77.1462V78.8397C27.3305 79.263 27.4246 79.8746 26.8131 79.8746C26.2015 79.8746 26.3897 79.216 26.3427 78.7926V78.087Z" fill="#A1A1A1"/>
<path d="M34.9037 77.6639C34.9037 77.1464 34.8567 76.629 34.9037 76.1115C34.9508 75.8763 35.233 75.6882 35.3741 75.5C35.5152 75.6882 35.7504 75.8763 35.7975 76.1115C35.8445 76.7701 35.8445 77.4757 35.7975 78.1343C35.7975 78.6987 35.9386 79.028 36.5972 78.981C36.8794 78.9339 37.3028 78.8869 37.3498 79.3573C37.3969 79.8277 36.9265 79.8277 36.5972 79.8748C34.9037 79.9688 34.9037 79.9218 34.9037 78.2283V77.6639Z" fill="#A1A1A1"/>
<path d="M32.9751 78.9807C33.3514 78.9336 33.6807 78.9336 34.057 78.9807C34.1982 79.0277 34.4804 79.2159 34.4804 79.31C34.4334 79.4981 34.2452 79.7804 34.1041 79.7804C33.5396 79.8274 32.9751 79.8274 32.4106 79.7804C32.2695 79.7804 32.0343 79.4511 32.0343 79.2159C31.9873 78.181 31.9873 77.0991 32.0343 76.0642C32.0343 75.876 32.3165 75.6878 32.4577 75.4526C32.5988 75.6408 32.9281 75.876 32.9281 76.0642C33.0222 77.052 32.9751 77.9928 32.9751 78.9807Z" fill="#A1A1A1"/>
</svg>
