<svg width="120" height="120" viewBox="0 0 120 120" fill="none" xmlns="http://www.w3.org/2000/svg">
<path fill-rule="evenodd" clip-rule="evenodd" d="M27.0482 67.5028V68.0673C26.766 68.0673 26.4837 68.0202 26.2485 67.9732C26.2015 67.9732 26.1545 67.9732 26.1074 67.9261V66.3738C26.3426 66.609 26.6719 66.7972 26.9541 66.9853C26.9541 66.9383 26.9541 66.8913 26.9071 66.8442C26.9071 66.8442 26.4367 66.4679 26.1074 66.1857V64.8215C26.3897 65.0567 26.6719 65.2449 26.9541 65.433C26.9541 65.386 26.9541 65.3389 26.9071 65.2919C26.9071 65.2919 26.4367 64.9156 26.1074 64.6333V61.5757C26.3426 61.8109 26.6719 61.9991 26.9541 62.1872C26.9541 62.1402 26.9541 62.0931 26.9071 62.0461C26.9071 62.0461 26.4367 61.6698 26.1074 61.3875V60.0234C26.3426 60.2586 26.6719 60.4467 26.9541 60.6349C26.9541 60.5879 26.9541 60.5408 26.9071 60.4938C26.6719 60.2586 26.3897 60.0704 26.1074 59.8352V58.5181C26.3426 58.7533 26.6719 58.9414 26.9541 59.1296C26.9541 59.0826 26.9541 59.0355 26.9071 58.9885C26.9071 58.9885 26.4367 58.6122 26.1074 58.3299V56.8246C26.3426 57.0598 26.6719 57.248 26.9541 57.4361C26.9541 57.3891 26.9541 57.3421 26.9071 57.295C26.9071 57.295 26.4367 56.9187 26.1074 56.6365V55.2723C26.3426 55.5075 26.6719 55.6957 26.9541 55.8838C26.9541 55.8368 26.9541 55.7897 26.9071 55.7427C26.9071 55.7427 26.4367 55.3664 26.1074 55.0841V52.2147C26.3426 52.4499 26.6719 52.638 26.9541 52.8262C26.9541 52.7792 26.9541 52.7321 26.9071 52.6851C26.9071 52.6851 26.4367 52.3087 26.1074 52.0265V50.6623C26.3426 50.8975 26.6719 51.0857 26.9541 51.2739C26.9541 51.2268 26.9541 51.1798 26.9071 51.1327C26.9071 51.1327 26.4367 50.7564 26.1074 50.4742V49.157C26.3426 49.3922 26.6719 49.5804 26.9541 49.7686C26.9541 49.7215 26.9541 49.6745 26.9071 49.6274C26.9071 49.6274 26.4367 49.2511 26.1074 48.9689V47.5106C26.3426 47.7458 26.6719 47.934 26.9541 48.1222C26.9541 48.0751 26.9541 48.0281 26.9071 47.981C26.9071 47.981 26.4367 47.6047 26.1074 47.3225V45.9583C26.3426 46.1935 26.6719 46.3817 26.9541 46.5698C26.9541 46.5228 26.9541 46.4757 26.9071 46.4287C26.9071 46.4287 26.4367 46.0524 26.1074 45.7701V44.453C26.3897 44.6882 26.6719 44.8764 26.9541 45.0645C26.9541 45.0175 26.9541 44.9704 26.9071 44.9234C26.9071 44.9234 26.4367 44.5471 26.1074 44.2648V43.7944C26.1074 43.7004 26.4837 43.6533 27.0482 43.6533V67.5028Z" fill="#A1A1A1"/>
<path fill-rule="evenodd" clip-rule="evenodd" d="M27.4244 67.4558L27.3303 43.6533V43.3711H28.2241C28.3652 43.3711 28.5063 43.3711 28.6474 43.4181C28.6945 43.4181 28.7886 43.4181 28.8356 43.4652C28.8826 43.4652 28.9297 43.4652 28.9297 43.5122C28.9297 43.5593 28.9767 43.5593 29.0238 43.5593V43.6533C28.6004 43.8885 27.4244 44.7353 27.3774 44.7353C27.3303 44.7353 27.3303 44.9234 27.3303 44.9234C27.5655 45.0175 28.7415 44.1708 28.9767 43.8415V45.1586C28.5534 45.3938 27.3303 46.2406 27.3303 46.2406C27.2362 46.2876 27.2833 46.4287 27.2833 46.4287C27.5185 46.5228 28.6945 45.6761 28.9297 45.3468V46.711C28.5063 46.9462 27.3303 47.7929 27.2833 47.7929C27.2362 47.7929 27.2362 48.0281 27.2362 47.9811C27.4714 48.0751 28.6474 47.1814 28.8826 46.8991V48.4044C28.4593 48.6396 27.2833 49.4863 27.2362 49.4863C27.1892 49.4863 27.1892 49.6745 27.1892 49.6745C27.4244 49.7686 28.6004 48.8748 28.8356 48.5926V49.9097C28.4122 50.1449 27.2362 50.9916 27.1892 50.9916C27.1422 50.9916 27.1422 51.1798 27.1422 51.1798C27.3774 51.2739 28.5534 50.4272 28.7886 50.0979V51.462C28.3652 51.6972 27.1892 52.544 27.1422 52.544C27.0951 52.544 27.0951 52.7792 27.0951 52.7321C27.3303 52.8262 28.5063 51.9324 28.7415 51.6502V54.6137C28.3182 54.8489 27.1422 55.6957 27.0951 55.6957C27.0481 55.6957 27.0481 55.8838 27.0481 55.8838C27.2833 55.9779 28.4593 55.1312 28.6945 54.8019V56.1661C28.2711 56.4013 27.0951 57.248 27.0481 57.248C27.001 57.248 27.001 57.4832 27.001 57.4362C27.2362 57.5302 28.4122 56.6365 28.6474 56.3542V57.8595C28.2241 58.0947 27.0481 58.9415 27.001 58.9415C26.954 58.9415 26.954 59.1767 26.954 59.1296C27.1892 59.2237 28.3652 58.3299 28.6004 58.0477V59.3648C28.177 59.6 27.001 60.4468 26.954 60.4468C26.907 60.4468 26.907 60.6349 26.907 60.6349C27.1422 60.729 28.3182 59.8823 28.5534 59.553V60.9172C28.13 61.1524 26.954 61.9991 26.907 61.9991C26.8599 61.9991 26.8599 62.2343 26.8599 62.1872C27.0951 62.2813 28.2711 61.3876 28.5063 61.1053V62.7047C28.083 62.9399 26.8599 63.7866 26.8599 63.7866C26.7658 63.8337 26.8129 63.9748 26.8129 63.9748C27.0481 64.0689 28.2241 63.2221 28.4593 62.8928V64.257C28.0359 64.4922 26.8599 65.3389 26.8129 65.3389C26.7658 65.3389 26.7658 65.5271 26.7658 65.5271C27.001 65.6212 28.177 64.7745 28.4122 64.4452V65.8094C27.9889 66.0446 26.7658 66.8913 26.7658 66.8913C26.6718 66.9383 26.7188 67.1265 26.7188 67.0794C26.954 67.1735 28.13 66.2798 28.3652 65.9975V67.8791C28.2711 68.0203 27.6126 68.1143 26.7188 68.1143H27.2833V67.691L27.4244 67.4558Z" fill="#A1A1A1"/>
<path fill-rule="evenodd" clip-rule="evenodd" d="M26.954 43.6535V43.4183C26.6247 43.3713 26.2954 43.4183 26.0132 43.5594V44.0298C26.2954 44.218 26.5777 44.4532 26.8129 44.6884C26.8599 44.7354 26.8599 44.7825 26.8599 44.8295C26.7658 44.8766 26.3425 44.5473 26.0132 44.218V45.5351C26.3425 45.7703 26.8129 46.1937 26.8129 46.1937C26.8599 46.2407 26.8599 46.2878 26.8599 46.3348C26.7658 46.3818 26.2954 46.0526 26.0132 45.7233V47.0875C26.2954 47.2756 26.5777 47.5108 26.8129 47.746C26.8599 47.7931 26.8599 47.8401 26.8599 47.8871C26.7658 47.9342 26.2954 47.6049 26.0132 47.2756V48.7339C26.3425 48.9691 26.8129 49.3924 26.8129 49.3924C26.8599 49.4395 26.8599 49.4865 26.8599 49.5336C26.7658 49.5806 26.2954 49.2513 26.0132 48.922V50.2392C26.2954 50.4273 26.5777 50.6625 26.8129 50.8977C26.8599 50.9448 26.8599 50.9918 26.8599 51.0388C26.7658 51.0859 26.2954 50.7566 26.0132 50.4273V51.7915C26.3425 52.0267 26.8129 52.4501 26.8129 52.4501C26.8599 52.4971 26.8599 52.5441 26.8599 52.5912C26.7658 52.6382 26.2954 52.3089 26.0132 51.9797V54.9432C26.3425 55.1784 26.8129 55.6018 26.8129 55.6018C26.8599 55.6488 26.8599 55.6958 26.8599 55.7429C26.7658 55.7899 26.2954 55.4606 26.0132 55.1314V56.4955C26.2954 56.6837 26.5777 56.9189 26.8129 57.1541C26.8599 57.2011 26.8599 57.2482 26.8599 57.2952C26.7658 57.3423 26.2954 57.013 26.0132 56.6837V58.189C26.3425 58.4242 26.8129 58.8475 26.8129 58.8475C26.8599 58.8946 26.8599 58.9416 26.8599 58.9887C26.7658 59.0357 26.2954 58.7064 26.0132 58.3771V59.6943C26.2954 59.8824 26.5777 60.1176 26.8129 60.3528C26.8599 60.3999 26.8599 60.4469 26.8599 60.494C26.7658 60.541 26.2954 60.2117 26.0132 59.8824V61.2466C26.2954 61.4348 26.5777 61.67 26.8129 61.9052C26.8599 61.9522 26.8599 61.9993 26.8599 62.0463C26.7658 62.0933 26.2954 61.7641 26.0132 61.4348V64.4924C26.2954 64.6806 26.5777 64.9158 26.8129 65.151C26.8599 65.198 26.8599 65.245 26.8599 65.2921C26.7658 65.3391 26.3425 65.0098 26.0132 64.6806V66.0447C26.3425 66.2799 26.8129 66.7033 26.8129 66.7033C26.8599 66.7503 26.8599 66.7974 26.8599 66.8444C26.7658 66.8915 26.2954 66.5622 26.0132 66.2329V67.7852C26.0602 67.7852 26.1073 67.8323 26.1543 67.8323C26.4365 67.8793 26.6717 67.9263 26.954 67.9263V43.6535ZM29.1178 65.9036C28.8826 66.1859 27.6596 67.0796 27.4714 66.9855C27.4714 67.0326 27.4244 66.8444 27.5185 66.7974C27.5185 66.7974 28.6945 65.9506 29.1649 65.7154V64.3513C28.9297 64.5865 27.7066 65.5273 27.5185 65.4332C27.5185 65.4802 27.4714 65.3391 27.5655 65.245C28.083 64.8687 28.6474 64.4924 29.2119 64.1631V62.7989C28.9767 63.0341 27.7537 63.975 27.5655 63.8809C27.5655 63.9279 27.5185 63.7868 27.6126 63.6927C27.6126 63.6927 28.7886 62.846 29.259 62.6108V61.0114C29.0238 61.2466 27.8007 62.1874 27.6126 62.0933C27.6126 62.1404 27.5655 61.9522 27.6596 61.9052C28.177 61.5289 28.7415 61.1525 29.306 60.8232V59.4591C29.0708 59.6943 27.8478 60.6351 27.6596 60.541C27.6596 60.588 27.6126 60.4469 27.7066 60.3528C28.2241 59.9765 28.7886 59.6002 29.3531 59.2709V57.9067C29.1178 58.1419 27.8948 59.0828 27.7066 58.9887C27.7066 59.0357 27.6596 58.8475 27.7537 58.8005C28.2711 58.4242 28.8356 58.0479 29.4001 57.7186V56.2133C29.1649 56.4485 27.9418 57.3893 27.7537 57.2952C27.7537 57.3423 27.7066 57.1541 27.8007 57.1071C28.3182 56.7307 28.8826 56.3544 29.4471 56.0251V49.9569C29.2119 50.1921 27.9889 51.1329 27.8007 51.0388C27.8007 51.0859 27.7537 50.9448 27.8478 50.8507C28.3652 50.4744 28.9297 50.098 29.4942 49.7688V48.4046C29.259 48.6398 28.0359 49.5806 27.8478 49.4865C27.8478 49.4865 27.8478 49.3454 27.8948 49.2984C28.4122 48.922 28.9767 48.5457 29.5412 48.2164V46.7111C29.306 46.9463 28.083 47.8871 27.8948 47.7931C27.8948 47.8401 27.8478 47.6519 27.9418 47.6049C28.4593 47.2286 29.0238 46.8523 29.5883 46.523V45.1118C29.3531 45.347 28.13 46.2878 27.9418 46.1937C27.9418 46.1466 27.9418 46.0996 27.9889 46.0055C27.9889 46.0055 29.1649 45.1588 29.6353 44.9236V43.6065C29.4001 43.8417 28.177 44.7825 27.9889 44.6884C27.9889 44.7354 27.9418 44.5943 28.0359 44.5002C28.5534 44.1239 29.1178 43.7476 29.6823 43.4183V43.3713C29.6353 43.3713 29.6353 43.3713 29.5883 43.3242C29.5412 43.3242 29.4942 43.3242 29.4942 43.2772C29.1649 43.2301 28.8826 43.1831 28.5534 43.1831H27.9889V43.4653L28.083 67.2678V67.8793H28.177C28.7415 67.9263 29.306 67.8323 29.8235 67.6441V67.5971L29.1178 65.9036ZM29.0708 54.8021C28.8356 55.0373 27.6126 55.9781 27.4244 55.884C27.4244 55.931 27.3774 55.7899 27.4714 55.6958C27.9889 55.3195 28.5534 54.9432 29.1178 54.6139L29.0708 54.8021ZM27.4244 52.4971C27.9418 52.1208 28.5063 51.7445 29.0708 51.4152V51.6033C28.8356 51.8385 27.6126 52.7793 27.4244 52.6853C27.3774 52.7323 27.3774 52.5441 27.4244 52.4971Z" fill="#A1A1A1"/>
<path d="M26.0602 55.2254C25.9662 55.0843 25.9191 54.9902 26.0132 54.9902H26.0602" fill="#A1A1A1"/>
<path fill-rule="evenodd" clip-rule="evenodd" d="M26.9069 63.834C26.9069 63.787 26.9069 63.74 26.8598 63.6929C26.8598 63.6929 26.3894 63.3166 26.0131 62.9873H25.9661C25.872 62.9873 25.872 63.0343 25.9661 63.1755C26.2954 63.5048 26.8128 63.8811 26.9069 63.834Z" fill="#A1A1A1"/>
<path fill-rule="evenodd" clip-rule="evenodd" d="M26.2015 67.9263C26.1545 67.9263 26.1074 67.9263 26.0604 67.8792V68.0204C26.0133 68.0204 26.0133 68.0204 26.0133 67.9733C25.9663 67.9263 25.9663 67.8792 25.9663 67.8322C25.9663 67.7852 25.9663 67.7852 26.0604 67.7852H26.1074C26.1074 67.8792 26.1545 67.9263 26.2015 67.9263Z" fill="#A1A1A1"/>
<path fill-rule="evenodd" clip-rule="evenodd" d="M29.1649 67.7383C29.0238 67.9265 28.4593 68.0205 27.6596 68.0205H27.1892C26.9069 68.0205 26.6717 67.9735 26.4365 67.9265C26.3895 67.9265 26.3425 67.9265 26.3425 67.8794C26.2954 67.8794 26.2954 67.8794 26.2484 67.8324L26.1543 67.7383C26.1543 67.6913 26.2484 67.6442 26.3895 67.5972C26.6717 67.5031 26.954 67.4561 27.2362 67.4561H27.6596C28.3652 67.4561 29.0238 67.5501 29.1649 67.7383Z" fill="#A1A1A1"/>
<path fill-rule="evenodd" clip-rule="evenodd" d="M29.0711 43.5122C28.6007 43.6533 28.0833 43.7004 27.5658 43.6533H27.0014C26.6721 43.7004 26.3428 43.6533 26.0605 43.5122C26.3428 43.4181 26.6721 43.3711 27.0014 43.3711H27.5658C28.0833 43.3711 28.5537 43.4181 29.0711 43.5122Z" fill="#A1A1A1"/>
<path d="M26.7661 54.2376C26.7191 54.2376 26.672 54.2847 26.625 54.3317L26.5309 54.2376C26.4839 54.1906 26.4839 54.1906 26.4839 54.1436V54.2376C26.4839 54.2376 26.4839 54.1906 26.5309 54.2376L26.625 54.3317V54.3788H26.5309C26.4839 54.3788 26.4839 54.3788 26.4839 54.3317V54.4258C26.4839 54.3788 26.4839 54.3788 26.5309 54.3788H26.672C26.7191 54.3788 26.7191 54.3788 26.7191 54.4258V54.3317C26.7191 54.3788 26.7191 54.3788 26.672 54.3788H26.578C26.625 54.3317 26.672 54.2847 26.7661 54.2376Z" fill="#A1A1A1"/>
<path d="M26.7189 53.9551C26.6719 53.9551 26.6719 54.0021 26.6248 54.0492C26.6248 54.0962 26.6248 54.0962 26.5778 54.0962C26.5308 54.0962 26.5308 54.0962 26.5308 54.0492C26.5308 54.0021 26.5308 54.0021 26.5778 54.0021H26.5308V54.0492C26.5308 54.0962 26.5778 54.1432 26.6248 54.1432C26.6719 54.1432 26.6719 54.0962 26.7189 54.0492C26.6719 54.0492 26.6719 54.0021 26.7189 53.9551C26.766 54.0021 26.766 54.0021 26.766 54.0492C26.766 54.0962 26.7189 54.1432 26.6719 54.1432H26.7189V54.0492C26.7189 54.0492 26.7189 54.0021 26.7189 53.9551Z" fill="#A1A1A1"/>
<path d="M26.7191 53.8143L26.7661 53.7202C26.7661 53.7673 26.7191 53.7673 26.7191 53.8143C26.625 53.8143 26.578 53.8143 26.4839 53.8613L26.7191 53.9554C26.7661 53.9554 26.7661 53.9554 26.7661 54.0025V53.9084C26.7661 53.9554 26.7661 53.9554 26.7191 53.9554H26.672L26.7191 53.8143ZM26.672 53.8613C26.625 53.8613 26.625 53.8613 26.578 53.8143L26.672 53.7673V53.8613Z" fill="#A1A1A1"/>
<path d="M28.1771 54.661V54.5669H28.083V54.8491H28.1771V54.7551H28.5534V54.661H28.1771Z" fill="#A1A1A1"/>
<path d="M28.4126 54.2373L28.5537 54.1903V54.0962L28.1304 54.1903V54.4255L28.1774 54.4725H28.2245L28.5537 54.5666V54.4725L28.3185 54.4255H28.1304V54.3314L28.3185 54.2844V54.4255L28.4126 54.3784V54.2373Z" fill="#A1A1A1"/>
<path d="M28.5537 53.5321V53.438L28.1304 53.5321V53.7202H28.2245L28.4597 53.7673L28.1774 53.8143V54.0025H28.2715L28.6008 54.0966V54.0025L28.2715 53.9084L28.6008 53.8614V53.7202L28.2715 53.6732L28.5537 53.5321Z" fill="#A1A1A1"/>
<path d="M28.4595 53.1084V53.3436H28.3654V53.1554H28.2713V53.3436H28.2243C28.1773 53.3436 28.1773 53.3436 28.1302 53.2966V53.1084L28.0361 53.1554V53.3436C28.0361 53.3906 28.0361 53.3906 28.0832 53.3906C28.1302 53.4377 28.1302 53.4377 28.1773 53.4377H28.4125C28.4595 53.4377 28.4595 53.4377 28.5065 53.3906C28.5536 53.3436 28.5536 53.3436 28.5536 53.2966V53.1084H28.4595Z" fill="#A1A1A1"/>
<path d="M28.4595 52.7795V52.9676H28.3654V52.7795H28.2713V52.9676H28.2243C28.1773 52.9676 28.1773 52.9676 28.1302 52.9206V52.7324L28.0361 52.7795V52.9676C28.0361 53.0147 28.0361 53.0147 28.0832 53.0147C28.1302 53.0617 28.1302 53.0617 28.1773 53.0617H28.4125C28.4595 53.0617 28.4595 53.0617 28.5065 53.0147C28.5065 53.0147 28.5536 52.9676 28.5536 52.9206V52.7324L28.4595 52.7795Z" fill="#A1A1A1"/>
<path d="M28.3656 52.4969V52.591L28.5537 52.4969V52.4028L28.3656 52.4969ZM28.3656 52.638H28.1304V52.4969H28.2245V52.638H28.3656L28.3185 52.4969C28.3185 52.4499 28.3185 52.4499 28.2715 52.4499C28.2245 52.4028 28.2245 52.4028 28.1774 52.4028C28.1304 52.4028 28.0833 52.4028 28.0363 52.4499C27.9893 52.4969 27.9893 52.4969 27.9893 52.544V52.7321H28.4126V52.638H28.3656Z" fill="#A1A1A1"/>
<path fill-rule="evenodd" clip-rule="evenodd" d="M22.1558 72.1598C22.0147 72.1598 21.9206 72.2069 21.7324 72.2069V71.8306C21.8735 71.9246 22.0147 72.0658 22.1558 72.1598Z" fill="#A1A1A1"/>
<path fill-rule="evenodd" clip-rule="evenodd" d="M22.7203 71.5486V72.1131C22.6262 72.1131 22.4851 72.1601 22.391 72.1601C22.2028 72.019 22.0147 71.8309 21.8265 71.7368C21.7795 71.6897 21.7795 71.6897 21.7324 71.6897V70.3256C22.0147 70.5608 22.2969 70.7489 22.5791 70.9371C22.5791 70.8901 22.5791 70.843 22.5321 70.796C22.5321 70.796 22.0617 70.4197 21.7324 70.1374V67.0798C21.9676 67.315 22.2969 67.5031 22.5791 67.6913C22.5791 67.6443 22.5791 67.5972 22.5321 67.5502C22.5321 67.5502 22.0617 67.1739 21.7324 66.8916V65.5275C21.9676 65.7627 22.2969 65.9508 22.5791 66.139C22.5791 66.0919 22.5791 66.0449 22.5321 65.9979C22.2969 65.7627 22.0147 65.5745 21.7324 65.3393V64.0222C21.9676 64.2574 22.2969 64.4455 22.5791 64.6337C22.5791 64.5866 22.5791 64.5396 22.5321 64.4926C22.5321 64.4926 22.0617 64.1162 21.7324 63.834V62.3287C21.9676 62.5639 22.2969 62.7521 22.5791 62.9402C22.5791 62.8932 22.5791 62.8462 22.5321 62.7991C22.5321 62.7991 22.0617 62.4228 21.7324 62.1405V60.7764C21.9676 61.0116 22.2969 61.1997 22.5791 61.3879C22.5791 61.3409 22.5791 61.2938 22.5321 61.2468C22.5321 61.2468 22.0617 60.8705 21.7324 60.5882V57.6247C21.9676 57.8599 22.2969 58.048 22.5791 58.2362C22.5791 58.1892 22.5791 58.1421 22.5321 58.0951C22.5321 58.0951 22.0617 57.7187 21.7324 57.4365V56.0723C21.9676 56.3075 22.2969 56.4957 22.5791 56.6839C22.5791 56.6368 22.5791 56.5898 22.5321 56.5427C22.5321 56.5427 22.0617 56.1664 21.7324 55.8842V54.3318C21.9676 54.567 22.2969 54.7552 22.5791 54.9434C22.5791 54.8963 22.5791 54.8493 22.5321 54.8022C22.5321 54.8022 22.0617 54.4259 21.7324 54.1437V52.6854C21.9676 52.9206 22.2969 53.1088 22.5791 53.297C22.5791 53.2499 22.5791 53.2029 22.5321 53.1558C22.5321 53.1558 22.0617 52.7795 21.7324 52.4973V51.2742C21.9676 51.5094 22.2969 51.6976 22.5791 51.8857C22.5791 51.8387 22.5791 51.7917 22.5321 51.7446C22.5321 51.7446 22.0617 51.3683 21.7324 51.0861V49.7689C22.0147 50.0041 22.2969 50.1923 22.5791 50.3804C22.5791 50.3334 22.5791 50.2864 22.5321 50.2393C22.5321 50.2393 22.0617 49.863 21.7324 49.5808V49.1104C21.7324 49.1104 21.7795 49.0633 21.8265 49.0633C21.8735 49.0633 21.9676 49.0163 22.0617 49.0163C22.2499 48.9692 22.4851 48.9692 22.7203 48.9692V49.2044L22.7673 68.444V71.5486H22.7203Z" fill="#A1A1A1"/>
<path fill-rule="evenodd" clip-rule="evenodd" d="M23.097 71.4544V68.2556L23.05 49.1572V48.875H24.3201C24.4142 48.875 24.4612 48.875 24.5083 48.922C24.5553 48.9691 24.6023 48.922 24.6023 48.9691H24.6964V49.0632C24.2731 49.2984 23.097 50.1451 23.05 50.1451C23.003 50.1451 23.003 50.3333 23.003 50.3333C23.2382 50.4273 24.4142 49.5806 24.6494 49.2513V50.5685C24.226 50.8037 23.003 51.6504 23.003 51.6504C22.9089 51.6974 22.9559 51.8385 22.9559 51.8385C23.1911 51.9326 24.3671 51.0859 24.6023 50.7566V52.1208C24.179 52.356 23.003 53.2027 22.9559 53.2027C22.9089 53.2027 22.9089 53.4379 22.9089 53.3909C23.1441 53.485 24.3201 52.5912 24.5553 52.3089V53.8142C24.1319 54.0494 22.9559 54.8962 22.9089 54.8962C22.8618 54.8962 22.8618 55.0843 22.8618 55.0843C23.097 55.1784 24.2731 54.2846 24.5083 54.0024V55.3195C24.0849 55.5547 22.9089 56.4015 22.8618 56.4015C22.8148 56.4015 22.8148 56.5896 22.8148 56.5896C23.05 56.6837 24.226 55.837 24.4612 55.5077V56.8719C24.0378 57.1071 22.8618 57.9538 22.8148 57.9538C22.7678 57.9538 22.7678 58.189 22.7678 58.142C23.003 58.236 24.179 57.3423 24.4142 57.06V60.0236C23.9908 60.2588 22.8148 61.1055 22.7678 61.1055C22.7207 61.1055 22.7207 61.2937 22.7207 61.2937C22.9559 61.3877 24.1319 60.541 24.3671 60.2117V61.5759C23.9438 61.8111 22.7678 62.6578 22.7207 62.6578C22.6737 62.6578 22.6737 62.893 22.6737 62.846C22.9089 62.9401 24.0849 62.0463 24.3201 61.7641V63.2694C23.8967 63.5046 22.7207 64.3513 22.6737 64.3513C22.6266 64.3513 22.6266 64.5865 22.6266 64.5394C22.8618 64.6335 24.0378 63.7398 24.2731 63.4575V64.7746C23.8497 65.0098 22.6737 65.8566 22.6266 65.8566C22.5796 65.8566 22.5796 66.0447 22.5796 66.0447C22.8148 66.1388 23.9908 65.2921 24.226 64.9628V66.327C23.8026 66.5622 22.6266 67.4089 22.5796 67.4089C22.5326 67.4089 22.5326 67.6441 22.5326 67.5971C22.7678 67.6911 23.9438 66.7974 24.179 66.5151V68.1145C23.9908 68.2086 23.7556 68.3497 23.5674 68.4908C23.097 68.7731 22.5796 69.1964 22.5796 69.1964C22.4855 69.2435 22.5326 69.3846 22.5326 69.3846C22.7678 69.4787 23.9438 68.632 24.179 68.3027V69.6668C23.7556 69.9021 22.5796 70.7488 22.5326 70.7488C22.4855 70.7488 22.4855 70.9369 22.4855 70.9369C22.7207 71.031 23.8967 70.1843 24.1319 69.855V71.2192C23.8967 71.3603 23.4263 71.6425 23.05 71.9248C22.8148 71.9718 22.6266 72.0189 22.4385 72.0659L23.097 71.4544Z" fill="#A1A1A1"/>
<path fill-rule="evenodd" clip-rule="evenodd" d="M24.4141 71.7365C24.5552 71.6424 24.6963 71.5483 24.7904 71.4072V71.6424L24.4141 71.7365Z" fill="#A1A1A1"/>
<path fill-rule="evenodd" clip-rule="evenodd" d="M24.7901 71.3605C24.6489 71.5016 24.5549 71.5957 24.4137 71.6897C24.5549 71.6427 24.6489 71.5957 24.8371 71.5486L24.7901 71.3605ZM24.7901 69.8081C24.5549 70.0433 23.3318 70.9841 23.1436 70.8901C23.1436 70.9371 23.0966 70.796 23.1907 70.7019C23.7081 70.3256 24.2726 69.9493 24.8371 69.62V68.2558C24.6019 68.491 23.3788 69.4318 23.1907 69.3377C23.1907 69.3848 23.1436 69.2436 23.2377 69.1496C23.2377 69.1496 23.7552 68.7732 24.2256 68.444C24.4608 68.2558 24.696 68.1617 24.8371 68.0676V66.4683C24.6019 66.7035 23.3788 67.6443 23.1907 67.5502C23.1907 67.5972 23.1436 67.4091 23.2377 67.362C23.7552 66.9857 24.3197 66.6094 24.8841 66.2801V64.9159C24.6489 65.1511 23.4259 66.0919 23.2377 65.9979C23.2377 66.0449 23.1907 65.9038 23.2848 65.8097C23.8022 65.4334 24.3667 65.0571 24.9312 64.7278V63.3636C24.696 63.5988 23.4729 64.5396 23.2848 64.4455C23.2848 64.4926 23.2377 64.3044 23.3318 64.2574C23.8492 63.881 24.4137 63.5047 24.9782 63.1754V61.6701C24.743 61.9054 23.52 62.8462 23.3318 62.7521C23.3318 62.7991 23.2848 62.611 23.3788 62.5639C23.8963 62.1876 24.4608 61.8113 25.0253 61.482V55.5079C24.7901 55.7431 23.567 56.6839 23.3788 56.5898C23.3788 56.6368 23.3318 56.4957 23.4259 56.4016C23.9433 56.0253 24.5078 55.649 25.0723 55.3197V53.9555C24.8371 54.1907 23.614 55.1315 23.4259 55.0375C23.4259 55.0375 23.4259 54.8963 23.4729 54.8493C23.9904 54.473 24.5549 54.0966 25.1193 53.7674V52.2621C24.8841 52.4973 23.6611 53.4381 23.4729 53.344C23.4729 53.391 23.4259 53.2029 23.52 53.1558C24.0374 52.7795 24.6019 52.4032 25.1664 52.0739V50.6627C24.9312 50.8979 23.7081 51.8387 23.52 51.7446C23.52 51.6976 23.52 51.6505 23.567 51.5565C23.567 51.5565 24.743 50.7097 25.2134 50.4745V49.1574C24.9782 49.3926 23.7552 50.3334 23.567 50.2393C23.567 50.2864 23.52 50.1453 23.614 50.0512C24.1315 49.6749 24.696 49.2985 25.2605 48.9692V48.9222H25.1664C25.1193 48.9222 25.0723 48.9222 25.0723 48.8752C25.0253 48.8752 24.9312 48.8752 24.8841 48.8281H23.52V49.1104L23.567 68.2088V71.972C23.8022 71.9249 23.9904 71.8779 24.1785 71.8309C24.5549 71.5957 24.9782 71.2664 25.2605 71.1253V70.8901L24.7901 69.8081ZM24.743 60.2119C24.5078 60.4471 23.2848 61.3879 23.0966 61.2938C23.0966 61.3409 23.0496 61.1997 23.1436 61.1057C23.6611 60.7293 24.2256 60.353 24.7901 60.0237L24.743 60.2119ZM23.0966 57.954C23.614 57.5776 24.1785 57.2013 24.743 56.872V57.0602C24.5078 57.2954 23.2848 58.2362 23.0966 58.1421C23.0966 58.048 23.0966 58.001 23.0966 57.954ZM22.6732 68.9614V68.3969L22.6262 49.1574V48.9222H21.9206C21.8265 48.9222 21.7795 48.9692 21.6854 48.9692C21.5913 48.9692 21.5913 49.0163 21.5913 49.0163V49.4867C21.8736 49.6748 22.1558 49.9101 22.391 50.1453C22.438 50.1923 22.438 50.2393 22.438 50.2864C22.344 50.3334 21.9206 50.0041 21.5913 49.6748V50.992C21.9206 51.2272 22.391 51.6505 22.391 51.6505C22.438 51.6976 22.438 51.7446 22.438 51.7917C22.344 51.8387 21.8736 51.5094 21.5913 51.1801V52.5443C21.8736 52.7325 22.1558 52.9677 22.391 53.2029C22.438 53.2499 22.438 53.297 22.438 53.344C22.344 53.391 21.8736 53.0618 21.5913 52.7325V54.1907C21.9206 54.4259 22.391 54.8493 22.391 54.8493C22.438 54.8963 22.438 54.9434 22.438 54.9904C22.344 55.0375 21.8736 54.7082 21.5913 54.3789V55.696C21.8736 55.8842 22.1558 56.1194 22.391 56.3546C22.438 56.4016 22.438 56.4487 22.438 56.4957C22.344 56.5427 21.8736 56.2135 21.5913 55.8842V57.2483C21.9206 57.4836 22.391 57.9069 22.391 57.9069C22.438 57.954 22.438 58.001 22.438 58.048C22.344 58.0951 21.8736 57.7658 21.5913 57.4365V60.4001C21.9206 60.6353 22.391 61.0586 22.391 61.0586C22.438 61.1057 22.438 61.1527 22.438 61.1997C22.344 61.2468 21.8736 60.9175 21.5913 60.5882V61.9524C21.8736 62.1405 22.1558 62.3758 22.391 62.611C22.438 62.658 22.438 62.705 22.438 62.7521C22.344 62.7991 21.8736 62.4698 21.5913 62.1406V63.6458C21.9206 63.881 22.391 64.3044 22.391 64.3044C22.438 64.3514 22.438 64.3985 22.438 64.4455C22.344 64.4926 21.8736 64.1633 21.5913 63.834V65.1511C21.8736 65.3393 22.1558 65.5745 22.391 65.8097C22.438 65.8567 22.438 65.9038 22.438 65.9508C22.344 65.9979 21.8736 65.6686 21.5913 65.3393V66.7035C21.8736 66.8916 22.1558 67.1268 22.391 67.362C22.438 67.4091 22.438 67.4561 22.438 67.5032C22.344 67.5502 21.8736 67.2209 21.5913 66.8916V69.9493C21.8736 70.1374 22.1558 70.3726 22.391 70.6078C22.438 70.6549 22.438 70.7019 22.438 70.7489C22.344 70.796 21.9206 70.4667 21.5913 70.1374V71.5016C21.6383 71.5016 21.6383 71.5486 21.6854 71.5486C21.8735 71.6897 22.0617 71.8309 22.2499 71.972C22.344 71.972 22.4851 71.9249 22.5792 71.9249V71.7368L22.6732 68.9614ZM21.7324 71.7838V72.1601C21.8736 72.1601 21.9676 72.1131 22.1558 72.1131C22.0147 72.0661 21.8736 71.925 21.7324 71.7838Z" fill="#A1A1A1"/>
<path d="M21.7326 60.682C21.6385 60.5409 21.5915 60.4468 21.6856 60.4468H21.7326" fill="#A1A1A1"/>
<path fill-rule="evenodd" clip-rule="evenodd" d="M22.5792 69.3374C22.5792 69.2904 22.5792 69.2434 22.5322 69.1963C22.5322 69.1963 22.0618 68.82 21.6855 68.4907H21.6384C21.5444 68.4907 21.5444 68.5378 21.6384 68.6789C21.9207 68.9611 22.25 69.1493 22.5792 69.3374Z" fill="#A1A1A1"/>
<path fill-rule="evenodd" clip-rule="evenodd" d="M24.743 49.0162C24.2726 49.1573 23.7552 49.2043 23.2377 49.1573H22.6732C22.3439 49.2043 22.0147 49.1573 21.7324 49.0162C21.7324 48.9221 22.1087 48.8751 22.6732 48.8751H23.2377C23.7552 48.828 24.2726 48.8751 24.743 49.0162Z" fill="#A1A1A1"/>
<path d="M22.4385 59.6473C22.3915 59.6473 22.3444 59.6943 22.2974 59.7414L22.2033 59.6473C22.1563 59.6003 22.1562 59.6003 22.1562 59.5532V59.6473C22.1562 59.6473 22.1563 59.6003 22.2033 59.6473L22.2974 59.7414V59.7884H22.2033C22.1563 59.7884 22.1562 59.7884 22.1562 59.7414V59.8355C22.1562 59.7884 22.1563 59.7884 22.2033 59.7884H22.3444C22.3915 59.7884 22.3915 59.7884 22.3915 59.8355V59.7414C22.3915 59.7884 22.3915 59.7884 22.3444 59.7884H22.2503C22.3444 59.7884 22.3915 59.7414 22.4385 59.6473Z" fill="#A1A1A1"/>
<path d="M22.3913 59.459C22.3442 59.459 22.3442 59.506 22.2972 59.5531C22.2972 59.6001 22.2972 59.6001 22.2502 59.6001C22.2031 59.6001 22.2031 59.6001 22.2031 59.5531C22.2031 59.506 22.2031 59.506 22.2502 59.506H22.2031V59.5531C22.2031 59.6001 22.2502 59.6471 22.2972 59.6471C22.3442 59.6471 22.3442 59.6001 22.3913 59.5531C22.3442 59.506 22.3442 59.506 22.3913 59.459C22.4383 59.506 22.4383 59.506 22.4383 59.5531C22.4383 59.6001 22.3913 59.6471 22.3442 59.6471H22.3913V59.5531C22.3913 59.506 22.3913 59.459 22.3913 59.459Z" fill="#A1A1A1"/>
<path d="M22.3915 59.224L22.4385 59.1299C22.4385 59.1769 22.4385 59.1769 22.3915 59.224C22.2974 59.224 22.2503 59.224 22.1562 59.271L22.3915 59.3651C22.4385 59.3651 22.4385 59.3651 22.4385 59.4121V59.318C22.4385 59.3651 22.4385 59.3651 22.3915 59.3651V59.224ZM22.3444 59.318C22.2974 59.318 22.2974 59.318 22.2503 59.271L22.3444 59.224V59.318Z" fill="#A1A1A1"/>
<path d="M23.8495 60.0706V59.9766H23.7554V60.2588H23.8495V60.2118H24.2258V60.1177H23.8495V60.0706Z" fill="#A1A1A1"/>
<path d="M24.0845 59.6473L24.2256 59.6003V59.5532L23.8022 59.6473V59.8825L23.8493 59.9295H23.8963L24.2256 60.0236V59.9295L23.9904 59.8825H23.8022V59.7884L23.9904 59.7414V59.8825L24.0845 59.8355V59.6473Z" fill="#A1A1A1"/>
<path d="M24.2256 59.0355V58.9414L23.8022 59.0355V59.2236H23.8963L24.1315 59.2707L23.8493 59.3177V59.5059H23.9434L24.2726 59.6V59.5059L23.9434 59.4118L24.2726 59.3648V59.1766L23.9434 59.1296L24.2256 59.0355Z" fill="#A1A1A1"/>
<path d="M24.1317 58.5654V58.8006H24.0847V58.6125H23.9906V58.8006H23.9435C23.8965 58.8006 23.8965 58.8006 23.8495 58.7536V58.5654L23.7554 58.6125V58.8006C23.7554 58.8477 23.7554 58.8477 23.8024 58.8477C23.8495 58.8947 23.8495 58.8947 23.8965 58.8947H24.1317C24.1787 58.8947 24.1787 58.8947 24.2258 58.8477C24.2728 58.8006 24.2728 58.8006 24.2728 58.7536V58.5654H24.1317Z" fill="#A1A1A1"/>
<path d="M24.1317 58.2358V58.424H24.0847V58.2829H23.9906V58.471H23.9435C23.8965 58.471 23.8965 58.471 23.8495 58.424V58.2358L23.7554 58.2829V58.471C23.7554 58.5181 23.7554 58.5181 23.8024 58.5181C23.8495 58.5651 23.8495 58.5651 23.8965 58.5651H24.1317C24.1787 58.5651 24.1787 58.5651 24.2258 58.5181C24.2258 58.5181 24.2728 58.471 24.2728 58.424V58.2829L24.1317 58.2358Z" fill="#A1A1A1"/>
<path d="M24.0848 58.0951H23.8496V57.9539H23.9437V58.0951H24.0848L24.0378 57.9539C24.0378 57.9069 24.0378 57.9069 23.9907 57.9069C23.9437 57.8599 23.9437 57.8599 23.8967 57.8599C23.8496 57.8599 23.8026 57.8599 23.7555 57.9069C23.7085 57.9539 23.7085 57.9539 23.7085 58.001V58.1891H24.1319V58.0951H24.0848ZM24.0848 58.001V58.0951L24.273 58.001V57.8599L24.0848 58.001Z" fill="#A1A1A1"/>
<path fill-rule="evenodd" clip-rule="evenodd" d="M18.2987 69.0552H17.499V68.4907C17.5931 68.5848 17.7342 68.6789 17.8283 68.773C17.8753 68.82 17.9224 68.867 17.9694 68.867C18.0165 68.867 18.0635 68.9141 18.0635 68.9611C18.0635 69.0082 18.1576 69.0082 18.1576 69.0552C18.2046 69.0552 18.2046 69.0552 18.2517 69.1022C18.2517 69.0082 18.2987 69.0082 18.2987 69.0552Z" fill="#A1A1A1"/>
<path fill-rule="evenodd" clip-rule="evenodd" d="M18.393 69.008H18.2989C18.2989 68.961 18.2989 68.9139 18.2518 68.8669C18.2518 68.8669 17.7814 68.4906 17.4521 68.2083V66.7031C17.6874 66.9383 18.0166 67.1264 18.2989 67.3146C18.2989 67.2675 18.2989 67.2205 18.2518 67.1735C18.2518 67.1735 17.7814 66.7971 17.4521 66.5149V65.1507C17.6874 65.3859 18.0166 65.5741 18.2989 65.7622C18.2989 65.7152 18.2989 65.6682 18.2518 65.6211C18.2518 65.6211 17.7814 65.2448 17.4521 64.9626V62.0931C17.6874 62.3283 18.0166 62.5165 18.2989 62.7046C18.2989 62.6576 18.2989 62.6105 18.2518 62.5635C18.2518 62.5635 17.7814 62.1872 17.4521 61.9049V60.5408C17.6874 60.776 18.0166 60.9641 18.2989 61.1523C18.2989 61.1052 18.2989 61.0582 18.2518 61.0112C18.2518 61.0112 17.7814 60.6348 17.4521 60.3526V59.0355C17.6874 59.2707 18.0166 59.4588 18.2989 59.647C18.2989 59.6 18.2989 59.5529 18.2518 59.5059C18.2518 59.5059 17.7814 59.1295 17.4521 58.8473V57.3891C17.6874 57.6243 18.0166 57.8124 18.2989 58.0006C18.2989 57.9535 18.2989 57.9065 18.2518 57.8595C18.2518 57.8595 17.7814 57.4831 17.4521 57.2009V55.8367C17.6874 56.0719 18.0166 56.2601 18.2989 56.4482C18.2989 56.4012 18.2989 56.3542 18.2518 56.3071C18.2518 56.3071 17.7814 55.9308 17.4521 55.6486V54.3314C17.7344 54.5666 18.0166 54.7548 18.2989 54.943C18.2989 54.8959 18.2989 54.8489 18.2518 54.8018C18.2518 54.8018 17.7814 54.4255 17.4521 54.1433V53.4847C17.4521 53.4847 17.4992 53.4377 17.5462 53.4377C17.6403 53.3906 17.7814 53.3906 17.8755 53.3906H18.393V69.008Z" fill="#A1A1A1"/>
<path fill-rule="evenodd" clip-rule="evenodd" d="M20.5097 67.8323C20.0864 68.0675 18.9103 68.9143 18.8633 68.9143C18.8163 68.9613 18.8163 69.0084 18.8163 69.0554L18.7692 53.7202V53.438H20.0864C20.1804 53.438 20.2275 53.438 20.2745 53.485C20.3216 53.5321 20.3686 53.485 20.3686 53.5321H20.4627V53.6262C20.0393 53.8614 18.8633 54.7081 18.8163 54.7081C18.7692 54.7081 18.7692 54.8962 18.7692 54.8962C19.0044 54.9903 20.1804 54.1436 20.4156 53.8143V55.1314C19.9923 55.3666 18.7692 56.2134 18.7692 56.2134C18.6751 56.2604 18.7222 56.4015 18.7222 56.4015C18.9574 56.4956 20.1334 55.6489 20.3686 55.3196V56.6838C19.9452 56.919 18.7692 57.7657 18.7222 57.7657C18.6751 57.7657 18.6751 58.0009 18.6751 57.9539C18.9103 58.0479 20.0864 57.1542 20.3216 56.8719V58.3772C19.8982 58.6124 18.7222 59.4592 18.6751 59.4592C18.6281 59.4592 18.6281 59.6473 18.6281 59.6473C18.8633 59.7414 20.0393 58.8476 20.2745 58.5654V59.8825C19.8512 60.1177 18.6751 60.9645 18.6281 60.9645C18.5811 60.9645 18.5811 61.1526 18.5811 61.1526C18.8163 61.2467 19.9923 60.4 20.2275 60.0707V61.4349C19.8041 61.6701 18.6281 62.5168 18.5811 62.5168C18.534 62.5168 18.534 62.752 18.534 62.7049C18.7692 62.799 19.9452 61.9053 20.1804 61.623V64.5866C19.7571 64.8218 18.5811 65.6685 18.534 65.6685C18.487 65.6685 18.487 65.8566 18.487 65.8566C18.7222 65.9507 19.8982 65.104 20.1334 64.7747V66.1389C19.71 66.3741 18.534 67.2208 18.487 67.2208C18.4399 67.2208 18.4399 67.456 18.4399 67.409C18.6751 67.5031 19.8512 66.6093 20.0864 66.3271L20.5097 67.8323Z" fill="#A1A1A1"/>
<path fill-rule="evenodd" clip-rule="evenodd" d="M20.5097 68.0205V68.8672C20.0393 68.9613 19.6159 69.0084 19.1455 69.0084C19.1925 68.9613 19.2396 68.9143 19.2866 68.9143L19.663 68.6791C19.8041 68.585 19.8982 68.4439 20.0393 68.3968C20.1804 68.3498 20.2274 68.2557 20.2745 68.1616C20.3686 68.1616 20.4626 68.1146 20.5097 68.0205Z" fill="#A1A1A1"/>
<path fill-rule="evenodd" clip-rule="evenodd" d="M20.5098 68.0202C20.4627 68.0672 20.4157 68.1143 20.3216 68.1613C20.2275 68.2554 20.1335 68.3024 20.0864 68.3965C19.9453 68.4906 19.8042 68.5847 19.7101 68.6787L19.3338 68.9139C19.2867 68.961 19.2397 69.008 19.1926 69.008C19.663 69.008 20.0864 68.9139 20.5568 68.8669L20.5098 68.0202ZM20.5098 66.3267C20.2746 66.5619 19.0515 67.5027 18.8634 67.4087C18.8634 67.4557 18.8163 67.2675 18.9104 67.2205C19.4278 66.8442 19.9923 66.4679 20.5568 66.1386V60.0704C20.3216 60.3056 19.0986 61.2464 18.9104 61.1523C18.9104 61.1993 18.8634 61.0582 18.9574 60.9641C19.4749 60.5878 20.0394 60.2115 20.6039 59.8822V58.518C20.3687 58.7532 19.1456 59.694 18.9574 59.6C18.9574 59.6 18.9574 59.4588 19.0045 59.4118C19.5219 59.0355 20.0864 58.6591 20.6509 58.3299V56.8246C20.4157 57.0598 19.1926 58.0006 19.0045 57.9065C19.0045 57.9535 18.9574 57.7654 19.0515 57.7183C19.569 57.342 20.1335 56.9657 20.6979 56.6364V55.2252C20.4627 55.4604 19.2397 56.4012 19.0515 56.3071C19.0515 56.2601 19.0515 56.213 19.0986 56.119C19.0986 56.119 20.2746 55.2722 20.745 55.037V53.7199C20.5098 53.9551 19.2867 54.8959 19.0986 54.8018C19.0986 54.8489 19.0515 54.7078 19.1456 54.6137C19.663 54.2374 20.2275 53.861 20.792 53.5317V53.4847H20.6979C20.6509 53.4847 20.6039 53.4847 20.6039 53.4377C20.5568 53.4377 20.4627 53.4377 20.4157 53.3906H19.0515V53.6729L19.0986 69.008C19.0986 68.961 19.0986 68.9139 19.1456 68.8669C19.663 68.4906 20.2275 68.1143 20.792 67.785L20.5098 66.3267ZM20.5098 64.7744C20.2746 65.0096 19.0515 65.9504 18.8634 65.8563C18.8634 65.9034 18.8163 65.7622 18.9104 65.6682C19.4278 65.2918 19.9923 64.9155 20.5568 64.5862L20.5098 64.7744ZM18.8163 62.7046C18.8163 62.7517 18.8163 62.5635 18.8634 62.5165C19.3808 62.1401 19.9453 61.7638 20.5098 61.4345V61.6227C20.2275 61.9049 19.0045 62.7987 18.8163 62.7046ZM18.2518 69.008C18.2048 69.008 18.2048 68.961 18.1578 68.961L18.0637 68.8669C18.0166 68.8669 17.9696 68.8199 17.9696 68.7728C17.9226 68.7258 17.8755 68.7258 17.8285 68.6787C17.6874 68.5847 17.5933 68.4906 17.4992 68.3965V68.961C17.7344 69.0551 17.9696 69.1021 18.2518 69.008ZM18.393 53.7199V53.4847H17.8755C17.6874 53.4847 17.6403 53.5317 17.5462 53.5317C17.4521 53.5317 17.4521 53.5788 17.4521 53.5788V54.0492C17.7344 54.2374 18.0166 54.4726 18.2518 54.7078C18.2989 54.7548 18.2989 54.8018 18.2989 54.8489C18.2048 54.8959 17.7814 54.5666 17.4521 54.2374V55.5545C17.7814 55.7897 18.2518 56.213 18.2518 56.213C18.2989 56.2601 18.2989 56.3071 18.2989 56.3542C18.2048 56.4012 17.7344 56.0719 17.4521 55.7426V57.1068C17.7344 57.295 18.0166 57.5302 18.2518 57.7654C18.2989 57.8124 18.2989 57.8595 18.2989 57.9065C18.2048 57.9535 17.7344 57.6243 17.4521 57.295V58.7532C17.7814 58.9884 18.2518 59.4118 18.2518 59.4118C18.2989 59.4588 18.2989 59.5059 18.2989 59.5529C18.2048 59.6 17.7344 59.2707 17.4521 58.9414V60.2585C17.7344 60.4467 18.0166 60.6819 18.2518 60.9171C18.2989 60.9641 18.2989 61.0112 18.2989 61.0582C18.2048 61.1052 17.7344 60.776 17.4521 60.4467V61.8108C17.7814 62.0461 18.2518 62.4694 18.2518 62.4694C18.2989 62.5165 18.2989 62.5635 18.2989 62.6105C18.2048 62.6576 17.7344 62.3283 17.4521 61.999V64.9626C17.7814 65.1978 18.2518 65.6211 18.2518 65.6211C18.2989 65.6682 18.2989 65.7152 18.2989 65.7622C18.2048 65.8093 17.7344 65.48 17.4521 65.1507V66.5149C17.7344 66.703 18.0166 66.9383 18.2518 67.1735C18.2989 67.2205 18.2989 67.2675 18.2989 67.3146C18.2048 67.3616 17.7344 67.0323 17.4521 66.7031V68.2083C17.7814 68.4435 18.2518 68.8669 18.2518 68.8669C18.2989 68.9139 18.2989 68.961 18.2989 69.008H18.393V53.7199Z" fill="#A1A1A1"/>
<path d="M17.4518 65.245C17.3578 65.1038 17.3107 65.0098 17.4048 65.0098H17.4518" fill="#A1A1A1"/>
<path fill-rule="evenodd" clip-rule="evenodd" d="M20.4627 53.5792C19.9923 53.7203 19.4749 53.7673 18.9574 53.7203H18.393C18.0637 53.7673 17.7344 53.7203 17.4521 53.5792C17.4521 53.4851 17.8285 53.4381 18.393 53.4381H18.9574C19.4749 53.391 19.9923 53.4381 20.4627 53.5792Z" fill="#A1A1A1"/>
<path d="M18.2046 64.2572V64.1631C18.1576 64.2101 18.1576 64.2101 18.2046 64.2572C18.1576 64.2572 18.1105 64.3042 18.0635 64.3513L17.9694 64.2572C17.9224 64.2101 17.9224 64.2101 17.9224 64.1631V64.2572C17.9224 64.2572 17.9224 64.2101 17.9694 64.2572L18.0635 64.3513V64.3983H17.9694C17.9224 64.3983 17.9224 64.3983 17.9224 64.3513V64.4453C17.9224 64.3983 17.9224 64.3983 17.9694 64.3983H18.1105C18.1576 64.3983 18.1576 64.3983 18.1576 64.4453V64.3513C18.1576 64.3983 18.1576 64.3983 18.1105 64.3983H18.0164C18.0635 64.3512 18.1576 64.3042 18.2046 64.2572Z" fill="#A1A1A1"/>
<path d="M18.1105 64.022C18.0635 64.022 18.0635 64.069 18.0164 64.1161C18.0164 64.1631 18.0164 64.1631 17.9694 64.1631C17.9224 64.1631 17.9224 64.1631 17.9224 64.1161C17.9224 64.069 17.9224 64.069 17.9694 64.069H17.9224V64.1161C17.9224 64.1631 17.9694 64.2101 18.0164 64.2101C18.0635 64.2101 18.0635 64.1631 18.1105 64.1161C18.0635 64.069 18.1105 64.069 18.1105 64.022C18.1576 64.069 18.1576 64.069 18.1576 64.1161C18.1576 64.1631 18.1105 64.2101 18.0635 64.2101H18.1105V64.1161C18.2046 64.069 18.1576 64.022 18.1105 64.022Z" fill="#A1A1A1"/>
<path d="M18.1576 63.787L18.2046 63.6929C18.1576 63.787 18.1576 63.787 18.1576 63.787C18.0635 63.787 18.0164 63.787 17.9224 63.834L18.1576 63.9281C18.2046 63.9281 18.2046 63.9281 18.2046 63.9751V63.881C18.2046 63.9281 18.2046 63.9281 18.1576 63.9281H18.1105V63.834C18.1105 63.787 18.1105 63.787 18.1576 63.787ZM18.0635 63.881C18.0164 63.881 18.0164 63.881 17.9694 63.834L18.0635 63.787V63.881Z" fill="#A1A1A1"/>
<path d="M19.6161 64.6805V64.5864H19.522V64.8687H19.6161V64.7746H19.9924V64.6805H19.6161Z" fill="#A1A1A1"/>
<path d="M19.8042 64.2573L19.9453 64.2103V64.1162L19.522 64.2103V64.4455L19.569 64.4925H19.6161L19.9453 64.5866V64.4455L19.7101 64.3984H19.522V64.2573L19.7101 64.2103V64.3514L19.8042 64.3044V64.2573Z" fill="#A1A1A1"/>
<path d="M19.9453 63.5985V63.5044L19.522 63.5985V63.7866H19.6161L19.8513 63.8337L19.569 63.8807V64.0689H19.6631L19.9924 64.163V64.0689L19.6631 63.9748L19.9924 63.9278V63.7866L19.6631 63.7396L19.9453 63.5985Z" fill="#A1A1A1"/>
<path d="M19.898 63.1753V63.4105H19.8039V63.2223H19.7098V63.4105H19.6628C19.6157 63.4105 19.6157 63.4105 19.5687 63.3635V63.1753L19.4746 63.2223V63.4105C19.4746 63.4575 19.4746 63.4575 19.5216 63.4575C19.5687 63.5046 19.5687 63.5046 19.6157 63.5046H19.8509C19.898 63.5046 19.898 63.5046 19.945 63.4575C19.9921 63.4105 19.9921 63.4105 19.9921 63.3635V63.1753H19.898Z" fill="#A1A1A1"/>
<path d="M19.898 62.8459V63.034H19.8039V62.8459H19.7098V63.034H19.6628C19.6157 63.034 19.6157 63.034 19.5687 62.987V62.7988L19.4746 62.8459V63.034C19.4746 63.0811 19.4746 63.0811 19.5216 63.0811C19.5687 63.1281 19.5687 63.1281 19.6157 63.1281H19.8509C19.898 63.1281 19.898 63.1281 19.945 63.0811C19.945 63.0811 19.9921 63.034 19.9921 62.987V62.7988L19.898 62.8459Z" fill="#A1A1A1"/>
<path d="M19.8041 62.5638V62.6579L19.9922 62.5638V62.4697L19.8041 62.5638ZM19.8041 62.7049H19.5689V62.5638H19.6629V62.7049H19.8041L19.757 62.5638C19.757 62.5168 19.757 62.5168 19.71 62.5168C19.6629 62.4697 19.6629 62.4697 19.6159 62.4697C19.5689 62.4697 19.5218 62.4697 19.4748 62.5168C19.4277 62.5638 19.4277 62.5638 19.4277 62.6108V62.799H19.8511V62.7049H19.8041Z" fill="#A1A1A1"/>
<path d="M6.16248 70.4196L5.50391 69.7611C5.45687 69.667 5.40983 69.62 5.36279 69.5259C5.59799 69.9022 5.92728 70.1374 6.16248 70.4196Z" fill="#A1A1A1"/>
<path d="M44.03 61.9521C41.5368 73.571 30.4824 81.4738 19.2397 79.6392C15.1942 78.9807 11.5251 77.052 8.65562 74.1355C8.60858 74.0885 8.5145 73.9944 8.42042 73.9473C7.24441 72.6773 6.20952 71.3131 5.36279 69.8078C5.55095 70.043 5.78616 70.2782 6.02136 70.4664L6.0684 70.5134C8.84378 73.1947 12.3718 74.9352 16.1821 75.5467C16.5584 75.6408 16.9818 75.6878 17.3581 75.7349C17.6874 75.7819 17.9696 75.829 18.2989 75.829H20.3687C29.8238 75.4056 38.3851 68.3495 40.4549 58.5181C41.9602 51.5091 39.7963 44.7353 35.3275 40.1724C36.3624 40.925 37.3032 41.7247 38.197 42.6655L38.244 42.7125C43.3244 47.2755 45.6764 54.4726 44.03 61.9521Z" fill="#A1A1A1"/>
<path d="M8.51421 73.9477C7.00891 72.4894 5.73882 70.796 4.75098 68.9614C4.98618 69.2437 5.22138 69.5259 5.50362 69.8081C6.35035 71.3134 7.3382 72.7247 8.51421 73.9477Z" fill="#A1A1A1"/>
<path d="M36.315 59.9765C34.6686 65.5273 30.3409 69.902 24.7431 71.5955C24.6019 71.6425 24.5079 71.6896 24.3197 71.7366C24.1315 71.8307 23.8963 71.8777 23.6611 71.9248C23.4259 71.9718 23.2378 72.0189 23.0496 72.0659C22.8614 72.1129 22.8144 72.1129 22.6733 72.16C22.5322 72.207 22.4381 72.207 22.344 72.207C22.2029 72.207 22.2029 72.2541 22.1088 72.2541C22.0147 72.2541 21.8736 72.3011 21.6854 72.3011C21.2621 72.3481 20.8387 72.3952 20.4624 72.3952C19.8979 72.3952 19.3334 72.3952 18.816 72.3481C18.6748 72.3481 18.5337 72.3481 18.4396 72.3011L17.4988 72.16C17.1225 72.1129 16.7932 72.0189 16.4169 71.9248C12.8889 71.0781 9.83126 68.9612 7.76148 65.9507C7.6674 65.8095 7.52628 65.6684 7.47924 65.5273C6.9618 64.7746 6.49139 63.9279 6.16211 63.0812C8.79637 66.7503 12.983 68.9612 17.4988 69.1494H18.7689V69.1964C18.863 69.1964 18.9571 69.1494 19.0041 69.1024H19.0512C19.5216 69.1024 19.9449 69.0083 20.4153 68.9612C26.8128 67.9264 31.9873 63.3634 33.8689 57.2011C35.3742 52.3089 34.2923 46.9934 31.0465 43.042C31.2817 43.2772 31.5169 43.4183 31.7521 43.6535H31.7991C36.2209 47.3697 38.1966 53.6731 36.315 59.9765Z" fill="#A1A1A1"/>
<path d="M19.1454 69.0083C19.0513 69.0553 18.9572 69.0553 18.9102 69.1024V69.0553C18.9572 69.0083 19.0042 69.0083 19.1454 69.0083Z" fill="#A1A1A1"/>
<path d="M52.3091 56.7306L53.0147 55.3194H54.8493C55.2256 55.3194 55.4608 55.0842 55.4608 54.6138C55.4608 53.7671 54.9904 53.0144 54.2377 52.6381L54.9433 51.415C56.1194 52.1206 56.825 53.0615 56.919 54.2845C56.919 54.5667 57.0131 54.849 57.1542 55.0842C57.3424 55.2253 57.6246 55.3194 57.8598 55.3194H58.7536V56.7306H57.8128C57.2954 56.7306 56.7779 56.5895 56.3546 56.2602C56.0253 56.5895 55.5549 56.7776 55.1315 56.7306H52.3091Z" fill="#A1A1A1"/>
<path d="M58.8006 59.3649C58.3772 59.3649 58.048 59.0826 58.048 58.6592C58.048 58.6122 58.048 58.6122 58.048 58.5652C58.0009 58.1888 58.2361 57.8596 58.6124 57.8125C58.6595 57.8125 58.7536 57.8125 58.8006 57.8125C59.224 57.8125 59.5532 58.0948 59.5532 58.5181C59.5532 58.5652 59.5532 58.5652 59.5532 58.6122C59.5062 59.0826 59.271 59.3649 58.8006 59.3649ZM58.142 56.7306V55.3194H59.224C59.4592 55.3194 59.6944 55.2723 59.8825 55.1312C60.0237 54.9431 60.0707 54.7079 60.0707 54.4727V52.3088L61.5289 51.5562V54.5667C61.623 55.6487 60.8233 56.6365 59.7414 56.7306C59.6473 56.7306 59.5062 56.7306 59.4121 56.7306H58.142ZM60.5881 59.3649C60.1648 59.3649 59.8355 59.0826 59.8355 58.6592C59.8355 58.6122 59.8355 58.6122 59.8355 58.5652C59.7884 58.1888 60.0236 57.8596 60.4 57.8125C60.447 57.8125 60.5411 57.8125 60.5881 57.8125C61.0115 57.8125 61.3408 58.0948 61.3408 58.5181C61.3408 58.5652 61.3408 58.5652 61.3408 58.6122C61.2937 59.0826 61.1056 59.3649 60.5881 59.3649Z" fill="#A1A1A1"/>
<path d="M62.6577 56.7306L63.3633 55.3194H65.1979C65.5742 55.3194 65.8094 55.0842 65.8094 54.6138C65.8094 53.7671 65.339 53.0144 64.5864 52.6381L65.292 51.415C66.468 52.1206 67.1736 53.0615 67.2677 54.2845C67.2677 54.5667 67.3618 54.849 67.5029 55.0842C67.691 55.2253 67.9733 55.3194 68.2085 55.3194H69.1022V56.7306H68.1614C67.644 56.7306 67.1266 56.5895 66.7032 56.2602C66.3739 56.5895 65.9035 56.7776 65.4801 56.7306H62.6577Z" fill="#A1A1A1"/>
<path d="M76.0644 55.3194H77.0522V56.7306H76.0644C75.5469 56.7306 75.0295 56.6836 74.5591 56.4954C74.1357 56.3543 73.8065 56.1191 73.5242 55.7898C72.4893 56.4013 71.3604 56.7306 70.1373 56.7306H68.4438V55.3194H70.1843C71.4074 55.3664 72.5834 54.9431 73.4301 54.0963C72.9127 53.1555 72.2541 52.7322 71.5015 52.7322C70.8429 52.7322 70.2314 53.0615 69.4317 53.7671V52.497C69.9962 51.8384 70.7959 51.415 71.6426 51.415C72.3012 51.415 72.9127 51.6502 73.3831 52.1206C73.9946 52.6381 74.5121 53.2967 74.9354 54.0023V54.6138C74.7943 54.8019 74.6532 54.9431 74.465 55.1783C75.0295 55.2723 75.5469 55.3664 76.0644 55.3194Z" fill="#A1A1A1"/>
<path d="M76.3467 56.7306V55.3194H77.0993C77.3816 55.3194 77.6638 55.2723 77.852 55.0841C78.0401 54.8489 78.0872 54.5667 78.0872 54.2845V49.9567L79.5454 49.2041V54.2845C79.5925 54.943 79.3573 55.6016 78.8398 56.072C78.3694 56.4954 77.8049 56.7306 77.1934 56.6835L76.3467 56.7306Z" fill="#A1A1A1"/>
<path d="M81.6621 56.7306V49.9567L83.1204 49.2041V56.7306H81.6621Z" fill="#A1A1A1"/>
<path d="M90.9759 55.3194H92.0578V56.7306H90.8818C90.6466 56.7306 90.4114 56.6836 90.1762 56.6365C90.1291 57.2951 89.7998 57.9536 89.2824 58.377C88.812 58.7533 88.2475 58.9885 87.636 58.9885C87.1185 58.9885 86.6481 58.8474 86.1777 58.6122V57.3421C86.5541 57.5303 86.9774 57.6714 87.3537 57.6714C87.7301 57.7184 88.1064 57.5303 88.3416 57.248C88.6238 56.9188 88.7179 56.4954 88.6709 56.072V52.3088L89.6117 51.7914L90.1291 51.5562V54.5197C90.0821 54.7549 90.1762 54.9901 90.3173 55.1783C90.4584 55.3194 90.6936 55.3664 90.9759 55.3194Z" fill="#A1A1A1"/>
<path d="M95.4921 55.3194H96.574V56.7306H95.398C94.8806 56.7306 94.4102 56.5895 93.9868 56.2602C93.5634 56.5895 93.093 56.7306 92.5756 56.7306H91.3525V55.3194H92.4345C92.6697 55.3194 92.9049 55.2723 93.093 55.1312C93.2342 54.9431 93.2812 54.7079 93.2812 54.4727V52.3088L94.7394 51.5562V54.5197C94.6924 54.7549 94.7865 54.9901 94.9276 55.1783C95.0217 55.3194 95.2569 55.3664 95.4921 55.3194ZM92.4815 57.8125C92.9049 57.8125 93.2342 58.0948 93.2342 58.5181C93.2342 58.5652 93.2342 58.5652 93.2342 58.6122C93.2812 58.9885 93.046 59.3178 92.6697 59.3649C92.6226 59.3649 92.5286 59.3649 92.4815 59.3649C92.0581 59.3649 91.7289 59.0826 91.7289 58.6592C91.7289 58.6122 91.7289 58.6122 91.7289 58.5652C91.6818 58.1888 91.917 57.8596 92.2933 57.8125C92.3404 57.8125 92.3874 57.8125 92.4815 57.8125ZM94.269 57.8125C94.6924 57.8125 95.0217 58.0948 95.0217 58.5181C95.0217 58.5652 95.0217 58.5652 95.0217 58.6122C95.0687 58.9885 94.8335 59.3178 94.4572 59.3649C94.4102 59.3649 94.3161 59.3649 94.269 59.3649C93.8457 59.3649 93.5164 59.0826 93.5164 58.6592C93.5164 58.6122 93.5164 58.6122 93.5164 58.5652C93.4694 58.1888 93.7046 57.8596 94.0809 57.8125C94.1279 57.8125 94.175 57.8125 94.269 57.8125Z" fill="#A1A1A1"/>
<path d="M103.206 55.3193H104.241V56.7305H103.065C102.595 56.7775 102.077 56.5894 101.701 56.3071C101.278 56.7305 100.666 57.0127 100.055 57.0127C99.4432 57.0598 98.8317 56.7775 98.4083 56.3071C98.032 56.5894 97.5146 56.7305 97.0442 56.7305H95.8682V55.3193H96.9501C97.1853 55.3193 97.4205 55.2722 97.6087 55.1311C97.7498 54.943 97.7968 54.7078 97.7968 54.4726V54.1433C97.7498 53.3436 98.032 52.5909 98.5024 52.0265C98.9258 51.6031 99.5373 51.3209 100.149 51.3209C100.854 51.2738 101.56 51.6031 101.983 52.1676C102.36 52.7321 102.548 53.3906 102.548 54.0962V54.4255C102.548 54.6607 102.595 54.8959 102.783 55.0841C102.783 55.3193 102.971 55.3193 103.206 55.3193ZM100.055 55.6015C100.666 55.6015 100.949 55.1311 100.949 54.1433C100.949 53.1554 100.666 52.7791 100.055 52.7791C99.4432 52.7791 99.161 53.2495 99.161 54.1433C99.161 55.1311 99.4432 55.6015 100.055 55.6015Z" fill="#A1A1A1"/>
<path d="M109.322 55.3197H112.521L112.568 56.7309H109.228C108.851 56.7309 108.428 56.6368 108.099 56.4486C107.769 56.6368 107.393 56.7309 106.97 56.7309H103.63V55.3197H106.782C106.499 55.1315 106.217 54.8963 105.935 54.6141C105.794 54.473 105.606 54.2848 105.323 53.9555C105.229 53.8614 105.182 53.8144 105.088 53.7203V53.0147C105.417 52.4973 105.888 52.0739 106.405 51.7917C107.44 51.1801 108.71 51.1801 109.745 51.7917C110.31 52.1209 110.78 52.5443 111.109 53.0617V53.7203C110.639 54.3789 109.98 54.8963 109.322 55.3197ZM108.052 54.8022C108.569 54.4259 108.992 53.9555 109.322 53.4381C108.992 53.0617 108.522 52.8265 108.005 52.7795C107.534 52.8265 107.064 53.0617 106.782 53.4381C107.111 53.9555 107.534 54.4259 108.052 54.8022Z" fill="#A1A1A1"/>
<path d="M111.862 56.7307V55.3195H112.944C113.179 55.3195 113.414 55.2725 113.602 55.1314C113.743 54.9432 113.79 54.708 113.79 54.4728V52.3089L115.249 51.5563V54.5669C115.343 55.6488 114.543 56.6367 113.461 56.7307C113.367 56.7307 113.226 56.7307 113.132 56.7307H111.862ZM112.662 50.4273C112.238 50.4273 111.909 50.1451 111.909 49.7217C111.909 49.6747 111.909 49.6747 111.909 49.6276C111.862 49.2513 112.097 48.922 112.473 48.875C112.52 48.875 112.614 48.875 112.662 48.875C113.085 48.875 113.414 49.1572 113.414 49.5806C113.414 49.6276 113.414 49.6276 113.414 49.6747C113.461 50.051 113.179 50.3803 112.803 50.4273C112.803 50.4273 112.756 50.4273 112.662 50.4273ZM114.496 50.4273C114.073 50.4273 113.743 50.1451 113.743 49.7217C113.743 49.6747 113.743 49.6747 113.743 49.6276C113.696 49.2513 113.932 48.922 114.308 48.875C114.355 48.875 114.449 48.875 114.496 48.875C114.919 48.875 115.249 49.1572 115.249 49.5806C115.249 49.6276 115.249 49.6276 115.249 49.6747C115.296 50.051 115.014 50.3803 114.637 50.4273C114.59 50.4273 114.543 50.4273 114.496 50.4273Z" fill="#A1A1A1"/>
<path d="M53.5789 66.6093H51.6973V65.5273H56.9658V66.6093H54.9431V71.9719H53.5789V66.6093Z" fill="#A1A1A1"/>
<path d="M58.9417 65.5273H60.0707L62.4697 71.9719H61.1056C60.9644 71.6426 60.8704 71.1722 60.6822 70.6077H58.3772C58.2831 70.8899 58.142 71.3603 57.9538 71.9719H56.6367L58.9417 65.5273ZM59.5062 67.2678C59.318 67.8323 59.0358 68.5379 58.7535 69.5258H60.3059C60.0236 68.585 59.7414 67.8323 59.5062 67.2678Z" fill="#A1A1A1"/>
<path d="M66.7976 70.4192C67.1739 69.008 67.6913 67.3616 68.3499 65.48H70.2785V71.9716H68.9144V66.703C68.491 68.4906 67.9736 70.2311 67.315 71.9716H66.186C65.4334 69.6195 64.9159 67.9261 64.5867 66.7501V71.9716H63.2695V65.527H65.1511C65.8097 67.1264 66.3272 68.7728 66.7976 70.4192Z" fill="#A1A1A1"/>
<path d="M71.7363 65.5273H75.97V66.6093H73.0535V68.1616H75.4525V69.2435H73.0535V70.937H76.1111V72.0189H71.7363V65.5273Z" fill="#A1A1A1"/>
<path d="M76.9111 65.5273H81.1448V66.6093H78.2283V68.1616H80.6273V69.2435H78.2283V70.937H81.2859V72.0189H76.9111V65.5273Z" fill="#A1A1A1"/>
<path d="M82.2734 71.9719V65.5274C82.3675 65.5274 82.6498 65.4803 83.0731 65.4333C83.4024 65.3862 83.7787 65.3862 84.108 65.3862C85.7544 65.3862 86.6012 66.0918 86.6012 67.409C86.6012 68.1616 86.2719 68.8202 85.7074 69.2906C85.9426 69.8551 86.413 70.7488 86.9304 71.9719H85.5663C85.237 71.2663 84.8607 70.4666 84.4843 69.6199H84.2021C84.0139 69.6199 83.7787 69.6199 83.5906 69.5258V71.9248L82.2734 71.9719ZM83.5906 66.5622V68.5379C83.8258 68.585 84.061 68.632 84.2962 68.632C84.9077 68.632 85.1899 68.2557 85.1899 67.456C85.1899 66.7974 84.9077 66.5152 84.2962 66.5152C84.061 66.4682 83.8258 66.4682 83.5906 66.5622Z" fill="#A1A1A1"/>
<path d="M94.128 66.0447C93.9869 66.2329 93.8458 66.5151 93.5635 66.8444C93.0931 66.6092 92.6227 66.5151 92.1053 66.5151C91.5408 66.5151 91.2585 66.7503 91.2585 67.1737C91.2585 67.3618 91.3526 67.503 91.4937 67.6441C91.729 67.8322 92.0112 67.9734 92.2934 68.0204C92.905 68.2086 93.4224 68.5378 93.8928 68.9612C94.2221 69.2905 94.3632 69.7139 94.3632 70.1372C94.3632 70.7487 94.128 71.3132 93.6576 71.6895C93.1872 72.0188 92.6698 72.16 92.1053 72.1129C91.2585 72.0659 90.4589 71.8307 89.8003 71.3603L90.4118 70.5606C90.8822 70.8428 91.3997 70.9839 91.9642 70.9369C92.6698 70.9369 93.0461 70.6547 93.0461 70.0902C93.0461 69.7139 92.6698 69.3846 91.8701 69.1494C90.647 68.726 90.0355 68.0674 90.0355 67.1737C90.0355 66.6562 90.2237 66.1858 90.647 65.9036C91.0704 65.5743 91.6349 65.4332 92.1994 65.4332C92.8109 65.3861 93.5165 65.6213 94.128 66.0447Z" fill="#A1A1A1"/>
<path d="M96.6209 66.6093H94.7393V65.5273H100.008V66.6093H97.985V71.9719H96.6209V66.6093Z" fill="#A1A1A1"/>
<path d="M100.808 65.5273H105.041V66.6093H102.125V68.1616H104.524V69.2435H102.125V70.937H105.182V72.0189H100.808V65.5273Z" fill="#A1A1A1"/>
<path d="M106.029 65.5273H110.262V66.6093H107.346V68.1616H109.745V69.2435H107.346V70.937H110.404V72.0189H106.029V65.5273Z" fill="#A1A1A1"/>
<path d="M111.345 71.9719V65.5273H112.662V70.937H115.108V72.0189H111.345V71.9719Z" fill="#A1A1A1"/>
</svg>
