<svg width="176" height="176" viewBox="0 0 176 176" fill="none" xmlns="http://www.w3.org/2000/svg">
<path d="M100.267 67.4961V88.3979H91.2946V86.5182H98.391V69.3723H84.4412V86.5182H87.8063V88.3979H82.5615V67.4961H100.267Z" fill="#A1A1A1"/>
<path d="M81.7344 67.4961V69.3723H77.6125V79.8231H75.7363V67.4961H81.7344Z" fill="#A1A1A1"/>
<path d="M100.267 89.2251V92.0446H91.3125V90.1614H98.3912V89.2251H100.267Z" fill="#A1A1A1"/>
<path d="M90.4886 80.6504V92.0446H75.7363V80.6504H81.752V82.5477H77.616V90.1614H88.6125V82.5477H85.2474V80.6504H90.4886Z" fill="#A1A1A1"/>
<path d="M131.12 107.786H130.627V108.451H131.12V107.786Z" fill="#A1A1A1"/>
<path d="M128.832 104.836C127.895 104.836 127.459 105.695 127.459 106.666C127.459 107.638 127.895 108.504 128.832 108.504C129.768 108.504 130.205 107.641 130.205 106.666C130.205 105.691 129.775 104.836 128.832 104.836ZM128.832 107.934C128.226 107.934 128.001 107.342 128.001 106.666C128.001 105.991 128.226 105.403 128.832 105.403C129.437 105.403 129.666 105.998 129.666 106.666C129.666 107.335 129.444 107.934 128.832 107.934Z" fill="#A1A1A1"/>
<path d="M125.988 107.895C125.379 107.895 125.122 107.353 125.122 106.645C125.122 105.938 125.379 105.442 125.981 105.442C126.168 105.432 126.352 105.494 126.495 105.615C126.638 105.736 126.73 105.907 126.752 106.093L127.227 105.853C126.998 105.188 126.548 104.829 125.985 104.829C125.052 104.829 124.615 105.692 124.615 106.67C124.615 107.649 125.055 108.504 125.988 108.504C126.555 108.504 127.005 108.152 127.231 107.476L126.759 107.233C126.608 107.712 126.368 107.895 125.988 107.895Z" fill="#A1A1A1"/>
<path d="M122.063 107.043H122.686C122.686 107.624 122.359 107.93 121.912 107.93C121.303 107.93 121.046 107.353 121.046 106.645C121.046 105.938 121.303 105.389 121.905 105.389C122.099 105.392 122.285 105.465 122.43 105.594C122.575 105.724 122.668 105.9 122.693 106.093L123.147 105.853C122.919 105.188 122.468 104.829 121.908 104.829C120.968 104.829 120.539 105.692 120.539 106.67C120.539 107.649 120.979 108.504 121.912 108.504C122.091 108.505 122.266 108.453 122.416 108.355C122.566 108.257 122.683 108.116 122.753 107.951L122.799 108.455H123.2V106.526H122.063V107.043Z" fill="#A1A1A1"/>
<path d="M119.515 107.381L118.321 104.889H117.814V108.455H118.307V105.949L119.497 108.455H120.007V104.889H119.515V107.381Z" fill="#A1A1A1"/>
<path d="M117.082 104.889H116.572V108.455H117.082V104.889Z" fill="#A1A1A1"/>
<path d="M115.924 105.952C115.937 105.817 115.92 105.68 115.876 105.551C115.832 105.422 115.762 105.304 115.669 105.205C115.576 105.105 115.464 105.026 115.339 104.973C115.213 104.92 115.078 104.894 114.942 104.896H114.023V108.462H114.53V106.938H114.882L115.586 108.462H116.16L115.365 106.874C115.538 106.793 115.684 106.662 115.784 106.498C115.883 106.334 115.932 106.144 115.924 105.952ZM114.984 106.427H114.537V105.48H114.946C115.009 105.476 115.072 105.486 115.131 105.508C115.191 105.53 115.245 105.565 115.29 105.609C115.334 105.654 115.369 105.708 115.392 105.767C115.415 105.826 115.424 105.889 115.421 105.952C115.424 106.011 115.415 106.07 115.394 106.126C115.373 106.181 115.342 106.232 115.301 106.275C115.26 106.317 115.211 106.351 115.156 106.375C115.102 106.398 115.044 106.41 114.984 106.41V106.427Z" fill="#A1A1A1"/>
<path d="M112.844 107.008C112.844 107.582 112.728 107.902 112.27 107.902C111.813 107.902 111.693 107.582 111.693 107.008V104.896H111.183V107.071C111.183 107.944 111.506 108.511 112.27 108.511C113.034 108.511 113.358 107.944 113.358 107.043V104.896H112.844V107.008Z" fill="#A1A1A1"/>
<path d="M108.536 105.459H109.43V108.455H109.937V105.459H110.827V104.889H108.536V105.459Z" fill="#A1A1A1"/>
<path d="M107.191 107.895C106.582 107.895 106.322 107.353 106.322 106.645C106.322 105.938 106.582 105.442 107.181 105.442C107.368 105.431 107.552 105.493 107.695 105.614C107.839 105.735 107.93 105.906 107.952 106.093L108.427 105.853C108.198 105.188 107.751 104.829 107.184 104.829C106.251 104.829 105.815 105.692 105.815 106.67C105.815 107.649 106.255 108.504 107.191 108.504C107.754 108.504 108.209 108.152 108.434 107.476L107.959 107.233C107.807 107.712 107.557 107.895 107.191 107.895Z" fill="#A1A1A1"/>
<path d="M104.252 104.896L103.115 108.462H103.674L103.9 107.687H104.991L105.213 108.462H105.765L104.635 104.896H104.252ZM104.062 107.138L104.445 105.836L104.825 107.138H104.062Z" fill="#A1A1A1"/>
<path d="M101.707 105.477H103.21V104.889H101.196V108.455H101.707V106.966H103.034V106.375H101.707V105.477Z" fill="#A1A1A1"/>
<path d="M100.021 107.008C100.021 107.582 99.9012 107.902 99.4436 107.902C98.986 107.902 98.8664 107.582 98.8664 107.008V104.896H98.356V107.071C98.356 107.944 98.6798 108.511 99.4436 108.511C100.207 108.511 100.531 107.944 100.531 107.043V104.896H100.021V107.008Z" fill="#A1A1A1"/>
<path d="M97.1977 107.381L96.0044 104.889H95.4976V108.455H95.9868V105.949L97.1801 108.455H97.6905V104.889H97.1977V107.381Z" fill="#A1A1A1"/>
<path d="M93.5931 104.896L92.4526 108.462H93.0123L93.2411 107.687H94.3358L94.5611 108.462H95.1138L93.9838 104.896H93.5931ZM93.3995 107.138L93.7867 105.836L94.1669 107.138H93.3995Z" fill="#A1A1A1"/>
<path d="M90.6223 107.424L89.869 104.889H89.1826V108.455H89.6719V105.79L90.3759 108.145H90.8687L91.5727 105.79V108.455H92.0655V104.889H91.3756L90.6223 107.424Z" fill="#A1A1A1"/>
<path d="M87.5425 105.952C87.5544 105.816 87.5376 105.68 87.4932 105.551C87.4488 105.422 87.3779 105.304 87.2849 105.205C87.192 105.105 87.0791 105.026 86.9537 104.973C86.8283 104.92 86.6931 104.894 86.5569 104.896H85.6382V108.462H86.1486V106.938H86.5006L87.2046 108.462H87.7854L86.9969 106.874C87.1677 106.79 87.3102 106.658 87.4072 106.495C87.5041 106.331 87.5511 106.142 87.5425 105.952ZM86.5921 106.41H86.1415V105.463H86.5463C86.6109 105.459 86.6757 105.468 86.7361 105.491C86.7966 105.514 86.8514 105.55 86.8969 105.596C86.9423 105.642 86.9773 105.698 86.9994 105.758C87.0215 105.819 87.0303 105.884 87.0251 105.949C87.0284 106.008 87.0197 106.067 86.9995 106.122C86.9793 106.178 86.948 106.229 86.9075 106.272C86.867 106.315 86.8182 106.35 86.7639 106.373C86.7097 106.397 86.6513 106.409 86.5921 106.41Z" fill="#A1A1A1"/>
<path d="M83.741 104.836C82.8011 104.836 82.3682 105.695 82.3682 106.666C82.3682 107.638 82.8011 108.504 83.741 108.504C84.6808 108.504 85.1067 107.641 85.1067 106.666C85.1067 105.691 84.6773 104.836 83.741 104.836ZM83.741 107.934C83.1285 107.934 82.9067 107.342 82.9067 106.666C82.9067 105.991 83.1285 105.403 83.741 105.403C84.3534 105.403 84.5717 105.998 84.5717 106.666C84.5717 107.335 84.3464 107.934 83.741 107.934Z" fill="#A1A1A1"/>
<path d="M80.1045 108.455H80.6149V106.966H81.9419V106.375H80.6149V105.477H82.1215V104.889H80.1045V108.455Z" fill="#A1A1A1"/>
<path d="M77.8697 106.375H76.6271V104.889H76.1167V108.455H76.6271V106.966H77.8697V108.455H78.3836V104.889H77.8697V106.375Z" fill="#A1A1A1"/>
<path d="M73.4165 105.459H74.3071V108.455H74.8175V105.459H75.708V104.889H73.4165V105.459Z" fill="#A1A1A1"/>
<path d="M72.1072 104.896L70.9702 108.462H71.5299L71.7552 107.687H72.8429L73.0681 108.462H73.6208L72.4909 104.896H72.1072ZM71.9171 107.138L72.3008 105.836L72.6809 107.138H71.9171Z" fill="#A1A1A1"/>
<path d="M69.654 104.889H69.1436V108.455H70.8684V107.849H69.654V104.889Z" fill="#A1A1A1"/>
<path d="M67.2321 104.836C66.2958 104.836 65.8628 105.695 65.8628 106.666C65.8628 107.638 66.2958 108.504 67.2321 108.504C68.1684 108.504 68.6049 107.641 68.6049 106.666C68.6049 105.691 68.1825 104.836 67.2321 104.836ZM67.2321 107.934C66.6231 107.934 66.4014 107.342 66.4014 106.666C66.4014 105.991 66.6231 105.403 67.2321 105.403C67.841 105.403 68.0628 105.998 68.0628 106.666C68.0628 107.335 67.8516 107.934 67.2321 107.934Z" fill="#A1A1A1"/>
<path d="M63.6064 108.455H64.1168V106.966H65.4474V106.375H64.1168V105.477H65.6234V104.889H63.6064V108.455Z" fill="#A1A1A1"/>
<path d="M62.9589 106.709H61.7832V107.174H62.9589V106.709Z" fill="#A1A1A1"/>
<path d="M60.3292 104.889H59.8188V108.455H61.5436V107.849H60.3292V104.889Z" fill="#A1A1A1"/>
<path d="M57.9109 104.896L56.7739 108.462H57.3336L57.5624 107.687H58.6501L58.8789 108.462H59.428L58.2946 104.896H57.9109ZM57.7208 107.138L58.108 105.836L58.4917 107.138H57.7208Z" fill="#A1A1A1"/>
<path d="M55.3942 104.889H54.8838V108.455H55.3942V104.889Z" fill="#A1A1A1"/>
<path d="M52.9758 104.896L51.8389 108.462H52.3985L52.6273 107.687H53.7115L53.9368 108.462H54.4929L53.3595 104.896H52.9758ZM52.7857 107.138L53.1729 105.836L53.5496 107.138H52.7857Z" fill="#A1A1A1"/>
<path d="M50.5226 104.889H50.0122V108.455H51.737V107.849H50.5226V104.889Z" fill="#A1A1A1"/>
<path d="M48.1077 104.896L46.9707 108.462H47.5198L47.7521 107.687H48.8398L49.0651 108.462H49.6318L48.4913 104.896H48.1077ZM47.9176 107.138L48.2977 105.836L48.6814 107.138H47.9176Z" fill="#A1A1A1"/>
<path d="M47.1714 104.889H44.8799V105.459H45.7704V108.455H46.2808V105.459H47.1714V104.889Z" fill="#A1A1A1"/>
<path d="M130.096 96.3176C130.089 96.3903 130.111 96.4628 130.157 96.5194C130.203 96.5761 130.27 96.6123 130.342 96.6203C130.412 96.6052 130.475 96.5666 130.52 96.5108C130.565 96.4551 130.589 96.3857 130.589 96.3141C130.589 96.2424 130.565 96.173 130.52 96.1173C130.475 96.0615 130.412 96.0229 130.342 96.0078C130.306 96.0117 130.27 96.0229 130.238 96.0407C130.206 96.0584 130.177 96.0824 130.154 96.1112C130.131 96.14 130.114 96.1731 130.104 96.2085C130.094 96.2439 130.091 96.281 130.096 96.3176Z" fill="#A1A1A1"/>
<path d="M129.751 96.6203C129.821 96.6052 129.883 96.5666 129.928 96.5108C129.973 96.4551 129.998 96.3857 129.998 96.3141C129.998 96.2424 129.973 96.173 129.928 96.1173C129.883 96.0615 129.821 96.0229 129.751 96.0078C129.681 96.0229 129.618 96.0615 129.573 96.1173C129.528 96.173 129.503 96.2424 129.503 96.3141C129.503 96.3857 129.528 96.4551 129.573 96.5108C129.618 96.5666 129.681 96.6052 129.751 96.6203Z" fill="#A1A1A1"/>
<path d="M130.05 96.0078C130.18 96.0078 130.289 95.86 130.289 95.6945C130.289 95.5291 130.18 95.3848 130.05 95.3848C129.98 95.4015 129.918 95.4414 129.873 95.4979C129.828 95.5544 129.804 95.6243 129.804 95.6963C129.804 95.7683 129.828 95.8382 129.873 95.8947C129.918 95.9512 129.98 95.991 130.05 96.0078Z" fill="#A1A1A1"/>
<path d="M130.655 96.9725V99.0176H130.282V97.0887H129.817V99.0176H129.444V97.2048H128.976V99.0176H118.173V97.2576H117.709V99.9328C117.709 100.116 117.621 100.285 117.476 100.285H117.335V100.873H117.476C117.895 100.873 118.18 100.419 118.18 99.9258V99.5738H130.743C130.982 99.5738 131.127 99.4154 131.127 99.1162V96.9443L130.655 96.9725Z" fill="#A1A1A1"/>
<path d="M115.808 97.0889H115.456L116.487 95.5612V95.4556H115.984L114.875 97.1241V97.6732H115.808C115.987 97.6978 116.15 97.7905 116.263 97.9321C116.376 98.0737 116.43 98.2532 116.413 98.4335V99.0178H114.587C114.506 99.0039 114.434 98.9598 114.385 98.8943C114.335 98.8289 114.313 98.7471 114.323 98.6658V96.8565H113.854V97.1522C113.727 97.0432 113.565 96.9832 113.397 96.9832C112.869 96.9832 112.478 97.564 112.478 98.2293V98.4616C112.478 99.134 112.869 99.6127 113.397 99.6127C113.529 99.6116 113.66 99.5792 113.777 99.518C113.894 99.4568 113.996 99.3686 114.073 99.2607C114.112 99.368 114.184 99.4601 114.279 99.5234C114.374 99.5868 114.487 99.618 114.601 99.6127H116.494C116.734 99.6127 116.878 99.4543 116.878 99.1551V98.4511C116.864 97.6978 116.389 97.0889 115.808 97.0889ZM113.854 98.4511C113.854 98.782 113.661 99.0178 113.397 99.0178C113.133 99.0178 112.943 98.782 112.943 98.4511V98.2082C112.943 97.8562 113.136 97.5394 113.397 97.5394C113.657 97.5394 113.854 97.8492 113.854 98.2082V98.4511Z" fill="#A1A1A1"/>
<path d="M108.261 96.9725H108.096C107.92 96.9891 107.751 97.0472 107.602 97.1421C107.453 97.237 107.329 97.3659 107.24 97.5181V95.2759H106.776V99.0176H103.421V95.2759H102.956V99.0176H101.65V99.616H102.96C103.017 99.6146 103.072 99.5994 103.122 99.5719C103.171 99.5443 103.214 99.5051 103.245 99.4576C103.261 99.504 103.29 99.5443 103.33 99.5728C103.37 99.6012 103.418 99.6164 103.467 99.616H108.919C109.159 99.616 109.303 99.4576 109.303 99.162V98.2996C109.303 97.5674 108.838 96.9725 108.261 96.9725ZM108.842 99.0176H107.24V98.7747C107.279 98.2115 107.698 97.5533 108.103 97.5533H108.264C108.436 97.5779 108.592 97.6676 108.7 97.8039C108.807 97.9402 108.858 98.1127 108.842 98.2855V99.0176Z" fill="#A1A1A1"/>
<path d="M102.488 95.8604H102.023V98.7855H102.488V95.8604Z" fill="#A1A1A1"/>
<path d="M100.605 96.1454C100.601 96.1054 100.613 96.0654 100.638 96.0339C100.663 96.0023 100.699 95.9818 100.739 95.9765C100.792 95.9765 100.841 96.0117 100.901 96.0821L101.017 95.8321C100.988 95.783 100.948 95.7417 100.899 95.7116C100.851 95.6816 100.796 95.6638 100.739 95.6597C100.681 95.6658 100.626 95.6832 100.575 95.711C100.524 95.7389 100.48 95.7764 100.444 95.8216C100.408 95.8668 100.381 95.9187 100.365 95.9743C100.349 96.0299 100.345 96.088 100.352 96.1454C100.353 96.1991 100.361 96.2523 100.376 96.3038H100.165V96.6206H101.052V96.3038H100.739C100.7 96.3002 100.665 96.2816 100.639 96.252C100.614 96.2224 100.602 96.1841 100.605 96.1454Z" fill="#A1A1A1"/>
<path d="M100.447 99.0176H94.6879C94.5612 99.0176 94.4802 98.9156 94.4802 98.7536C94.4802 98.5917 94.5612 98.4932 94.6879 98.4932C94.7583 98.4932 94.8217 98.5495 94.8815 98.6445L95.1702 98.0039C95.1542 97.7202 95.0302 97.4533 94.8237 97.2581C94.6172 97.0629 94.3438 96.9541 94.0596 96.9541C93.7754 96.9541 93.502 97.0629 93.2955 97.2581C93.089 97.4533 92.965 97.7202 92.949 98.0039L93.2342 98.6445C93.301 98.5424 93.3644 98.4932 93.4348 98.4932C93.4974 98.5019 93.5542 98.5348 93.593 98.5847C93.6317 98.6347 93.6495 98.6978 93.6425 98.7607C93.6425 99.088 92.9385 99.1796 92.9385 100.024C92.9166 100.259 92.9871 100.493 93.135 100.676C93.2829 100.86 93.4966 100.978 93.7305 101.006C93.8809 100.999 94.0261 100.949 94.1494 100.862L93.9311 100.338C93.8735 100.383 93.8038 100.412 93.7305 100.419C93.6819 100.416 93.6345 100.403 93.5911 100.381C93.5478 100.358 93.5096 100.327 93.4788 100.29C93.4481 100.252 93.4254 100.208 93.4124 100.161C93.3994 100.115 93.3962 100.065 93.4031 100.017C93.4031 99.5668 93.9241 99.5104 94.0297 99.0352H94.0543C94.0755 99.1908 94.1505 99.334 94.2662 99.4401C94.3819 99.5462 94.5311 99.6084 94.6879 99.616H100.514C100.753 99.616 100.897 99.4576 100.897 99.1584V96.9866H100.433L100.447 99.0176ZM94.086 98.4932H94.0684C94.0541 98.349 93.9919 98.2138 93.8917 98.1091C93.7915 98.0045 93.6592 97.9364 93.5158 97.9159C93.5679 97.8116 93.6477 97.7237 93.7464 97.6616C93.8451 97.5995 93.9589 97.5657 94.0754 97.5639C94.191 97.5717 94.3029 97.6079 94.4012 97.6693C94.4994 97.7307 94.581 97.8154 94.6386 97.9159C94.4989 97.9447 94.3712 98.0154 94.2725 98.1185C94.1738 98.2216 94.1087 98.3523 94.086 98.4932Z" fill="#A1A1A1"/>
<path d="M89.8831 95.2759H89.4185V99.602H89.8831V95.2759Z" fill="#A1A1A1"/>
<path d="M88.1196 99.0177H86.511C86.5913 98.8397 86.631 98.6461 86.6271 98.4509V98.2081C86.6271 97.5428 86.2258 96.962 85.7084 96.962C85.191 96.962 84.7826 97.5428 84.7826 98.2081V98.4404C84.7825 98.6349 84.8208 98.8274 84.8953 99.0071H77.7673V98.2081C77.7673 97.5428 77.3554 96.962 76.8169 96.962C76.2783 96.962 75.8911 97.5428 75.8911 98.2081V98.4404C75.8911 99.2993 76.4438 99.5914 77.0844 99.5914H77.2956V99.6161C77.294 99.8049 77.2202 99.986 77.0893 100.122C76.9583 100.258 76.7803 100.339 76.5916 100.348H76.1234V100.933H76.5916C76.9211 100.9 77.2255 100.742 77.4428 100.492C77.66 100.242 77.7735 99.9188 77.7602 99.5879H88.197C88.4329 99.5879 88.5772 99.4295 88.5772 99.1303V95.2583H88.1126L88.1196 99.0177ZM77.3026 99.0177H76.8239C76.5564 99.0177 76.3628 98.7818 76.3628 98.4509V98.2081C76.3628 97.8561 76.5564 97.5393 76.8239 97.5393C77.0914 97.5393 77.3026 97.842 77.3026 98.2081V99.0177ZM86.1625 98.4509C86.1625 98.7818 85.9654 99.0177 85.7084 99.0177C85.4514 99.0177 85.2473 98.7818 85.2473 98.4509V98.2081C85.2473 97.8561 85.4479 97.5393 85.7084 97.5393C85.9689 97.5393 86.1625 97.8525 86.1625 98.2081V98.4509Z" fill="#A1A1A1"/>
<path d="M85.6875 96.6203C85.751 96.6342 85.8172 96.628 85.877 96.6025C85.9368 96.5771 85.9872 96.5337 86.0213 96.4784C86.0553 96.423 86.0713 96.3585 86.067 96.2936C86.0627 96.2288 86.0384 96.1669 85.9974 96.1165C85.9564 96.0661 85.9007 96.0297 85.8381 96.0124C85.7755 95.995 85.709 95.9976 85.6479 96.0196C85.5868 96.0417 85.5341 96.0823 85.497 96.1357C85.46 96.189 85.4404 96.2526 85.4411 96.3176C85.436 96.3899 85.4587 96.4615 85.5044 96.5177C85.5502 96.574 85.6157 96.6107 85.6875 96.6203Z" fill="#A1A1A1"/>
<path d="M74.1277 95.8604H73.6631V98.7855H74.1277V95.8604Z" fill="#A1A1A1"/>
<path d="M74.596 99.0178H73.29V99.6162H74.698C74.9374 99.6162 75.05 99.4578 75.05 99.1586V95.2866H74.5854L74.596 99.0178Z" fill="#A1A1A1"/>
<path d="M71.5865 96.6203C71.6499 96.6342 71.7162 96.628 71.776 96.6025C71.8358 96.5771 71.8862 96.5337 71.9202 96.4784C71.9542 96.423 71.9702 96.3585 71.9659 96.2936C71.9616 96.2288 71.9373 96.1669 71.8963 96.1165C71.8553 96.0661 71.7996 96.0297 71.737 96.0124C71.6744 95.995 71.6079 95.9976 71.5468 96.0196C71.4857 96.0417 71.433 96.0823 71.3959 96.1357C71.3589 96.189 71.3394 96.2526 71.3401 96.3176C71.3349 96.3899 71.3576 96.4615 71.4034 96.5177C71.4491 96.574 71.5146 96.6107 71.5865 96.6203Z" fill="#A1A1A1"/>
<path d="M71.5123 96.9727C71.3324 96.9765 71.1579 97.0355 71.0125 97.1416L71.2483 97.6485C71.3248 97.5914 71.417 97.5594 71.5123 97.557C71.6794 97.5798 71.8315 97.6652 71.938 97.7958C72.0445 97.9265 72.0975 98.0928 72.0861 98.261V99.0037H70.9351V99.6162H72.16C72.3959 99.6162 72.5402 99.4578 72.5402 99.1586V98.2891C72.5507 97.5746 72.0861 96.9727 71.5123 96.9727Z" fill="#A1A1A1"/>
<path d="M67.3904 99.0176H65.9014V95.2759H65.4368V99.0176H59.2873V98.2855C59.2873 97.5815 58.8227 96.9725 58.2313 96.9725H58.08C57.8915 96.9943 57.7109 97.0609 57.5535 97.1669C57.3961 97.2728 57.2664 97.415 57.1753 97.5815L57.1225 97.0887H56.7529V99.0176H51.392V96.9725H50.9344V99.0176H50.2304V95.2759H49.7622V99.1479C49.7622 99.4471 49.8713 99.6055 50.1142 99.6055H67.4572C67.6966 99.6055 67.8409 99.4471 67.8409 99.1479V95.2759H67.3728L67.3904 99.0176ZM58.8227 99.0176H57.2176V98.7642C57.2176 98.201 57.6752 97.5533 58.08 97.5533H58.2454C58.4172 97.5779 58.573 97.6676 58.6805 97.8039C58.788 97.9402 58.8389 98.1127 58.8227 98.2855V99.0176Z" fill="#A1A1A1"/>
<path d="M51.1665 96.6203C51.23 96.6342 51.2962 96.628 51.356 96.6025C51.4158 96.5771 51.4662 96.5337 51.5003 96.4784C51.5343 96.423 51.5503 96.3585 51.546 96.2936C51.5417 96.2288 51.5174 96.1669 51.4764 96.1165C51.4354 96.0661 51.3797 96.0297 51.3171 96.0124C51.2545 95.995 51.188 95.9976 51.1269 96.0196C51.0658 96.0417 51.0131 96.0823 50.976 96.1357C50.939 96.189 50.9195 96.2526 50.9201 96.3176C50.915 96.3899 50.9376 96.4615 50.9834 96.5177C51.0292 96.574 51.0947 96.6107 51.1665 96.6203Z" fill="#A1A1A1"/>
<path d="M48.2239 97.5499C48.3227 97.5607 48.4174 97.5951 48.5001 97.6503C48.5829 97.7054 48.6511 97.7796 48.6991 97.8667L48.9525 97.3457C48.8657 97.2341 48.7555 97.1428 48.6296 97.0783C48.5037 97.0139 48.3652 96.9778 48.2239 96.9726C47.6959 96.9726 47.3016 97.5569 47.3016 98.2152V98.451C47.2966 98.6459 47.3351 98.8395 47.4143 99.0177H47.0024C46.9232 99.0016 46.8528 98.9567 46.8047 98.8917C46.7566 98.8267 46.7342 98.7462 46.7419 98.6657V96.8564H46.2773V97.1521C46.1489 97.0423 45.9852 96.9823 45.8162 96.9832C45.2952 96.9832 44.8975 97.564 44.8975 98.2292V98.4616C44.8975 99.1339 45.2952 99.6126 45.8162 99.6126C45.9486 99.6115 46.079 99.5791 46.1964 99.5179C46.3139 99.4567 46.4152 99.3685 46.492 99.2606C46.531 99.3679 46.6032 99.46 46.6982 99.5233C46.7932 99.5867 46.906 99.6179 47.02 99.6126H48.9279V99.0177H48.2239C48.1559 99.0121 48.0897 98.9928 48.0294 98.9609C47.969 98.9291 47.9157 98.8854 47.8727 98.8325C47.8296 98.7796 47.7977 98.7185 47.7788 98.653C47.7599 98.5874 47.7545 98.5187 47.7627 98.451V98.2081C47.7487 97.8561 47.9458 97.5499 48.2239 97.5499ZM46.2773 98.451C46.2856 98.5187 46.2801 98.5874 46.2612 98.653C46.2423 98.7185 46.2104 98.7796 46.1673 98.8325C46.1243 98.8854 46.071 98.9291 46.0107 98.9609C45.9503 98.9928 45.8842 99.0121 45.8162 99.0177C45.5557 99.0177 45.3621 98.7819 45.3621 98.451V98.2081C45.3621 97.8561 45.5592 97.5393 45.8162 97.5393C46.0731 97.5393 46.2773 97.8491 46.2773 98.2081V98.451Z" fill="#A1A1A1"/>
<path d="M46.112 96.6203C46.182 96.6052 46.2447 96.5666 46.2897 96.5108C46.3347 96.4551 46.3592 96.3857 46.3592 96.3141C46.3592 96.2424 46.3347 96.173 46.2897 96.1173C46.2447 96.0615 46.182 96.0229 46.112 96.0078C46.042 96.0229 45.9793 96.0615 45.9343 96.1173C45.8893 96.173 45.8647 96.2424 45.8647 96.3141C45.8647 96.3857 45.8893 96.4551 45.9343 96.5108C45.9793 96.5666 46.042 96.6052 46.112 96.6203Z" fill="#A1A1A1"/>
<path d="M45.5031 96.6203C45.5731 96.6052 45.6358 96.5666 45.6808 96.5108C45.7258 96.4551 45.7503 96.3857 45.7503 96.3141C45.7503 96.2424 45.7258 96.173 45.6808 96.1173C45.6358 96.0615 45.5731 96.0229 45.5031 96.0078C45.4331 96.0229 45.3704 96.0615 45.3254 96.1173C45.2804 96.173 45.2559 96.2424 45.2559 96.3141C45.2559 96.3857 45.2804 96.4551 45.3254 96.5108C45.3704 96.5666 45.4331 96.6052 45.5031 96.6203Z" fill="#A1A1A1"/>
</svg>
