<svg width="120" height="120" viewBox="0 0 120 120" fill="none" xmlns="http://www.w3.org/2000/svg">
<path d="M91.2585 77.2871H87.4952V22.7203L82.6971 18.1104H44.124L23.9907 37.538V50.2389L28.4596 54.8489H32.3169V77.1931H25.2138C24.5082 77.2871 23.9907 77.9457 24.0378 78.6984V97.2793L28.7418 101.889H95.1158C95.1158 101.889 96.0095 101.795 96.0095 100.478V81.8501L91.2585 77.2871Z" fill="white"/>
<path d="M25.6843 96.809H90.7881V78.7925H82.1327V19.7568H44.5945L25.4961 38.2907V49.6745H34.0574V78.8396H25.7313L25.6843 96.809Z" fill="#A1A1A1"/>
<path d="M77.8048 35.0919V49.204C77.8048 49.204 79.0278 65.9033 58.0949 78.1809C58.0949 78.1809 39.5609 68.961 38.1968 49.7215V35.0919C38.1968 35.0919 56.4955 23.567 77.8048 35.0919Z" fill="white"/>
<path d="M74.7003 35.3273L40.0786 51.1329C39.8905 49.9569 39.7964 48.8279 39.7964 47.6519V36.0329C39.7964 36.0329 56.2605 26.4837 74.7003 35.3273Z" fill="white"/>
<path d="M48.9689 60.3529V69.2905C48.9689 69.2905 44.5471 64.7747 43.7944 62.6108L48.9689 60.2588V60.3529Z" fill="#A1A1A1"/>
<path d="M58.0478 56.119V76.3934L53.3438 73.1946V58.0947L58.0478 56.0249V56.119Z" fill="#A1A1A1"/>
<path d="M67.1734 51.9325V69.4315L62.5635 73.477V54.0022L67.1734 51.8384V51.9325Z" fill="#A1A1A1"/>
<path d="M76.2994 47.8398L71.8306 49.7215V63.3161C71.8776 63.3161 76.2524 57.6713 76.2994 47.8398Z" fill="#A1A1A1"/>
<path d="M74.2767 40.7836V44.1705L70.9839 45.6287V41.4892H70.4194L70.9839 40.5484L72.0658 39.9839V44.0764L73.1948 43.5119V41.1129L74.2767 40.7836Z" fill="#A1A1A1"/>
<path d="M74.2767 40.2193L73.1948 40.5956V39.5137L74.2767 39.0903V40.2193Z" fill="#A1A1A1"/>
<path d="M67.1738 47.4166L70.1844 46.0054V44.8294C70.1844 44.8294 70.0903 42.7126 67.5502 43.6063V44.5001C67.5502 44.5001 69.2906 43.9356 69.2906 45.4409L67.2209 46.3347V47.4166H67.1738Z" fill="#A1A1A1"/>
<path d="M66.4211 47.6518V45.2527C66.4211 45.2527 66.0448 44.1238 64.8687 44.8764L63.8339 45.4409V47.887L62.7049 48.4515C62.7049 48.4515 61.5759 48.9219 61.5759 47.9811V46.4287L60.494 47.1814V48.1692C60.494 48.1692 60.2118 50.5212 62.7049 49.6275L64.7276 48.6867V46.0524C64.7276 45.8642 64.8687 45.6761 65.0569 45.629C65.2451 45.629 65.4332 45.7702 65.4803 45.9583C65.4803 46.0054 65.4803 46.0054 65.4803 46.0524V48.1222L66.4211 47.6518Z" fill="#A1A1A1"/>
<path d="M64.3515 50.3801L63.2695 50.7564V49.6275L64.3515 49.2041V50.3801Z" fill="#A1A1A1"/>
<path d="M62.9403 50.9444L61.8584 51.3207V50.2388L62.9403 49.8154V50.9444Z" fill="#A1A1A1"/>
<path d="M58.8007 51.1798V46.0054L57.6717 46.6169L57.2954 47.5107H57.8599V51.6032L58.8007 51.1798Z" fill="#A1A1A1"/>
<path d="M56.9658 47.0874V50.8977C56.9658 50.8977 56.9188 52.6852 54.1904 53.2027V52.0737C54.1904 52.0737 56.072 51.6503 56.072 50.8036V47.4637L56.9658 47.0874Z" fill="#A1A1A1"/>
<path d="M55.3194 47.8398V50.8034L54.1904 51.3679V48.1691L55.3194 47.8398Z" fill="#A1A1A1"/>
<path d="M53.4379 50.2861V53.673L46.3819 56.9188V52.6852H45.8174L46.2407 51.8855L47.3227 51.4151V55.4606L50.5214 54.0023V53.2497C50.5214 53.2497 50.4744 52.1207 48.875 53.1556L48.0753 53.5319L48.3576 52.6382C48.3576 52.6382 49.9099 51.6033 50.8507 51.9325C51.7915 52.2618 51.4152 53.673 51.4152 53.673L52.4501 53.2497V50.7095L53.4379 50.2861Z" fill="#A1A1A1"/>
<path d="M53.2966 49.7213L52.2617 50.0976V49.0156L53.2966 48.5923V49.7213Z" fill="#A1A1A1"/>
<path d="M52.0739 50.192L51.0391 50.5683V49.4863L52.0739 49.063V50.192Z" fill="#A1A1A1"/>
<path d="M42.4775 58.6119L45.4881 57.2007V56.0247C45.4881 56.0247 45.4411 53.9079 42.8539 54.8017V55.6954C42.8539 55.6954 44.5944 55.1309 44.5944 56.6362L42.5246 57.53V58.6119H42.4775Z" fill="#A1A1A1"/>
<path d="M54.849 37.397C55.0568 37.397 55.2253 37.2075 55.2253 36.9737C55.2253 36.7398 55.0568 36.5503 54.849 36.5503C54.6411 36.5503 54.4727 36.7398 54.4727 36.9737C54.4727 37.2075 54.6411 37.397 54.849 37.397Z" fill="#A1A1A1"/>
<path d="M52.3087 34.9981L52.4968 34.2455C52.4968 34.2455 55.0841 32.3168 55.8367 33.9162V35.5626L47.981 39.0907V38.1969L50.0507 37.3502V36.5975C50.0507 36.5975 49.9096 35.7978 47.981 37.0679V36.3153C47.981 36.3153 49.5333 34.857 50.6152 35.8919C50.7563 36.2682 50.8504 36.6446 50.8034 37.0209L55.037 34.9511V34.1985C55.037 34.1985 54.8959 33.3047 52.2146 35.0922L52.3087 34.9981Z" fill="#A1A1A1"/>
<path d="M44.8765 37.8204C44.8765 37.8204 44.312 39.9842 45.5821 39.9842C46.4288 40.0783 47.2285 39.5609 47.4637 38.7142V36.5503L44.8765 37.8204ZM46.711 38.6671C46.5699 39.0434 46.1936 39.2786 45.8173 39.2316C45.1587 39.2316 45.488 38.1967 45.488 38.1967L46.711 37.6322V38.6671Z" fill="#A1A1A1"/>
<path d="M45.5819 36.8326C45.7897 36.8326 45.9582 36.643 45.9582 36.4092C45.9582 36.1754 45.7897 35.9858 45.5819 35.9858C45.3741 35.9858 45.2056 36.1754 45.2056 36.4092C45.2056 36.643 45.3741 36.8326 45.5819 36.8326Z" fill="#A1A1A1"/>
<path d="M46.4759 36.4092C46.6838 36.4092 46.8523 36.2197 46.8523 35.9859C46.8523 35.752 46.6838 35.5625 46.4759 35.5625C46.2681 35.5625 46.0996 35.752 46.0996 35.9859C46.0996 36.2197 46.2681 36.4092 46.4759 36.4092Z" fill="#A1A1A1"/>
<path d="M44.8766 47.6519L62.799 39.3728C63.2694 39.0905 63.4576 38.5261 63.2224 38.0086C63.0342 37.5382 62.4697 37.303 61.9993 37.4912C61.9993 37.4912 61.9523 37.4912 61.9523 37.5382L58.8947 39.0435C58.8947 39.0435 58.6124 39.1376 58.6124 38.8553V37.1619C58.6124 37.1619 58.4713 36.0329 56.966 36.6445V32.2227L56.4015 32.4108V40.784L56.966 40.5958V37.7734C56.966 37.7734 56.966 37.4441 57.5775 37.4441C57.5775 37.4441 58.0009 37.3971 58.0009 37.7264V39.1846C58.0009 39.1846 58.0009 39.655 58.6124 39.655C59.2239 39.655 61.9993 38.1968 61.9993 38.1968C61.9993 38.1968 62.4697 37.9616 62.4697 38.5731C62.4697 38.5731 62.5168 38.8553 61.0115 39.4669L44.8296 46.9933L44.8766 47.6519Z" fill="#A1A1A1"/>
<path d="M54.8492 37.9614L53.438 38.5259V39.2786C53.438 39.2786 54.5669 38.3848 55.0844 38.7141V39.0904C54.4258 39.2315 53.8613 39.6078 53.438 40.1253V40.925C53.438 40.925 53.3439 41.6776 54.4728 41.6776C55.6018 41.6776 55.837 40.4546 55.837 40.4546V39.0434C55.837 39.0904 55.8841 37.9614 54.8492 37.9614ZM55.1314 40.5016V40.5957L55.0844 40.6427L55.0373 40.7368L54.9903 40.8309L54.9432 40.8779L54.8492 40.925L54.7551 40.972H54.614L54.5199 41.0191H54.3788L54.3317 40.972H54.2847L54.2376 40.925V40.8779L54.1906 40.8309V40.7368L54.1436 40.6427V40.5016L54.1906 40.4546V40.3134L54.2376 40.2194L55.1785 39.796L55.1314 40.5016Z" fill="#A1A1A1"/>
<path d="M52.8735 41.6306V37.397C52.6853 37.397 52.4501 37.444 52.309 37.5851V39.0434C50.7567 39.4667 50.6156 40.1253 50.6156 40.1253V41.3013C50.6156 41.9599 50.4744 42.9477 51.2741 42.9477C52.9676 42.9948 52.8735 41.5836 52.8735 41.6306ZM52.309 42.0069C52.309 42.0069 51.4152 42.6185 51.18 42.1951V40.3605C51.4623 40.0312 51.8386 39.796 52.309 39.796V42.0069Z" fill="#A1A1A1"/>
<path d="M49.957 43.0417V38.8081C49.7689 38.8081 49.5336 38.8551 49.3925 38.9963V40.4545C47.8402 40.8779 47.6991 41.5364 47.6991 41.5364V42.7125C47.6991 43.371 47.605 44.3589 48.3576 44.3589C50.0511 44.3589 49.957 43.0417 49.957 43.0417ZM49.3925 43.4181C49.3925 43.4181 48.4988 44.0766 48.2636 43.6062V41.7717C48.5458 41.4424 48.9692 41.2072 49.3925 41.2072V43.4181Z" fill="#A1A1A1"/>
<path d="M45.5822 44.6886L47.0875 43.7948C47.0875 43.7948 47.4639 41.9132 46.2408 41.9132C45.4882 41.8661 44.8766 42.4777 44.8296 43.2303C44.8296 43.2774 44.8296 43.2774 44.8296 43.3244V45.159C44.8296 45.5823 45.1589 45.9116 45.5822 45.9116C46.1467 45.9116 46.6642 45.6764 47.0405 45.206V44.5945C47.0405 44.5945 45.8174 45.3471 45.5822 45.159C45.2059 44.9238 45.5822 44.6886 45.5822 44.6886ZM46.2878 42.4777C46.6642 42.4777 46.523 43.3244 46.523 43.3244C46.2408 43.5596 45.9586 43.7478 45.6293 43.8889C45.4411 43.8889 45.4411 43.3714 45.4411 43.3714C45.4411 42.7599 46.2878 42.4777 46.2878 42.4777Z" fill="#A1A1A1"/>
<path d="M41.8658 41.6776V39.6078C41.8658 39.6078 41.9129 39.0433 43.2771 38.5259L44.1708 38.2437V47.4636C44.1708 47.4636 44.2179 48.2633 42.9007 48.6396C42.9007 48.6396 41.2073 49.3452 41.2073 48.1692V44.6882C41.2073 44.6882 41.0662 43.7474 43.0419 43.4181V44.1707C43.0419 44.1707 41.8188 44.453 41.7718 45.2056V47.6988C41.8188 47.981 42.1011 48.1692 42.3833 48.1221C42.4303 48.1221 42.4774 48.0751 42.5244 48.0751C43.1359 47.7928 43.6534 47.6988 43.6534 47.0402V39.2315C43.6534 39.2315 42.7126 39.2785 42.7126 39.8901V41.4894L41.8658 41.6776Z" fill="#A1A1A1"/>
<path d="M34.8099 88.5771H31.8464V87.26H32.599V84.4846H31.5171L32.4109 83.1675H33.8691V87.26H34.8099V88.5771Z" fill="white"/>
<path d="M36.1272 88.5771V84.4846H34.6689V83.1675H38.7615V84.4846H37.3032V88.5771H36.1272Z" fill="white"/>
<path d="M40.7841 88.5771V84.4846H39.2788V83.1675H43.3713V84.4846H41.9131V88.5771H40.7841Z" fill="white"/>
<path d="M48.0283 88.5771V83.1675H49.2043V85.1902H50.8507V83.1675H51.9797V88.5771H50.8978V86.5544H49.2043V88.5771H48.0283Z" fill="white"/>
<path d="M44.124 88.577V87.3069H44.8767V84.4845H44.124V83.2144H46.8994V84.5315H46.1468V87.3069H46.8994V88.624L44.124 88.577Z" fill="white"/>
<path d="M55.6488 83.1675H54.802L52.6382 88.5771H53.9553L54.3787 87.6363H56.1192L56.4485 88.5771H57.8597L55.6488 83.1675ZM54.8491 86.5544L55.2254 85.3313L55.6958 86.5544H54.8491Z" fill="white"/>
<path d="M62.705 85.7077C62.7991 84.3905 61.8112 83.2616 60.4941 83.1675C60.4471 83.1675 60.353 83.1675 60.3059 83.1675H58.2832V88.5771H60.5411C62.9402 88.5771 62.705 85.7077 62.705 85.7077ZM60.4 87.26H59.3181V84.4846H60.3059C60.9645 84.4846 61.4819 85.0021 61.4819 85.6606C61.4819 85.7077 61.4819 85.7547 61.4819 85.8017C61.4819 85.7547 61.576 87.26 60.4 87.26Z" fill="white"/>
<path d="M69.4316 85.4254H70.6076C70.6076 83.1675 68.1615 83.1675 68.1615 83.1675C65.5272 83.1675 65.6213 85.8488 65.6213 85.8488C65.4802 87.213 66.5151 88.436 67.8792 88.5301C67.9733 88.5301 68.0674 88.5301 68.1144 88.5301C70.3724 88.5301 70.6076 86.3662 70.6076 86.3662H69.3845C69.1964 86.8837 68.6789 87.26 68.1144 87.26C67.0795 87.26 66.7503 86.4133 66.7503 85.6606C66.7973 84.908 67.4559 84.3435 68.2085 84.4376H68.2556C68.82 84.4376 69.3375 84.8139 69.4316 85.4254Z" fill="white"/>
<path d="M71.4546 88.5771V83.1675H72.7717V87.26H74.8415V88.5301L71.4546 88.5771Z" fill="white"/>
<path d="M75.3589 83.1675V86.6485C75.3589 87.7304 76.2056 88.5771 77.2875 88.5771C77.3346 88.5771 77.4287 88.5771 77.4757 88.5771C77.4757 88.5771 79.4514 88.6242 79.4514 86.6014V83.2145H78.1813V86.6955C78.1813 86.6955 78.1813 87.307 77.4287 87.307C77.0994 87.3541 76.7701 87.1189 76.676 86.7896C76.676 86.7425 76.676 86.6955 76.676 86.6485V83.2145L75.3589 83.1675Z" fill="white"/>
<path d="M83.4499 85.7547C83.4499 85.7547 84.0614 85.6606 84.0614 84.6728C84.0614 83.8731 83.4028 83.1675 82.6032 83.1675H80.3452V88.5771H82.415C83.6851 88.5771 84.2496 87.9186 84.2496 86.8837C84.3436 86.3192 84.0144 85.8488 83.4499 85.7547ZM81.7094 85.2373V84.2964H82.5091C82.5091 84.2964 82.9795 84.2964 82.9795 84.908C83.0265 85.1432 82.8384 85.3313 82.6032 85.3784C82.5561 85.3784 82.5091 85.3784 82.5091 85.3784H81.6623L81.7094 85.2373ZM82.6972 87.2129H81.7094V86.3192H82.6502C82.6502 86.3192 83.2147 86.3662 83.2147 86.8366C83.2147 86.8366 83.3088 87.2129 82.6972 87.2129Z" fill="white"/>
<path d="M46.0054 90.7881H46.758V93.7987H46.0054V90.7881Z" fill="white"/>
<path d="M47.4634 93.7987V90.7881H48.216V91.9171C48.3101 92.0111 48.4512 92.0582 48.5453 91.9641L48.5923 91.9171V90.7881H49.1568V91.9171C49.2039 92.0111 49.345 92.0111 49.392 91.9641L49.4391 91.9171V90.7881H50.0506V91.7289C50.0976 92.1052 49.8154 92.4345 49.4391 92.4815C49.392 92.4815 49.345 92.4815 49.298 92.4815C48.9216 92.4815 48.8746 92.2934 48.8746 92.2934C48.7335 92.4815 48.4512 92.5756 48.216 92.4815V93.7987H47.4634Z" fill="white"/>
<path d="M52.3089 93.7986H51.0858C51.0858 93.7986 50.4272 93.8456 50.4272 92.8107C50.4272 92.8107 50.4743 92.2933 50.7095 92.2933C50.5213 92.1051 50.4272 91.8229 50.4272 91.5877C50.5684 91.1173 50.9917 90.788 51.5092 90.835H52.3089V91.5406H51.3681C51.1799 91.5406 51.1799 92.1051 51.3681 92.1051H52.3089V92.6696H51.1799C51.0858 92.6696 51.0858 93.2341 51.1799 93.2341H52.3089V93.7986Z" fill="white"/>
<path d="M53.9551 93.7987V91.5407H52.8262V90.7881H54.6607V93.7987H53.9551Z" fill="white"/>
<path d="M57.4834 92.8579H58.6124V93.7987H57.4834V92.8579Z" fill="white"/>
<path d="M62.3754 93.7985V90.835H61.7639L60.8701 91.6817V92.105H61.6228V93.7985H62.3754Z" fill="white"/>
<path d="M64.0691 90.835C64.0691 90.835 62.8931 90.6938 62.8931 92.011C62.8931 92.9047 63.8809 92.8577 63.8809 92.8577C63.8809 92.8577 63.5046 93.7985 63.3164 93.7985H64.2102C64.7276 93.2811 65.0569 92.6225 65.104 91.9169C65.104 91.3524 64.6806 90.882 64.1161 90.835C64.1161 90.835 64.1161 90.835 64.0691 90.835ZM64.022 92.3403C63.7868 92.3403 63.5987 92.1521 63.5987 91.9169C63.5987 91.6817 63.7868 91.4935 64.022 91.4935C64.2572 91.4935 64.4454 91.6817 64.4454 91.9169C64.4454 92.1521 64.3043 92.3403 64.022 92.3403Z" fill="white"/>
<path d="M69.008 93.7985L69.9959 91.8228V90.835H68.1143V91.5406H69.2903L68.1613 93.7985H69.008Z" fill="white"/>
<path d="M65.5273 91.9641C65.5273 91.9641 65.5273 90.8352 66.5622 90.8352C66.5622 90.8352 67.5971 90.7411 67.5971 91.9641C67.5501 92.6697 66.5622 93.2342 66.5622 93.2342H67.5971V93.7987H65.6685V93.1401L66.7974 92.1053C66.7974 92.1053 66.8915 91.5408 66.5152 91.5408C66.28 91.5408 66.28 91.9171 66.28 91.9171L65.5273 91.9641Z" fill="white"/>
</svg>
