<svg width="120" height="120" viewBox="0 0 120 120" fill="none" xmlns="http://www.w3.org/2000/svg">
<path d="M86.6014 39.5608C86.6485 46.0524 84.3905 52.3558 80.251 57.3421C74.5591 64.3982 68.3497 71.0308 62.4227 77.8517C61.2466 79.1688 60.494 79.1688 59.318 77.8517C52.6853 70.6075 45.7233 63.6925 39.4199 56.2602C32.9283 48.6396 31.7523 39.5608 35.2333 30.2939C38.9025 20.5565 46.3348 14.8176 56.6837 13.2653C72.7245 10.9603 86.6485 23.3319 86.6014 39.5608ZM65.9036 67.1735C70.0902 62.0461 74.5591 57.5303 77.8989 52.3088C84.6728 41.7247 82.2737 29.0238 72.8186 22.0618C64.1632 15.7114 51.9797 16.8403 44.4062 24.6961C36.9738 32.4577 36.2682 45.0646 43.1361 53.2025C48.2635 59.2707 53.7672 64.9626 59.1298 70.7956C59.5062 71.1249 59.8825 71.3601 60.3058 71.5953C61.4348 69.996 61.0585 68.8199 59.9295 67.5969C55.884 63.2221 51.9327 58.8003 47.8872 54.4256C47.1816 53.6729 46.6641 53.0614 47.699 52.1677C51.3211 48.9219 55.4136 46.805 60.447 47.3695C61.8582 47.5107 62.1875 46.9932 62.1404 45.7231C62.0934 44.453 61.9993 43.0889 62.4697 42.0069C64.6336 37.2559 66.9856 32.5518 69.3846 27.5655C70.1843 30.1057 70.6547 32.1285 71.4544 34.0571C72.3011 36.0798 72.0659 37.5851 70.3254 39.2786C69.808 38.9493 69.2435 38.62 68.7261 38.2907C65.8566 42.8066 66.0918 47.9811 69.2435 51.8854C70.2314 53.1085 71.2662 54.3315 72.16 55.6486C72.4423 56.072 72.6304 57.0128 72.3482 57.3891C71.5955 58.3299 70.7958 59.2708 69.9491 60.1175C68.3027 58.2359 67.0797 56.3542 65.4332 54.9901C63.7868 53.6729 61.9523 52.7321 59.9295 52.1206C57.8127 51.5091 55.6959 52.3088 53.532 53.6729C57.6716 58.1418 61.5759 62.3754 65.9036 67.1735Z" fill="#A1A1A1"/>
<path d="M47.3697 35.2805C45.0177 37.6796 44.7354 40.4079 45.5351 43.1362C46.0996 44.8297 46.9934 46.382 48.1223 47.7462C49.3924 49.3926 48.0753 49.91 47.2286 50.7568C46.3818 51.6035 45.6292 51.7446 44.6413 50.6157C39.2317 44.3122 39.3258 36.7858 45.0177 30.8117C45.6762 30.059 46.2407 29.2593 46.7111 28.3656C48.5457 25.0257 51.6033 22.4855 55.2254 21.3095C56.4014 20.8861 57.1541 21.1213 58.0008 22.1092C63.8808 29.1182 63.2693 37.021 56.4014 42.9481C55.3195 43.8889 54.6609 43.7948 53.8142 42.7599C51.7444 40.3138 49.5806 37.9148 47.3697 35.2805ZM55.2725 37.5384C56.9659 35.7979 57.7656 33.3048 57.3422 30.9057C57.1541 29.4475 56.2133 28.0833 55.6017 26.6721C54.2376 27.6129 52.7323 28.3656 51.6033 29.5416C50.9918 30.1531 50.5684 31.7525 50.9447 32.364C52.1208 34.1986 53.7201 35.7509 55.2725 37.5384Z" fill="#A1A1A1"/>
<path d="M79.4043 35.3746C78.6517 34.0104 77.9931 32.5522 77.1934 31.235C73.8065 25.6372 68.6321 23.4263 62.2816 23.8027C60.2118 23.9438 59.3181 23.003 58.5654 21.3566C68.0205 19.1927 77.8049 24.4612 79.4043 35.3746Z" fill="#A1A1A1"/>
<path d="M74.0415 38.1499C75.1705 40.0786 76.2524 41.8191 77.2402 43.5595C78.5574 45.8175 78.0399 48.2165 75.8761 48.781C74.7942 49.0633 73.0537 48.9221 72.4421 48.2165C71.5954 47.2757 71.0309 45.5352 71.3132 44.3592C71.8777 42.1954 73.1007 40.2667 74.0415 38.1499Z" fill="#A1A1A1"/>
<path d="M10.9604 103.771V89.0005C10.9604 88.3889 11.4309 87.8715 12.0424 87.7774H12.2305C12.748 87.8245 13.1713 88.1067 13.4065 88.5771C14.7237 91.3525 16.0408 94.1749 17.405 96.9503C18.7221 94.0808 20.0392 91.2584 21.3093 88.3889C21.5445 87.9656 21.9679 87.7304 22.4383 87.7774H22.6265C23.1439 87.8715 23.4732 88.3419 23.4732 88.8593V103.912C23.4732 104.383 23.238 104.759 22.8617 104.994C22.7205 105.088 22.5794 105.135 22.3913 105.135C22.1561 105.135 21.9679 105.088 21.7797 104.994C21.4034 104.759 21.1682 104.336 21.1682 103.912V94.4572C20.3685 96.1506 19.5688 97.8441 18.7221 99.5375C18.581 100.102 18.1106 100.525 17.5461 100.572C16.8405 100.619 16.1819 100.149 16.0408 99.4434C15.2882 97.8441 14.5355 96.1976 13.7829 94.5983C13.7829 97.6559 13.7358 100.714 13.7358 103.771C13.7358 104.195 13.5477 104.618 13.1713 104.853C12.9361 105.041 12.6069 105.135 12.3246 105.088H12.1365C11.4779 105.041 10.9604 104.477 10.9604 103.771Z" fill="#A1A1A1"/>
<path d="M26.4365 88.7651V104.053C26.5776 104.806 27.2832 105.276 27.9889 105.182C28.5533 105.088 29.0237 104.618 29.1178 104.053V88.7651C28.8826 88.0125 28.0829 87.6362 27.3303 87.8714C26.9069 88.0125 26.5776 88.3418 26.4365 88.7651Z" fill="#A1A1A1"/>
<path d="M32.2695 88.2476C32.0814 88.4357 31.9873 88.6709 31.9873 88.9532V103.912C32.0343 104.194 32.2225 104.477 32.4577 104.618C32.6929 104.759 32.9281 104.853 33.2104 104.806H39.843C40.3134 104.806 40.7368 104.477 40.8309 104.006V103.865C40.8309 103.63 40.7368 103.395 40.5957 103.206C40.4075 102.971 40.1253 102.877 39.843 102.877H35.6094C35.0449 102.877 34.5745 102.407 34.5745 101.842V88.9532C34.5745 88.6709 34.4804 88.3887 34.2452 88.2005C33.963 87.9653 33.6337 87.8242 33.2574 87.8242C32.8811 87.8242 32.5518 87.9653 32.2695 88.2476Z" fill="#A1A1A1"/>
<path d="M42.1954 88.6239V100.572C42.1484 101.748 42.5718 102.877 43.3244 103.724C44.03 104.429 44.9238 104.759 45.9116 104.759H49.9571C50.4745 104.759 50.8979 104.429 51.039 103.959C51.0861 103.865 51.0861 103.724 51.0861 103.63C51.039 103.112 50.6627 102.689 50.1453 102.595H46.382C46.0057 102.501 45.6764 102.266 45.4412 101.983C45.159 101.654 45.0179 101.184 45.0649 100.76V96.7149H49.816C50.0512 96.7149 50.3334 96.6208 50.5216 96.4797C51.039 96.0092 51.0861 95.1625 50.6157 94.6451C50.3805 94.3628 50.0041 94.2217 49.6278 94.2217H45.1119V90.3644H50.0982C50.2864 90.3644 50.4745 90.3174 50.6157 90.2233C50.992 89.9881 51.2742 89.6118 51.2742 89.1414C51.2742 88.4828 50.8038 87.9653 50.1923 87.8242H42.901C42.7129 87.8242 42.4777 87.9183 42.3836 88.1065C42.2425 88.2476 42.1954 88.4357 42.1954 88.6239Z" fill="#A1A1A1"/>
<path d="M61.905 92.9517C62.4224 92.8577 62.8458 92.4343 62.9398 91.8698C62.9869 91.6816 62.9398 91.4464 62.8928 91.2583C62.1872 89.4237 60.5408 88.1536 58.6121 87.8714C57.295 87.7303 56.0249 88.1536 55.0371 89.0474C54.0963 89.9882 53.5788 91.2112 53.5788 92.5284C53.5788 92.9047 53.5318 95.0215 54.8959 96.3386C55.7897 97.1383 56.9187 97.5617 58.0947 97.5617C59.647 97.5146 60.9171 98.6907 60.9642 100.243C61.0112 101.795 59.8352 103.065 58.2828 103.112C58.0947 103.112 57.1068 103.207 56.5894 102.595C56.0719 101.983 56.5424 101.325 55.9308 100.572C55.6486 100.243 55.2723 100.008 54.8489 99.9607C54.4726 100.008 54.1433 100.196 53.9551 100.478C53.3436 101.372 53.9551 103.301 55.1782 104.288C56.0719 104.947 57.2009 105.229 58.2828 105.135C59.6941 105.135 61.0582 104.571 61.999 103.489C62.6106 102.642 62.9869 101.654 63.0339 100.619C63.0339 100.478 63.175 97.3735 61.1994 96.0094C59.5529 94.8804 58.0947 96.1034 56.8716 94.9274C55.8838 93.8925 55.7427 92.3402 56.4483 91.1172C56.4953 91.0701 57.248 89.9882 58.424 90.0352C59.647 90.1763 60.5878 91.0701 60.823 92.2461C60.9171 92.6695 61.2464 92.9517 61.6698 93.0458C61.6698 92.9517 61.7638 92.9517 61.905 92.9517Z" fill="#A1A1A1"/>
<path d="M104.241 90.8348C104.1 90.8348 104.006 90.8348 103.865 90.7878H103.489C100.713 90.9289 98.5024 93.2809 98.5494 96.0563V97.3734C98.5024 98.2202 98.1261 99.0198 97.5146 99.6314C97.2323 99.8666 96.903 100.055 96.5738 100.196C96.3386 100.29 95.0214 100.807 93.9395 100.102C93.8924 100.055 93.7984 100.008 93.7513 99.9606C93.2339 99.5373 92.9516 98.8787 92.9516 98.1731V88.2946C92.8576 87.589 92.246 87.0245 91.5404 87.0716C90.976 87.1186 90.5055 87.542 90.3644 88.1065C90.3644 91.5875 90.3174 95.0684 90.3174 98.5494C90.3174 99.7725 90.8819 100.901 91.8697 101.607H91.9168C92.0108 101.654 92.0579 101.701 92.152 101.748C92.8576 102.172 93.6102 102.36 94.4099 102.313H96.1974C96.7619 102.313 97.3264 102.219 97.8438 101.983C98.1731 101.889 98.4554 101.701 98.6906 101.466C99.1139 101.137 99.3491 100.807 99.7255 100.854C100.102 100.901 100.243 101.325 100.666 101.701C101.184 102.172 101.842 102.36 102.501 102.313H104.9C105.982 102.313 107.017 101.936 107.816 101.184L108.052 100.948C108.099 100.901 108.146 100.807 108.24 100.76C108.804 100.008 109.086 99.0669 109.086 98.1261V96.2445C109.039 93.4691 106.97 91.1641 104.241 90.8348ZM103.771 101.043C102.172 101.043 100.854 99.161 100.854 96.856C100.854 94.551 102.172 92.6694 103.771 92.6694C105.37 92.6694 106.687 94.551 106.687 96.856C106.687 99.161 105.323 101.043 103.771 101.043Z" fill="#A1A1A1"/>
<path d="M85.0019 92.6695C85.0489 92.0109 85.6134 91.4934 86.272 91.4934C86.8835 91.4934 87.401 91.9639 87.495 92.5754V98.2673C87.5421 99.3021 87.1658 100.29 86.4602 101.09C86.4131 101.184 86.319 101.231 86.272 101.278L86.0368 101.513C85.2371 102.172 84.2022 102.501 83.1673 102.501H81.1916C80.3919 102.501 79.6393 102.313 78.9337 101.936C78.6985 101.795 78.4633 101.654 78.2751 101.513C78.0399 101.325 77.6636 101.325 77.4284 101.513C77.1932 101.654 76.958 101.842 76.6758 101.983C76.5346 102.078 76.3465 102.172 76.1583 102.219C75.782 102.407 75.4057 102.501 74.9823 102.501H72.1599C71.9717 102.501 71.7836 102.454 71.5484 102.454C71.3602 102.407 71.172 102.407 71.0309 102.501C70.8427 102.595 70.7016 102.736 70.6075 102.877C70.5135 104.006 69.996 105.041 69.1493 105.747C68.4437 106.311 67.5499 106.64 66.6562 106.64C66.3739 106.64 66.0917 106.593 65.8565 106.452C65.6213 106.311 65.4801 106.076 65.4331 105.794C65.4331 105.37 65.9035 105.041 65.9976 104.947C66.421 104.665 66.7502 104.759 67.3147 104.524C67.8322 104.288 68.1614 103.771 68.1614 103.206V92.5283C68.2555 91.9638 68.7259 91.5405 69.2904 91.4934C69.5256 91.4464 69.8079 91.4934 69.996 91.6346C70.4194 91.8698 70.7016 92.3402 70.7016 92.8106V98.7847C70.7016 99.3962 71.0309 99.9607 71.5954 100.196C72.301 100.525 73.0536 100.713 73.8533 100.666C74.606 100.619 75.3116 100.384 75.9231 99.9607C76.2994 99.6785 76.5346 99.2551 76.5346 98.7847V88.4829C76.5346 87.7773 77.0521 87.2128 77.7577 87.1187C78.4633 87.0717 79.0748 87.5891 79.2159 88.2947V98.6906C79.2159 99.0669 79.3571 99.4433 79.6393 99.6785C80.3449 100.29 81.1916 100.666 82.1324 100.713C82.9321 100.713 83.6848 100.478 84.3433 100.008C84.7197 99.7255 84.9549 99.3492 84.9549 98.8788C84.9549 96.809 85.0019 94.7392 85.0019 92.6695Z" fill="#A1A1A1"/>
<path d="M85.8959 107.017C86.5714 107.017 87.1189 106.469 87.1189 105.794C87.1189 105.118 86.5714 104.571 85.8959 104.571C85.2204 104.571 84.6729 105.118 84.6729 105.794C84.6729 106.469 85.2204 107.017 85.8959 107.017Z" fill="#A1A1A1"/>
<path d="M82.0854 107.017C82.7608 107.017 83.3084 106.469 83.3084 105.794C83.3084 105.118 82.7608 104.571 82.0854 104.571C81.4099 104.571 80.8623 105.118 80.8623 105.794C80.8623 106.469 81.4099 107.017 82.0854 107.017Z" fill="#A1A1A1"/>
<path d="M69.4315 89.6121C70.107 89.6121 70.6546 89.0645 70.6546 88.3891C70.6546 87.7136 70.107 87.166 69.4315 87.166C68.7561 87.166 68.2085 87.7136 68.2085 88.3891C68.2085 89.0645 68.7561 89.6121 69.4315 89.6121Z" fill="#A1A1A1"/>
</svg>
