<svg width="120" height="120" viewBox="0 0 120 120" fill="none" xmlns="http://www.w3.org/2000/svg">
<path d="M58.8943 69.6196C56.8716 66.3267 54.99 63.2691 53.1083 60.1644C49.4392 54.1433 45.77 48.0751 42.195 42.0069C37.6321 34.4334 38.714 24.696 44.9233 18.3455C48.3573 14.8175 50.2389 14.3942 55.6015 16.558C56.3071 16.8403 56.9186 17.3107 57.9065 17.8281C57.0597 18.0163 56.4952 18.1574 55.9778 18.2515C46.7579 20.1331 42.0068 30.7642 46.8049 38.8551C51.603 46.9461 56.4952 54.943 61.3874 62.9869C61.9519 63.6925 61.9519 64.6333 61.3874 65.3389C60.5407 66.656 59.7881 68.0202 58.8943 69.6196Z" fill="#A1A1A1"/>
<path d="M52.3559 13.5476C53.7671 13.2653 55.1312 12.936 56.5424 12.7008C68.82 10.8663 77.4754 21.4033 78.2281 29.3061C78.6985 34.1513 77.5695 39.0435 74.9352 43.183C71.3602 49.016 67.8321 54.849 64.3041 60.682C64.163 60.8702 64.0689 61.0583 63.7867 61.4347C62.7518 59.6471 61.6698 58.0478 60.8702 56.3543C60.682 55.978 61.1994 55.1313 61.5287 54.6138C64.21 50.192 66.8913 45.7702 69.5726 41.3955C70.8898 39.2787 72.1599 37.1618 72.6303 34.6687C73.477 30.1528 72.1599 26.1073 69.6197 22.4382C65.6683 16.7934 60.1175 14.018 53.2496 13.9239H52.4499C52.3559 13.8298 52.3088 13.6887 52.3559 13.5476Z" fill="#A1A1A1"/>
<path d="M40.1254 92.058C44.4061 91.9169 47.9341 95.2568 48.0753 99.5374C48.0753 99.6315 48.0753 99.6786 48.0753 99.7726C48.1223 104.194 44.6884 107.44 39.8902 107.487C35.4214 107.534 32.0345 104.147 32.0815 99.5845C32.1286 95.3508 35.6096 92.058 40.1254 92.058ZM40.1254 94.1748C37.0208 93.8456 34.2454 96.1035 33.9161 99.2082C33.5868 102.313 35.8448 105.088 38.9494 105.417C39.2787 105.465 39.608 105.465 39.9843 105.417C43.3242 105.465 45.7232 103.113 45.7703 99.8667C45.7703 96.5269 43.4183 94.1748 40.1254 94.1748Z" fill="#A1A1A1"/>
<path d="M94.5511 98.6437H100.76C101.419 98.6437 101.983 98.5967 101.983 99.5846C101.983 100.572 101.419 100.619 100.713 100.619C99.0199 100.619 97.2794 100.666 95.586 100.619C94.7863 100.619 94.457 100.761 94.504 101.654C94.5511 102.783 94.504 103.912 94.504 105.135H103.018V107.158C102.736 107.205 102.407 107.252 102.125 107.252H93.3751C92.6224 107.252 92.2461 107.111 92.2461 106.264V93.4223C92.2461 92.5755 92.6224 92.1992 93.5162 92.1992C96.2445 92.2463 98.9729 92.2463 101.654 92.1992C102.407 92.1992 102.877 92.2933 102.924 93.2341C102.924 94.269 102.36 94.222 101.654 94.222C99.7726 94.222 97.8439 94.269 95.9623 94.1749C94.7863 94.1279 94.457 94.5512 94.5511 95.6802C94.5981 96.621 94.5511 97.5618 94.5511 98.6437Z" fill="#A1A1A1"/>
<path d="M92.387 77.6635C93.9394 77.099 94.9743 77.6635 95.868 78.8866C97.1381 80.58 98.5493 82.1324 100.102 83.5436V79.4511C100.102 77.4754 100.102 77.4754 102.077 77.5694C102.266 77.5694 102.454 77.6165 102.783 77.6165C102.783 78.0398 102.83 78.4162 102.83 78.8395C102.83 81.662 102.877 84.5314 102.83 87.3538C102.83 87.8242 102.689 88.718 102.454 88.765C101.795 88.9062 101.09 88.8121 100.478 88.5298C99.9135 88.1535 99.3961 87.6361 99.0197 87.0716C97.7967 85.5193 96.5266 84.061 95.1154 82.6968V87.3538C95.1154 88.9532 95.0684 88.9532 93.469 88.9062C92.5752 88.8591 92.293 88.4358 92.293 87.6831V78.6043C92.34 78.3221 92.387 77.9928 92.387 77.6635Z" fill="#A1A1A1"/>
<path d="M57.9069 23.5674C56.6838 27.3777 57.4365 30.8586 58.8947 34.2926C59.6003 35.892 59.6944 37.6325 59.271 39.3259C58.9418 40.6901 58.001 41.2075 56.872 40.5019C55.6489 39.7963 54.567 38.8085 53.7203 37.6795C51.3212 34.0103 51.8857 28.5066 54.7552 25.2138C55.5078 24.2259 56.6368 23.6144 57.9069 23.5674Z" fill="#A1A1A1"/>
<path d="M88.5299 94.2219C86.1779 94.2219 83.9199 94.269 81.6149 94.2219C80.6741 94.2219 80.2508 94.4572 80.2978 95.492C80.3449 96.5269 80.2978 97.5148 80.2978 98.6437H87.542C88.0595 100.478 87.9654 100.619 86.2719 100.619C84.6726 100.619 83.0732 100.666 81.4738 100.572C80.533 100.525 80.2037 100.902 80.2978 101.795C80.3449 102.595 80.3449 103.348 80.2978 104.147C80.2508 104.947 80.533 105.229 81.3797 105.229C83.6847 105.182 85.9427 105.229 88.2476 105.229C88.4358 105.229 88.624 105.276 88.8592 105.276V107.205H78.181C78.134 106.876 78.0869 106.499 78.0869 106.17V93.7986C78.0869 92.3403 78.181 92.2463 79.6863 92.2463H87.0246C88.718 92.1992 88.8592 92.3403 88.5299 94.2219Z" fill="#A1A1A1"/>
<path d="M60.776 40.7842C61.1053 36.6446 59.647 33.1636 58.7532 29.5886C58.424 28.2244 58.6121 26.625 58.8473 25.2138C59.0825 23.5674 60.3526 23.144 61.8109 24.0849C63.5984 25.3079 64.8685 27.1895 65.2448 29.3063C65.9975 32.8814 65.6211 36.2213 63.128 38.9967C62.5165 39.6552 61.6697 40.0786 60.776 40.7842Z" fill="#A1A1A1"/>
<path d="M84.4376 89.0944C80.8626 89.0944 78.1342 86.5072 78.1813 83.1203C78.2283 79.7334 80.8155 77.3343 84.4376 77.2873C88.0597 77.2402 90.741 79.7804 90.694 83.2143C90.647 86.6483 87.9657 89.0944 84.4376 89.0944ZM87.7775 83.1673C87.7775 81.0975 86.4133 79.6863 84.3906 79.6863C82.3679 79.6863 81.0037 81.1916 81.0037 83.2143C80.9096 85.0489 82.3679 86.6013 84.2024 86.6953C84.2965 86.6953 84.3436 86.6953 84.4376 86.6953C86.4133 86.7424 87.8245 85.2841 87.7775 83.1673Z" fill="#A1A1A1"/>
<path d="M32.4106 77.4284C36.0798 77.3814 38.62 79.8275 38.62 83.3555C38.62 86.6013 35.9387 89.1415 32.5047 89.1885C28.8356 89.2355 26.2013 86.7424 26.2013 83.2144C26.1543 79.7804 28.7415 77.4284 32.4106 77.4284ZM32.4106 79.7804C30.5761 79.7334 29.0237 81.1916 28.9767 83.0262C28.9767 83.1203 28.9767 83.1673 28.9767 83.2614C28.9767 85.143 30.529 86.6954 32.4577 86.6483C34.3863 86.6013 35.8916 85.096 35.8446 83.1673C35.7975 81.1916 34.3863 79.6863 32.4106 79.7804Z" fill="#A1A1A1"/>
<path d="M30.6703 94.6451C30.2939 95.0214 29.8706 95.3978 29.4002 95.8211C27.3774 94.6451 25.3077 93.6102 23.0027 94.504C21.8737 94.9744 20.8859 95.7741 20.2273 96.809C18.722 99.161 19.1924 102.266 21.3092 104.1C23.4731 105.935 26.7659 105.747 29.3061 103.583C29.7295 104.053 30.1058 104.524 30.4821 104.994C29.3531 106.97 25.8722 108.005 22.9086 107.252C19.4747 106.358 17.1226 103.583 17.0286 100.149C16.8874 96.4797 18.8631 93.6102 22.2971 92.4813C25.5429 91.4464 29.1179 92.3401 30.6703 94.6451Z" fill="#A1A1A1"/>
<path d="M63.2694 88.8593C62.9401 88.8122 62.5638 88.8122 62.2345 88.8593C60.9174 89.0945 59.9766 88.6711 59.7414 87.2599C59.6944 86.7425 59.224 86.3191 58.6595 86.4132C58.6124 86.4132 58.5654 86.4132 58.5654 86.4132C57.8598 86.4602 57.1542 86.5073 56.4486 86.4602C54.9903 86.3191 53.8614 86.5543 53.5321 88.2478C53.485 88.53 52.9676 88.8122 52.5913 88.8593C51.8857 88.9063 51.2271 88.9534 50.5215 88.9063C51.133 87.4951 51.6505 86.2721 52.1679 85.049C53.1087 82.8851 54.1436 80.7213 55.0374 78.5574C55.3666 77.8048 55.9311 77.3814 56.6367 77.5225C57.3423 77.6637 58.2361 77.8989 58.4713 78.3693C60.1648 81.7091 61.6701 85.1901 63.2694 88.8593ZM58.4243 84.2023C57.8598 82.8851 57.3894 81.7562 56.8249 80.392C56.2604 81.8032 55.79 82.9322 55.2726 84.2023H58.4243Z" fill="#A1A1A1"/>
<path d="M53.3909 99.2082H60.6822C60.7292 99.9138 60.7763 100.478 60.8233 101.278H55.3196C53.2968 101.278 53.3439 101.278 53.3909 103.348C53.438 104.571 53.3909 105.841 53.3909 107.158H51.133C51.133 106.782 51.0859 106.452 51.0859 106.123V93.5164C51.0859 92.5755 51.3211 92.1992 52.356 92.1992C55.4137 92.2463 58.4713 92.1992 61.623 92.1992V94.222H56.5426C55.79 94.1749 54.9903 94.222 54.2376 94.269C53.9554 94.316 53.485 94.7394 53.485 94.9746C53.3439 96.3858 53.3439 97.797 53.3909 99.2082Z" fill="#A1A1A1"/>
<path d="M66.9853 107.205H64.7274C64.7274 106.735 64.6803 106.358 64.6803 105.935C64.6803 101.842 64.7274 97.797 64.6333 93.7045C64.6333 92.5755 65.0096 92.1992 66.0445 92.1992C68.7729 92.2463 71.5012 92.1992 74.1825 92.1992C75.3115 92.1992 75.4526 92.5755 75.0292 94.222C72.7713 94.222 70.5134 94.269 68.2084 94.222C67.1735 94.1749 66.7972 94.5042 66.8912 95.5391C66.9853 96.4799 66.9853 97.3737 66.8912 98.3145C66.8442 99.0201 67.1735 99.2553 67.832 99.2553C69.4314 99.2082 71.0308 99.2553 72.6302 99.2082C74.3707 99.2082 74.5118 99.3494 74.1825 101.231H66.9853V107.205Z" fill="#A1A1A1"/>
<path d="M50.4744 79.357C49.3454 80.8623 49.3454 80.8623 47.6049 80.0156C46.0996 79.2629 44.2651 79.6863 43.2302 81.0034C42.1953 82.4146 42.2894 84.3433 43.4654 85.6134C44.6884 86.8364 46.6171 87.0246 48.0283 86.0367C49.1102 85.3311 49.2043 85.3782 50.4274 86.9305C49.5806 88.718 46.3819 89.4707 44.3591 88.9062C41.4897 88.1065 39.7492 85.9897 39.7021 83.2613C39.7021 80.7212 41.2545 78.4632 43.6535 77.6165C46.2878 76.7698 49.2043 77.5224 50.4744 79.357Z" fill="#A1A1A1"/>
<path d="M62.6577 79.7804C62.1873 77.6636 62.3284 77.4755 64.257 77.4755C66.2798 77.4755 68.3025 77.4755 70.3252 77.4284C72.4891 77.3814 72.5361 77.3814 72.3009 79.7334C71.5483 79.7334 70.7956 79.7804 70.043 79.7334C69.1492 79.6393 68.8199 79.9686 68.8199 80.9094C68.914 83.0733 68.8199 85.2371 68.867 87.448C68.867 88.3418 68.7729 88.9533 67.6439 88.9063C66.2798 88.8122 66.0916 88.6711 66.0916 87.3539C66.0916 85.1901 66.0446 83.0262 66.0916 80.8153C66.0916 80.0156 65.8564 79.6864 65.0567 79.7334C64.257 79.8275 63.4573 79.8275 62.6577 79.7804Z" fill="#A1A1A1"/>
<path d="M17.4048 88.8593V78.4164C17.4048 77.7578 17.64 77.4756 18.2986 77.5226C18.816 77.5696 19.3805 77.5226 20.039 77.5226V86.4603C21.5914 86.4603 23.0496 86.5073 24.5079 86.4603C25.4957 86.4132 25.778 86.8366 25.825 87.7304C25.8721 88.6241 25.4016 88.8593 24.602 88.8593H17.4048Z" fill="#A1A1A1"/>
<path d="M76.4408 83.2143C76.4408 84.7666 76.3937 86.319 76.4408 87.8713C76.4408 88.7651 76.0174 88.9532 75.2647 88.8591C74.6062 88.7651 73.5713 89.2825 73.5713 87.9183V78.4632C73.5713 77.0991 74.5591 77.4754 75.3118 77.4283C76.1585 77.3343 76.4878 77.6165 76.4408 78.5103C76.3467 80.1096 76.3937 81.662 76.4408 83.2143Z" fill="#A1A1A1"/>
</svg>
