<svg width="176" height="176" viewBox="0 0 176 176" fill="none" xmlns="http://www.w3.org/2000/svg">
<path d="M87.1588 95.2019C85.6452 92.7379 84.2372 90.4499 82.8292 88.1267C80.0836 83.6211 77.338 79.0803 74.6628 74.5395C72.9994 71.7773 72.2975 68.542 72.6669 65.3389C73.0362 62.1357 74.456 59.145 76.7044 56.8339C79.274 54.1939 80.682 53.8771 84.6948 55.4963C85.2228 55.7075 85.6804 56.0595 86.4196 56.4467C85.786 56.5875 85.3636 56.6931 84.9764 56.7635C78.0772 58.1715 74.522 66.1267 78.1124 72.1811C81.7028 78.2355 85.3636 84.2195 89.0244 90.2387C89.2214 90.4898 89.3285 90.7996 89.3285 91.1187C89.3285 91.4378 89.2214 91.7477 89.0244 91.9987C88.3908 92.9843 87.8276 94.0051 87.1588 95.2019Z" fill="#A1A1A1"/>
<path d="M82.2657 53.2433C83.3217 53.0321 84.3425 52.7857 85.3985 52.6097C94.5857 51.2369 101.063 59.1217 101.626 65.0353C101.991 68.6749 101.123 72.3317 99.1617 75.4193C96.4865 79.7841 93.8465 84.1489 91.2065 88.5137C91.1009 88.6545 91.0305 88.7953 90.8193 89.0769C90.0449 87.7393 89.2353 86.5425 88.6369 85.2753C88.4961 84.9937 88.8833 84.3601 89.1297 83.9729C91.1361 80.6641 93.1425 77.3553 95.1489 74.0817C96.1345 72.4977 97.0849 70.9137 97.4369 69.0481C98.0705 65.6689 97.0849 62.6417 95.1841 59.8961C92.2273 55.6721 88.0737 53.5953 82.9345 53.5249H82.3361C82.2836 53.4408 82.259 53.3423 82.2657 53.2433Z" fill="#A1A1A1"/>
<path d="M73.1138 111.992C73.8866 111.969 74.6562 112.101 75.377 112.38C76.0979 112.66 76.7552 113.081 77.31 113.62C77.8649 114.158 78.3059 114.803 78.607 115.515C78.908 116.227 79.063 116.992 79.0626 117.765C79.0978 121.074 76.5282 123.503 72.9378 123.538C69.5938 123.573 67.0594 121.039 67.0946 117.624C67.1298 114.456 69.7346 111.992 73.1138 111.992ZM73.1138 113.576C72.5305 113.514 71.9406 113.574 71.3817 113.752C70.8228 113.93 70.3071 114.223 69.8675 114.611C69.428 115 69.0741 115.476 68.8286 116.008C68.583 116.541 68.4512 117.119 68.4413 117.706C68.4315 118.292 68.544 118.875 68.7716 119.415C68.9992 119.956 69.3369 120.443 69.7632 120.846C70.1895 121.249 70.6951 121.559 71.2477 121.756C71.8004 121.953 72.3879 122.032 72.973 121.989C75.4722 122.024 77.2674 120.264 77.3026 117.836C77.3378 115.336 75.5778 113.576 73.1138 113.576Z" fill="#A1A1A1"/>
<path d="M113.841 116.921H118.487C118.98 116.921 119.402 116.885 119.402 117.625C119.402 118.364 118.98 118.399 118.452 118.399C117.185 118.399 115.882 118.434 114.615 118.399C114.017 118.399 113.77 118.505 113.805 119.173C113.841 120.018 113.805 120.863 113.805 121.778H120.177V123.292C119.956 123.334 119.732 123.358 119.508 123.362H112.961C112.397 123.362 112.116 123.257 112.116 122.623V113.013C112.116 112.38 112.397 112.098 113.066 112.098C115.108 112.133 117.149 112.133 119.156 112.098C119.719 112.098 120.071 112.169 120.106 112.873C120.106 113.647 119.684 113.612 119.156 113.612C117.748 113.612 116.305 113.647 114.897 113.577C114.017 113.541 113.77 113.858 113.841 114.703C113.876 115.407 113.841 116.111 113.841 116.921Z" fill="#A1A1A1"/>
<path d="M112.221 101.221C113.383 100.799 114.157 101.221 114.826 102.136C115.777 103.39 116.837 104.556 117.994 105.621V102.559C117.994 101.08 117.994 101.08 119.472 101.151C119.613 101.151 119.754 101.186 120 101.186C120 101.503 120.036 101.784 120.036 102.101C120.036 104.213 120.071 106.36 120.036 108.472C120.036 108.824 119.93 109.493 119.754 109.528C119.255 109.631 118.736 109.57 118.276 109.352C117.845 109.062 117.474 108.692 117.184 108.261C116.279 107.111 115.303 106.017 114.263 104.987V108.472C114.263 109.669 114.228 109.669 113.031 109.634C112.362 109.599 112.151 109.282 112.151 108.719V101.925C112.206 101.695 112.23 101.458 112.221 101.221Z" fill="#A1A1A1"/>
<path d="M86.4195 60.7412C85.5043 63.5924 86.0675 66.1972 87.1587 68.7668C87.6738 69.9548 87.773 71.2818 87.4403 72.5332C87.1939 73.554 86.4899 73.9412 85.6451 73.4132C84.7263 72.8731 83.9245 72.1551 83.2867 71.3012C81.4915 68.5556 81.9139 64.4372 84.0611 61.9732C84.3403 61.6081 84.6962 61.3085 85.1037 61.0957C85.5111 60.8828 85.9602 60.7618 86.4195 60.7412Z" fill="#A1A1A1"/>
<path d="M109.335 113.612C107.575 113.612 105.885 113.647 104.161 113.612C103.457 113.612 103.14 113.788 103.175 114.562C103.21 115.336 103.175 116.076 103.175 116.92H108.596C108.983 118.293 108.913 118.399 107.645 118.399C106.449 118.399 105.252 118.434 104.055 118.364C103.351 118.328 103.105 118.61 103.175 119.279C103.21 119.865 103.21 120.453 103.175 121.039C103.14 121.637 103.351 121.848 103.985 121.848C105.709 121.813 107.399 121.848 109.124 121.848C109.265 121.848 109.405 121.884 109.581 121.884V123.327H101.591C101.552 123.07 101.528 122.812 101.521 122.552V113.295C101.521 112.204 101.591 112.133 102.717 112.133H108.209C109.472 112.098 109.581 112.204 109.335 113.612Z" fill="#A1A1A1"/>
<path d="M88.5665 73.6244C88.8129 70.5268 87.7217 67.922 87.0529 65.2468C86.8065 64.226 86.9473 63.0292 87.1233 61.9732C87.2993 60.7412 88.2497 60.4244 89.3409 61.1284C90.0096 61.5738 90.5817 62.1493 91.0232 62.8205C91.4647 63.4918 91.7664 64.2451 91.9105 65.0356C92.4737 67.7108 92.1921 70.21 90.3265 72.2868C89.8689 72.7796 89.2353 73.0964 88.5665 73.6244Z" fill="#A1A1A1"/>
<path d="M106.272 109.775C103.597 109.775 101.556 107.839 101.591 105.304C101.626 102.77 103.562 100.975 106.272 100.939C108.983 100.904 110.989 102.805 110.954 105.375C110.919 107.944 108.912 109.775 106.272 109.775ZM108.772 105.339C108.772 103.791 107.751 102.735 106.237 102.735C104.724 102.735 103.703 103.861 103.703 105.375C103.689 105.717 103.746 106.059 103.87 106.379C103.994 106.699 104.182 106.99 104.423 107.234C104.664 107.478 104.952 107.67 105.27 107.799C105.588 107.927 105.93 107.988 106.272 107.979C107.751 108.015 108.807 106.923 108.768 105.339H108.772Z" fill="#A1A1A1"/>
<path d="M67.3413 101.024C70.0869 100.989 71.9877 102.819 71.9877 105.459C71.9877 107.888 69.9813 109.789 67.4117 109.824C64.6661 109.859 62.6949 107.994 62.6949 105.354C62.6562 102.784 64.5957 101.024 67.3413 101.024ZM67.3413 102.784C66.9984 102.775 66.6574 102.837 66.3392 102.965C66.0211 103.093 65.7327 103.285 65.4918 103.529C65.2509 103.773 65.0627 104.064 64.9388 104.384C64.815 104.704 64.7581 105.046 64.7717 105.389C64.774 105.726 64.8428 106.06 64.974 106.371C65.1053 106.682 65.2965 106.964 65.5368 107.201C65.777 107.438 66.0616 107.625 66.3742 107.752C66.6869 107.879 67.0215 107.943 67.3589 107.941C67.6964 107.938 68.03 107.87 68.3409 107.738C68.6518 107.607 68.9338 107.416 69.1707 107.176C69.4077 106.935 69.595 106.651 69.722 106.338C69.849 106.026 69.9132 105.691 69.9109 105.354C69.8757 103.84 68.8197 102.735 67.3413 102.784Z" fill="#A1A1A1"/>
<path d="M66.0385 113.929C65.7569 114.21 65.4401 114.492 65.0881 114.809C63.5745 113.929 62.0257 113.154 60.3009 113.823C59.455 114.183 58.7331 114.782 58.2241 115.548C57.6828 116.403 57.4668 117.425 57.6154 118.426C57.764 119.427 58.2673 120.342 59.0337 121.004C60.6529 122.377 63.1169 122.236 65.0177 120.617C65.3345 120.969 65.6161 121.321 65.8977 121.673C65.0529 123.151 62.4481 123.925 60.2305 123.362C57.6609 122.693 55.9009 120.617 55.8305 118.047C55.7249 115.301 57.2033 113.154 59.7729 112.309C62.2017 111.535 64.8769 112.204 66.0385 113.929Z" fill="#A1A1A1"/>
<path d="M90.4323 109.599C90.1744 109.581 89.9157 109.581 89.6579 109.599C88.6723 109.775 87.9683 109.458 87.7923 108.402C87.7818 108.3 87.7499 108.201 87.6986 108.113C87.6473 108.024 87.5778 107.947 87.4946 107.887C87.4115 107.827 87.3166 107.786 87.2162 107.765C87.1158 107.745 87.0122 107.746 86.9123 107.768C86.3856 107.815 85.8565 107.827 85.3283 107.803C84.2371 107.698 83.3923 107.874 83.1459 109.141C83.1107 109.352 82.7235 109.563 82.4419 109.599C81.9271 109.648 81.4095 109.659 80.8931 109.634C81.3507 108.578 81.7379 107.663 82.1251 106.747C82.8291 105.128 83.6035 103.509 84.2723 101.89C84.5187 101.327 84.9411 101.01 85.4691 101.115C85.9971 101.221 86.6659 101.397 86.8419 101.749C88.1091 104.248 89.2355 106.853 90.4323 109.599ZM86.8067 106.114C86.3843 105.128 86.0323 104.283 85.6099 103.263C85.1875 104.319 84.8355 105.163 84.4483 106.114H86.8067Z" fill="#A1A1A1"/>
<path d="M83.0403 117.343H88.4963C88.5315 117.871 88.5667 118.293 88.6019 118.892H84.48C82.9664 118.892 83.0016 118.892 83.0368 120.441C83.072 121.356 83.0368 122.306 83.0368 123.292H81.3472C81.3472 123.01 81.312 122.764 81.312 122.517V113.084C81.312 112.38 81.488 112.098 82.2624 112.098C84.5504 112.133 86.8384 112.098 89.1968 112.098V113.612H85.3952C84.8201 113.588 84.2441 113.6 83.6704 113.647C83.4592 113.682 83.1072 113.999 83.1072 114.175C83.031 115.229 83.0086 116.286 83.0403 117.343Z" fill="#A1A1A1"/>
<path d="M93.2132 123.327H91.5201C91.5201 122.975 91.4849 122.693 91.4849 122.377C91.4849 119.314 91.5201 116.287 91.4497 113.225C91.4497 112.38 91.7313 112.098 92.5057 112.098C94.5473 112.133 96.5889 112.098 98.5953 112.098C99.4401 112.098 99.5457 112.38 99.2289 113.612C97.5393 113.612 95.8497 113.647 94.1249 113.612C93.3505 113.577 93.0689 113.823 93.1393 114.597C93.1921 115.289 93.1921 115.983 93.1393 116.674C93.1041 117.202 93.3505 117.378 93.8433 117.378C95.0401 117.343 96.2369 117.378 97.4337 117.343C98.7361 117.343 98.8417 117.449 98.5953 118.857H93.2097L93.2132 123.327Z" fill="#A1A1A1"/>
<path d="M80.8577 102.488C80.0129 103.615 80.0129 103.615 78.7105 102.981C78.1642 102.704 77.5382 102.626 76.9405 102.761C76.3428 102.896 75.811 103.235 75.4369 103.72C75.0592 104.226 74.87 104.847 74.9022 105.477C74.9343 106.107 75.1858 106.706 75.6129 107.17C76.0538 107.616 76.6379 107.893 77.2624 107.951C77.887 108.009 78.512 107.844 79.0273 107.487C79.8369 106.959 79.9073 106.994 80.8225 108.156C80.1889 109.493 77.7953 110.056 76.2817 109.634C74.1345 109.036 72.8321 107.452 72.7969 105.41C72.7918 104.486 73.0734 103.584 73.6031 102.827C74.1327 102.071 74.8842 101.497 75.7537 101.186C77.7249 100.552 79.9038 101.116 80.8577 102.488Z" fill="#A1A1A1"/>
<path d="M89.9747 102.805C89.6227 101.221 89.7283 101.08 91.1715 101.08C92.6851 101.08 94.1987 101.08 95.7123 101.045C97.3315 101.01 97.3667 101.01 97.1907 102.77C96.6275 102.77 96.0643 102.805 95.5011 102.77C94.8323 102.7 94.5859 102.946 94.5859 103.65C94.6563 105.269 94.5859 106.888 94.6211 108.543C94.6211 109.212 94.5507 109.669 93.7059 109.634C92.6851 109.564 92.5443 109.458 92.5443 108.472C92.5443 106.853 92.5091 105.234 92.5443 103.58C92.5443 102.981 92.3683 102.735 91.7699 102.77C91.1727 102.817 90.5732 102.828 89.9747 102.805Z" fill="#A1A1A1"/>
<path d="M56.1123 109.599V101.784C56.1123 101.292 56.2883 101.08 56.7811 101.116C57.1683 101.151 57.5907 101.116 58.0835 101.116V107.804C59.2451 107.804 60.3363 107.839 61.4275 107.804C62.1667 107.768 62.3779 108.085 62.4131 108.754C62.4483 109.423 62.0963 109.599 61.4979 109.599H56.1123Z" fill="#A1A1A1"/>
<path d="M100.288 105.375C100.288 106.536 100.253 107.698 100.288 108.86C100.288 109.528 99.9715 109.669 99.4083 109.599C98.9155 109.528 98.1411 109.915 98.1411 108.895V101.82C98.1411 100.799 98.8803 101.08 99.4435 101.045C100.077 100.975 100.324 101.186 100.288 101.855C100.218 103.051 100.253 104.213 100.288 105.375Z" fill="#A1A1A1"/>
</svg>
