<svg width="120" height="120" viewBox="0 0 120 120" fill="none" xmlns="http://www.w3.org/2000/svg">
<path d="M4.2334 67.8794C4.42156 66.7975 4.56268 65.6685 4.75084 64.5866C5.50349 60.2589 7.29102 56.1193 9.92528 52.5913C12.8418 48.734 16.6521 46.0057 21.0268 44.03C27.1421 41.2546 33.6336 39.7493 40.3134 38.9496C45.9582 38.291 51.6501 37.6325 57.342 37.3032C64.4921 36.8328 71.6893 36.6917 78.8865 36.4565C83.2142 36.3153 87.4949 36.3153 91.8226 36.1742C95.6329 36.0331 99.3961 35.7979 103.065 34.763C105.417 34.1045 107.581 33.0225 109.039 30.9057C110.121 29.3063 110.404 27.5188 110.498 25.6372C110.545 24.9786 110.498 24.3671 110.451 23.7085C110.404 23.144 110.733 23.0029 111.109 23.2852C111.815 23.8026 112.426 24.4141 112.944 25.1197C114.261 27.0014 114.778 29.1652 115.202 31.3761C115.954 34.8571 115.954 38.4792 115.108 41.9602C114.214 45.5823 111.862 47.8402 108.569 49.3926C105.088 51.039 101.372 51.6505 97.5615 51.9328C92.0578 52.3561 86.6011 52.0268 81.1444 51.5094C73.4298 50.7567 65.7152 49.863 58.0005 49.0633C51.509 48.4047 45.0174 47.8873 38.4788 48.0754C33.1162 48.2166 27.8006 48.781 22.6732 50.3334C17.5458 51.8857 13.124 54.3789 9.78416 58.6125C7.76143 61.1997 6.11501 64.0221 4.939 67.0798L4.51564 67.9265C4.42156 67.9735 4.32748 67.9265 4.2334 67.8794Z" fill="#A1A1A1"/>
<path d="M113.226 60.1177C113.603 61.0114 113.932 61.9522 114.167 62.8931C114.826 66.5152 114.308 70.2784 112.709 73.5712C110.122 79.0749 105.888 83.1204 100.855 86.3662C93.8927 90.835 86.1781 93.3282 78.1342 94.9276C69.9021 96.574 61.4819 97.1385 53.0616 96.7151C45.2059 96.3388 37.3972 94.7394 30.0119 92.0581C24.4141 90.0354 19.0985 87.3541 14.4415 83.5908C12.748 82.3207 11.2898 80.7684 10.2079 78.9809C9.73746 78.1341 9.40818 77.2404 9.17298 76.2996C9.12594 75.8762 9.12594 75.4528 9.17298 75.0295L9.73746 75.4058C13.7359 79.6865 18.6751 82.4148 24.0377 84.4846C28.1773 86.084 32.505 87.26 36.8798 87.9656C41.0193 88.6241 45.2059 89.0475 49.3925 89.2827C57.013 89.8002 64.5865 89.1416 72.113 87.8715C79.4513 86.7425 86.5544 84.5316 93.2812 81.427C97.703 79.4042 101.748 76.6759 105.276 73.3831C108.852 69.9021 111.533 65.8566 112.709 60.9174C112.756 60.6351 112.85 60.3999 112.944 60.1177C112.991 60.1647 113.085 60.1177 113.226 60.1177Z" fill="#A1A1A1"/>
<path d="M47.4169 74.0414C47.1817 74.2296 46.8995 74.4178 46.6172 74.653C43.2773 77.052 39.6082 77.5224 35.7509 76.1583C33.587 75.3586 32.364 73.524 31.9406 71.3131C31.2821 68.0203 31.9406 64.5863 33.7752 61.7639C35.7038 58.6122 38.7144 57.201 42.3836 57.1069C44.1711 57.0599 45.9587 57.154 47.511 58.0477C48.1695 58.4711 48.7811 58.9415 49.3456 59.4589C49.7219 59.7882 50.0041 59.8823 50.3804 59.553C53.391 57.0599 56.9191 56.6835 60.5882 57.4832C62.8461 57.8596 64.6807 59.553 65.2452 61.7639C66.6564 66.7972 64.7748 73.477 59.2711 75.9231C56.4016 77.2872 53.1088 77.3343 50.1923 76.1112C49.2515 75.6879 48.4048 74.7941 47.4169 74.0414ZM59.8356 64.9627C59.8356 64.0689 59.7885 63.1281 59.6944 62.2343C59.5533 61.1994 59.13 60.2586 58.048 59.8823C57.0602 59.506 55.9783 59.7882 55.2726 60.5879C54.8022 61.0583 54.4259 61.6228 54.0966 62.2343C53.1558 64.163 52.5443 66.2327 52.4032 68.3496C52.2621 69.7137 52.168 71.0779 52.7325 72.4421C53.4381 74.2296 55.3197 74.7471 56.7779 73.477C57.2013 73.1006 57.5776 72.6773 57.8599 72.1598C59.13 69.9489 59.7885 67.5028 59.8356 64.9627ZM45.253 64.163C45.0649 63.2222 45.0178 62.1873 44.6415 61.2935C44.03 59.6941 42.3836 59.2708 41.0194 60.2586C40.596 60.5879 40.1727 60.9642 39.8904 61.4346C38.7144 63.3633 37.9618 65.5271 37.7736 67.7851C37.4914 69.2904 37.5855 70.8427 37.9618 72.348C38.5263 74.1355 40.4079 74.7941 41.8661 73.571C42.5717 73.0066 43.1833 72.2539 43.5596 71.4072C44.5945 69.1493 45.159 66.6561 45.253 64.163Z" fill="#A1A1A1"/>
<path d="M64.5864 76.2996C66.8444 73.3831 66.8444 69.8551 67.7381 66.6564C68.2085 65.057 68.4437 63.4106 68.8201 61.8112C69.1493 60.447 69.5257 59.1299 68.726 57.7187C69.1023 57.6246 69.5257 57.5305 69.949 57.4835C72.9126 57.4835 75.8761 57.3894 78.7926 57.5776C82.8851 57.8128 85.2372 60.4 85.3783 64.4925C85.5664 67.9264 84.2493 71.3134 81.7562 73.7124C79.9686 75.4999 77.5225 76.4878 74.9823 76.4878C71.7836 76.5348 68.5849 76.4878 65.4332 76.4878C65.1509 76.3937 64.8687 76.3467 64.5864 76.2996ZM79.5453 64.5866C79.5453 64.1162 79.5453 63.5987 79.4982 63.1283C79.263 61.0585 77.8988 59.8825 75.8291 59.8825C75.1705 59.8825 74.7942 60.0707 74.6531 60.8233C73.7593 64.8688 72.8185 68.9143 71.8777 72.9598C71.7366 73.5243 72.0188 73.7124 72.4892 73.8065C74.6531 74.2769 76.6288 73.0068 77.8989 70.8429C79.0278 68.9613 79.5923 66.7975 79.5453 64.5866Z" fill="#A1A1A1"/>
<path d="M29.6824 61.4348C29.306 61.1526 28.9768 60.8703 28.6004 60.5881C26.0132 58.6124 21.5914 59.2239 19.7098 61.9052C17.7341 64.5865 17.2167 68.1146 18.3927 71.2192C18.9572 72.9127 20.5095 74.0416 22.297 74.0416C22.8145 74.0416 23.1908 73.9005 23.2849 73.289C23.5671 71.7837 24.0375 70.3255 24.2257 68.8202C24.3198 68.1146 24.0375 67.3149 23.8964 66.4211C26.0603 66.0918 28.3182 66.327 30.5761 66.28C30.1057 68.2086 29.6824 69.9962 29.306 71.7837C29.0708 72.9597 28.9768 74.1828 28.7416 75.3588C28.6475 75.6881 28.4123 75.9233 28.13 76.0644C24.3668 76.9111 20.6036 77.3815 16.8403 76.0644C13.7827 74.9354 12.1833 72.5834 11.8541 69.4317C11.1955 63.0342 15.8525 57.2953 22.25 56.6367C22.3441 56.6367 22.4381 56.6367 22.5322 56.5897C24.7902 56.3074 27.0951 56.4015 29.306 56.966C30.388 57.2482 30.388 57.2953 30.2469 58.4242C30.1528 59.4121 30.0116 60.3529 29.8705 61.3407C29.9176 61.4348 29.7764 61.4348 29.6824 61.4348Z" fill="#A1A1A1"/>
<path d="M87.0249 76.3466C89.1887 73.9005 89.2828 70.984 89.8943 68.2086C90.0354 67.5501 89.7062 66.7974 89.4239 66.1389C88.389 63.3164 86.9778 60.6351 85.2373 58.189C85.1432 58.0479 85.0492 57.9068 84.9551 57.7186C85.4255 57.5775 85.8018 57.3893 86.2252 57.2953C88.5772 56.8249 91.1174 57.1541 92.3404 59.8354C92.9049 61.0585 93.4694 62.3286 94.0339 63.5987C94.1279 63.8339 94.2691 64.022 94.4572 64.3984C94.8806 63.8809 95.2099 63.5046 95.4921 63.0812C96.1977 62.0463 96.9504 61.0585 97.5619 59.9766C97.8441 59.318 98.0793 58.6594 98.2675 58.0009C98.3616 57.8127 98.5968 57.5305 98.7379 57.5305C99.961 57.4834 101.184 57.4364 102.407 57.4834C102.972 57.4834 102.83 57.8597 102.595 58.189C101.56 59.5532 100.572 60.9644 99.5376 62.3286C98.4086 63.8809 97.1856 65.3392 96.1036 66.9385C95.6332 67.6441 95.2569 68.4438 95.0217 69.2906C94.6454 70.7958 94.3161 72.3952 94.0809 73.9476C93.9868 74.512 94.0339 75.1236 94.222 75.688C94.4102 76.2996 94.222 76.4877 93.7046 76.4877C92.4815 76.4877 91.2585 76.5348 90.0354 76.4877C89.1887 76.4877 88.2479 76.3937 87.0249 76.3466Z" fill="#A1A1A1"/>
</svg>
