<svg width="120" height="120" viewBox="0 0 120 120" fill="none" xmlns="http://www.w3.org/2000/svg">
<path d="M7.71459 97.1854L6.96194 93.1869V97.5146C6.96194 97.7028 6.9149 97.891 6.86786 98.0321C6.77378 98.2202 6.53858 98.2673 6.35042 98.1732C6.30338 98.1262 6.25634 98.0791 6.2093 98.0321C6.11522 97.891 6.06818 97.7028 6.06818 97.5146V92.5754C6.02114 92.3872 6.11522 92.152 6.2093 92.0109C6.30338 91.9168 6.49154 91.8698 6.63266 91.8698H6.9149C7.05602 91.8698 7.1501 91.8698 7.29123 91.9168C7.38531 91.9639 7.43235 92.058 7.47939 92.152C7.52643 92.3402 7.57347 92.4813 7.62051 92.6695L8.27907 96.1034L8.93764 92.6695C8.98468 92.4813 9.03172 92.2932 9.07876 92.105C9.1258 92.0109 9.17284 91.9168 9.26692 91.8698C9.40804 91.8228 9.50212 91.8228 9.64324 91.8228H9.92549C10.0666 91.8228 10.2548 91.8698 10.3489 91.9639C10.4429 92.105 10.537 92.3402 10.49 92.5284V97.4676C10.49 97.6558 10.4429 97.8439 10.3959 97.985C10.3489 98.1262 10.2077 98.1732 10.0666 98.1732C9.92549 98.1732 9.83141 98.1262 9.78437 97.985C9.69028 97.8439 9.64324 97.6558 9.64324 97.4676V93.1399L8.93764 97.1383C8.8906 97.3265 8.84356 97.5146 8.84356 97.7028C8.79652 97.8439 8.74948 97.938 8.6554 98.0321C8.56132 98.1262 8.46724 98.1732 8.32611 98.1732C8.23203 98.1732 8.13795 98.1262 8.04387 98.0791C7.94979 98.0321 7.90275 97.938 7.85571 97.8439C7.80867 97.7498 7.76163 97.6087 7.76163 97.5146C7.80867 97.4206 7.71459 97.3265 7.71459 97.1854Z" fill="#A1A1A1"/>
<path d="M11.9012 92.9516C11.7601 92.9516 11.666 92.9046 11.572 92.8105C11.4779 92.7164 11.4308 92.5283 11.4308 92.3872C11.4308 92.246 11.4779 92.1049 11.572 91.9638C11.666 91.8227 11.9012 91.7756 12.0894 91.9168C12.1364 91.9168 12.1364 91.9638 12.1364 91.9638C12.3246 92.199 12.3246 92.5753 12.1364 92.8105C12.0894 92.9046 11.9953 92.9516 11.9012 92.9516ZM12.3246 94.1277V97.4675C12.3246 97.6557 12.2776 97.8438 12.1835 97.985C12.0894 98.1731 11.8542 98.2202 11.666 98.1261C11.619 98.079 11.572 98.032 11.5249 97.985C11.4308 97.8438 11.3838 97.6557 11.3838 97.4675V94.1277C11.3838 93.9395 11.4308 93.7513 11.4779 93.6102C11.572 93.5161 11.666 93.422 11.7601 93.422C11.9012 93.422 12.0424 93.4691 12.0894 93.6102C12.2305 93.7513 12.3246 93.9395 12.3246 94.1277Z" fill="#A1A1A1"/>
<path d="M13.2652 93.6104H13.3592V92.4815C13.3592 92.3874 13.4063 92.2933 13.4063 92.1992C13.4533 92.1052 13.5004 92.0581 13.5474 92.0111C13.5944 91.964 13.6415 91.917 13.7356 91.917C13.8767 91.917 13.9708 92.0111 14.0178 92.1052C14.0648 92.1992 14.1119 92.2933 14.1119 92.3874C14.1119 92.4815 14.1589 92.6226 14.1589 92.8578V93.6575H14.4882C14.5823 93.6575 14.6764 93.7045 14.7705 93.7516C14.8175 93.8457 14.8645 93.9397 14.8645 94.0338C14.8645 94.1749 14.8175 94.269 14.7234 94.3631C14.6293 94.4101 14.4882 94.4572 14.3471 94.4572H14.206V96.9974C14.206 97.0914 14.253 97.1855 14.3 97.2326C14.3471 97.2796 14.3941 97.3266 14.4882 97.3266C14.5353 97.3266 14.6293 97.3266 14.6764 97.2796C14.8175 97.1855 14.9586 97.2326 15.0527 97.3266C15.0997 97.4207 15.1468 97.5148 15.1468 97.6089C15.1468 97.797 15.0527 97.9382 14.9116 98.0322C14.7234 98.1263 14.4882 98.1734 14.253 98.1734C14.0178 98.2204 13.8296 98.1263 13.6415 97.9852C13.5004 97.8441 13.4063 97.6559 13.3592 97.4678C13.3122 97.1855 13.3122 96.9033 13.3122 96.621V94.4101H13.2181C13.124 94.4101 12.9829 94.3631 12.9359 94.269C12.8888 94.1749 12.8418 94.0809 12.8418 93.9868C12.8418 93.8927 12.8888 93.7986 12.9359 93.7045C13.03 93.6575 13.1711 93.6104 13.2652 93.6104Z" fill="#A1A1A1"/>
<path d="M16.0876 94.2219L16.6521 96.8091L17.1695 94.41C17.2166 94.2219 17.2636 94.0808 17.3107 93.8926L17.4518 93.6104C17.5459 93.5163 17.6399 93.4692 17.734 93.4692C17.8281 93.4692 17.9692 93.5163 18.0163 93.6104C18.1104 93.7044 18.1574 93.7985 18.1574 93.8926C18.2044 94.0808 18.2515 94.2219 18.2985 94.41L18.816 96.8091L19.3804 94.2219C19.3804 94.0808 19.4275 93.9396 19.4745 93.7985C19.4745 93.7044 19.5216 93.6574 19.5686 93.5633C19.6156 93.5163 19.7097 93.4692 19.8038 93.4692C19.8979 93.4692 19.992 93.5163 20.086 93.6104C20.1801 93.7044 20.1801 93.7985 20.1801 93.9396C20.1801 94.1278 20.1331 94.316 20.086 94.5041L19.3804 97.2795C19.3334 97.4677 19.2864 97.6088 19.2393 97.797L19.0982 98.0792C19.0041 98.1733 18.91 98.2203 18.816 98.2203C18.6748 98.2203 18.5808 98.1733 18.4867 98.0792C18.3926 97.9851 18.3456 97.891 18.2985 97.7499C18.2515 97.5618 18.2044 97.4206 18.1574 97.2325L17.6399 94.9745L17.1695 97.2325C17.1225 97.4677 17.0755 97.7029 16.9814 97.9381C16.9343 98.0792 16.7462 98.1733 16.6051 98.1733C16.511 98.1733 16.4169 98.1262 16.3699 98.0792C16.2758 98.0322 16.2287 97.9381 16.1817 97.844C16.1347 97.7499 16.0876 97.6088 16.0876 97.5147C16.0406 97.3736 16.0406 97.2795 15.9935 97.2325L15.2879 94.4571C15.2409 94.1748 15.1938 94.0337 15.1938 93.9396C15.1938 93.8456 15.2409 93.7044 15.2879 93.6104C15.335 93.5163 15.4761 93.4692 15.5702 93.4692C15.6643 93.4692 15.8054 93.5163 15.8524 93.6104C15.9465 93.7985 16.0406 94.0337 16.0876 94.2219Z" fill="#A1A1A1"/>
<path d="M22.8618 97.5149C22.6736 97.703 22.4855 97.8912 22.2503 97.9853C22.0621 98.0794 21.8269 98.1734 21.5917 98.1734C21.4035 98.1734 21.1683 98.1264 21.0272 97.9853C20.839 97.8912 20.6979 97.703 20.6509 97.5149C20.5568 97.3267 20.5098 97.0915 20.5098 96.8563C20.5098 96.5741 20.6038 96.2918 20.745 96.0566C20.8861 95.8214 21.1213 95.6803 21.3565 95.5862C21.4035 95.5862 21.5447 95.5392 21.7799 95.4921C21.968 95.4451 22.1562 95.3981 22.3443 95.304C22.5325 95.2569 22.6736 95.2099 22.8618 95.1158C22.8618 94.8806 22.8147 94.6454 22.7207 94.4572C22.6266 94.2691 22.3914 94.175 22.2032 94.222C22.0151 94.222 21.8739 94.2691 21.7328 94.3632C21.6387 94.4573 21.4976 94.5984 21.4506 94.7395C21.4035 94.8336 21.3565 94.9747 21.2624 95.0688C21.2154 95.1158 21.1683 95.1629 21.0743 95.1629C20.9802 95.1629 20.8861 95.1158 20.839 95.0217C20.745 94.9277 20.745 94.8336 20.745 94.6925C20.745 94.4572 20.792 94.2691 20.8861 94.0809C20.9802 93.8457 21.1683 93.7046 21.4035 93.6105C21.6858 93.4694 21.968 93.4224 22.2503 93.4224C22.5795 93.4224 22.8618 93.4694 23.144 93.6105C23.3792 93.7516 23.5204 93.9398 23.6144 94.175C23.7085 94.5043 23.7556 94.8806 23.7556 95.2099V96.527C23.7556 96.7622 23.8026 96.9974 23.8496 97.2326C23.8967 97.3738 23.9437 97.5619 23.9437 97.703C23.9437 97.8442 23.8967 97.9382 23.8026 98.0323C23.7085 98.1264 23.6144 98.1734 23.5204 98.1734C23.3792 98.1734 23.2851 98.0794 23.2381 97.9853C23.0499 97.8912 22.9088 97.703 22.8618 97.5149ZM22.8147 95.8685C22.6266 95.9625 22.4384 96.0096 22.2503 96.0566C22.0151 96.1037 21.8269 96.1977 21.7328 96.1977C21.6387 96.2448 21.5447 96.2918 21.4506 96.3859C21.3565 96.48 21.3095 96.6211 21.3095 96.7622C21.3095 96.9504 21.3565 97.0915 21.4506 97.2326C21.5447 97.3738 21.6858 97.4208 21.8269 97.4208C22.0151 97.4208 22.1562 97.3738 22.2973 97.2797C22.4384 97.1856 22.5325 97.0445 22.6266 96.9033C22.7207 96.6211 22.7677 96.3389 22.7207 96.0566L22.8147 95.8685Z" fill="#A1A1A1"/>
<path d="M24.5552 97.4678V92.4815C24.5552 92.2933 24.6022 92.1052 24.6493 91.964C24.7433 91.7759 24.9785 91.7288 25.1667 91.8229C25.2137 91.87 25.2608 91.917 25.3078 91.964C25.4019 92.1052 25.4489 92.2933 25.4489 92.4815V97.5148C25.4489 97.703 25.4019 97.8911 25.3078 98.0322C25.2137 98.2204 24.9785 98.2675 24.7904 98.1734C24.7433 98.1263 24.6963 98.0793 24.6493 98.0322C24.6022 97.8441 24.5552 97.6559 24.5552 97.4678Z" fill="#A1A1A1"/>
<path d="M26.3427 97.4678V92.4815C26.3427 92.2933 26.3897 92.1052 26.4368 91.964C26.5308 91.7759 26.766 91.7288 26.9542 91.8229C27.0012 91.87 27.0483 91.917 27.0953 91.964C27.1894 92.1052 27.2364 92.2933 27.2364 92.4815V97.5148C27.2364 97.703 27.1894 97.8911 27.0953 98.0322C27.0012 98.2204 26.766 98.2675 26.5779 98.1734C26.5308 98.1263 26.4838 98.0793 26.4368 98.0322C26.3427 97.8441 26.2956 97.6559 26.3427 97.4678Z" fill="#A1A1A1"/>
<path d="M28.5065 92.9516C28.3654 92.9516 28.2713 92.9046 28.1773 92.8105C28.0832 92.7164 28.0361 92.5283 28.0361 92.3872C28.0361 92.246 28.0832 92.1049 28.1773 91.9638C28.2713 91.8227 28.5065 91.7756 28.6947 91.9168C28.7417 91.9168 28.7417 91.9638 28.7417 91.9638C28.9299 92.199 28.9299 92.5753 28.7417 92.8105C28.7417 92.8576 28.6477 92.9516 28.5065 92.9516ZM28.9769 94.1277V97.4675C28.9769 97.6557 28.9299 97.8438 28.8358 97.985C28.7417 98.1731 28.5065 98.2202 28.3184 98.1261C28.2713 98.079 28.2243 98.032 28.1773 97.985C28.0832 97.8438 28.0361 97.6557 28.0361 97.4675V94.1277C28.0361 93.9395 28.0832 93.7513 28.1302 93.6102C28.2243 93.5161 28.3184 93.422 28.4125 93.422C28.5536 93.422 28.6947 93.4691 28.7417 93.6102C28.8829 93.7043 28.9769 93.8925 28.9769 94.1277Z" fill="#A1A1A1"/>
<path d="M35.0921 96.1506C35.0921 96.527 35.0451 96.8562 34.8569 97.1855C34.7158 97.4678 34.5276 97.703 34.2454 97.8911C33.9632 98.0793 33.5868 98.1734 33.2575 98.1734C32.8342 98.2204 32.4579 98.0793 32.1286 97.8441C31.9404 97.6559 31.7523 97.4207 31.6111 97.1855C31.47 96.9503 31.423 96.6681 31.423 96.3858C31.423 96.2447 31.47 96.1036 31.5171 96.0095C31.6111 95.9154 31.7052 95.8213 31.7993 95.8213C31.8934 95.8213 31.9875 95.8684 32.0345 95.9625C32.1286 96.0566 32.1756 96.1977 32.2227 96.3388C32.2697 96.527 32.3638 96.7151 32.4108 96.8562C32.4579 96.9974 32.5519 97.0914 32.6931 97.1855C33.0694 97.4207 33.5398 97.3737 33.822 97.0444C34.0102 96.8562 34.1043 96.621 34.0572 96.3858C34.0572 96.1977 34.0102 96.0095 33.9161 95.8684C33.822 95.7273 33.6809 95.6332 33.5398 95.5861C33.3987 95.5391 33.2105 95.445 32.9283 95.3509C32.646 95.2569 32.3638 95.1157 32.0815 94.9746C31.8463 94.8335 31.6582 94.6453 31.5641 94.4101C31.3289 93.8457 31.3289 93.1871 31.5641 92.6226C31.7052 92.3404 31.8934 92.1522 32.1756 92.0111C32.4579 91.87 32.7871 91.7759 33.1164 91.7759C33.3516 91.7759 33.6339 91.8229 33.8691 91.917C34.0572 92.0111 34.2454 92.1522 34.3865 92.2933C34.5276 92.4344 34.6217 92.6226 34.6688 92.8108C34.7158 92.9989 34.7628 93.14 34.7628 93.3282C34.7628 93.4693 34.7158 93.6105 34.6688 93.7516C34.6217 93.8457 34.5276 93.9397 34.3865 93.9397C34.2924 93.9397 34.1984 93.8927 34.1513 93.8457L33.9632 93.4693C33.8691 93.2812 33.775 93.093 33.6809 92.9048C33.5398 92.7637 33.3046 92.7167 33.1164 92.7167C32.8812 92.7167 32.6931 92.8108 32.5519 92.9519C32.4108 93.093 32.3167 93.2812 32.3167 93.4693C32.3167 93.5634 32.3638 93.7045 32.4108 93.7986C32.4579 93.8927 32.5049 93.9868 32.599 94.0338L32.8812 94.1749C33.0223 94.222 33.1635 94.269 33.3046 94.3161C33.5398 94.4101 33.775 94.5042 34.0102 94.5983C34.1984 94.6924 34.3865 94.8335 34.5276 94.9746C34.6688 95.1157 34.8099 95.3039 34.8569 95.4921C35.0921 95.5861 35.0921 95.8684 35.0921 96.1506Z" fill="#A1A1A1"/>
<path d="M35.8916 93.5162H35.9857V92.3872C35.9857 92.2932 36.0327 92.1991 36.0327 92.105C36.0798 92.0109 36.1268 91.9639 36.1739 91.9168C36.2209 91.8698 36.2679 91.8228 36.362 91.8228C36.5032 91.8228 36.5972 91.9168 36.6443 92.0109C36.6913 92.105 36.7384 92.1991 36.7384 92.2932C36.7384 92.3872 36.7854 92.5284 36.7854 92.7636V93.5632H37.1147C37.2088 93.5632 37.3028 93.6103 37.3969 93.6573C37.444 93.7514 37.491 93.8455 37.491 93.9396C37.491 94.0807 37.444 94.1748 37.3499 94.2689C37.2558 94.3159 37.1147 94.3629 36.9736 94.3629H36.8324V96.9031C36.8324 96.9972 36.8795 97.0913 36.9265 97.1383C36.9736 97.1854 37.0206 97.2324 37.1147 97.2324C37.1617 97.2324 37.2558 97.2324 37.3028 97.1854C37.444 97.0913 37.5851 97.1383 37.6792 97.2324C37.7262 97.3265 37.7732 97.4206 37.7732 97.5146C37.7732 97.7028 37.6792 97.8439 37.538 97.938C37.3499 98.0321 37.1147 98.0791 36.8795 98.0791C36.6443 98.1262 36.4561 98.0321 36.2679 97.891C36.1268 97.7498 36.0327 97.5617 35.9857 97.3735C35.9387 97.0913 35.9387 96.809 35.9387 96.5268V94.3159H35.8446C35.7505 94.3159 35.6094 94.2689 35.5623 94.1748C35.5153 94.0807 35.4683 93.9866 35.4683 93.8925C35.4683 93.7985 35.5153 93.7044 35.5623 93.6103C35.6564 93.5632 35.7975 93.5162 35.8916 93.5162Z" fill="#A1A1A1"/>
<path d="M40.5019 96.0565H38.8085C38.8085 96.2917 38.8555 96.5269 38.9496 96.7621C39.0437 96.9502 39.1378 97.0913 39.2318 97.2325C39.373 97.3265 39.5141 97.3736 39.6552 97.3736C39.7493 97.3736 39.8434 97.3736 39.9374 97.3265C40.0315 97.2795 40.0786 97.2325 40.1726 97.1854C40.2667 97.1384 40.3138 97.0443 40.4078 96.9502C40.5019 96.8091 40.596 96.715 40.6901 96.6209C40.7371 96.5739 40.7842 96.5269 40.8782 96.5269C40.9723 96.5269 41.0194 96.5739 41.1135 96.6209C41.1605 96.715 41.2075 96.8091 41.2075 96.9032C41.2075 97.0443 41.1605 97.1384 41.1135 97.2795C41.0664 97.4206 40.9723 97.6088 40.8312 97.7029C40.6901 97.844 40.549 97.9381 40.3608 98.0322C40.1726 98.1262 39.9374 98.1733 39.7022 98.1733C39.1848 98.2203 38.7144 97.9851 38.4321 97.5617C38.1029 97.0443 37.9147 96.4328 37.9617 95.8213C37.9617 95.492 38.0088 95.2097 38.0558 94.8804C38.1499 94.5982 38.244 94.363 38.3851 94.1278C38.5262 93.9396 38.7144 93.7515 38.9026 93.6574C39.1378 93.5163 39.373 93.4692 39.6082 93.4692C39.9374 93.4692 40.2197 93.5633 40.4549 93.7515C40.6901 93.9396 40.8782 94.2219 40.9723 94.5041C41.1134 94.7864 41.1605 95.1157 41.1605 95.4449C41.1605 95.7272 41.1134 95.9153 40.9723 96.0094C40.8312 96.0565 40.6901 96.0565 40.5019 96.0565ZM38.8555 95.3979H40.4078C40.4078 95.0686 40.3608 94.7864 40.1726 94.5041C40.0315 94.316 39.8434 94.2219 39.6082 94.2219C39.42 94.2219 39.1848 94.316 39.0907 94.5041C38.9496 94.7864 38.8555 95.0686 38.8555 95.3979Z" fill="#A1A1A1"/>
<path d="M44.3589 96.0565H42.6654C42.6654 96.2917 42.7124 96.5269 42.8065 96.7621C42.9006 96.9502 42.9947 97.0913 43.0888 97.2325C43.2299 97.3265 43.371 97.3736 43.5121 97.3736C43.6062 97.3736 43.7003 97.3736 43.7944 97.3265C43.8885 97.2795 43.9355 97.2325 44.0296 97.1854C44.1237 97.1384 44.1707 97.0443 44.2648 96.9502C44.3589 96.8091 44.4529 96.715 44.547 96.6209C44.5941 96.5739 44.6411 96.5269 44.7352 96.5269C44.8293 96.5269 44.8763 96.5739 44.9704 96.6209C45.0174 96.715 45.0645 96.8091 45.0645 96.9032C45.0645 97.0443 45.0174 97.1384 44.9704 97.2795C44.9233 97.4206 44.8293 97.6088 44.6881 97.7029C44.547 97.844 44.4059 97.9381 44.2177 98.0322C44.0296 98.1262 43.7944 98.1733 43.5592 98.1733C43.0417 98.2203 42.5713 97.9851 42.2891 97.5617C41.9598 97.0443 41.7716 96.4328 41.8187 95.8213C41.8187 95.492 41.8657 95.2097 41.9128 94.8804C42.0068 94.5982 42.1009 94.363 42.242 94.1278C42.3832 93.9396 42.5713 93.7515 42.7595 93.6574C42.9947 93.5163 43.2299 93.4692 43.4651 93.4692C43.7944 93.4692 44.0766 93.5633 44.3118 93.7515C44.547 93.9396 44.7352 94.2219 44.8293 94.5041C44.9704 94.7864 45.0174 95.1157 45.0174 95.4449C45.0174 95.7272 44.9704 95.9153 44.8293 96.0094C44.6881 96.0094 44.5 96.0094 44.3589 96.0565ZM42.7124 95.3979H44.2648C44.2648 95.0686 44.2177 94.7864 44.0296 94.5041C43.8885 94.316 43.7003 94.2219 43.4651 94.2219C43.2769 94.2219 43.0417 94.316 42.9476 94.5041C42.7595 94.7864 42.7124 95.0686 42.7124 95.3979Z" fill="#A1A1A1"/>
<path d="M45.8174 97.4206V92.3872C45.8174 92.1991 45.8644 92.0109 45.9115 91.8698C46.0055 91.6816 46.2407 91.6346 46.4289 91.7287C46.4759 91.7757 46.523 91.8228 46.57 91.8698C46.6641 92.0109 46.7112 92.1991 46.7112 92.3872V97.4206C46.7112 97.6087 46.6641 97.7969 46.57 97.938C46.4759 98.1262 46.2407 98.1732 46.0526 98.0791C46.0055 98.0321 45.9585 97.985 45.9115 97.938C45.8644 97.7969 45.8174 97.6087 45.8174 97.4206Z" fill="#A1A1A1"/>
<path d="M51.0859 95.5388H50.2391V97.3263C50.2391 97.5145 50.1921 97.7027 50.098 97.8908C50.0039 98.079 49.7687 98.126 49.5806 98.032C49.5335 97.9849 49.4865 97.9379 49.4395 97.8908C49.3454 97.7027 49.2983 97.5145 49.2983 97.3263V92.5282C49.2983 92.293 49.3454 92.1049 49.4395 91.9167C49.5335 91.7756 49.7217 91.6815 49.9099 91.7285H51.0859C51.3681 91.7285 51.6033 91.7756 51.8856 91.8226C52.0737 91.9167 52.2148 92.0108 52.356 92.1519C52.4971 92.3401 52.5912 92.5282 52.6852 92.7634C52.7793 92.9986 52.7793 93.2809 52.7793 93.5631C52.8264 94.0806 52.6852 94.598 52.356 95.0214C52.0267 95.3977 51.5563 95.5859 51.0859 95.5388ZM50.8507 92.6694H50.2391V94.598H50.8507C51.0388 94.598 51.227 94.551 51.4152 94.5039C51.5563 94.4569 51.6974 94.3158 51.7444 94.1746C51.8385 93.9865 51.8385 93.7983 51.8385 93.6102C51.8385 93.375 51.7915 93.1398 51.6504 92.9516C51.5563 92.7634 51.274 92.6694 50.8507 92.6694Z" fill="#A1A1A1"/>
<path d="M54.4255 96.3859V97.3738C54.4255 97.5619 54.3785 97.7501 54.2844 97.8912C54.2373 98.0323 54.0962 98.0794 53.9551 98.0794C53.814 98.0794 53.7199 98.0323 53.6729 97.8912C53.5788 97.7501 53.5317 97.5619 53.5317 97.3738V94.128C53.5317 93.6105 53.6729 93.3283 53.9551 93.3283C54.0962 93.3283 54.2373 93.3753 54.2844 93.5165C54.3314 93.7046 54.3785 93.8457 54.3785 94.0339C54.4255 93.8457 54.5666 93.6105 54.7077 93.4694C54.8018 93.3283 54.99 93.2812 55.1311 93.2812C55.3193 93.2812 55.5074 93.3283 55.6486 93.4694C55.7897 93.5635 55.8838 93.7517 55.8838 93.9398C55.8838 94.0339 55.8367 94.175 55.7897 94.2691C55.6956 94.3632 55.6486 94.4102 55.5545 94.4102C55.4604 94.4102 55.4604 94.3632 55.3193 94.3161C55.2252 94.2691 55.0841 94.2221 54.99 94.2221C54.8489 94.2221 54.7548 94.2691 54.6607 94.3632C54.5666 94.4573 54.5196 94.5984 54.4725 94.7395C54.4255 94.9277 54.3785 95.1629 54.3785 95.351C54.4255 95.6803 54.4255 96.0566 54.4255 96.3859Z" fill="#A1A1A1"/>
<path d="M59.3648 95.6803C59.3648 96.0096 59.3177 96.2918 59.2707 96.6211C59.1766 96.9034 59.0825 97.1386 58.9414 97.3738C58.8003 97.5619 58.6121 97.7501 58.424 97.8442C58.1888 97.9853 57.9536 98.0323 57.7184 98.0323C57.4832 98.0323 57.2009 97.9853 57.0127 97.8442C56.8246 97.7501 56.6364 97.5619 56.4953 97.3738C56.3071 97.1386 56.2131 96.9034 56.166 96.6211C56.0719 96.3389 56.0249 96.0096 56.0249 95.6803C56.0249 95.351 56.0719 95.0217 56.119 94.6925C56.2131 94.4102 56.3071 94.175 56.4483 93.9398C56.5894 93.7517 56.7775 93.5635 56.9657 93.4694C57.2009 93.3283 57.4361 93.2812 57.6713 93.2812C57.9065 93.2812 58.1888 93.3283 58.3769 93.4694C58.6121 93.5635 58.8003 93.7517 58.9414 93.9398C59.1296 94.175 59.2236 94.4102 59.2707 94.6925C59.3177 95.0217 59.3648 95.351 59.3648 95.6803ZM58.518 95.6803C58.518 95.304 58.424 94.9277 58.2828 94.5513C58.1888 94.3161 57.9536 94.175 57.6713 94.175C57.5302 94.175 57.342 94.2221 57.248 94.3632C57.1068 94.5043 57.0128 94.6925 56.9657 94.8806C56.8246 95.3981 56.8246 95.9626 56.9657 96.48C57.0128 96.6682 57.1068 96.8563 57.248 96.9974C57.3891 97.1386 57.5302 97.1856 57.7184 97.1856C58.0006 97.1856 58.2358 96.9974 58.3299 96.7622C58.471 96.433 58.518 96.0566 58.518 95.6803Z" fill="#A1A1A1"/>
<path d="M62.4225 97.3734V97.2793C62.3284 97.4204 62.2343 97.5615 62.0932 97.7027C61.9991 97.7967 61.858 97.8908 61.7169 97.9379C61.5758 97.9849 61.4347 98.0319 61.2935 98.0319C61.1054 98.0319 60.8702 97.9849 60.7291 97.8438C60.5409 97.7027 60.3527 97.5615 60.2586 97.3263C60.1175 97.0911 60.0234 96.8559 59.9764 96.5737C59.9294 96.2444 59.8823 95.9622 59.8823 95.6329C59.8823 95.0684 59.9764 94.4569 60.2586 93.9394C60.4468 93.5631 60.8702 93.3279 61.2935 93.3279C61.5287 93.3279 61.7169 93.3749 61.9051 93.5161C62.0932 93.6572 62.2814 93.8453 62.4225 94.0335V92.3401C62.4225 92.1519 62.4695 91.9637 62.5166 91.7756C62.5636 91.6815 62.6577 91.5874 62.7988 91.5874C62.9399 91.5874 63.034 91.6344 63.0811 91.7756C63.1281 91.9167 63.1752 92.1048 63.1752 92.293V97.4204C63.1752 97.6086 63.1281 97.7497 63.0811 97.9379C62.987 98.0319 62.8929 98.126 62.7988 98.126C62.6577 98.126 62.5636 98.0319 62.5166 97.9379C62.4695 97.7497 62.4225 97.5615 62.4225 97.3734ZM60.7291 95.6799C60.7291 95.9622 60.7761 96.1974 60.8231 96.4796C60.9172 96.6678 61.0113 96.8559 61.1054 96.997C61.2465 97.0911 61.3876 97.1852 61.5287 97.1852C61.6699 97.1852 61.811 97.1382 61.9521 97.0441C62.0932 96.903 62.1873 96.7618 62.2343 96.5737C62.3284 96.2914 62.3284 96.0092 62.3284 95.727C62.3284 95.4447 62.2814 95.2095 62.2343 94.9273C62.1403 94.7391 62.0462 94.5509 61.9521 94.4098C61.811 94.3157 61.6699 94.2217 61.5287 94.2217C61.3876 94.2217 61.1995 94.2687 61.1054 94.4098C60.9642 94.5509 60.8702 94.7391 60.8231 94.9273C60.7761 95.1625 60.7291 95.4447 60.7291 95.6799Z" fill="#A1A1A1"/>
<path d="M66.3268 97.3734V97.2323C66.2797 97.4205 66.1386 97.5616 65.9975 97.6557C65.9034 97.7968 65.7623 97.8909 65.6212 97.9379C65.4801 97.985 65.2919 98.032 65.1508 98.032C64.9626 98.032 64.7274 97.985 64.5863 97.8438C64.3981 97.7498 64.257 97.5616 64.21 97.3734C64.1159 97.0442 64.0688 96.6678 64.0688 96.2915V93.9865C64.0688 93.7984 64.1159 93.6102 64.1629 93.4691C64.257 93.375 64.3511 93.2809 64.4922 93.2809C64.6333 93.2809 64.7745 93.328 64.8215 93.4691C64.9156 93.6102 64.9626 93.7984 64.9626 93.9865V95.8682C64.9626 96.1034 64.9626 96.2915 65.0097 96.5267C65.0567 96.6678 65.1037 96.809 65.1978 96.9501C65.2919 97.0442 65.433 97.0912 65.5741 97.0912C65.7153 97.0912 65.9034 97.0442 65.9975 96.903C66.1386 96.7619 66.2327 96.6208 66.2797 96.4326C66.3268 96.0563 66.3268 95.727 66.3268 95.3507V93.9395C66.3268 93.7513 66.3738 93.5632 66.4209 93.4221C66.5149 93.328 66.609 93.2339 66.7501 93.2339C66.8913 93.2339 67.0324 93.2809 67.0794 93.4221C67.1735 93.5161 67.1735 93.7043 67.1735 93.9395V97.3264C67.1735 97.5146 67.1265 97.6557 67.0794 97.8438C66.9854 97.9379 66.8913 98.032 66.7972 98.032C66.6561 98.032 66.562 97.9379 66.5149 97.8438C66.3738 97.7498 66.2797 97.5616 66.3268 97.3734Z" fill="#A1A1A1"/>
<path d="M71.0781 96.5739C71.0781 96.715 71.0311 96.9032 70.9841 97.0443C70.937 97.2325 70.8429 97.3736 70.7018 97.5147C70.5607 97.6558 70.4196 97.797 70.2314 97.891C70.0433 97.9851 69.808 98.0322 69.5728 98.0322C69.1024 98.0792 68.632 97.844 68.3498 97.4206C68.0205 96.9032 67.8794 96.3387 67.8794 95.7272C67.8794 95.3038 67.9264 94.8805 68.0676 94.4571C68.1616 94.1278 68.3498 93.8456 68.632 93.6104C68.9143 93.4222 69.2436 93.3281 69.5728 93.3281C69.808 93.3281 69.9962 93.3752 70.1844 93.4692C70.3725 93.5633 70.5137 93.6574 70.6548 93.7985C70.7959 93.8926 70.89 94.0808 70.937 94.2219C70.9841 94.363 71.0311 94.5041 71.0311 94.6453C71.0311 94.7864 70.9841 94.8805 70.937 95.0216C70.8429 95.1157 70.7489 95.1627 70.6548 95.1627C70.5607 95.1627 70.5137 95.1157 70.4666 95.0686C70.4196 94.9745 70.3725 94.9275 70.3255 94.8334C70.2314 94.6453 70.1373 94.5041 69.9962 94.363C69.8551 94.2689 69.714 94.2219 69.5728 94.2219C69.2906 94.2219 69.0554 94.4101 68.9613 94.6453C68.8202 94.9745 68.7261 95.3509 68.7261 95.7272C68.7261 95.9153 68.7261 96.1506 68.7732 96.3387C68.8202 96.5269 68.8672 96.668 68.9613 96.8091C69.0084 96.9032 69.1495 97.0443 69.2436 97.0914C69.3376 97.1384 69.4788 97.1854 69.5728 97.1854C69.714 97.1854 69.9021 97.1384 69.9962 97.0443C70.1373 96.9032 70.2785 96.715 70.3255 96.5269C70.3725 96.3858 70.4196 96.2917 70.5137 96.1976C70.5607 96.1035 70.6548 96.1035 70.7489 96.1035C70.8429 96.1035 70.937 96.1506 71.0311 96.2446C71.0781 96.3387 71.0781 96.4798 71.0781 96.5739Z" fill="#A1A1A1"/>
<path d="M71.9248 93.422H72.0189V92.293C72.0189 92.1989 72.0659 92.1048 72.0659 92.0108C72.113 91.9167 72.16 91.8696 72.2071 91.8226C72.2541 91.7756 72.3011 91.7285 72.3952 91.7285C72.5364 91.7285 72.6304 91.8226 72.6775 91.9167C72.7245 92.0108 72.7716 92.1048 72.7716 92.1989C72.7716 92.293 72.8186 92.4341 72.8186 92.6693V93.469H73.1479C73.242 93.469 73.336 93.516 73.4301 93.5631C73.4772 93.6572 73.5242 93.7513 73.5242 93.8453C73.5242 93.9865 73.4772 94.0805 73.3831 94.1746C73.289 94.2217 73.1479 94.2687 73.0068 94.2687H72.8656V96.8089C72.8656 96.903 72.9127 96.997 72.9597 97.0441C73.0068 97.0911 73.0538 97.1382 73.1479 97.1382C73.1949 97.1382 73.289 97.1382 73.336 97.0911C73.4772 96.997 73.6183 97.0441 73.7124 97.1382C73.7594 97.2322 73.8064 97.3263 73.8064 97.4204C73.8064 97.6086 73.7124 97.7497 73.5712 97.8438C73.3831 97.9378 73.1479 97.9849 72.9127 97.9849C72.6775 98.0319 72.4893 97.9378 72.3011 97.7967C72.16 97.6556 72.066 97.4674 72.0189 97.2793C71.9719 96.997 71.9719 96.7148 71.9719 96.4326V94.2217H71.8778C71.7837 94.2217 71.6426 94.1746 71.5955 94.0805C71.5485 93.9865 71.5015 93.8924 71.5015 93.7983C71.5015 93.7042 71.5485 93.6101 71.5955 93.5161C71.6896 93.422 71.8307 93.422 71.9248 93.422Z" fill="#A1A1A1"/>
<path d="M76.958 96.48C76.958 96.7622 76.911 97.0445 76.7698 97.3267C76.6758 97.5619 76.4876 97.7501 76.2524 97.8442C76.0172 97.9853 75.735 98.0323 75.4527 98.0323C75.1705 98.0323 74.8882 97.9853 74.653 97.8442C74.4649 97.7501 74.2767 97.5619 74.1826 97.3738C74.0885 97.1856 74.0415 96.9974 74.0415 96.8093C74.0415 96.7152 74.0886 96.5741 74.1356 96.48C74.1826 96.3859 74.2767 96.3389 74.3708 96.3389C74.4649 96.3389 74.5119 96.3859 74.559 96.433C74.606 96.527 74.653 96.5741 74.7001 96.6682C74.7471 96.8563 74.8882 96.9974 75.0294 97.1386C75.1705 97.2326 75.3586 97.2797 75.5468 97.2797C75.6879 97.2797 75.8761 97.2326 75.9702 97.1386C76.0642 97.0445 76.1113 96.9034 76.1113 96.7622C76.1113 96.5741 76.0642 96.3859 75.9231 96.3389C75.735 96.1978 75.5468 96.1037 75.3586 96.0566C75.1234 95.9625 74.8882 95.8685 74.653 95.7273C74.4649 95.6333 74.3238 95.4921 74.2297 95.304C74.0885 95.1158 74.0415 94.8806 74.0415 94.6454C74.0415 94.4102 74.0885 94.175 74.1826 93.9869C74.2767 93.7517 74.4649 93.6105 74.653 93.4694C74.8412 93.3283 75.1234 93.2812 75.3586 93.2812C75.5468 93.2812 75.782 93.3283 75.9702 93.3753C76.1113 93.4224 76.2994 93.5165 76.3935 93.6105C76.5346 93.7046 76.5817 93.8457 76.6758 93.9398C76.7228 94.0809 76.7698 94.175 76.7698 94.3161C76.7698 94.4102 76.7228 94.5513 76.6758 94.6454C76.6287 94.7395 76.4876 94.7865 76.3935 94.7865C76.2994 94.7865 76.2524 94.7395 76.1583 94.6925C76.0642 94.5984 76.0172 94.4573 75.9231 94.3632C75.8761 94.2691 75.782 94.175 75.6879 94.0809C75.5938 94.0339 75.4527 93.9869 75.3116 93.9869C75.1705 93.9869 75.0294 94.0339 74.9353 94.128C74.8412 94.2221 74.7942 94.3161 74.7942 94.4573C74.7942 94.5513 74.8412 94.6454 74.8882 94.7395C74.9823 94.8336 75.0764 94.8806 75.1705 94.9277C75.3116 94.9747 75.4527 95.0217 75.6879 95.1158C75.9231 95.2099 76.1583 95.304 76.3465 95.4451C76.4876 95.5392 76.6287 95.7273 76.7228 95.8685C76.8639 96.0566 76.958 96.2448 76.958 96.48Z" fill="#A1A1A1"/>
<path d="M82.1323 92.6223H80.2977V94.2217H81.8501C81.9912 94.2217 82.0853 94.2687 82.1794 94.3628C82.2264 94.4569 82.2734 94.598 82.2734 94.6921C82.2734 94.7861 82.2264 94.9273 82.1794 95.0213C82.0853 95.1154 81.9912 95.1625 81.8501 95.1625H80.2977V97.2322C80.3448 97.4204 80.2507 97.6556 80.1566 97.7967C80.0625 97.9849 79.8273 98.0319 79.6392 97.9378C79.5921 97.8908 79.5451 97.8438 79.4981 97.7967C79.404 97.6086 79.3569 97.4204 79.3569 97.2322V92.4812C79.3569 92.34 79.3569 92.1989 79.404 92.0578C79.451 91.9637 79.4981 91.8696 79.5921 91.8226C79.6862 91.7756 79.8273 91.7285 79.9214 91.7285H82.1323C82.2734 91.7285 82.3675 91.7756 82.4616 91.8696C82.5557 91.9637 82.5557 92.0578 82.5557 92.1989C82.5557 92.34 82.5086 92.4812 82.4616 92.5752C82.3675 92.6223 82.2734 92.6223 82.1323 92.6223Z" fill="#A1A1A1"/>
<path d="M85.2373 97.3264C85.0491 97.5146 84.8609 97.7027 84.6257 97.7968C84.4376 97.8909 84.2024 97.985 83.9672 97.985C83.779 97.985 83.5438 97.9379 83.4027 97.7968C83.2145 97.7027 83.0734 97.5146 83.0264 97.3264C82.9323 97.1382 82.8853 96.903 82.8853 96.6678C82.8853 96.3856 82.9793 96.1034 83.1205 95.8682C83.2616 95.6329 83.4968 95.4918 83.732 95.3977C83.779 95.3977 83.9201 95.3507 84.1553 95.3037C84.3435 95.2566 84.5317 95.2096 84.7198 95.1155C84.908 95.0685 85.0491 95.0214 85.2373 94.9273C85.2373 94.6921 85.1902 94.4569 85.0961 94.2688C85.0021 94.0806 84.7669 93.9865 84.5787 94.0336C84.3905 94.0336 84.2494 94.0806 84.1083 94.1747C84.0142 94.2688 83.8731 94.4099 83.8261 94.551C83.779 94.6451 83.732 94.7862 83.6379 94.8803C83.5909 94.9273 83.5438 94.9744 83.4497 94.9744C83.3557 94.9744 83.2616 94.9273 83.2145 94.8333C83.1675 94.7392 83.1205 94.5981 83.1205 94.504C83.1205 94.2688 83.1675 94.0806 83.2616 93.8925C83.4027 93.7043 83.5438 93.5161 83.779 93.4221C84.0613 93.2809 84.3435 93.2339 84.6257 93.2339C84.955 93.2339 85.2373 93.2809 85.5195 93.4221C85.7547 93.5632 85.8958 93.7513 85.9899 93.9865C86.084 94.3158 86.131 94.6921 86.131 95.0214V96.3386C86.131 96.5738 86.1781 96.809 86.2251 97.0442C86.2722 97.1853 86.3192 97.3734 86.3192 97.5146C86.3192 97.6557 86.2722 97.7498 86.1781 97.8438C86.084 97.9379 85.9899 97.985 85.8958 97.985C85.7547 97.985 85.6606 97.8909 85.6136 97.7968C85.4254 97.7027 85.3314 97.5146 85.2373 97.3264ZM85.1902 95.6329C85.0021 95.727 84.8139 95.7741 84.6257 95.8211C84.3905 95.8681 84.2024 95.9622 84.1083 95.9622C84.0142 96.0093 83.9201 96.0563 83.8261 96.1504C83.732 96.2445 83.6849 96.3856 83.6849 96.5267C83.6849 96.7149 83.732 96.856 83.8261 96.9971C83.9201 97.1382 84.0613 97.1853 84.2024 97.1853C84.3905 97.1853 84.5317 97.1382 84.6728 97.0442C84.8139 96.9501 84.908 96.809 85.0021 96.6678C85.0962 96.3856 85.1432 96.1033 85.0961 95.8211L85.1902 95.6329Z" fill="#A1A1A1"/>
<path d="M89.9883 96.527C89.9883 96.6682 89.9413 96.8563 89.8942 96.9974C89.8472 97.1856 89.7531 97.3267 89.612 97.4678C89.4709 97.609 89.3297 97.7501 89.1416 97.8442C88.9534 97.9382 88.7182 97.9853 88.483 97.9853C88.0126 98.0323 87.5422 97.7971 87.26 97.3738C86.9307 96.8563 86.7896 96.2918 86.7896 95.6803C86.7896 95.2569 86.8366 94.8336 86.9777 94.4102C87.0718 94.0809 87.26 93.7987 87.5422 93.5635C87.8244 93.3753 88.1537 93.2812 88.483 93.2812C88.7182 93.2812 88.9064 93.3283 89.0945 93.4224C89.2827 93.5165 89.4238 93.6105 89.5649 93.7517C89.7061 93.8457 89.8001 94.0339 89.8472 94.175C89.8942 94.3161 89.9413 94.4573 89.9413 94.5984C89.9413 94.7395 89.8942 94.8336 89.8472 94.9747C89.7531 95.0688 89.659 95.1158 89.5649 95.1158C89.4708 95.1158 89.4238 95.0688 89.3768 95.0217C89.3297 94.9277 89.2827 94.8806 89.2356 94.7865C89.1416 94.5984 89.0475 94.4573 88.9064 94.3161C88.7652 94.2221 88.6241 94.175 88.483 94.175C88.2008 94.175 87.9656 94.3632 87.8715 94.5984C87.7304 94.9277 87.6363 95.304 87.6363 95.6803C87.6363 95.8685 87.6363 96.1037 87.6833 96.2918C87.7304 96.48 87.7774 96.6211 87.8715 96.7622C87.9185 96.8563 88.0596 96.9974 88.1537 97.0445C88.2478 97.0915 88.3889 97.1386 88.483 97.1386C88.6241 97.1386 88.8123 97.0915 88.9064 96.9974C89.0475 96.8563 89.1886 96.6682 89.2356 96.48C89.2827 96.3389 89.3297 96.2448 89.4238 96.1507C89.4709 96.0566 89.5649 96.0566 89.659 96.0566C89.7531 96.0566 89.8472 96.1037 89.9413 96.1978C90.0353 96.2918 89.9883 96.3859 89.9883 96.527Z" fill="#A1A1A1"/>
<path d="M90.7881 93.3282H90.8822V92.1992C90.8822 92.1052 90.9292 92.0111 90.9292 91.917C90.9763 91.8229 91.0233 91.7759 91.0704 91.7288C91.1174 91.6818 91.1644 91.6348 91.2585 91.6348C91.3996 91.6348 91.4937 91.7288 91.5408 91.8229C91.5878 91.917 91.6348 92.0111 91.6348 92.1052C91.6348 92.1993 91.6819 92.3404 91.6819 92.5756V93.4223H92.0112C92.1052 93.4223 92.1993 93.4693 92.2934 93.5164C92.3404 93.6105 92.3875 93.7045 92.3875 93.7986C92.3875 93.9397 92.3404 94.0338 92.2464 94.1279C92.1523 94.1749 92.0112 94.222 91.87 94.222H91.7289V96.7622C91.7289 96.8562 91.776 96.9503 91.823 96.9974C91.87 97.0444 91.9171 97.0914 92.0112 97.0914C92.0582 97.0914 92.1523 97.0914 92.1993 97.0444C92.3404 96.9503 92.4816 96.9974 92.5756 97.0914C92.6227 97.1855 92.6697 97.2796 92.6697 97.3737C92.6697 97.5619 92.5756 97.703 92.4345 97.7971C92.2464 97.8911 92.0112 97.9382 91.776 97.9382C91.5408 97.9852 91.3526 97.8911 91.1644 97.75C91.0233 97.6089 90.9292 97.4207 90.8822 97.2326C90.8351 96.9503 90.8351 96.6681 90.8351 96.3858V94.1749H90.7411C90.647 94.1749 90.5059 94.1279 90.4588 94.0338C90.4118 93.9397 90.3647 93.8457 90.3647 93.7516C90.3647 93.6575 90.4118 93.5634 90.4588 93.4693C90.5529 93.3753 90.694 93.3753 90.7881 93.3282Z" fill="#A1A1A1"/>
<path d="M96.2915 95.5861C96.2915 95.9153 96.2445 96.1976 96.1974 96.5269C96.1034 96.8091 96.0093 97.0443 95.8682 97.2795C95.727 97.4677 95.5389 97.6558 95.3507 97.7499C95.1155 97.891 94.8803 97.9381 94.6451 97.9381C94.4099 97.9381 94.1277 97.891 93.9395 97.7499C93.7513 97.6558 93.5632 97.4677 93.4221 97.2795C93.2339 97.0443 93.1398 96.8091 93.0928 96.5269C92.9987 96.2446 92.9517 95.9153 92.9517 95.5861C92.9517 95.2568 92.9987 94.9275 93.0457 94.5982C93.1398 94.316 93.2339 94.0808 93.375 93.8456C93.5161 93.6574 93.7043 93.4693 93.8925 93.3752C94.1277 93.234 94.3629 93.187 94.5981 93.187C94.8333 93.187 95.1155 93.234 95.3037 93.3752C95.4918 93.5163 95.727 93.6574 95.8682 93.8456C96.0563 94.0808 96.1504 94.316 96.1974 94.5982C96.2445 94.9275 96.2915 95.2568 96.2915 95.5861ZM95.3978 95.5861C95.3978 95.2097 95.3037 94.8334 95.1626 94.4571C95.0685 94.2219 94.8333 94.0808 94.551 94.0808C94.4099 94.0808 94.2218 94.1278 94.1277 94.2689C93.9865 94.4101 93.8925 94.5982 93.8454 94.7864C93.7043 95.3038 93.7043 95.8683 93.8454 96.3858C93.8925 96.5739 93.9865 96.7621 94.1277 96.9032C94.2688 97.0443 94.4099 97.0914 94.5981 97.0914C94.8803 97.0914 95.1155 96.9032 95.2096 96.668C95.3507 96.3387 95.4448 95.9624 95.3978 95.5861Z" fill="#A1A1A1"/>
<path d="M97.844 96.2448V97.2326C97.844 97.4208 97.7969 97.609 97.7028 97.7501C97.6558 97.8912 97.5147 97.9383 97.3736 97.9383C97.2324 97.9383 97.1384 97.8912 97.0913 97.7501C96.9972 97.609 96.9502 97.4208 96.9502 97.2326V93.9869C96.9502 93.4694 97.0913 93.1872 97.3736 93.1872C97.5147 93.1872 97.6558 93.2342 97.7028 93.3753C97.7499 93.5635 97.7969 93.7046 97.7969 93.8928C97.844 93.7046 97.9851 93.4694 98.1262 93.3283C98.2203 93.1872 98.4084 93.1401 98.5496 93.1401C98.7377 93.1401 98.9259 93.1872 99.067 93.3283C99.2081 93.4224 99.3022 93.6105 99.3022 93.7987C99.3022 93.8928 99.2552 94.0339 99.2081 94.128C99.114 94.2221 99.067 94.2691 98.9729 94.2691C98.8788 94.2691 98.8788 94.2221 98.7377 94.175C98.6436 94.128 98.5025 94.0809 98.4084 94.0809C98.2673 94.0809 98.1732 94.128 98.0792 94.2221C97.9851 94.3161 97.938 94.4573 97.891 94.5984C97.844 94.7866 97.7969 95.0217 97.7969 95.2099C97.844 95.5392 97.844 95.9155 97.844 96.2448Z" fill="#A1A1A1"/>
<path d="M100.619 98.1263L100.713 97.844L99.6315 94.2219C99.5845 94.0808 99.5374 93.8926 99.5374 93.7515C99.5374 93.6574 99.5374 93.5633 99.5845 93.4692C99.6315 93.3752 99.6786 93.3281 99.7256 93.2811C99.7726 93.2341 99.8197 93.187 99.9138 93.187C100.008 93.187 100.149 93.234 100.196 93.3281C100.29 93.4692 100.337 93.6574 100.384 93.7985L101.137 96.668L101.795 93.9867C101.842 93.7985 101.889 93.6574 101.937 93.4692C101.984 93.3752 102.031 93.2811 102.078 93.234C102.172 93.187 102.313 93.187 102.454 93.234C102.501 93.2811 102.548 93.3281 102.595 93.4222C102.642 93.5163 102.642 93.5633 102.642 93.6574C102.642 93.7515 102.642 93.7985 102.595 93.8926C102.595 93.9867 102.548 94.0808 102.548 94.1749L101.466 98.1263C101.372 98.4085 101.278 98.6907 101.184 98.9259C101.09 99.1141 100.949 99.2552 100.808 99.3963C100.619 99.4904 100.431 99.5375 100.196 99.5375C100.008 99.5375 99.8197 99.4904 99.6315 99.4434C99.4904 99.3493 99.4434 99.2552 99.4434 99.02C99.4434 98.9259 99.4904 98.7848 99.5374 98.6907C99.5845 98.5967 99.6786 98.5967 99.8197 98.5967C99.8667 98.5967 99.9138 98.5967 99.9608 98.6437C100.008 98.6437 100.055 98.6907 100.102 98.6907C100.196 98.6907 100.29 98.6907 100.337 98.6437C100.384 98.5967 100.431 98.5496 100.478 98.4555C100.525 98.4085 100.572 98.2674 100.619 98.1263Z" fill="#A1A1A1"/>
<path d="M108.946 95.8212C108.946 96.0564 108.899 96.2446 108.852 96.4798C108.758 96.715 108.663 96.9502 108.522 97.1854C108.381 97.4206 108.146 97.6087 107.911 97.7499C107.629 97.891 107.346 97.938 107.064 97.938C106.829 97.938 106.641 97.891 106.406 97.8439C106.217 97.7969 106.029 97.7028 105.841 97.5617C105.653 97.4206 105.512 97.2324 105.371 97.0443C105.23 96.8561 105.135 96.6209 105.041 96.3857C104.947 96.1034 104.9 95.8682 104.853 95.586C104.806 95.3038 104.806 94.9745 104.806 94.6922C104.806 94.2218 104.853 93.7985 104.947 93.3281C105.041 92.9517 105.182 92.6225 105.418 92.2932C105.606 92.0109 105.841 91.7757 106.123 91.6346C106.406 91.4935 106.688 91.3994 106.97 91.3994C107.299 91.3994 107.676 91.4935 107.958 91.6817C108.24 91.8698 108.475 92.1521 108.616 92.4343C108.758 92.7165 108.852 92.9988 108.852 93.281C108.852 93.4222 108.805 93.5633 108.758 93.6574C108.663 93.7514 108.569 93.8455 108.475 93.8455C108.381 93.8455 108.287 93.7985 108.193 93.7514C108.099 93.6574 108.052 93.5162 108.005 93.3751C107.911 93.1399 107.77 92.9047 107.582 92.6695C107.393 92.5284 107.205 92.4343 106.97 92.4343C106.594 92.4343 106.217 92.6695 106.076 93.0458C105.841 93.5633 105.7 94.1748 105.747 94.7393C105.747 95.1626 105.794 95.586 105.888 95.9623C105.935 96.2446 106.076 96.4798 106.311 96.6679C106.5 96.8091 106.735 96.9031 106.97 96.9031C107.205 96.9031 107.44 96.8091 107.629 96.6209C107.864 96.3857 108.005 96.1034 108.052 95.8212L108.193 95.3978C108.24 95.3038 108.381 95.2567 108.475 95.2567C108.569 95.2567 108.663 95.3038 108.758 95.3978C108.899 95.4919 108.946 95.6801 108.946 95.8212Z" fill="#A1A1A1"/>
<path d="M112.944 95.5392C112.944 95.8685 112.897 96.1507 112.85 96.48C112.756 96.7622 112.662 96.9974 112.521 97.2326C112.379 97.4208 112.191 97.609 112.003 97.7031C111.768 97.8442 111.533 97.8912 111.297 97.8912C111.062 97.8912 110.827 97.8442 110.592 97.7031C110.404 97.609 110.216 97.4208 110.074 97.2326C109.886 96.9974 109.792 96.7622 109.745 96.48C109.651 96.1978 109.604 95.8685 109.604 95.5392C109.604 95.2099 109.651 94.8806 109.698 94.5513C109.792 94.2691 109.886 94.0339 110.027 93.7987C110.168 93.6105 110.357 93.4224 110.545 93.3283C110.78 93.1872 111.015 93.1401 111.25 93.1401C111.486 93.1401 111.768 93.1872 111.956 93.3283C112.144 93.4694 112.379 93.6105 112.521 93.7987C112.709 94.0339 112.803 94.2691 112.85 94.5513C112.944 94.8806 112.991 95.2099 112.944 95.5392ZM112.097 95.5392C112.097 95.1629 112.003 94.7865 111.862 94.4102C111.768 94.175 111.533 94.0339 111.25 94.0339C111.109 94.0339 110.921 94.0809 110.827 94.2221C110.686 94.3632 110.592 94.5513 110.545 94.7395C110.404 95.257 110.404 95.8214 110.545 96.3389C110.592 96.527 110.686 96.7152 110.827 96.8563C110.921 96.9974 111.109 97.0445 111.25 97.0445C111.533 97.0445 111.768 96.8563 111.862 96.6211C112.05 96.2918 112.144 95.9155 112.097 95.5392Z" fill="#A1A1A1"/>
<path d="M113.932 97.8909C113.791 97.8909 113.65 97.8438 113.603 97.7027C113.508 97.5616 113.461 97.4205 113.461 97.2323C113.461 97.0441 113.508 96.903 113.603 96.7619C113.697 96.5737 113.932 96.5267 114.12 96.6208C114.167 96.6678 114.214 96.7149 114.261 96.7619C114.355 96.903 114.402 97.0441 114.402 97.2323C114.402 97.4205 114.355 97.5616 114.261 97.7027C114.214 97.8438 114.073 97.8909 113.932 97.8909Z" fill="#A1A1A1"/>
<path d="M9.45497 85.2373H8.60824C8.13784 85.2373 7.80855 84.9081 7.62039 84.2025C7.47927 84.5317 7.14999 84.7669 6.77367 84.7199C6.06806 84.7199 5.59766 83.8261 5.59766 82.6501C5.59766 81.38 6.06806 80.5333 6.82071 80.5333H8.42008V83.2616C8.42008 83.8261 8.60824 84.1554 9.0316 84.1554H9.45497V85.2373ZM7.00887 79.6866H6.25622V78.6987H7.00887V79.6866ZM7.57335 82.509V81.38H7.00887C6.67958 81.38 6.39734 81.9445 6.39734 82.6031C6.39734 83.2616 6.63254 83.685 6.96183 83.685C7.38519 83.685 7.57335 83.2146 7.57335 82.509ZM8.13784 79.6866H7.38519V78.6987H8.13784V79.6866Z" fill="#A1A1A1"/>
<path d="M9.9255 86.6484H9.17285V85.6606H9.9255V86.6484ZM11.1015 83.5908C11.1015 83.9671 11.0074 84.3905 10.8193 84.7198C10.6781 85.002 10.3489 85.2372 10.0196 85.2372H9.31397V84.1082H9.83142C10.1137 84.1082 10.2548 83.826 10.2548 83.2615V81.3799H11.1015V83.5908ZM11.0545 86.6484H10.3018V85.6606H11.1015L11.0545 86.6484Z" fill="#A1A1A1"/>
<path d="M14.6766 85.2371H11.666V84.1082H13.8299C13.8299 82.8851 13.3595 82.3677 12.3246 82.3677V81.3798C12.7009 81.3798 13.0772 81.4269 13.4536 81.5209C14.2532 81.9443 14.6766 82.791 14.6766 84.1082V85.2371ZM13.4536 80.7212H12.7009V79.7334H13.4536V80.7212Z" fill="#A1A1A1"/>
<path d="M18.2985 83.8261C18.2985 84.2024 18.2044 84.5317 18.0163 84.861C17.8281 85.0962 17.5459 85.2373 17.2636 85.2373H15.335V84.1083H16.2287L15.4761 80.298H16.3698L17.1225 84.1083C17.4047 84.1083 17.5459 83.8261 17.5459 83.2146V79.6865H18.3455L18.2985 83.8261Z" fill="#A1A1A1"/>
<path d="M22.2969 85.2374H21.4972C21.4031 86.1782 20.9327 86.6486 20.133 86.6486H20.039V85.7078H20.133C20.4153 85.7078 20.6975 85.5196 20.6975 85.1903C20.5094 85.2374 20.3683 85.2374 20.1801 85.2374C19.3804 85.2374 18.8159 84.4377 18.8159 83.2617C18.8159 82.0857 19.3804 81.333 20.1801 81.333C20.9798 81.333 21.4972 82.1797 21.4972 83.3087V84.1084H22.2499L22.2969 85.2374ZM20.6975 84.1084V83.2617C20.6975 82.7442 20.5094 82.4149 20.1801 82.4149C19.8508 82.4149 19.7097 82.7442 19.7097 83.2146C19.7097 83.685 19.8978 84.0614 20.2271 84.0614L20.6975 84.1084Z" fill="#A1A1A1"/>
<path d="M26.0606 85.2373H25.5902C25.0728 85.2373 24.5553 85.1433 24.0849 84.908C23.6145 85.1433 23.0971 85.2844 22.5796 85.2373H22.0151V84.1084H22.5796C22.7207 84.1084 22.9089 84.1084 23.05 84.0613C22.8148 83.638 22.6737 83.1676 22.6737 82.6501C22.6737 82.4149 22.7207 82.2267 22.7678 81.9915C22.9559 81.1448 23.4734 80.6274 24.0849 80.6274C24.6964 80.6274 25.2139 81.1448 25.402 81.9915C25.4491 82.2267 25.4961 82.4149 25.4961 82.6501C25.4961 83.1676 25.355 83.638 25.1198 84.0613C25.2609 84.1084 25.4491 84.1084 25.5902 84.1084H26.0606V85.2373ZM24.3672 83.4968C24.6024 83.2146 24.7435 82.8853 24.6964 82.509C24.6964 81.9445 24.4612 81.5211 24.0379 81.5211C23.8497 81.5211 23.6615 81.6152 23.5675 81.8034C23.4734 82.0386 23.4263 82.2738 23.4263 82.509C23.3793 82.8853 23.5204 83.2146 23.7556 83.4968C23.8497 83.5909 23.9438 83.685 24.0379 83.732C24.179 83.732 24.2731 83.638 24.3672 83.4968ZM24.4142 79.8277H23.6616V78.8398H24.4142V79.8277Z" fill="#A1A1A1"/>
<path d="M27.6126 83.5907C27.6126 83.967 27.5185 84.3904 27.3303 84.7197C27.1892 85.0019 26.8599 85.2371 26.5306 85.2371H25.731V84.1082H26.3425C26.6247 84.1082 26.7658 83.8259 26.7658 83.2614V79.7334H27.6126V83.5907Z" fill="#A1A1A1"/>
<path d="M29.024 85.2373H28.1772V79.6865H29.024V85.2373Z" fill="#A1A1A1"/>
<path d="M35.8921 83.8257C35.8921 84.7195 35.5157 85.2369 34.9042 85.2369H32.7403C31.4232 85.2369 30.7646 84.4372 30.7646 82.8379V81.3326H31.5643V82.8379C31.5173 83.2142 31.6114 83.5905 31.8936 83.8728C32.1288 84.0609 32.4581 84.108 32.7403 84.108H34.2927C34.4338 84.108 34.622 84.0609 34.7631 84.0139C34.9983 83.8257 35.0924 83.4964 35.0453 83.2142V81.3326H35.845V83.8257H35.8921ZM33.1637 81.3326H32.4111V80.3447H33.2107L33.1637 81.3326ZM34.2927 81.3326H33.54V80.3447H34.2927V81.3326Z" fill="#A1A1A1"/>
<path d="M38.291 85.2373H37.4913C36.8327 85.2373 36.5034 84.7198 36.5034 83.8261V79.6865H37.3501V83.1675C37.3501 83.732 37.4442 84.0613 38.0558 84.0613H38.291V85.2373Z" fill="#A1A1A1"/>
<path d="M43.1362 85.237H38.1499V84.1081H41.5368C41.5368 83.6847 41.4427 83.3084 41.2075 82.9321C41.0194 82.6028 40.643 82.3676 40.2667 82.3676C39.8434 82.4146 39.5141 82.6498 39.2789 82.9791C39.1848 82.838 39.0437 82.5557 38.8555 82.1794C39.1378 81.662 39.7022 81.2856 40.3138 81.2856C40.643 81.2856 40.9723 81.3797 41.2546 81.5679C41.9131 81.9912 42.2895 82.838 42.3835 84.1081H43.1362V85.237ZM40.7371 86.6482H39.9845V85.6604H40.7371V86.6482Z" fill="#A1A1A1"/>
<path d="M43.5593 80.7212H42.8066V79.7334H43.5593V80.7212ZM45.582 85.2842H42.9007V84.1552H43.4652C43.7474 84.1552 43.8886 83.873 43.8886 83.3085V81.3798H44.7353V83.2614C44.7353 83.5437 44.6883 83.8259 44.6412 84.1082H45.6291V85.2842H45.582ZM44.6412 80.7212H43.8886V79.7334H44.6412V80.7212Z" fill="#A1A1A1"/>
<path d="M48.1222 85.2373H45.4409V84.1083H46.0054C46.2876 84.1083 46.4288 83.8261 46.4288 83.2616V81.3329H47.3225V83.2146C47.3225 83.4968 47.2755 83.779 47.2285 84.0613H48.2163V85.2373H48.1222ZM47.1814 80.6744H46.4288V79.6865H47.1814V80.6744Z" fill="#A1A1A1"/>
<path d="M52.0735 85.2372H51.1327C50.9445 85.7076 50.4741 85.9898 50.0037 85.9898C49.4863 85.9898 49.0629 85.7076 48.8747 85.2372H47.981V84.1082H48.6395C48.6395 82.8851 49.1099 82.0854 50.0037 82.0854C50.8975 82.0854 51.4149 82.8381 51.4149 84.1082H52.1205V85.2372H52.0735ZM50.5682 84.0611C50.5682 83.4026 50.38 83.0263 50.0507 83.0263H50.0037C49.7215 83.0263 49.4862 83.4496 49.4862 84.0141C49.4862 84.5786 49.6744 85.002 50.0507 85.002C50.333 85.002 50.6152 84.6256 50.5682 84.0611Z" fill="#A1A1A1"/>
<path d="M54.5667 85.2373H51.8384V84.1083H52.4029C52.6851 84.1083 52.8262 83.8261 52.8262 83.2616V79.6865H53.673V83.2146C53.673 83.4968 53.6259 83.779 53.5789 84.0613H54.5667V85.2373Z" fill="#A1A1A1"/>
<path d="M56.2605 83.5907C56.2605 83.967 56.1664 84.3904 55.9783 84.7197C55.8372 85.0019 55.5079 85.2371 55.1786 85.2371H54.3789V84.1082H54.9904C55.2727 84.1082 55.4138 83.8259 55.4138 83.2614V79.7334H56.2605V83.5907Z" fill="#A1A1A1"/>
<path d="M63.081 85.2373C62.6577 85.2843 62.2343 85.0491 61.9521 84.7199C61.858 85.8018 61.0112 86.6015 59.9293 86.6485C58.7533 86.6485 57.8125 85.3784 57.8125 83.732V82.6971H58.6592V83.6379C58.6592 84.7669 59.1296 85.5666 59.9764 85.5666C60.682 85.5195 61.2935 84.908 61.2464 84.2024C61.2464 83.732 60.9642 83.4498 60.682 83.4498C60.6349 83.4498 60.5879 83.4498 60.5408 83.4968V82.4619H60.9172C61.5287 82.4619 61.9521 82.8382 62.2343 83.6379C62.2813 83.9672 62.6106 84.2024 62.9399 84.1554H63.081V85.2373ZM59.8352 88.436H59.0826V87.4482H59.8352V88.436ZM60.9642 88.436H60.2116V87.4482H60.9642V88.436Z" fill="#A1A1A1"/>
<path d="M64.7273 83.5907C64.7273 83.967 64.6332 84.3904 64.4451 84.7197C64.304 85.0019 63.9747 85.2371 63.6454 85.2371H62.8457V84.1082H63.4572C63.7395 84.1082 63.8806 83.8259 63.8806 83.2614V79.7334H64.7273V83.5907Z" fill="#A1A1A1"/>
<path d="M68.7261 85.2374H67.9264C67.8323 86.1782 67.3619 86.6486 66.5622 86.6486H66.4682V85.7078H66.5622C66.8445 85.7078 67.1267 85.5196 67.1267 85.1903C66.9386 85.2374 66.7975 85.2374 66.6093 85.2374C65.8096 85.2374 65.2451 84.4377 65.2451 83.2617C65.2451 82.0857 65.8096 81.333 66.6093 81.333C67.409 81.333 67.9264 82.1797 67.9264 83.3087V84.1084H68.6791V85.2374H68.7261ZM67.1267 84.1084V83.2617C67.1267 82.7442 66.9386 82.4149 66.6093 82.4149C66.28 82.4149 66.1389 82.7442 66.1389 83.2146C66.1389 83.685 66.327 84.0614 66.6563 84.0614L67.1267 84.1084Z" fill="#A1A1A1"/>
<path d="M69.1963 80.7212H68.4907V79.7334H69.2434L69.1963 80.7212ZM71.2661 85.2842H68.5848V84.1552H69.1493C69.4315 84.1552 69.5726 83.873 69.5726 83.3085V81.3798H70.4194V83.2614C70.4194 83.5437 70.3723 83.8259 70.3253 84.1082H71.3131L71.2661 85.2842ZM70.3253 80.7212H69.5726V79.7334H70.3723L70.3253 80.7212Z" fill="#A1A1A1"/>
<path d="M75.2175 85.2372H74.2767C74.0885 85.7076 73.6181 85.9898 73.1477 85.9898C72.6303 85.9898 72.2069 85.7076 72.0188 85.2372H71.125V84.1082H71.7836C71.7836 82.8851 72.254 82.0854 73.1477 82.0854C74.0415 82.0854 74.5589 82.8381 74.5589 84.1082H75.2646V85.2372H75.2175ZM73.6652 84.0611C73.6652 83.4026 73.477 83.0263 73.1477 83.0263H73.1007C72.8185 83.0263 72.5833 83.4496 72.5833 84.0141C72.5833 84.5786 72.7714 85.002 73.1477 85.002C73.5241 85.002 73.6652 84.6256 73.6652 84.0611Z" fill="#A1A1A1"/>
<path d="M76.7698 83.5907C76.7698 83.967 76.6757 84.3904 76.4876 84.7197C76.3464 85.0019 76.0172 85.2371 75.6879 85.2371H74.8882V84.1082H75.5468C75.829 84.1082 75.9701 83.8259 75.9701 83.2614V79.7334H76.8168L76.7698 83.5907Z" fill="#A1A1A1"/>
<path d="M78.2281 85.2373H77.3813V79.6865H78.2281V85.2373Z" fill="#A1A1A1"/>
<path d="M83.7787 85.2373H82.932C82.4616 85.2373 82.1323 84.9081 81.9441 84.2025C81.803 84.5317 81.4737 84.7669 81.0974 84.7199C80.3918 84.7199 79.9214 83.8261 79.9214 82.6501C79.9214 81.38 80.3918 80.5333 81.1444 80.5333H82.7438V83.2616C82.7438 83.8261 82.932 84.1554 83.3553 84.1554H83.7787V85.2373ZM81.3326 79.6866H80.58V78.6987H81.3326V79.6866ZM81.8971 82.509V81.38H81.3326C81.0033 81.38 80.7211 81.9445 80.7211 82.6031C80.7211 83.2616 80.9563 83.685 81.2856 83.685C81.6148 83.685 81.8971 83.2146 81.8971 82.509ZM82.4145 79.6866H81.7089V78.6987H82.4616V79.6866H82.4145Z" fill="#A1A1A1"/>
<path d="M87.7774 85.2371H83.4497V84.1082H86.8837C86.7896 83.1673 86.3192 82.4617 85.6606 82.4617H84.1553L85.3313 79.7334H86.3192L85.5665 81.3798H86.0369C87.1659 81.568 87.7774 82.8381 87.7774 84.8138V85.2371Z" fill="#A1A1A1"/>
<path d="M90.7877 85.2374H89.8469C89.8469 86.037 89.1413 86.6956 88.3416 86.6486C88.2946 86.6486 88.2946 86.6486 88.2476 86.6486V85.6607C88.812 85.6607 89.0472 85.2844 89.0472 84.5318V81.333H89.894V84.0614H90.7877V85.2374Z" fill="#A1A1A1"/>
<path d="M95.8685 83.2146C95.8685 84.3906 95.304 85.2374 94.6454 85.2374H90.5059V84.1084H91.2585C91.5408 84.1084 91.6819 83.9202 91.6819 83.2617V81.333H92.5286V83.2146C92.5286 83.4969 92.4816 83.7791 92.4345 84.0614H92.952C93.2342 84.0614 93.3753 83.8262 93.3753 83.3087V81.333H94.2221V83.2146C94.2221 83.4969 94.175 83.7791 94.128 84.0614H94.6454C94.9277 84.0614 95.0688 83.8262 95.0688 83.3087V81.333H95.9155L95.8685 83.2146ZM93.5635 80.6745H92.8108V79.6866H93.5635V80.6745ZM94.128 79.2632H93.3753V78.2754H94.128V79.2632ZM94.6925 80.6745H93.9398V79.6866H94.6925V80.6745Z" fill="#A1A1A1"/>
<path d="M101.889 85.2373C101.043 85.2373 100.478 84.6728 100.196 83.6379H99.2079C98.5964 83.6379 98.3612 83.9202 98.3612 84.5787C98.3612 85.2373 98.6435 85.5195 99.2079 85.5195H100.337V86.6955H99.255C98.126 86.6955 97.5615 85.8959 97.5615 84.5787C97.5615 83.5909 97.8908 82.8853 98.5494 82.603C98.4553 82.3208 98.4083 81.9915 98.4083 81.6622C98.4083 80.5803 98.9727 79.6865 99.7254 79.6865C100.29 79.7336 100.76 80.1569 100.854 80.7214L100.196 81.1918C100.102 80.8625 99.9606 80.6744 99.7254 80.6744C99.4902 80.6744 99.2079 81.0507 99.2079 81.5681C99.2079 81.9915 99.302 82.3208 99.5372 82.4149H100.854C100.854 83.5438 101.184 84.0613 101.842 84.0613H101.889V85.2373Z" fill="#A1A1A1"/>
<path d="M104.477 85.2373H101.795V84.1083H102.36C102.642 84.1083 102.783 83.8261 102.783 83.2616V81.3329H103.63V83.2146C103.63 83.4968 103.583 83.779 103.536 84.0613H104.524L104.477 85.2373ZM103.536 80.6744H102.83V79.6865H103.583L103.536 80.6744Z" fill="#A1A1A1"/>
<path d="M110.404 85.2374H104.242V84.1084H104.994C105.277 84.1084 105.418 83.9202 105.418 83.2617V81.7564H106.264V82.8853C106.782 81.9445 107.487 81.333 108.146 81.333C109.134 81.333 109.698 82.3209 109.792 84.1084H110.451L110.404 85.2374ZM108.899 84.1084V84.0143C108.899 83.1205 108.616 82.462 108.052 82.462C107.487 82.462 106.876 83.0265 106.453 84.1554L108.899 84.1084Z" fill="#A1A1A1"/>
<path d="M113.791 84.0141C113.791 85.1431 113.273 85.9898 112.427 85.9898C111.909 85.9898 111.486 85.7076 111.298 85.2372H110.216V84.1082H111.063C111.063 82.8851 111.533 82.0854 112.427 82.0854C113.32 82.0854 113.791 82.8381 113.791 84.0141ZM112.991 84.0611C112.991 83.4026 112.803 83.0263 112.474 83.0263H112.427C112.144 83.0263 111.909 83.4496 111.909 84.0141C111.909 84.5786 112.097 85.002 112.474 85.002C112.756 85.002 112.991 84.6256 112.991 84.0611Z" fill="#A1A1A1"/>
<path fill-rule="evenodd" clip-rule="evenodd" d="M57.4364 20.6509C66.1859 19.6631 71.5955 24.0849 75.4058 29.1182C82.0855 38.0088 83.1204 54.2848 76.4407 64.5866C73.242 69.4788 68.2557 73.9006 62.2815 74.5121C53.2028 75.5 47.3227 70.7959 43.6065 65.1511C40.1726 59.8826 38.385 53.7203 38.4791 47.4639C38.4791 40.8312 40.4078 34.4808 43.6065 29.7767C46.4289 25.5901 51.2271 21.3565 57.4364 20.6509ZM56.8719 23.9908C48.9691 25.7313 44.4062 34.5749 43.4184 42.3836C47.0405 36.4094 52.6383 32.458 62.2345 32.458C62.7049 32.364 62.8931 31.9406 63.4105 31.8936C64.3984 32.7403 66.2329 32.364 66.327 33.9163C66.3741 34.763 65.7155 35.4686 64.8688 35.5157C65.3392 37.4443 65.2451 39.8904 65.9037 41.6309C66.6563 40.7842 68.3027 40.7842 68.1146 38.9967C68.7261 38.4322 69.4787 38.0558 70.3254 37.9618C69.6669 37.1621 68.4909 36.8798 68.1146 35.7509C68.3027 33.1636 67.9264 30.4353 71.5955 30.7646C68.8672 26.625 63.7868 22.4855 56.8719 23.9908ZM71.7367 34.1985C71.8307 33.8692 71.6896 33.54 71.4544 33.3048C71.5485 33.6811 71.2192 34.3397 71.7367 34.1985ZM60.0706 35.3745C60.8233 36.7858 61.623 38.1499 62.5638 39.4671C62.5167 37.9618 62.2345 36.6917 62.1404 35.2334C61.4348 35.2805 60.494 35.0923 60.0706 35.3745ZM75.1236 38.0088C74.7943 37.021 74.6061 35.892 73.9476 35.2334C73.8535 36.5976 74.2768 37.5384 75.1236 38.0088ZM63.4105 45.1589C66.327 44.6885 69.2435 44.2652 70.7018 42.3836C70.8899 42.3365 70.937 42.1484 71.1251 42.1013C71.0781 41.8661 70.8899 42.1013 70.8429 42.2424C68.585 43.6066 66.28 44.9708 62.3756 44.7356C60.0236 42.6188 59.0358 39.1378 58.0009 35.7038C54.1906 36.5506 50.8037 38.6674 48.3576 41.678C45.6763 44.9237 42.6187 50.0511 43.8417 54.9433C45.8645 53.2499 47.2757 50.8508 48.3576 48.4988C48.7339 47.6521 48.9221 46.5231 49.3925 45.7234C51.6034 42.0072 58.2361 45.9116 61.0585 46.6172C61.9523 46.8524 65.104 47.2287 65.4333 46.1938C64.5865 46.2409 63.3164 47.1346 62.799 46.1938C63.0812 45.9116 63.2694 45.5353 63.4105 45.1589ZM68.9613 39.8904C69.7139 39.7023 71.0311 39.373 70.984 38.8555C70.4195 39.3259 69.4787 39.373 68.9613 39.8904ZM43.4184 47.3698C44.8766 44.2652 47.3697 41.3957 49.1102 39.0437C46.8523 41.3487 43.7476 43.5596 43.4184 47.3698ZM75.688 44.4063C74.6532 45.6293 73.5242 46.7113 72.2071 47.605C70.8429 48.5929 69.2906 49.2044 67.8323 50.0982C66.4681 50.9449 65.8096 52.5443 64.7747 53.2969C62.7049 54.8022 60.7292 53.2028 59.0828 52.1209C58.9887 52.5443 60.494 52.6854 60.3999 53.5792C60.0236 55.2256 58.2831 55.5549 56.5897 55.9312C56.3545 58.048 58.8946 58.1891 59.9295 59.7415C60.447 60.4941 60.447 61.529 60.9644 62.3757C61.8111 63.7869 65.0569 63.9751 65.1981 65.5745C65.3392 67.5031 62.6579 67.6442 62.7049 69.9492C72.7715 66.9386 77.8989 55.3197 75.9703 41.9132C76.0173 42.901 75.7351 43.5596 75.688 44.4063ZM52.1679 50.4275C51.3211 51.6035 51.8386 52.3561 51.133 53.344C50.6155 54.0966 48.9221 54.8963 47.9342 55.696C46.9464 56.4957 45.1118 57.4365 45.0177 58.4714C44.9707 59.3181 46.6171 61.9524 47.2286 62.8461C49.9099 66.8916 53.7672 70.2315 59.7884 70.4196C60.7292 67.5502 59.8354 66.5153 58.0479 65.01C56.1193 63.4106 54.8492 62.2816 53.1087 60.7763C51.8386 59.6944 50.4274 59.224 50.7567 56.9661C51.133 54.567 53.485 52.0739 56.0252 51.2742C54.3788 51.5564 53.532 49.6748 52.1679 50.4275ZM59.6473 51.8857C61.623 51.4153 63.0812 53.5321 64.3043 52.0268C62.7049 52.6854 60.8233 50.2393 59.6473 51.8857ZM50.4274 51.8857C50.3803 51.8857 49.4395 53.0147 49.5336 53.2028C49.8158 52.6854 50.3803 52.5443 50.4274 51.8857ZM56.8719 71.5956C56.8719 72.019 57.4834 71.4545 56.8719 71.5956C51.5093 69.7611 47.7461 66.3271 45.0648 61.9524C44.2651 60.6352 43.7476 58.5184 42.0071 58.1421C44.5003 65.057 48.9221 70.0903 56.8719 71.5956Z" fill="#A1A1A1"/>
</svg>
