<svg width="176" height="176" viewBox="0 0 176 176" fill="none" xmlns="http://www.w3.org/2000/svg">
<path d="M117.519 96.8C119.666 94.8992 121.25 93.7728 122.059 93.1392C122.095 93.104 122.165 93.0688 122.2 93.0336C122.447 92.8576 122.693 92.6816 122.939 92.4704H122.975C123.08 92.4 123.186 92.2944 123.291 92.224C123.397 92.1536 123.503 92.048 123.608 91.9776L123.643 91.9424L124.066 91.6256V91.5552C123.227 91.8956 122.331 92.0747 121.426 92.0832C120.662 92.0776 119.902 91.959 119.173 91.7312C118.106 93.2066 117.527 94.9791 117.519 96.8Z" fill="#A1A1A1"/>
<path d="M128.48 79.5872C128.437 79.6409 128.401 79.7001 128.374 79.7632C128.233 79.9744 128.128 80.1504 127.987 80.3264C127.657 80.7668 127.305 81.1898 126.931 81.5936C126.579 81.9456 126.227 82.2976 125.84 82.6144C124.643 83.6704 123.376 84.5504 122.918 84.9376C122.249 85.4656 121.616 85.9584 120.982 86.4864C120.841 86.6272 120.701 86.7328 120.56 86.8736C119.589 87.7226 118.704 88.6659 117.92 89.6896C116.864 91.0976 116.23 92.5056 116.265 93.9488C116.279 95.0564 116.622 96.1349 117.251 97.0464C117.246 97.0464 117.242 97.0455 117.238 97.0437C117.233 97.042 117.229 97.0394 117.226 97.0361C117.223 97.0328 117.22 97.0289 117.218 97.0247C117.217 97.0204 117.216 97.0158 117.216 97.0112C114.505 95.6032 112.217 94.0896 110.809 92.3648C109.95 91.3879 109.453 90.145 109.401 88.8448C109.437 85.4304 113.168 82.368 117.005 79.4112C117.392 79.1296 117.744 78.848 118.131 78.5312C118.201 78.496 118.237 78.4256 118.307 78.3904C120.384 76.8064 122.39 75.2224 123.693 73.6384C123.736 73.5983 123.772 73.5506 123.798 73.4976L123.833 73.4624C123.929 73.4917 124.023 73.527 124.115 73.568C126.157 74.3424 127.846 76.384 128.339 79.024C128.398 79.2084 128.445 79.3966 128.48 79.5872Z" fill="#A1A1A1"/>
<path d="M117.519 97.187V97.4686C117.413 97.3362 117.319 97.1949 117.237 97.0462C116.608 96.1347 116.265 95.0562 116.251 93.9486C116.251 92.5054 116.885 90.9918 118.187 89.3374C118.152 89.6542 117.906 90.2526 118.011 90.499C118.118 90.7606 118.273 90.9995 118.469 91.203C118.679 91.4081 118.931 91.5643 119.208 91.6606C118.104 93.1857 117.512 95.0223 117.519 96.9054V97.187Z" fill="#A1A1A1"/>
<path d="M117.167 74.7648C119.577 74.7648 121.531 72.8106 121.531 70.4C121.531 67.9893 119.577 66.0352 117.167 66.0352C114.756 66.0352 112.802 67.9893 112.802 70.4C112.802 72.8106 114.756 74.7648 117.167 74.7648Z" fill="#A1A1A1"/>
<path d="M120.476 67.5134C119.846 66.958 119.069 66.5962 118.238 66.4713C117.408 66.3464 116.559 66.4638 115.793 66.8094C115.028 67.155 114.378 67.7141 113.923 68.4196C113.467 69.1251 113.225 69.9472 113.224 70.787C113.232 71.8486 113.619 72.8726 114.316 73.6734C113.859 73.2815 113.489 72.7996 113.227 72.2578C112.966 71.7161 112.819 71.1261 112.797 70.525C112.774 69.9239 112.875 69.3246 113.095 68.7646C113.315 68.2046 113.648 67.696 114.073 67.2707C114.498 66.8453 115.007 66.5124 115.567 66.2928C116.127 66.0732 116.726 65.9716 117.327 65.9943C117.928 66.0171 118.518 66.1638 119.06 66.4252C119.602 66.6866 120.084 67.0571 120.476 67.5134Z" fill="#A1A1A1"/>
<path d="M129.381 76.8766C129.381 77.0174 129.346 77.123 129.346 77.2638C129.307 77.5609 129.249 77.8549 129.17 78.1438V78.179C129.019 78.6794 128.794 79.1542 128.501 79.587V79.5166C128.466 79.3406 128.466 79.1998 128.431 79.0238C127.938 76.3838 126.248 74.3422 124.207 73.5678C124.379 73.3469 124.532 73.1113 124.664 72.8638C125.004 72.258 125.253 71.6057 125.403 70.9278L125.333 70.8574C125.65 71.1742 126.002 71.491 126.319 71.8078C127.375 72.7934 128.466 73.8494 129.029 75.0814C129.033 75.1081 129.045 75.1328 129.064 75.1518C129.135 75.3278 129.205 75.539 129.275 75.7502C129.275 75.7854 129.311 75.8558 129.311 75.891V75.9614C129.34 76.0644 129.351 76.1714 129.346 76.2782V76.3134C129.346 76.5246 129.381 76.7006 129.381 76.8766Z" fill="#A1A1A1"/>
<path opacity="0.64" d="M125.369 70.9632C125.161 71.918 124.753 72.8178 124.172 73.6032C124.066 73.568 123.996 73.5328 123.89 73.4976C124.097 73.2543 124.286 72.9954 124.453 72.7232C124.787 72.1557 125.025 71.5373 125.157 70.8928C125.157 70.8576 125.193 70.8224 125.193 70.752L125.333 70.8928L125.369 70.9632Z" fill="#A1A1A1"/>
<path d="M124.136 73.6032C124.101 73.6384 124.066 73.7088 123.996 73.744C123.952 73.7841 123.916 73.8318 123.89 73.8848C122.588 75.4688 120.581 77.0528 118.504 78.6368C118.434 78.672 118.399 78.7424 118.328 78.7776C117.941 79.0592 117.589 79.3408 117.202 79.6576C113.365 82.6144 109.599 85.6768 109.599 89.1264C109.627 90.3301 110.048 91.4917 110.796 92.4352C111.048 92.7879 111.33 93.1177 111.64 93.4208C110.232 92.048 109.388 90.5696 109.388 88.9152V88.88C109.423 85.4656 113.154 82.4032 116.991 79.4464C117.378 79.1648 117.73 78.8832 118.117 78.5664C118.188 78.5312 118.223 78.4608 118.293 78.4256C120.37 76.8416 122.376 75.2576 123.679 73.6736C123.722 73.6334 123.758 73.5857 123.784 73.5328L123.82 73.4976C123.929 73.5219 124.035 73.5573 124.136 73.6032Z" fill="#A1A1A1"/>
<path d="M127.797 88.7744C125.509 90.464 123.573 91.9072 122.06 93.104C121.18 93.7728 119.42 95.0752 117.061 97.2224C115.842 98.299 114.755 99.516 113.823 100.848C113.029 102.02 112.623 103.411 112.661 104.826C112.71 105.927 113.05 106.996 113.647 107.923C113.964 108.381 114.245 108.662 114.28 108.733C114.962 109.365 115.801 109.803 116.709 110C116.945 109.347 117.228 108.712 117.554 108.099C117.906 107.501 118.434 106.691 120.264 104.896C121.039 104.122 121.989 103.206 123.362 102.045C124.735 100.883 125.157 100.707 126.46 99.5456C127.157 98.9275 127.794 98.2439 128.36 97.504C128.827 96.9163 129.207 96.2642 129.487 95.568C129.756 94.7993 129.887 93.9889 129.874 93.1744C129.724 91.5082 128.988 89.9491 127.797 88.7744Z" fill="#A1A1A1"/>
<path d="M129.452 95.568C129.346 95.8496 129.205 96.1312 129.1 96.3776C129.056 95.4793 128.89 94.5911 128.607 93.7376C128.155 92.4756 127.407 91.3407 126.424 90.4288C126.988 90.0064 127.551 89.584 128.149 89.1616C129.151 90.2826 129.747 91.7087 129.839 93.2096C129.858 94.013 129.727 94.8129 129.452 95.568Z" fill="#A1A1A1"/>
<path d="M117.568 108.029C117.568 108.064 117.533 108.064 117.533 108.099C117.179 108.698 116.896 109.336 116.688 110C115.771 109.827 114.926 109.386 114.259 108.733C114.017 108.489 113.805 108.217 113.626 107.923C113.04 106.991 112.701 105.925 112.64 104.825C112.602 103.411 113.008 102.02 113.802 100.848C114.118 100.373 114.459 99.9146 114.823 99.4751C114.289 100.507 114.034 101.661 114.083 102.821C114.133 103.982 114.485 105.11 115.104 106.093C115.296 106.398 115.52 106.681 115.773 106.937C116.293 107.417 116.903 107.788 117.568 108.029Z" fill="#A1A1A1"/>
<path d="M128.128 89.1264C127.53 89.584 126.967 90.0064 126.403 90.3936C126.283 90.2776 126.154 90.1717 126.016 90.0768C126.579 89.6544 127.178 89.232 127.776 88.7744L127.811 88.8096L127.847 88.8448C127.949 88.9296 128.043 89.0239 128.128 89.1264Z" fill="#A1A1A1"/>
<path d="M126.389 90.4287C124.84 91.5903 123.503 92.6111 122.377 93.4559C121.497 94.1247 119.736 95.4271 117.378 97.5743C116.159 98.6508 115.072 99.8678 114.14 101.2C113.346 102.371 112.939 103.763 112.978 105.177C113.027 106.274 113.354 107.34 113.929 108.275C114.105 108.521 114.28 108.733 114.386 108.873C114.316 108.838 114.28 108.768 114.21 108.733C113.968 108.488 113.755 108.217 113.577 107.923C112.991 106.991 112.652 105.925 112.591 104.825C112.552 103.411 112.959 102.019 113.753 100.848C114.674 99.5069 115.762 98.2886 116.991 97.2223C119.349 95.0751 121.109 93.7727 121.989 93.1039C123.116 92.2591 124.453 91.2383 125.967 90.0767C126.129 90.1651 126.273 90.2847 126.389 90.4287Z" fill="#A1A1A1"/>
<path d="M101.679 74.3425V87.0849C102.35 87.0821 102.993 86.8142 103.468 86.3395C103.942 85.8648 104.21 85.2218 104.213 84.5505V71.8081C103.542 71.8109 102.899 72.0788 102.424 72.5535C101.949 73.0282 101.681 73.6712 101.679 74.3425Z" fill="#A1A1A1"/>
<path d="M99.5317 81.6991V71.9487C98.8697 71.9515 98.2357 72.2157 97.7676 72.6838C97.2995 73.1519 97.0353 73.786 97.0325 74.4479V81.9103C97.0719 82.5195 96.8837 83.1216 96.5045 83.5999C95.8357 84.3743 94.5333 84.5151 93.5829 84.5151H90.9077C90.9742 84.4264 91.0331 84.3322 91.0837 84.2335C91.5184 83.5069 91.7538 82.6784 91.7662 81.8318C91.7785 80.9851 91.5674 80.1502 91.1541 79.4111C90.1685 77.5455 88.0565 76.0671 84.8181 75.0463C83.3985 74.5774 81.9367 74.2473 80.4533 74.0607C80.3838 74.7163 80.5515 75.3751 80.9261 75.9176C81.3006 76.46 81.8572 76.8503 82.4949 77.0175C84.8885 77.5807 87.9509 78.7423 88.9013 80.6079C89.109 80.9662 89.2184 81.373 89.2184 81.7871C89.2184 82.2013 89.109 82.608 88.9013 82.9663C88.3029 83.9871 86.8949 84.5503 85.1349 84.5503H80.8405C80.1785 84.5531 79.5445 84.8173 79.0764 85.2854C78.6083 85.7535 78.3441 86.3876 78.3413 87.0495H93.6322C95.7794 87.0495 97.4338 86.4511 98.4898 85.2543C99.2755 84.2443 99.6479 82.9735 99.5317 81.6991Z" fill="#A1A1A1"/>
<path d="M61.1988 74.7649V87.1553C61.8701 87.1525 62.5131 86.8846 62.9878 86.4099C63.4625 85.9352 63.7304 85.2922 63.7332 84.6209V72.2305C63.3999 72.2291 63.0697 72.2937 62.7616 72.4206C62.4535 72.5474 62.1736 72.7341 61.9379 72.9697C61.7023 73.2053 61.5157 73.4852 61.3888 73.7934C61.262 74.1015 61.1974 74.4317 61.1988 74.7649Z" fill="#A1A1A1"/>
<path d="M56.8691 100.355H59.0163C59.0438 100.357 59.0697 100.368 59.0892 100.388C59.1086 100.407 59.1203 100.433 59.1219 100.461V101.376C59.1203 101.403 59.1086 101.429 59.0892 101.449C59.0697 101.468 59.0438 101.48 59.0163 101.481H56.9747C56.9473 101.48 56.9214 101.468 56.9019 101.449C56.8825 101.429 56.8708 101.403 56.8691 101.376V100.355Z" fill="#A1A1A1"/>
<path d="M68.2389 86.3106C69.1271 86.8268 70.1333 87.1056 71.1605 87.1202C72.3297 87.1176 73.4707 86.7618 74.4341 86.0994C74.3643 86.7836 74.0522 87.4203 73.5541 87.8946C72.8149 88.5986 71.6533 88.9154 70.1045 88.9506C68.4149 88.9506 68.2741 91.3794 68.2741 91.3794H68.4501C69.0133 91.4146 69.5061 91.4498 70.0341 91.4498C72.3221 91.4498 74.1173 90.8514 75.3141 89.6898C75.8536 89.1875 76.2801 88.5762 76.5653 87.8965C76.8506 87.2168 76.988 86.4842 76.9685 85.7474V81.277C76.9661 80.2589 76.6961 79.2594 76.1856 78.3786C75.6751 77.4977 74.942 76.7666 74.0599 76.2584C73.1778 75.7501 72.1775 75.4827 71.1595 75.4829C70.1414 75.4831 69.1413 75.7509 68.2593 76.2594C67.3774 76.768 66.6446 77.4994 66.1344 78.3804C65.6243 79.2614 65.3546 80.2611 65.3526 81.2791C65.3505 82.2972 65.6161 83.2979 66.1226 84.181C66.6292 85.0641 67.359 85.7985 68.2389 86.3106ZM71.1253 84.5506C70.4779 84.5506 69.845 84.3586 69.3066 83.9989C68.7683 83.6392 68.3487 83.1279 68.1009 82.5297C67.8531 81.9316 67.7883 81.2733 67.9146 80.6383C68.0409 80.0033 68.3527 79.42 68.8105 78.9622C69.2684 78.5044 69.8517 78.1926 70.4867 78.0663C71.1217 77.94 71.7799 78.0048 72.3781 78.2526C72.9762 78.5003 73.4875 78.9199 73.8472 79.4583C74.2069 79.9966 74.3989 80.6295 74.3989 81.277C74.4056 81.7087 74.3254 82.1374 74.1633 82.5376C74.0011 82.9377 73.7602 83.3013 73.4549 83.6066C73.1496 83.9119 72.7861 84.1528 72.3859 84.3149C71.9857 84.4771 71.5571 84.5572 71.1253 84.5506Z" fill="#A1A1A1"/>
<path d="M54.7217 76.419C53.1843 76.4246 51.7117 77.0387 50.626 78.1271C49.5402 79.2155 48.9296 80.6896 48.9278 82.227C48.9279 83.0273 49.0958 83.8187 49.4206 84.5502H48.6814C48.0101 84.553 47.367 84.8209 46.8924 85.2956C46.4177 85.7703 46.1498 86.4133 46.147 87.0846H56.9534C57.6247 87.0818 58.2677 86.8139 58.7424 86.3392C59.2171 85.8645 59.485 85.2215 59.4878 84.5502H52.4478C52.137 84.2481 51.8897 83.887 51.7205 83.4881C51.5512 83.0891 51.4634 82.6604 51.4622 82.227C51.4668 81.3602 51.8132 80.5302 52.4261 79.9173C53.039 79.3044 53.869 78.958 54.7358 78.9534C55.1329 78.9487 55.5273 79.0204 55.8974 79.1646C55.9678 79.1998 56.0734 79.235 56.1438 79.2702C58.3966 80.2206 59.699 79.411 59.7694 79.3406L59.523 78.9886C58.9986 78.1956 58.2852 77.5456 57.4471 77.097C56.6089 76.6485 55.6723 76.4154 54.7217 76.419Z" fill="#A1A1A1"/>
<path d="M55.1797 104.121C55.4411 104.121 55.6918 104.018 55.8766 103.833C56.0614 103.648 56.1653 103.397 56.1653 103.136V93.2798C56.0359 93.2798 55.9077 93.3053 55.7881 93.3548C55.6685 93.4043 55.5599 93.4769 55.4684 93.5685C55.3768 93.66 55.3042 93.7686 55.2547 93.8882C55.2052 94.0078 55.1797 94.136 55.1797 94.2654V104.121Z" fill="#A1A1A1"/>
<path d="M86.24 101.411C86.24 102.361 85.6416 103.312 84.5152 103.312C83.8112 103.312 82.7904 102.819 82.7904 101.411V96.7998C82.529 96.7998 82.2783 96.9037 82.0935 97.0885C81.9087 97.2733 81.8048 97.524 81.8048 97.7854V101.411C81.8048 102.185 81.3472 103.312 80.08 103.312C78.7072 103.312 78.3552 102.08 78.3552 101.411V96.7998C78.0938 96.7998 77.8431 96.9037 77.6583 97.0885C77.4735 97.2733 77.3696 97.524 77.3696 97.7854V101.446C77.3696 102.854 78.2144 104.297 80.08 104.297C80.5295 104.305 80.9727 104.192 81.3629 103.968C81.7532 103.745 82.0761 103.421 82.2976 103.03C82.5189 103.429 82.8468 103.759 83.2445 103.983C83.6423 104.207 84.0944 104.316 84.5504 104.297C86.4864 104.297 87.1904 102.819 87.1904 101.446V96.7998C87.0655 96.7993 86.9417 96.8236 86.8262 96.8712C86.7107 96.9188 86.6057 96.9888 86.5174 97.0771C86.429 97.1655 86.359 97.2704 86.3114 97.386C86.2638 97.5015 86.2396 97.6253 86.24 97.7502V101.411Z" fill="#A1A1A1"/>
<path d="M49.6319 96.7296C49.019 96.7702 48.4254 96.9607 47.9033 97.2844C47.3812 97.608 46.9466 98.0548 46.6375 98.5857C46.3284 99.1165 46.1544 99.7151 46.1307 100.329C46.107 100.943 46.2344 101.553 46.5016 102.106C46.7688 102.659 47.1677 103.138 47.6633 103.501C48.1589 103.864 48.736 104.1 49.344 104.187C49.9519 104.275 50.5721 104.212 51.1502 104.005C51.7282 103.797 52.2463 103.45 52.6591 102.995V103.171C52.6586 103.296 52.6829 103.42 52.7305 103.535C52.7781 103.651 52.8481 103.756 52.9364 103.844C53.0248 103.933 53.1297 104.003 53.2452 104.05C53.3607 104.098 53.4845 104.122 53.6095 104.122V100.496C53.6208 99.9801 53.524 99.4675 53.3253 98.9913C53.1265 98.5151 52.8303 98.0858 52.4556 97.731C52.0809 97.3762 51.6361 97.1038 51.1498 96.9313C50.6634 96.7589 50.1464 96.6901 49.6319 96.7296ZM52.6943 100.496C52.6943 101.046 52.5312 101.584 52.2256 102.041C51.9201 102.498 51.4858 102.855 50.9776 103.065C50.4695 103.276 49.9104 103.331 49.371 103.223C48.8316 103.116 48.3361 102.851 47.9472 102.462C47.5583 102.073 47.2934 101.578 47.1861 101.038C47.0788 100.499 47.1339 99.9399 47.3444 99.4318C47.5548 98.9237 47.9113 98.4894 48.3686 98.1838C48.8259 97.8783 49.3635 97.7152 49.9135 97.7152C50.2781 97.7147 50.6393 97.7864 50.9761 97.9262C51.3129 98.0659 51.6187 98.2709 51.8759 98.5294C52.1331 98.7879 52.3366 99.0948 52.4746 99.4323C52.6127 99.7698 52.6825 100.131 52.6802 100.496H52.6943Z" fill="#A1A1A1"/>
<path d="M72.0757 96.7294C71.4628 96.77 70.8693 96.9606 70.3472 97.2842C69.8251 97.6078 69.3904 98.0547 69.0813 98.5855C68.7723 99.1163 68.5983 99.7149 68.5746 100.329C68.5509 100.943 68.6782 101.553 68.9455 102.106C69.2127 102.659 69.6116 103.138 70.1072 103.501C70.6028 103.864 71.1799 104.099 71.7878 104.187C72.3958 104.275 73.016 104.212 73.594 104.004C74.172 103.796 74.6902 103.45 75.1029 102.995V103.171C75.1025 103.296 75.1267 103.42 75.1743 103.535C75.2219 103.651 75.2919 103.756 75.3803 103.844C75.4686 103.932 75.5736 104.002 75.6891 104.05C75.8046 104.098 75.9284 104.122 76.0533 104.121V100.496C76.0614 99.9808 75.9624 99.4698 75.7626 98.9951C75.5627 98.5204 75.2664 98.0924 74.8924 97.7383C74.5185 97.3841 74.075 97.1116 73.5901 96.9379C73.1052 96.7642 72.5895 96.6932 72.0757 96.7294ZM75.1381 100.496C75.1381 101.046 74.975 101.583 74.6695 102.041C74.3639 102.498 73.9296 102.854 73.4215 103.065C72.9134 103.275 72.3542 103.33 71.8148 103.223C71.2754 103.116 70.7799 102.851 70.391 102.462C70.0021 102.073 69.7373 101.578 69.63 101.038C69.5227 100.499 69.5777 99.9398 69.7882 99.4316C69.9987 98.9235 70.3551 98.4892 70.8124 98.1836C71.2697 97.8781 71.8073 97.715 72.3573 97.715C72.7232 97.7127 73.0858 97.783 73.4243 97.9219C73.7627 98.0608 74.0702 98.2656 74.3289 98.5243C74.5876 98.7829 74.7923 99.0904 74.9312 99.4289C75.0701 99.7673 75.1405 100.13 75.1381 100.496Z" fill="#A1A1A1"/>
<path d="M91.6465 96.7296C91.0336 96.7702 90.4401 96.9607 89.918 97.2844C89.3959 97.608 88.9612 98.0548 88.6521 98.5857C88.3431 99.1165 88.1691 99.7151 88.1454 100.329C88.1217 100.943 88.249 101.553 88.5163 102.106C88.7835 102.659 89.1824 103.138 89.678 103.501C90.1736 103.864 90.7507 104.1 91.3586 104.187C91.9666 104.275 92.5868 104.212 93.1648 104.005C93.7428 103.797 94.261 103.45 94.6737 102.995V103.171C94.6733 103.296 94.6975 103.42 94.7451 103.535C94.7927 103.651 94.8627 103.756 94.9511 103.844C95.0394 103.933 95.1444 104.003 95.2599 104.05C95.3754 104.098 95.4992 104.122 95.6241 104.122V100.496C95.6355 99.9801 95.5387 99.4675 95.3399 98.9913C95.1412 98.5151 94.845 98.0858 94.4703 97.731C94.0956 97.3762 93.6507 97.1038 93.1644 96.9313C92.6781 96.7589 92.161 96.6901 91.6465 96.7296ZM94.7089 100.496C94.7089 101.046 94.5458 101.584 94.2403 102.041C93.9347 102.498 93.5004 102.855 92.9923 103.065C92.4842 103.276 91.925 103.331 91.3856 103.223C90.8462 103.116 90.3507 102.851 89.9618 102.462C89.5729 102.073 89.3081 101.578 89.2008 101.038C89.0935 100.499 89.1485 99.9399 89.359 99.4318C89.5695 98.9237 89.9259 98.4894 90.3832 98.1838C90.8405 97.8783 91.3781 97.7152 91.9281 97.7152C92.294 97.7128 92.6566 97.7832 92.9951 97.9221C93.3335 98.061 93.641 98.2657 93.8997 98.5244C94.1584 98.7831 94.3631 99.0906 94.502 99.429C94.6409 99.7675 94.7113 100.13 94.7089 100.496Z" fill="#A1A1A1"/>
<path d="M100.165 96.7294C99.5522 96.77 98.9586 96.9606 98.4365 97.2842C97.9144 97.6078 97.4798 98.0547 97.1707 98.5855C96.8616 99.1163 96.6876 99.7149 96.6639 100.329C96.6402 100.943 96.7676 101.553 97.0348 102.106C97.302 102.659 97.7009 103.138 98.1965 103.501C98.6921 103.864 99.2692 104.099 99.8772 104.187C100.485 104.275 101.105 104.212 101.683 104.004C102.261 103.796 102.78 103.45 103.192 102.995V103.171C103.192 103.296 103.216 103.42 103.264 103.535C103.311 103.651 103.381 103.756 103.47 103.844C103.558 103.932 103.663 104.002 103.778 104.05C103.894 104.098 104.018 104.122 104.143 104.121V100.496C104.151 99.9808 104.052 99.4698 103.852 98.9951C103.652 98.5204 103.356 98.0924 102.982 97.7383C102.608 97.3841 102.164 97.1116 101.679 96.9379C101.195 96.7642 100.679 96.6932 100.165 96.7294ZM100.447 103.277C99.8967 103.277 99.3591 103.113 98.9018 102.808C98.4445 102.502 98.088 102.068 97.8776 101.56C97.6671 101.052 97.612 100.493 97.7193 99.9533C97.8266 99.4139 98.0915 98.9184 98.4804 98.5295C98.8693 98.1406 99.3648 97.8757 99.9042 97.7684C100.444 97.6611 101.003 97.7162 101.511 97.9267C102.019 98.1371 102.453 98.4936 102.759 98.9509C103.064 99.4082 103.227 99.9458 103.227 100.496C103.23 100.862 103.159 101.224 103.021 101.563C102.882 101.901 102.677 102.209 102.418 102.467C102.16 102.726 101.852 102.931 101.514 103.07C101.175 103.209 100.813 103.279 100.447 103.277Z" fill="#A1A1A1"/>
<path d="M66.5845 97.9618C66.2365 97.569 65.8081 97.2556 65.3283 97.0431C64.8484 96.8305 64.3285 96.7236 63.8037 96.7298C63.0634 96.7354 62.3413 96.9598 61.7282 97.3749C61.1152 97.7899 60.6386 98.3771 60.3585 99.0624C60.0784 99.7477 60.0073 100.501 60.1541 101.226C60.3009 101.952 60.6591 102.618 61.1836 103.14C61.708 103.663 62.3754 104.018 63.1015 104.163C63.8277 104.307 64.5803 104.233 65.2645 103.95C65.9488 103.667 66.5341 103.189 66.9469 102.574C67.3597 101.96 67.5814 101.237 67.5842 100.496V93.3154C67.4593 93.315 67.3355 93.3392 67.22 93.3868C67.1044 93.4344 66.9995 93.5044 66.9111 93.5928C66.8228 93.6811 66.7528 93.7861 66.7052 93.9016C66.6576 94.0171 66.6333 94.1409 66.6338 94.2658L66.5986 97.9618H66.5845ZM66.5845 100.496C66.5845 101.046 66.4214 101.584 66.1159 102.041C65.8103 102.498 65.376 102.855 64.8679 103.065C64.3598 103.276 63.8006 103.331 63.2612 103.224C62.7218 103.116 62.2263 102.851 61.8374 102.463C61.4485 102.074 61.1837 101.578 61.0764 101.039C60.9691 100.499 61.0241 99.9402 61.2346 99.4321C61.4451 98.9239 61.8015 98.4896 62.2588 98.1841C62.7161 97.8785 63.2537 97.7154 63.8037 97.7154C64.1696 97.7131 64.5322 97.7834 64.8707 97.9224C65.2091 98.0613 65.5166 98.266 65.7753 98.5247C66.0339 98.7834 66.2387 99.0909 66.3776 99.4293C66.5165 99.7677 66.5869 100.13 66.5845 100.496Z" fill="#A1A1A1"/>
</svg>
