<svg width="176" height="176" viewBox="0 0 176 176" fill="none" xmlns="http://www.w3.org/2000/svg">
<path d="M49.6317 81.6815C49.8077 79.0767 51.2157 76.9295 53.1517 76.1199C52.9758 75.7088 52.8917 75.2644 52.9053 74.8175C52.8995 74.6641 52.9113 74.5105 52.9405 74.3599C50.6877 75.3455 49.0333 78.1263 48.9277 81.3999L49.2445 81.5055C49.3631 81.585 49.4939 81.6444 49.6317 81.6815Z" fill="#A1A1A1"/>
<path d="M60.639 81.435C60.5686 78.1262 58.9142 75.3806 56.6262 74.395C56.6262 74.5358 56.6614 74.6766 56.6614 74.8526C56.6544 75.2976 56.571 75.7382 56.415 76.155C58.3158 76.9646 59.759 79.1118 59.935 81.7166C60.0758 81.6814 60.1814 81.611 60.3222 81.5758C60.4208 81.5144 60.5274 81.467 60.639 81.435Z" fill="#A1A1A1"/>
<path d="M54.7605 76.8942C55.5349 76.8942 56.1333 75.979 56.1333 74.8526C56.1333 73.7262 55.4997 72.811 54.7605 72.811C54.0213 72.811 53.3877 73.7262 53.3877 74.8526C53.3877 75.979 53.9861 76.8942 54.7605 76.8942Z" fill="#A1A1A1"/>
<path d="M67.9602 86.9613C67.7842 89.0029 66.2002 91.0093 63.8066 91.9949C63.877 92.1005 63.9826 92.2061 64.053 92.3117C64.1241 92.3973 64.1833 92.492 64.229 92.5933C67.2914 91.4669 69.4034 89.0733 69.6498 86.6445C69.509 86.7149 69.3682 86.7501 69.2274 86.8205C68.8153 86.9348 68.3874 86.9824 67.9602 86.9613Z" fill="#A1A1A1"/>
<path d="M60.6035 82.2096C63.1027 81.6112 65.5667 82.28 66.9395 83.864C67.2764 83.5713 67.6727 83.3551 68.1011 83.2304L68.5235 83.1248C66.8691 81.2944 63.7715 80.5904 60.6387 81.4704V81.752C60.6432 81.9053 60.6314 82.0587 60.6035 82.2096Z" fill="#A1A1A1"/>
<path d="M59.9346 82.3855C59.9698 82.3855 59.9698 82.3855 60.005 82.3503C60.2009 82.2802 60.4007 82.2214 60.6034 82.1743V81.4351L60.2866 81.5407C60.1524 81.5719 60.0224 81.6191 59.8994 81.6815C59.8994 81.8927 59.9346 82.0687 59.9346 82.2799V82.3855Z" fill="#A1A1A1"/>
<path d="M70.6355 84.3566C70.3891 83.6174 69.3331 83.3358 68.2419 83.6878C67.1507 84.0398 66.4819 84.9198 66.7283 85.659C66.9747 86.3982 68.0307 86.6798 69.1219 86.3278C70.2131 85.9758 70.8467 85.0958 70.6355 84.3566Z" fill="#A1A1A1"/>
<path d="M63.5254 92.8045C64.863 95.0221 65.0038 97.5565 63.9126 99.3165C64.2863 99.5417 64.6097 99.8412 64.863 100.196C64.9334 100.337 65.039 100.443 65.1094 100.584C66.3414 98.4717 66.0598 95.2685 64.2294 92.5581L63.9126 92.6637C63.7921 92.7316 63.6613 92.7791 63.5254 92.8045Z" fill="#A1A1A1"/>
<path d="M54.7251 99.4573C56.7315 102.062 59.6883 103.329 62.0819 102.801C61.9694 102.7 61.8742 102.581 61.8003 102.449C61.5356 102.091 61.3442 101.685 61.2371 101.253C59.2307 101.745 56.8371 100.83 55.1475 98.8237L54.9363 99.1405C54.8914 99.2611 54.8191 99.3695 54.7251 99.4573Z" fill="#A1A1A1"/>
<path d="M65.0741 99.4575H61.6597V103.189H65.0741V99.4575Z" fill="#A1A1A1"/>
<path d="M65.0741 99.4575H61.6597V103.189H65.0741V99.4575Z" fill="#A1A1A1"/>
<mask id="mask0_60_1766" style="mask-type:luminance" maskUnits="userSpaceOnUse" x="61" y="99" width="5" height="5">
<path d="M65.0741 99.4575H61.6597V103.189H65.0741V99.4575Z" fill="white"/>
</mask>
<g mask="url(#mask0_60_1766)">
<path d="M62.1522 99.6688C61.5186 100.126 61.5538 101.218 62.2226 102.133C62.8914 103.048 63.9474 103.435 64.5458 102.978C65.1442 102.52 65.1442 101.429 64.4754 100.514C63.8066 99.5984 62.7858 99.2112 62.1522 99.6688Z" fill="#A1A1A1"/>
</g>
<path d="M45.2566 92.5757C43.4614 95.2861 43.1798 98.4189 44.4118 100.531C44.4812 100.394 44.5637 100.264 44.6582 100.144C44.9114 99.7884 45.2349 99.4889 45.6086 99.2637C44.5526 97.5037 44.6582 95.0045 45.9606 92.7869C45.855 92.7517 45.7142 92.7165 45.6086 92.6813C45.4838 92.6791 45.362 92.6426 45.2566 92.5757Z" fill="#A1A1A1"/>
<path d="M54.303 98.8237C52.6134 100.76 50.255 101.675 48.2486 101.182C48.1346 101.612 47.9438 102.017 47.6854 102.379C47.6025 102.505 47.5082 102.622 47.4038 102.731C49.7974 103.259 52.719 101.992 54.7254 99.4573C54.6585 99.3814 54.5996 99.2988 54.5494 99.2109C54.479 99.0701 54.3734 98.9645 54.303 98.8237Z" fill="#A1A1A1"/>
<path d="M47.3686 99.6161C46.735 99.1585 45.7142 99.5457 45.0454 100.461C44.3766 101.376 44.3414 102.502 44.975 102.925C45.6086 103.347 46.6294 102.995 47.2982 102.08C47.967 101.165 48.0022 100.074 47.3686 99.6161Z" fill="#A1A1A1"/>
<path d="M48.9278 81.435C45.795 80.5198 42.6622 81.259 41.043 83.0894L41.4654 83.195C41.8938 83.3198 42.2901 83.536 42.627 83.8286C43.9646 82.2798 46.4286 81.5758 48.963 82.2094V81.7166C48.934 81.6257 48.9221 81.5303 48.9278 81.435Z" fill="#A1A1A1"/>
<path d="M45.6787 91.9598C43.3203 90.9742 41.7362 88.9678 41.5602 86.9262C41.1183 86.9699 40.6723 86.9096 40.2579 86.7502C40.1112 86.7067 39.9696 86.6477 39.8354 86.5742C40.0818 89.003 42.1587 91.4318 45.2211 92.523L45.4323 92.2062C45.5387 92.1526 45.625 92.0662 45.6787 91.9598Z" fill="#A1A1A1"/>
<path d="M49.5858 82.3855V82.2447C49.58 82.0446 49.5917 81.8444 49.621 81.6463C49.4802 81.6111 49.3746 81.5407 49.2338 81.5055L48.917 81.3999V82.1391C49.1221 82.1766 49.3226 82.2356 49.5154 82.3151C49.5506 82.3855 49.5858 82.3855 49.5858 82.3855Z" fill="#A1A1A1"/>
<path d="M42.8276 85.6241C43.074 84.8849 42.37 84.0049 41.314 83.6529C40.258 83.3009 39.1668 83.6177 38.9204 84.3217C38.674 85.0257 39.378 85.9409 40.434 86.2929C41.49 86.6449 42.5812 86.3633 42.8276 85.6241Z" fill="#A1A1A1"/>
<path d="M61.5539 91.6433C61.5046 91.6418 61.4559 91.654 61.4131 91.6785C61.4483 91.7137 61.4835 91.7489 61.4835 91.7841C61.7015 92.0023 61.9016 92.2377 62.0819 92.4881C63.8067 94.8465 63.6659 97.8737 61.7651 99.2465C59.8643 100.619 56.9779 99.8097 55.2531 97.4513C55.0684 97.1944 54.9036 96.9237 54.7603 96.6416C54.7251 96.6064 54.7251 96.5713 54.6899 96.5361C54.6547 96.5713 54.6547 96.6064 54.6195 96.6416C54.4798 96.8958 54.327 97.1425 54.1619 97.3808C52.4371 99.7392 49.5155 100.549 47.6499 99.1761C45.7843 97.8033 45.6435 94.776 47.3331 92.4176C47.5091 92.1712 47.6851 91.96 47.8611 91.7488L47.9667 91.6433C47.9174 91.6447 47.8686 91.6325 47.8259 91.6081L46.9811 91.3968C44.2003 90.4816 42.5459 87.9824 43.2499 85.7648C43.9539 83.5472 46.8051 82.4912 49.5859 83.4064C49.8759 83.5024 50.1583 83.62 50.4307 83.7584C50.4659 83.7936 50.5011 83.7936 50.5363 83.8288C50.5377 83.7796 50.5255 83.7308 50.5011 83.6881C50.4588 83.3611 50.4353 83.0321 50.4307 82.7024C50.4307 79.7808 52.3315 77.4224 54.6195 77.4224C56.9075 77.4224 58.8435 79.7808 58.8435 82.7024C58.8375 83.032 58.814 83.361 58.7731 83.6881V83.8288C58.8083 83.7936 58.8435 83.7936 58.8787 83.7584C59.1631 83.62 59.4572 83.5024 59.7587 83.4064C62.5395 82.4912 65.3555 83.5824 66.0947 85.7648C66.8339 87.9472 65.1443 90.5168 62.3635 91.3968C62.1165 91.5411 61.8393 91.6255 61.5539 91.6433ZM66.2707 85.7648C65.5315 83.512 62.6451 82.4209 59.8291 83.3361C59.5475 83.4417 59.2659 83.5472 59.0195 83.6528C59.0604 83.3494 59.0839 83.0438 59.0899 82.7377C59.0899 79.7809 57.1539 77.3521 54.7603 77.3521C52.3667 77.3521 50.4659 79.7809 50.4659 82.7377C50.4704 83.0439 50.494 83.3495 50.5363 83.6528C50.2819 83.5112 50.0096 83.4047 49.7267 83.3361C46.9107 82.4209 43.9891 83.512 43.2851 85.7648C42.5811 88.0176 44.2355 90.6224 47.0867 91.5376L47.8611 91.7488C47.678 91.9321 47.513 92.1325 47.3683 92.3473C45.6083 94.7409 45.7843 97.8385 47.6851 99.2465C49.5859 100.654 52.5779 99.8097 54.3379 97.416C54.5105 97.1951 54.6636 96.9595 54.7955 96.7121C54.9363 96.9585 55.1123 97.2401 55.2883 97.4865C57.0483 99.8801 60.0051 100.69 61.9411 99.3168C63.8771 97.944 64.0179 94.8112 62.2579 92.4176C62.0894 92.1791 61.901 91.9554 61.6947 91.7488C61.9836 91.7118 62.2671 91.6409 62.5395 91.5376C65.3203 90.6224 67.0099 88.0176 66.2707 85.7648Z" fill="#A1A1A1"/>
<path d="M64.0636 92.3119C63.9932 92.2063 63.8876 92.1007 63.8172 91.9951C63.6412 92.0655 63.43 92.1359 63.2188 92.2063C63.1836 92.2063 63.1836 92.2063 63.1484 92.2415C63.1484 92.2508 63.1521 92.2598 63.1587 92.2664C63.1654 92.273 63.1743 92.2767 63.1836 92.2767C63.313 92.4444 63.4307 92.6208 63.5356 92.8047L63.9228 92.6991L64.2396 92.5935C64.1939 92.4922 64.1347 92.3974 64.0636 92.3119Z" fill="#A1A1A1"/>
<path d="M54.7956 98.3663C54.7604 98.3311 54.7604 98.2959 54.7252 98.2959C54.7252 98.3052 54.7215 98.3142 54.7149 98.3208C54.7083 98.3274 54.6993 98.3311 54.69 98.3311L54.2676 98.8591C54.338 98.9999 54.4436 99.1055 54.514 99.2463C54.5809 99.3222 54.6398 99.4048 54.69 99.4927C54.7518 99.3927 54.8224 99.2984 54.9012 99.2111L55.1124 98.8943C55.0414 98.6997 54.9338 98.5205 54.7956 98.3663Z" fill="#A1A1A1"/>
<path d="M46.3475 92.2239C46.1306 92.1572 45.9189 92.0749 45.7139 91.9775C45.6435 92.0831 45.5731 92.1535 45.5027 92.2591L45.2915 92.5759C45.3971 92.6111 45.5379 92.6463 45.6435 92.6815C45.7491 92.7167 45.8899 92.7519 45.9955 92.7871C46.1011 92.6111 46.2067 92.4351 46.3475 92.2239Z" fill="#A1A1A1"/>
<path d="M53.7746 87.032C53.7921 87.1321 53.8378 87.225 53.9064 87.2999C53.9751 87.3747 54.0637 87.4284 54.1618 87.4544V87.4896L54.4082 88.5808H54.0914L54.4082 90.0944H54.0914L54.4082 91.608H55.0418L55.3586 90.0944H55.0418L55.3586 88.5808H55.0418L55.2882 87.4896C55.3892 87.4694 55.4812 87.4175 55.5508 87.3416C55.6204 87.2657 55.664 87.1696 55.6754 87.0672C56.309 87.2432 57.0834 87.736 57.4706 88.968C57.4706 88.968 58.2802 86.8912 56.7314 85.6944C56.4809 85.4986 56.1936 85.355 55.8866 85.272C56.4281 85.152 56.9933 85.2011 57.5058 85.4128C57.2891 84.987 56.9344 84.6473 56.4997 84.4491C56.0649 84.2509 55.5758 84.2059 55.1122 84.3216C54.9744 84.3587 54.8436 84.4181 54.725 84.4976C54.6065 84.4181 54.4757 84.3587 54.3378 84.3216C53.8743 84.2059 53.3852 84.2509 52.9504 84.4491C52.5157 84.6473 52.161 84.987 51.9442 85.4128C52.4475 85.1654 53.0251 85.1152 53.5634 85.272C53.2564 85.355 52.9692 85.4986 52.7186 85.6944C51.1346 86.8912 51.9794 88.968 51.9794 88.968C52.3666 87.7008 53.141 87.208 53.7746 87.032Z" fill="#A1A1A1"/>
<path fill-rule="evenodd" clip-rule="evenodd" d="M60.5436 91.0448H60.4028C59.4449 91.0685 58.4958 91.2346 57.5868 91.5376C56.9609 91.7449 56.3682 92.0413 55.8268 92.4176C55.6156 92.5936 55.3692 92.7696 55.1932 92.9456C55.158 92.9808 55.158 92.9808 55.1932 93.016C55.5452 93.3328 55.8972 93.6848 56.2844 94.0368C56.3196 94.072 56.3196 94.072 56.3548 94.0368C56.3938 93.9726 56.4179 93.9004 56.4252 93.8256C56.4479 93.7036 56.5096 93.5924 56.6012 93.5088C56.6674 93.4376 56.7505 93.3842 56.8427 93.3534C56.935 93.3227 57.0335 93.3156 57.1292 93.3328C57.226 93.355 57.3128 93.4083 57.3764 93.4846C57.44 93.5609 57.4768 93.656 57.4812 93.7552C57.4782 93.8455 57.4456 93.9324 57.3883 94.0024C57.3311 94.0724 57.2524 94.1216 57.1644 94.1424C57.0985 94.1581 57.0301 94.1599 56.9634 94.1478C56.8968 94.1357 56.8334 94.1099 56.7772 94.072C56.742 94.0368 56.7068 94.0368 56.6716 94.1072C56.6541 94.1459 56.6451 94.1879 56.6451 94.2304C56.6451 94.2729 56.6541 94.3148 56.6716 94.3536C56.776 94.4774 56.9088 94.5741 57.0588 94.6352C57.0925 94.6553 57.1322 94.6628 57.1709 94.6563C57.2095 94.6499 57.2447 94.6299 57.27 94.6C57.3344 94.538 57.4166 94.4979 57.505 94.4853C57.5935 94.4726 57.6837 94.4881 57.7628 94.5296C57.836 94.5645 57.898 94.6194 57.9415 94.6878C57.9851 94.7563 58.0085 94.8356 58.0092 94.9168C58.0034 94.9921 57.9774 95.0645 57.9341 95.1264C57.8908 95.1884 57.8316 95.2375 57.7628 95.2688C57.6373 95.3188 57.5017 95.3385 57.3672 95.3262C57.2326 95.314 57.1028 95.2702 56.9884 95.1984C56.7651 95.0903 56.5529 94.9606 56.3548 94.8112C56.3196 94.776 56.3196 94.776 56.2844 94.8112C56.1274 95.0429 55.8884 95.2064 55.6156 95.2688C55.5307 95.2871 55.4428 95.2872 55.3578 95.269C55.2729 95.2508 55.1928 95.2147 55.1228 95.1632C55.0758 95.1299 55.0369 95.0865 55.0089 95.0362C54.981 94.9859 54.9647 94.9299 54.9613 94.8724C54.9579 94.815 54.9675 94.7575 54.9894 94.7042C55.0113 94.651 55.0448 94.6033 55.0876 94.5648C55.1642 94.4863 55.2654 94.4364 55.3743 94.4236C55.4833 94.4108 55.5933 94.4358 55.686 94.4944C55.7226 94.5151 55.7523 94.5462 55.7711 94.5838C55.7899 94.6215 55.797 94.6638 55.7916 94.7056C55.7916 94.776 55.8268 94.8112 55.8972 94.776C55.9502 94.7496 55.9979 94.7139 56.038 94.6704C56.0732 94.6352 56.038 94.6352 56.038 94.6C55.9407 94.433 55.8224 94.2792 55.686 94.1424L55.0524 93.6144C54.9871 93.5764 54.9278 93.5289 54.8764 93.4736C54.8412 93.4384 54.8412 93.4384 54.806 93.4736C54.5596 93.6848 54.3132 93.8608 54.102 94.072C53.9317 94.2188 53.7782 94.3841 53.6444 94.5648C53.6092 94.6352 53.6092 94.6704 53.6444 94.7056C53.6612 94.727 53.6825 94.7445 53.7068 94.7567C53.7312 94.7689 53.758 94.7754 53.7852 94.776C53.8043 94.7783 53.8237 94.7763 53.842 94.7702C53.8602 94.7641 53.8769 94.7541 53.8908 94.7408C53.8908 94.7056 53.926 94.6704 53.926 94.6352C53.926 94.6 53.9964 94.4944 54.0668 94.4944C54.1372 94.4944 54.1724 94.4592 54.2076 94.4592C54.3102 94.4416 54.4155 94.465 54.501 94.5242C54.5866 94.5834 54.6455 94.6738 54.6652 94.776C54.6925 94.8699 54.6863 94.9703 54.6478 95.0602C54.6093 95.15 54.5408 95.2238 54.454 95.2688C54.3665 95.3122 54.2701 95.3348 54.1724 95.3348C54.0747 95.3348 53.9783 95.3122 53.8908 95.2688C53.686 95.1683 53.5058 95.0241 53.3628 94.8464C53.3276 94.8112 53.3276 94.8112 53.2924 94.8464C53.0943 94.9958 52.8821 95.1255 52.6588 95.2336C52.4505 95.3339 52.221 95.3822 51.99 95.3744C51.9258 95.3689 51.8638 95.3485 51.8088 95.3149C51.7539 95.2812 51.7075 95.2353 51.6734 95.1807C51.6392 95.1261 51.6182 95.0642 51.6121 95.0001C51.606 94.936 51.6148 94.8713 51.638 94.8112C51.6594 94.7453 51.6979 94.6862 51.7494 94.6399C51.801 94.5935 51.8639 94.5616 51.9317 94.5474C51.9995 94.5331 52.0699 94.5369 52.1358 94.5585C52.2016 94.5801 52.2606 94.6187 52.3068 94.6704C52.3772 94.7408 52.4124 94.7408 52.4828 94.7056C52.6571 94.6541 52.807 94.5417 52.9052 94.3888C52.922 94.373 52.9355 94.3539 52.9446 94.3327C52.9538 94.3115 52.9585 94.2887 52.9585 94.2656C52.9585 94.2425 52.9538 94.2196 52.9446 94.1984C52.9355 94.1773 52.922 94.1582 52.9052 94.1424C52.8913 94.1291 52.8746 94.119 52.8564 94.1129C52.8381 94.1068 52.8187 94.1049 52.7996 94.1072C52.7292 94.1424 52.694 94.1424 52.6236 94.1776C52.5756 94.1999 52.5231 94.2111 52.4702 94.2104C52.4172 94.2096 52.3651 94.1969 52.3178 94.1732C52.2704 94.1495 52.229 94.1155 52.1966 94.0736C52.1643 94.0317 52.1418 93.983 52.1308 93.9312C52.0952 93.854 52.0863 93.7671 52.1054 93.6843C52.1245 93.6015 52.1706 93.5274 52.2364 93.4736C52.2982 93.4197 52.374 93.3845 52.455 93.3721C52.536 93.3596 52.6189 93.3704 52.694 93.4032C52.7033 93.4032 52.7123 93.4069 52.7189 93.4135C52.7255 93.4201 52.7292 93.429 52.7292 93.4384C52.8244 93.4699 52.91 93.5253 52.9778 93.5992C53.0455 93.6731 53.0933 93.7632 53.1164 93.8608C53.1516 93.9664 53.1516 94.0368 53.222 94.1072C53.222 94.1424 53.2572 94.1424 53.2572 94.1072C53.6092 93.7552 53.9964 93.4384 54.3484 93.0864C54.3836 93.0512 54.3484 93.0512 54.3484 93.016C54.0844 92.7717 53.8019 92.5481 53.5036 92.3472C52.7207 91.8698 51.8644 91.5249 50.9692 91.3264C50.4586 91.2191 49.941 91.1486 49.4204 91.1152H49.0332C49.1362 91.0861 49.2432 91.0742 49.35 91.08C49.8165 91.0151 50.2888 91.0032 50.758 91.0448C51.197 91.0808 51.6325 91.1514 52.0604 91.256C52.6967 91.3979 53.3039 91.6479 53.8556 91.9952C54.1976 92.1977 54.5267 92.421 54.8412 92.664C54.8764 92.6992 54.9116 92.664 54.9468 92.664C55.4409 92.2385 55.9993 91.894 56.6012 91.6432C57.1355 91.426 57.6895 91.2609 58.2556 91.1504C58.8374 91.0568 59.4282 91.0332 60.0156 91.08C60.2167 91.086 60.417 91.1096 60.614 91.1504C60.5084 91.0096 60.5436 91.0096 60.5436 91.0448Z" fill="#A1A1A1"/>
<path d="M81.2661 80.6253C81.2657 80.5466 81.2808 80.4686 81.3107 80.3958C81.3407 80.323 81.3847 80.2568 81.4404 80.2011C81.496 80.1455 81.5622 80.1014 81.635 80.0715C81.7078 80.0416 81.7858 80.0265 81.8645 80.0269C81.9423 80.024 82.0198 80.0378 82.0918 80.0674C82.1638 80.0969 82.2287 80.1415 82.282 80.1982C82.3354 80.2549 82.376 80.3223 82.4011 80.396C82.4263 80.4697 82.4353 80.5479 82.4277 80.6253C82.4312 80.7048 82.4182 80.7842 82.3893 80.8584C82.3605 80.9326 82.3165 80.9999 82.2602 81.0562C82.204 81.1125 82.1366 81.1565 82.0624 81.1853C81.9882 81.2141 81.9089 81.2272 81.8293 81.2237C81.6759 81.2173 81.5311 81.1511 81.4258 81.0393C81.3206 80.9274 81.2633 80.7789 81.2661 80.6253ZM79.6821 80.6253C79.6793 80.4718 79.7366 80.3232 79.8418 80.2114C79.9471 80.0995 80.0919 80.0333 80.2453 80.0269C80.3249 80.0234 80.4042 80.0365 80.4784 80.0653C80.5526 80.0942 80.62 80.1381 80.6762 80.1944C80.7325 80.2507 80.7765 80.3181 80.8053 80.3923C80.8342 80.4664 80.8472 80.5458 80.8437 80.6253C80.8442 80.704 80.8291 80.7821 80.7991 80.8549C80.7692 80.9277 80.7252 80.9938 80.6695 81.0495C80.6139 81.1052 80.5477 81.1492 80.4749 81.1791C80.4021 81.209 80.3241 81.2242 80.2453 81.2237C80.0919 81.2173 79.9471 81.1511 79.8418 81.0393C79.7366 80.9274 79.6793 80.7789 79.6821 80.6253ZM81.8645 83.1245C81.5969 83.0805 81.3262 83.057 81.0549 83.0541C79.8933 83.0541 78.9781 83.6525 78.9781 84.8845C78.9781 86.1165 79.9989 86.6093 81.0549 86.6093C81.3365 86.6093 81.6181 86.5741 81.8997 86.5741V83.1245H81.8645ZM84.4799 87.2957C84.4799 87.2957 85.2191 88.1405 84.6911 88.1405H83.7759C83.4722 88.1423 83.1731 88.0654 82.9079 87.9174C82.6427 87.7693 82.4202 87.5552 82.2623 87.2957C81.8093 87.3799 81.3502 87.427 80.8895 87.4365C79.3407 87.4365 77.8623 86.6621 77.8623 84.9021C77.8623 82.9309 79.5167 82.2621 81.2767 82.2621C81.8185 82.2495 82.3603 82.2849 82.8959 82.3677V85.5357C82.8959 86.6621 83.2479 87.3309 84.0575 87.3309H84.4799V87.2957Z" fill="#A1A1A1"/>
<path d="M90.3478 80.8717C90.2691 80.8721 90.191 80.857 90.1182 80.8271C90.0454 80.7972 89.9793 80.7531 89.9236 80.6974C89.8679 80.6418 89.8239 80.5756 89.794 80.5028C89.7641 80.43 89.7489 80.352 89.7494 80.2733C89.7459 80.1938 89.759 80.1144 89.7878 80.0402C89.8166 79.966 89.8606 79.8986 89.9169 79.8424C89.9731 79.7861 90.0405 79.7421 90.1147 79.7133C90.1889 79.6845 90.2683 79.6714 90.3478 79.6749C90.4246 79.6752 90.5006 79.6912 90.5711 79.7219C90.6416 79.7525 90.7051 79.7972 90.7578 79.8532C90.8105 79.9092 90.8513 79.9753 90.8776 80.0475C90.9039 80.1197 90.9153 80.1965 90.911 80.2733C90.9217 80.3513 90.9148 80.4308 90.8908 80.5059C90.8669 80.5809 90.8264 80.6497 90.7724 80.7071C90.7184 80.7644 90.6522 80.809 90.5787 80.8375C90.5053 80.866 90.4263 80.8777 90.3478 80.8717ZM91.0166 83.1597C88.7638 83.1597 87.2854 85.0253 86.7222 87.3133H90.735C91.328 87.3161 91.8995 87.0913 92.3317 86.6853C92.7639 86.2792 93.0239 85.7229 93.0582 85.1309C93.023 84.5325 92.7062 83.1597 91.0166 83.1597ZM84.3638 87.2957H85.3142V85.1133L86.335 84.7261L86.1238 87.1197C86.511 84.7965 88.3062 82.2973 91.0518 82.2973C92.6006 82.2973 94.1494 83.2125 94.1494 84.9725C94.1411 85.4027 94.048 85.827 93.8753 86.2211C93.7026 86.6152 93.4537 86.9713 93.143 87.269C92.8323 87.5666 92.4658 87.7999 92.0647 87.9555C91.6635 88.1111 91.2355 88.1859 90.8054 88.1757H84.751L84.3638 87.2957Z" fill="#A1A1A1"/>
<path d="M98.303 87.2957C98.303 87.2957 99.0422 88.1405 98.5142 88.1405H97.6694C96.895 88.1405 95.6982 87.6477 95.6982 85.6061V80.0093L96.7542 79.6221V85.5357C96.7542 86.6621 97.071 87.3309 97.9158 87.3309H98.303V87.2957Z" fill="#A1A1A1"/>
<path d="M99.8515 90.6575C99.7745 90.6576 99.6982 90.642 99.6275 90.6115C99.5568 90.581 99.493 90.5364 99.4402 90.4803C99.3875 90.4242 99.3467 90.3579 99.3206 90.2854C99.2945 90.213 99.2835 90.1359 99.2883 90.0591C99.2878 89.9804 99.303 89.9023 99.3329 89.8295C99.3628 89.7567 99.4068 89.6906 99.4625 89.6349C99.5182 89.5792 99.5843 89.5352 99.6571 89.5053C99.7299 89.4754 99.808 89.4602 99.8867 89.4607C99.9644 89.4578 100.042 89.4716 100.114 89.5011C100.186 89.5307 100.251 89.5753 100.304 89.632C100.358 89.6886 100.398 89.7561 100.423 89.8298C100.448 89.9034 100.457 89.9816 100.45 90.0591C100.453 90.1386 100.44 90.218 100.411 90.2921C100.383 90.3663 100.339 90.4337 100.282 90.49C100.226 90.5463 100.159 90.5902 100.085 90.619C100.01 90.6479 99.931 90.661 99.8515 90.6575ZM98.1267 87.2783C98.9715 87.2783 99.3939 86.6095 99.3939 85.4831V82.5615L100.45 82.2095V85.6239C100.45 87.6303 99.3235 88.1583 98.5491 88.1583L98.1267 87.2783ZM98.2323 90.6575C98.1553 90.6576 98.079 90.642 98.0083 90.6115C97.9376 90.581 97.8738 90.5364 97.8211 90.4803C97.7683 90.4242 97.7275 90.3579 97.7014 90.2854C97.6753 90.213 97.6643 90.1359 97.6691 90.0591C97.6686 89.9804 97.6838 89.9023 97.7137 89.8295C97.7436 89.7567 97.7876 89.6906 97.8433 89.6349C97.899 89.5792 97.9651 89.5352 98.0379 89.5053C98.1107 89.4754 98.1888 89.4602 98.2675 89.4607C98.3453 89.4578 98.4227 89.4716 98.4948 89.5011C98.5668 89.5307 98.6316 89.5753 98.685 89.632C98.7383 89.6886 98.7789 89.7561 98.804 89.8298C98.8292 89.9034 98.8383 89.9816 98.8307 90.0591C98.8342 90.1386 98.8211 90.218 98.7922 90.2921C98.7634 90.3663 98.7195 90.4337 98.6632 90.49C98.6069 90.5463 98.5395 90.5902 98.4653 90.619C98.3912 90.6479 98.3118 90.661 98.2323 90.6575Z" fill="#A1A1A1"/>
<path d="M105.343 87.2959C105.343 87.2959 106.082 88.1407 105.554 88.1407C105.224 88.1481 104.896 88.0789 104.597 87.9384C104.297 87.7979 104.035 87.5901 103.829 87.3311V87.7183C103.829 89.5839 103.09 90.6047 101.365 90.6751L101.225 89.8303C102.21 89.7247 102.844 89.4783 102.773 87.3311V83.7759L103.829 83.3887V85.9583C103.849 86.3035 103.997 86.6288 104.245 86.87C104.492 87.1112 104.821 87.2506 105.167 87.2607H105.343V87.2959Z" fill="#A1A1A1"/>
<path d="M105.132 87.2957C105.977 87.2957 106.399 86.6269 106.399 85.5005V80.0093L107.455 79.6221V85.6061C107.455 87.6125 106.329 88.1405 105.554 88.1405L105.132 87.2957Z" fill="#A1A1A1"/>
<path d="M109.003 80.0269L110.059 79.6396V88.158H109.003V80.0269Z" fill="#A1A1A1"/>
<path d="M117.874 80.256C117.873 80.1773 117.889 80.0993 117.919 80.0264C117.948 79.9536 117.993 79.8875 118.048 79.8318C118.104 79.7762 118.17 79.7321 118.243 79.7022C118.316 79.6723 118.394 79.6571 118.472 79.6576C118.55 79.6547 118.628 79.6685 118.7 79.6981C118.772 79.7276 118.837 79.7722 118.89 79.8289C118.943 79.8856 118.984 79.953 119.009 80.0267C119.034 80.1003 119.043 80.1785 119.036 80.256C119.042 80.3362 119.031 80.4168 119.003 80.4923C118.975 80.5678 118.931 80.6364 118.874 80.6932C118.818 80.7501 118.749 80.794 118.673 80.8218C118.598 80.8497 118.517 80.8608 118.437 80.8544C118.359 80.8573 118.282 80.8435 118.21 80.8139C118.138 80.7844 118.073 80.7398 118.02 80.6831C117.966 80.6264 117.926 80.559 117.901 80.4853C117.875 80.4117 117.866 80.3335 117.874 80.256ZM116.853 80.8896C116.776 80.8898 116.7 80.8741 116.629 80.8436C116.558 80.8131 116.495 80.7685 116.442 80.7124C116.389 80.6563 116.348 80.59 116.322 80.5176C116.296 80.4451 116.285 80.3681 116.29 80.2912C116.289 80.2125 116.305 80.1345 116.335 80.0617C116.364 79.9888 116.409 79.9227 116.464 79.867C116.52 79.8114 116.586 79.7673 116.659 79.7374C116.732 79.7075 116.81 79.6923 116.888 79.6928C116.965 79.6932 117.041 79.7091 117.112 79.7398C117.182 79.7705 117.246 79.8151 117.298 79.8711C117.351 79.9271 117.392 79.9932 117.418 80.0654C117.444 80.1376 117.456 80.2145 117.452 80.2912C117.455 80.3707 117.442 80.4501 117.413 80.5243C117.384 80.5985 117.34 80.6658 117.284 80.7221C117.228 80.7784 117.16 80.8223 117.086 80.8512C117.012 80.88 116.933 80.8931 116.853 80.8896ZM117.592 87.3664C118.613 87.3664 119.352 86.416 119.352 85.1136C119.352 84.128 118.86 82.896 117.628 82.896C116.396 82.896 115.868 84.0576 115.868 85.1488C115.868 86.416 116.572 87.3664 117.592 87.3664ZM117.557 88.176C116.008 88.176 114.776 87.0144 114.776 85.184C114.776 83.248 116.044 82.1216 117.663 82.1216C119.282 82.1216 120.444 83.3184 120.444 85.1136C120.444 87.2256 118.93 88.176 117.557 88.176Z" fill="#A1A1A1"/>
<path d="M121.183 89.8479C122.168 89.7423 122.802 89.4958 122.731 87.3486V83.7935L123.787 83.4062V87.7359C123.787 89.6015 123.048 90.6222 121.323 90.6926L121.183 89.8479Z" fill="#A1A1A1"/>
<path d="M125.372 80.0269L126.428 79.6396V88.158H125.372V80.0269Z" fill="#A1A1A1"/>
<path d="M129.279 82.0688C129.202 82.0689 129.126 82.0533 129.055 82.0228C128.984 81.9923 128.92 81.9476 128.868 81.8916C128.815 81.8355 128.774 81.7692 128.748 81.6967C128.722 81.6243 128.711 81.5472 128.716 81.4704C128.715 81.3916 128.73 81.3136 128.76 81.2408C128.79 81.168 128.834 81.1018 128.89 81.0462C128.946 80.9905 129.012 80.9465 129.085 80.9166C129.157 80.8867 129.235 80.8715 129.314 80.872C129.392 80.8691 129.469 80.8829 129.541 80.9124C129.613 80.942 129.678 80.9866 129.732 81.0432C129.785 81.0999 129.826 81.1674 129.851 81.241C129.876 81.3147 129.885 81.3929 129.877 81.4704C129.873 81.6277 129.808 81.7773 129.697 81.8886C129.586 81.9999 129.436 82.0643 129.279 82.0688ZM127.237 89.848C128.223 89.7424 128.857 89.496 128.786 87.3488V83.7936L129.842 83.4064V87.736C129.842 89.6016 129.103 90.6224 127.378 90.6928L127.237 89.848Z" fill="#A1A1A1"/>
<path d="M133.056 85.2719C133.056 86.8911 133.971 87.4543 135.027 87.4543C135.382 87.4614 135.737 87.4259 136.083 87.3487V84.5679C136.083 83.8991 135.766 82.9839 134.675 82.9839C133.584 82.9839 133.021 84.0047 133.056 85.2719ZM134.534 89.8479C135.555 89.7071 136.013 89.3903 136.048 88.1583C135.666 88.2349 135.276 88.2703 134.886 88.2639C133.126 88.2639 132.035 87.0671 132.035 85.3423C132.035 83.6175 133.056 82.2095 134.746 82.2095C136.646 82.2095 137.104 83.4063 137.104 84.9199V87.5951C137.104 89.4607 136.4 90.5871 134.605 90.6223L134.534 89.8479Z" fill="#A1A1A1"/>
<path d="M83.1666 92.5933C83.2747 92.5995 83.3804 92.6276 83.4772 92.676C83.5741 92.7245 83.66 92.7921 83.7298 92.8749C83.8662 93.0446 83.9407 93.2557 83.941 93.4733V99.3517H83.3778V93.4733C83.3782 93.3858 83.346 93.3012 83.2874 93.2361C83.2289 93.171 83.1481 93.1301 83.061 93.1213C82.8498 93.0861 82.7442 93.1917 82.6738 93.4029L81.5826 98.8237C81.5439 98.9857 81.4582 99.1327 81.3362 99.2461C81.2107 99.3594 81.0476 99.4221 80.8786 99.4221C80.7095 99.4221 80.5465 99.3594 80.421 99.2461C80.2871 99.1427 80.1987 98.9912 80.1746 98.8237L79.0834 93.4029C79.0807 93.3572 79.0679 93.3127 79.0459 93.2725C79.024 93.2323 78.9934 93.1975 78.9564 93.1706C78.9193 93.1437 78.8768 93.1253 78.8318 93.1168C78.7868 93.1082 78.7405 93.1098 78.6962 93.1213C78.6518 93.1221 78.608 93.1321 78.5676 93.1505C78.5272 93.1689 78.491 93.1955 78.4613 93.2285C78.4316 93.2615 78.409 93.3003 78.3949 93.3424C78.3808 93.3845 78.3755 93.4291 78.3794 93.4733V99.3517H77.8514V93.4733C77.8456 93.2546 77.9208 93.0415 78.0626 92.8749C78.2085 92.714 78.4095 92.6135 78.6258 92.5933C78.7378 92.576 78.8523 92.5828 78.9615 92.6131C79.0708 92.6435 79.1723 92.6967 79.2594 92.7693C79.4354 92.9133 79.5591 93.1112 79.6114 93.3325L80.7026 98.7533C80.7378 98.8589 80.773 98.8941 80.8786 98.8941C80.9842 98.8941 81.0194 98.8589 81.0546 98.7533L82.1458 93.3325C82.184 93.1056 82.3105 92.9031 82.4978 92.7693C82.6894 92.6261 82.9293 92.563 83.1666 92.5933Z" fill="#A1A1A1"/>
<path d="M85.3142 99.3516H84.751V94.3356H85.3142V99.3516ZM85.3142 93.4732H84.751V92.6284H85.3142V93.4732Z" fill="#A1A1A1"/>
<path d="M88.13 94.2125C88.3926 94.2135 88.6525 94.267 88.8943 94.3698C89.136 94.4725 89.3549 94.6225 89.538 94.8109C89.7291 94.9918 89.8809 95.2103 89.9839 95.4525C90.0868 95.6948 90.1387 95.9557 90.1364 96.2189V99.3517H89.6084V96.2189C89.6084 95.8361 89.4563 95.469 89.1857 95.1984C88.915 94.9277 88.5479 94.7757 88.1652 94.7757C87.7824 94.7757 87.4153 94.9277 87.1447 95.1984C86.874 95.469 86.722 95.8361 86.722 96.2189V99.3517H86.194V96.2189C86.1851 95.958 86.2306 95.6981 86.3276 95.4557C86.4245 95.2133 86.5708 94.9937 86.7572 94.8109C86.9311 94.6203 87.1433 94.4686 87.3798 94.3655C87.6164 94.2624 87.8719 94.2102 88.13 94.2125Z" fill="#A1A1A1"/>
<path d="M91.4738 99.3516H90.9106V94.3356H91.4738V99.3516ZM91.4738 93.4732H90.9106V92.6284H91.4738V93.4732Z" fill="#A1A1A1"/>
<path d="M93.727 94.2128C93.9169 94.2107 94.1052 94.2471 94.2806 94.3197C94.456 94.3923 94.615 94.4996 94.7478 94.6352C94.8828 94.7612 94.99 94.9139 95.0627 95.0836C95.1354 95.2532 95.1721 95.4362 95.1702 95.6208V95.9728H94.607V95.6208C94.6119 95.5039 94.5925 95.3873 94.5501 95.2782C94.5077 95.1692 94.4432 95.0701 94.3606 94.9872C94.2827 94.9079 94.1895 94.8451 94.0866 94.8028C93.9838 94.7604 93.8734 94.7393 93.7622 94.7408C93.6512 94.7403 93.5411 94.7619 93.4384 94.8042C93.3357 94.8464 93.2424 94.9087 93.1638 94.9872C93.0853 95.0657 93.0231 95.1591 92.9808 95.2618C92.9385 95.3645 92.917 95.4745 92.9174 95.5856C92.9069 95.755 92.9531 95.9231 93.0487 96.0633C93.1443 96.2035 93.2839 96.3079 93.4454 96.36L94.3254 96.712C94.578 96.8147 94.7973 96.9852 94.959 97.2048C95.1088 97.4363 95.1939 97.7037 95.2054 97.9792C95.2014 98.2242 95.1412 98.4651 95.0294 98.6832C94.9048 98.8991 94.7251 99.078 94.5086 99.2017C94.2921 99.3254 94.0467 99.3894 93.7974 99.3872C93.4147 99.3872 93.0476 99.2352 92.7769 98.9645C92.5063 98.6938 92.3542 98.3268 92.3542 97.944V97.592H92.928V97.944C92.9232 98.0609 92.9425 98.1775 92.9849 98.2866C93.0274 98.3956 93.0919 98.4947 93.1744 98.5776C93.2523 98.6569 93.3455 98.7197 93.4484 98.762C93.5512 98.8044 93.6616 98.8255 93.7728 98.824C93.8839 98.8245 93.9939 98.8029 94.0966 98.7606C94.1993 98.7184 94.2927 98.6561 94.3712 98.5776C94.4497 98.4991 94.5119 98.4057 94.5542 98.303C94.5965 98.2003 94.6181 98.0903 94.6176 97.9792C94.6234 97.8107 94.5754 97.6448 94.4804 97.5055C94.3855 97.3662 94.2486 97.2609 94.0896 97.2048L93.2096 96.8528C92.9515 96.7598 92.7297 96.5872 92.576 96.36C92.4214 96.1308 92.3359 95.862 92.3296 95.5856C92.3336 95.3406 92.3938 95.0997 92.5056 94.8816C92.6346 94.6722 92.8163 94.5003 93.0324 94.383C93.2486 94.2656 93.4917 94.207 93.7376 94.2128H93.727Z" fill="#A1A1A1"/>
<path d="M96.402 92.6285V94.2125C96.4003 94.2267 96.4019 94.2412 96.4066 94.2548C96.4113 94.2684 96.4191 94.2807 96.4292 94.2909C96.4394 94.3011 96.4517 94.3088 96.4653 94.3135C96.4789 94.3182 96.4934 94.3198 96.5076 94.3181H97.3172V94.8813H96.5076C96.4934 94.8796 96.4789 94.8811 96.4653 94.8858C96.4517 94.8905 96.4394 94.8983 96.4292 94.9084C96.4191 94.9186 96.4113 94.9309 96.4066 94.9445C96.4019 94.9581 96.4003 94.9726 96.402 94.9869V98.0141C96.3996 98.1118 96.4171 98.209 96.4534 98.2998C96.4897 98.3906 96.544 98.473 96.6132 98.5421C96.6823 98.6113 96.7648 98.6656 96.8555 98.7019C96.9463 98.7382 97.0435 98.7557 97.1412 98.7533H97.282V99.3165H97.1518C96.7966 99.3166 96.4554 99.1776 96.2014 98.9293C96.0757 98.8055 95.9765 98.6573 95.91 98.4939C95.8434 98.3305 95.8108 98.1553 95.8142 97.9789V92.5933H96.4126L96.402 92.6285Z" fill="#A1A1A1"/>
<path d="M100.133 94.7757H99.781C99.4702 94.7774 99.172 94.8992 98.9489 95.1157C98.7258 95.3322 98.5951 95.6267 98.5842 95.9373V99.3165H98.021V95.9373C98.0197 95.7151 98.0626 95.4949 98.1472 95.2894C98.2318 95.084 98.3564 94.8974 98.5138 94.7405C98.6708 94.5713 98.8616 94.4368 99.0738 94.3459C99.286 94.2549 99.515 94.2095 99.7458 94.2125H100.098V94.7757H100.133Z" fill="#A1A1A1"/>
<path d="M103.301 101.042H102.738L103.09 99.4576V99.3872C103.071 99.3681 103.046 99.3558 103.02 99.352H102.844C102.598 99.3559 102.36 99.268 102.175 99.1056C101.988 98.9506 101.852 98.7417 101.788 98.5072L100.873 94.248H101.436L102.316 98.3665C102.33 98.4831 102.39 98.5894 102.482 98.662C102.574 98.7346 102.692 98.7675 102.809 98.7536C102.923 98.757 103.035 98.7201 103.125 98.6493C103.215 98.5786 103.278 98.4785 103.301 98.3665L104.217 94.248H104.78L103.301 101.042Z" fill="#A1A1A1"/>
<path d="M109.778 94.7759C109.236 94.7759 108.717 94.991 108.334 95.3739C107.951 95.7567 107.736 96.276 107.736 96.8175C107.738 97.3586 107.953 97.8773 108.335 98.2607C108.572 98.4982 108.864 98.6735 109.186 98.7711C109.507 98.8686 109.847 98.8854 110.177 98.8199C110.506 98.7544 110.814 98.6087 111.074 98.3957C111.333 98.1827 111.536 97.9089 111.665 97.5987C111.793 97.2884 111.843 96.9513 111.81 96.6171C111.777 96.2829 111.663 95.962 111.476 95.6828C111.289 95.4037 111.037 95.1748 110.74 95.0166C110.444 94.8584 110.114 94.7757 109.778 94.7759ZM109.778 94.2127C110.12 94.205 110.461 94.27 110.776 94.4035C111.092 94.537 111.375 94.7359 111.608 94.9871C111.853 95.225 112.048 95.5095 112.181 95.8239C112.314 96.1383 112.382 96.4761 112.383 96.8175C112.39 97.16 112.325 97.5003 112.192 97.8158C112.058 98.1313 111.859 98.4149 111.608 98.6479C111.37 98.8927 111.086 99.0873 110.771 99.2203C110.457 99.3533 110.119 99.422 109.778 99.4223C109.435 99.43 109.095 99.365 108.779 99.2315C108.464 99.098 108.18 98.8991 107.947 98.6479C107.703 98.41 107.508 98.1254 107.375 97.8111C107.242 97.4967 107.173 97.1588 107.173 96.8175C107.165 96.475 107.23 96.1347 107.364 95.8192C107.497 95.5037 107.696 95.2201 107.947 94.9871C108.178 94.7331 108.461 94.5324 108.777 94.3987C109.093 94.2649 109.435 94.2015 109.778 94.2127Z" fill="#A1A1A1"/>
<path d="M114.565 93.1921H114.425C114.218 93.1926 114.018 93.2676 113.861 93.4033C113.791 93.4718 113.736 93.5541 113.7 93.645C113.664 93.7359 113.647 93.8334 113.65 93.9313V94.1777C113.648 94.1919 113.65 94.2064 113.655 94.22C113.659 94.2336 113.667 94.2459 113.677 94.2561C113.687 94.2663 113.7 94.274 113.713 94.2787C113.727 94.2834 113.741 94.285 113.756 94.2833H114.565V94.8113H113.756C113.741 94.8096 113.727 94.8111 113.713 94.8158C113.7 94.8205 113.687 94.8283 113.677 94.8384C113.667 94.8486 113.659 94.8609 113.655 94.8745C113.65 94.8881 113.648 94.9026 113.65 94.9169V99.2817H113.087V93.9841C113.087 93.8134 113.121 93.6445 113.188 93.4873C113.254 93.3301 113.352 93.1878 113.474 93.0689C113.593 92.9367 113.74 92.8332 113.905 92.7661C114.069 92.699 114.247 92.6702 114.425 92.6817H114.565V93.2097V93.1921Z" fill="#A1A1A1"/>
<path d="M118.648 92.5935C119.106 92.5972 119.546 92.7731 119.88 93.0863C120.041 93.2402 120.169 93.4263 120.254 93.6324C120.338 93.8386 120.379 94.0602 120.373 94.2831V94.7055H119.81V94.2831C119.815 94.1304 119.787 93.9784 119.726 93.8383C119.665 93.6981 119.573 93.5735 119.458 93.4735C119.356 93.3599 119.231 93.2696 119.092 93.2088C118.952 93.1481 118.801 93.1183 118.648 93.1215C118.491 93.1188 118.334 93.1487 118.189 93.2093C118.044 93.2699 117.912 93.3598 117.803 93.4735C117.589 93.6896 117.463 93.9786 117.451 94.2831C117.451 94.5445 117.524 94.8007 117.663 95.0223C117.797 95.2389 117.993 95.4105 118.226 95.5151L119.211 95.9727C119.541 96.127 119.821 96.3702 120.02 96.6749C120.219 96.9796 120.329 97.3337 120.338 97.6975C120.339 97.9197 120.296 98.1399 120.212 98.3454C120.127 98.5508 120.002 98.7374 119.845 98.8943C119.686 99.0588 119.494 99.1877 119.282 99.2727C119.069 99.3576 118.842 99.3966 118.613 99.3871C118.154 99.3898 117.712 99.213 117.381 98.8943C117.224 98.7374 117.099 98.5508 117.014 98.3454C116.93 98.1399 116.887 97.9197 116.888 97.6975V97.2751H117.451V97.6975C117.449 97.8549 117.479 98.0112 117.539 98.1566C117.6 98.302 117.69 98.4333 117.803 98.5423C117.913 98.6549 118.045 98.7442 118.19 98.8047C118.335 98.8652 118.491 98.8957 118.648 98.8943C118.801 98.8999 118.953 98.8712 119.093 98.8103C119.233 98.7494 119.358 98.6578 119.458 98.5423C119.576 98.4369 119.669 98.3062 119.73 98.16C119.791 98.0137 119.818 97.8557 119.81 97.6975C119.81 97.4361 119.737 97.1799 119.599 96.9583C119.464 96.7416 119.268 96.57 119.035 96.4655L118.015 96.0079C117.684 95.8542 117.403 95.6101 117.205 95.3039C116.996 95.0047 116.885 94.648 116.888 94.2831C116.887 94.0609 116.93 93.8406 117.014 93.6352C117.099 93.4297 117.224 93.2431 117.381 93.0863C117.723 92.7632 118.178 92.5864 118.648 92.5935Z" fill="#A1A1A1"/>
<path d="M123.682 94.7757C123.141 94.7757 122.621 94.9908 122.238 95.3737C121.856 95.7566 121.64 96.2759 121.64 96.8173C121.642 97.3585 121.857 97.8772 122.239 98.2605C122.427 98.4577 122.652 98.6153 122.902 98.7241C123.151 98.8329 123.42 98.8907 123.692 98.894C123.965 98.8973 124.235 98.8461 124.487 98.7435C124.739 98.6408 124.968 98.4887 125.161 98.2962C125.353 98.1036 125.505 97.8745 125.608 97.6223C125.711 97.3701 125.762 97.0999 125.759 96.8276C125.755 96.5554 125.698 96.2865 125.589 96.0369C125.48 95.7873 125.322 95.5619 125.125 95.3741C124.939 95.1796 124.715 95.0259 124.467 94.9229C124.218 94.8199 123.951 94.7697 123.682 94.7757ZM123.682 94.2125C124.025 94.2048 124.365 94.2698 124.68 94.4033C124.996 94.5368 125.279 94.7357 125.512 94.9869C125.986 95.4784 126.251 96.1345 126.251 96.8173C126.251 97.5001 125.986 98.1563 125.512 98.6477C125.262 98.9043 124.961 99.1056 124.628 99.2387C124.296 99.3718 123.939 99.4337 123.58 99.4204C123.222 99.4071 122.871 99.319 122.549 99.1617C122.227 99.0043 121.941 98.7813 121.711 98.5069C121.711 98.4717 121.676 98.4717 121.64 98.5069L121.605 98.5421V101.041H121.088V96.7997C121.082 96.4659 121.144 96.1343 121.271 95.8255C121.399 95.5168 121.588 95.2374 121.827 95.0045C122.071 94.7581 122.362 94.5626 122.682 94.4297C123.002 94.2967 123.346 94.2289 123.693 94.2301L123.682 94.2125Z" fill="#A1A1A1"/>
<path d="M129.596 94.7757C129.054 94.7757 128.535 94.9908 128.152 95.3737C127.769 95.7566 127.554 96.2759 127.554 96.8173C127.555 97.3585 127.771 97.8772 128.153 98.2605C128.39 98.4981 128.682 98.6734 129.004 98.7709C129.325 98.8684 129.665 98.8852 129.995 98.8197C130.324 98.7543 130.632 98.6086 130.892 98.3955C131.151 98.1825 131.354 97.9088 131.483 97.5985C131.611 97.2882 131.661 96.9511 131.628 96.6169C131.595 96.2827 131.48 95.9618 131.294 95.6827C131.107 95.4035 130.855 95.1747 130.558 95.0165C130.262 94.8583 129.932 94.7756 129.596 94.7757ZM129.596 94.2125C129.938 94.2048 130.278 94.2698 130.594 94.4033C130.91 94.5368 131.193 94.7357 131.426 94.9869C131.671 95.2248 131.866 95.5094 131.999 95.8238C132.132 96.1381 132.2 96.476 132.201 96.8173C132.208 97.1598 132.143 97.5001 132.01 97.8156C131.876 98.1312 131.677 98.4148 131.426 98.6477C131.188 98.8925 130.904 99.0872 130.589 99.2202C130.275 99.3532 129.937 99.4218 129.596 99.4221C129.253 99.4299 128.913 99.3648 128.597 99.2314C128.282 99.0979 127.998 98.8989 127.765 98.6477C127.291 98.1563 127.026 97.5001 127.026 96.8173C127.026 96.1345 127.291 95.4784 127.765 94.9869C127.998 94.7357 128.282 94.5368 128.597 94.4033C128.913 94.2698 129.253 94.2048 129.596 94.2125Z" fill="#A1A1A1"/>
<path d="M134.981 94.7757H134.629C134.318 94.7774 134.02 94.8992 133.797 95.1157C133.574 95.3322 133.443 95.6267 133.432 95.9373V99.3165H132.869V95.9373C132.868 95.7151 132.911 95.4949 132.995 95.2894C133.08 95.084 133.205 94.8974 133.362 94.7405C133.519 94.5713 133.71 94.4368 133.922 94.3459C134.134 94.2549 134.363 94.2095 134.594 94.2125H134.946V94.7757H134.981Z" fill="#A1A1A1"/>
<path d="M136.224 92.875V94.459C136.222 94.4733 136.223 94.4878 136.228 94.5014C136.233 94.515 136.241 94.5273 136.251 94.5375C136.261 94.5476 136.273 94.5554 136.287 94.5601C136.3 94.5648 136.315 94.5663 136.329 94.5646H137.139V95.1278H136.329C136.315 95.1261 136.3 95.1277 136.287 95.1324C136.273 95.1371 136.261 95.1448 136.251 95.155C136.241 95.1652 136.233 95.1775 136.228 95.1911C136.223 95.2047 136.222 95.2192 136.224 95.2334V98.2606C136.221 98.3584 136.239 98.4556 136.275 98.5464C136.311 98.6371 136.366 98.7196 136.435 98.7887C136.504 98.8578 136.586 98.9122 136.677 98.9485C136.768 98.9848 136.865 99.0023 136.963 98.9998H137.104V99.563H136.998C136.643 99.5632 136.302 99.4242 136.048 99.1758C135.922 99.052 135.823 98.9039 135.756 98.7405C135.69 98.5771 135.657 98.4018 135.66 98.2254V92.8398" fill="#A1A1A1"/>
</svg>
