<svg width="176" height="176" viewBox="0 0 176 176" fill="none" xmlns="http://www.w3.org/2000/svg">
<path d="M124.048 82.0862C123.128 80.9665 122.076 79.9619 120.916 79.0942C119.525 78.028 118.067 77.0521 116.551 76.1726C115.495 75.5742 113.981 74.5886 113.207 76.0318C112.432 77.475 112.045 79.763 112.608 81.4174C112.96 82.3678 113.664 83.2478 114.228 84.0926C114.896 85.1486 115.53 86.1694 116.199 87.2254C116.868 88.2814 117.536 89.3022 118.135 90.3582C118.24 90.5342 118.311 90.7102 118.416 90.9214C118.112 91.2458 117.739 91.4983 117.325 91.6606C116.873 91.8305 116.388 91.8966 115.907 91.854C115.425 91.8113 114.96 91.661 114.544 91.4142C113.77 90.9214 112.996 89.7246 113.066 88.7742C113.066 88.6686 113.136 88.211 112.89 88.3166C111.482 89.0206 110.426 90.1822 109.3 91.203C108.153 92.268 106.781 93.0619 105.287 93.5262C102.823 94.195 99.6196 93.6318 98.9508 90.9566C100.746 90.0062 102.576 88.9502 104.512 88.4926C104.935 88.387 105.392 87.3662 105.568 87.0494C105.639 86.9438 106.202 85.7118 106.026 85.7118C103.975 85.6301 101.942 85.2991 99.9716 84.7262C98.0356 84.1982 96.2052 83.3534 94.234 82.8606C92.7204 82.4734 90.9956 82.3678 89.5172 82.9662C87.9332 83.635 86.7716 85.395 86.4196 87.0494C86.1028 88.5278 86.666 89.9006 88.2148 90.323C88.8132 90.499 89.9748 87.5422 89.7988 87.507C89.0244 87.2958 88.3556 86.8734 88.1092 86.0638C88.0691 85.9626 88.0454 85.8557 88.0388 85.747C88.4635 85.5602 88.9148 85.4414 89.3764 85.395C90.2101 85.3063 91.0524 85.3419 91.8756 85.5006C93.9172 85.8526 95.818 86.803 97.8244 87.4014C98.7396 87.6478 99.6548 87.8942 100.605 88.0702C100.5 88.1406 100.394 88.1758 100.288 88.2462C98.282 89.267 96.3108 90.323 94.1636 91.027C89.9178 92.4062 85.4026 92.7442 80.9988 92.0126C77.9716 91.5198 73.7476 90.2174 72.762 86.8734C72.6564 86.5566 72.6564 85.043 72.41 85.0078C72.058 84.9374 71.4244 86.2046 71.2836 86.4158C70.9668 86.979 70.6852 87.5774 70.4036 88.1758C69.9778 89.0828 69.241 89.8072 68.3268 90.2174C67.2356 90.675 66.2148 90.1822 65.4756 89.3374C63.6452 87.2254 63.082 84.0926 62.5892 81.4174C62.3076 79.763 62.0612 78.0734 61.7796 76.419C61.6388 75.539 61.4628 74.6238 61.2868 73.7438C61.2591 73.3927 61.176 73.0481 61.0404 72.723C61.0052 72.6174 60.6532 73.0398 60.618 73.0398C60.1252 73.6382 59.4212 74.659 59.4212 75.4686V75.539C59.4509 75.8581 59.4979 76.1754 59.562 76.4894L60.1956 80.5022C60.7236 83.811 61.4628 87.155 61.7092 90.499C61.7682 91.1319 61.7564 91.7695 61.674 92.3998V92.435C61.1293 93.0997 60.4101 93.5994 59.5972 93.8782C57.3796 94.5822 54.4932 94.195 52.9444 92.3646C51.7124 90.9214 51.6772 88.8798 52.0292 87.1198C52.2344 86.0407 52.5652 84.9892 53.0148 83.987C53.1204 83.7406 53.226 83.5646 53.3668 83.2478C53.3668 83.2126 53.402 83.1774 53.4372 83.1422C53.4724 83.107 53.4724 83.107 53.4724 83.0718C53.4533 83.0908 53.4409 83.1155 53.4372 83.1422C53.3961 83.2275 53.3491 83.3099 53.2964 83.3886C53.5167 83.0367 53.7165 82.6723 53.8948 82.2974C53.93 82.227 54.1764 81.699 54.106 81.5582C53.9652 81.2414 53.2964 82.2974 53.2612 82.3678C52.4167 83.7751 51.7095 85.2603 51.1492 86.803C50.4452 88.8094 49.882 91.1678 50.3748 93.2798C51.0788 96.2014 53.3668 97.6094 57.0276 97.2926C58.1892 97.187 61.0404 96.2718 62.5188 92.787C62.5892 92.5758 63.0116 91.203 63.082 90.9918C63.434 92.0126 64.138 93.1038 65.4404 93.3502C67.0244 93.6318 68.538 93.1038 70.0516 90.2526C70.2628 89.8654 70.8612 88.387 70.8964 88.3518C70.8907 88.447 70.9026 88.5425 70.9316 88.6334C71.2836 92.1182 73.8884 94.3006 76.8452 95.075C82.3716 96.5182 86.7364 95.3214 90.9252 94.2654C93.3892 93.667 95.642 92.611 97.8948 91.4494C98.0004 91.4142 98.0708 91.3438 98.1764 91.3086C98.0715 91.8551 98.0009 92.4077 97.9652 92.963C97.8244 94.2654 98.2468 95.8846 99.4788 96.5886C100.781 97.363 102.506 97.3278 103.914 96.9758C105.392 96.6238 107.223 95.5326 108.384 94.547C109.652 93.491 110.708 92.2238 112.151 91.4494C112.256 92.8574 112.996 94.2654 114.368 94.8286C116.023 95.4974 117.853 94.5118 118.592 92.9982C119.149 91.8458 119.438 90.5822 119.437 89.3022C119.437 88.3166 118.98 87.507 118.522 86.6622C117.396 84.7262 116.164 82.8606 114.967 80.995C114.474 80.1854 113.805 79.3758 113.453 78.4958C113.556 78.4647 113.663 78.4528 113.77 78.4606C114.102 78.5127 114.423 78.6198 114.72 78.7774C115.396 79.1065 116.054 79.4707 116.692 79.8686C119.261 81.4174 122.007 83.2478 123.696 85.747C124.274 86.6112 124.636 87.6008 124.752 88.6334C124.823 89.1349 124.858 89.6406 124.858 90.147C124.858 90.3582 124.823 90.6046 124.823 90.8158C124.119 92.6814 122.288 94.019 120.669 95.0046C120.247 95.251 120.141 96.4478 120.071 96.9054C120.036 97.0462 119.86 98.243 120.176 98.067C121.866 97.0462 123.344 95.8142 124.33 94.0542C125.421 92.1182 125.808 89.6894 125.808 87.4718C125.703 85.5006 125.28 83.6702 124.048 82.0862Z" fill="#A1A1A1"/>
<path d="M53.4722 83.0721C53.5426 82.9313 53.613 82.8257 53.4722 83.0721V83.0721Z" fill="#A1A1A1"/>
<path d="M66.3201 94.4768C66.1089 94.3008 65.3697 95.6032 65.2993 95.744C65.2289 95.8848 64.4897 97.0816 64.7361 97.2928L67.1297 99.0528C67.3409 99.2288 68.0801 97.9264 68.1505 97.7856C68.2209 97.6448 68.9601 96.448 68.7137 96.2368C67.9393 95.6384 67.1297 95.0752 66.3201 94.4768Z" fill="#A1A1A1"/>
<path d="M70.6497 94.1599C70.4385 93.9839 69.6993 95.2863 69.6289 95.4271C69.5585 95.5679 68.8193 96.7647 69.0657 96.9759L71.4593 98.7359C71.6705 98.9119 72.4097 97.6095 72.4801 97.4687C72.5505 97.3279 73.2897 96.1311 73.0433 95.9199C72.2689 95.3567 71.4593 94.7583 70.6497 94.1599Z" fill="#A1A1A1"/>
<path d="M91.7699 80.1153C91.9811 80.2913 92.7202 78.9889 92.7906 78.8481C92.861 78.7073 93.6003 77.5105 93.3539 77.2993L90.9603 75.5393C90.7491 75.3633 90.0099 76.6657 89.9395 76.8065C89.8691 76.9473 89.1299 78.1441 89.3763 78.3553C90.1507 78.9185 90.9603 79.5169 91.7699 80.1153Z" fill="#A1A1A1"/>
<path d="M107.821 83.565C108.032 83.741 108.772 82.4386 108.842 82.2978C108.912 82.157 109.652 80.9602 109.405 80.749L107.012 78.989C106.8 78.813 106.061 80.1154 105.991 80.2562C105.92 80.397 105.181 81.5938 105.428 81.805C106.202 82.3682 107.012 82.9666 107.821 83.565Z" fill="#A1A1A1"/>
<path d="M69.8753 101.869H71.2129L72.6561 107.817H71.5297L71.2833 106.55H69.8401L69.5937 107.817H68.4673L69.8753 101.869ZM70.0161 105.565H71.0721L70.5441 102.889L70.0161 105.565Z" fill="#A1A1A1"/>
<path d="M73.5679 107.817V101.869H74.6591V106.832H76.5951V107.817H73.5679Z" fill="#A1A1A1"/>
<path d="M78.8478 101.869L80.1502 105.952V101.869H81.1358V107.817H79.9038L78.5662 103.664V107.817H77.5806V101.869H78.8478Z" fill="#A1A1A1"/>
<path d="M83.5331 101.869H84.8707L86.3139 107.817H85.184L84.9376 106.55H83.4944L83.248 107.817H82.1216L83.5331 101.869ZM83.6739 105.565H84.7299L84.2019 102.889L83.6739 105.565Z" fill="#A1A1A1"/>
<path d="M88.2852 101.869V104.262L89.658 101.869H90.8548L89.3764 104.403L90.9956 107.782H89.7601L88.6337 105.353L88.2465 106.022V107.782H87.1553V101.833H88.2817L88.2852 101.869Z" fill="#A1A1A1"/>
<path d="M91.8052 101.869H92.8964V104.157H94.1636V101.869H95.2548V107.817H94.1636V105.177H92.8964V107.817H91.8052V101.869Z" fill="#A1A1A1"/>
<path d="M99.5493 101.869V102.854H97.6133V104.262H99.4437V105.248H97.6133V106.832H99.6162V107.817H96.5186V101.869H99.5493Z" fill="#A1A1A1"/>
<path d="M103.703 101.869V102.854H101.767V104.262H103.597V105.248H101.767V106.832H103.773V107.817H100.672V101.869H103.703Z" fill="#A1A1A1"/>
<path d="M104.864 107.817V101.869H105.952V106.832H107.888V107.817H104.864Z" fill="#A1A1A1"/>
<path d="M81.21 68.2529H82.4772V68.7105H81.738V69.2033H82.442V69.6609H81.738V70.2241H82.5124V70.6817H81.21V68.2529Z" fill="#A1A1A1"/>
<path d="M83.3571 69.907V69.9774C83.3571 70.1534 83.3923 70.2942 83.5683 70.2942C83.6037 70.294 83.6386 70.2863 83.6708 70.2716C83.7029 70.2569 83.7316 70.2355 83.7549 70.2089C83.7782 70.1822 83.7956 70.151 83.8059 70.1172C83.8162 70.0833 83.8192 70.0477 83.8147 70.0126C83.8147 69.4846 82.8643 69.8014 82.8643 68.8862C82.8523 68.7909 82.8622 68.6941 82.8934 68.6032C82.9245 68.5123 82.976 68.4297 83.0439 68.3618C83.1119 68.2939 83.1944 68.2424 83.2853 68.2112C83.3762 68.1801 83.473 68.1702 83.5683 68.1822C84.0963 68.1822 84.2723 68.4638 84.2723 68.851V68.9214H83.776C83.776 68.8158 83.776 68.7102 83.7408 68.675C83.7056 68.6398 83.6704 68.6046 83.6 68.6046C83.4592 68.6046 83.3888 68.675 83.3888 68.851C83.3888 69.3438 84.3392 69.0974 84.3392 69.9422C84.3392 70.5054 84.0576 70.7166 83.6 70.7166C83.2128 70.7166 82.896 70.5758 82.896 70.083V69.9422H83.3536L83.3571 69.907Z" fill="#A1A1A1"/>
<path d="M85.1173 68.7105H84.6597V68.2529H86.1029V68.7105H85.6453V70.6465H85.1173V68.7105Z" fill="#A1A1A1"/>
<path d="M86.1733 70.0479H86.6661V70.6463H86.1733V70.0479Z" fill="#A1A1A1"/>
<path d="M88.5313 68.9921H88.1089V68.6401H88.1793C88.5665 68.6401 88.6721 68.4289 88.6721 68.2529H89.0241V70.6113H88.4961V68.9921H88.5313Z" fill="#A1A1A1"/>
<path d="M90.3268 70.0833C90.3176 70.1443 90.3301 70.2066 90.362 70.2593C90.3788 70.2808 90.4001 70.2983 90.4245 70.3104C90.4488 70.3226 90.4756 70.3292 90.5028 70.3297C90.6788 70.3297 90.714 70.1889 90.714 69.6609C90.6768 69.7298 90.6204 69.7864 90.5517 69.8239C90.483 69.8614 90.4049 69.8781 90.3268 69.8721C90.01 69.8721 89.7988 69.6609 89.7988 69.1329C89.7988 68.6753 89.9396 68.2529 90.5028 68.2529C91.1364 68.2529 91.2068 68.7105 91.2068 69.4145C91.2068 70.1889 91.1716 70.6817 90.4676 70.6817C90.0804 70.6817 89.834 70.5057 89.834 70.0833H90.3268ZM90.714 69.0977C90.714 68.8161 90.6788 68.6401 90.538 68.6401C90.3972 68.6401 90.362 68.7809 90.362 69.0625C90.362 69.3441 90.3972 69.4849 90.538 69.4849C90.6788 69.4849 90.714 69.3089 90.714 69.0977Z" fill="#A1A1A1"/>
<path d="M92.9665 68.8865C92.9665 69.1681 92.8609 69.3441 92.6497 69.3793C92.8961 69.4145 93.0017 69.6257 93.0017 69.9425C93.0017 70.3297 92.8609 70.6817 92.2977 70.6817C91.7345 70.6817 91.5938 70.3649 91.5938 69.9425C91.5938 69.6609 91.6994 69.4145 91.9457 69.3793C91.8506 69.3403 91.7712 69.2706 91.7202 69.1813C91.6691 69.0921 91.6494 68.9883 91.6642 68.8865C91.6642 68.5345 91.8402 68.2881 92.333 68.2881C92.8258 68.2881 92.9665 68.4993 92.9665 68.8865ZM92.1217 69.9777C92.1217 70.1889 92.157 70.3649 92.333 70.3649C92.509 70.3649 92.5442 70.1889 92.5442 69.9777C92.5442 69.7665 92.509 69.5905 92.333 69.5905C92.157 69.5905 92.1217 69.7665 92.1217 69.9777ZM92.509 68.9217C92.509 68.7457 92.4738 68.6401 92.333 68.6401C92.1922 68.6401 92.157 68.7809 92.157 68.9217C92.157 69.1681 92.2274 69.2385 92.333 69.2385C92.4386 69.2385 92.509 69.1681 92.509 68.9217Z" fill="#A1A1A1"/>
<path d="M94.2692 68.8865C94.2783 68.8255 94.2659 68.7632 94.234 68.7105C94.2172 68.689 94.1959 68.6716 94.1715 68.6594C94.1472 68.6472 94.1204 68.6406 94.0932 68.6401C93.9172 68.6401 93.882 68.7809 93.882 69.3089C93.9192 69.24 93.9755 69.1834 94.0443 69.1459C94.113 69.1084 94.1911 69.0917 94.2692 69.0977C94.586 69.0977 94.7972 69.3089 94.7972 69.8369C94.7972 70.2945 94.6564 70.7169 94.0932 70.7169C93.4596 70.7169 93.3892 70.2593 93.3892 69.5553C93.3892 68.7809 93.4244 68.2881 94.1284 68.2881C94.5156 68.2881 94.762 68.4641 94.762 68.8865H94.2692ZM94.3044 69.9425C94.3044 69.6609 94.2692 69.5201 94.1284 69.5201C93.9876 69.5201 93.9524 69.6961 93.9524 69.9073C93.9524 70.1889 93.9876 70.3649 94.1284 70.3649C94.2692 70.3649 94.3044 70.1889 94.3044 69.9425Z" fill="#A1A1A1"/>
</svg>
