<svg width="176" height="176" viewBox="0 0 176 176" fill="none" xmlns="http://www.w3.org/2000/svg">
<path d="M91.6255 105.213H126.227V70.6465H91.6255V105.213ZM109.401 72.8641C109.824 74.4481 110.211 76.0673 110.563 77.7217C104.655 79.3716 99.0472 81.9499 93.9487 85.3601V72.8641H109.401ZM111.443 87.8945C111.438 90.6507 111.238 93.4032 110.845 96.1313C104.811 94.3957 99.1112 91.6589 93.9839 88.0353C99.1127 84.4224 104.812 81.6974 110.845 79.9745C111.226 82.6089 111.414 85.2678 111.408 87.9297M123.974 102.96H93.9135V90.7457C98.9903 94.1267 104.559 96.7032 110.422 98.3841C110.141 99.9329 109.753 101.482 109.366 102.995H111.725C112.077 101.658 112.393 100.32 112.64 98.9825C116.358 99.8674 120.155 100.386 123.974 100.531V102.96ZM123.974 98.2433C120.282 98.098 116.614 97.5791 113.027 96.6945C113.461 93.7928 113.685 90.8636 113.696 87.9297C113.696 85.0784 113.485 82.2311 113.062 79.4113C116.641 78.5439 120.295 78.0252 123.974 77.8625V98.2433ZM123.974 75.6449C120.166 75.7924 116.382 76.3111 112.675 77.1937C112.429 75.7505 112.077 74.3073 111.725 72.8993H123.974V75.6449Z" fill="#A1A1A1"/>
<path d="M49.9135 98.2078L48.0479 97.7854C47.1327 97.5742 46.7103 97.0814 46.7103 96.3774C46.7634 95.9161 46.9966 95.4944 47.3593 95.2043C47.7219 94.9142 48.1845 94.7792 48.6463 94.8286C49.2222 94.778 49.7955 94.9508 50.2476 95.3112C50.6997 95.6715 50.996 96.1919 51.0751 96.7646L53.0815 96.0254C52.8446 95.042 52.255 94.1797 51.4244 93.6022C50.5939 93.0247 49.5802 92.7722 48.5759 92.8926C47.5382 92.845 46.523 93.2049 45.747 93.8954C44.971 94.586 44.4956 95.5525 44.4223 96.5886C44.4199 97.3985 44.7169 98.1807 45.2562 98.7849C45.7954 99.3892 46.5389 99.7728 47.3439 99.8622L49.3503 100.285C50.3359 100.496 50.8639 101.059 50.8639 101.798C50.8377 102.03 50.7658 102.254 50.6522 102.458C50.5387 102.662 50.3857 102.841 50.2023 102.985C50.0189 103.129 49.8087 103.235 49.5838 103.298C49.359 103.36 49.1241 103.377 48.8927 103.347C48.5688 103.381 48.2414 103.351 47.9294 103.257C47.6174 103.164 47.327 103.01 47.0749 102.804C46.8229 102.597 46.6142 102.343 46.461 102.056C46.3078 101.769 46.213 101.454 46.1823 101.129L44.1055 101.869C44.3167 103.206 45.6543 105.283 48.8927 105.283C51.7791 105.283 53.1871 103.312 53.1871 101.657C53.1509 100.786 52.8048 99.9562 52.2111 99.3173C51.6174 98.6784 50.8151 98.2725 49.9487 98.1726" fill="#A1A1A1"/>
<path d="M60.2271 92.8931C58.671 92.976 57.2105 93.6694 56.1626 94.8228C55.1147 95.9761 54.5641 97.4962 54.6303 99.0531C54.5827 99.8253 54.688 100.599 54.9401 101.331C55.1923 102.062 55.5864 102.737 56.0999 103.316C56.6133 103.895 57.2359 104.366 57.9321 104.704C58.6283 105.042 59.3843 105.239 60.1567 105.283H60.5087C61.6675 105.329 62.809 104.992 63.7569 104.324C64.7048 103.656 65.4065 102.694 65.7535 101.587L63.7823 100.919C63.5957 101.631 63.1669 102.256 62.5695 102.686C61.9721 103.117 61.2434 103.326 60.5087 103.277C59.5751 103.277 58.6798 102.906 58.0197 102.246C57.3595 101.586 56.9887 100.691 56.9887 99.7571H65.7887V99.0179C65.7887 95.3571 63.7823 92.8931 60.1567 92.8931M57.0239 97.8915C57.0569 97.0779 57.4067 96.3095 57.9987 95.7504C58.5906 95.1913 59.3778 94.8859 60.1919 94.8995C60.9711 94.831 61.7457 95.0741 62.346 95.5755C62.9464 96.0769 63.3236 96.7958 63.3951 97.5747V97.8915H57.0239Z" fill="#A1A1A1"/>
<path d="M70.787 89.6191H68.499V104.966H70.787V89.6191Z" fill="#A1A1A1"/>
<path d="M84.2684 102.784V93.2449H82.0156V94.8993C81.7017 94.2496 81.1957 93.712 80.5661 93.3594C79.9364 93.0068 79.2137 92.8563 78.4956 92.9281C75.1868 92.9281 72.9692 95.7089 72.9692 99.0177C72.9692 102.327 75.0812 105.248 78.4956 105.248C79.2353 105.285 79.97 105.109 80.6126 104.741C81.2552 104.373 81.7788 103.828 82.1212 103.171V103.347C82.1213 103.877 82.1566 104.406 82.2268 104.931H84.4444C84.374 104.227 84.3388 103.488 84.3388 102.784M78.6716 103.242C76.4892 103.242 75.2572 101.411 75.2572 99.0177C75.2572 96.6241 76.63 94.9697 78.7068 94.9697C80.7836 94.9697 82.0508 96.6241 82.0508 99.0177C82.0508 101.411 80.7484 103.242 78.6716 103.242Z" fill="#A1A1A1"/>
<path d="M51.6383 86.8032H84.1631V81.4176C84.2343 80.0967 83.8213 78.7951 83.0015 77.7568C82.5108 77.207 81.8996 76.7779 81.2158 76.5031C80.5319 76.2284 79.7938 76.1153 79.0591 76.1728H70.5759V74.7648H68.3583V84.6208H62.5855V70.6816H60.3679V84.6208H54.6655V74.7648H51.6383C47.0623 74.7648 44.1055 77.0528 44.1055 80.5728C44.1055 85.184 48.0127 86.8032 51.6383 86.8032ZM70.6111 84.6208V78.3904H79.1295C79.5439 78.3578 79.9605 78.4166 80.3497 78.5625C80.739 78.7085 81.0915 78.9382 81.3823 79.2352C81.8386 79.8667 82.0511 80.6418 81.9807 81.4176V84.6208H70.6111ZM50.9343 77.0528H52.4479V84.656H50.9343C48.6463 84.656 46.3583 83.424 46.3583 80.6432C46.3583 78.1792 48.6463 77.1232 50.9343 77.1232" fill="#A1A1A1"/>
<path d="M53.5742 70.7168C53.4213 70.7154 53.2696 70.7445 53.1281 70.8024C52.9865 70.8603 52.8579 70.9458 52.7497 71.0539C52.6416 71.1621 52.5561 71.2907 52.4982 71.4323C52.4403 71.5738 52.4112 71.7255 52.4126 71.8784C52.4154 72.1857 52.5387 72.4795 52.7559 72.6968C52.9732 72.914 53.267 73.0373 53.5742 73.04C53.7272 73.0415 53.8789 73.0124 54.0204 72.9545C54.162 72.8966 54.2906 72.8111 54.3988 72.703C54.5069 72.5948 54.5924 72.4662 54.6503 72.3246C54.7082 72.1831 54.7373 72.0314 54.7358 71.8784C54.7331 71.5712 54.6098 71.2774 54.3926 71.0601C54.1753 70.8429 53.8815 70.7196 53.5742 70.7168Z" fill="#A1A1A1"/>
<path d="M49.8433 70.7168C49.6904 70.7154 49.5387 70.7445 49.3971 70.8024C49.2555 70.8603 49.1269 70.9458 49.0188 71.0539C48.9106 71.1621 48.8251 71.2907 48.7672 71.4323C48.7094 71.5738 48.6803 71.7255 48.6817 71.8784C48.6844 72.1857 48.8077 72.4795 49.025 72.6968C49.2422 72.914 49.5361 73.0373 49.8433 73.04C49.9962 73.0415 50.1479 73.0124 50.2895 72.9545C50.431 72.8966 50.5597 72.8111 50.6678 72.703C50.776 72.5948 50.8615 72.4662 50.9193 72.3246C50.9772 72.1831 51.0063 72.0314 51.0049 71.8784C51.0021 71.5712 50.8789 71.2774 50.6616 71.0601C50.4444 70.8429 50.1505 70.7196 49.8433 70.7168Z" fill="#A1A1A1"/>
<path d="M130.24 104.263L129.818 103.488H129.466V104.228H129.184V102.292H130.205C130.283 102.326 130.354 102.373 130.416 102.432C130.473 102.482 130.521 102.542 130.557 102.608V102.855C130.555 102.98 130.518 103.101 130.451 103.207C130.383 103.306 130.284 103.38 130.17 103.418L130.592 104.228L130.24 104.263ZM129.888 103.101C129.964 103.099 130.038 103.075 130.099 103.031C130.151 102.972 130.179 102.897 130.179 102.82C130.179 102.742 130.151 102.667 130.099 102.608C130.072 102.581 130.038 102.561 130.002 102.549C129.965 102.537 129.926 102.533 129.888 102.538H129.466V103.066L129.888 103.101Z" fill="#A1A1A1"/>
<path d="M129.782 105.354C129.365 105.354 128.956 105.23 128.609 104.998C128.262 104.766 127.991 104.436 127.831 104.05C127.671 103.664 127.63 103.24 127.711 102.83C127.792 102.42 127.994 102.044 128.289 101.748C128.584 101.453 128.961 101.252 129.37 101.17C129.78 101.089 130.205 101.131 130.591 101.291C130.977 101.451 131.306 101.721 131.538 102.069C131.771 102.416 131.894 102.824 131.894 103.242C131.899 103.519 131.844 103.794 131.735 104.049C131.626 104.303 131.464 104.532 131.261 104.72C131.078 104.93 130.85 105.096 130.594 105.206C130.338 105.316 130.061 105.366 129.782 105.354ZM129.782 101.623C129.459 101.626 129.143 101.726 128.876 101.908C128.609 102.091 128.402 102.349 128.281 102.649C128.161 102.95 128.132 103.279 128.198 103.596C128.265 103.913 128.424 104.203 128.655 104.429C128.887 104.656 129.18 104.808 129.498 104.868C129.816 104.928 130.145 104.892 130.443 104.765C130.74 104.638 130.994 104.425 131.171 104.154C131.348 103.883 131.44 103.566 131.437 103.242C131.438 103.03 131.395 102.821 131.31 102.627C131.225 102.433 131.1 102.258 130.944 102.115C130.637 101.805 130.219 101.627 129.782 101.623Z" fill="#A1A1A1"/>
</svg>
