<svg width="120" height="120" viewBox="0 0 120 120" fill="none" xmlns="http://www.w3.org/2000/svg">
<path d="M4.79828 88.2949C4.79828 86.1311 4.9394 85.7547 5.645 85.7547V85.5195C5.1746 85.5195 4.75124 85.5666 4.28083 85.5666C3.81043 85.5666 3.43411 85.5195 3.01074 85.5195V85.7547C3.81043 85.7547 3.85747 86.1311 3.85747 88.389V89.8943C3.85747 91.9641 3.62227 92.1052 3.05778 92.1522V92.3874C3.52819 92.3874 3.90451 92.3404 4.32787 92.3404C4.75124 92.3404 5.1746 92.3874 5.59796 92.3874V92.1522C5.03348 92.0581 4.79828 92.1052 4.79828 90.5999V88.2949Z" fill="#A1A1A1"/>
<path d="M9.31399 91.1643C9.31399 92.011 9.26695 92.1521 8.93766 92.1521V92.3873C9.26695 92.3873 9.54919 92.3403 9.83143 92.3403C10.1137 92.3403 10.443 92.3873 10.7252 92.3873V92.1521C10.2078 92.1521 10.1137 91.7287 10.1137 91.3524V89.0475C10.2078 88.2948 9.69031 87.5892 8.89062 87.4951H8.84358H8.79654C8.32614 87.4951 7.85574 87.7303 7.52645 88.0596V87.4951H7.43237C6.96197 87.6362 6.49157 87.7303 5.97412 87.7303V87.9655C6.49157 87.9655 6.63269 88.2948 6.63269 89.0945V91.3524C6.63269 92.011 6.63269 92.3403 5.97412 92.3403V92.5755C6.3034 92.5755 6.63269 92.5284 6.96197 92.5284C7.29125 92.5284 7.62053 92.5755 7.94982 92.5755V92.3403C7.62053 92.3403 7.47941 92.1992 7.47941 91.7288V88.53C7.76166 88.2478 8.13798 88.1066 8.5143 88.0596C8.84358 88.0596 9.31399 88.3889 9.31399 89.1415V91.1643Z" fill="#A1A1A1"/>
<path d="M11.7131 87.5891H11.2427L11.1016 88.0595L11.7131 88.0125V90.8349C11.7131 92.0109 12.2776 92.3402 12.9361 92.3402C13.2654 92.3402 13.5477 92.2461 13.7829 92.0109L13.6417 91.6816C13.5006 91.7286 13.3595 91.7757 13.2184 91.7757C12.6539 91.7757 12.5128 91.2582 12.5128 90.7878V87.9654H12.9832C13.2184 87.9654 13.4536 88.0125 13.6417 88.0125L13.7829 87.5421H12.5128V86.4131H12.3246C12.0894 86.5072 11.9012 86.5072 11.666 86.5072L11.7131 87.5891Z" fill="#A1A1A1"/>
<path d="M15.1941 89.0945C15.1941 88.7182 15.4293 87.8244 16.0878 87.8244C16.5582 87.8714 16.9346 88.2478 16.9346 88.7182C16.9346 89.0475 16.8405 89.0945 16.4642 89.0945H15.1941ZM17.499 91.6347C17.2168 91.8228 16.8875 91.964 16.5112 91.964C15.7115 91.964 15.0529 91.0702 15.0529 89.8942V89.3767H17.5931C17.6402 89.2356 17.6402 89.0945 17.6402 88.9534C17.6872 88.1067 17.0757 87.401 16.229 87.354H16.1349C14.6296 87.354 14.1592 88.7652 14.1592 89.8942C14.1592 91.3524 14.7707 92.3873 16.229 92.3873C16.7464 92.3873 17.2168 92.2462 17.6872 91.964L17.499 91.6347Z" fill="#A1A1A1"/>
<path d="M18.7224 91.1641C18.7224 91.7756 18.7224 92.0108 18.1108 92.152V92.3872C18.5342 92.3872 18.9105 92.3401 19.3809 92.3401C19.8513 92.3401 20.2277 92.3872 20.651 92.3872V92.152C19.8043 92.152 19.5691 91.6815 19.5691 90.9759V88.765C19.7102 88.4358 20.0395 88.1535 20.4158 88.1535C20.6981 88.1535 20.7921 88.2946 20.9803 88.2946C21.2155 88.2946 21.4977 87.8713 21.4977 87.7302C21.4977 87.589 21.1214 87.4009 20.8862 87.4009C20.3688 87.4479 19.8513 87.7772 19.6161 88.2476C19.6161 87.9654 19.6161 87.6831 19.6632 87.4009H19.6161C19.1457 87.542 18.6753 87.6361 18.2049 87.6361V87.8713C18.6283 87.8713 18.8164 88.0124 18.8164 88.9532V91.2111H18.7224V91.1641Z" fill="#A1A1A1"/>
<path d="M25.1195 91.1643C25.1195 92.011 25.0725 92.1521 24.7432 92.1521V92.3873C25.0725 92.3873 25.3547 92.3403 25.6369 92.3403C25.9192 92.3403 26.2485 92.3873 26.5307 92.3873V92.1521C26.0133 92.1521 25.9192 91.7287 25.9192 91.3524V89.0475C26.0133 88.2478 25.4488 87.5422 24.6491 87.4951H24.555C24.0846 87.4951 23.6142 87.7303 23.2849 88.0596V87.4951H23.1438C22.6734 87.6362 22.203 87.7303 21.6855 87.7303V87.9655C22.203 87.9655 22.3441 88.2948 22.3441 89.0945V91.3524C22.3441 92.011 22.3441 92.3403 21.6855 92.3403V92.5755C22.0148 92.5755 22.3441 92.5284 22.6734 92.5284C23.0027 92.5284 23.332 92.5755 23.6612 92.5755V92.3403C23.332 92.3403 23.1908 92.1992 23.1908 91.7288V88.53C23.4731 88.2478 23.8494 88.1066 24.2257 88.0596C24.6021 88.0596 25.0254 88.3889 25.0254 89.1415V91.1643H25.1195Z" fill="#A1A1A1"/>
<path d="M29.6356 91.5876C29.4004 91.7757 29.0711 91.9169 28.7888 91.8698C28.3655 91.9169 27.9421 91.5405 27.9421 91.1172V91.0701C27.9421 90.2234 28.6477 90.0823 29.6356 89.8V91.5876ZM27.4247 88.8592H27.5658C27.5187 88.3418 27.8951 87.8714 28.4125 87.8244H28.4596H28.6007C29.0711 87.7773 29.4944 88.1066 29.5885 88.577V89.4237C28.93 89.8471 27.0483 89.9882 27.0483 91.3053C27.0483 92.011 27.4247 92.4814 28.3184 92.4814C28.7888 92.4814 29.2122 92.3402 29.5885 92.058L29.6356 92.4343C29.8708 92.3873 30.153 92.3873 30.3882 92.3873H30.9527V92.1991C30.5293 92.1521 30.4352 91.8698 30.4352 91.4935V89.1415C30.5764 88.3888 30.0589 87.6832 29.3063 87.5421H29.2592C29.1181 87.4951 28.977 87.4951 28.7888 87.5421C28.2714 87.5421 27.7539 87.6832 27.2835 87.9655L27.4247 88.8592Z" fill="#A1A1A1"/>
<path d="M32.176 87.5891H31.7056L31.5645 88.0595L32.223 88.0125V90.8349C32.223 92.0109 32.7875 92.3402 33.4461 92.3402C33.7754 92.3402 34.0576 92.2461 34.2928 92.0109L34.1517 91.6816C34.0106 91.7286 33.8694 91.7757 33.7283 91.7757C33.1638 91.7757 33.0227 91.2582 33.0227 90.7878V87.9654H33.4931C33.7283 87.9654 33.9635 88.0125 34.1046 88.0125L34.2458 87.5421H32.9757V86.4131H32.8345C32.5993 86.5072 32.4112 86.5072 32.176 86.5072V87.5891Z" fill="#A1A1A1"/>
<path d="M35.8448 85.5195C35.6096 85.5195 35.3744 85.7077 35.3744 85.9899V86.037V86.084C35.3744 86.3663 35.5626 86.6015 35.8448 86.6485C36.1741 86.6015 36.3622 86.2722 36.2682 85.9429C36.2682 85.7547 36.08 85.5666 35.8448 85.5195ZM34.6217 87.8715C35.0451 87.8715 35.2333 87.9656 35.2333 88.9064V91.1644C35.2333 91.9641 35.1392 92.1522 34.6217 92.1522V92.3874C34.9981 92.3874 35.2803 92.3404 35.6566 92.3404C36.033 92.3404 36.3152 92.3874 36.6445 92.3874V92.1522C36.1741 92.1522 36.08 91.87 36.08 91.5407V88.342C36.08 88.0597 36.08 87.7775 36.127 87.5423H35.9859C35.5155 87.6834 35.0451 87.7775 34.5747 87.7775L34.6217 87.8715Z" fill="#A1A1A1"/>
<path d="M39.1847 87.7772C40.2666 87.7772 40.3136 89.5647 40.3136 90.0351C40.3136 91.3052 39.9844 91.9638 39.2317 91.9638C38.4791 91.9638 38.1028 90.9289 38.1028 89.6588C38.1028 88.4358 38.4791 87.7772 39.1847 87.7772ZM39.2788 87.4009C38.0087 87.4009 37.209 88.4358 37.209 89.9411C37.209 91.4463 38.0087 92.4812 39.1376 92.4812C40.5959 92.4812 41.2074 91.2582 41.2074 89.9411C41.2074 88.5298 40.5018 87.4009 39.2788 87.4009Z" fill="#A1A1A1"/>
<path d="M44.9709 91.1643C44.9709 92.011 44.9239 92.1521 44.5946 92.1521V92.3873C44.9239 92.3873 45.2061 92.3403 45.4883 92.3403C45.7706 92.3403 46.0999 92.3873 46.3821 92.3873V92.1521C45.8647 92.1521 45.7706 91.7287 45.7706 91.3524V89.0475C45.8647 88.2478 45.3002 87.5422 44.5005 87.4951H44.4064C43.936 87.4951 43.4656 87.7303 43.1363 88.0596V87.4951H43.0422C42.5718 87.6362 42.1014 87.7303 41.584 87.7303V87.9655C42.1014 87.9655 42.2426 88.2948 42.2426 89.0945V91.3524C42.2426 92.011 42.2425 92.3403 41.584 92.3403V92.5755C41.9133 92.5755 42.2425 92.5284 42.5718 92.5284C42.9011 92.5284 43.2304 92.5755 43.5597 92.5755V92.3403C43.2304 92.3403 43.0893 92.1992 43.0893 91.7288V88.53C43.3715 88.2478 43.7478 88.1066 44.1242 88.0596C44.5005 88.0596 44.9239 88.3889 44.9239 89.1415L44.9709 91.1643Z" fill="#A1A1A1"/>
<path d="M49.5809 91.5876C49.3457 91.7757 49.0164 91.9169 48.7341 91.8698C48.3108 91.9169 47.8874 91.5405 47.8874 91.1172V91.0701C47.8874 90.2234 48.593 90.0823 49.5809 89.8V91.5876ZM47.37 88.8592H47.5111C47.4641 88.3418 47.8874 87.8714 48.4049 87.8244H48.546C49.0164 87.7773 49.4398 88.1066 49.5338 88.577V89.4237C48.8753 89.8471 46.9937 89.9882 46.9937 91.3053C46.9937 92.011 47.37 92.4814 48.2637 92.4814C48.7341 92.4814 49.1575 92.3402 49.5338 92.058L49.5809 92.4343C49.8161 92.3873 50.0513 92.3873 50.2865 92.3873H50.851V92.1991C50.5217 92.1991 50.2394 91.8698 50.2394 91.5405V91.4935V89.1415C50.3806 88.3888 49.8631 87.6832 49.1105 87.5421H49.0634C48.9223 87.4951 48.7812 87.4951 48.593 87.5421C48.0756 87.5421 47.6052 87.6832 47.1348 87.9655L47.37 88.8592Z" fill="#A1A1A1"/>
<path d="M51.5096 85.0023C51.933 85.0023 52.1211 85.0493 52.1211 85.9902V91.0705C52.1211 91.8232 51.8859 92.1524 51.5096 92.1524V92.3876C51.8859 92.3876 52.1682 92.3406 52.4975 92.3406C52.8267 92.3406 53.156 92.3876 53.5323 92.3876V92.1524C53.0619 92.1054 52.9679 91.9172 52.9679 90.9764V86.4606C52.9679 86.3194 53.0149 85.0023 53.0149 84.626H52.7797C52.3563 84.7201 51.933 84.7671 51.4155 84.8612L51.5096 85.0023Z" fill="#A1A1A1"/>
<path d="M56.0251 85.7075C57.107 85.8016 57.154 86.0839 57.154 86.5072C57.154 86.9306 57.0129 89.4237 56.8718 90.4116C56.7777 91.7757 56.4955 92.0109 55.978 92.1521V92.3873C56.3544 92.3873 56.7307 92.3402 57.154 92.3402C57.5774 92.3402 57.9067 92.3873 58.33 92.3873V92.1991C57.6244 92.105 57.4363 91.7757 57.4833 90.9761L57.7185 86.9306L60.0705 92.4343H60.635L62.94 86.9306C62.987 87.5891 63.2222 90.3645 63.2222 91.0231C63.2222 91.7757 62.94 92.105 62.1874 92.1521V92.3873C62.6578 92.3873 63.1752 92.3402 63.6456 92.3402C64.116 92.3402 64.5394 92.3873 65.1039 92.3873V92.1521C64.4923 92.105 64.3042 91.6346 64.2571 91.0231C64.2101 90.3175 63.9749 87.5891 63.9749 87.1187C63.9749 86.3191 64.069 85.7546 65.0098 85.6605V85.4253C64.6805 85.4253 64.3983 85.4723 64.0219 85.4723C63.6456 85.4723 63.4104 85.4253 63.0341 85.4253L60.588 91.0231L58.0948 85.4253C57.7185 85.4253 57.4363 85.4723 57.06 85.4723C56.6836 85.4723 56.4014 85.4253 56.0721 85.4253L56.0251 85.7075Z" fill="#A1A1A1"/>
<path d="M66.2798 89.0945C66.2798 88.7182 66.515 87.8244 67.1736 87.8244C67.644 87.8714 68.0203 88.2478 68.0203 88.7182C68.0203 89.0475 67.9263 89.0945 67.5499 89.0945H66.2798ZM68.6319 91.6347C68.3496 91.8228 68.0203 91.964 67.644 91.964C66.8443 91.964 66.1858 91.0702 66.1858 89.8942V89.3767H68.7259C68.773 89.2356 68.773 89.0945 68.773 88.9534C68.82 88.1067 68.2085 87.401 67.3618 87.354H67.2677C65.7624 87.354 65.292 88.7652 65.292 89.8942C65.292 91.3524 65.9506 92.3873 67.3618 92.3873C67.8792 92.3873 68.3496 92.2462 68.82 91.964L68.6319 91.6347Z" fill="#A1A1A1"/>
<path d="M72.5363 91.4939C72.3011 91.7291 71.9718 91.8702 71.6425 91.9172C70.8899 91.9172 70.3724 90.9294 70.3724 89.4711C70.3724 88.0129 71.1721 87.7306 71.5014 87.7306C71.8307 87.7306 72.16 87.9658 72.5833 88.4362L72.5363 91.4939ZM71.7837 85.0023C72.4893 84.9553 72.5363 85.0964 72.5363 86.4135V87.7777C72.207 87.5425 71.8307 87.4014 71.4073 87.3543C70.0432 87.3543 69.4316 88.7655 69.4316 89.8004C69.4316 91.0705 70.0902 92.3876 71.2662 92.3876C71.7366 92.3876 72.207 92.1524 72.5363 91.8232C72.5363 92.0113 72.5833 92.1524 72.6304 92.3406C73.1008 92.2936 73.5242 92.2936 74.0886 92.2936V92.0584C73.5242 92.0584 73.4301 91.7761 73.4301 91.2587V84.626H73.2889C72.8185 84.7671 72.3481 84.8141 71.8307 84.8612L71.7837 85.0023Z" fill="#A1A1A1"/>
<path d="M75.6879 85.5195C75.4527 85.5195 75.2175 85.7077 75.2175 85.9899V86.037V86.084C75.2175 86.3663 75.4527 86.6015 75.7349 86.6485C76.0642 86.6015 76.2524 86.2722 76.1583 85.9899C76.1113 85.7547 75.9231 85.5666 75.6879 85.5195ZM74.4648 87.8716C74.8882 87.8716 75.0764 87.9656 75.0764 88.9064V91.2114C75.0764 92.0111 74.9823 92.1993 74.4648 92.1993V92.4345C74.8412 92.4345 75.1234 92.3874 75.4997 92.3874C75.8761 92.3874 76.1583 92.4345 76.5346 92.4345V92.1993C76.0642 92.1993 75.9701 91.917 75.9701 91.5877V88.389C75.9701 88.1067 75.9701 87.8245 76.0172 87.5893H75.8761C75.4527 87.7304 74.9352 87.7775 74.4648 87.7304V87.8716Z" fill="#A1A1A1"/>
<path d="M80.3451 91.5878C80.1099 91.776 79.8277 91.9171 79.5454 91.9171C79.1221 91.9171 78.0401 91.5878 78.0401 89.6591C78.0401 88.6243 78.3694 87.7775 79.4513 87.7775C80.2981 87.7775 80.5333 88.295 80.5803 88.6713H80.8155V87.4482C80.3922 87.3542 79.9217 87.3071 79.4513 87.3071C77.4756 87.3071 77.2404 89.2358 77.2404 89.8943C77.0993 91.0704 77.9461 92.1523 79.1691 92.3404C79.1691 92.3404 79.1691 92.3404 79.2161 92.3404H79.3102C79.8277 92.2934 80.3451 92.1523 80.8155 91.823L80.3451 91.5878Z" fill="#A1A1A1"/>
<path d="M83.7322 91.5876C83.497 91.7757 83.1678 91.9169 82.8855 91.8698C82.4621 91.9169 82.0388 91.5405 82.0388 91.1172V91.0231C82.0388 90.1764 82.7444 90.0353 83.7793 89.753L83.7322 91.5876ZM81.5213 88.8592H81.6625C81.6154 88.3418 81.9917 87.8714 82.5092 87.8244H82.5562H82.6974C83.1678 87.7773 83.5911 88.1066 83.6852 88.577V89.4237C83.0266 89.8471 81.145 89.9882 81.145 91.3053C81.145 92.011 81.5213 92.4814 82.4151 92.4814C82.8855 92.4814 83.3089 92.3402 83.6852 92.058L83.7322 92.4343C83.9674 92.3873 84.2497 92.3873 84.4849 92.3873H85.0494V92.1991C84.626 92.1521 84.5319 91.8698 84.5319 91.4935V89.1415C84.673 88.3888 84.1556 87.6832 83.403 87.5421H83.3559C83.2148 87.4951 83.0737 87.4951 82.8855 87.5421C82.3681 87.5421 81.8977 87.6832 81.4273 87.9655L81.5213 88.8592Z" fill="#A1A1A1"/>
<path d="M85.6605 85.0023C86.1309 85.0023 86.272 85.0493 86.272 85.9902V91.0705C86.272 91.8232 86.0368 92.1524 85.6605 92.1524V92.3876C86.0368 92.3876 86.3191 92.3406 86.6954 92.3406C87.0717 92.3406 87.3539 92.3876 87.6832 92.3876V92.1524C87.2128 92.1054 87.1187 91.9172 87.1187 90.9764V86.4606C87.1187 86.3194 87.1187 85.0023 87.1658 84.626H86.9306C86.5072 84.7201 86.0839 84.7671 85.5664 84.8612C85.6605 84.8141 85.6605 85.0023 85.6605 85.0023Z" fill="#A1A1A1"/>
<path d="M96.6211 90.4588C96.48 91.3996 95.6333 92.0581 94.6924 91.9641C93.046 91.9641 91.6348 90.6469 91.6348 89.0005C91.6348 89.0005 91.6348 89.0005 91.6348 88.9535V88.6712C91.5878 87.213 92.6697 85.9899 94.128 85.9429C94.128 85.9429 94.128 85.9429 94.175 85.9429H94.5043C96.2918 85.9429 96.5741 87.1189 96.5741 87.5423H96.8093C96.8093 86.8837 96.8563 86.1781 96.9033 85.6136C96.3859 85.6136 95.304 85.5195 94.4102 85.5195C91.4467 85.5195 90.647 87.5893 90.647 88.8594C90.647 90.5528 91.7289 92.4815 94.5513 92.4815C95.2099 92.4815 95.8214 92.3874 96.4329 92.1993C96.6681 91.6348 96.8093 91.0233 96.9033 90.4588H96.6211Z" fill="#A1A1A1"/>
<path d="M98.5025 89.0945C98.5025 88.7182 98.7377 87.8244 99.3963 87.8244C99.8667 87.8714 100.243 88.2478 100.243 88.7182C100.243 89.0475 100.149 89.0945 99.7726 89.0945H98.5025ZM100.855 91.6347C100.572 91.8228 100.243 91.964 99.8667 91.964C99.067 91.964 98.4084 91.0702 98.4084 89.8942V89.3767H100.949C100.996 89.2356 100.996 89.0945 100.996 88.9534C101.043 88.1067 100.431 87.401 99.5844 87.354H99.4903C97.9851 87.354 97.5146 88.7652 97.5146 89.8942C97.5146 91.3524 98.1262 92.3873 99.5844 92.3873C100.102 92.3873 100.572 92.2462 101.043 91.964L100.855 91.6347Z" fill="#A1A1A1"/>
<path d="M104.806 91.1643C104.806 92.011 104.759 92.1521 104.43 92.1521V92.3873C104.759 92.3873 105.041 92.3403 105.323 92.3403C105.606 92.3403 105.935 92.3873 106.217 92.3873V92.1521C105.7 92.1521 105.606 91.7287 105.606 91.3524V89.0475C105.7 88.2948 105.135 87.5892 104.383 87.4951C104.336 87.4951 104.289 87.4951 104.242 87.4951H104.194C103.724 87.4951 103.254 87.7303 102.924 88.0596V87.4951H102.83C102.36 87.6362 101.89 87.7303 101.372 87.7303V87.9655C101.89 87.9655 102.031 88.3418 102.031 89.0945V91.3524C102.031 92.011 102.031 92.3403 101.419 92.3403V92.5755C101.748 92.5755 102.031 92.5284 102.407 92.5284C102.783 92.5284 103.066 92.5755 103.395 92.5755V92.3403C103.066 92.3403 102.924 92.1992 102.924 91.7288V88.53C103.207 88.2478 103.583 88.1066 103.959 88.0596C104.289 88.0596 104.759 88.3889 104.759 89.1415L104.806 91.1643Z" fill="#A1A1A1"/>
<path d="M107.252 87.5891H106.782L106.641 88.0595L107.252 88.0125V90.8349C107.252 92.0109 107.817 92.3402 108.475 92.3402C108.804 92.3402 109.087 92.2461 109.322 92.0109L109.181 91.6816C109.04 91.7286 108.899 91.7757 108.757 91.7757C108.193 91.7757 108.052 91.2582 108.052 90.7878V87.9654H108.522C108.757 87.9654 108.993 88.0125 109.134 88.0125L109.275 87.5421H108.005V86.4131H107.864C107.628 86.5072 107.44 86.5072 107.205 86.5072L107.252 87.5891Z" fill="#A1A1A1"/>
<path d="M110.686 89.0945C110.686 88.7182 110.921 87.8244 111.58 87.8244C112.05 87.8714 112.427 88.2478 112.427 88.7182C112.427 89.0475 112.333 89.0945 111.956 89.0945H110.686ZM113.038 91.6347C112.756 91.8228 112.427 91.964 112.05 91.964C111.251 91.964 110.592 91.0702 110.592 89.8942V89.3767H113.132C113.179 89.2356 113.179 89.0945 113.179 88.9534C113.226 88.1067 112.615 87.401 111.768 87.354H111.674C110.169 87.354 109.698 88.7652 109.698 89.8942C109.698 91.3524 110.357 92.3873 111.768 92.3873C112.285 92.3873 112.756 92.2462 113.226 91.964L113.038 91.6347Z" fill="#A1A1A1"/>
<path d="M114.214 91.1641C114.214 91.7756 114.214 92.0108 113.603 92.152V92.3872C114.026 92.3872 114.45 92.3401 114.873 92.3401C115.296 92.3401 115.72 92.3872 116.143 92.3872V92.152C115.296 92.152 115.061 91.6815 115.061 90.9759V88.765C115.343 88.3887 115.579 88.1535 115.908 88.1535C116.19 88.1535 116.284 88.2946 116.472 88.2946C116.708 88.2946 116.99 87.8713 116.99 87.7302C116.99 87.589 116.613 87.4009 116.378 87.4009C115.861 87.4009 115.484 87.7302 115.014 88.2476C115.014 87.9654 115.014 87.6831 115.061 87.4009H114.92C114.45 87.542 113.979 87.6361 113.509 87.6361V87.8713C113.932 87.8713 114.12 88.0124 114.12 88.9532V91.2111H114.214V91.1641Z" fill="#A1A1A1"/>
<path d="M45.3469 44.0769C45.3469 35.8919 58.5182 28.7418 60.0705 27.9421H59.8353C60.4468 28.2714 74.5589 35.6567 74.5589 44.0769V65.4803L74.7941 65.2451H45.1587L45.3939 65.4803V44.0769H45.3469ZM45.1587 65.6685H75.0293V44.0769C75.0293 35.5156 61.6228 28.3184 60.1175 27.5187L60.0235 27.4717L59.9294 27.5187C58.4241 28.3184 45.0176 35.6097 45.0176 44.0769V65.6685H45.1587Z" fill="#A1A1A1"/>
<path d="M59.9765 36.2684C57.5304 36.2214 55.5077 38.15 55.4136 40.6432C55.4136 40.6902 55.4136 40.6902 55.4136 40.7373V41.0195C55.4606 41.4429 55.5077 41.8192 55.6488 42.2426L55.884 42.9011C55.7899 42.4777 55.7899 42.1014 55.7899 41.6781C56.0251 39.5612 57.8126 37.9619 59.9765 38.0089H60.0706C62.2344 37.9148 64.069 39.5612 64.2572 41.6781C64.2572 42.1014 64.2572 42.4777 64.1631 42.9011L64.3983 42.2896C64.4924 41.9133 64.5394 41.4899 64.5394 41.0665C64.6805 38.6204 62.7989 36.5036 60.3058 36.3625C60.1646 36.2684 60.0706 36.2684 59.9765 36.2684Z" fill="#A1A1A1"/>
<path d="M64.2103 41.7249C64.2103 42.0072 64.2103 42.2894 64.1162 42.5716C64.3514 42.0072 64.4925 41.4427 64.5396 40.8311C64.5396 38.291 62.4698 36.2212 59.9767 36.2212C57.4365 36.2212 55.3667 38.291 55.3667 40.7841C55.3667 41.3956 55.5078 42.0072 55.7901 42.5246C55.743 42.2424 55.743 41.9601 55.743 41.6779C55.743 39.3259 57.6246 37.4442 59.9767 37.4442H60.0707C62.3757 37.4913 64.2573 39.3729 64.2103 41.7249Z" fill="#A1A1A1"/>
<path d="M71.0784 47.0405C70.702 44.5474 68.3971 42.8069 65.8569 43.1362C65.7628 43.1362 65.7158 43.1362 65.6217 43.1832C65.0102 43.3243 64.4457 43.5595 63.9282 43.8888L64.0693 44.2181C64.3516 44.124 64.6338 44.077 64.869 43.9829C67.127 43.6066 69.2908 45.0178 69.7612 47.2757V47.3698C70.0435 49.6277 68.5382 51.6975 66.2802 52.0738C65.998 52.1209 65.7158 52.1209 65.4335 52.1209L65.3865 52.4972C65.998 52.6383 66.6095 52.6854 67.221 52.5913C69.7612 52.215 71.4547 49.8629 71.0784 47.3228C71.0784 47.2287 71.0784 47.1346 71.0784 47.0405Z" fill="#A1A1A1"/>
<path d="M69.8083 47.0874C69.3849 44.7824 67.221 43.2771 64.9161 43.6535C64.6338 43.7005 64.3516 43.7475 64.0693 43.8887C64.5397 43.5594 65.1042 43.2771 65.6687 43.1831C68.1619 42.7597 70.5609 44.4531 70.9843 46.9463C71.4076 49.3924 69.8083 51.6974 67.4092 52.2148H67.2681C66.7036 52.3089 66.0921 52.2618 65.5276 52.1207C65.8098 52.1207 66.0921 52.0737 66.3743 52.0266C68.6793 51.6033 70.2316 49.4394 69.8083 47.0874Z" fill="#A1A1A1"/>
<path d="M48.8752 47.0405C49.2515 44.5474 51.5565 42.8069 54.0967 43.1362C54.1908 43.1362 54.2378 43.1362 54.3319 43.1832C54.9434 43.3243 55.5079 43.5595 56.0254 43.8888L55.8842 44.2181C55.602 44.124 55.3197 44.077 55.0845 43.9829C52.8266 43.6066 50.6628 45.0178 50.1923 47.2757V47.3698C49.9101 49.6277 51.4154 51.6975 53.6733 52.0738C53.9556 52.1209 54.2378 52.1209 54.5201 52.1209L54.5671 52.4972C53.9556 52.6383 53.3441 52.6854 52.7325 52.5913C50.0983 52.0738 48.4048 49.6277 48.8752 47.0405C48.8752 47.0876 48.8752 47.0876 48.8752 47.0405Z" fill="#A1A1A1"/>
<path d="M50.0513 47.0875C50.4746 44.7825 52.6855 43.2302 54.9905 43.6535C55.2727 43.7006 55.555 43.7476 55.8372 43.8887C55.3668 43.5595 54.8023 43.2772 54.2378 43.1831C51.6977 42.7598 49.3456 44.5003 48.9223 46.9934C48.546 49.4395 50.0983 51.7445 52.5444 52.2619H52.5914C53.1559 52.356 53.7674 52.309 54.3319 52.1679C54.0497 52.1679 53.7674 52.1208 53.4852 52.0738C51.1802 51.6504 49.6749 49.4866 50.0042 47.1816L50.0513 47.0875Z" fill="#A1A1A1"/>
<path d="M66.4209 61.9525H66.0916C63.5044 61.8114 61.5287 59.6005 61.6698 57.0133C61.7639 55.0846 63.034 53.3912 64.9156 52.7796L64.8686 52.4033C62.0461 52.6385 59.9764 55.0846 60.2116 57.907C60.3997 60.3531 62.3284 62.2818 64.7745 62.47C65.339 62.517 65.9505 62.4229 66.4679 62.2348L66.4209 61.9525Z" fill="#A1A1A1"/>
<path d="M66.1391 61.9053C63.4578 61.7642 61.388 59.4592 61.5291 56.7779V56.7309C61.6232 54.7081 62.9874 52.9676 64.916 52.3091C62.2347 52.4032 60.1179 54.6141 60.212 57.2954C60.3061 59.9767 62.517 62.0935 65.1983 61.9994C65.6687 61.9994 66.0921 61.9053 66.5625 61.7642C66.4213 61.8583 66.2802 61.9053 66.1391 61.9053Z" fill="#A1A1A1"/>
<path d="M53.4382 61.9525H53.7674C56.3547 61.8114 58.3304 59.6475 58.2363 57.0603C58.2363 57.0603 58.2363 57.0603 58.2363 57.0133C58.1422 55.0376 56.8251 53.3441 54.9434 52.7796L54.9905 52.4033C57.7659 52.6856 59.8356 55.0846 59.6475 57.907C59.4593 60.3531 57.5307 62.2818 55.0846 62.47C54.5201 62.517 53.9086 62.4229 53.3911 62.2348L53.4382 61.9525Z" fill="#A1A1A1"/>
<path d="M53.7673 61.9055C56.4486 61.7173 58.5183 59.4123 58.3302 56.731C58.1891 54.7083 56.8719 53.0148 54.9903 52.4033C57.6716 52.5444 59.7414 54.8965 59.5532 57.5778C59.4121 60.0239 57.4835 61.9996 54.9903 62.1407C54.4729 62.1407 53.9084 62.0936 53.438 61.9055C53.5321 61.9055 53.6262 61.9055 53.7673 61.9055Z" fill="#A1A1A1"/>
<path d="M91.87 80.6741H78.3223C78.3223 81.0034 78.2753 81.3327 78.2283 81.662L78.1812 81.8972L78.1342 81.9913C78.1342 82.0383 78.1342 82.0383 78.0872 82.0854L77.9931 82.3206L77.946 82.4146L77.899 82.5087C77.6168 83.1202 77.0052 83.4966 76.3467 83.4966C76.0174 83.4966 75.7351 83.4025 75.4999 83.2143C75.2647 83.0262 75.0295 82.7439 74.9354 82.4617L75.0766 82.3676C75.3118 82.6028 75.6411 82.7439 75.9703 82.791C76.0644 82.791 76.1585 82.791 76.2526 82.7439C76.3467 82.7439 76.3937 82.7439 76.4878 82.6969C76.9111 82.5558 77.1934 82.2735 77.2875 81.8501L77.3345 81.6149L77.3815 81.2386V79.8274H76.9111V79.5922L77.0523 79.5452L77.3345 79.4041C77.4286 79.31 77.5697 79.2629 77.6638 79.1218L77.9931 78.6984L78.0872 78.5573L78.1812 78.3221L78.4164 78.3692V79.7804H91.2585V79.4041C91.2585 78.9336 90.9762 78.9336 90.4588 78.9336H82.1797V77.8517L87.3541 73.1947C87.4011 73.1477 87.4011 73.1006 87.4482 73.1006C87.4952 73.1006 87.4952 73.1477 87.4952 73.1947C87.4952 73.2418 87.3541 73.4299 87.26 73.571C87.26 73.6181 86.8367 74.3707 86.8367 74.4648C86.9307 74.653 86.9778 74.8411 86.9778 75.0293C86.9778 75.3586 86.8837 75.5467 86.7426 75.5467C86.6015 75.5467 86.6955 75.1704 86.4603 75.1704C86.2722 75.2175 86.084 75.3115 85.9429 75.4997L83.2145 77.8517H90.3176C91.4466 77.8517 91.8229 78.181 91.8229 79.357L91.87 80.6741ZM45.5822 82.9791C45.7704 83.2143 46.0056 83.4025 46.2408 83.5906L46.1938 83.6377L46.2408 83.6847C46.0997 83.8258 45.6293 84.3433 45.6293 84.3433C45.5823 84.2492 44.9237 83.6377 44.9237 83.6377C45.1118 83.4495 45.347 83.2143 45.5822 82.9791ZM46.2408 83.6377C46.476 83.4025 46.6642 83.2143 46.8994 83.0262L47.5579 83.7318C47.5579 83.7318 46.9935 84.3433 46.8994 84.4374V84.4844C46.8994 84.4844 46.429 83.967 46.2879 83.8258L46.3349 83.7788C46.2879 83.6847 46.2408 83.6847 46.2408 83.6377ZM41.4427 80.3919L41.5368 80.4389V80.6741H39.0436V72.1598L39.2788 72.1128C39.3729 72.2539 39.514 72.4891 39.6081 72.6302L39.7492 72.8654L39.9844 73.1006L40.4078 73.3829L40.643 73.524L40.8782 73.6181L40.8312 73.8533H40.2196V79.7804H40.9723C40.9723 79.8745 40.9723 80.0156 41.0193 80.1097C41.0193 80.1567 41.0664 80.2037 41.1605 80.3449L41.4897 80.5801L41.4427 80.3919ZM53.0617 81.0975L53.7673 81.8031L53.0617 82.5087L52.3561 81.8031L53.0617 81.0975ZM107.817 80.4389V80.6741H105.324V72.1598L105.559 72.1128C105.653 72.2539 105.794 72.4891 105.888 72.6302L106.029 72.8654L106.264 73.1006L106.641 73.3829L106.876 73.524L107.111 73.6181L107.064 73.8533H106.452V79.7804H107.205C107.205 79.8745 107.205 80.0156 107.252 80.1097C107.252 80.1567 107.299 80.2037 107.346 80.3449L107.676 80.5801L107.77 80.6271L107.817 80.4389ZM64.9158 79.31C64.9158 79.2159 64.8688 79.1218 64.7747 79.1218H64.7277H58.3302V79.6863H64.9158V79.31ZM68.9613 72.1598L69.1965 72.2069V80.6741H49.91L46.9464 77.7106L46.8053 77.5695L46.7583 77.6636L46.7112 77.7106L46.6171 77.8517L46.5701 77.8988L46.5231 78.0399C46.5701 78.181 46.6171 78.3221 46.7583 78.4162C46.8523 78.5103 46.9464 78.5573 47.0405 78.6514C47.1816 78.7925 47.3227 78.9807 47.4639 79.1218C47.9813 79.5922 48.3106 80.2508 48.3576 80.9564C48.3576 81.5679 48.0754 82.1324 47.652 82.5087C47.4639 82.6498 47.2287 82.791 47.0405 82.9321C46.8053 83.0262 46.6171 83.0732 46.3819 83.0732H45.6293C45.253 83.0262 44.9237 82.838 44.6414 82.6028C44.171 82.1794 43.8888 81.6149 43.8888 81.0034V80.7212C43.8888 80.6271 43.8888 80.533 43.9358 80.4389C43.9358 80.2508 44.0299 80.0626 44.171 79.9215L44.3122 80.0156C44.2181 80.1567 44.171 80.3449 44.171 80.533C44.2181 80.9564 44.4533 81.3327 44.7355 81.6149C44.9707 81.8031 45.253 81.9913 45.5352 82.0854C45.6763 82.1324 45.8175 82.1324 45.9586 82.1324H46.2408C46.476 82.0854 46.7112 81.9442 46.8523 81.7561C46.8523 81.709 46.8523 81.709 46.8994 81.709C47.1346 81.4738 47.2757 81.1916 47.2757 80.8623C47.2757 80.5801 47.1816 80.3449 46.9464 80.1567L46.8994 80.1097C46.7583 79.9685 46.476 79.6863 46.2408 79.4981L45.9115 79.1688C45.7704 79.0277 45.6763 78.8866 45.5352 78.7455C45.4882 78.6984 45.4411 78.6514 45.4411 78.6044C45.347 78.4632 45.3 78.2751 45.3 78.0869V77.8517L45.347 77.7576V77.7106L45.3941 77.6636L45.5352 77.5224C45.7704 77.2402 45.9586 76.9579 46.1467 76.6287C46.1467 76.5816 46.1938 76.5346 46.1938 76.4875C46.2408 76.3935 46.2879 76.2523 46.2879 76.1112C46.2879 76.0642 46.2408 76.0171 46.2408 75.9701H46.5231L46.8994 76.3464L50.3804 79.8274H52.8265V78.7455H52.4501L52.4031 78.5103C52.6853 78.4162 52.9205 78.2751 53.1087 78.0399C53.2969 77.8047 53.485 77.5695 53.6262 77.2872L53.8614 77.3343V79.8745H57.4364V73.8533H56.966L56.919 73.6181L57.2012 73.524L57.4364 73.4299L57.5305 73.3829L57.6246 73.2888H57.6716L57.7187 73.2418L57.8127 73.1477C57.9068 73.0536 57.9539 72.9125 58.095 72.8184C58.142 72.7714 58.1891 72.6773 58.1891 72.5832L58.2361 72.4421L58.4713 72.4891V78.134H65.3392C65.5744 78.134 65.7626 78.181 65.9037 78.3692C66.0448 78.5103 66.1389 78.6514 66.1389 78.8866V79.6863H68.3498V73.8533H67.3619L67.9735 73.4299L68.1146 73.3358L68.2557 73.2418L68.3498 73.1477L68.4909 73.0066C68.632 72.9125 68.7732 72.7714 68.8672 72.5832L68.9613 72.4421V72.1598ZM100.478 79.6393L100.384 79.4981L100.29 79.4511L100.055 79.357H99.6316V79.7333L100.478 79.6393ZM104.195 72.1598L104.43 72.2069V80.6741H95.1158C95.1158 81.0034 95.0687 81.3327 95.0217 81.662L94.9746 81.8972L94.9276 81.9913C94.9276 82.0383 94.9276 82.0383 94.8806 82.0854L94.7865 82.3206L94.7394 82.4146L94.6924 82.5087C94.4102 83.1202 93.7986 83.5436 93.1401 83.4966C92.8108 83.4966 92.5285 83.4025 92.2933 83.2143C92.0581 83.0262 91.8229 82.7439 91.7289 82.4617L91.87 82.3676C92.1052 82.6028 92.4345 82.7439 92.7637 82.791H93.046C93.1401 82.791 93.1871 82.7439 93.2812 82.7439C93.6575 82.6028 93.9868 82.2735 94.0809 81.8972C94.1279 81.709 94.175 81.4738 94.175 81.2857V79.8274H93.7046L93.6105 79.4981L93.8457 79.4041L94.1279 79.2629C94.269 79.2159 94.3631 79.1218 94.4572 78.9807L94.7865 78.5573L94.8806 78.4162L94.9746 78.181H95.2098V79.5922H98.7849V77.6636L99.0201 77.6165C99.1142 77.8517 99.3494 77.9458 99.4905 78.0869C99.7728 78.181 99.9609 78.228 100.196 78.3221C100.431 78.3692 100.667 78.4162 100.902 78.4162C101.278 78.4162 101.466 78.6514 101.56 79.0277L101.654 79.5452H103.489V73.6651H102.501L103.113 73.2418L103.254 73.1477L103.395 73.0536L103.489 72.9595L103.63 72.8184C103.771 72.7243 103.912 72.5832 104.006 72.395L104.1 72.2539L104.195 72.1598ZM72.3482 80.3919L72.4423 80.4389V80.6741H69.9492V72.1598L70.1844 72.1128C70.2314 72.301 70.3725 72.4891 70.5136 72.6302L70.6548 72.8654L70.89 73.1006L71.3133 73.3829L71.5485 73.524L71.7837 73.6181L71.7367 73.8533H71.1252V79.7804H71.8778C71.8778 79.8745 71.8778 80.0156 71.9249 80.1097C71.9249 80.1567 71.9719 80.2037 72.0189 80.3449L72.3482 80.6271V80.3919ZM25.7783 79.0277L25.496 79.0748C25.449 79.0748 25.4019 79.1218 25.3549 79.1218C25.2138 79.1688 25.0726 79.2629 24.9786 79.357L24.9315 79.4511V79.6393H25.7783V79.0277ZM26.625 77.7106H26.8602V81.0975C26.8602 81.6149 26.7191 82.0854 26.4368 82.5558C26.2016 82.9791 25.8253 83.2614 25.3549 83.4025C25.2138 83.4495 25.0726 83.4495 24.8845 83.4495H24.4611C24.2259 83.4025 23.9907 83.3084 23.8496 83.0732C23.6144 82.885 23.4262 82.6028 23.2851 82.3676L23.4262 82.2735C23.6614 82.5087 23.9907 82.6028 24.32 82.6498H24.4611L24.5552 82.6028L24.9315 82.5558C25.0726 82.5087 25.1667 82.4146 25.2608 82.3206C25.4019 82.1794 25.5431 81.9442 25.5901 81.7561V81.5209L25.6371 81.2857V80.6741V80.7212H23.8026L23.7555 80.486V79.9685L23.7085 79.6863C23.7085 79.1218 24.0378 78.6514 24.5552 78.4632C24.7904 78.4162 25.0256 78.3221 25.2138 78.228C25.3549 78.181 25.5431 78.134 25.7312 78.0869L25.8723 78.0399C25.9194 78.0399 25.9664 77.9928 26.1075 77.9458C26.2016 77.8988 26.2957 77.8517 26.3898 77.8047C26.5779 77.8047 26.625 77.7576 26.625 77.7106ZM13.9241 82.9791C13.9241 82.9791 14.4415 83.4495 14.5826 83.5906L14.5356 83.6377L14.5826 83.6847L13.9241 84.3433L13.2185 83.6377C13.4537 83.4495 13.6889 83.2143 13.9241 82.9791ZM37.9617 72.1598L38.1969 72.2069V80.6741H27.1895V80.4389C27.4717 80.3449 27.754 80.1567 27.9421 79.9215L28.0832 79.7804L28.2244 79.6393L28.3184 79.4041L28.4125 79.1688H28.6477V79.5922H33.9633V79.0748L33.9162 79.0277H29.1652L29.1181 78.7925C29.2592 78.7455 29.4004 78.6984 29.5415 78.5573C29.6826 78.5103 29.8237 78.4162 29.9178 78.2751L30.2 77.8988C30.2941 77.8047 30.3412 77.6165 30.4352 77.5224H30.6705V77.9458H34.2455C34.4807 77.9458 34.6689 77.9928 34.81 78.181C34.9511 78.3221 35.0452 78.4632 35.0922 78.6984V79.5452H37.3502V73.6651H36.3623L36.9739 73.2418L37.115 73.1477L37.2561 73.0536L37.3502 72.9595L37.4913 72.8184C37.6324 72.6773 37.7735 72.5362 37.9147 72.395L38.0558 72.2539V72.1598H37.9617ZM14.6297 83.6847L15.1942 83.0262L15.8527 83.7318L15.1471 84.4374V84.4844C15.1471 84.4844 14.6297 83.967 14.5356 83.8258L14.6297 83.6847ZM77.0993 77.8988L76.3937 77.1932L77.0993 76.4875L77.8049 77.1932L77.0993 77.8988ZM23.0499 72.1598L23.2851 72.2069V80.6741H18.2518C18.2518 80.6741 15.8998 78.3692 15.2883 77.7106L15.1471 77.5695L15.1001 77.6636L15.053 77.7106L14.959 77.8517L14.9119 77.8988L14.8649 78.0399C14.9119 78.181 14.959 78.3221 15.1001 78.4162L15.3353 78.6514C15.5705 78.8866 15.7587 79.1218 15.7587 79.1218C16.2761 79.5922 16.6054 80.2508 16.6524 80.9564C16.6524 81.5679 16.4172 82.1324 15.9939 82.5087C15.8057 82.6498 15.5705 82.791 15.3353 82.9321C15.1471 83.0262 14.9119 83.0732 14.7238 83.0732H14.0652C13.6889 83.0262 13.3596 82.885 13.0774 82.6028C12.6069 82.1794 12.3247 81.6149 12.3247 81.0034V80.7212C12.3247 80.6271 12.3247 80.533 12.3717 80.4389C12.4188 80.2508 12.4658 80.1097 12.6069 79.9215L12.7481 80.0156C12.654 80.1567 12.654 80.3449 12.6069 80.533C12.654 80.9564 12.8892 81.3327 13.1714 81.6149C13.4066 81.8501 13.6889 81.9913 14.0182 82.0854C14.1593 82.1324 14.3004 82.1324 14.4415 82.1324H14.5826C14.8178 82.0854 15.053 81.9442 15.1942 81.7561V81.709C15.4294 81.5209 15.5705 81.1916 15.5705 80.8623C15.5705 80.5801 15.4764 80.3449 15.2883 80.1567C15.2412 80.1567 15.2412 80.1097 15.1942 80.1097C15.006 79.8745 14.7708 79.6863 14.5826 79.4981L14.2534 79.1688C14.1122 79.0277 14.0182 78.8866 13.877 78.7455C13.83 78.6984 13.783 78.6514 13.783 78.6044C13.6889 78.4632 13.6418 78.2751 13.6418 78.0869V77.8517L13.6889 77.7576V77.7106L13.7359 77.6636C13.783 77.6165 13.83 77.5695 13.83 77.5224C14.0652 77.2402 14.2534 76.9579 14.3945 76.6287C14.4415 76.5816 14.4415 76.5346 14.4886 76.4875C14.5356 76.3935 14.5826 76.2523 14.5826 76.1112C14.5826 76.0642 14.5826 76.0171 14.5356 75.9701H14.8178C14.959 76.0642 15.053 76.2053 15.1942 76.3464C16.182 77.2402 18.7692 79.8274 18.7692 79.8274H22.2032V73.9474H21.2153L21.8269 73.524L21.968 73.4299L22.1091 73.3358L22.2032 73.2418L22.3443 73.1006C22.4854 72.9595 22.5795 72.8184 22.7206 72.6773L22.8617 72.5362L23.0499 72.1598Z" fill="#A1A1A1"/>
</svg>
