<svg width="176" height="176" viewBox="0 0 176 176" fill="none" xmlns="http://www.w3.org/2000/svg">
<path d="M88.1058 77.9854C68.0418 75.627 58.6786 74.6062 44.2114 72.9166C43.7186 72.9166 43.2962 72.8462 43.3666 73.6558C46.4994 84.3214 46.9218 86.0814 51.005 99.915C51.885 102.414 53.293 103.083 54.6658 103.083H121.335C122.707 103.083 124.115 102.414 124.995 99.915C129.043 86.0814 129.501 84.3214 132.634 73.6558C132.704 72.8462 132.282 72.9166 131.789 72.9166C117.322 74.6062 108.17 75.627 88.1058 77.9854Z" fill="white"/>
<path d="M88.1058 77.9854C68.0418 75.627 58.6786 74.6062 44.2114 72.9166C43.7186 72.9166 43.2962 72.8462 43.3666 73.6558C46.4994 84.3214 46.9218 86.0814 51.005 99.915C51.885 102.414 53.293 103.083 54.6658 103.083H121.335C122.707 103.083 124.115 102.414 124.995 99.915C129.043 86.0814 129.501 84.3214 132.634 73.6558C132.704 72.8462 132.282 72.9166 131.789 72.9166C117.322 74.6238 108.17 75.627 88.1058 77.9854Z" stroke="white" stroke-width="2.02" stroke-miterlimit="3.86"/>
<path d="M87.9999 79.4641C106.093 77.4225 116.899 76.0497 129.853 74.5713C130.31 74.5361 130.733 74.2545 130.522 75.0289C128.726 81.3297 128.163 83.3009 124.925 94.4945C124.291 96.5361 123.376 96.2897 121.933 96.2897H54.0671C52.6239 96.2897 51.7087 96.5361 51.0751 94.4945C47.8367 83.3009 47.2735 81.3649 45.4783 75.0289C45.2671 74.2545 45.6895 74.5361 46.1471 74.5713C59.1359 76.0849 69.9071 77.4577 87.9999 79.4641Z" fill="white"/>
<path d="M87.9999 79.4641C106.093 77.4225 116.899 76.0497 129.853 74.5713C130.31 74.5361 130.733 74.2545 130.522 75.0289C128.726 81.3297 128.163 83.3009 124.925 94.4945C124.291 96.5361 123.376 96.2897 121.933 96.2897H54.0671C52.6239 96.2897 51.7087 96.5361 51.0751 94.4945C47.8367 83.3009 47.2735 81.3649 45.4783 75.0289C45.2671 74.2545 45.6895 74.5361 46.1471 74.5713C59.1359 76.0849 69.9071 77.4577 87.9999 79.4641Z" stroke="white" stroke-width="2.02" stroke-miterlimit="3.86"/>
<path fill-rule="evenodd" clip-rule="evenodd" d="M56.1793 98.5602H56.3905C56.6519 98.5602 56.9026 98.6641 57.0874 98.8489C57.2723 99.0337 57.3761 99.2844 57.3761 99.5458C57.3761 99.8072 57.2723 100.058 57.0874 100.243C56.9026 100.428 56.6519 100.531 56.3905 100.531H56.1793V98.5602ZM55.2993 101.235H56.5665C57.0273 101.236 57.4697 101.055 57.7987 100.732C58.1278 100.41 58.3173 99.9713 58.3265 99.5106C58.3251 99.2815 58.2784 99.055 58.1891 98.844C58.0997 98.6331 57.9694 98.4419 57.8058 98.2816C57.6422 98.1212 57.4484 97.9949 57.2357 97.9098C57.023 97.8247 56.7956 97.7826 56.5665 97.7858H55.2993V101.235Z" fill="white"/>
<path d="M56.1793 98.5602H56.3905C56.6519 98.5602 56.9026 98.6641 57.0874 98.8489C57.2723 99.0337 57.3761 99.2844 57.3761 99.5458C57.3761 99.8072 57.2723 100.058 57.0874 100.243C56.9026 100.428 56.6519 100.531 56.3905 100.531H56.1793V98.5602ZM55.2993 101.235H56.5665C57.0273 101.236 57.4697 101.055 57.7987 100.732C58.1278 100.41 58.3173 99.9713 58.3265 99.5106C58.3251 99.2815 58.2784 99.055 58.1891 98.844C58.0997 98.6331 57.9694 98.4419 57.8058 98.2816C57.6422 98.1212 57.4484 97.9949 57.2357 97.9098C57.023 97.8247 56.7956 97.7826 56.5665 97.7858H55.2993V101.235Z" stroke="white" stroke-width="0.12" stroke-miterlimit="3.86"/>
<path fill-rule="evenodd" clip-rule="evenodd" d="M64.7681 98.507C65.0187 98.5029 65.2612 98.5959 65.4449 98.7664C65.6286 98.937 65.7392 99.1719 65.7537 99.4222C65.7686 99.6204 65.7233 99.8186 65.6239 99.9907C65.5245 100.163 65.3755 100.301 65.1963 100.387C65.0172 100.474 64.8162 100.504 64.6197 100.474C64.4231 100.444 64.24 100.356 64.0943 100.221C63.9486 100.086 63.8471 99.9096 63.8029 99.7157C63.7588 99.5219 63.7741 99.3192 63.8468 99.1342C63.9196 98.9492 64.0464 98.7904 64.2107 98.6785C64.375 98.5666 64.5693 98.5068 64.7681 98.507ZM64.7681 97.6622C64.4028 97.6728 64.0489 97.7914 63.751 98.0031C63.4532 98.2148 63.2247 98.5101 63.0947 98.8516C62.9646 99.1931 62.9387 99.5655 63.0202 99.9217C63.1018 100.278 63.2871 100.602 63.5528 100.853C63.8184 101.104 64.1525 101.27 64.5128 101.331C64.8731 101.392 65.2434 101.345 65.577 101.196C65.9105 101.047 66.1922 100.802 66.3866 100.492C66.5809 100.183 66.6792 99.8227 66.6689 99.4574C66.6678 99.2129 66.6171 98.9712 66.5198 98.7469C66.4226 98.5227 66.2808 98.3205 66.103 98.1526C65.9253 97.9848 65.7154 97.8547 65.4859 97.7704C65.2564 97.6861 65.0122 97.6493 64.7681 97.6622Z" fill="white"/>
<path d="M64.7681 98.507C65.0187 98.5029 65.2612 98.5959 65.4449 98.7664C65.6286 98.937 65.7392 99.1719 65.7537 99.4222C65.7686 99.6204 65.7233 99.8186 65.6239 99.9907C65.5245 100.163 65.3755 100.301 65.1963 100.387C65.0172 100.474 64.8162 100.504 64.6197 100.474C64.4231 100.444 64.24 100.356 64.0943 100.221C63.9486 100.086 63.8471 99.9096 63.8029 99.7157C63.7588 99.5219 63.7741 99.3192 63.8468 99.1342C63.9196 98.9492 64.0464 98.7904 64.2107 98.6785C64.375 98.5666 64.5693 98.5068 64.7681 98.507ZM64.7681 97.6622C64.4028 97.6728 64.0489 97.7914 63.751 98.0031C63.4532 98.2148 63.2247 98.5101 63.0947 98.8516C62.9646 99.1931 62.9387 99.5655 63.0202 99.9217C63.1018 100.278 63.2871 100.602 63.5528 100.853C63.8184 101.104 64.1525 101.27 64.5128 101.331C64.8731 101.392 65.2434 101.345 65.577 101.196C65.9105 101.047 66.1922 100.802 66.3866 100.492C66.5809 100.183 66.6792 99.8227 66.6689 99.4574C66.6678 99.2129 66.6171 98.9712 66.5198 98.7469C66.4226 98.5227 66.2808 98.3205 66.103 98.1526C65.9253 97.9848 65.7154 97.8547 65.4859 97.7704C65.2564 97.6861 65.0122 97.6493 64.7681 97.6622Z" stroke="white" stroke-width="0.12" stroke-miterlimit="3.86"/>
<path fill-rule="evenodd" clip-rule="evenodd" d="M73.5681 97.7329V99.5633C73.5681 100.021 73.5329 100.514 72.9697 100.514C72.4065 100.514 72.3713 100.021 72.3713 99.5633V97.7329H71.4561V99.6689C71.4086 100.11 71.5349 100.552 71.8081 100.901C72.1319 101.173 72.5473 101.312 72.9697 101.288C73.3913 101.306 73.8048 101.168 74.1313 100.901C74.4833 100.549 74.4833 100.127 74.4833 99.6689V97.7329H73.5681Z" fill="white"/>
<path d="M73.5681 97.7329V99.5633C73.5681 100.021 73.5329 100.514 72.9697 100.514C72.4065 100.514 72.3713 100.021 72.3713 99.5633V97.7329H71.4561V99.6689C71.4086 100.11 71.5349 100.552 71.8081 100.901C72.1319 101.173 72.5473 101.312 72.9697 101.288C73.3913 101.306 73.8048 101.168 74.1313 100.901C74.4833 100.549 74.4833 100.127 74.4833 99.6689V97.7329H73.5681Z" stroke="white" stroke-width="0.12" stroke-miterlimit="3.86"/>
<path d="M81.1007 99.2814V99.9854H81.7695C81.75 100.162 81.6614 100.325 81.5229 100.437C81.3845 100.549 81.2075 100.602 81.0303 100.584C80.4319 100.584 80.1151 100.021 80.1151 99.4926C80.1151 98.9646 80.4319 98.4014 81.0303 98.4014C81.1989 98.3985 81.3635 98.4525 81.4976 98.5547C81.6318 98.6569 81.7275 98.8013 81.7695 98.9646L82.6143 98.6126C82.4862 98.3109 82.2696 98.0551 81.993 97.8791C81.7165 97.7031 81.3931 97.6152 81.0655 97.627C80.7536 97.6245 80.4463 97.701 80.1719 97.8492C79.8976 97.9975 79.6653 98.2128 79.4965 98.475C79.3278 98.7373 79.2282 99.0379 79.2069 99.349C79.1857 99.6601 79.2435 99.9716 79.375 100.254C79.5065 100.537 79.7074 100.782 79.9591 100.966C80.2107 101.15 80.5048 101.268 80.8141 101.308C81.1234 101.348 81.4377 101.309 81.7278 101.194C82.018 101.08 82.2745 100.894 82.4735 100.654C82.7454 100.251 82.8698 99.7659 82.8255 99.2814H81.1007Z" fill="white"/>
<path d="M81.1007 99.2814V99.9854H81.7695C81.75 100.162 81.6614 100.325 81.5229 100.437C81.3845 100.549 81.2075 100.602 81.0303 100.584C80.4319 100.584 80.1151 100.021 80.1151 99.4926C80.1151 98.9646 80.4319 98.4014 81.0303 98.4014C81.1989 98.3985 81.3635 98.4525 81.4976 98.5547C81.6318 98.6569 81.7275 98.8013 81.7695 98.9646L82.6143 98.6126C82.4862 98.3109 82.2696 98.0551 81.993 97.8791C81.7165 97.7031 81.3931 97.6152 81.0655 97.627C80.7536 97.6245 80.4463 97.701 80.1719 97.8492C79.8976 97.9975 79.6653 98.2128 79.4965 98.475C79.3278 98.7373 79.2282 99.0379 79.2069 99.349C79.1857 99.6601 79.2435 99.9716 79.375 100.254C79.5065 100.537 79.7074 100.782 79.9591 100.966C80.2107 101.15 80.5048 101.268 80.8141 101.308C81.1234 101.348 81.4377 101.309 81.7278 101.194C82.018 101.08 82.2745 100.894 82.4735 100.654C82.7454 100.251 82.8698 99.7659 82.8255 99.2814H81.1007Z" stroke="white" stroke-width="0.12" stroke-miterlimit="3.86"/>
<path fill-rule="evenodd" clip-rule="evenodd" d="M88.4225 99.1057V97.7681H87.5073V101.218H88.4225V99.8097H89.7249V101.218H90.6049V97.7681H89.7249V99.1057H88.4225Z" fill="white"/>
<path d="M88.4225 99.1057V97.7681H87.5073V101.218H88.4225V99.8097H89.7249V101.218H90.6049V97.7681H89.7249V99.1057H88.4225Z" stroke="white" stroke-width="0.12" stroke-miterlimit="3.86"/>
<path fill-rule="evenodd" clip-rule="evenodd" d="M95.5327 101.218H96.4127V99.1057L98.0671 101.218H98.9823V97.7681H98.0671V99.8801L96.4127 97.7681H95.5327V101.218Z" fill="white"/>
<path d="M95.5327 101.218H96.4127V99.1057L98.0671 101.218H98.9823V97.7681H98.0671V99.8801L96.4127 97.7681H95.5327V101.218Z" stroke="white" stroke-width="0.12" stroke-miterlimit="3.86"/>
<path fill-rule="evenodd" clip-rule="evenodd" d="M105.987 97.7681V99.6161C105.987 100.074 105.952 100.566 105.389 100.566C104.825 100.566 104.79 100.074 104.79 99.6161V97.7857H103.875V99.7217C103.828 100.162 103.954 100.604 104.227 100.954C104.551 101.226 104.966 101.364 105.389 101.341C105.81 101.359 106.224 101.221 106.55 100.954C106.902 100.602 106.902 100.179 106.902 99.7217V97.7857H105.987" fill="white"/>
<path d="M105.987 97.7681V99.6161C105.987 100.074 105.952 100.566 105.389 100.566C104.825 100.566 104.79 100.074 104.79 99.6161V97.7857H103.875V99.7217C103.828 100.162 103.954 100.604 104.227 100.954C104.551 101.226 104.966 101.364 105.389 101.341C105.81 101.359 106.224 101.221 106.55 100.954C106.902 100.602 106.902 100.179 106.902 99.7217V97.7857L105.987 97.7681Z" stroke="white" stroke-width="0.12" stroke-miterlimit="3.86"/>
<path d="M113.133 98.5425H114.154V97.7681H111.197V98.5425H112.218V101.218H113.133V98.5425Z" fill="white"/>
<path d="M113.133 98.5425H114.154V97.7681H111.197V98.5425H112.218V101.218H113.133V98.5425Z" stroke="white" stroke-width="0.12" stroke-miterlimit="3.86"/>
<path fill-rule="evenodd" clip-rule="evenodd" d="M120.771 97.944C120.435 97.7648 120.061 97.6682 119.68 97.6624C119.523 97.6514 119.365 97.6736 119.217 97.7276C119.07 97.7816 118.935 97.8662 118.822 97.9758C118.709 98.0854 118.62 98.2176 118.562 98.3638C118.504 98.5099 118.477 98.6667 118.483 98.824C118.483 99.4928 118.87 99.6336 119.433 99.8096C119.609 99.88 119.997 99.9504 119.997 100.197C119.997 100.443 119.785 100.549 119.574 100.549C119.274 100.521 118.99 100.398 118.765 100.197L118.377 100.936C118.738 101.189 119.169 101.325 119.609 101.323C119.963 101.326 120.309 101.215 120.595 101.006C120.72 100.884 120.816 100.735 120.877 100.57C120.938 100.406 120.962 100.231 120.947 100.056C120.947 99.4928 120.56 99.2464 120.102 99.1056L119.856 99.0352C119.715 99 119.469 98.8944 119.469 98.7184C119.469 98.5424 119.68 98.4368 119.856 98.4368C120.077 98.4503 120.288 98.537 120.454 98.6832L120.771 97.944Z" fill="white"/>
<path d="M120.771 97.944C120.435 97.7648 120.061 97.6682 119.68 97.6624C119.523 97.6514 119.365 97.6736 119.217 97.7276C119.07 97.7816 118.935 97.8662 118.822 97.9758C118.709 98.0854 118.62 98.2176 118.562 98.3638C118.504 98.5099 118.477 98.6667 118.483 98.824C118.483 99.4928 118.87 99.6336 119.433 99.8096C119.609 99.88 119.997 99.9504 119.997 100.197C119.997 100.443 119.785 100.549 119.574 100.549C119.274 100.521 118.99 100.398 118.765 100.197L118.377 100.936C118.738 101.189 119.169 101.325 119.609 101.323C119.963 101.326 120.309 101.215 120.595 101.006C120.72 100.884 120.816 100.735 120.877 100.57C120.938 100.406 120.962 100.231 120.947 100.056C120.947 99.4928 120.56 99.2464 120.102 99.1056L119.856 99.0352C119.715 99 119.469 98.8944 119.469 98.7184C119.469 98.5424 119.68 98.4368 119.856 98.4368C120.077 98.4503 120.288 98.537 120.454 98.6832L120.771 97.944Z" stroke="white" stroke-width="0.12" stroke-miterlimit="3.86"/>
<path d="M71.4911 81.0127H87.1551C87.4838 81.0267 87.812 80.9748 88.1203 80.8599C88.4287 80.745 88.7108 80.5696 88.9503 80.3439C89.1615 80.1679 89.3727 80.1679 89.3727 80.3791C89.3727 80.4847 88.1759 83.1951 86.5567 83.1951H71.4911C71.7414 82.8865 71.8781 82.5013 71.8781 82.1039C71.8781 81.7065 71.7414 81.3213 71.4911 81.0127ZM77.4399 87.5247C77.2991 87.7711 76.3135 90.2703 76.3135 90.2703C76.0319 90.9391 76.4543 91.2911 76.7359 91.3615C77.3695 91.5375 78.0031 91.0447 78.6719 89.2847C79.7279 86.5039 77.7567 86.8911 77.4399 87.5247ZM70.3999 89.8127C71.3503 90.2351 70.9631 91.5727 70.2943 91.7135C69.9775 91.9599 71.2799 92.5935 71.8431 91.2911C72.4063 89.9887 71.6671 88.6863 71.5967 88.3695C71.1709 88.8277 70.7713 89.3095 70.3999 89.8127ZM78.4255 91.9599C80.0447 91.4671 81.3823 89.3551 81.6639 88.6511C82.2975 86.9967 82.8255 85.7295 82.8255 85.7295H84.7615C84.7615 85.7295 83.3887 89.0383 82.7903 90.6927C82.2271 92.2767 83.8111 90.9391 84.4799 89.1791C85.0431 87.6655 85.7823 85.7999 85.7823 85.7999H87.7887C87.7887 85.7999 85.4655 91.5727 85.2191 92.1007C85.9583 91.8895 86.9087 92.4879 86.8031 92.7343C86.4863 93.7199 86.2751 92.2415 84.9023 92.6639C84.1631 94.4943 82.4735 96.1135 81.1359 95.9023C79.4111 95.6559 80.4319 93.2975 83.3183 92.4527L83.5647 91.7487C82.0863 92.9807 80.6431 92.2415 80.9951 90.7983C80.5766 91.3544 80.0256 91.7971 79.3924 92.0861C78.7592 92.375 78.0638 92.501 77.3695 92.4527C77.064 92.5044 76.7502 92.4691 76.4638 92.3508C76.1775 92.2325 75.9302 92.0361 75.7503 91.7839C75.2927 93.0159 74.6239 94.6351 74.6239 94.6351H72.7231L73.7087 92.1359C73.0261 92.5329 72.245 92.7282 71.4559 92.6991C71.0077 92.8455 70.5199 92.8094 70.0981 92.5986C69.6764 92.3877 69.3548 92.0191 69.2031 91.5727C67.7951 93.4383 66.2463 92.7695 66.0351 91.6079C65.4367 92.2415 64.7679 92.6991 64.1695 92.6991C62.7263 92.6287 63.0783 90.4815 63.3247 89.7423C63.9935 87.8415 64.6975 87.0671 63.3599 87.0319C63.1487 87.0319 61.5295 93.2271 58.6079 93.5087C55.8975 93.7551 56.9535 91.6079 57.4111 90.3759C58.1151 88.4047 58.8895 87.4191 58.5023 86.6799C58.2207 86.1167 56.5663 87.2783 56.0735 88.5455C55.4399 90.1647 54.1023 93.5439 54.1023 93.5439L51.5679 93.6143C51.5679 93.6143 53.6447 88.3343 55.6863 83.0543C56.3551 81.3295 55.3343 81.2943 54.5599 81.3295C53.9263 81.3647 54.1727 80.8015 54.6303 80.7663C57.0591 80.5903 57.9391 80.6255 58.2207 80.8015C58.4017 80.9276 58.5372 81.1088 58.6069 81.3181C58.6767 81.5274 58.677 81.7536 58.6079 81.9631C58.1503 83.1247 57.3407 85.1663 57.2351 85.5183C56.8831 86.5391 57.6223 85.5535 57.8335 85.3071C58.0447 85.0607 59.5935 83.3359 59.8751 82.9135C60.1567 82.4911 61.5999 81.0831 62.5151 81.0831H68.8511C68.6007 81.3917 68.4641 81.7769 68.4641 82.1743C68.4641 82.5717 68.6007 82.9569 68.8511 83.2655H61.6351C61.1423 83.2655 60.0511 83.8639 59.2063 84.8847C58.5023 85.7295 59.4175 85.4479 59.4175 85.4479C60.8255 85.3071 62.0927 84.9903 59.8751 89.8479C57.7631 94.4943 60.9311 92.3119 62.7615 86.6799C62.8319 86.4687 62.2687 86.2223 62.2687 85.8351C62.2335 85.3423 62.0927 84.7791 62.9727 84.7791C63.8527 84.7791 63.5359 85.6591 64.2751 85.8703C65.7535 86.3279 66.5631 85.8703 65.7887 87.7359C65.0495 89.5311 64.2399 91.7839 65.1903 91.5023C65.5858 91.3754 65.9149 91.0969 66.1055 90.7279C67.1263 87.9471 68.0063 85.7647 68.0063 85.7647H69.9071C69.9071 85.7647 69.2031 87.5599 67.8303 91.0095C67.3375 92.2063 68.3231 91.5375 69.0271 90.7631C69.0429 90.5587 69.1179 90.3633 69.2429 90.2008C69.3679 90.0382 69.5375 89.9156 69.7311 89.8479C70.4703 88.7567 72.8991 85.3423 72.8991 85.3423C72.9514 85.3913 72.9839 85.4578 72.9904 85.5292C72.9969 85.6006 72.9769 85.6719 72.9343 85.7295C72.7231 86.0463 73.1103 87.6655 73.2863 88.1935C73.5679 89.0031 73.9903 91.0095 72.8639 91.9599C72.658 92.136 72.4338 92.2894 72.1951 92.4175C72.8095 92.2902 73.3871 92.0254 73.8847 91.6431L76.1727 85.7647H78.0735C78.0735 85.7647 78.0031 85.9407 77.8975 86.2223C78.1312 86.0186 78.4069 85.8688 78.705 85.7837C79.003 85.6985 79.3162 85.68 79.6223 85.7295C80.1503 85.8703 81.9103 86.0111 79.9391 90.0239C79.5816 90.7718 79.065 91.4326 78.4255 91.9599ZM81.5583 94.7055C82.1671 94.3251 82.6649 93.7909 83.0015 93.1567C82.3889 93.3352 81.8238 93.6478 81.3471 94.0719C80.7487 94.5999 81.0303 95.0575 81.5583 94.7055ZM69.0975 82.1039C69.0975 81.902 69.1573 81.7046 69.2695 81.5368C69.3817 81.3689 69.5411 81.2381 69.7276 81.1608C69.9142 81.0835 70.1194 81.0633 70.3174 81.1027C70.5154 81.1421 70.6973 81.2393 70.8401 81.3821C70.9828 81.5248 71.0801 81.7067 71.1195 81.9047C71.1588 82.1028 71.1386 82.308 71.0614 82.4945C70.9841 82.6811 70.8533 82.8405 70.6854 82.9527C70.5175 83.0648 70.3202 83.1247 70.1183 83.1247C69.9842 83.1247 69.8515 83.0983 69.7276 83.047C69.6038 82.9957 69.4912 82.9205 69.3965 82.8257C69.3017 82.7309 69.2265 82.6184 69.1752 82.4945C69.1239 82.3707 69.0975 82.2379 69.0975 82.1039ZM104.157 89.2847C105.142 89.3199 106.304 88.7215 106.55 88.2639C106.797 87.8063 106.761 86.9615 106.128 86.9263C105.565 86.9439 104.473 87.4191 104.157 89.2847ZM123.481 90.9039C121.616 93.4383 118.835 93.1215 118.166 90.7631C117.709 91.6783 117.04 92.5935 115.808 92.6991C114.329 92.8399 114.189 91.3615 114.365 90.5871C114.541 89.8127 114.787 89.4607 115.385 87.7711C115.808 86.6095 114.576 87.2079 113.872 88.3343C113.379 89.7071 112.217 92.6991 112.217 92.6991C112.217 92.6991 111.619 92.6639 110.317 92.6287C110.493 91.8191 111.549 89.4607 112.147 87.7711C112.569 86.5743 111.302 87.2079 110.598 88.3695C110.563 88.4047 110.563 88.4399 110.528 88.4751L108.838 92.6639H106.867L107.501 91.0799C107.29 91.3063 107.054 91.5071 106.797 91.6783C104.262 93.4735 103.065 92.1711 102.643 90.9039C101.904 91.7839 101.024 92.5935 100.249 92.5583C98.8063 92.4879 99.1583 90.3407 99.4047 89.6015C100.073 87.7007 100.777 86.9263 99.4399 86.8911C99.2287 86.8911 97.6095 93.0863 94.6879 93.3679C91.9775 93.6143 93.0335 91.4671 93.4911 90.2351C94.1951 88.2639 94.9695 87.2783 94.5823 86.5391C94.3007 85.9759 92.6463 87.1375 92.1535 88.4047C91.5199 90.0239 90.1823 93.4031 90.1823 93.4031L87.6479 93.4383C87.6479 93.4383 89.7247 88.1583 91.7663 82.8783C92.4351 81.1535 91.4143 81.1183 90.6399 81.1535C90.0063 81.1887 90.2527 80.6255 90.7103 80.5903C93.1391 80.4143 94.0191 80.4495 94.3007 80.6255C94.4751 80.7572 94.6055 80.9388 94.6747 81.1462C94.7438 81.3536 94.7484 81.577 94.6879 81.7871C94.2303 82.9487 93.4207 84.9903 93.3151 85.3071C92.9631 86.3631 93.7023 85.3423 93.9135 85.0959C94.1247 84.8495 95.6735 83.1247 95.9551 82.7023C96.2367 82.2799 97.6799 80.8719 98.6303 80.8719H123.305C123.634 80.8859 123.962 80.834 124.271 80.7191C124.579 80.6042 124.861 80.4288 125.101 80.2031C125.312 80.0271 125.523 80.0271 125.523 80.2383C125.523 80.3439 124.326 83.0543 122.707 83.0543H97.7503C97.2575 83.0543 96.1663 83.6527 95.3215 84.6735C94.6175 85.5183 95.5327 85.2367 95.5327 85.2367C96.9407 85.0959 98.2079 84.7791 95.9903 89.6367C93.8783 94.2831 97.0463 92.1007 98.8767 86.4687C98.9471 86.2575 98.3839 86.0111 98.3839 85.6239C98.3487 85.1311 98.2079 84.5679 99.0879 84.5679C99.9679 84.5679 99.6511 85.4479 100.39 85.6591C101.869 86.1167 102.678 85.6591 101.904 87.5247C101.165 89.3199 100.355 91.5727 101.305 91.2911C102.08 91.0799 102.326 90.2351 102.467 89.9887V89.7775C102.608 87.9119 103.699 86.3279 104.614 85.9055C106.832 84.9199 107.712 86.1871 107.641 87.3487C107.536 88.7919 105.917 89.7775 104.086 89.8127C104.051 89.7775 104.051 89.8127 104.086 90.0943C104.368 92.1711 106.726 91.0447 107.993 89.6367L109.613 85.5535H111.654L111.232 86.9439C112.745 85.1487 114.365 85.6415 114.224 87.1903L114.294 87.1199C116.019 84.8671 117.99 85.7119 117.321 87.7535C117.216 88.0703 116.23 90.8511 116.23 90.8511C116.23 90.8511 115.913 91.8015 116.512 91.8015C117.04 91.8015 117.709 90.8863 118.025 90.0415V89.9711C117.92 88.1055 119.081 86.5215 119.997 86.1343C122.214 85.1839 123.165 86.4159 123.165 87.5775C123.165 89.0207 121.545 89.9711 119.68 90.0415C119.645 90.0063 119.645 90.0415 119.68 90.3231C120.173 92.7871 122.637 91.1679 123.024 90.7103C123.939 89.5311 123.904 90.3407 123.481 90.9039ZM119.645 89.2847C120.63 89.3199 121.792 88.7215 122.038 88.2639C122.285 87.8063 122.179 86.9615 121.545 86.9263C120.982 86.9439 119.891 87.4191 119.645 89.2847Z" fill="white"/>
<path d="M78.4255 91.9599C80.0447 91.4671 81.3823 89.3551 81.6639 88.6511C82.2975 86.9967 82.8255 85.7295 82.8255 85.7295H84.7615C84.7615 85.7295 83.3887 89.0383 82.7903 90.6927C82.2271 92.2767 83.8111 90.9391 84.4799 89.1791C85.0431 87.6655 85.7823 85.7999 85.7823 85.7999H87.7887C87.7887 85.7999 85.4655 91.5727 85.2191 92.1007C85.9583 91.8895 86.9087 92.4879 86.8031 92.7343C86.4863 93.7199 86.2751 92.2415 84.9023 92.6639C84.1631 94.4943 82.4735 96.1135 81.1359 95.9023C79.4111 95.6559 80.4319 93.2975 83.3183 92.4527L83.5647 91.7487C82.0863 92.9807 80.6431 92.2415 80.9951 90.7983C80.5766 91.3544 80.0256 91.7971 79.3924 92.0861C78.7592 92.375 78.0638 92.501 77.3695 92.4527C77.064 92.5044 76.7502 92.4691 76.4638 92.3508C76.1775 92.2325 75.9302 92.0361 75.7503 91.7839C75.2927 93.0159 74.6239 94.6351 74.6239 94.6351H72.7231L73.7087 92.1359C73.0261 92.5329 72.245 92.7282 71.4559 92.6991C71.0077 92.8455 70.5199 92.8094 70.0981 92.5986C69.6764 92.3877 69.3548 92.0191 69.2031 91.5727C67.7951 93.4383 66.2463 92.7695 66.0351 91.6079C65.4367 92.2415 64.7679 92.6991 64.1695 92.6991C62.7263 92.6287 63.0783 90.4815 63.3247 89.7423C63.9935 87.8415 64.6975 87.0671 63.3599 87.0319C63.1487 87.0319 61.5295 93.2271 58.6079 93.5087C55.8975 93.7551 56.9535 91.6079 57.4111 90.3759C58.1151 88.4047 58.8895 87.4191 58.5023 86.6799C58.2207 86.1167 56.5663 87.2783 56.0735 88.5455C55.4399 90.1647 54.1023 93.5439 54.1023 93.5439L51.5679 93.6143C51.5679 93.6143 53.6447 88.3343 55.6863 83.0543C56.3551 81.3295 55.3343 81.2943 54.5599 81.3295C53.9263 81.3647 54.1727 80.8015 54.6303 80.7663C57.0591 80.5903 57.9391 80.6255 58.2207 80.8015C58.4017 80.9276 58.5372 81.1088 58.6069 81.3181C58.6767 81.5274 58.677 81.7536 58.6079 81.9631C58.1503 83.1247 57.3407 85.1663 57.2351 85.5183C56.8831 86.5391 57.6223 85.5535 57.8335 85.3071C58.0447 85.0607 59.5935 83.3359 59.8751 82.9135C60.1567 82.4911 61.5999 81.0831 62.5151 81.0831H68.8511C68.6007 81.3917 68.4641 81.7769 68.4641 82.1743C68.4641 82.5717 68.6007 82.9569 68.8511 83.2655H61.6351C61.1423 83.2655 60.0511 83.8639 59.2063 84.8847C58.5023 85.7295 59.4175 85.4479 59.4175 85.4479C60.8255 85.3071 62.0927 84.9903 59.8751 89.8479C57.7631 94.4943 60.9311 92.3119 62.7615 86.6799C62.8319 86.4687 62.2687 86.2223 62.2687 85.8351C62.2335 85.3423 62.0927 84.7791 62.9727 84.7791C63.8527 84.7791 63.5359 85.6591 64.2751 85.8703C65.7535 86.3279 66.5631 85.8703 65.7887 87.7359C65.0495 89.5311 64.2399 91.7839 65.1903 91.5023C65.5858 91.3754 65.9149 91.0969 66.1055 90.7279C67.1263 87.9471 68.0063 85.7647 68.0063 85.7647H69.9071C69.9071 85.7647 69.2031 87.5599 67.8303 91.0095C67.3375 92.2063 68.3231 91.5375 69.0271 90.7631C69.0429 90.5587 69.1179 90.3633 69.2429 90.2008C69.3679 90.0382 69.5375 89.9156 69.7311 89.8479C70.4703 88.7567 72.8991 85.3423 72.8991 85.3423C72.9514 85.3913 72.9839 85.4578 72.9904 85.5292C72.9969 85.6006 72.9769 85.6719 72.9343 85.7295C72.7231 86.0463 73.1103 87.6655 73.2863 88.1935C73.5679 89.0031 73.9903 91.0095 72.8639 91.9599C72.658 92.136 72.4338 92.2894 72.1951 92.4175C72.8095 92.2902 73.3871 92.0254 73.8847 91.6431L76.1727 85.7647H78.0735C78.0735 85.7647 78.0031 85.9407 77.8975 86.2223C78.1312 86.0186 78.4069 85.8688 78.705 85.7837C79.003 85.6985 79.3162 85.68 79.6223 85.7295C80.1503 85.8703 81.9103 86.0111 79.9391 90.0239C79.5816 90.7718 79.065 91.4326 78.4255 91.9599ZM81.5583 94.7055C82.1671 94.3251 82.6649 93.7909 83.0015 93.1567C82.3889 93.3352 81.8238 93.6478 81.3471 94.0719C80.7487 94.5999 81.0303 95.0575 81.5583 94.7055ZM69.0975 82.1039C69.0975 81.902 69.1573 81.7046 69.2695 81.5368C69.3817 81.3689 69.5411 81.2381 69.7276 81.1608C69.9142 81.0835 70.1194 81.0633 70.3174 81.1027C70.5154 81.1421 70.6973 81.2393 70.8401 81.3821C70.9828 81.5248 71.0801 81.7067 71.1195 81.9047C71.1588 82.1028 71.1386 82.308 71.0614 82.4945C70.9841 82.6811 70.8533 82.8405 70.6854 82.9527C70.5175 83.0648 70.3202 83.1247 70.1183 83.1247C69.9842 83.1247 69.8515 83.0983 69.7276 83.047C69.6038 82.9957 69.4912 82.9205 69.3965 82.8257C69.3017 82.7309 69.2265 82.6184 69.1752 82.4945C69.1239 82.3707 69.0975 82.2379 69.0975 82.1039ZM104.157 89.2847C105.142 89.3199 106.304 88.7215 106.55 88.2639C106.797 87.8063 106.761 86.9615 106.128 86.9263C105.565 86.9439 104.473 87.4191 104.157 89.2847ZM123.481 90.9039C121.616 93.4383 118.835 93.1215 118.166 90.7631C117.709 91.6783 117.04 92.5935 115.808 92.6991C114.329 92.8399 114.189 91.3615 114.365 90.5871C114.541 89.8127 114.787 89.4607 115.385 87.7711C115.808 86.6095 114.576 87.2079 113.872 88.3343C113.379 89.7071 112.217 92.6991 112.217 92.6991C112.217 92.6991 111.619 92.6639 110.317 92.6287C110.493 91.8191 111.549 89.4607 112.147 87.7711C112.569 86.5743 111.302 87.2079 110.598 88.3695C110.563 88.4047 110.563 88.4399 110.528 88.4751L108.838 92.6639H106.867L107.501 91.0799C107.29 91.3063 107.054 91.5071 106.797 91.6783C104.262 93.4735 103.065 92.1711 102.643 90.9039C101.904 91.7839 101.024 92.5935 100.249 92.5583C98.8063 92.4879 99.1583 90.3407 99.4047 89.6015C100.073 87.7007 100.777 86.9263 99.4399 86.8911C99.2287 86.8911 97.6095 93.0863 94.6879 93.3679C91.9775 93.6143 93.0335 91.4671 93.4911 90.2351C94.1951 88.2639 94.9695 87.2783 94.5823 86.5391C94.3007 85.9759 92.6463 87.1375 92.1535 88.4047C91.5199 90.0239 90.1823 93.4031 90.1823 93.4031L87.6479 93.4383C87.6479 93.4383 89.7247 88.1583 91.7663 82.8783C92.4351 81.1535 91.4143 81.1183 90.6399 81.1535C90.0063 81.1887 90.2527 80.6255 90.7103 80.5903C93.1391 80.4143 94.0191 80.4495 94.3007 80.6255C94.4751 80.7572 94.6055 80.9388 94.6747 81.1462C94.7438 81.3536 94.7484 81.577 94.6879 81.7871C94.2303 82.9487 93.4207 84.9903 93.3151 85.3071C92.9631 86.3631 93.7023 85.3423 93.9135 85.0959C94.1247 84.8495 95.6735 83.1247 95.9551 82.7023C96.2367 82.2799 97.6799 80.8719 98.6303 80.8719H123.305C123.634 80.8859 123.962 80.834 124.271 80.7191C124.579 80.6042 124.861 80.4288 125.101 80.2031C125.312 80.0271 125.523 80.0271 125.523 80.2383C125.523 80.3439 124.326 83.0543 122.707 83.0543H97.7503C97.2575 83.0543 96.1663 83.6527 95.3215 84.6735C94.6175 85.5183 95.5327 85.2367 95.5327 85.2367C96.9407 85.0959 98.2079 84.7791 95.9903 89.6367C93.8783 94.2831 97.0463 92.1007 98.8767 86.4687C98.9471 86.2575 98.3839 86.0111 98.3839 85.6239C98.3487 85.1311 98.2079 84.5679 99.0879 84.5679C99.9679 84.5679 99.6511 85.4479 100.39 85.6591C101.869 86.1167 102.678 85.6591 101.904 87.5247C101.165 89.3199 100.355 91.5727 101.305 91.2911C102.08 91.0799 102.326 90.2351 102.467 89.9887V89.7775C102.608 87.9119 103.699 86.3279 104.614 85.9055C106.832 84.9199 107.712 86.1871 107.641 87.3487C107.536 88.7919 105.917 89.7775 104.086 89.8127C104.051 89.7775 104.051 89.8127 104.086 90.0943C104.368 92.1711 106.726 91.0447 107.993 89.6367L109.613 85.5535H111.654L111.232 86.9439C112.745 85.1487 114.365 85.6415 114.224 87.1903L114.294 87.1199C116.019 84.8671 117.99 85.7119 117.321 87.7535C117.216 88.0703 116.23 90.8511 116.23 90.8511C116.23 90.8511 115.913 91.8015 116.512 91.8015C117.04 91.8015 117.709 90.8863 118.025 90.0415V89.9711C117.92 88.1055 119.081 86.5215 119.997 86.1343C122.214 85.1839 123.165 86.4159 123.165 87.5775C123.165 89.0207 121.545 89.9711 119.68 90.0415C119.645 90.0063 119.645 90.0415 119.68 90.3231C120.173 92.7871 122.637 91.1679 123.024 90.7103C123.939 89.5311 123.904 90.3407 123.481 90.9039ZM119.645 89.2847C120.63 89.3199 121.792 88.7215 122.038 88.2639C122.285 87.8063 122.179 86.9615 121.545 86.9263C120.982 86.9439 119.891 87.4191 119.645 89.2847Z" stroke="white" stroke-width="2.02" stroke-miterlimit="3.86"/>
<path d="M71.4914 81.013H87.1554C87.4841 81.027 87.8123 80.9751 88.1206 80.8602C88.429 80.7454 88.7112 80.5699 88.9506 80.3442C89.1618 80.1682 89.373 80.1682 89.373 80.3794C89.373 80.485 88.1762 83.1954 86.557 83.1954H71.4914C71.7417 82.8868 71.8784 82.5016 71.8784 82.1042C71.8784 81.7068 71.7417 81.3216 71.4914 81.013ZM77.4402 87.525C77.2994 87.7714 76.3138 90.2706 76.3138 90.2706C76.0322 90.9394 76.4546 91.2914 76.7362 91.3618C77.3698 91.5378 78.0034 91.045 78.6722 89.285C79.7282 86.5042 77.757 86.8914 77.4402 87.525ZM70.4002 89.813C71.3506 90.2354 70.9634 91.573 70.2946 91.7138C69.9778 91.9602 71.2802 92.5938 71.8434 91.2914C72.4066 89.989 71.6674 88.6866 71.597 88.3698C71.1712 88.828 70.7716 89.3098 70.4002 89.813Z" stroke="white" stroke-width="2.02" stroke-miterlimit="3.86"/>
<path d="M88.1058 77.9854C68.0418 75.627 58.6786 74.6062 44.2114 72.9166C43.7186 72.9166 43.2962 72.8462 43.3666 73.6558C46.4994 84.3214 46.9218 86.0814 51.005 99.915C51.885 102.414 53.293 103.083 54.6658 103.083H121.335C122.707 103.083 124.115 102.414 124.995 99.915C129.043 86.0814 129.501 84.3214 132.634 73.6558C132.704 72.8462 132.282 72.9166 131.789 72.9166C117.322 74.6062 108.17 75.627 88.1058 77.9854Z" fill="white"/>
<path d="M87.9999 79.4641C106.093 77.4225 116.899 76.0497 129.853 74.5713C130.31 74.5361 130.733 74.2545 130.522 75.0289C128.726 81.3297 128.163 83.3009 124.925 94.4945C124.291 96.5361 123.376 96.2897 121.933 96.2897H54.0671C52.6239 96.2897 51.7087 96.5361 51.0751 94.4945C47.8367 83.3009 47.2735 81.3649 45.4783 75.0289C45.2671 74.2545 45.6895 74.5361 46.1471 74.5713C59.1359 76.0849 69.9071 77.4577 87.9999 79.4641Z" fill="#A1A1A1"/>
<path d="M71.4911 81.0127H87.1551C87.4838 81.0267 87.812 80.9748 88.1203 80.8599C88.4287 80.745 88.7108 80.5696 88.9503 80.3439C89.1615 80.1679 89.3727 80.1679 89.3727 80.3791C89.3727 80.4847 88.1759 83.1951 86.5567 83.1951H71.4911C71.7414 82.8865 71.8781 82.5013 71.8781 82.1039C71.8781 81.7065 71.7414 81.3213 71.4911 81.0127ZM77.4399 87.5247C77.2991 87.7711 76.3135 90.2703 76.3135 90.2703C76.0319 90.9391 76.4543 91.2911 76.7359 91.3615C77.3695 91.5375 78.0031 91.0447 78.6719 89.2847C79.7279 86.5039 77.7567 86.8911 77.4399 87.5247ZM70.3999 89.8127C71.3503 90.2351 70.9631 91.5727 70.2943 91.7135C69.9775 91.9599 71.2799 92.5935 71.8431 91.2911C72.4063 89.9887 71.6671 88.6863 71.5967 88.3695C71.1709 88.8277 70.7713 89.3095 70.3999 89.8127ZM78.4255 91.9599C80.0447 91.4671 81.3823 89.3551 81.6639 88.6511C82.2975 86.9967 82.8255 85.7295 82.8255 85.7295H84.7615C84.7615 85.7295 83.3887 89.0383 82.7903 90.6927C82.2271 92.2767 83.8111 90.9391 84.4799 89.1791C85.0431 87.6655 85.7823 85.7999 85.7823 85.7999H87.7887C87.7887 85.7999 85.4655 91.5727 85.2191 92.1007C85.9583 91.8895 86.9087 92.4879 86.8031 92.7343C86.4863 93.7199 86.2751 92.2415 84.9023 92.6639C84.1631 94.4943 82.4735 96.1135 81.1359 95.9023C79.4111 95.6559 80.4319 93.2975 83.3183 92.4527L83.5647 91.7487C82.0863 92.9807 80.6431 92.2415 80.9951 90.7983C80.5766 91.3544 80.0256 91.7971 79.3924 92.0861C78.7592 92.375 78.0638 92.501 77.3695 92.4527C77.064 92.5044 76.7502 92.4691 76.4638 92.3508C76.1775 92.2325 75.9302 92.0361 75.7503 91.7839C75.2927 93.0159 74.6239 94.6351 74.6239 94.6351H72.7231L73.7087 92.1359C73.0261 92.5329 72.245 92.7282 71.4559 92.6991C71.0077 92.8455 70.5199 92.8094 70.0981 92.5986C69.6764 92.3877 69.3548 92.0191 69.2031 91.5727C67.7951 93.4383 66.2463 92.7695 66.0351 91.6079C65.4367 92.2415 64.7679 92.6991 64.1695 92.6991C62.7263 92.6287 63.0783 90.4815 63.3247 89.7423C63.9935 87.8415 64.6975 87.0671 63.3599 87.0319C63.1487 87.0319 61.5295 93.2271 58.6079 93.5087C55.8975 93.7551 56.9535 91.6079 57.4111 90.3759C58.1151 88.4047 58.8895 87.4191 58.5023 86.6799C58.2207 86.1167 56.5663 87.2783 56.0735 88.5455C55.4399 90.1647 54.1023 93.5439 54.1023 93.5439L51.5679 93.6143C51.5679 93.6143 53.6447 88.3343 55.6863 83.0543C56.3551 81.3295 55.3343 81.2943 54.5599 81.3295C53.9263 81.3647 54.1727 80.8015 54.6303 80.7663C57.0591 80.5903 57.9391 80.6255 58.2207 80.8015C58.4017 80.9276 58.5372 81.1088 58.6069 81.3181C58.6767 81.5274 58.677 81.7536 58.6079 81.9631C58.1503 83.1247 57.3407 85.1663 57.2351 85.5183C56.8831 86.5391 57.6223 85.5535 57.8335 85.3071C58.0447 85.0607 59.5935 83.3359 59.8751 82.9135C60.1567 82.4911 61.5999 81.0831 62.5151 81.0831H68.8511C68.6007 81.3917 68.4641 81.7769 68.4641 82.1743C68.4641 82.5717 68.6007 82.9569 68.8511 83.2655H61.6351C61.1423 83.2655 60.0511 83.8639 59.2063 84.8847C58.5023 85.7295 59.4175 85.4479 59.4175 85.4479C60.8255 85.3071 62.0927 84.9903 59.8751 89.8479C57.7631 94.4943 60.9311 92.3119 62.7615 86.6799C62.8319 86.4687 62.2687 86.2223 62.2687 85.8351C62.2335 85.3423 62.0927 84.7791 62.9727 84.7791C63.8527 84.7791 63.5359 85.6591 64.2751 85.8703C65.7535 86.3279 66.5631 85.8703 65.7887 87.7359C65.0495 89.5311 64.2399 91.7839 65.1903 91.5023C65.5858 91.3754 65.9149 91.0969 66.1055 90.7279C67.1263 87.9471 68.0063 85.7647 68.0063 85.7647H69.9071C69.9071 85.7647 69.2031 87.5599 67.8303 91.0095C67.3375 92.2063 68.3231 91.5375 69.0271 90.7631C69.0429 90.5587 69.1179 90.3633 69.2429 90.2008C69.3679 90.0382 69.5375 89.9156 69.7311 89.8479C70.4703 88.7567 72.8991 85.3423 72.8991 85.3423C72.9514 85.3913 72.9839 85.4578 72.9904 85.5292C72.9969 85.6006 72.9769 85.6719 72.9343 85.7295C72.7231 86.0463 73.1103 87.6655 73.2863 88.1935C73.5679 89.0031 73.9903 91.0095 72.8639 91.9599C72.658 92.136 72.4338 92.2894 72.1951 92.4175C72.8095 92.2902 73.3871 92.0254 73.8847 91.6431L76.1727 85.7647H78.0735C78.0735 85.7647 78.0031 85.9407 77.8975 86.2223C78.1312 86.0186 78.4069 85.8688 78.705 85.7837C79.003 85.6985 79.3162 85.68 79.6223 85.7295C80.1503 85.8703 81.9103 86.0111 79.9391 90.0239C79.5816 90.7718 79.065 91.4326 78.4255 91.9599ZM81.5583 94.7055C82.1671 94.3251 82.6649 93.7909 83.0015 93.1567C82.3889 93.3352 81.8238 93.6478 81.3471 94.0719C80.7487 94.5999 81.0303 95.0575 81.5583 94.7055ZM69.0975 82.1039C69.0975 81.902 69.1573 81.7046 69.2695 81.5368C69.3817 81.3689 69.5411 81.2381 69.7276 81.1608C69.9142 81.0835 70.1194 81.0633 70.3174 81.1027C70.5154 81.1421 70.6973 81.2393 70.8401 81.3821C70.9828 81.5248 71.0801 81.7067 71.1195 81.9047C71.1588 82.1028 71.1386 82.308 71.0614 82.4945C70.9841 82.6811 70.8533 82.8405 70.6854 82.9527C70.5175 83.0648 70.3202 83.1247 70.1183 83.1247C69.9842 83.1247 69.8515 83.0983 69.7276 83.047C69.6038 82.9957 69.4912 82.9205 69.3965 82.8257C69.3017 82.7309 69.2265 82.6184 69.1752 82.4945C69.1239 82.3707 69.0975 82.2379 69.0975 82.1039ZM104.157 89.2847C105.142 89.3199 106.304 88.7215 106.55 88.2639C106.797 87.8063 106.761 86.9615 106.128 86.9263C105.565 86.9439 104.473 87.4191 104.157 89.2847ZM123.481 90.9039C121.616 93.4383 118.835 93.1215 118.166 90.7631C117.709 91.6783 117.04 92.5935 115.808 92.6991C114.329 92.8399 114.189 91.3615 114.365 90.5871C114.541 89.8127 114.787 89.4607 115.385 87.7711C115.808 86.6095 114.576 87.2079 113.872 88.3343C113.379 89.7071 112.217 92.6991 112.217 92.6991C112.217 92.6991 111.619 92.6639 110.317 92.6287C110.493 91.8191 111.549 89.4607 112.147 87.7711C112.569 86.5743 111.302 87.2079 110.598 88.3695C110.563 88.4047 110.563 88.4399 110.528 88.4751L108.838 92.6639H106.867L107.501 91.0799C107.29 91.3063 107.054 91.5071 106.797 91.6783C104.262 93.4735 103.065 92.1711 102.643 90.9039C101.904 91.7839 101.024 92.5935 100.249 92.5583C98.8063 92.4879 99.1583 90.3407 99.4047 89.6015C100.073 87.7007 100.777 86.9263 99.4399 86.8911C99.2287 86.8911 97.6095 93.0863 94.6879 93.3679C91.9775 93.6143 93.0335 91.4671 93.4911 90.2351C94.1951 88.2639 94.9695 87.2783 94.5823 86.5391C94.3007 85.9759 92.6463 87.1375 92.1535 88.4047C91.5199 90.0239 90.1823 93.4031 90.1823 93.4031L87.6479 93.4383C87.6479 93.4383 89.7247 88.1583 91.7663 82.8783C92.4351 81.1535 91.4143 81.1183 90.6399 81.1535C90.0063 81.1887 90.2527 80.6255 90.7103 80.5903C93.1391 80.4143 94.0191 80.4495 94.3007 80.6255C94.4751 80.7572 94.6055 80.9388 94.6747 81.1462C94.7438 81.3536 94.7484 81.577 94.6879 81.7871C94.2303 82.9487 93.4207 84.9903 93.3151 85.3071C92.9631 86.3631 93.7023 85.3423 93.9135 85.0959C94.1247 84.8495 95.6735 83.1247 95.9551 82.7023C96.2367 82.2799 97.6799 80.8719 98.6303 80.8719H123.305C123.634 80.8859 123.962 80.834 124.271 80.7191C124.579 80.6042 124.861 80.4288 125.101 80.2031C125.312 80.0271 125.523 80.0271 125.523 80.2383C125.523 80.3439 124.326 83.0543 122.707 83.0543H97.7503C97.2575 83.0543 96.1663 83.6527 95.3215 84.6735C94.6175 85.5183 95.5327 85.2367 95.5327 85.2367C96.9407 85.0959 98.2079 84.7791 95.9903 89.6367C93.8783 94.2831 97.0463 92.1007 98.8767 86.4687C98.9471 86.2575 98.3839 86.0111 98.3839 85.6239C98.3487 85.1311 98.2079 84.5679 99.0879 84.5679C99.9679 84.5679 99.6511 85.4479 100.39 85.6591C101.869 86.1167 102.678 85.6591 101.904 87.5247C101.165 89.3199 100.355 91.5727 101.305 91.2911C102.08 91.0799 102.326 90.2351 102.467 89.9887V89.7775C102.608 87.9119 103.699 86.3279 104.614 85.9055C106.832 84.9199 107.712 86.1871 107.641 87.3487C107.536 88.7919 105.917 89.7775 104.086 89.8127C104.051 89.7775 104.051 89.8127 104.086 90.0943C104.368 92.1711 106.726 91.0447 107.993 89.6367L109.613 85.5535H111.654L111.232 86.9439C112.745 85.1487 114.365 85.6415 114.224 87.1903L114.294 87.1199C116.019 84.8671 117.99 85.7119 117.321 87.7535C117.216 88.0703 116.23 90.8511 116.23 90.8511C116.23 90.8511 115.913 91.8015 116.512 91.8015C117.04 91.8015 117.709 90.8863 118.025 90.0415V89.9711C117.92 88.1055 119.081 86.5215 119.997 86.1343C122.214 85.1839 123.165 86.4159 123.165 87.5775C123.165 89.0207 121.545 89.9711 119.68 90.0415C119.645 90.0063 119.645 90.0415 119.68 90.3231C120.173 92.7871 122.637 91.1679 123.024 90.7103C123.939 89.5311 123.904 90.3407 123.481 90.9039ZM119.645 89.2847C120.63 89.3199 121.792 88.7215 122.038 88.2639C122.285 87.8063 122.179 86.9615 121.545 86.9263C120.982 86.9439 119.891 87.4191 119.645 89.2847Z" fill="white"/>
<path fill-rule="evenodd" clip-rule="evenodd" d="M122.848 98.3314C122.955 98.3212 123.063 98.3332 123.165 98.3666C123.22 98.3883 123.268 98.4275 123.299 98.4782C123.331 98.529 123.346 98.5886 123.341 98.6482C123.346 98.6899 123.339 98.7323 123.32 98.7699C123.301 98.8076 123.272 98.8387 123.235 98.8594C123.2 98.8946 123.13 98.8946 123.059 98.9298C123.095 98.9291 123.131 98.9387 123.162 98.9573C123.193 98.976 123.219 99.0031 123.235 99.0354C123.27 99.1058 123.305 99.141 123.305 99.2114V99.4226H123.129V99.2818C123.129 99.141 123.094 99.0706 123.024 99.0354C122.953 99.0002 122.918 99.0002 122.813 99.0002H122.672V99.4578H122.461V98.3314H122.848ZM123.059 98.5074C123.024 98.4722 122.918 98.4722 122.813 98.4722H122.637V98.9122H122.813C122.874 98.9214 122.936 98.9089 122.989 98.877C123.021 98.8605 123.048 98.8352 123.067 98.8041C123.085 98.773 123.095 98.7373 123.094 98.701C123.112 98.6696 123.118 98.6332 123.111 98.5979C123.105 98.5626 123.086 98.5306 123.059 98.5074ZM123.587 99.6338C123.492 99.732 123.377 99.8082 123.249 99.8568C123.121 99.9055 122.984 99.9255 122.848 99.9154C122.714 99.919 122.582 99.8924 122.46 99.8376C122.338 99.7827 122.23 99.701 122.144 99.5986C121.961 99.4029 121.859 99.145 121.859 98.877C121.859 98.609 121.961 98.351 122.144 98.1554C122.234 98.0603 122.343 97.9859 122.465 97.9373C122.587 97.8886 122.717 97.867 122.848 97.8738C123.12 97.8761 123.382 97.9761 123.587 98.1554C123.682 98.2454 123.757 98.3549 123.805 98.4765C123.854 98.598 123.875 98.7287 123.869 98.8594C123.873 99.1433 123.773 99.4189 123.587 99.6338ZM122.249 98.2962C122.089 98.4438 121.984 98.643 121.955 98.8593C121.925 99.0756 121.972 99.2954 122.088 99.4808C122.203 99.6662 122.379 99.8054 122.587 99.8744C122.794 99.9434 123.018 99.9379 123.222 99.8588C123.425 99.7796 123.595 99.6319 123.701 99.4411C123.807 99.2502 123.843 99.0283 123.803 98.8138C123.763 98.5992 123.649 98.4053 123.481 98.2658C123.313 98.1263 123.101 98.0499 122.883 98.0498C122.765 98.034 122.645 98.0484 122.535 98.0914C122.424 98.1345 122.326 98.205 122.249 98.2962Z" fill="white"/>
<path d="M81.1007 99.2814V99.9854H81.7695C81.75 100.162 81.6614 100.325 81.5229 100.437C81.3845 100.549 81.2075 100.602 81.0303 100.584C80.4319 100.584 80.1151 100.021 80.1151 99.4926C80.1151 98.9646 80.4319 98.4014 81.0303 98.4014C81.1989 98.3985 81.3635 98.4525 81.4976 98.5547C81.6318 98.6569 81.7275 98.8013 81.7695 98.9646L82.6143 98.6126C82.4862 98.3109 82.2696 98.0551 81.993 97.8791C81.7165 97.7031 81.3931 97.6152 81.0655 97.627C80.7536 97.6245 80.4463 97.701 80.1719 97.8492C79.8976 97.9975 79.6653 98.2128 79.4965 98.475C79.3278 98.7373 79.2282 99.0379 79.2069 99.349C79.1857 99.6601 79.2435 99.9716 79.375 100.254C79.5065 100.537 79.7074 100.782 79.9591 100.966C80.2107 101.15 80.5048 101.268 80.8141 101.308C81.1234 101.348 81.4377 101.309 81.7278 101.194C82.018 101.08 82.2745 100.894 82.4735 100.654C82.7454 100.251 82.8698 99.7659 82.8255 99.2814H81.1007Z" fill="white"/>
<path d="M81.1007 99.2814V99.9854H81.7695C81.75 100.162 81.6614 100.325 81.5229 100.437C81.3845 100.549 81.2075 100.602 81.0303 100.584C80.4319 100.584 80.1151 100.021 80.1151 99.4926C80.1151 98.9646 80.4319 98.4014 81.0303 98.4014C81.1989 98.3985 81.3635 98.4525 81.4976 98.5547C81.6318 98.6569 81.7275 98.8013 81.7695 98.9646L82.6143 98.6126C82.4862 98.3109 82.2696 98.0551 81.993 97.8791C81.7165 97.7031 81.3931 97.6152 81.0655 97.627C80.7536 97.6245 80.4463 97.701 80.1719 97.8492C79.8976 97.9975 79.6653 98.2128 79.4965 98.475C79.3278 98.7373 79.2282 99.0379 79.2069 99.349C79.1857 99.6601 79.2435 99.9716 79.375 100.254C79.5065 100.537 79.7074 100.782 79.9591 100.966C80.2107 101.15 80.5048 101.268 80.8141 101.308C81.1234 101.348 81.4377 101.309 81.7278 101.194C82.018 101.08 82.2745 100.894 82.4735 100.654C82.7454 100.251 82.8698 99.7659 82.8255 99.2814H81.1007Z" fill="#A1A1A1"/>
<path d="M113.133 98.5425H114.154V97.7681H111.197V98.5425H112.218V101.218H113.133V98.5425Z" fill="white"/>
<path d="M113.133 98.5425H114.154V97.7681H111.197V98.5425H112.218V101.218H113.133V98.5425Z" fill="#A1A1A1"/>
<path fill-rule="evenodd" clip-rule="evenodd" d="M56.1793 98.5602H56.3905C56.6519 98.5602 56.9026 98.6641 57.0874 98.8489C57.2723 99.0337 57.3761 99.2844 57.3761 99.5458C57.3761 99.8072 57.2723 100.058 57.0874 100.243C56.9026 100.428 56.6519 100.531 56.3905 100.531H56.1793V98.5602ZM55.2993 101.235H56.5665C57.0273 101.236 57.4697 101.055 57.7987 100.732C58.1278 100.41 58.3173 99.9713 58.3265 99.5106C58.3251 99.2815 58.2784 99.055 58.1891 98.844C58.0997 98.6331 57.9694 98.4419 57.8058 98.2816C57.6422 98.1212 57.4484 97.9949 57.2357 97.9098C57.023 97.8247 56.7956 97.7826 56.5665 97.7858H55.2993V101.235Z" fill="white"/>
<path d="M56.1793 98.5602H56.3905C56.6519 98.5602 56.9026 98.6641 57.0874 98.8489C57.2723 99.0337 57.3761 99.2844 57.3761 99.5458C57.3761 99.8072 57.2723 100.058 57.0874 100.243C56.9026 100.428 56.6519 100.531 56.3905 100.531H56.1793V98.5602ZM55.2993 101.235H56.5665C57.0273 101.236 57.4697 101.055 57.7987 100.732C58.1278 100.41 58.3173 99.9713 58.3265 99.5106C58.3251 99.2815 58.2784 99.055 58.1891 98.844C58.0997 98.6331 57.9694 98.4419 57.8058 98.2816C57.6422 98.1212 57.4484 97.9949 57.2357 97.9098C57.023 97.8247 56.7956 97.7826 56.5665 97.7858H55.2993V101.235Z" fill="#A1A1A1"/>
<path fill-rule="evenodd" clip-rule="evenodd" d="M64.7681 98.507C65.0187 98.5029 65.2612 98.5959 65.4449 98.7664C65.6286 98.937 65.7392 99.1719 65.7537 99.4222C65.7686 99.6204 65.7233 99.8186 65.6239 99.9907C65.5245 100.163 65.3755 100.301 65.1963 100.387C65.0172 100.474 64.8162 100.504 64.6197 100.474C64.4231 100.444 64.24 100.356 64.0943 100.221C63.9486 100.086 63.8471 99.9096 63.8029 99.7157C63.7588 99.5219 63.7741 99.3192 63.8468 99.1342C63.9196 98.9492 64.0464 98.7904 64.2107 98.6785C64.375 98.5666 64.5693 98.5068 64.7681 98.507ZM64.7681 97.6622C64.4028 97.6728 64.0489 97.7914 63.751 98.0031C63.4532 98.2148 63.2247 98.5101 63.0947 98.8516C62.9646 99.1931 62.9387 99.5655 63.0202 99.9217C63.1018 100.278 63.2871 100.602 63.5528 100.853C63.8184 101.104 64.1525 101.27 64.5128 101.331C64.8731 101.392 65.2434 101.345 65.577 101.196C65.9105 101.047 66.1922 100.802 66.3866 100.492C66.5809 100.183 66.6792 99.8227 66.6689 99.4574C66.6678 99.2129 66.6171 98.9712 66.5198 98.7469C66.4226 98.5227 66.2808 98.3205 66.103 98.1526C65.9253 97.9848 65.7154 97.8547 65.4859 97.7704C65.2564 97.6861 65.0122 97.6493 64.7681 97.6622Z" fill="white"/>
<path d="M64.7681 98.507C65.0187 98.5029 65.2612 98.5959 65.4449 98.7664C65.6286 98.937 65.7392 99.1719 65.7537 99.4222C65.7686 99.6204 65.7233 99.8186 65.6239 99.9907C65.5245 100.163 65.3755 100.301 65.1963 100.387C65.0172 100.474 64.8162 100.504 64.6197 100.474C64.4231 100.444 64.24 100.356 64.0943 100.221C63.9486 100.086 63.8471 99.9096 63.8029 99.7157C63.7588 99.5219 63.7741 99.3192 63.8468 99.1342C63.9196 98.9492 64.0464 98.7904 64.2107 98.6785C64.375 98.5666 64.5693 98.5068 64.7681 98.507ZM64.7681 97.6622C64.4028 97.6728 64.0489 97.7914 63.751 98.0031C63.4532 98.2148 63.2247 98.5101 63.0947 98.8516C62.9646 99.1931 62.9387 99.5655 63.0202 99.9217C63.1018 100.278 63.2871 100.602 63.5528 100.853C63.8184 101.104 64.1525 101.27 64.5128 101.331C64.8731 101.392 65.2434 101.345 65.577 101.196C65.9105 101.047 66.1922 100.802 66.3866 100.492C66.5809 100.183 66.6792 99.8227 66.6689 99.4574C66.6678 99.2129 66.6171 98.9712 66.5198 98.7469C66.4226 98.5227 66.2808 98.3205 66.103 98.1526C65.9253 97.9848 65.7154 97.8547 65.4859 97.7704C65.2564 97.6861 65.0122 97.6493 64.7681 97.6622Z" fill="#A1A1A1"/>
<path fill-rule="evenodd" clip-rule="evenodd" d="M73.5681 97.7329V99.5633C73.5681 100.021 73.5329 100.514 72.9697 100.514C72.4065 100.514 72.3713 100.021 72.3713 99.5633V97.7329H71.4561V99.6689C71.4086 100.11 71.5349 100.552 71.8081 100.901C72.1319 101.173 72.5473 101.312 72.9697 101.288C73.3913 101.306 73.8048 101.168 74.1313 100.901C74.4833 100.549 74.4833 100.127 74.4833 99.6689V97.7329H73.5681Z" fill="white"/>
<path d="M73.5681 97.7329V99.5633C73.5681 100.021 73.5329 100.514 72.9697 100.514C72.4065 100.514 72.3713 100.021 72.3713 99.5633V97.7329H71.4561V99.6689C71.4086 100.11 71.5349 100.552 71.8081 100.901C72.1319 101.173 72.5473 101.312 72.9697 101.288C73.3913 101.306 73.8048 101.168 74.1313 100.901C74.4833 100.549 74.4833 100.127 74.4833 99.6689V97.7329H73.5681Z" fill="#A1A1A1"/>
<path fill-rule="evenodd" clip-rule="evenodd" d="M88.4225 99.1057V97.7681H87.5073V101.218H88.4225V99.8097H89.7249V101.218H90.6049V97.7681H89.7249V99.1057H88.4225Z" fill="white"/>
<path d="M88.4225 99.1057V97.7681H87.5073V101.218H88.4225V99.8097H89.7249V101.218H90.6049V97.7681H89.7249V99.1057H88.4225Z" fill="#A1A1A1"/>
<path fill-rule="evenodd" clip-rule="evenodd" d="M95.5327 101.218H96.4127V99.1057L98.0671 101.218H98.9823V97.7681H98.0671V99.8801L96.4127 97.7681H95.5327V101.218Z" fill="white"/>
<path d="M95.5327 101.218H96.4127V99.1057L98.0671 101.218H98.9823V97.7681H98.0671V99.8801L96.4127 97.7681H95.5327V101.218Z" fill="#A1A1A1"/>
<path fill-rule="evenodd" clip-rule="evenodd" d="M105.987 97.7681V99.6161C105.987 100.074 105.952 100.566 105.389 100.566C104.825 100.566 104.79 100.074 104.79 99.6161V97.7857H103.875V99.7217C103.828 100.162 103.954 100.604 104.227 100.954C104.551 101.226 104.966 101.364 105.389 101.341C105.81 101.359 106.224 101.221 106.55 100.954C106.902 100.602 106.902 100.179 106.902 99.7217V97.7857H105.987" fill="white"/>
<path d="M105.987 97.7681V99.6161C105.987 100.074 105.952 100.566 105.389 100.566C104.825 100.566 104.79 100.074 104.79 99.6161V97.7857H103.875V99.7217C103.828 100.162 103.954 100.604 104.227 100.954C104.551 101.226 104.966 101.364 105.389 101.341C105.81 101.359 106.224 101.221 106.55 100.954C106.902 100.602 106.902 100.179 106.902 99.7217V97.7857L105.987 97.7681Z" fill="#A1A1A1"/>
<path fill-rule="evenodd" clip-rule="evenodd" d="M120.771 97.944C120.435 97.7648 120.061 97.6682 119.68 97.6624C119.523 97.6514 119.365 97.6736 119.217 97.7276C119.07 97.7816 118.935 97.8662 118.822 97.9758C118.709 98.0854 118.62 98.2176 118.562 98.3638C118.504 98.5099 118.477 98.6667 118.483 98.824C118.483 99.4928 118.87 99.6336 119.433 99.8096C119.609 99.88 119.997 99.9504 119.997 100.197C119.997 100.443 119.785 100.549 119.574 100.549C119.274 100.521 118.99 100.398 118.765 100.197L118.377 100.936C118.738 101.189 119.169 101.325 119.609 101.323C119.963 101.326 120.309 101.215 120.595 101.006C120.72 100.884 120.816 100.735 120.877 100.57C120.938 100.406 120.962 100.231 120.947 100.056C120.947 99.4928 120.56 99.2464 120.102 99.1056L119.856 99.0352C119.715 99 119.469 98.8944 119.469 98.7184C119.469 98.5424 119.68 98.4368 119.856 98.4368C120.077 98.4503 120.288 98.537 120.454 98.6832L120.771 97.944Z" fill="white"/>
<path d="M120.771 97.944C120.435 97.7648 120.061 97.6682 119.68 97.6624C119.523 97.6514 119.365 97.6736 119.217 97.7276C119.07 97.7816 118.935 97.8662 118.822 97.9758C118.709 98.0854 118.62 98.2176 118.562 98.3638C118.504 98.5099 118.477 98.6667 118.483 98.824C118.483 99.4928 118.87 99.6336 119.433 99.8096C119.609 99.88 119.997 99.9504 119.997 100.197C119.997 100.443 119.785 100.549 119.574 100.549C119.274 100.521 118.99 100.398 118.765 100.197L118.377 100.936C118.738 101.189 119.169 101.325 119.609 101.323C119.963 101.326 120.309 101.215 120.595 101.006C120.72 100.884 120.816 100.735 120.877 100.57C120.938 100.406 120.962 100.231 120.947 100.056C120.947 99.4928 120.56 99.2464 120.102 99.1056L119.856 99.0352C119.715 99 119.469 98.8944 119.469 98.7184C119.469 98.5424 119.68 98.4368 119.856 98.4368C120.077 98.4503 120.288 98.537 120.454 98.6832L120.771 97.944Z" fill="#A1A1A1"/>
<path d="M126.192 99.5633H126.403L126.544 98.7537L126.931 99.6337L127.318 98.7537L127.459 99.5633H127.67L127.424 98.1201L126.931 99.1761L126.473 98.1201L126.192 99.5633Z" fill="white"/>
<path fill-rule="evenodd" clip-rule="evenodd" d="M128.938 98.296C128.832 98.2292 128.711 98.1926 128.586 98.1904C128.399 98.1904 128.22 98.2646 128.088 98.3966C127.956 98.5287 127.882 98.7077 127.882 98.8944C127.882 99.0811 127.956 99.2602 128.088 99.3922C128.22 99.5243 128.399 99.5984 128.586 99.5984C128.711 99.6013 128.835 99.5643 128.938 99.4928V99.264C128.84 99.3497 128.716 99.3994 128.586 99.4048C128.455 99.4048 128.33 99.3529 128.237 99.2605C128.145 99.1681 128.093 99.0427 128.093 98.912C128.093 98.7813 128.145 98.656 128.237 98.5636C128.33 98.4711 128.455 98.4192 128.586 98.4192C128.651 98.4157 128.717 98.4265 128.777 98.4508C128.838 98.4751 128.893 98.5124 128.938 98.56V98.3136" fill="white"/>
</svg>
