<svg width="176" height="176" viewBox="0 0 176 176" fill="none" xmlns="http://www.w3.org/2000/svg">
<path d="M88.053 65.9473C87.8416 65.9581 87.6413 66.0457 87.4898 66.1937L85.4482 67.6721C85.3978 67.7137 85.3609 67.7694 85.3421 67.8321C85.3233 67.8947 85.3235 67.9615 85.3426 68.0241C85.3622 68.084 85.3997 68.1364 85.4501 68.1742C85.5005 68.212 85.5613 68.2333 85.6242 68.2353H90.4818C90.5448 68.2333 90.6056 68.212 90.656 68.1742C90.7064 68.1364 90.7439 68.084 90.7634 68.0241C90.78 67.9614 90.7789 67.8953 90.7602 67.8332C90.7416 67.7711 90.7062 67.7153 90.6578 67.6721L88.6866 66.2289C88.5132 66.0664 88.2899 65.9671 88.053 65.9473Z" fill="#A1A1A1"/>
<path d="M88.088 63.8705C88.3876 63.902 88.6702 64.0249 88.8976 64.2225L93.984 67.9361C94.0192 67.9713 94.0896 68.0417 94.0192 68.1121C94.0192 68.1473 93.0336 69.4849 93.0336 69.4849C92.8965 69.6667 92.7132 69.8084 92.5026 69.8951C92.2921 69.9818 92.0621 70.0103 91.8368 69.9777H82.192C82.1211 69.9839 82.0526 70.0061 81.9916 70.0427C81.9306 70.0793 81.8788 70.1293 81.84 70.1889C81.8023 70.2546 81.7855 70.3301 81.7918 70.4056C81.7981 70.481 81.8272 70.5528 81.8752 70.6113C82.1216 70.9633 87.3664 78.2145 88.1056 79.1297C88.6688 78.3905 91.9776 73.8145 92.0128 73.7441C92.0302 73.7181 92.0395 73.6874 92.0395 73.6561C92.0395 73.6248 92.0302 73.5942 92.0128 73.5681C91.9776 73.5329 91.9424 73.4977 91.9072 73.4977H90.2528C90.2065 73.4965 90.1605 73.5053 90.118 73.5235C90.0755 73.5417 90.0374 73.5689 90.0064 73.6033C89.936 73.6737 88.1056 76.2433 88.1056 76.2433L84.7616 71.6321H92.5408C92.84 71.6474 93.1384 71.5878 93.4088 71.4587C93.6792 71.3296 93.9132 71.1352 94.0896 70.8929C94.6176 70.1889 95.9552 68.3233 96.2016 68.0065C96.2451 67.9518 96.2769 67.8888 96.2952 67.8213C96.3135 67.7538 96.3178 67.6834 96.3079 67.6142C96.298 67.545 96.2741 67.4785 96.2377 67.4189C96.2013 67.3592 96.153 67.3077 96.096 67.2673C96.096 67.2673 89.936 62.7969 89.6192 62.5857C89.2072 62.2265 88.6867 62.0158 88.1408 61.9873C87.6003 62.0112 87.0818 62.2087 86.6624 62.5505C86.3808 62.7617 79.8688 67.4785 79.8688 67.4785C79.8688 67.4785 79.7984 67.6193 79.8336 67.6545L80.6784 68.7809C80.7136 68.8513 80.8192 68.8513 80.8896 68.8161L87.1904 64.2049C87.4703 64.0372 87.7819 63.9294 88.1056 63.8881" fill="#A1A1A1"/>
<path d="M74.0785 76.12C74.0395 76.331 74.0516 76.5483 74.1137 76.7536L74.8881 79.1472C74.9233 79.1824 74.9937 79.3584 75.1697 79.3584C75.2366 79.3549 75.3014 79.3334 75.3571 79.2963C75.4128 79.2591 75.4576 79.2076 75.4865 79.1472L77.0001 74.536C77.0127 74.47 77.0061 74.4018 76.9812 74.3395C76.9562 74.2771 76.9139 74.2232 76.8593 74.184C76.8071 74.1497 76.7459 74.1313 76.6833 74.1313C76.6208 74.1313 76.5596 74.1497 76.5073 74.184L74.5361 75.6272C74.3387 75.7433 74.1797 75.9146 74.0785 76.12Z" fill="#A1A1A1"/>
<path d="M72.107 75.4514C72.2434 75.1792 72.45 74.9483 72.7054 74.7826C73.1278 74.501 77.7742 71.1218 77.7742 71.0866C77.7879 71.0769 77.8035 71.07 77.8199 71.0665C77.8364 71.063 77.8534 71.0629 77.8699 71.0662C77.8863 71.0695 77.902 71.0761 77.9158 71.0857C77.9296 71.0953 77.9413 71.1075 77.9502 71.1218C77.9854 71.157 78.971 72.4946 78.971 72.4946C79.323 72.9874 79.1822 73.4098 79.0766 73.797C78.971 74.1842 76.1902 82.6674 76.1198 82.9842C76.1015 83.0523 76.1017 83.1241 76.1202 83.1921C76.1388 83.2601 76.1751 83.322 76.2254 83.3714C76.2756 83.4315 76.3435 83.474 76.4194 83.493C76.4953 83.512 76.5753 83.5064 76.6478 83.477C77.0702 83.3362 85.5534 80.5906 86.6798 80.2034C86.1166 79.4642 82.8078 74.8882 82.7726 74.8178C82.7677 74.8044 82.7595 74.7924 82.7488 74.7829C82.7382 74.7734 82.7254 74.7666 82.7115 74.7631C82.6976 74.7597 82.6831 74.7596 82.6693 74.763C82.6554 74.7664 82.6425 74.7731 82.6318 74.7826C82.5966 74.8178 82.5614 74.8178 82.5262 74.8882C82.491 74.9586 82.0334 76.3314 81.9982 76.4722C81.9842 76.519 81.9801 76.5682 81.9862 76.6167C81.9923 76.6652 82.0084 76.7119 82.0334 76.7538C82.1038 76.8242 83.9342 79.3938 83.9342 79.3938L78.4782 81.1538C78.4782 81.1538 80.731 74.2546 80.8718 73.7618C80.9814 73.4911 81.0195 73.1967 80.9825 72.907C80.9455 72.6173 80.8347 72.342 80.6606 72.1074C80.1326 71.3682 78.795 69.5378 78.5486 69.221C78.5083 69.164 78.4567 69.1157 78.3971 69.0793C78.3374 69.0429 78.271 69.019 78.2018 69.0091C78.1326 68.9992 78.0621 69.0035 77.9946 69.0218C77.9272 69.0401 77.8642 69.0719 77.8094 69.1154C77.8094 69.1154 71.6494 73.621 71.3326 73.8322C70.866 74.1193 70.5072 74.5524 70.3118 75.0642C70.176 75.5899 70.213 76.1453 70.4174 76.6482C70.523 76.965 73.0222 84.6386 73.0222 84.6386C73.0387 84.6709 73.064 84.698 73.0951 84.7167C73.1262 84.7353 73.162 84.7449 73.1982 84.7442L74.5358 84.3218C74.5682 84.3053 74.5952 84.2801 74.6139 84.249C74.6326 84.2178 74.6421 84.1821 74.6414 84.1458L72.2126 76.7186C72.1036 76.3056 72.0678 75.8767 72.107 75.4514Z" fill="#A1A1A1"/>
<path d="M79.4288 92.5232C79.6068 92.6359 79.8176 92.6855 80.0272 92.664H82.5264C82.5877 92.6566 82.6461 92.6332 82.6955 92.5961C82.7449 92.5591 82.7837 92.5096 82.808 92.4528C82.8272 92.3903 82.8273 92.3234 82.8086 92.2608C82.7898 92.1981 82.7528 92.1425 82.7024 92.1008L78.8304 89.2496C78.7715 89.2225 78.7063 89.2121 78.6419 89.2197C78.5776 89.2273 78.5165 89.2525 78.4656 89.2925C78.4146 89.3325 78.3757 89.3859 78.3531 89.4466C78.3305 89.5074 78.3252 89.5732 78.3376 89.6368C78.3728 89.8128 79.0768 91.96 79.0768 91.96C79.1426 92.1754 79.264 92.3697 79.4288 92.5232Z" fill="#A1A1A1"/>
<path d="M78.197 94.1774C77.9699 93.9713 77.8104 93.7014 77.7394 93.403C77.5634 92.9102 75.8034 87.4542 75.8034 87.4542C75.7682 87.3838 75.8034 87.3134 75.909 87.2782C75.9442 87.2782 77.493 86.7502 77.493 86.7502C77.7132 86.6834 77.9473 86.6775 78.1705 86.7333C78.3936 86.7891 78.5975 86.9045 78.7602 87.067C79.1122 87.3134 86.293 92.523 86.5746 92.7342C86.6317 92.7852 86.7037 92.8162 86.7799 92.8225C86.8562 92.8289 86.9324 92.8102 86.997 92.7694C87.0617 92.7364 87.1158 92.6859 87.1531 92.6237C87.1905 92.5615 87.2096 92.49 87.2082 92.4174V81.8574C86.3282 82.139 80.9778 83.899 80.8722 83.899C80.7666 83.899 80.7666 84.0046 80.7666 84.0046C80.7727 84.0415 80.7846 84.0771 80.8018 84.1102C80.837 84.1454 82.0338 84.9902 82.1394 85.0958C82.1791 85.1261 82.226 85.1453 82.2755 85.1515C82.325 85.1577 82.3752 85.1506 82.421 85.131L85.5362 84.1278V89.8302C85.5362 89.8302 79.6578 85.571 79.2354 85.2542C79.0104 85.063 78.738 84.9359 78.4469 84.8864C78.1558 84.8368 77.8567 84.8666 77.581 84.9726C76.7362 85.2542 74.5538 85.9582 74.1666 86.0638C74.0324 86.1075 73.9206 86.2019 73.8549 86.3268C73.7891 86.4517 73.7747 86.5973 73.8146 86.7326C73.8146 86.7326 76.173 93.9838 76.2786 94.3358C76.4116 94.8687 76.7219 95.3404 77.1586 95.6734C77.6223 95.963 78.1609 96.1099 78.7074 96.0958H87.085C87.1039 96.0974 87.1229 96.0949 87.1408 96.0884C87.1586 96.0819 87.1748 96.0715 87.1882 96.0581C87.2016 96.0447 87.2119 96.0286 87.2184 96.0107C87.2249 95.9929 87.2274 95.9739 87.2258 95.955V94.547C87.2234 94.5105 87.2077 94.4761 87.1818 94.4502C87.156 94.4243 87.1216 94.4087 87.085 94.4062H79.3058C78.7426 94.4414 78.4258 94.371 78.2146 94.195" fill="#A1A1A1"/>
<path d="M96.7122 92.5231C96.8608 92.3767 96.9698 92.195 97.029 91.9951L97.8034 89.5663C97.8333 89.5051 97.839 89.4349 97.8194 89.3696C97.7998 89.3044 97.7564 89.2489 97.6978 89.2143C97.6404 89.1764 97.5731 89.1562 97.5042 89.1562C97.4354 89.1562 97.3681 89.1764 97.3106 89.2143L93.4034 92.0655C93.3455 92.1007 93.3026 92.1562 93.2831 92.2212C93.2636 92.2862 93.2688 92.3561 93.2978 92.4175C93.3221 92.4743 93.3609 92.5237 93.4104 92.5608C93.4598 92.5979 93.5181 92.6213 93.5794 92.6287H96.0434C96.2717 92.6792 96.5106 92.6415 96.7122 92.5231Z" fill="#A1A1A1"/>
<path d="M97.9086 94.2126C97.6448 94.3722 97.3335 94.4345 97.0286 94.3886H90.7278C90.7089 94.3902 90.6899 94.3877 90.6721 94.3812C90.6543 94.3746 90.6381 94.3643 90.6247 94.3509C90.6113 94.3375 90.6009 94.3213 90.5944 94.3035C90.5879 94.2857 90.5854 94.2667 90.587 94.2478V92.5758C90.5883 92.3455 90.651 92.1198 90.7685 91.9218C90.8861 91.7238 91.0543 91.5608 91.2558 91.4494C91.6078 91.203 98.7886 85.9582 99.0702 85.7822C99.1274 85.7372 99.1709 85.6771 99.1958 85.6087C99.2207 85.5402 99.2259 85.4662 99.211 85.395C99.1954 85.3263 99.1607 85.2633 99.1109 85.2135C99.0611 85.1637 98.9981 85.1289 98.9294 85.1134C98.507 84.9726 90.0238 82.227 88.8974 81.875V88.563C88.8974 88.6686 88.9326 88.6686 88.9678 88.7038C88.9765 88.7106 88.9867 88.7151 88.9976 88.7169C89.0084 88.7188 89.0196 88.7179 89.03 88.7145C89.0405 88.711 89.0499 88.705 89.0575 88.697C89.065 88.689 89.0705 88.6792 89.0734 88.6686C89.1086 88.6334 90.3054 87.7886 90.411 87.683C90.447 87.6533 90.4754 87.6155 90.4937 87.5726C90.5121 87.5298 90.5199 87.4831 90.5166 87.4366V84.1982L95.9726 85.9582C95.9726 85.9582 90.0942 90.2174 89.6718 90.5342C89.4139 90.6822 89.2018 90.8986 89.0589 91.1595C88.9161 91.4203 88.848 91.7155 88.8622 92.0126V95.5678C88.8578 95.6398 88.8691 95.7119 88.8952 95.7791C88.9213 95.8464 88.9617 95.9072 89.0135 95.9573C89.0653 96.0075 89.1274 96.0458 89.1955 96.0697C89.2636 96.0937 89.336 96.1025 89.4078 96.0958H97.3982C97.945 96.1547 98.4939 96.0066 98.937 95.6809C99.38 95.3551 99.685 94.8752 99.7918 94.3358C99.8974 94.019 102.361 86.3454 102.361 86.3454C102.397 86.275 102.326 86.2046 102.291 86.1694L100.953 85.747C100.935 85.7406 100.915 85.7383 100.896 85.7403C100.876 85.7423 100.858 85.7486 100.841 85.7587C100.824 85.7687 100.81 85.7824 100.799 85.7986C100.788 85.8148 100.78 85.8333 100.777 85.8526L98.3838 93.2798C98.3759 93.461 98.3313 93.6386 98.2526 93.802C98.174 93.9654 98.0629 94.1111 97.9262 94.2302" fill="#A1A1A1"/>
<path d="M102.027 76.085C101.992 75.909 101.851 75.8034 101.605 75.6274L99.5631 74.149C99.5151 74.105 99.4523 74.0806 99.3871 74.0806C99.3219 74.0806 99.2591 74.105 99.2111 74.149C99.0351 74.2546 99.0351 74.4306 99.1055 74.501L100.584 79.1122C100.605 79.178 100.648 79.2347 100.705 79.273C100.763 79.3114 100.832 79.3291 100.901 79.3234C101.006 79.3234 101.112 79.2178 101.182 79.1122C101.218 78.9362 101.922 76.789 101.922 76.789C102.062 76.437 102.098 76.261 102.027 76.085Z" fill="#A1A1A1"/>
<path d="M103.998 75.4862C104.081 75.7819 104.043 76.0985 103.893 76.3662C103.717 76.859 101.957 82.315 101.957 82.315C101.94 82.3473 101.915 82.3744 101.884 82.393C101.853 82.4117 101.817 82.4213 101.781 82.4206C101.746 82.4206 100.197 81.8926 100.197 81.8926C99.5985 81.7166 99.4929 81.2942 99.3521 80.8718C99.2113 80.4494 96.4657 72.0014 96.3601 71.6846C96.3345 71.6187 96.2915 71.561 96.2358 71.5176C96.18 71.4742 96.1135 71.4468 96.0433 71.4382C95.9733 71.4208 95.8993 71.4289 95.8348 71.4612C95.7703 71.4935 95.7194 71.5477 95.6913 71.6142C95.4449 71.9662 90.2001 79.2174 89.4961 80.1678C90.3761 80.4494 95.7265 82.2094 95.8321 82.2094C95.9377 82.2094 95.9729 82.2094 95.9729 82.1742C95.996 82.1439 96.0084 82.1067 96.0081 82.0686C95.9729 82.0334 95.5505 80.6254 95.4801 80.4846C95.4732 80.4404 95.4524 80.3995 95.4208 80.3679C95.3891 80.3363 95.3483 80.3155 95.3041 80.3086L92.2065 79.2878L95.5505 74.6766C95.5505 74.6766 97.8033 81.5758 97.9441 82.0686C98.0189 82.3509 98.165 82.6093 98.3684 82.8189C98.5718 83.0284 98.8257 83.1822 99.1057 83.2654C99.9505 83.547 102.133 84.251 102.485 84.3566C102.552 84.3821 102.623 84.3931 102.695 84.3888C102.766 84.3845 102.836 84.3651 102.899 84.3318C102.962 84.2985 103.018 84.2521 103.062 84.1957C103.105 84.1392 103.137 84.0741 103.154 84.0046C103.154 84.0046 105.512 76.7534 105.618 76.4014C105.822 75.8984 105.859 75.343 105.723 74.8174C105.518 74.3111 105.162 73.8808 104.702 73.5854C104.421 73.3742 97.9089 68.6574 97.9089 68.6574C97.8385 68.6222 97.7681 68.6222 97.7329 68.6926L96.9233 69.819C96.8881 69.8894 96.8881 69.995 96.9585 70.0302L103.259 74.6414C103.717 74.9582 103.928 75.2046 103.998 75.4862Z" fill="#A1A1A1"/>
<path d="M109.032 102.273H107.976V111.989H109.525V102.784C109.526 102.719 109.515 102.654 109.49 102.594C109.466 102.533 109.43 102.478 109.384 102.432C109.338 102.386 109.283 102.35 109.222 102.326C109.162 102.301 109.097 102.29 109.032 102.291" fill="#A1A1A1"/>
<path d="M82.8784 103.488H81.3296V104.614H82.8784V103.488Z" fill="#A1A1A1"/>
<path d="M121.95 112.869H123.499V113.995H121.95V112.869Z" fill="#A1A1A1"/>
<path d="M66.4751 114.048H68.0239V112.921H66.4751V114.048Z" fill="#A1A1A1"/>
<path d="M51.9023 114.048H53.4511V112.921H51.9023V114.048Z" fill="#A1A1A1"/>
<path d="M54.0498 114.048H55.6162V112.921H54.0674L54.0498 114.048Z" fill="#A1A1A1"/>
<path d="M86.1519 114.048H87.7007V112.921H86.1519V114.048Z" fill="#A1A1A1"/>
<path d="M88.2642 114.048H89.813V112.921H88.2642V114.048Z" fill="#A1A1A1"/>
<path d="M129.729 110.722C128.462 110.722 127.653 110.018 127.653 108.786C127.653 107.554 128.462 106.779 129.729 106.779C130.243 106.761 130.75 106.909 131.173 107.202V105.864C130.641 105.626 130.065 105.506 129.483 105.512C127.441 105.512 126.033 106.885 126.033 108.891C126.02 109.536 126.191 110.171 126.526 110.722H124.731C123.745 110.722 123.429 110.405 123.429 109.419V105.688H121.88V109.419C121.88 110.405 121.563 110.722 120.577 110.722H118.536V108.926C118.536 106.92 117.128 105.547 115.086 105.547C114.505 105.545 113.929 105.665 113.397 105.899V107.237C113.822 106.949 114.327 106.801 114.84 106.814C116.107 106.814 116.917 107.589 116.917 108.821V110.757H112.869V112.094H120.648C121.528 112.094 122.161 111.954 122.584 111.637C123.171 111.974 123.844 112.133 124.52 112.094H131.595V110.757L129.729 110.722Z" fill="#A1A1A1"/>
<path d="M94.3889 106.779C95.6561 106.779 96.4657 107.554 96.4657 108.786V110.722H92.9281V107.202C93.3661 106.913 93.8821 106.766 94.4065 106.779M83.0017 106.885V110.687C82.6849 110.792 80.2209 111.285 80.2209 108.821C80.1857 106.287 82.6497 106.815 83.0017 106.885ZM105.354 102.274H104.298V110.722H101.939V102.731C101.937 102.669 101.922 102.608 101.896 102.551C101.87 102.494 101.834 102.443 101.788 102.4C101.742 102.358 101.688 102.325 101.63 102.303C101.571 102.281 101.509 102.271 101.446 102.274H100.39V110.722H98.0673V108.891C98.0673 106.885 96.6593 105.512 94.6177 105.512C94.0361 105.51 93.4605 105.63 92.9281 105.864V102.696C92.9258 102.634 92.9113 102.572 92.8853 102.516C92.8593 102.459 92.8223 102.408 92.7766 102.365C92.7308 102.323 92.6771 102.29 92.6185 102.268C92.56 102.246 92.4977 102.236 92.4353 102.239H91.3793V110.687H89.9713C88.9857 110.687 88.6689 110.37 88.6689 109.384V105.653H87.1201V109.384C87.1201 110.37 86.8033 110.687 85.8177 110.687H84.4801V105.653C83.7057 105.653 83.0369 105.512 81.9457 105.512C79.9041 105.512 78.6017 106.709 78.6017 108.751C78.5697 109.431 78.7413 110.105 79.0945 110.687H77.0529C75.7857 110.687 74.9761 109.983 74.9761 108.751V105.688H73.3921V108.891C73.3921 110.863 74.6593 112.024 76.7009 112.024H85.9937C86.8737 112.024 87.5073 111.883 87.9297 111.567C88.5007 111.88 89.1441 112.038 89.7953 112.024H105.811V102.696C105.846 102.485 105.635 102.274 105.354 102.274Z" fill="#A1A1A1"/>
<path d="M59.048 108.786C59.048 106.286 61.512 106.814 61.8288 106.885V108.891V110.651C61.5472 110.792 59.048 111.25 59.048 108.786ZM66.792 105.547C66.2104 105.545 65.6348 105.665 65.1024 105.899V107.237C65.5254 106.944 66.0316 106.796 66.5456 106.814C67.8128 106.814 68.6224 107.589 68.6224 108.821V110.757H64.68C63.7648 110.757 63.4128 110.475 63.3776 109.63V105.723C62.6032 105.723 61.9344 105.582 60.8432 105.582C58.8016 105.582 57.4992 106.779 57.4992 108.786V109.49C57.4992 110.475 57.1824 110.792 56.1968 110.792H55.8096C54.824 110.792 54.5072 110.475 54.5072 109.49V105.758H52.9584V109.49C52.9584 110.475 52.6416 110.792 51.656 110.792H51.128C50.1424 110.792 49.8256 110.475 49.8256 109.49V102.802C49.8233 102.739 49.8088 102.678 49.7828 102.621C49.7568 102.564 49.7198 102.513 49.6741 102.471C49.6283 102.428 49.5746 102.395 49.516 102.373C49.4575 102.352 49.3952 102.342 49.3328 102.344H48.2768V112.693C47.9398 112.751 47.5978 112.775 47.256 112.763C46.2704 112.763 45.9536 112.446 45.9536 111.461V107.73H44.4048V111.496C44.4048 112.552 44.5456 113.045 45.0032 113.467C45.4608 113.89 46.1296 114.03 47.1152 114.03C48.0141 114.027 48.9105 113.933 49.7904 113.749V111.954C50.1154 112.023 50.4447 112.07 50.776 112.094H51.6912C52.5712 112.094 53.2048 111.954 53.6272 111.637C54.1587 111.95 54.7716 112.097 55.3872 112.059H56.32C57.2704 112.059 57.9392 111.848 58.3616 111.496C58.4051 111.456 58.4409 111.408 58.4672 111.355C59.7696 112.341 61.9168 112.059 63.008 111.848C63.4851 112.002 63.9851 112.074 64.4864 112.059H70.1536V108.926C70.2592 106.92 68.8512 105.547 66.8096 105.547" fill="#A1A1A1"/>
</svg>
