<svg width="120" height="120" viewBox="0 0 120 120" fill="none" xmlns="http://www.w3.org/2000/svg">
<path d="M83.4027 47.5576H4.28076V72.442H83.4027V47.5576Z" fill="white"/>
<path d="M115.719 47.5576H83.4023V72.442H115.719V47.5576Z" fill="#A1A1A1"/>
<path d="M8.04395 53.0617H13.3595C14.2533 53.0617 15.1 53.2028 15.8997 53.5321C16.6523 53.8143 17.2639 54.3788 17.7343 55.0374C18.2047 55.79 18.4399 56.6838 18.3928 57.5305C18.4399 58.4243 18.2047 59.3181 17.7343 60.0707C17.3109 60.7763 16.6523 61.3408 15.8997 61.6701C15.1 62.0464 14.2533 62.2346 13.3595 62.2346H11.3838V67.6912H8.13803V53.0146H8.04395V53.0617ZM11.3838 59.6003H12.4657C12.8891 59.6003 13.2654 59.5062 13.6888 59.3651C14.0181 59.224 14.3474 59.0358 14.5355 58.7065C14.9589 58.0009 14.9589 57.1072 14.5355 56.3545C14.3003 56.0723 14.0181 55.8371 13.6888 55.743C13.3125 55.6019 12.8891 55.5548 12.4657 55.5548H11.3838V59.6003Z" fill="#A1A1A1"/>
<path d="M19.8042 60.353C19.7572 58.3303 20.5569 56.4016 21.9681 54.9434C24.9316 51.9798 29.7297 51.9798 32.6933 54.9434C33.3989 55.6019 33.9163 56.4487 34.2456 57.3424C34.9983 59.2711 34.9983 61.3879 34.2456 63.3165C33.9163 64.2103 33.3518 65.057 32.6933 65.7156C32.0347 66.4212 31.188 66.9387 30.2942 67.315C29.3534 67.6913 28.3185 67.8795 27.2836 67.8795C26.2487 67.8795 25.1668 67.6913 24.226 67.315C23.3322 66.9387 22.5326 66.4212 21.8269 65.7156C21.1684 65.01 20.6509 64.2103 20.3217 63.3165C19.9924 62.3757 19.8042 61.3879 19.8042 60.353ZM23.2382 60.353C23.2382 61.1527 23.4263 61.9053 23.7556 62.6109C24.0849 63.2695 24.5553 63.834 25.1668 64.2103C26.4839 65.01 28.0833 65.01 29.4004 64.2103C30.012 63.787 30.4824 63.2695 30.8117 62.6109C31.1409 61.9053 31.3291 61.1527 31.3291 60.353C31.3291 59.5533 31.1409 58.8007 30.8117 58.0951C30.4824 57.4365 30.012 56.872 29.4004 56.4957C28.0833 55.696 26.4839 55.696 25.1668 56.4957C24.5553 56.9191 24.0849 57.4365 23.7556 58.0951C23.4263 58.8007 23.2382 59.5533 23.2382 60.353Z" fill="#A1A1A1"/>
<path d="M51.3682 67.6442H47.3698L44.9237 57.4364H45.5352L43.0891 67.6442H39.0907L35.7979 53.0146H39.6081L41.3957 63.2695H41.3486L44.077 53.0146H46.5701L49.3455 63.2695H49.2984L51.086 53.0146H54.8962L51.3682 67.6442Z" fill="#A1A1A1"/>
<path d="M56.6836 53.0615H66.0446V55.978H60.0235V58.9416H65.9976V61.764H60.0235V64.7746H66.0446V67.6911H56.6836V53.0615Z" fill="#A1A1A1"/>
<path d="M68.4438 53.0615H74.418C75.2177 53.0615 75.9703 53.2026 76.6759 53.579C77.3345 53.9082 77.8519 54.4727 78.2282 55.0843C78.6046 55.7899 78.8398 56.6366 78.7927 57.4833C78.8398 58.283 78.6516 59.0356 78.3223 59.7413C78.0401 60.2587 77.6638 60.7291 77.1463 61.0584C76.77 61.3406 76.3466 61.4817 75.8762 61.5758L79.4043 67.644H75.7351L72.5834 61.8581H71.7837V67.644H68.4909V53.0615H68.4438ZM71.7367 59.5531H73.1949C73.7594 59.5531 74.2769 59.412 74.7473 59.1297C75.2177 58.7534 75.4529 58.1889 75.4058 57.6244C75.4058 56.8718 75.1706 56.3543 74.7473 56.1191C74.2769 55.8369 73.7594 55.6487 73.1949 55.6958H71.7367V59.5531Z" fill="#A1A1A1"/>
<path d="M86.9776 60.353C86.9305 58.3303 87.7302 56.4016 89.1414 54.9434C92.105 51.9798 96.9031 51.9798 99.8666 54.9434C100.572 55.6019 101.09 56.4487 101.419 57.3424C102.172 59.2711 102.172 61.3879 101.419 63.3165C101.09 64.2103 100.525 65.057 99.8666 65.7156C99.2081 66.4212 98.3613 66.9387 97.4676 67.315C96.5267 67.6913 95.4919 67.8795 94.457 67.8795C93.4221 67.8795 92.3402 67.6913 91.3994 67.315C90.5056 66.9857 89.7059 66.4212 89.0003 65.7156C88.3417 65.01 87.8243 64.2103 87.495 63.3165C87.1657 62.3757 86.9776 61.3879 86.9776 60.353ZM90.4115 60.353C90.4115 61.1527 90.5997 61.9053 90.9289 62.6109C91.2582 63.2695 91.7286 63.834 92.3402 64.2103C93.6573 65.01 95.2567 65.01 96.5738 64.2103C97.1853 63.834 97.7028 63.2695 98.032 62.6109C98.3613 61.9053 98.5495 61.1527 98.5495 60.353C98.5495 59.5533 98.3613 58.8007 98.032 58.0951C97.7028 57.4365 97.2324 56.9191 96.6208 56.4957C95.3037 55.696 93.7043 55.696 92.3872 56.4957C91.7757 56.9191 91.3053 57.4365 90.976 58.0951C90.5997 58.8007 90.4115 59.5533 90.4115 60.353Z" fill="white"/>
<path d="M103.959 53.0615H112.379V55.978H107.252V58.8945H112.003V61.811H107.252V67.6911H103.959V53.0615Z" fill="white"/>
</svg>
