<svg width="176" height="176" viewBox="0 0 176 176" fill="none" xmlns="http://www.w3.org/2000/svg">
<path fill-rule="evenodd" clip-rule="evenodd" d="M60.896 94.1566V94.6142C60.6711 94.6161 60.4467 94.5925 60.2272 94.5438C60.2081 94.5461 60.1887 94.5441 60.1704 94.5381C60.1522 94.532 60.1355 94.5219 60.1216 94.5086V93.2414C60.3334 93.4362 60.5701 93.6019 60.8256 93.7342C60.8258 93.6961 60.8135 93.6589 60.7904 93.6286C60.7904 93.6286 60.4032 93.3118 60.1216 93.1006V91.9742C60.3398 92.1608 60.5755 92.3259 60.8256 92.467C60.8258 92.4289 60.8135 92.3918 60.7904 92.3614C60.7904 92.3614 60.4032 92.0446 60.1216 91.8334V89.299C60.3334 89.4938 60.5701 89.6595 60.8256 89.7918C60.8258 89.7537 60.8135 89.7165 60.7904 89.6862C60.7904 89.6862 60.4032 89.3694 60.1216 89.1582V88.0318C60.3334 88.2265 60.5701 88.3923 60.8256 88.5246C60.8258 88.4865 60.8135 88.4493 60.7904 88.419C60.5783 88.2297 60.355 88.0533 60.1216 87.891V86.7998C60.3334 86.9945 60.5701 87.1603 60.8256 87.2926C60.8258 87.2545 60.8135 87.2173 60.7904 87.187C60.7904 87.187 60.4032 86.8702 60.1216 86.659V85.427C60.3334 85.6217 60.5701 85.7875 60.8256 85.9198C60.8258 85.8817 60.8135 85.8445 60.7904 85.8142C60.7904 85.8142 60.4032 85.4974 60.1216 85.2862V84.1598C60.3334 84.3545 60.5701 84.5203 60.8256 84.6526C60.8258 84.6145 60.8135 84.5773 60.7904 84.547C60.7904 84.547 60.4032 84.2302 60.1216 84.019V81.5902C60.3334 81.7849 60.5701 81.9507 60.8256 82.083C60.8258 82.0449 60.8135 82.0077 60.7904 81.9774C60.7904 81.9774 60.4032 81.6606 60.1216 81.4494V80.323C60.3334 80.5178 60.5701 80.6835 60.8256 80.8158C60.8258 80.7777 60.8135 80.7405 60.7904 80.7102C60.7904 80.7102 60.4032 80.3934 60.1216 80.1822V79.091C60.3334 79.2858 60.5701 79.4515 60.8256 79.5838C60.8258 79.5457 60.8135 79.5085 60.7904 79.4782C60.7904 79.4782 60.4032 79.1614 60.1216 78.9502V77.7534C60.3334 77.9481 60.5701 78.1139 60.8256 78.2462C60.8258 78.2081 60.8135 78.1709 60.7904 78.1406C60.7904 78.1406 60.4032 77.8238 60.1216 77.6126V76.4862C60.3334 76.6809 60.5701 76.8467 60.8256 76.979C60.8258 76.9409 60.8135 76.9037 60.7904 76.8734C60.7904 76.8734 60.4032 76.5566 60.1216 76.3454V75.2542C60.3398 75.4408 60.5755 75.6059 60.8256 75.747C60.8258 75.7089 60.8135 75.6717 60.7904 75.6414C60.7904 75.6414 60.4032 75.3246 60.1216 75.1134V74.7262C60.1216 74.6558 60.4384 74.6206 60.896 74.6206V94.1566Z" fill="#A1A1A1"/>
<path fill-rule="evenodd" clip-rule="evenodd" d="M61.1954 94.1211L61.125 74.5499V74.3035H61.8642C61.9827 74.2959 62.1016 74.3078 62.2162 74.3387C62.2659 74.3334 62.3157 74.3459 62.357 74.3739C62.3922 74.3739 62.4274 74.3739 62.4274 74.4091C62.4274 74.4443 62.4626 74.4443 62.4978 74.4443V74.5147C62.1458 74.6907 61.1954 75.3947 61.1602 75.3947C61.125 75.3947 61.125 75.5355 61.125 75.5355C61.301 75.6059 62.2866 74.9019 62.4978 74.6555V75.7467C62.1458 75.9227 61.1602 76.6267 61.1602 76.6267C61.0898 76.6619 61.125 76.7675 61.125 76.7675C61.301 76.8379 62.2866 76.1339 62.4978 75.8875V77.0139C62.1458 77.1899 61.1954 77.8939 61.1602 77.8939C61.125 77.8939 61.125 78.0699 61.125 78.0347C61.301 78.1051 62.2866 77.3659 62.4978 77.1547V78.3867C62.1458 78.5627 61.1954 79.2667 61.1602 79.2667C61.125 79.2667 61.125 79.4075 61.125 79.4075C61.301 79.4779 62.2866 78.7387 62.4978 78.5275V79.6187C62.1458 79.7947 61.1954 80.4987 61.1602 80.4987C61.125 80.4987 61.125 80.6395 61.125 80.6395C61.301 80.7099 62.2866 80.0059 62.4978 79.7595V80.8859C62.1458 81.0619 61.1954 81.7659 61.1602 81.7659C61.125 81.7659 61.125 81.9419 61.125 81.9067C61.301 81.9771 62.2866 81.2379 62.4978 81.0267V83.4555C62.1458 83.6315 61.1954 84.3355 61.1602 84.3355C61.125 84.3355 61.125 84.4763 61.125 84.4763C61.301 84.5467 62.2866 83.8427 62.4978 83.5963V84.7227C62.1458 84.8987 61.1954 85.6027 61.1602 85.6027C61.125 85.6027 61.125 85.7787 61.125 85.7435C61.301 85.8139 62.2866 85.0747 62.4978 84.8635V86.0955C62.1458 86.2715 61.1954 86.9755 61.1602 86.9755C61.125 86.9755 61.125 87.1515 61.125 87.1163C61.301 87.1867 62.2866 86.4475 62.4978 86.2363V87.3275C62.1458 87.5035 61.1954 88.2075 61.1602 88.2075C61.125 88.2075 61.125 88.3483 61.125 88.3483C61.301 88.4187 62.2866 87.7147 62.4978 87.4683V88.5947C62.1458 88.7707 61.1954 89.4747 61.1602 89.4747C61.125 89.4747 61.125 89.6507 61.125 89.6155C61.301 89.6859 62.2866 88.9467 62.4978 88.7355V90.0379C62.1458 90.2139 61.1602 90.9179 61.1602 90.9179C61.0898 90.9531 61.125 91.0587 61.125 91.0587C61.301 91.1291 62.2866 90.4251 62.4978 90.1787V91.3051C62.1458 91.4811 61.1954 92.1851 61.1602 92.1851C61.125 92.1851 61.125 92.3259 61.125 92.3259C61.301 92.3963 62.2866 91.6923 62.4978 91.4459V92.5758C62.1458 92.7518 61.1602 93.4558 61.1602 93.4558C61.0898 93.491 61.125 93.6318 61.125 93.5966C61.301 93.667 62.2866 92.9278 62.4978 92.7166V94.2654C62.4274 94.371 61.8642 94.4766 61.1602 94.4766H61.0898V94.1246L61.1954 94.1211Z" fill="#A1A1A1"/>
<path fill-rule="evenodd" clip-rule="evenodd" d="M60.8081 74.5501V74.3389C60.5453 74.3156 60.2806 74.3517 60.0337 74.4445V74.8317C60.2671 74.994 60.4904 75.1704 60.7025 75.3597C60.7256 75.39 60.738 75.4272 60.7377 75.4653C60.6673 75.5005 60.3153 75.2189 60.0337 74.9725V76.0637C60.3153 76.2749 60.7025 76.5917 60.7025 76.5917C60.7256 76.622 60.738 76.6592 60.7377 76.6973C60.6673 76.7325 60.2801 76.4509 60.0337 76.2045V77.3309C60.2671 77.4932 60.4904 77.6696 60.7025 77.8589C60.7256 77.8892 60.738 77.9264 60.7377 77.9645C60.6673 77.9997 60.2801 77.7181 60.0337 77.4717V78.6685C60.3153 78.8797 60.7025 79.1965 60.7025 79.1965C60.7256 79.2268 60.738 79.264 60.7377 79.3021C60.6673 79.3373 60.2801 79.0557 60.0337 78.8093V79.904C60.2671 80.0664 60.4904 80.2427 60.7025 80.432C60.7256 80.4624 60.738 80.4995 60.7377 80.5376C60.6673 80.5728 60.2801 80.2912 60.0337 80.0448V81.1712C60.3153 81.3824 60.7025 81.6992 60.7025 81.6992C60.7256 81.7296 60.738 81.7667 60.7377 81.8048C60.6673 81.84 60.2801 81.5584 60.0337 81.312V83.7408C60.3153 83.952 60.7025 84.2688 60.7025 84.2688C60.7256 84.2992 60.738 84.3363 60.7377 84.3744C60.6673 84.4096 60.2801 84.128 60.0337 83.8816V85.008C60.2671 85.1704 60.4904 85.3467 60.7025 85.536C60.7256 85.5664 60.738 85.6035 60.7377 85.6416C60.6673 85.6768 60.2801 85.3952 60.0337 85.1488V86.3808C60.3153 86.592 60.7025 86.9088 60.7025 86.9088C60.7256 86.9392 60.738 86.9763 60.7377 87.0144C60.6673 87.0496 60.2801 86.768 60.0337 86.5216V87.6128C60.2671 87.7752 60.4904 87.9515 60.7025 88.1408C60.7256 88.1712 60.738 88.2083 60.7377 88.2464C60.6673 88.2816 60.2801 88 60.0337 87.7536V88.88C60.2671 89.0424 60.4904 89.2187 60.7025 89.408C60.7256 89.4384 60.738 89.4755 60.7377 89.5136C60.6673 89.5488 60.2801 89.2672 60.0337 89.0208V91.5552C60.2671 91.7176 60.4904 91.8939 60.7025 92.0832C60.7256 92.1136 60.738 92.1507 60.7377 92.1888C60.6673 92.224 60.3153 91.9424 60.0337 91.696V92.8224C60.3153 93.0336 60.7025 93.3504 60.7025 93.3504C60.7256 93.3808 60.738 93.4179 60.7377 93.456C60.6673 93.4912 60.2801 93.2096 60.0337 92.9632V94.2304C60.0689 94.2304 60.1041 94.2656 60.1393 94.2656C60.3595 94.3102 60.5834 94.3338 60.8081 94.336V74.5536V74.5501ZM62.5681 92.8541C62.3569 93.1005 61.3713 93.8045 61.1953 93.7341C61.1953 93.7693 61.1601 93.6285 61.2305 93.5933C61.2305 93.5933 62.2161 92.8893 62.5681 92.7133V91.5869C62.3569 91.7981 61.3713 92.5373 61.1953 92.4669C61.1953 92.5021 61.1601 92.3965 61.2305 92.3261C61.6571 92.0045 62.1039 91.7105 62.5681 91.4461V90.3197C62.3569 90.5309 61.3713 91.2701 61.1953 91.1997C61.1953 91.2349 61.1601 91.1293 61.2305 91.0589C61.2305 91.0589 62.2161 90.3549 62.5681 90.1789V88.8765C62.3569 89.0877 61.3713 89.8269 61.1953 89.7565C61.1953 89.7917 61.1601 89.6509 61.2305 89.6157C61.6571 89.2941 62.1039 89.0001 62.5681 88.7357V87.6093C62.3569 87.8205 61.3713 88.5597 61.1953 88.4893C61.1953 88.5245 61.1601 88.4189 61.2305 88.3485C61.6571 88.0269 62.1039 87.7329 62.5681 87.4685V86.3421C62.3569 86.5533 61.3713 87.2925 61.1953 87.2221C61.1953 87.2573 61.1601 87.1165 61.2305 87.0813C61.6571 86.7597 62.1039 86.4657 62.5681 86.2013V84.9693C62.3569 85.1805 61.3713 85.9197 61.1953 85.8493C61.1953 85.8845 61.1601 85.7437 61.2305 85.7085C61.6571 85.3869 62.1039 85.0929 62.5681 84.8285V79.8301C62.3569 80.0413 61.3713 80.7805 61.1953 80.7101C61.1953 80.7453 61.1601 80.6397 61.2305 80.5693C61.6571 80.2477 62.1039 79.9537 62.5681 79.6893V78.5629C62.3569 78.7741 61.3713 79.5133 61.1953 79.4429C61.1953 79.4429 61.1953 79.3373 61.2305 79.3021C61.6571 78.9805 62.1039 78.6865 62.5681 78.4221V77.1901C62.3569 77.4013 61.3713 78.1405 61.1953 78.0701C61.1953 78.1053 61.1601 77.9645 61.2305 77.9293C61.6571 77.6077 62.1039 77.3137 62.5681 77.0493V75.8877C62.3569 76.0989 61.3713 76.8381 61.1953 76.7677C61.2008 76.7194 61.2127 76.6721 61.2305 76.6269C61.2305 76.6269 62.2161 75.9229 62.5681 75.7469V74.6557C62.3569 74.8669 61.3713 75.6061 61.1953 75.5357C61.1953 75.5709 61.1601 75.4653 61.2305 75.3949C61.6571 75.0733 62.1039 74.7793 62.5681 74.5149V74.4797C62.5411 74.4771 62.516 74.4646 62.4977 74.4445C62.4625 74.4445 62.4273 74.4445 62.4273 74.4093C62.1719 74.3617 61.9127 74.3381 61.6529 74.3389H61.1953V74.5853L61.2657 94.1565V94.6493H61.3361C61.7923 94.684 62.2503 94.6117 62.6737 94.4381V94.4029L62.5681 92.8541ZM62.5329 83.7021C62.3217 83.9133 61.3361 84.6525 61.1601 84.5821C61.1601 84.6173 61.1249 84.5117 61.1953 84.4413C61.6219 84.1197 62.0687 83.8257 62.5329 83.5613V83.7021ZM61.1953 81.8365C61.6219 81.5149 62.0687 81.2209 62.5329 80.9565V81.0973C62.3217 81.3085 61.3361 82.0477 61.1601 81.9773C61.1601 82.016 61.1601 81.8717 61.1953 81.8365Z" fill="#A1A1A1"/>
<path d="M60.069 84.0539C60.0597 84.0539 60.0507 84.0502 60.0441 84.0436C60.0375 84.037 60.0338 84.0281 60.0338 84.0187C59.9986 83.9483 59.9634 83.8779 60.0338 83.8779H60.069" fill="#A1A1A1"/>
<path fill-rule="evenodd" clip-rule="evenodd" d="M60.773 91.1678C60.7733 91.1297 60.7609 91.0926 60.7378 91.0622C60.7378 91.0622 60.3506 90.7454 60.0338 90.499H59.9986C59.9282 90.499 59.9282 90.5342 59.9986 90.6398C60.2802 90.8827 60.7026 91.1995 60.773 91.1678Z" fill="#A1A1A1"/>
<path fill-rule="evenodd" clip-rule="evenodd" d="M60.1921 94.5084C60.173 94.5107 60.1536 94.5088 60.1353 94.5027C60.1171 94.4966 60.1004 94.4865 60.0865 94.4732V94.5788C60.0771 94.5788 60.0682 94.5751 60.0616 94.5685C60.055 94.5619 60.0513 94.553 60.0513 94.5436C60.038 94.5297 60.0279 94.513 60.0218 94.4948C60.0157 94.4765 60.0138 94.4571 60.0161 94.438C60.0161 94.4028 60.0161 94.4028 60.0865 94.4028H60.1217C60.1041 94.4732 60.1393 94.5084 60.1921 94.5084Z" fill="#A1A1A1"/>
<path fill-rule="evenodd" clip-rule="evenodd" d="M62.6032 94.3678C62.4976 94.5086 62.0048 94.6142 61.3712 94.6142H60.984C60.7709 94.6121 60.5587 94.5886 60.3504 94.5438C60.3152 94.5438 60.28 94.5438 60.28 94.5086C60.2533 94.5049 60.2285 94.4926 60.2096 94.4734L60.1392 94.403C60.1392 94.3678 60.2096 94.3326 60.3152 94.2974C60.5408 94.217 60.7799 94.1811 61.0192 94.1918H61.3712C61.9696 94.1214 62.4976 94.227 62.6032 94.3678Z" fill="#A1A1A1"/>
<path fill-rule="evenodd" clip-rule="evenodd" d="M62.5328 74.4443C62.1306 74.5456 61.7145 74.5813 61.3008 74.5499H60.8433C60.5805 74.5732 60.3158 74.5371 60.0688 74.4443C60.3158 74.3515 60.5805 74.3154 60.8433 74.3387H61.3008C61.7145 74.3073 62.1306 74.3429 62.5328 74.4443Z" fill="#A1A1A1"/>
<path d="M60.6321 83.2447C60.5969 83.2447 60.5617 83.2799 60.5265 83.3151L60.4561 83.2447C60.4209 83.2095 60.4209 83.2095 60.4209 83.1743V83.2447C60.4209 83.2447 60.4209 83.2095 60.4561 83.2447L60.5265 83.3151V83.3503H60.4561C60.4209 83.3503 60.4209 83.3503 60.4209 83.3151V83.3855C60.4209 83.3503 60.4209 83.3503 60.4561 83.3503H60.5617C60.5969 83.3503 60.5969 83.3503 60.5969 83.3855V83.3151C60.5969 83.3503 60.5969 83.3503 60.5617 83.3503H60.4913C60.5428 83.3216 60.5901 83.2861 60.6321 83.2447Z" fill="#A1A1A1"/>
<path d="M60.5969 83.0332C60.5617 83.0332 60.5617 83.0684 60.5265 83.1036C60.5265 83.1106 60.5244 83.1174 60.5205 83.1232C60.5167 83.1289 60.5112 83.1335 60.5047 83.1361C60.4983 83.1388 60.4912 83.1395 60.4844 83.1381C60.4776 83.1368 60.4713 83.1334 60.4664 83.1285C60.4614 83.1236 60.4581 83.1173 60.4567 83.1105C60.4554 83.1036 60.4561 83.0966 60.4587 83.0901C60.4614 83.0837 60.4659 83.0782 60.4717 83.0743C60.4775 83.0705 60.4843 83.0684 60.4913 83.0684H60.4561V83.1036C60.4576 83.1217 60.4656 83.1387 60.4784 83.1516C60.4913 83.1645 60.5083 83.1724 60.5265 83.174C60.5617 83.174 60.5617 83.1388 60.5969 83.1036C60.5617 83.1036 60.5617 83.0684 60.5969 83.0332C60.6321 83.0684 60.6321 83.0684 60.6321 83.1036C60.6305 83.1217 60.6225 83.1387 60.6097 83.1516C60.5968 83.1645 60.5798 83.1724 60.5617 83.174H60.5969V83.1036C60.6015 83.099 60.6053 83.0935 60.6078 83.0875C60.6103 83.0814 60.6116 83.075 60.6116 83.0684C60.6116 83.0618 60.6103 83.0554 60.6078 83.0493C60.6053 83.0433 60.6015 83.0378 60.5969 83.0332Z" fill="#A1A1A1"/>
<path d="M60.5969 82.8927L60.6321 82.8223C60.6295 82.8493 60.617 82.8744 60.5969 82.8927C60.5359 82.8835 60.4737 82.8959 60.4209 82.9279L60.5969 82.9983C60.6062 82.9983 60.6152 83.002 60.6218 83.0086C60.6284 83.0152 60.6321 83.0241 60.6321 83.0335V82.9631C60.6321 82.9983 60.6321 82.9983 60.5969 82.9983H60.5617V82.9279L60.5969 82.8927ZM60.5617 82.9631C60.535 82.9593 60.5103 82.947 60.4913 82.9279L60.5617 82.8927V82.9631Z" fill="#A1A1A1"/>
<path d="M61.7935 83.5963V83.5259H61.7231V83.7723H61.7935V83.7019H62.1103V83.6315H61.7935V83.5963Z" fill="#A1A1A1"/>
<path d="M62.0047 83.2443L62.1103 83.2091V83.1387L61.7583 83.2091V83.3851L61.7935 83.4203H61.8287L62.1103 83.4907V83.4238L61.9343 83.3886H61.7935V83.3182L61.9343 83.283V83.3886L62.0047 83.3534V83.2443Z" fill="#A1A1A1"/>
<path d="M62.1103 82.6812V82.6108L61.7583 82.6812V82.822H61.8287L62.0047 82.8572L61.7583 82.8924V83.0332H61.8287L62.1103 83.1036V83.0332L61.8287 82.9628L62.1103 82.9276V82.822L61.8287 82.7868L62.1103 82.6812Z" fill="#A1A1A1"/>
<path d="M62.0399 82.3291V82.5051H61.9695V82.3678H61.8991V82.5086H61.8639C61.8287 82.5086 61.8287 82.5086 61.7935 82.4734V82.3326L61.7231 82.3678V82.5086C61.7231 82.518 61.7269 82.5269 61.7335 82.5335C61.7401 82.5401 61.749 82.5438 61.7583 82.5438C61.7935 82.579 61.7935 82.579 61.8287 82.579H62.0047C62.0399 82.579 62.0399 82.579 62.0751 82.5438C62.1103 82.5086 62.1103 82.5086 62.1103 82.4734V82.3326L62.0399 82.3291Z" fill="#A1A1A1"/>
<path d="M62.0399 82.0478V82.1886H61.9695V82.0478H61.8991V82.1886H61.8639C61.8287 82.1886 61.8287 82.1886 61.7935 82.1534V82.0161L61.7231 82.0513V82.1921C61.7231 82.2014 61.7269 82.2104 61.7335 82.217C61.7401 82.2236 61.749 82.2273 61.7583 82.2273C61.7935 82.2625 61.7935 82.2625 61.8287 82.2625H62.0047C62.0399 82.2625 62.0399 82.2625 62.0751 82.2273C62.0943 82.2083 62.1066 82.1836 62.1103 82.1569V82.0161L62.0399 82.0478Z" fill="#A1A1A1"/>
<path d="M61.9696 81.8365V81.9069L62.1104 81.8365V81.7661L61.9696 81.8365ZM61.9696 81.9421H61.7936V81.8365H61.864V81.9421L61.9344 81.9069V81.8365C61.9344 81.8271 61.9307 81.8182 61.9241 81.8116C61.9175 81.805 61.9085 81.8013 61.8992 81.8013C61.864 81.7661 61.864 81.7661 61.8288 81.7661C61.8097 81.7638 61.7903 81.7657 61.772 81.7718C61.7538 81.7779 61.7371 81.788 61.7232 81.8013C61.688 81.8365 61.688 81.8365 61.688 81.8717V82.0125H62.04V81.9421H61.9696Z" fill="#A1A1A1"/>
<path fill-rule="evenodd" clip-rule="evenodd" d="M56.8657 97.9935C56.7601 97.9935 56.6545 98.0287 56.5137 98.0287V97.7119C56.6222 97.8163 56.74 97.9106 56.8657 97.9935Z" fill="#A1A1A1"/>
<path fill-rule="evenodd" clip-rule="evenodd" d="M57.3233 97.5042V97.9618C57.2529 97.9618 57.1473 97.997 57.0417 97.997C56.9028 97.8629 56.7493 97.7448 56.5841 97.645C56.5489 97.6098 56.5489 97.6098 56.5137 97.6098V96.4834C56.7319 96.67 56.9676 96.835 57.2177 96.9762C57.2179 96.938 57.2056 96.9009 57.1825 96.8706C57.1825 96.8706 56.7953 96.5538 56.5137 96.3426V93.8082C56.7255 94.0029 56.9622 94.1686 57.2177 94.301C57.2179 94.2628 57.2056 94.2257 57.1825 94.1954C57.1825 94.1954 56.7953 93.8786 56.5137 93.6674V92.541C56.7255 92.7357 56.9622 92.9014 57.2177 93.0338C57.2179 92.9956 57.2056 92.9585 57.1825 92.9282C56.9704 92.7388 56.7471 92.5625 56.5137 92.4002V91.309C56.7255 91.5037 56.9622 91.6694 57.2177 91.8018C57.2179 91.7636 57.2056 91.7265 57.1825 91.6962C57.1825 91.6962 56.7953 91.3794 56.5137 91.1682V89.9362C56.7255 90.1309 56.9622 90.2966 57.2177 90.429C57.2179 90.3908 57.2056 90.3537 57.1825 90.3234C57.1825 90.3234 56.7953 90.0066 56.5137 89.7954V88.669C56.7255 88.8637 56.9622 89.0294 57.2177 89.1618C57.2179 89.1236 57.2056 89.0865 57.1825 89.0562C57.1825 89.0562 56.7953 88.7394 56.5137 88.5282V86.0994C56.7255 86.2941 56.9622 86.4598 57.2177 86.5922C57.2179 86.554 57.2056 86.5169 57.1825 86.4866C57.1825 86.4866 56.7953 86.1698 56.5137 85.9586V84.8322C56.7255 85.0269 56.9622 85.1926 57.2177 85.325C57.2179 85.2868 57.2056 85.2497 57.1825 85.2194C57.1825 85.2194 56.7953 84.9026 56.5137 84.6914V83.4242C56.7255 83.6189 56.9622 83.7846 57.2177 83.917C57.2179 83.8788 57.2056 83.8417 57.1825 83.8114C57.1825 83.8114 56.7953 83.4946 56.5137 83.2834V82.0866C56.7255 82.2813 56.9622 82.447 57.2177 82.5794C57.2179 82.5412 57.2056 82.5041 57.1825 82.4738C57.1825 82.4738 56.7953 82.157 56.5137 81.9458V80.8194C56.7255 81.0141 56.9622 81.1798 57.2177 81.3122C57.2179 81.274 57.2056 81.2369 57.1825 81.2066C57.1825 81.2066 56.7953 80.8898 56.5137 80.6786V79.5874C56.7319 79.774 56.9676 79.939 57.2177 80.0802C57.2179 80.042 57.2056 80.0049 57.1825 79.9746C57.1825 79.9746 56.7953 79.6578 56.5137 79.4466V79.0594C56.5327 79.0403 56.5574 79.0279 56.5841 79.0242C56.642 79.009 56.7008 78.9972 56.7601 78.989C56.9342 78.9572 57.1113 78.9454 57.2881 78.9538V79.165L57.3233 95.005V97.5042Z" fill="#A1A1A1"/>
<path fill-rule="evenodd" clip-rule="evenodd" d="M57.6402 97.4299V94.7899L57.605 79.0555V78.8091H58.661C58.7314 78.8091 58.7666 78.8091 58.8018 78.8443C58.837 78.8795 58.8722 78.8443 58.8722 78.8795H58.9426V78.9499C58.5906 79.1259 57.6402 79.8299 57.605 79.8299C57.5698 79.8299 57.5698 79.9707 57.5698 79.9707C57.7458 80.0411 58.7314 79.3371 58.9426 79.0907V80.1819C58.5906 80.3579 57.605 81.0619 57.605 81.0619C57.5346 81.0971 57.5698 81.2027 57.5698 81.2027C57.7458 81.2731 58.7314 80.5691 58.9426 80.3227V81.4491C58.5906 81.6251 57.6402 82.3291 57.605 82.3291C57.5698 82.3291 57.5698 82.5051 57.5698 82.4699C57.7458 82.5403 58.7314 81.8011 58.9426 81.5899V82.8219C58.5906 82.9979 57.6402 83.7019 57.605 83.7019C57.5698 83.7019 57.5698 83.8427 57.5698 83.8427C57.7458 83.9131 58.7314 83.1739 58.9426 82.9627V84.0539C58.5906 84.2299 57.6402 84.9339 57.605 84.9339C57.5698 84.9339 57.5698 85.0747 57.5698 85.0747C57.7458 85.1451 58.7314 84.4411 58.9426 84.1947V85.3211C58.5906 85.4971 57.6402 86.2011 57.605 86.2011C57.5698 86.2011 57.5698 86.3771 57.5698 86.3419C57.7458 86.4123 58.7314 85.6731 58.9426 85.4619V87.8907C58.5906 88.0667 57.6402 88.7707 57.605 88.7707C57.5698 88.7707 57.5698 88.9115 57.5698 88.9115C57.7458 88.9819 58.7314 88.2779 58.9426 88.0315V89.1579C58.5906 89.3339 57.6402 90.0379 57.605 90.0379C57.5698 90.0379 57.5698 90.2139 57.5698 90.1787C57.7458 90.2491 58.7314 89.5099 58.9426 89.2987V90.5307C58.5906 90.7067 57.6402 91.4107 57.605 91.4107C57.5698 91.4107 57.5698 91.5867 57.5698 91.5515C57.7458 91.6219 58.7314 90.8827 58.9426 90.6715V91.7627C58.5906 91.9387 57.6402 92.6427 57.605 92.6427C57.5698 92.6427 57.5698 92.7835 57.5698 92.7835C57.7458 92.8539 58.7314 92.1499 58.9426 91.9035V93.0299C58.5906 93.2059 57.6402 93.9099 57.605 93.9099C57.5698 93.9099 57.5698 94.0859 57.5698 94.0507C57.7458 94.1211 58.7314 93.3819 58.9426 93.1707V94.4731C58.7727 94.5696 58.6082 94.6753 58.4498 94.7899C58.0626 95.0363 57.6402 95.3531 57.6402 95.3531C57.5698 95.3883 57.605 95.4939 57.605 95.4939C57.781 95.5643 58.7666 94.8603 58.9778 94.6139V95.7438C58.6258 95.9198 57.6754 96.6238 57.6402 96.6238C57.605 96.6238 57.605 96.7646 57.605 96.7646C57.781 96.835 58.7666 96.131 58.9778 95.8846V97.011C58.7666 97.1166 58.4146 97.363 58.0978 97.5742C57.9218 97.6094 57.7458 97.6446 57.605 97.6798V97.4334L57.6402 97.4299Z" fill="#A1A1A1"/>
<path fill-rule="evenodd" clip-rule="evenodd" d="M58.6958 97.6415C58.8158 97.5651 58.9227 97.4701 59.0126 97.3599V97.5359L58.6958 97.6415Z" fill="#A1A1A1"/>
<path fill-rule="evenodd" clip-rule="evenodd" d="M59.013 97.3598C58.9144 97.4613 58.8085 97.5555 58.6962 97.6414C58.8018 97.6062 58.9074 97.571 59.0482 97.5358L59.013 97.3598ZM59.013 96.0574C58.8018 96.2686 57.8162 97.0078 57.6402 96.9374C57.6402 96.9726 57.605 96.867 57.6754 96.7966C58.102 96.475 58.5487 96.1811 59.013 95.9166V94.7902C58.8018 95.0014 57.8162 95.7406 57.6402 95.6702C57.6402 95.7054 57.605 95.5998 57.6754 95.5294C57.6754 95.5294 58.0978 95.2126 58.485 94.9662C58.6962 94.8254 58.8722 94.7198 58.9778 94.6494V93.347C58.7666 93.5582 57.781 94.2974 57.605 94.227C57.605 94.2622 57.5698 94.1214 57.6402 94.0862C58.0668 93.7646 58.5135 93.4707 58.9778 93.2062V92.0798C58.7666 92.291 57.781 93.0302 57.605 92.9598C57.605 92.995 57.5698 92.8894 57.6402 92.819C58.0668 92.4974 58.5135 92.2035 58.9778 91.939V90.8161C58.7666 91.0273 57.781 91.7665 57.605 91.6961C57.605 91.7313 57.5698 91.5905 57.6402 91.5553C58.0668 91.2337 58.5135 90.9398 58.9778 90.6753V89.4433C58.7666 89.6545 57.781 90.3937 57.605 90.3233C57.605 90.3585 57.5698 90.2177 57.6402 90.1825C58.0668 89.8609 58.5135 89.567 58.9778 89.3025V84.3041C58.7666 84.5153 57.781 85.2545 57.605 85.1841C57.605 85.2193 57.5698 85.1137 57.6402 85.0433C58.0668 84.7217 58.5135 84.4278 58.9778 84.1633V83.0369C58.7666 83.2481 57.781 83.9873 57.605 83.9169C57.605 83.9169 57.605 83.8113 57.6402 83.7761C58.0668 83.4545 58.5135 83.1606 58.9778 82.8961V81.6641C58.7666 81.8753 57.781 82.6145 57.605 82.5441C57.605 82.5793 57.5698 82.4385 57.6402 82.4033C58.0668 82.0817 58.5135 81.7878 58.9778 81.5233V80.3617C58.7666 80.5729 57.781 81.3121 57.605 81.2417C57.6105 81.1935 57.6223 81.1461 57.6402 81.1009C57.6402 81.1009 58.6258 80.3969 58.9778 80.2209V79.1297C58.7666 79.3409 57.781 80.0801 57.605 80.0097C57.605 80.0449 57.5698 79.9393 57.6402 79.8689C58.0668 79.5473 58.5135 79.2534 58.9778 78.9889V78.9537H58.9074C58.8722 78.9537 58.837 78.9537 58.837 78.9185C58.7877 78.92 58.739 78.9078 58.6962 78.8833H57.5698V79.1297L57.605 94.8641V97.9617C57.781 97.9265 57.957 97.8913 58.0978 97.8561C58.4146 97.6449 58.7666 97.3985 58.9778 97.2929V97.1169L59.013 96.0574ZM58.9778 88.1726C58.7666 88.3838 57.781 89.123 57.605 89.0526C57.605 89.0878 57.5698 88.9822 57.6402 88.9118C58.0668 88.5902 58.5135 88.2963 58.9778 88.0318V88.1726ZM57.6402 86.307C58.0668 85.9854 58.5135 85.6915 58.9778 85.427V85.5678C58.7666 85.779 57.781 86.5182 57.605 86.4478C57.6105 86.3996 57.6223 86.3522 57.6402 86.307ZM57.2882 95.3534V94.8958L57.253 79.0558V78.8481H56.6898C56.6194 78.8481 56.5842 78.8833 56.5138 78.8833C56.4434 78.8833 56.4434 78.9185 56.4434 78.9185V79.3057C56.6767 79.4681 56.9001 79.6444 57.1122 79.8337C57.1352 79.8641 57.1476 79.9012 57.1474 79.9393C57.077 79.9745 56.725 79.6929 56.4434 79.4465V80.5377C56.725 80.7489 57.1122 81.0657 57.1122 81.0657C57.1352 81.0961 57.1476 81.1332 57.1474 81.1713C57.077 81.2065 56.6898 80.9249 56.4434 80.6785V81.8049C56.6767 81.9673 56.9001 82.1436 57.1122 82.3329C57.1352 82.3633 57.1476 82.4004 57.1474 82.4385C57.077 82.4737 56.6898 82.1921 56.4434 81.9457V83.1425C56.725 83.3537 57.1122 83.6705 57.1122 83.6705C57.1352 83.7009 57.1476 83.738 57.1474 83.7761C57.077 83.8113 56.6898 83.5297 56.4434 83.2833V84.3745C56.6767 84.5369 56.9001 84.7132 57.1122 84.9025C57.1352 84.9329 57.1476 84.97 57.1474 85.0081C57.077 85.0433 56.6898 84.7617 56.4434 84.5153V85.6417C56.725 85.8529 57.1122 86.1697 57.1122 86.1697C57.1352 86.2001 57.1476 86.2372 57.1474 86.2753C57.077 86.3105 56.6898 86.0289 56.4434 85.7825V88.2113C56.725 88.4225 57.1122 88.7393 57.1122 88.7393C57.1352 88.7697 57.1476 88.8068 57.1474 88.8449C57.077 88.8801 56.6898 88.5985 56.4434 88.3521V89.4785C56.6767 89.6409 56.9001 89.8172 57.1122 90.0065C57.1352 90.0369 57.1476 90.074 57.1474 90.1121C57.077 90.1473 56.6898 89.8657 56.4434 89.6193V90.8513C56.725 91.0625 57.1122 91.3793 57.1122 91.3793C57.1352 91.4097 57.1476 91.4468 57.1474 91.4849C57.077 91.5201 56.6898 91.2385 56.4434 90.9921V92.0833C56.6767 92.2457 56.9001 92.422 57.1122 92.6113C57.1352 92.6417 57.1476 92.6788 57.1474 92.7169C57.077 92.7521 56.6898 92.4705 56.4434 92.2241V93.3505C56.6767 93.5129 56.9001 93.6892 57.1122 93.8785C57.1352 93.9089 57.1476 93.946 57.1474 93.9841C57.077 94.0193 56.6898 93.7377 56.4434 93.4913V96.0257C56.6767 96.1881 56.9001 96.3644 57.1122 96.5537C57.1352 96.5841 57.1476 96.6212 57.1474 96.6593C57.077 96.6945 56.725 96.4129 56.4434 96.1665V97.2929C56.4786 97.2929 56.4786 97.3281 56.5138 97.3281C56.679 97.428 56.8325 97.5461 56.9714 97.6801C57.0418 97.6801 57.1474 97.6449 57.253 97.6449V97.5041L57.2882 95.3534ZM56.5138 97.7118V98.0286C56.6194 98.0286 56.725 97.9934 56.8658 97.9934C56.7401 97.9105 56.6222 97.8162 56.5138 97.7118Z" fill="#A1A1A1"/>
<path d="M56.5138 88.5598C56.5045 88.5598 56.4955 88.5561 56.4889 88.5495C56.4823 88.5429 56.4786 88.5339 56.4786 88.5246C56.4434 88.4542 56.4082 88.3838 56.4786 88.3838H56.5138" fill="#A1A1A1"/>
<path fill-rule="evenodd" clip-rule="evenodd" d="M57.2178 95.6703C57.2181 95.6321 57.2057 95.595 57.1826 95.5647C57.1826 95.5647 56.7954 95.2479 56.4786 95.0015H56.4434C56.373 95.0015 56.373 95.0367 56.4434 95.1423C56.6748 95.3546 56.9356 95.5324 57.2178 95.6703Z" fill="#A1A1A1"/>
<path fill-rule="evenodd" clip-rule="evenodd" d="M58.9777 78.9499C58.5754 79.0512 58.1593 79.0869 57.7457 79.0555H57.2881C57.0253 79.0788 56.7606 79.0427 56.5137 78.9499C56.5137 78.8795 56.8305 78.8443 57.2881 78.8443H57.7457C58.1592 78.7932 58.5789 78.8292 58.9777 78.9499Z" fill="#A1A1A1"/>
<path d="M57.0769 87.7148V87.6479V87.7183C57.0417 87.7183 57.0065 87.7535 56.9713 87.7887L56.9009 87.7183C56.8657 87.6831 56.8657 87.6831 56.8657 87.6479V87.7183C56.8657 87.7183 56.8657 87.6831 56.9009 87.7183L56.9713 87.7887V87.8239H56.9009C56.8657 87.8239 56.8657 87.8239 56.8657 87.7887V87.8592C56.8657 87.824 56.8657 87.8239 56.9009 87.8239H57.0065C57.0417 87.8239 57.0417 87.824 57.0417 87.8592V87.7887C57.0417 87.8239 57.0417 87.8239 57.0065 87.8239H56.9361C56.9953 87.807 57.0458 87.768 57.0769 87.7148Z" fill="#A1A1A1"/>
<path d="M57.0417 87.5391C57.0065 87.5391 57.0065 87.5743 56.9713 87.6095C56.9713 87.6188 56.9676 87.6277 56.961 87.6344C56.9544 87.641 56.9454 87.6447 56.9361 87.6447C56.9009 87.6447 56.9009 87.6447 56.9009 87.6095C56.9009 87.6001 56.9046 87.5912 56.9112 87.5846C56.9178 87.578 56.9267 87.5743 56.9361 87.5743H56.9009V87.6095C56.9025 87.6276 56.9104 87.6446 56.9233 87.6575C56.9361 87.6703 56.9531 87.6783 56.9713 87.6799C57.0065 87.6799 57.0065 87.6447 57.0417 87.6095C57.0065 87.5743 57.0065 87.5743 57.0417 87.5391C57.0769 87.5743 57.0769 87.5743 57.0769 87.6095C57.0753 87.6276 57.0674 87.6446 57.0545 87.6575C57.0416 87.6703 57.0246 87.6783 57.0065 87.6799H57.0417V87.6095C57.0464 87.6049 57.0501 87.5994 57.0526 87.5934C57.0552 87.5873 57.0565 87.5808 57.0565 87.5743C57.0565 87.5677 57.0552 87.5612 57.0526 87.5552C57.0501 87.5491 57.0464 87.5437 57.0417 87.5391Z" fill="#A1A1A1"/>
<path d="M57.0417 87.3629L57.0769 87.2925C57.0769 87.3277 57.0769 87.3277 57.0417 87.3629C56.9807 87.3537 56.9185 87.3661 56.8657 87.3981L57.0417 87.4685C57.0511 87.4685 57.06 87.4722 57.0666 87.4788C57.0732 87.4854 57.0769 87.4943 57.0769 87.5037V87.4333C57.0769 87.4685 57.0769 87.4685 57.0417 87.4685H57.0241V87.3981L57.0417 87.3629ZM57.0065 87.4333C56.9798 87.4296 56.9551 87.4172 56.9361 87.3981L57.0065 87.3629V87.4333Z" fill="#A1A1A1"/>
<path d="M58.2384 88.0669V88H58.168V88.2464H58.2384V88.176H58.5552V88.1056H58.2384V88.0669Z" fill="#A1A1A1"/>
<path d="M58.4495 87.7148L58.5551 87.6796V87.6479L58.2031 87.7183V87.8943L58.2383 87.9296H58.2735L58.5551 87.9999V87.9296L58.3791 87.8943H58.2383V87.8239L58.3791 87.7887V87.8943L58.4495 87.8592V87.7148Z" fill="#A1A1A1"/>
<path d="M58.5551 87.1871V87.1167L58.2031 87.1871V87.3279H58.2735L58.4495 87.3631L58.2031 87.3983V87.5391H58.2735L58.5551 87.6095V87.5391L58.2735 87.4687L58.5551 87.4335V87.2962L58.2735 87.261L58.5551 87.1871Z" fill="#A1A1A1"/>
<path d="M58.4847 86.835V87.011H58.4319V86.8702H58.3615V87.011H58.3263C58.2911 87.011 58.2911 87.011 58.2559 86.9758V86.835L58.1855 86.8702V87.011C58.1855 87.0203 58.1893 87.0292 58.1959 87.0359C58.2025 87.0425 58.2114 87.0462 58.2207 87.0462C58.2559 87.0814 58.2559 87.0814 58.2911 87.0814H58.4671C58.5023 87.0814 58.5023 87.0814 58.5375 87.0462C58.5727 87.011 58.5727 87.011 58.5727 86.9758V86.835H58.4847Z" fill="#A1A1A1"/>
<path d="M58.4847 86.5532V86.694H58.4319V86.5919H58.3615V86.7327H58.3263C58.2911 86.7327 58.2911 86.7327 58.2559 86.6975V86.5567L58.1855 86.5919V86.7327C58.1855 86.7421 58.1893 86.751 58.1959 86.7576C58.2025 86.7642 58.2114 86.7679 58.2207 86.7679C58.2559 86.8031 58.2559 86.8031 58.2911 86.8031H58.4671C58.5023 86.8031 58.5023 86.8031 58.5375 86.7679C58.5567 86.749 58.569 86.7242 58.5727 86.6975V86.5919L58.4847 86.5532Z" fill="#A1A1A1"/>
<path d="M58.432 86.4479H58.256V86.3423H58.3264V86.4479L58.3968 86.4127V86.3423C58.3968 86.333 58.3931 86.324 58.3865 86.3174C58.3799 86.3108 58.3709 86.3071 58.3616 86.3071C58.3264 86.2719 58.3264 86.2719 58.2912 86.2719C58.2721 86.2696 58.2527 86.2716 58.2344 86.2777C58.2162 86.2838 58.1995 86.2938 58.1856 86.3071C58.1504 86.3423 58.1504 86.3423 58.1504 86.3775V86.5183H58.5024V86.4479H58.432ZM58.432 86.3423V86.4127L58.5728 86.3423V86.2402L58.432 86.3423Z" fill="#A1A1A1"/>
<path fill-rule="evenodd" clip-rule="evenodd" d="M53.6625 95.4591H52.9937V95.0015C53.0797 95.0922 53.1739 95.1746 53.2753 95.2479C53.3105 95.2831 53.3456 95.3183 53.3808 95.3183C53.416 95.3183 53.4513 95.3535 53.4513 95.3887C53.4513 95.4239 53.5217 95.4239 53.5217 95.4591C53.5483 95.4628 53.5731 95.4751 53.5921 95.4943C53.6273 95.4239 53.6625 95.4239 53.6625 95.4591Z" fill="#A1A1A1"/>
<path fill-rule="evenodd" clip-rule="evenodd" d="M53.7681 95.4237H53.6977C53.7 95.4046 53.698 95.3852 53.6919 95.367C53.6858 95.3487 53.6758 95.332 53.6625 95.3181C53.6625 95.3181 53.2753 95.0013 52.9937 94.7901V93.5581C53.2054 93.7529 53.4422 93.9186 53.6977 94.0509C53.6979 94.0128 53.6855 93.9757 53.6625 93.9453C53.6625 93.9453 53.2753 93.6285 52.9937 93.4173V92.2909C53.2054 92.4857 53.4422 92.6514 53.6977 92.7837C53.6979 92.7456 53.6855 92.7085 53.6625 92.6781C53.6625 92.6781 53.2753 92.3613 52.9937 92.1501V89.7213C53.2054 89.9161 53.4422 90.0818 53.6977 90.2141C53.6979 90.176 53.6855 90.1389 53.6625 90.1085C53.6625 90.1085 53.2753 89.7917 52.9937 89.5805V88.4541C53.2054 88.6489 53.4422 88.8146 53.6977 88.9469C53.6979 88.9088 53.6855 88.8717 53.6625 88.8413C53.6625 88.8413 53.2753 88.5245 52.9937 88.3133V87.2221C53.2054 87.4169 53.4422 87.5826 53.6977 87.7149C53.6979 87.6768 53.6855 87.6397 53.6625 87.6093C53.6625 87.6093 53.2753 87.2925 52.9937 87.0813V85.888C53.2054 86.0828 53.4422 86.2485 53.6977 86.3808C53.6979 86.3427 53.6855 86.3056 53.6625 86.2752C53.6625 86.2752 53.2753 85.9584 52.9937 85.7472V84.6208C53.2054 84.8156 53.4422 84.9813 53.6977 85.1136C53.6979 85.0755 53.6855 85.0384 53.6625 85.008C53.6625 85.008 53.2753 84.6912 52.9937 84.48V83.3888C53.2118 83.5755 53.4476 83.7405 53.6977 83.8816C53.6979 83.8435 53.6855 83.8064 53.6625 83.776C53.6625 83.776 53.2753 83.4592 52.9937 83.248V82.72C53.0126 82.7009 53.0374 82.6886 53.0641 82.6848C53.1546 82.6541 53.2504 82.6421 53.3457 82.6496H53.7681V95.4272V95.4237Z" fill="#A1A1A1"/>
<path fill-rule="evenodd" clip-rule="evenodd" d="M55.493 94.4381C55.141 94.6141 54.1906 95.3181 54.1554 95.3181C54.1421 95.332 54.132 95.3487 54.1259 95.3669C54.1198 95.3852 54.1179 95.4046 54.1202 95.4237L54.085 82.8221V82.5757H55.1762C55.2466 82.5757 55.2818 82.5757 55.317 82.6109C55.3522 82.6461 55.3874 82.6109 55.3874 82.6461H55.4578V82.7165C55.1058 82.8925 54.1554 83.5965 54.1202 83.5965C54.085 83.5965 54.085 83.7373 54.085 83.7373C54.261 83.8077 55.2466 83.1037 55.4578 82.8573V83.9485C55.1058 84.1245 54.1202 84.8285 54.1202 84.8285C54.0498 84.8637 54.085 84.9693 54.085 84.9693C54.261 85.0397 55.2466 84.3357 55.4578 84.0893V85.2157C55.1058 85.3917 54.1554 86.0957 54.1202 86.0957C54.085 86.0957 54.085 86.2717 54.085 86.2365C54.261 86.3069 55.2466 85.5677 55.4578 85.3565V86.592C55.1058 86.768 54.1554 87.472 54.1202 87.472C54.085 87.472 54.085 87.6128 54.085 87.6128C54.261 87.6832 55.2466 86.944 55.4578 86.7328V87.824C55.1058 88 54.1554 88.704 54.1202 88.704C54.085 88.704 54.085 88.8448 54.085 88.8448C54.261 88.9152 55.2466 88.2112 55.4578 87.9648V89.0912C55.1058 89.2672 54.1554 89.9712 54.1202 89.9712C54.085 89.9712 54.085 90.1472 54.085 90.112C54.261 90.1824 55.2466 89.4432 55.4578 89.232V91.6608C55.1058 91.8368 54.1554 92.5408 54.1202 92.5408C54.085 92.5408 54.085 92.6816 54.085 92.6816C54.261 92.752 55.2466 92.048 55.4578 91.8016V92.928C55.1058 93.104 54.1554 93.808 54.1202 93.808C54.085 93.808 54.085 93.984 54.085 93.9488C54.261 94.0192 55.2466 93.28 55.4578 93.0688L55.493 94.4381Z" fill="#A1A1A1"/>
<path fill-rule="evenodd" clip-rule="evenodd" d="M55.4926 94.6143V95.3183C55.1215 95.3899 54.7442 95.4253 54.3662 95.4239C54.4014 95.3887 54.4366 95.3535 54.4718 95.3535L54.7886 95.1423C54.8942 95.0719 54.9998 94.9663 55.1054 94.8959C55.211 94.8255 55.2462 94.7903 55.3166 94.7199C55.3839 94.7016 55.4449 94.6651 55.4926 94.6143Z" fill="#A1A1A1"/>
<path fill-rule="evenodd" clip-rule="evenodd" d="M55.4928 94.614C55.4527 94.6575 55.405 94.6933 55.3521 94.7196C55.2817 94.79 55.2112 94.8252 55.1408 94.8956C55.027 94.9666 54.9208 95.0492 54.8241 95.142L54.5073 95.3532C54.4721 95.3884 54.4369 95.4236 54.4017 95.4236C54.7889 95.4236 55.1409 95.3532 55.5281 95.318L55.4928 94.614ZM55.4928 93.206C55.2816 93.4172 54.2961 94.1564 54.1201 94.086C54.1201 94.1212 54.0849 93.9804 54.1553 93.9452C54.5819 93.6236 55.0286 93.3297 55.4928 93.0652V88.0668C55.2816 88.278 54.2961 89.0172 54.1201 88.9468C54.1201 88.982 54.0849 88.8764 54.1553 88.806C54.5819 88.4844 55.0286 88.1905 55.4928 87.926V86.7996C55.2816 87.0108 54.2961 87.75 54.1201 87.6796C54.1201 87.6796 54.1201 87.574 54.1553 87.5388C54.5819 87.2172 55.0286 86.9233 55.4928 86.6588V85.4268C55.2816 85.638 54.2961 86.3772 54.1201 86.3068C54.1201 86.342 54.0849 86.2012 54.1553 86.166C54.5819 85.8444 55.0286 85.5505 55.4928 85.286V84.128C55.2816 84.3392 54.2961 85.0784 54.1201 85.008C54.1256 84.9597 54.1374 84.9124 54.1553 84.8672C54.1553 84.8672 55.1408 84.1632 55.4928 83.9872V82.896C55.2816 83.1072 54.2961 83.8464 54.1201 83.776C54.1201 83.8112 54.0849 83.7056 54.1553 83.6352C54.5819 83.3135 55.0286 83.0196 55.4928 82.7552V82.72H55.4225C55.3872 82.72 55.3521 82.72 55.3521 82.6848C55.3028 82.6862 55.254 82.674 55.2113 82.6496H54.0848V82.896L54.1201 95.4976C54.1178 95.4784 54.1197 95.4591 54.1258 95.4408C54.1319 95.4225 54.1419 95.4059 54.1553 95.392C54.5819 95.0703 55.0286 94.7764 55.4928 94.512V93.206ZM55.4928 91.9388C55.2816 92.15 54.2961 92.8892 54.1201 92.8188C54.1201 92.854 54.0849 92.7484 54.1553 92.678C54.5819 92.3564 55.0286 92.0625 55.4928 91.798V91.9388ZM54.1201 90.214C54.1201 90.2492 54.1201 90.1084 54.1553 90.0732C54.5819 89.7516 55.0286 89.4577 55.4928 89.1932V89.334C55.2816 89.5804 54.2609 90.2844 54.1201 90.214ZM53.6273 95.4236C53.5921 95.4236 53.592 95.3884 53.5568 95.3884L53.4865 95.318C53.4683 95.3165 53.4513 95.3085 53.4384 95.2957C53.4256 95.2828 53.4176 95.2658 53.4161 95.2476C53.3809 95.2124 53.3457 95.2124 53.3105 95.1772C53.2012 95.1146 53.1055 95.0308 53.0288 94.9308V95.392C53.2215 95.4572 53.4282 95.4693 53.6273 95.4272V95.4236ZM53.7681 82.822V82.6108H53.3457C53.2049 82.6108 53.1345 82.646 53.0641 82.646C52.9937 82.646 52.9937 82.6812 52.9937 82.6812V83.072C53.227 83.2343 53.4504 83.4106 53.6625 83.6C53.6855 83.6303 53.6979 83.6674 53.6977 83.7056C53.6273 83.7408 53.2753 83.4592 52.9937 83.2128V84.304C53.2753 84.5152 53.6625 84.832 53.6625 84.832C53.6855 84.8623 53.6979 84.8994 53.6977 84.9376C53.6273 84.9728 53.2401 84.6912 52.9937 84.4448V85.5712C53.227 85.7335 53.4504 85.9098 53.6625 86.0992C53.6855 86.1295 53.6979 86.1666 53.6977 86.2048C53.6273 86.24 53.2401 85.9584 52.9937 85.712V86.9088C53.2753 87.12 53.6625 87.4368 53.6625 87.4368C53.6855 87.4671 53.6979 87.5042 53.6977 87.5424C53.6273 87.5776 53.2401 87.296 52.9937 87.0496V88.1408C53.227 88.3031 53.4504 88.4794 53.6625 88.6688C53.6855 88.6991 53.6979 88.7362 53.6977 88.7744C53.6273 88.8096 53.2401 88.528 52.9937 88.2816V89.408C53.2753 89.6192 53.6625 89.936 53.6625 89.936C53.6855 89.9663 53.6979 90.0034 53.6977 90.0416C53.6273 90.0768 53.2401 89.7952 52.9937 89.5488V91.9776C53.2753 92.1888 53.6625 92.5056 53.6625 92.5056C53.6855 92.5359 53.6979 92.573 53.6977 92.6112C53.6273 92.6464 53.2401 92.3648 52.9937 92.1184V93.2448C53.227 93.4071 53.4504 93.5834 53.6625 93.7728C53.6855 93.8031 53.6979 93.8402 53.6977 93.8784C53.6273 93.9136 53.2401 93.632 52.9937 93.3856V94.6176C53.2753 94.8288 53.6625 95.1456 53.6625 95.1456C53.6758 95.1595 53.6858 95.1761 53.6919 95.1944C53.698 95.2127 53.7 95.2321 53.6977 95.2512H53.7681V82.822Z" fill="#A1A1A1"/>
<path d="M52.9938 92.3259C52.9845 92.3259 52.9755 92.3222 52.9689 92.3156C52.9623 92.309 52.9586 92.3 52.9586 92.2907C52.9234 92.2203 52.8882 92.1499 52.9586 92.1499H52.9938" fill="#A1A1A1"/>
<path fill-rule="evenodd" clip-rule="evenodd" d="M55.4577 82.7199C55.0554 82.8213 54.6393 82.8569 54.2257 82.8255H53.7681C53.5053 82.8488 53.2406 82.8127 52.9937 82.7199C52.9937 82.6495 53.3105 82.6143 53.7681 82.6143H54.2257C54.6392 82.5633 55.0588 82.5992 55.4577 82.7199Z" fill="#A1A1A1"/>
<path d="M53.5921 91.481V91.4106C53.5569 91.4458 53.5569 91.4458 53.5921 91.481C53.5569 91.481 53.5217 91.5162 53.4865 91.5514L53.4161 91.481C53.3809 91.4458 53.3809 91.4458 53.3809 91.4106V91.481C53.3809 91.481 53.3809 91.4458 53.4161 91.481L53.4865 91.5514V91.5866H53.4161C53.3809 91.5866 53.3809 91.5866 53.3809 91.5514V91.6218C53.3809 91.5866 53.3809 91.5866 53.4161 91.5866H53.5217C53.5569 91.5866 53.5569 91.5866 53.5569 91.6218V91.5514C53.5569 91.5866 53.5569 91.5866 53.5217 91.5866H53.4513C53.5042 91.5603 53.5519 91.5245 53.5921 91.481Z" fill="#A1A1A1"/>
<path d="M53.5217 91.3052C53.4865 91.3052 53.4865 91.3404 53.4513 91.3756C53.4513 91.3849 53.4476 91.3939 53.441 91.4005C53.4343 91.4071 53.4254 91.4108 53.4161 91.4108C53.3809 91.4108 53.3809 91.4108 53.3809 91.3756C53.3809 91.3662 53.3846 91.3573 53.3912 91.3507C53.3978 91.3441 53.4067 91.3404 53.4161 91.3404H53.3809V91.3756C53.3824 91.3937 53.3904 91.4107 53.4033 91.4236C53.4161 91.4365 53.4331 91.4444 53.4513 91.446C53.4865 91.446 53.4865 91.4108 53.5217 91.3756C53.4865 91.3404 53.5217 91.3404 53.5217 91.3052C53.5569 91.3404 53.5569 91.3404 53.5569 91.3756C53.5553 91.3937 53.5473 91.4107 53.5345 91.4236C53.5216 91.4365 53.5046 91.4444 53.4865 91.446H53.5217V91.3756C53.5921 91.3404 53.5569 91.3052 53.5217 91.3052Z" fill="#A1A1A1"/>
<path d="M53.5569 91.1295L53.5921 91.0591C53.5569 91.0943 53.5569 91.0943 53.5569 91.1295C53.4959 91.1203 53.4336 91.1327 53.3809 91.1647L53.5569 91.2351C53.5662 91.2351 53.5751 91.2388 53.5817 91.2454C53.5884 91.252 53.5921 91.2609 53.5921 91.2703V91.1999C53.5921 91.2351 53.5921 91.2351 53.5569 91.2351H53.5217V91.1682C53.5217 91.1295 53.5217 91.1295 53.5569 91.1295ZM53.4865 91.1999C53.4598 91.1962 53.435 91.1838 53.4161 91.1647L53.4865 91.1295V91.1999Z" fill="#A1A1A1"/>
<path d="M54.7535 91.8331V91.7627H54.6831V92.0091H54.7535V91.9387H55.0703V91.8718H54.7535V91.8331Z" fill="#A1A1A1"/>
<path d="M54.9295 91.4811L55.0351 91.4459V91.3755L54.6831 91.4459V91.6219L54.7183 91.6571H54.7535L55.0351 91.7275V91.6571L54.8591 91.6219H54.7183V91.5198L54.8591 91.4846V91.5902L54.9295 91.555V91.4811Z" fill="#A1A1A1"/>
<path d="M55.0351 90.9532V90.8828L54.6831 90.9532V91.094H54.7535L54.9295 91.1292L54.6831 91.1644V91.3052H54.7535L55.0351 91.3756V91.3052L54.7535 91.2348L55.0351 91.1996V91.094L54.7535 91.0588L55.0351 90.9532Z" fill="#A1A1A1"/>
<path d="M54.9999 90.6011V90.7771H54.9295V90.6363H54.8591V90.7771H54.8239C54.7887 90.7771 54.7887 90.7771 54.7535 90.7419V90.6011L54.6831 90.6363V90.7771C54.6831 90.7864 54.6868 90.7954 54.6934 90.802C54.7 90.8086 54.709 90.8123 54.7183 90.8123C54.7535 90.8475 54.7535 90.8475 54.7887 90.8475H54.9647C54.9999 90.8475 54.9999 90.8475 55.0351 90.8123C55.0703 90.7771 55.0703 90.7771 55.0703 90.7419V90.6011H54.9999Z" fill="#A1A1A1"/>
<path d="M54.9999 90.3199V90.4607H54.9295V90.3199H54.8591V90.4607H54.8239C54.7887 90.4607 54.7887 90.4607 54.7535 90.4255V90.2847L54.6831 90.3199V90.4607C54.6831 90.47 54.6868 90.479 54.6934 90.4856C54.7 90.4922 54.709 90.4959 54.7183 90.4959C54.7535 90.5311 54.7535 90.5311 54.7887 90.5311H54.9647C54.9999 90.5311 54.9999 90.5311 55.0351 90.4959C55.0542 90.4769 55.0666 90.4522 55.0703 90.4255V90.2847L54.9999 90.3199Z" fill="#A1A1A1"/>
<path d="M54.9296 90.1119V90.1823L55.0703 90.1119V90.0415L54.9296 90.1119ZM54.9296 90.2175H54.7536V90.1119H54.8239V90.2175L54.8943 90.1823V90.1119C54.8943 90.1025 54.8906 90.0936 54.884 90.087C54.8774 90.0804 54.8685 90.0767 54.8592 90.0767C54.824 90.0415 54.8239 90.0415 54.7887 90.0415C54.7696 90.0392 54.7503 90.0411 54.732 90.0472C54.7137 90.0533 54.6971 90.0634 54.6832 90.0767C54.648 90.1119 54.6479 90.1119 54.6479 90.1471V90.2879H54.9999V90.2175H54.9296Z" fill="#A1A1A1"/>
<path d="M43.701 96.5853L43.173 96.0573C43.1378 95.9869 43.1026 95.9517 43.0674 95.8813C43.2434 96.1277 43.4898 96.3389 43.701 96.5853Z" fill="#A1A1A1"/>
<path d="M74.8529 89.6156C72.8113 99.19 63.6945 105.667 54.4721 104.153C51.1603 103.616 48.1106 102.024 45.7777 99.6124C45.7282 99.5551 45.6685 99.5074 45.6017 99.4716C44.6299 98.4419 43.7904 97.2949 43.1025 96.0572C43.2605 96.2504 43.4373 96.4273 43.6305 96.5852L43.6657 96.6204C45.9477 98.8179 48.8458 100.267 51.9729 100.774C52.2988 100.838 52.6278 100.885 52.9585 100.915C53.2148 100.956 53.4735 100.979 53.7329 100.985H55.4225C63.2017 100.633 70.2417 94.8252 71.9665 86.7292C73.1985 80.9564 71.4385 75.3948 67.7425 71.6284C68.5919 72.2323 69.3816 72.916 70.1009 73.67L70.1361 73.7052C74.2721 77.542 76.1905 83.4556 74.8529 89.6156Z" fill="#A1A1A1"/>
<path d="M45.6367 99.4719C44.3913 98.2729 43.3456 96.8826 42.5391 95.3535C42.7503 95.5999 42.9263 95.8111 43.1727 96.0575C43.836 97.3017 44.6648 98.4503 45.6367 99.4719Z" fill="#A1A1A1"/>
<path d="M68.5167 87.9611C67.8476 90.2184 66.6292 92.2745 64.9706 93.9454C63.312 95.6162 61.2649 96.8498 59.0127 97.5355C58.9071 97.5707 58.8015 97.6059 58.6607 97.6411C58.4894 97.7044 58.3127 97.7515 58.1327 97.7819C57.9567 97.8171 57.7807 97.8523 57.6399 97.8875C57.4991 97.9227 57.4287 97.9227 57.3231 97.9579C57.2175 97.9931 57.1471 97.9931 57.0415 97.9931C56.9359 97.9931 56.9359 98.0283 56.8655 98.0283C56.7951 98.0283 56.6543 98.0635 56.5135 98.0635C56.1747 98.1045 55.8339 98.128 55.4927 98.1339C55.0351 98.1339 54.5775 98.1339 54.1199 98.0987C54.0131 98.1045 53.906 98.0926 53.8031 98.0635L53.0287 97.9579C52.7322 97.9162 52.4384 97.8575 52.1487 97.7819C49.2477 97.0818 46.7123 95.3245 45.0383 92.8539C44.9679 92.7483 44.8623 92.6075 44.7919 92.5019C44.36 91.8725 43.9943 91.2001 43.7007 90.4955C44.7744 91.9818 46.1723 93.2042 47.7884 94.0702C49.4045 94.9361 51.1965 95.423 53.0287 95.4939H54.0847V95.5291C54.1608 95.5291 54.235 95.5044 54.2959 95.4587H54.3311C54.7183 95.4587 55.0703 95.3883 55.4575 95.3531C58.0142 94.942 60.4035 93.8194 62.352 92.1137C64.3005 90.408 65.7293 88.1882 66.4751 85.7083C67.0855 83.7261 67.1928 81.623 66.7872 79.5889C66.3816 77.5548 65.4759 75.6537 64.1519 74.0571C64.3631 74.2331 64.5391 74.3739 64.7151 74.5499H64.7503C68.4463 77.6123 70.0655 82.7867 68.5167 87.9611Z" fill="#A1A1A1"/>
<path d="M54.3665 95.4238C54.2981 95.4529 54.2275 95.4765 54.1553 95.4942V95.459C54.2081 95.4238 54.2609 95.4238 54.3665 95.4238Z" fill="#A1A1A1"/>
<path d="M81.6816 85.3213L82.28 84.1597H83.7936C84.1104 84.1597 84.2864 83.9837 84.2864 83.5965C84.2859 83.2579 84.1899 82.9263 84.0093 82.6399C83.8287 82.3534 83.571 82.1238 83.2656 81.9773L83.864 80.9565C84.8496 81.5549 85.4128 82.3293 85.4832 83.3149C85.4937 83.5525 85.5666 83.7832 85.6944 83.9837C85.8651 84.1147 86.0784 84.1774 86.2928 84.1597H87.032V85.3213H86.24C85.8093 85.328 85.3885 85.1919 85.0432 84.9341C84.9094 85.0661 84.7494 85.1687 84.5737 85.2354C84.3979 85.3021 84.2102 85.3313 84.0224 85.3213H81.6816Z" fill="#A1A1A1"/>
<path d="M86.9967 87.4684C86.9123 87.473 86.8279 87.4597 86.7489 87.4295C86.67 87.3993 86.5983 87.3528 86.5385 87.293C86.4788 87.2332 86.4322 87.1615 86.402 87.0826C86.3718 87.0036 86.3585 86.9192 86.3631 86.8348C86.3507 86.7487 86.3586 86.661 86.3861 86.5784C86.4135 86.4959 86.4599 86.4209 86.5213 86.3595C86.5828 86.298 86.6578 86.2516 86.7403 86.2242C86.8229 86.1967 86.9106 86.1888 86.9967 86.2012C87.0811 86.1966 87.1655 86.2099 87.2445 86.2401C87.3234 86.2703 87.3951 86.3169 87.4549 86.3766C87.5147 86.4364 87.5612 86.5081 87.5914 86.587C87.6216 86.666 87.6349 86.7504 87.6303 86.8348C87.5951 87.2572 87.3839 87.4684 86.9967 87.4684ZM86.4687 85.3212V84.1596H87.3487C87.5347 84.1654 87.7183 84.1164 87.8767 84.0188C87.99 83.8676 88.0405 83.6784 88.0175 83.4908V81.6956L89.2143 81.062V83.526C89.2377 83.7645 89.2085 84.0052 89.1288 84.2313C89.0491 84.4573 88.9209 84.6631 88.7531 84.8342C88.5853 85.0053 88.3821 85.1376 88.1577 85.2217C87.9333 85.3059 87.6932 85.3398 87.4543 85.3212H86.4687ZM88.4751 87.4684C88.3907 87.473 88.3063 87.4597 88.2273 87.4295C88.1484 87.3993 88.0767 87.3528 88.0169 87.293C87.9572 87.2332 87.9106 87.1615 87.8804 87.0826C87.8502 87.0036 87.8369 86.9192 87.8415 86.8348C87.8291 86.7487 87.837 86.661 87.8645 86.5784C87.8919 86.4959 87.9383 86.4209 87.9997 86.3595C88.0612 86.298 88.1362 86.2516 88.2187 86.2242C88.3012 86.1967 88.389 86.1888 88.4751 86.2012C88.5595 86.1966 88.6439 86.2099 88.7229 86.2401C88.8018 86.2703 88.8735 86.3169 88.9333 86.3766C88.9931 86.4364 89.0396 86.5081 89.0698 86.587C89.1 86.666 89.1133 86.7504 89.1087 86.8348C89.0735 87.2572 88.8975 87.4684 88.4751 87.4684Z" fill="#A1A1A1"/>
<path d="M90.165 85.3213L90.7634 84.1597H92.277C92.5938 84.1597 92.7698 83.9837 92.7698 83.5965C92.7693 83.2579 92.6733 82.9263 92.4927 82.6399C92.3121 82.3534 92.0543 82.1238 91.749 81.9773L92.3474 80.9565C93.333 81.5549 93.8962 82.3293 93.9666 83.3149C93.9771 83.5525 94.05 83.7832 94.1778 83.9837C94.3485 84.1147 94.5618 84.1774 94.7762 84.1597H95.5154V85.3213H94.741C94.3103 85.328 93.8895 85.1919 93.5442 84.9341C93.4104 85.0661 93.2504 85.1687 93.0747 85.2354C92.8989 85.3021 92.7112 85.3313 92.5234 85.3213H90.165Z" fill="#A1A1A1"/>
<path d="M101.218 84.1598H102.027V85.3214H101.218C100.8 85.3277 100.385 85.2683 99.9857 85.1454C99.6559 85.0248 99.3642 84.8182 99.1409 84.547C98.3049 85.0607 97.3413 85.329 96.3601 85.3214H94.9521V84.1598H96.3954C96.8877 84.1846 97.3798 84.1067 97.8404 83.9309C98.301 83.7552 98.7199 83.4855 99.0706 83.139C98.6482 82.3646 98.1202 82.0126 97.4866 82.0126C96.9586 82.0126 96.4305 82.2942 95.7969 82.8574V81.8014C96.019 81.5297 96.2981 81.31 96.6144 81.158C96.9306 81.0059 97.2764 80.9251 97.6274 80.9214C98.1607 80.9286 98.6733 81.1286 99.0706 81.4846C99.5883 81.9149 100.019 82.4407 100.338 83.0334V83.5262C100.232 83.667 100.091 83.8078 99.9506 83.9838C100.36 84.1148 100.788 84.1743 101.218 84.1598Z" fill="#A1A1A1"/>
<path d="M101.464 85.3212V84.1596H102.08C102.304 84.1698 102.526 84.1082 102.713 83.9836C102.786 83.8893 102.838 83.7816 102.868 83.6668C102.899 83.552 102.906 83.4324 102.889 83.3148V79.7596L104.086 79.126V83.3148C104.105 83.5873 104.064 83.8606 103.967 84.1159C103.87 84.3711 103.718 84.6022 103.523 84.7932C103.34 84.9649 103.124 85.0972 102.888 85.1819C102.652 85.2667 102.401 85.3021 102.15 85.286H101.481L101.464 85.3212Z" fill="#A1A1A1"/>
<path d="M105.829 85.3212V79.7596L107.025 79.126V85.3212H105.829Z" fill="#A1A1A1"/>
<path d="M113.467 84.1596H114.347V85.3212H113.362C113.16 85.3172 112.96 85.2936 112.763 85.2508C112.716 85.8103 112.451 86.3288 112.024 86.694C111.653 87.015 111.177 87.1902 110.687 87.1868C110.268 87.1816 109.856 87.0728 109.49 86.87V85.814C109.79 85.9874 110.129 86.0841 110.475 86.0956C110.629 86.1087 110.783 86.0833 110.925 86.0219C111.066 85.9604 111.19 85.8648 111.285 85.7436C111.392 85.6117 111.473 85.4598 111.521 85.2967C111.569 85.1335 111.585 84.9624 111.567 84.7932V81.6956L112.341 81.2732L112.763 81.062V83.4908C112.74 83.6784 112.791 83.8676 112.904 84.0188C113.071 84.1271 113.269 84.1766 113.467 84.1596Z" fill="#A1A1A1"/>
<path d="M117.216 84.1596H118.096V85.3212H117.111C116.691 85.3282 116.281 85.1916 115.949 84.934C115.617 85.1916 115.207 85.3282 114.787 85.3212H113.767V84.1596H114.647C114.833 84.1654 115.016 84.1164 115.175 84.0188C115.288 83.8676 115.338 83.6784 115.315 83.4908V81.6956L116.512 81.062V83.4908C116.489 83.6784 116.54 83.8676 116.653 84.0188C116.82 84.1271 117.018 84.1766 117.216 84.1596ZM114.717 86.2012C114.801 86.1966 114.886 86.2099 114.965 86.2401C115.044 86.2703 115.115 86.3169 115.175 86.3766C115.235 86.4364 115.281 86.5081 115.312 86.587C115.342 86.666 115.355 86.7504 115.351 86.8348C115.363 86.9209 115.355 87.0087 115.328 87.0912C115.3 87.1737 115.254 87.2487 115.192 87.3102C115.131 87.3717 115.056 87.418 114.973 87.4455C114.891 87.4729 114.803 87.4808 114.717 87.4684C114.633 87.473 114.548 87.4597 114.469 87.4295C114.39 87.3993 114.319 87.3528 114.259 87.293C114.199 87.2332 114.153 87.1615 114.122 87.0826C114.092 87.0036 114.079 86.9192 114.083 86.8348C114.072 86.7504 114.079 86.6644 114.106 86.5834C114.132 86.5024 114.177 86.4285 114.236 86.3673C114.296 86.3062 114.368 86.2595 114.449 86.2307C114.529 86.2019 114.615 86.1918 114.699 86.2012H114.717ZM116.195 86.2012C116.28 86.1966 116.364 86.2099 116.443 86.2401C116.522 86.2703 116.594 86.3169 116.654 86.3766C116.713 86.4364 116.76 86.5081 116.79 86.587C116.82 86.666 116.834 86.7504 116.829 86.8348C116.841 86.9209 116.834 87.0087 116.806 87.0912C116.779 87.1737 116.732 87.2487 116.671 87.3102C116.609 87.3717 116.534 87.418 116.452 87.4455C116.369 87.4729 116.281 87.4808 116.195 87.4684C116.111 87.473 116.027 87.4597 115.948 87.4295C115.869 87.3993 115.797 87.3528 115.737 87.293C115.677 87.2332 115.631 87.1615 115.601 87.0826C115.57 87.0036 115.557 86.9192 115.562 86.8348C115.55 86.7504 115.558 86.6644 115.584 86.5834C115.611 86.5024 115.655 86.4285 115.715 86.3673C115.774 86.3062 115.847 86.2595 115.927 86.2307C116.007 86.2019 116.093 86.1918 116.178 86.2012H116.195Z" fill="#A1A1A1"/>
<path d="M123.57 84.1595H124.414V85.3211H123.429C123.023 85.3456 122.622 85.2203 122.302 84.9691C122.124 85.1511 121.91 85.2948 121.674 85.3916C121.438 85.4884 121.185 85.5363 120.93 85.5323C120.674 85.5441 120.418 85.4997 120.181 85.4025C119.944 85.3052 119.731 85.1573 119.557 84.9691C119.232 85.2103 118.835 85.3343 118.43 85.3211H117.445V84.1595H118.325C118.511 84.1653 118.694 84.1163 118.853 84.0187C118.966 83.8675 119.017 83.6783 118.994 83.4907V83.2091C118.963 82.5678 119.177 81.9388 119.592 81.4491C119.771 81.2672 119.985 81.1234 120.221 81.0266C120.457 80.9298 120.71 80.8819 120.965 80.8859C121.255 80.8757 121.543 80.9341 121.806 81.0565C122.069 81.1788 122.299 81.3616 122.478 81.5899C122.791 82.058 122.951 82.6113 122.936 83.1739V83.4555C122.923 83.6479 122.986 83.8377 123.112 83.9835C123.2 84.1278 123.358 84.1595 123.57 84.1595ZM120.965 84.3707C121.458 84.3707 121.704 83.9835 121.704 83.1739C121.704 82.3643 121.458 82.0475 120.965 82.0475C120.472 82.0475 120.226 82.4347 120.226 83.1739C120.226 83.9835 120.472 84.3707 120.965 84.3707Z" fill="#A1A1A1"/>
<path d="M128.568 84.1596H131.208L131.243 85.3212H128.48C128.158 85.3273 127.84 85.2418 127.565 85.0748C127.287 85.2376 126.971 85.3227 126.649 85.3212H123.904V84.1596H126.509C126.262 83.9872 126.027 83.799 125.805 83.5964C125.699 83.4908 125.523 83.3148 125.312 83.0684C125.243 83.007 125.184 82.9359 125.136 82.8572V82.294C125.409 81.8681 125.784 81.5173 126.227 81.2732C126.64 81.0198 127.115 80.8857 127.6 80.8857C128.084 80.8857 128.56 81.0198 128.973 81.2732C129.428 81.5286 129.815 81.891 130.099 82.3292V82.8572C129.65 83.3586 129.135 83.7967 128.568 84.1596ZM127.547 83.702C127.963 83.3922 128.321 83.0108 128.603 82.5756C128.319 82.2684 127.929 82.0799 127.512 82.0476C127.115 82.0829 126.749 82.2725 126.491 82.5756C126.756 83.0239 127.117 83.4085 127.547 83.702Z" fill="#A1A1A1"/>
<path d="M130.68 85.3214V84.1598H131.56C131.746 84.1655 131.93 84.1166 132.088 84.019C132.201 83.8677 132.252 83.6785 132.229 83.491V81.6958L133.426 81.0622V83.5262C133.449 83.7647 133.42 84.0054 133.34 84.2314C133.261 84.4574 133.132 84.6632 132.965 84.8343C132.797 85.0055 132.594 85.1377 132.369 85.2219C132.145 85.306 131.905 85.34 131.666 85.3214H130.68ZM131.349 80.1118C131.265 80.1163 131.18 80.1031 131.101 80.0728C131.022 80.0426 130.951 79.9961 130.891 79.9363C130.831 79.8766 130.785 79.8049 130.754 79.7259C130.724 79.647 130.711 79.5626 130.715 79.4782C130.703 79.3921 130.711 79.3043 130.738 79.2218C130.766 79.1393 130.812 79.0643 130.874 79.0028C130.935 78.9413 131.01 78.895 131.093 78.8675C131.175 78.84 131.263 78.8322 131.349 78.8446C131.433 78.84 131.518 78.8532 131.597 78.8835C131.676 78.9137 131.747 78.9602 131.807 79.02C131.867 79.0797 131.913 79.1514 131.944 79.2304C131.974 79.3093 131.987 79.3937 131.983 79.4782C131.992 79.5637 131.982 79.6502 131.954 79.7314C131.925 79.8126 131.879 79.8864 131.818 79.9472C131.757 80.0081 131.683 80.0544 131.602 80.0829C131.521 80.1114 131.434 80.1213 131.349 80.1118ZM132.827 80.1118C132.743 80.1163 132.659 80.1031 132.58 80.0728C132.501 80.0426 132.429 79.9961 132.369 79.9363C132.309 79.8766 132.263 79.8049 132.233 79.7259C132.202 79.647 132.189 79.5626 132.194 79.4782C132.181 79.3921 132.189 79.3043 132.217 79.2218C132.244 79.1393 132.291 79.0643 132.352 79.0028C132.414 78.9413 132.488 78.895 132.571 78.8675C132.654 78.84 132.741 78.8322 132.827 78.8446C132.912 78.84 132.996 78.8532 133.075 78.8835C133.154 78.9137 133.226 78.9602 133.286 79.02C133.345 79.0797 133.392 79.1514 133.422 79.2304C133.452 79.3093 133.466 79.3937 133.461 79.4782C133.47 79.5637 133.461 79.6502 133.432 79.7314C133.404 79.8126 133.357 79.8864 133.296 79.9472C133.236 80.0081 133.162 80.0544 133.081 80.0829C132.999 80.1114 132.913 80.1213 132.827 80.1118Z" fill="#A1A1A1"/>
<path d="M82.7202 93.4171H81.1714V92.5371H85.501V93.4171H83.8466V97.8558H82.7202V93.4171Z" fill="#A1A1A1"/>
<path d="M87.1377 92.5371H88.0529L90.0241 97.8523H88.8977C88.7921 97.5707 88.6865 97.1835 88.5457 96.7259H86.6449C86.5745 96.9723 86.4337 97.3595 86.2929 97.8523H85.2017L87.1377 92.5371ZM87.5953 93.9803C87.4545 94.4379 87.2081 95.0363 86.9617 95.8459H88.2289C88.0001 95.0715 87.7713 94.4379 87.5953 93.9838V93.9803Z" fill="#A1A1A1"/>
<path d="M93.5792 96.5852C93.896 95.4236 94.3184 94.086 94.8464 92.502H96.448V97.8559H95.3216V93.5263C94.9628 94.9911 94.5281 96.4362 94.0192 97.8559H93.104C92.4704 95.9199 92.048 94.5119 91.8016 93.5615V97.8559H90.7104V92.5407H92.2592C92.7679 93.8655 93.2084 95.2154 93.5792 96.5852Z" fill="#A1A1A1"/>
<path d="M97.6626 92.5371H101.147V93.4171H98.7538V94.6878H100.725V95.5678H98.7538V96.9758H101.253V97.8558H97.6626V92.5371Z" fill="#A1A1A1"/>
<path d="M101.921 92.5371H105.406V93.4171H103.013V94.6878H104.984V95.5678H103.013V96.9758H105.512V97.8558H101.921V92.5371Z" fill="#A1A1A1"/>
<path d="M106.322 97.8559V92.5407C106.392 92.5407 106.639 92.5055 106.991 92.4703C107.271 92.4437 107.553 92.4319 107.835 92.4351C109.208 92.4351 109.877 92.9983 109.877 94.0895C109.878 94.3865 109.812 94.6799 109.684 94.948C109.556 95.2161 109.369 95.452 109.138 95.6383C109.349 96.0959 109.701 96.8351 110.159 97.8559H109.032C108.751 97.2575 108.469 96.6239 108.152 95.9199H107.906C107.739 95.9282 107.571 95.9043 107.413 95.8495V97.8207H106.322V97.8559ZM107.413 93.3855V95.0047C107.598 95.0476 107.787 95.0712 107.976 95.0751C108.469 95.0751 108.715 94.7583 108.715 94.1247C108.715 93.5967 108.469 93.3503 107.976 93.3503C107.789 93.313 107.595 93.3239 107.413 93.382V93.3855Z" fill="#A1A1A1"/>
<path d="M116.072 92.9597C115.966 93.1005 115.825 93.3469 115.614 93.6285C115.241 93.4467 114.832 93.3505 114.417 93.3469C113.96 93.3469 113.713 93.5229 113.713 93.8749C113.72 94.0219 113.783 94.1608 113.889 94.2621C114.086 94.4165 114.314 94.5248 114.558 94.5789C115.042 94.742 115.486 95.006 115.861 95.3533C115.991 95.4812 116.093 95.635 116.159 95.8048C116.226 95.9747 116.256 96.1566 116.248 96.3389C116.253 96.582 116.202 96.8231 116.098 97.043C115.994 97.2629 115.841 97.4557 115.649 97.6061C115.276 97.8578 114.832 97.9814 114.382 97.9581C113.701 97.9317 113.042 97.712 112.481 97.3245L112.974 96.6557C113.356 96.8841 113.797 96.9943 114.241 96.9725C114.805 96.9725 115.121 96.7261 115.121 96.2685C115.121 95.9517 114.805 95.7053 114.171 95.4941C113.15 95.1421 112.657 94.6141 112.657 93.8749C112.649 93.6723 112.69 93.4708 112.776 93.2871C112.861 93.1034 112.99 92.9428 113.15 92.8189C113.517 92.5505 113.963 92.4141 114.417 92.4317C115.009 92.4388 115.585 92.6226 116.072 92.9597Z" fill="#A1A1A1"/>
<path d="M118.149 93.4171H116.6V92.5371H120.93V93.4171H119.275V97.8558H118.149V93.4206V93.4171Z" fill="#A1A1A1"/>
<path d="M121.563 92.5371H125.048V93.4171H122.654V94.6878H124.625V95.5678H122.654V96.9758H125.153V97.8558H121.563V92.5371Z" fill="#A1A1A1"/>
<path d="M125.857 92.5371H129.342V93.4171H126.949V94.6878H128.92V95.5678H126.949V96.9758H129.448V97.8558H125.857V92.5371Z" fill="#A1A1A1"/>
<path d="M130.24 97.8562V92.541H131.331V96.9762H133.338V97.8562H130.24Z" fill="#A1A1A1"/>
</svg>
