<svg width="176" height="176" viewBox="0 0 176 176" fill="none" xmlns="http://www.w3.org/2000/svg">
<path d="M62.9375 86.4722C62.9468 86.4722 62.9558 86.4759 62.9624 86.4825C62.969 86.4891 62.9727 86.498 62.9727 86.5074L62.9375 86.4722Z" fill="#A1A1A1"/>
<path d="M115.139 86.4721C115.139 86.4721 114.048 86.5073 112.781 86.5073V81.7905C112.745 80.8401 112.71 79.5025 112.675 77.1441C112.844 75.9244 113.163 74.7303 113.625 73.5889C114.153 72.3569 114.365 71.7937 114.259 70.8081C114.294 69.9633 114.048 68.4497 112.499 68.0273H114.717C114.928 68.3089 114.893 69.6817 114.822 70.0689C114.758 70.3816 114.746 70.7028 114.787 71.0193C114.787 72.3217 114.717 73.4833 114.717 74.7857C114.692 75.5511 114.739 76.3171 114.857 77.0737C114.998 77.7425 114.787 78.9393 114.893 79.6081C115.104 80.4529 115.174 85.4865 115.139 86.4721Z" fill="#A1A1A1"/>
<path d="M109.965 76.8625C110.211 77.8833 110.105 79.1505 110.035 80.0305C109.789 82.2129 109.683 84.1137 109.613 86.2257C109.613 86.3313 109.472 86.4017 109.296 86.4369C108.873 86.4721 107.395 86.6481 107.395 86.6481C107.36 85.6625 107.219 82.7761 107.184 82.0017C107.149 81.2273 107.078 79.3265 106.937 77.2849C106.937 76.7921 107.536 76.4753 107.606 76.3345C108.169 75.5953 108.099 74.5393 108.099 74.1169C108.099 73.6945 108.099 68.8017 107.677 68.8017C107.254 68.8017 107.606 74.5393 106.973 74.5393C106.339 74.5393 106.832 69.0129 106.409 69.0129C105.987 69.0129 106.269 74.5041 105.811 74.5393C105.353 74.5745 105.529 73.0257 105.529 72.2513C105.529 70.8785 105.6 69.0481 105.565 68.6257C105.529 68.2033 105.811 68.0273 106.163 68.0273L110.211 68.0625C110.387 69.8577 109.894 71.3009 110.141 73.0961C110.281 74.4337 109.648 75.4897 109.965 76.8625Z" fill="#A1A1A1"/>
<path d="M84.0574 80.6994C84.1278 82.4946 84.0222 84.501 83.987 86.613H80.467C80.5374 85.5218 80.4318 82.4594 80.3614 81.9314C80.3966 81.0514 80.115 79.1154 80.1502 76.6162C80.1502 76.1234 80.0446 75.9826 80.7838 75.5602C82.579 75.1378 83.987 73.6242 83.811 71.7234C83.7406 70.1042 82.7902 68.5554 81.347 67.957H83.3886C83.811 67.9922 83.9518 68.133 83.987 68.5906C84.0222 69.2946 83.9166 69.6818 84.0222 70.3506C84.2686 72.6034 83.7406 74.9266 83.987 77.1794C84.1278 78.4114 84.0222 79.4674 84.0574 80.6994Z" fill="#A1A1A1"/>
<path d="M89.9712 69.506C90.0064 69.0132 90.0064 68.8372 90.0064 68.626C90.0064 68.4852 89.9008 68.4852 89.7952 68.4148C89.6896 68.3444 89.1616 68.2388 88.9856 68.2036C88.8004 68.1629 88.6119 68.1393 88.4224 68.1332C87.8944 68.1332 87.3312 67.9572 86.768 67.9924C86.7328 67.9924 86.7328 67.9924 86.7328 68.0276C86.6601 68.0723 86.5995 68.1342 86.5565 68.2079C86.5135 68.2816 86.4894 68.3648 86.4864 68.45C86.416 68.9076 86.5568 69.33 86.4864 70.21C86.416 71.09 86.4864 73.4484 86.4864 74.0116C86.4512 78.306 86.6976 78.3764 86.592 81.7204C86.5581 82.6487 86.5934 83.5782 86.6976 84.5012C86.7934 85.0709 86.8288 85.649 86.8032 86.226C86.7923 86.2703 86.7912 86.3164 86.8 86.3612C86.8088 86.4059 86.8272 86.4482 86.854 86.485C86.8809 86.5219 86.9154 86.5525 86.9552 86.5746C86.9951 86.5968 87.0393 86.61 87.0848 86.6132C88 86.6484 89.9008 86.5076 89.9008 86.5076C90.0127 86.0353 90.0484 85.5481 90.0064 85.0644C89.9712 84.642 90.0768 83.9732 90.0768 83.586C90.0768 83.1284 90.112 82.6708 90.0768 82.2132C90.0064 80.9812 90.0064 79.7492 90.0416 78.5172C90.1472 75.4196 89.8656 73.5892 89.9712 70.5268V69.506Z" fill="#A1A1A1"/>
<path d="M103.101 86.1908C103.079 86.289 103.032 86.3797 102.964 86.4538C102.896 86.5279 102.809 86.5829 102.714 86.6132H102.186C102.397 86.5076 102.502 86.2964 102.573 85.8388C102.625 85.2516 102.602 84.66 102.502 84.0788C102.432 83.5156 102.15 81.474 102.01 80.6292C101.798 79.9956 101.13 78.9044 100.566 78.7636C100.003 78.6228 99.8271 78.4468 99.8271 77.8132C99.8975 77.4964 100.426 68.7316 100.355 67.9572C100.953 67.9218 101.552 67.9218 102.15 67.9572C102.467 67.9572 102.643 68.1332 102.608 68.3444C102.568 68.9252 102.627 69.5085 102.784 70.0692C102.98 70.9823 103.04 71.9195 102.96 72.85C102.784 76.1588 103.171 76.2292 103.101 80.5588C103.101 81.122 103.206 83.4804 103.066 84.3604C102.995 85.2756 103.206 85.698 103.101 86.1908Z" fill="#A1A1A1"/>
<path d="M62.9375 86.4722C62.9468 86.4722 62.9558 86.4759 62.9624 86.4825C62.969 86.4891 62.9727 86.498 62.9727 86.5074L62.9375 86.4722Z" fill="#A1A1A1"/>
<path d="M66.7393 84.3954C66.6337 85.2754 66.8449 85.6978 66.7393 86.1554C66.7168 86.2589 66.665 86.3537 66.5901 86.4286C66.5152 86.5035 66.4204 86.5553 66.3169 86.5778H66.2465C65.3313 86.6482 64.4161 86.437 63.5009 86.437H63.4657C63.5009 85.0642 63.4305 82.1426 63.4305 81.6498C63.4657 80.9458 63.1841 79.221 63.2545 77.0034V76.7359C63.3159 76.6053 63.3993 76.4863 63.5009 76.3839C64.1345 75.7503 64.8737 75.3983 65.1905 74.7295C65.3499 74.3612 65.4451 73.9683 65.4721 73.5679C65.5498 72.3651 65.2415 71.1689 64.5921 70.1535C64.2741 69.6138 63.8106 69.1746 63.2545 68.8863C62.9383 68.807 62.6051 68.8317 62.3041 68.9567C61.9912 69.0415 61.7018 69.1966 61.4578 69.4101C61.2138 69.6235 61.0217 69.8898 60.8961 70.1887C60.8609 70.2239 60.8609 70.2591 60.8257 70.2943C60.8713 70.0151 60.8831 69.7315 60.8609 69.4495C60.8058 68.9613 60.8661 68.4669 61.0369 68.0063C61.0369 68.0063 65.2961 67.8655 66.8097 67.9007C66.8097 67.9007 66.8449 76.1727 66.7745 80.5023C66.7393 81.1711 66.8449 83.5647 66.7393 84.4095" fill="#A1A1A1"/>
<path d="M77.8273 83.1634C77.8625 84.0786 77.8273 86.4018 77.8273 86.6482C77.8273 86.6482 76.3841 86.6482 75.1873 86.613C75.7629 86.2753 76.2371 85.7889 76.5601 85.205C77.3345 82.7058 75.8209 79.4322 75.5745 78.6578C75.2929 77.7778 75.1521 77.3906 74.8353 76.6162C74.6593 76.053 74.4833 75.525 74.3425 75.2082C74.2355 74.9861 74.1642 74.7485 74.1313 74.5042C74.2017 73.413 74.4481 72.005 74.4481 71.653C74.5185 70.949 74.6241 69.189 74.6241 68.2738C74.6945 68.2738 74.7297 68.2386 74.8001 68.2034C75.9265 67.7458 77.7569 68.2034 77.7569 68.2034C77.7569 68.2034 77.7921 68.2738 77.7921 68.309C77.854 68.7287 77.8892 69.152 77.8977 69.5762V70.245C77.8977 70.9842 77.8625 70.8786 77.8977 72.1106V73.589C77.8977 74.0114 77.8625 74.469 77.8273 74.9618C77.7921 75.525 77.7921 76.1586 77.7921 76.8626C77.7921 78.2002 77.8977 79.0802 77.9329 79.9602C77.8368 81.025 77.8016 82.0945 77.8273 83.1634Z" fill="#A1A1A1"/>
<path d="M74.7999 85.4163C74.6591 85.6275 74.1311 86.1907 74.1311 85.8387C74.1311 85.4867 73.9551 76.6515 73.9551 76.3699C73.9551 76.2643 74.0607 76.1939 74.0959 76.3699C74.2015 76.8979 74.3071 77.6019 74.4127 78.0595C74.4831 78.5875 74.5887 79.1155 74.6591 79.5027C74.7647 80.1011 74.8351 80.5939 74.9407 81.0867C74.9759 81.2627 75.0111 81.5795 75.0463 81.7907C75.1357 82.303 75.1945 82.8202 75.2223 83.3395C75.2223 83.9731 75.1519 84.8531 74.7999 85.4163Z" fill="#A1A1A1"/>
<path d="M75.0111 86.1908C74.9407 86.226 74.8351 86.2964 74.7999 86.226C74.7647 86.1556 74.7295 86.1556 74.7647 86.1204C75.3631 85.7684 75.6799 84.8532 75.7151 84.5012C75.7546 84.0789 75.7427 83.6534 75.6799 83.234C75.6095 82.7412 75.5391 82.178 75.4687 81.5796C75.3983 81.1924 75.2223 80.77 75.1519 80.3828C75.0463 79.9252 74.9407 79.5028 74.8351 78.8692C74.7805 78.5666 74.7453 78.261 74.7295 77.954C74.7295 77.8836 74.8703 77.8836 74.9055 78.0244C74.9759 78.2356 75.0463 78.482 75.1167 78.6932C75.3311 79.5623 75.5896 80.4199 75.8911 81.2628C76.0731 81.8148 76.2143 82.3796 76.3135 82.9524C76.4831 83.7323 76.3577 84.5474 75.9615 85.2404C75.7195 85.6241 75.3948 85.9488 75.0111 86.1908Z" fill="#A1A1A1"/>
<path d="M71.4913 75.9125C71.4561 76.6165 71.5969 77.3557 71.5617 78.0245V78.2005C71.5045 78.7736 71.481 79.3495 71.4913 79.9253C71.4913 80.6645 71.5617 81.4037 71.5617 82.1429V85.9797C71.5691 86.1098 71.5573 86.2403 71.5265 86.3669C71.4561 86.5429 71.3505 86.6133 71.2449 86.6133L69.1329 86.5781C69.0273 84.7829 69.2737 83.3397 69.1681 81.5445C69.0625 80.2069 69.4145 79.1157 69.2385 77.7781C69.1571 76.724 69.1453 75.6657 69.2033 74.6101C69.3441 72.4277 69.3793 70.5269 69.4145 68.4149C69.4158 68.365 69.4339 68.3171 69.4658 68.2787C69.4977 68.2404 69.5417 68.214 69.5905 68.2037C69.9777 68.1333 70.8929 67.8517 71.2449 67.9925C71.5265 68.1333 71.6673 68.5205 71.6321 69.0837C71.5969 69.8933 71.6321 71.1253 71.5969 71.9349C71.5969 73.3429 71.5617 74.5397 71.4913 75.9125Z" fill="#A1A1A1"/>
<path d="M97.469 83.1634C97.5042 84.0786 97.469 86.4018 97.5042 86.6482H97.3986C96.9058 86.6482 95.005 86.6482 93.069 86.613C92.9309 86.2152 92.7662 85.8272 92.5762 85.4514C92.189 84.7826 92.4002 84.3954 92.8226 84.1138C93.0337 83.953 93.2976 83.8776 93.5618 83.9026C94.0546 83.8674 94.1602 83.6914 94.1602 83.4802V82.9874C94.1602 82.1778 94.1954 81.2978 94.1954 81.1922C94.1602 78.5874 94.1602 75.0322 94.1602 75.0322C94.1602 73.941 94.1954 72.7794 94.1954 71.4418C94.1602 70.6322 93.6322 70.6322 93.4562 70.6322C92.8226 70.597 92.1538 69.9986 92.6466 69.0482C92.8158 68.7277 92.9686 68.3987 93.1042 68.0626C94.5012 67.9484 95.9068 67.9956 97.293 68.2034C97.4709 68.6379 97.5433 69.1083 97.5042 69.5762C97.469 71.125 97.4338 70.5618 97.469 72.1106C97.5042 73.5538 97.2578 74.821 97.2578 76.8626C97.2578 78.2002 97.469 79.0802 97.5042 79.9602C97.5394 80.7698 97.4338 81.4738 97.4338 82.6354C97.4619 82.8099 97.4737 82.9867 97.469 83.1634Z" fill="#A1A1A1"/>
<path d="M47.8015 99.3907L47.3087 98.9331L46.8511 99.3907L47.3087 99.8835L47.8015 99.3907Z" fill="#A1A1A1"/>
<path d="M46.1823 98.9331L45.6895 99.3907L46.1823 99.8835L46.6751 99.3907L46.1823 98.9331Z" fill="#A1A1A1"/>
<path d="M73.6384 96.7508C73.8165 96.7471 73.9936 96.7235 74.1664 96.6804C74.3334 96.6467 74.4901 96.5744 74.624 96.4692C74.7583 96.3702 74.877 96.2515 74.976 96.1172C75.0642 95.9549 75.1124 95.7739 75.1168 95.5892L75.152 91.7524L74.5536 91.858L74.5888 95.6596C74.5876 95.7249 74.5626 95.7875 74.5184 95.8356C74.448 95.8708 74.3776 95.9412 74.3072 95.9764C74.2197 96.0205 74.1236 96.0445 74.0256 96.0468C73.92 96.0468 73.8144 96.082 73.7088 96.082H72.4768C72.2783 96.1044 72.0783 96.0544 71.9136 95.9412C72.0295 95.7374 72.0901 95.5069 72.0896 95.2724C72.0919 95.0681 72.0561 94.8652 71.984 94.674C71.9114 94.4985 71.8168 94.3329 71.7024 94.1812C71.5947 94.0318 71.4513 93.9117 71.2854 93.8318C71.1194 93.7518 70.936 93.7147 70.752 93.7236C70.4238 93.7513 70.1142 93.8876 69.872 94.1108C69.5232 94.4227 69.2469 94.8072 69.0624 95.2372L69.1328 91.7876L68.5344 91.8932L68.6048 96.082H64.7328C64.9618 95.8325 65.0876 95.5055 65.0848 95.1668C65.0811 94.9888 65.0575 94.8117 65.0144 94.6388C64.944 94.4628 64.8736 94.322 64.8032 94.1812C64.7258 94.0508 64.6168 93.9419 64.4864 93.8644C64.3833 93.7878 64.262 93.7393 64.1344 93.7236C63.9487 93.7263 63.7716 93.8022 63.6416 93.9348C63.4625 94.0859 63.3081 94.2641 63.184 94.4628C63.0252 94.6872 62.9061 94.9373 62.832 95.202C62.7246 95.4852 62.6537 95.7809 62.6208 96.082H49.5968C49.3652 96.0976 49.1337 96.0489 48.928 95.9412C48.7152 95.8081 48.5251 95.6417 48.3648 95.4484L47.9072 95.8356C48.1888 96.1524 48.3648 96.3636 48.4704 96.5044C48.5577 96.6052 48.6182 96.7262 48.6464 96.8564C48.6464 96.9111 48.6337 96.965 48.6093 97.0139C48.5848 97.0627 48.5494 97.1052 48.5056 97.138C48.3904 97.2402 48.2597 97.3233 48.1184 97.3844C47.9501 97.464 47.7728 97.5231 47.5904 97.5604C47.3934 97.6012 47.1932 97.6248 46.992 97.6308C46.6248 97.6506 46.2627 97.5383 45.9712 97.314C45.8467 97.2042 45.7476 97.0687 45.6807 96.9167C45.6138 96.7647 45.5809 96.6 45.584 96.434C45.5983 95.9957 45.7322 95.5697 45.9712 95.202L45.584 94.9556C45.3956 95.1979 45.2525 95.4721 45.1616 95.7652C45.0637 96.0359 45.016 96.3222 45.0208 96.61C45.013 96.8638 45.0611 97.1161 45.1616 97.3492C45.2401 97.5573 45.374 97.7399 45.5488 97.8772C45.7269 98.0276 45.9293 98.1466 46.1472 98.2292C46.3973 98.3131 46.6581 98.3605 46.9216 98.37C47.198 98.3748 47.4727 98.327 47.7312 98.2292C47.9918 98.1603 48.2408 98.0536 48.4704 97.9124C48.6692 97.7883 48.8473 97.6339 48.9984 97.4548C49.1209 97.3181 49.1951 97.145 49.2096 96.962C49.2126 96.8785 49.2007 96.795 49.1744 96.7156C49.2634 96.7555 49.3588 96.7794 49.456 96.786C49.5616 96.786 49.632 96.8212 49.7376 96.8212H62.656C62.677 97.0524 62.7365 97.2785 62.832 97.49C62.9084 97.682 63.0154 97.8603 63.1488 98.018C63.2785 98.1625 63.4336 98.2818 63.6064 98.37C63.7854 98.4421 63.9768 98.478 64.1696 98.4756C64.3246 98.4721 64.4784 98.4485 64.6272 98.4052C64.7602 98.3423 64.8895 98.2718 65.0144 98.194C65.1073 98.0973 65.1899 97.9911 65.2608 97.8772C65.3287 97.7467 65.3649 97.602 65.3664 97.4548C65.3672 97.2425 65.3061 97.0345 65.1904 96.8564H69.5552C70.2231 96.8957 70.8898 96.7624 71.4912 96.4692C71.5657 96.5482 71.6483 96.619 71.7376 96.6804C71.978 96.8002 72.2435 96.8605 72.512 96.8564H73.1456L73.6384 96.7508ZM63.2192 95.4132C63.2728 95.2253 63.356 95.047 63.4656 94.8852C63.551 94.7502 63.6451 94.6209 63.7472 94.498C63.7874 94.4538 63.8363 94.4185 63.8908 94.3942C63.9453 94.37 64.0043 94.3574 64.064 94.3572C64.1388 94.3645 64.211 94.3886 64.2752 94.4276C64.3456 94.4628 64.3808 94.5332 64.4512 94.6036C64.4928 94.6829 64.5281 94.7653 64.5568 94.85C64.5858 94.9409 64.5978 95.0364 64.592 95.1316C64.5998 95.2551 64.5705 95.3781 64.5077 95.4848C64.445 95.5914 64.3518 95.6769 64.24 95.73C63.8757 95.8967 63.4791 95.9808 63.0784 95.9764C63.1136 95.8356 63.1488 95.6244 63.2192 95.4132ZM64.592 97.5956C64.4631 97.6993 64.2994 97.7497 64.1344 97.7364C64.0095 97.7384 63.8856 97.7144 63.7704 97.6659C63.6553 97.6175 63.5515 97.5456 63.4656 97.4548C63.2799 97.2472 63.1577 96.9907 63.1136 96.7156C63.4268 96.6868 63.7347 96.6157 64.0288 96.5044C64.5216 96.61 64.768 96.8564 64.768 97.2436C64.7686 97.312 64.7529 97.3796 64.7223 97.4408C64.6918 97.502 64.6471 97.555 64.592 97.5956ZM69.4496 96.0468H69.0272C69.2386 95.6006 69.5111 95.186 69.8368 94.8148C69.9424 94.6917 70.0716 94.591 70.2166 94.5184C70.3617 94.4459 70.5198 94.403 70.6816 94.3924C70.7903 94.399 70.8972 94.4227 70.9984 94.4628C71.0937 94.5006 71.1782 94.561 71.2448 94.6388C71.3234 94.7187 71.3834 94.8149 71.4208 94.9204C71.4609 95.0216 71.4847 95.1286 71.4912 95.2372C71.489 95.3728 71.4434 95.5041 71.361 95.6118C71.2787 95.7195 71.1639 95.798 71.0336 95.8356C70.5265 96.0174 69.9866 96.0893 69.4496 96.0468Z" fill="#A1A1A1"/>
<path d="M76.7009 96.7508L76.7361 91.7876L76.1025 91.858L76.1729 96.7508H76.7009Z" fill="#A1A1A1"/>
<path d="M79.5169 97.856C79.7028 98.0141 79.9181 98.1337 80.1505 98.208C80.424 98.2947 80.7085 98.3421 80.9953 98.3488C81.2719 98.3565 81.5472 98.3087 81.8049 98.208C82.0373 98.1337 82.2527 98.0141 82.4385 97.856C82.6084 97.7053 82.7512 97.5268 82.8609 97.328C82.9648 97.121 83.0133 96.8905 83.0017 96.6592C83.0075 96.5175 82.9957 96.3756 82.9665 96.2368L82.8609 95.7088C82.8182 95.5279 82.7593 95.3511 82.6849 95.1808C82.6145 95.0048 82.5441 94.8288 82.4737 94.688L81.9105 95.0048C81.996 95.1744 82.0666 95.351 82.1217 95.5328C82.1904 95.6933 82.2492 95.8579 82.2977 96.0256C82.3245 96.1684 82.3598 96.3094 82.4033 96.448C82.4293 96.5635 82.4411 96.6817 82.4385 96.8C82.4363 96.9248 82.3998 97.0466 82.3329 97.152C82.2534 97.2717 82.1443 97.3687 82.0161 97.4336C81.8753 97.504 81.7345 97.5744 81.5585 97.6448C81.3733 97.6855 81.1848 97.7091 80.9953 97.7152C80.6281 97.735 80.266 97.6226 79.9745 97.3984C79.85 97.2886 79.7509 97.153 79.684 97.001C79.6171 96.8491 79.5841 96.6844 79.5873 96.5184C79.6016 96.0801 79.7355 95.6541 79.9745 95.2864L79.5873 95.04C79.3921 95.2777 79.2482 95.5534 79.1649 95.8496C79.067 96.1203 79.0193 96.4066 79.0241 96.6944C79.0126 96.9371 79.061 97.1788 79.1649 97.3984C79.2653 97.5632 79.3834 97.7167 79.5169 97.856Z" fill="#A1A1A1"/>
<path d="M81.3825 93.7941L80.9249 93.3013L80.4321 93.7941L80.9249 94.2517L81.3825 93.7941Z" fill="#A1A1A1"/>
<path d="M100.954 93.4772L100.496 92.9844L100.003 93.4772L100.496 93.97L100.954 93.4772Z" fill="#A1A1A1"/>
<path d="M99.7922 96.61C100.001 96.5513 100.178 96.412 100.285 96.2228C100.496 96.5748 100.883 96.7508 101.482 96.7508H102.362C102.573 96.7508 102.749 96.7156 102.89 96.7156C103.031 96.7156 103.207 96.6804 103.312 96.6452L103.629 96.5396C103.818 96.4569 103.969 96.3061 104.051 96.1172C104.149 95.8708 104.196 95.6077 104.192 95.3428C104.226 94.7166 104.117 94.0909 103.875 93.5124C103.825 93.3836 103.748 93.2666 103.65 93.1691C103.552 93.0715 103.435 92.9955 103.305 92.9458C103.176 92.8961 103.038 92.8739 102.9 92.8805C102.762 92.8872 102.626 92.9226 102.503 92.9844C102.351 93.0589 102.218 93.1673 102.115 93.3012C102.013 93.4417 101.93 93.5957 101.869 93.7588C101.8 93.9386 101.764 94.1294 101.763 94.322C101.754 94.6282 101.853 94.9278 102.045 95.1668C102.148 95.2765 102.274 95.3619 102.414 95.4168C102.554 95.4716 102.705 95.4944 102.855 95.4836C102.998 95.4803 103.14 95.4566 103.277 95.4132C103.412 95.378 103.534 95.3047 103.629 95.202V95.7441C103.629 95.8497 103.453 95.9201 103.136 95.9905C102.635 96.0574 102.128 96.081 101.623 96.0609H101.447C100.848 96.0609 100.531 95.8849 100.531 95.6033C100.533 95.4852 100.545 95.3674 100.567 95.2513C100.602 95.0401 100.602 94.8641 100.637 94.6529L100.109 94.5825C100.109 94.6529 100.074 94.7233 100.074 94.8289C100.074 94.9345 100.039 95.0049 100.039 95.1105C100.039 95.2161 100.003 95.2865 100.003 95.3569C100.003 95.4273 99.9682 95.4977 99.9682 95.5681C99.9534 95.6545 99.9164 95.7356 99.8609 95.8035C99.8053 95.8714 99.7331 95.9237 99.6514 95.9553C99.4135 96.0353 99.1629 96.0711 98.9122 96.0609H86.205V95.9905C86.2438 95.4507 86.1213 94.9116 85.853 94.4417C85.7573 94.2758 85.6183 94.139 85.4509 94.046C85.2835 93.953 85.094 93.9072 84.9026 93.9137C84.7324 93.9111 84.5639 93.9472 84.4098 94.0193C84.2581 94.0938 84.1256 94.2022 84.0226 94.3361C83.9068 94.468 83.8226 94.6245 83.7762 94.7937C83.7041 94.9849 83.6683 95.1878 83.6706 95.3921C83.6582 95.5729 83.6902 95.7541 83.7638 95.9197C83.8375 96.0853 83.9504 96.2305 84.093 96.3425C84.4313 96.5836 84.8393 96.7073 85.2546 96.6945H85.5362C85.2898 97.2225 84.6562 97.5393 83.7058 97.6801L83.9874 98.3137C84.4729 98.2625 84.9354 98.08 85.325 97.7857C85.6686 97.5197 85.9358 97.1675 86.0994 96.7649H98.877C99.1887 96.7877 99.5016 96.7395 99.7922 96.6241M103.383 94.8641C103.257 94.9045 103.127 94.9282 102.995 94.9345C102.819 94.9511 102.643 94.9009 102.503 94.7937C102.446 94.7387 102.402 94.673 102.371 94.6004C102.341 94.5279 102.326 94.4499 102.327 94.3713C102.323 94.2734 102.34 94.1759 102.376 94.085C102.413 93.9941 102.468 93.9118 102.538 93.8433C102.595 93.778 102.665 93.7254 102.744 93.6891C102.823 93.6527 102.909 93.6333 102.995 93.6321C103.091 93.6269 103.186 93.651 103.268 93.7014C103.35 93.7517 103.414 93.8258 103.453 93.9137C103.586 94.1883 103.658 94.4885 103.664 94.7937C103.629 94.7585 103.523 94.7937 103.383 94.8641ZM85.3602 96.0609C84.5858 96.0609 84.2338 95.8497 84.2338 95.3921C84.233 95.1797 84.2941 94.9718 84.4098 94.7937C84.4642 94.7162 84.5392 94.6555 84.6262 94.6182C84.7132 94.5809 84.8089 94.5685 84.9026 94.5825C85.0234 94.5873 85.1404 94.6262 85.2401 94.6947C85.3398 94.7632 85.418 94.8586 85.4658 94.9697C85.6273 95.3222 85.6998 95.709 85.677 96.0961L85.3602 96.0609Z" fill="#A1A1A1"/>
<path d="M103.488 91.7877L103.03 91.2949L102.538 91.7877L103.03 92.2805L103.488 91.7877Z" fill="#A1A1A1"/>
<path d="M107.747 91.8229L107.29 91.3301L106.797 91.8229L107.29 92.3157L107.747 91.8229Z" fill="#A1A1A1"/>
<path d="M108.909 91.8229L108.416 91.3301L107.923 91.8229L108.416 92.3157L108.909 91.8229Z" fill="#A1A1A1"/>
<path d="M122.918 93.7585L123.024 94.0401C123.41 93.9042 123.813 93.8213 124.221 93.7937L124.291 93.4065C124.219 93.4009 124.147 93.413 124.08 93.4417C124.01 93.4417 123.904 93.4769 123.834 93.4769C123.776 93.4813 123.719 93.4743 123.665 93.4561C123.61 93.438 123.56 93.4091 123.517 93.3713C123.48 93.3506 123.451 93.3194 123.432 93.2818C123.413 93.2442 123.406 93.2018 123.411 93.1601C123.411 93.1238 123.42 93.0881 123.439 93.0569C123.457 93.0258 123.485 93.0006 123.517 92.9841C123.591 92.9383 123.676 92.914 123.763 92.914C123.85 92.914 123.936 92.9383 124.01 92.9841L124.15 92.7729C124.103 92.7058 124.039 92.6515 123.966 92.6147C123.892 92.5778 123.81 92.5596 123.728 92.5617C123.57 92.5626 123.418 92.6259 123.306 92.738C123.194 92.85 123.131 93.0017 123.13 93.1601C123.127 93.2465 123.149 93.3319 123.192 93.4066C123.236 93.4813 123.3 93.5423 123.376 93.5825C123.306 93.6177 123.27 93.6177 123.2 93.6529C123.024 93.7233 122.989 93.7233 122.918 93.7585Z" fill="#A1A1A1"/>
<path d="M125.875 97.8771L125.382 97.3843L124.925 97.8771L125.382 98.3699L125.875 97.8771Z" fill="#A1A1A1"/>
<path d="M126.051 97.8771L126.509 98.3699L127.002 97.8771L126.509 97.3843L126.051 97.8771Z" fill="#A1A1A1"/>
<path d="M127.882 96.6802C128.136 96.6426 128.385 96.5716 128.621 96.469C128.797 96.5394 129.008 96.6098 129.184 96.6802C129.37 96.7188 129.558 96.7423 129.747 96.7506C130.114 96.7704 130.477 96.658 130.768 96.4338C130.891 96.3247 130.987 96.1883 131.048 96.0355C131.109 95.8827 131.134 95.7177 131.12 95.5538C131.128 95.2543 131.08 94.9559 130.979 94.6738C130.874 94.398 130.732 94.1375 130.557 93.8994C130.368 93.6585 130.143 93.4493 129.888 93.2799C129.614 93.093 129.318 92.9393 129.008 92.8223L128.726 93.4207C128.995 93.5284 129.254 93.6579 129.501 93.8079C129.715 93.966 129.916 94.1427 130.099 94.3359C130.253 94.5306 130.384 94.7433 130.486 94.9695C130.587 95.1902 130.635 95.4311 130.627 95.6735C130.627 95.7791 130.557 95.8847 130.381 95.9551C130.178 96.0301 129.963 96.066 129.747 96.0607H129.395C129.52 95.9438 129.619 95.8019 129.686 95.6442C129.753 95.4866 129.786 95.3166 129.782 95.1455C129.779 94.979 129.755 94.8135 129.712 94.6527C129.651 94.5114 129.568 94.3807 129.466 94.2655C129.365 94.1529 129.246 94.0578 129.114 93.9839C128.983 93.916 128.838 93.8798 128.691 93.8783C128.544 93.8756 128.398 93.912 128.269 93.9839C128.129 94.0461 128.008 94.1431 127.917 94.2655C127.815 94.3807 127.732 94.5114 127.67 94.6527C127.61 94.8096 127.586 94.978 127.6 95.1455C127.594 95.3086 127.622 95.4712 127.683 95.6227C127.743 95.7743 127.835 95.9115 127.952 96.0255C127.846 96.0255 127.706 96.0607 127.6 96.0607H127.213C126.614 96.0607 126.298 95.8847 126.298 95.6031C126.299 95.4849 126.311 95.3672 126.333 95.2511C126.368 95.0399 126.368 94.8639 126.403 94.6527L125.875 94.5823C125.875 94.6527 125.84 94.7231 125.84 94.8287C125.84 94.9343 125.805 95.0047 125.805 95.1103C125.805 95.2159 125.77 95.2863 125.77 95.3567C125.77 95.4271 125.734 95.5327 125.734 95.5679C125.72 95.6543 125.683 95.7354 125.627 95.8033C125.572 95.8711 125.499 95.9234 125.418 95.9551C125.18 96.0351 124.929 96.0709 124.678 96.0607C124.08 96.0607 123.763 95.8847 123.763 95.6031C123.765 95.4849 123.777 95.3672 123.798 95.2511C123.834 95.0399 123.834 94.8639 123.869 94.6527L123.341 94.5823C123.341 94.6527 123.306 94.7231 123.306 94.8287C123.306 94.9343 123.27 95.0047 123.27 95.1103C123.27 95.2159 123.235 95.2863 123.235 95.3567C123.235 95.4271 123.2 95.5327 123.2 95.5679C123.185 95.6543 123.148 95.7354 123.093 95.8033C123.037 95.8711 122.965 95.9234 122.883 95.9551C122.645 96.0351 122.395 96.0709 122.144 96.0607H109.648C109.46 96.0836 109.271 96.0332 109.12 95.9199C109.061 95.8599 109.014 95.7883 108.984 95.7096C108.954 95.6308 108.94 95.5466 108.944 95.4623L108.979 92.8223L108.381 92.9279V93.3855C107.863 93.4801 107.371 93.6841 106.938 93.9839C106.773 94.0985 106.64 94.2513 106.548 94.4291C106.456 94.607 106.408 94.8045 106.41 95.0047C106.402 95.1528 106.439 95.2998 106.515 95.4271C106.58 95.5552 106.677 95.6644 106.797 95.7439C106.914 95.8348 107.044 95.9061 107.184 95.9551C107.341 96.0152 107.509 96.0393 107.677 96.0255C107.945 96.0255 108.21 95.9653 108.451 95.8495C108.557 96.4127 108.944 96.7295 109.683 96.7295H121.968C122.256 96.7402 122.544 96.6923 122.813 96.5887C123.022 96.5299 123.199 96.3907 123.306 96.2015C123.517 96.5535 123.904 96.7295 124.502 96.7295C124.791 96.7402 125.078 96.6923 125.347 96.5887C125.556 96.5299 125.733 96.3907 125.84 96.2015C126.051 96.5535 126.438 96.7295 127.037 96.7295C127.318 96.7713 127.605 96.7594 127.882 96.6943M128.198 94.7231C128.254 94.6673 128.32 94.623 128.392 94.5928C128.465 94.5626 128.542 94.5471 128.621 94.5471C128.699 94.5471 128.777 94.5626 128.85 94.5928C128.922 94.623 128.988 94.6673 129.043 94.7231C129.146 94.8414 129.207 94.9895 129.219 95.1455C129.219 95.4975 129.008 95.7087 128.586 95.8495C128.403 95.7952 128.243 95.6843 128.128 95.5327C128.072 95.4777 128.027 95.412 127.997 95.3394C127.967 95.2668 127.951 95.1889 127.952 95.1103C128.022 95.0047 128.058 94.8287 128.198 94.7231ZM107.747 95.3919C107.64 95.3976 107.533 95.3857 107.43 95.3567C107.325 95.3215 107.254 95.3215 107.149 95.2863C107.084 95.2483 107.024 95.2008 106.973 95.1455C106.929 95.0706 106.905 94.9858 106.902 94.8991C106.905 94.7853 106.942 94.6749 107.008 94.5823C107.09 94.4735 107.199 94.3884 107.325 94.3359C107.468 94.2561 107.622 94.1969 107.782 94.1599L108.31 94.0543V95.2863C108.135 95.369 107.941 95.4053 107.747 95.3919Z" fill="#A1A1A1"/>
<path d="M46.1122 102.432C46.2658 102.251 46.4583 102.106 46.6754 102.01C46.9158 101.89 47.1813 101.83 47.4498 101.834C47.6281 101.835 47.8055 101.859 47.9778 101.904C48.1313 101.946 48.275 102.017 48.4002 102.115C48.5058 102.186 48.6114 102.291 48.717 102.362C48.8164 102.43 48.8906 102.529 48.9282 102.643L49.4562 102.186C49.3858 102.08 49.2802 101.975 49.1746 101.834C49.0564 101.701 48.9128 101.593 48.7522 101.517C48.5744 101.414 48.3855 101.331 48.189 101.271C47.9499 101.196 47.7003 101.16 47.4498 101.165C47.0869 101.16 46.727 101.232 46.3938 101.376C46.0924 101.514 45.8181 101.705 45.5842 101.939C45.336 102.183 45.1543 102.486 45.0562 102.819C44.9268 103.156 44.8669 103.515 44.8802 103.875C44.8843 104.246 44.9437 104.614 45.0562 104.967C45.1902 105.272 45.368 105.557 45.5842 105.811C45.8254 106.062 46.1155 106.26 46.4364 106.393C46.7574 106.526 47.1024 106.592 47.4498 106.586C47.7001 106.588 47.9493 106.552 48.189 106.48C48.3979 106.408 48.5985 106.313 48.7874 106.199C48.95 106.11 49.0935 105.991 49.2098 105.847C49.3133 105.75 49.4076 105.644 49.4914 105.53L48.9634 105.107C48.893 105.178 48.8578 105.248 48.7874 105.319C48.7014 105.409 48.6071 105.492 48.5058 105.565C48.3725 105.649 48.231 105.72 48.0834 105.776C47.6483 105.929 47.1724 105.916 46.7458 105.741C46.5306 105.641 46.3387 105.497 46.1826 105.319C46.0245 105.133 45.9049 104.917 45.8306 104.685C45.7467 104.435 45.6993 104.174 45.6898 103.911C45.682 103.645 45.73 103.382 45.8306 103.136C45.8252 103.006 45.8475 102.875 45.896 102.754C45.9446 102.633 46.0183 102.523 46.1122 102.432Z" fill="#A1A1A1"/>
<path d="M53.3986 106.079V102.84H52.6946V104.544C52.7017 104.709 52.6899 104.874 52.6594 105.037C52.6224 105.197 52.5632 105.351 52.4834 105.494C52.4152 105.632 52.3039 105.743 52.1666 105.811C52.0151 105.895 51.8466 105.943 51.6738 105.952C51.5615 105.964 51.448 105.947 51.3436 105.904C51.2392 105.861 51.147 105.793 51.0754 105.706C50.9124 105.496 50.8367 105.231 50.8642 104.966V102.854H50.1602V105.002C50.1358 105.407 50.261 105.808 50.5122 106.128C50.6439 106.275 50.8076 106.39 50.9908 106.463C51.174 106.536 51.3716 106.566 51.5682 106.55C51.7119 106.55 51.8546 106.526 51.9906 106.48C52.1103 106.439 52.2278 106.392 52.3426 106.339C52.4482 106.304 52.5186 106.198 52.589 106.128C52.6578 106.067 52.7171 105.996 52.765 105.917L52.8002 106.445H53.469V106.093L53.3986 106.079Z" fill="#A1A1A1"/>
<path d="M55.0526 101.256H54.3486V106.431H55.0526V101.256Z" fill="#A1A1A1"/>
<path d="M56.7778 101.397H56.0034V102.171H56.7778V101.397Z" fill="#A1A1A1"/>
<path d="M56.7426 102.84H56.0386V106.431H56.7426V102.84Z" fill="#A1A1A1"/>
<path d="M59.6288 102.735C59.4851 102.735 59.3424 102.759 59.2064 102.805C59.0867 102.846 58.9692 102.893 58.8544 102.946C58.765 103.007 58.6824 103.078 58.608 103.157C58.5393 103.218 58.4799 103.29 58.432 103.368L58.3968 102.84H57.728V106.466H58.432V104.812C58.4381 104.634 58.4617 104.457 58.5024 104.284C58.5395 104.124 58.5987 103.969 58.6784 103.826C58.7467 103.689 58.8579 103.577 58.9952 103.509C59.1468 103.426 59.3152 103.378 59.488 103.368C59.6004 103.357 59.7138 103.373 59.8183 103.416C59.9227 103.459 60.0148 103.527 60.0864 103.615C60.2392 103.83 60.3137 104.091 60.2976 104.354V106.466H61.0016V104.319C61.0261 103.913 60.9008 103.512 60.6496 103.192C60.5331 103.035 60.378 102.91 60.1992 102.83C60.0204 102.75 59.824 102.717 59.6288 102.735Z" fill="#A1A1A1"/>
<path d="M64.8386 106.114V104.002C64.8488 103.825 64.8194 103.647 64.7524 103.483C64.6854 103.318 64.5826 103.171 64.4514 103.051C64.1371 102.816 63.753 102.692 63.3602 102.699C63.1834 102.691 63.0063 102.703 62.8322 102.735L62.4098 102.84C62.3042 102.875 62.1986 102.946 62.093 102.981C62.0198 103.024 61.9493 103.071 61.8818 103.122L62.1986 103.579C62.3042 103.509 62.445 103.439 62.621 103.333C62.8236 103.258 63.0386 103.222 63.2546 103.227C63.4896 103.222 63.7214 103.283 63.9234 103.403C64.0102 103.467 64.0786 103.553 64.1219 103.652C64.1651 103.751 64.1816 103.859 64.1698 103.967V104.107H63.2546C62.8366 104.072 62.4209 104.198 62.093 104.459C61.9629 104.574 61.8581 104.715 61.7854 104.872C61.7127 105.03 61.6736 105.201 61.6706 105.375C61.6645 105.556 61.7006 105.737 61.7762 105.903C61.8501 106.035 61.9453 106.153 62.0578 106.255C62.183 106.353 62.3267 106.424 62.4802 106.466C62.6176 106.506 62.7594 106.53 62.9026 106.536C63.1336 106.544 63.3631 106.496 63.5714 106.395C63.7834 106.307 63.9664 106.16 64.0994 105.973V106.395H64.733V106.219L64.8386 106.114ZM64.1698 105.128C64.1632 105.237 64.1395 105.344 64.0994 105.445C64.0376 105.545 63.9669 105.639 63.8882 105.727C63.7905 105.798 63.684 105.858 63.5714 105.903C63.4468 105.946 63.3161 105.97 63.1842 105.973C62.986 105.99 62.7878 105.94 62.621 105.832C62.5539 105.784 62.4996 105.721 62.4628 105.647C62.426 105.574 62.4078 105.492 62.4098 105.41C62.4041 105.326 62.4161 105.242 62.445 105.163C62.4783 105.074 62.5259 104.991 62.5858 104.917C62.6657 104.838 62.7618 104.778 62.8674 104.741C63.0156 104.695 63.1698 104.671 63.325 104.671H63.8178C63.89 104.665 63.9625 104.677 64.029 104.706C64.0994 104.741 64.1346 104.706 64.1346 104.741V105.128H64.1698Z" fill="#A1A1A1"/>
<path d="M67.6542 102.784C67.5105 102.784 67.3678 102.808 67.2318 102.855C67.1048 102.892 66.9856 102.951 66.8798 103.031C66.7904 103.092 66.7078 103.163 66.6334 103.242C66.563 103.312 66.5278 103.383 66.4574 103.453L66.4222 102.89H65.7886V106.48H66.4926V104.579C66.4988 104.436 66.5224 104.294 66.563 104.157C66.6255 104.035 66.6961 103.918 66.7742 103.805C66.871 103.712 66.9771 103.63 67.091 103.559C67.224 103.501 67.369 103.477 67.5134 103.488C67.6343 103.487 67.7541 103.511 67.8654 103.559L68.0062 102.925C67.9521 102.897 67.891 102.884 67.8302 102.89C67.795 102.784 67.7246 102.784 67.6542 102.784Z" fill="#A1A1A1"/>
<path d="M70.1538 105.551L68.9922 102.84H68.1826L69.8018 106.396L69.6962 106.642C69.6394 106.767 69.5923 106.897 69.5554 107.029C69.5156 107.126 69.4686 107.221 69.4146 107.311C69.3748 107.386 69.3135 107.447 69.2386 107.487C69.1744 107.526 69.1022 107.55 69.0274 107.557C68.9406 107.555 68.8558 107.531 68.781 107.487C68.7085 107.46 68.6467 107.411 68.605 107.346L68.2882 107.839L68.605 108.05C68.7719 108.111 68.9507 108.134 69.1277 108.116C69.3046 108.097 69.475 108.039 69.6258 107.944C69.7727 107.821 69.9028 107.679 70.013 107.522C70.1098 107.341 70.1922 107.153 70.2594 106.959C70.3175 106.778 70.3881 106.602 70.4706 106.431L71.9138 102.911H71.1394L70.1538 105.551Z" fill="#A1A1A1"/>
<path d="M75.5392 101.256L73.4976 106.431H74.272L74.8 104.988H76.912L77.44 106.431H78.2848L76.2432 101.256H75.5392ZM75.0464 104.354L75.8912 102.101L76.736 104.354H75.0464Z" fill="#A1A1A1"/>
<path d="M80.7489 102.784C80.6052 102.784 80.4625 102.808 80.3265 102.855C80.1996 102.892 80.0804 102.951 79.9745 103.031C79.8852 103.092 79.8026 103.163 79.7281 103.242C79.6577 103.312 79.6225 103.383 79.5521 103.453L79.5169 102.89H78.8481V106.48H79.5521V104.579C79.5583 104.436 79.582 104.294 79.6225 104.157C79.6851 104.035 79.7556 103.918 79.8337 103.805C79.9305 103.712 80.0367 103.63 80.1505 103.559C80.2836 103.501 80.4285 103.477 80.5729 103.488C80.6939 103.487 80.8137 103.511 80.9249 103.559L81.0657 102.925C81.0117 102.897 80.9506 102.884 80.8897 102.89C80.8897 102.784 80.8193 102.784 80.7489 102.784Z" fill="#A1A1A1"/>
<path d="M83.7054 105.868C83.5929 105.911 83.4739 105.935 83.3534 105.938C83.2799 105.939 83.2072 105.923 83.1403 105.893C83.0734 105.862 83.014 105.818 82.9662 105.762C82.8488 105.586 82.7989 105.373 82.8254 105.164V103.404H83.8814V102.84H82.8254V101.644H82.1214V102.84H81.4878V103.404H82.1214V105.248C82.1021 105.599 82.2012 105.946 82.403 106.234C82.5117 106.346 82.6438 106.432 82.7899 106.487C82.9359 106.542 83.0923 106.563 83.2478 106.55C83.4381 106.556 83.6273 106.521 83.8032 106.448C83.9791 106.375 84.1376 106.266 84.2686 106.128L83.9518 105.706C83.8882 105.787 83.8027 105.848 83.7054 105.882" fill="#A1A1A1"/>
<path d="M87.2962 104.671C87.1712 104.593 87.042 104.522 86.909 104.46C86.7618 104.397 86.6084 104.349 86.4514 104.319C86.2125 104.263 85.9774 104.193 85.7474 104.108C85.6682 104.088 85.5976 104.043 85.5467 103.979C85.4958 103.916 85.4673 103.837 85.4658 103.756C85.4597 103.682 85.4769 103.609 85.5147 103.546C85.5526 103.482 85.6094 103.433 85.677 103.404C85.8424 103.328 86.0232 103.292 86.205 103.298C86.3981 103.292 86.5902 103.328 86.7682 103.404C86.9203 103.464 87.0627 103.547 87.1906 103.65L87.5778 103.192C87.4034 103.055 87.2146 102.937 87.0146 102.84C86.7633 102.766 86.5022 102.73 86.2402 102.735C86.0623 102.741 85.8854 102.764 85.7122 102.805C85.5452 102.839 85.3885 102.911 85.2546 103.016C85.1223 103.107 85.0136 103.227 84.9378 103.368C84.8658 103.51 84.8296 103.667 84.8322 103.826C84.8248 103.974 84.8616 104.121 84.9378 104.248C85.011 104.371 85.1065 104.478 85.2194 104.565C85.3443 104.643 85.4736 104.713 85.6066 104.776C85.7474 104.812 85.8882 104.882 86.029 104.917C86.1958 104.955 86.3603 105.002 86.5218 105.058C86.638 105.076 86.7474 105.124 86.8386 105.199C86.9134 105.239 86.9747 105.3 87.0146 105.375C87.0432 105.441 87.0553 105.514 87.0498 105.586C87.0533 105.664 87.0311 105.74 86.9865 105.804C86.9419 105.868 86.8775 105.915 86.8034 105.938C86.6254 106.013 86.4333 106.049 86.2402 106.044C86.0242 106.049 85.8092 106.013 85.6066 105.938C85.4284 105.875 85.2704 105.766 85.149 105.621L84.7266 106.079C84.9252 106.272 85.1635 106.419 85.425 106.51C85.6864 106.601 85.9646 106.634 86.2402 106.607C86.4298 106.603 86.6186 106.579 86.8034 106.536C86.9725 106.51 87.131 106.437 87.261 106.325C87.3952 106.226 87.5139 106.107 87.613 105.973C87.7071 105.839 87.7563 105.679 87.7538 105.516C87.7524 105.357 87.7164 105.201 87.6482 105.058C87.5389 104.922 87.4214 104.792 87.2962 104.671Z" fill="#A1A1A1"/>
<path d="M91.0273 102.432C91.1809 102.251 91.3734 102.106 91.5905 102.01C91.8308 101.89 92.0964 101.83 92.3649 101.834C92.5431 101.835 92.7205 101.859 92.8929 101.904C93.0464 101.946 93.19 102.017 93.3153 102.115C93.4209 102.186 93.5265 102.291 93.6321 102.362C93.7377 102.432 93.8081 102.538 93.8433 102.643L94.3713 102.186C94.3009 102.08 94.1953 101.975 94.0897 101.834C93.9714 101.701 93.8278 101.593 93.6673 101.517C93.4894 101.414 93.3005 101.331 93.1041 101.271C92.8649 101.196 92.6153 101.16 92.3649 101.165C92.0019 101.16 91.642 101.232 91.3089 101.376C91.0074 101.514 90.7332 101.705 90.4993 101.939C90.2511 102.183 90.0693 102.486 89.9713 102.819C89.8419 103.156 89.782 103.515 89.7953 103.875C89.7994 104.246 89.8587 104.614 89.9713 104.967C90.1052 105.272 90.2831 105.557 90.4993 105.811C90.7404 106.062 91.0305 106.26 91.3515 106.393C91.6724 106.526 92.0174 106.592 92.3649 106.586C92.6152 106.588 92.8643 106.552 93.1041 106.48C93.3129 106.408 93.5135 106.313 93.7025 106.199C93.865 106.11 94.0086 105.991 94.1249 105.847C94.2284 105.75 94.3227 105.644 94.4065 105.53L93.8785 105.107C93.8081 105.178 93.7729 105.248 93.7025 105.319C93.6165 105.409 93.5222 105.492 93.4209 105.565C93.2875 105.649 93.146 105.72 92.9985 105.776C92.5633 105.929 92.0874 105.916 91.6609 105.741C91.4456 105.641 91.2537 105.497 91.0977 105.319C90.9396 105.133 90.8199 104.917 90.7457 104.685C90.6618 104.435 90.6144 104.174 90.6049 103.911C90.597 103.645 90.645 103.382 90.7457 103.136C90.767 102.879 90.8651 102.633 91.0273 102.432Z" fill="#A1A1A1"/>
<path d="M98.0671 103.298C97.8914 103.126 97.6894 102.984 97.4687 102.876C97.2242 102.772 96.9597 102.724 96.6943 102.735C96.4292 102.727 96.1653 102.775 95.9199 102.876C95.6942 102.975 95.4907 103.119 95.3215 103.298C95.1489 103.466 95.0165 103.67 94.9343 103.897C94.7465 104.371 94.7465 104.9 94.9343 105.375C95.0342 105.592 95.1646 105.793 95.3215 105.973C95.4973 106.145 95.6993 106.288 95.9199 106.396C96.4191 106.583 96.9695 106.583 97.4687 106.396C97.6945 106.296 97.898 106.153 98.0671 105.973C98.2398 105.806 98.3722 105.601 98.4543 105.375C98.6421 104.9 98.6421 104.371 98.4543 103.897C98.3762 103.668 98.2433 103.463 98.0671 103.298ZM97.8207 105.093C97.768 105.249 97.6842 105.393 97.5743 105.516C97.4605 105.629 97.3299 105.724 97.1871 105.797C97.0321 105.867 96.8642 105.903 96.6943 105.903C96.5245 105.903 96.3565 105.867 96.2015 105.797C96.0499 105.723 95.9174 105.614 95.8143 105.481C95.7192 105.348 95.6367 105.206 95.5679 105.058C95.5109 104.913 95.4868 104.756 95.4975 104.601C95.5037 104.434 95.5273 104.269 95.5679 104.108C95.6207 103.952 95.7045 103.808 95.8143 103.685C95.9282 103.572 96.0588 103.477 96.2015 103.404C96.3565 103.334 96.5245 103.298 96.6943 103.298C96.8642 103.298 97.0321 103.334 97.1871 103.404C97.3388 103.478 97.4713 103.587 97.5743 103.721C97.6694 103.853 97.7519 103.995 97.8207 104.143C97.8758 104.289 97.8998 104.445 97.8911 104.601C97.8875 104.767 97.8639 104.933 97.8207 105.093Z" fill="#A1A1A1"/>
<path d="M103.664 102.735C103.39 102.724 103.12 102.798 102.89 102.946C102.691 103.07 102.513 103.225 102.362 103.404C102.27 103.203 102.124 103.032 101.939 102.911C101.724 102.791 101.481 102.73 101.235 102.735C101.092 102.735 100.949 102.759 100.813 102.805C100.702 102.839 100.595 102.886 100.496 102.946C100.407 103.008 100.324 103.078 100.25 103.157C100.179 103.228 100.144 103.298 100.074 103.369L100.038 102.841H99.3696V106.466H100.074V104.812C100.067 104.647 100.078 104.481 100.109 104.319C100.152 104.161 100.211 104.008 100.285 103.861C100.353 103.724 100.464 103.613 100.602 103.545C100.741 103.461 100.898 103.413 101.059 103.404C101.166 103.396 101.273 103.414 101.372 103.457C101.47 103.5 101.556 103.566 101.622 103.65C101.775 103.865 101.85 104.126 101.834 104.389V106.501H102.538V104.495C102.544 104.352 102.567 104.21 102.608 104.073C102.643 103.937 102.717 103.815 102.819 103.721C102.916 103.628 103.022 103.545 103.136 103.474C103.252 103.402 103.387 103.365 103.523 103.369C103.63 103.36 103.737 103.379 103.836 103.422C103.934 103.464 104.02 103.531 104.086 103.615C104.239 103.83 104.314 104.091 104.298 104.354V106.466H105.002V104.319C105.026 103.913 104.901 103.512 104.65 103.193C104.542 103.034 104.394 102.908 104.22 102.827C104.047 102.747 103.854 102.715 103.664 102.735Z" fill="#A1A1A1"/>
<path d="M110.247 102.735C109.973 102.724 109.703 102.798 109.472 102.946C109.273 103.07 109.095 103.225 108.944 103.404C108.853 103.203 108.706 103.032 108.522 102.911C108.307 102.791 108.064 102.73 107.818 102.735C107.674 102.735 107.531 102.759 107.395 102.805C107.284 102.839 107.178 102.886 107.079 102.946C106.989 103.008 106.907 103.078 106.832 103.157C106.762 103.228 106.727 103.298 106.656 103.369L106.621 102.841H105.952V106.466H106.656V104.812C106.649 104.647 106.661 104.481 106.691 104.319C106.735 104.161 106.793 104.008 106.867 103.861C106.936 103.724 107.047 103.613 107.184 103.545C107.323 103.461 107.48 103.413 107.642 103.404C107.749 103.396 107.856 103.414 107.954 103.457C108.052 103.5 108.138 103.566 108.205 103.65C108.358 103.865 108.432 104.126 108.416 104.389V106.501H109.12V104.495C109.126 104.352 109.15 104.21 109.191 104.073C109.226 103.937 109.299 103.815 109.402 103.721C109.499 103.628 109.605 103.545 109.719 103.474C109.835 103.402 109.969 103.365 110.106 103.369C110.213 103.36 110.32 103.379 110.418 103.422C110.516 103.464 110.602 103.531 110.669 103.615C110.822 103.83 110.896 104.091 110.88 104.354V106.466H111.584V104.319C111.609 103.913 111.483 103.512 111.232 103.193C111.125 103.034 110.976 102.908 110.803 102.827C110.629 102.747 110.437 102.715 110.247 102.735Z" fill="#A1A1A1"/>
<path d="M113.274 102.84H112.57V106.431H113.274V102.84Z" fill="#A1A1A1"/>
<path d="M113.309 101.397H112.534V102.171H113.309V101.397Z" fill="#A1A1A1"/>
<path d="M116.723 104.671C116.599 104.593 116.469 104.522 116.336 104.46C116.189 104.397 116.036 104.349 115.879 104.319C115.64 104.263 115.405 104.193 115.175 104.108C115.095 104.088 115.025 104.043 114.974 103.979C114.923 103.916 114.895 103.837 114.893 103.756C114.887 103.682 114.904 103.609 114.942 103.546C114.98 103.482 115.037 103.433 115.104 103.404C115.27 103.328 115.45 103.292 115.632 103.298C115.825 103.292 116.017 103.328 116.195 103.404C116.351 103.456 116.495 103.54 116.618 103.65L117.005 103.192C116.831 103.055 116.642 102.937 116.442 102.84C116.191 102.766 115.929 102.73 115.667 102.735C115.49 102.741 115.313 102.764 115.139 102.805C114.972 102.839 114.816 102.911 114.682 103.016C114.55 103.107 114.441 103.227 114.365 103.368C114.293 103.51 114.257 103.667 114.259 103.826C114.252 103.974 114.289 104.121 114.365 104.248C114.429 104.377 114.526 104.487 114.647 104.565C114.772 104.643 114.901 104.713 115.034 104.776C115.175 104.812 115.315 104.882 115.456 104.917C115.623 104.955 115.788 105.002 115.949 105.058C116.065 105.076 116.175 105.124 116.266 105.199C116.341 105.239 116.402 105.3 116.442 105.375C116.47 105.441 116.483 105.514 116.477 105.586C116.481 105.664 116.458 105.74 116.414 105.804C116.369 105.868 116.305 105.915 116.231 105.938C116.052 106.01 115.86 106.046 115.667 106.044C115.451 106.049 115.236 106.013 115.034 105.938C114.856 105.875 114.698 105.766 114.576 105.621L114.154 106.079C114.352 106.272 114.591 106.419 114.852 106.51C115.114 106.601 115.392 106.634 115.667 106.607C115.857 106.603 116.046 106.579 116.231 106.536C116.4 106.51 116.558 106.437 116.688 106.325C116.822 106.226 116.941 106.107 117.04 105.973C117.134 105.839 117.184 105.679 117.181 105.516C117.18 105.357 117.144 105.201 117.075 105.058C116.976 104.913 116.858 104.783 116.723 104.671Z" fill="#A1A1A1"/>
<path d="M120.384 104.671C120.259 104.593 120.13 104.522 119.997 104.46C119.85 104.397 119.696 104.349 119.539 104.319C119.3 104.263 119.065 104.193 118.835 104.108C118.756 104.088 118.686 104.043 118.635 103.979C118.584 103.916 118.555 103.837 118.554 103.756C118.548 103.682 118.565 103.609 118.603 103.546C118.641 103.482 118.697 103.433 118.765 103.404C118.93 103.328 119.111 103.292 119.293 103.298C119.486 103.292 119.678 103.328 119.856 103.404C120.012 103.456 120.156 103.54 120.278 103.65L120.666 103.192C120.491 103.055 120.302 102.937 120.102 102.84C119.851 102.766 119.59 102.73 119.328 102.735C119.15 102.741 118.973 102.764 118.8 102.805C118.633 102.839 118.476 102.911 118.342 103.016C118.21 103.107 118.102 103.227 118.026 103.368C117.954 103.51 117.917 103.667 117.92 103.826C117.913 103.974 117.949 104.121 118.026 104.248C118.089 104.377 118.187 104.487 118.307 104.565C118.432 104.643 118.561 104.713 118.694 104.776C118.835 104.812 118.976 104.882 119.117 104.917C119.284 104.955 119.448 105.002 119.61 105.058C119.726 105.076 119.835 105.124 119.926 105.199C120.001 105.239 120.063 105.3 120.102 105.375C120.131 105.441 120.143 105.514 120.138 105.586C120.141 105.664 120.119 105.74 120.074 105.804C120.03 105.868 119.965 105.915 119.891 105.938C119.712 106.01 119.521 106.046 119.328 106.044C119.112 106.049 118.897 106.013 118.694 105.938C118.516 105.875 118.358 105.766 118.237 105.621L117.814 106.079C118.013 106.272 118.251 106.419 118.513 106.51C118.774 106.601 119.053 106.634 119.328 106.607C119.518 106.603 119.706 106.579 119.891 106.536C120.06 106.51 120.219 106.437 120.349 106.325C120.483 106.226 120.602 106.107 120.701 105.973C120.779 105.832 120.827 105.676 120.842 105.516C120.84 105.357 120.804 105.201 120.736 105.058C120.627 104.922 120.509 104.792 120.384 104.671Z" fill="#A1A1A1"/>
<path d="M122.285 102.84H121.581V106.431H122.285V102.84Z" fill="#A1A1A1"/>
<path d="M122.32 101.397H121.545V102.171H122.32V101.397Z" fill="#A1A1A1"/>
<path d="M126.368 103.298C126.192 103.126 125.99 102.984 125.769 102.876C125.27 102.688 124.72 102.688 124.221 102.876C123.995 102.975 123.791 103.119 123.622 103.298C123.45 103.466 123.317 103.67 123.235 103.896C123.047 104.371 123.047 104.9 123.235 105.375C123.335 105.592 123.465 105.793 123.622 105.973C123.798 106.145 124 106.288 124.221 106.396C124.72 106.583 125.27 106.583 125.769 106.396C125.995 106.296 126.199 106.153 126.368 105.973C126.541 105.806 126.673 105.601 126.755 105.375C126.943 104.9 126.943 104.371 126.755 103.896C126.69 103.662 126.555 103.453 126.368 103.298ZM126.121 105.093C126.069 105.249 125.985 105.393 125.875 105.516C125.761 105.629 125.631 105.724 125.488 105.797C125.333 105.867 125.165 105.903 124.995 105.903C124.825 105.903 124.657 105.867 124.502 105.797C124.351 105.723 124.218 105.614 124.115 105.48C124.02 105.348 123.938 105.206 123.869 105.058C123.812 104.913 123.788 104.756 123.798 104.6C123.804 104.434 123.828 104.269 123.869 104.108C123.921 103.952 124.005 103.808 124.115 103.685C124.229 103.572 124.36 103.477 124.502 103.404C124.657 103.334 124.825 103.298 124.995 103.298C125.165 103.298 125.333 103.334 125.488 103.404C125.64 103.478 125.772 103.587 125.875 103.72C125.97 103.853 126.053 103.995 126.121 104.143C126.177 104.289 126.201 104.445 126.192 104.6C126.223 104.768 126.199 104.941 126.121 105.093Z" fill="#A1A1A1"/>
<path d="M129.606 102.735C129.463 102.735 129.32 102.759 129.184 102.805C129.064 102.846 128.947 102.893 128.832 102.946C128.743 103.007 128.66 103.078 128.586 103.157C128.517 103.218 128.457 103.29 128.41 103.368L128.374 102.84H127.706V106.466H128.41V104.812C128.416 104.634 128.439 104.457 128.48 104.284C128.517 104.124 128.576 103.969 128.656 103.826C128.724 103.689 128.835 103.577 128.973 103.509C129.124 103.426 129.293 103.378 129.466 103.368C129.578 103.357 129.691 103.373 129.796 103.416C129.9 103.459 129.992 103.527 130.064 103.615C130.217 103.83 130.291 104.091 130.275 104.354V106.466H130.979V104.319C131.004 103.913 130.878 103.512 130.627 103.192C130.511 103.035 130.356 102.91 130.177 102.83C129.998 102.75 129.802 102.717 129.606 102.735Z" fill="#A1A1A1"/>
</svg>
