<svg width="120" height="120" viewBox="0 0 120 120" fill="none" xmlns="http://www.w3.org/2000/svg">
<path d="M76.3937 32.5991V60.5411H64.3984V58.0009H73.9006V35.0923H55.2256V58.0009H59.7414V60.5411H52.7324V32.5991H76.3937Z" fill="#A1A1A1"/>
<path d="M51.6504 32.5991V35.0923H46.0996V49.0633H43.6064V32.5991H51.6504Z" fill="#A1A1A1"/>
<path d="M76.3936 61.623V65.3863H64.4453V62.8931H73.9004V61.623H76.3936Z" fill="#A1A1A1"/>
<path d="M63.3164 50.1919V65.3859H43.6064V50.1919H51.6504V52.7321H46.1466V62.8928H60.8232V52.7321H56.3073V50.1919H63.3164Z" fill="#A1A1A1"/>
<path d="M117.648 86.4604H116.989V87.3542H117.648V86.4604Z" fill="#A1A1A1"/>
<path d="M114.59 82.5088C113.32 82.5088 112.756 83.6378 112.756 84.9549C112.756 86.272 113.32 87.401 114.59 87.401C115.861 87.401 116.425 86.225 116.425 84.9549C116.425 83.6848 115.813 82.5088 114.59 82.5088ZM114.59 86.6483C113.791 86.6483 113.461 85.8487 113.461 84.9549C113.461 84.0611 113.744 83.2614 114.59 83.2614C115.437 83.2614 115.719 84.0611 115.719 84.9549C115.719 85.8487 115.39 86.6483 114.59 86.6483Z" fill="#A1A1A1"/>
<path d="M110.78 86.6011C109.98 86.6011 109.604 85.8955 109.604 84.9547C109.604 84.0139 109.933 83.3553 110.733 83.3553C111.25 83.3083 111.721 83.7317 111.768 84.2491L112.426 83.9198C112.144 83.0261 111.533 82.5557 110.78 82.5557C109.557 82.5557 108.945 83.7317 108.945 85.0018C108.945 86.2719 109.51 87.4479 110.78 87.4479C111.533 87.4479 112.144 86.9775 112.426 86.0837L111.815 85.7544C111.58 86.3659 111.297 86.6011 110.78 86.6011Z" fill="#A1A1A1"/>
<path d="M105.512 85.4723H106.358C106.358 86.225 105.935 86.6483 105.324 86.6483C104.524 86.6483 104.148 85.8957 104.148 84.9549C104.148 84.0141 104.477 83.2614 105.276 83.2614C105.794 83.2614 106.264 83.6848 106.311 84.2022L106.923 83.873C106.641 82.9792 106.029 82.5088 105.276 82.5088C104.006 82.5088 103.442 83.6848 103.442 84.9549C103.442 86.225 104.006 87.401 105.276 87.401C105.747 87.401 106.217 87.1187 106.405 86.6483L106.452 87.3069H106.97V84.7197H105.465V85.4723H105.512Z" fill="#A1A1A1"/>
<path d="M102.125 85.8955L100.525 82.5557H99.8667V87.3538H100.525V83.9669L102.078 87.3538H102.783V82.5557H102.125V85.8955Z" fill="#A1A1A1"/>
<path d="M98.8789 82.5557H98.1733V87.3067H98.8789V82.5557Z" fill="#A1A1A1"/>
<path d="M97.3263 84.0142C97.3734 83.3086 96.8559 82.6501 96.1503 82.603C96.1033 82.603 96.0562 82.603 96.0092 82.603H94.7861V87.3541H95.4447V85.3314H95.9151L96.8559 87.3541H97.6086L96.5266 85.2373C97.0441 85.0021 97.3263 84.5317 97.3263 84.0142ZM96.0562 84.6258H95.4447V83.3557H96.0092C96.3385 83.3557 96.6207 83.5909 96.6207 83.9202C96.6207 83.9672 96.6207 83.9672 96.6207 84.0142C96.6677 84.2965 96.4325 84.5787 96.0562 84.6258Z" fill="#A1A1A1"/>
<path d="M93.187 85.4254C93.187 86.1781 93.0459 86.6015 92.4343 86.6015C91.8228 86.6015 91.6817 86.1781 91.6817 85.4254V82.603H90.9761V85.5195C90.9761 86.6955 91.3994 87.4482 92.4343 87.4482C93.4692 87.4482 93.8926 86.6955 93.8926 85.4725V82.603H93.187V85.4254Z" fill="#A1A1A1"/>
<path d="M87.4482 83.3553H88.6243V87.3538H89.3299V83.3553H90.5059V82.5557H87.4482V83.3553Z" fill="#A1A1A1"/>
<path d="M85.6608 86.6011C84.8611 86.6011 84.4847 85.8955 84.4847 84.9547C84.4847 84.0139 84.814 83.3553 85.6137 83.3553C86.1312 83.3083 86.6016 83.7317 86.6486 84.2491L87.3072 83.9198C87.0249 83.0261 86.4134 82.5557 85.6608 82.5557C84.4377 82.5557 83.8262 83.7317 83.8262 85.0018C83.8262 86.2719 84.3907 87.4479 85.6608 87.4479C86.4134 87.4479 87.0249 86.9775 87.3072 86.0837L86.6486 85.7544C86.4604 86.3659 86.1312 86.6011 85.6608 86.6011Z" fill="#A1A1A1"/>
<path d="M81.7089 82.603L80.2036 87.3541H80.9563L81.2385 86.3192H82.6968L82.979 87.3541H83.7316L82.2264 82.603H81.7089ZM81.4737 85.5666L81.9911 83.8261L82.5086 85.5666H81.4737Z" fill="#A1A1A1"/>
<path d="M78.3223 83.3553H80.345V82.5557H77.6167V87.3538H78.3223V85.331H80.1098V84.5784H78.3223V83.3553Z" fill="#A1A1A1"/>
<path d="M76.0644 85.4254C76.0644 86.1781 75.9233 86.6015 75.3118 86.6015C74.7002 86.6015 74.5591 86.1781 74.5591 85.4254V82.603H73.8535V85.5195C73.8535 86.6955 74.2769 87.4482 75.3118 87.4482C76.3467 87.4482 76.77 86.6955 76.77 85.4725V82.603H76.0644V85.4254Z" fill="#A1A1A1"/>
<path d="M72.3009 85.8955L70.7015 82.5557H70.043V87.3538H70.6545V83.9669L72.2539 87.3538H72.9595V82.5557H72.3009V85.8955Z" fill="#A1A1A1"/>
<path d="M67.456 82.603L65.9507 87.3541H66.7033L66.9856 86.3192H68.4438L68.7261 87.3541H69.4787L67.9734 82.603H67.456ZM67.2208 85.5666L67.7382 83.8261L68.2557 85.5666H67.2208Z" fill="#A1A1A1"/>
<path d="M63.5043 85.9426L62.5165 82.5557H61.5757V87.3538H62.2343V83.7787L63.1751 86.9304H63.8336L64.7744 83.7787V87.3538H65.433V82.5557H64.4922L63.5043 85.9426Z" fill="#A1A1A1"/>
<path d="M59.4118 84.0142C59.4588 83.3086 58.9414 82.6501 58.2358 82.603C58.1887 82.603 58.1417 82.603 58.0946 82.603H56.8716V87.3541H57.5301V85.3314H58.0006L58.9414 87.3541H59.694L58.6591 85.2373C59.1295 85.0021 59.4118 84.5317 59.4118 84.0142ZM58.1417 84.6258H57.5301V83.3557H58.0476C58.3769 83.3557 58.6591 83.5909 58.7062 83.9202C58.7062 83.9672 58.7062 83.9672 58.7062 84.0142C58.7062 84.2965 58.471 84.5787 58.1417 84.6258Z" fill="#A1A1A1"/>
<path d="M54.3316 82.5088C53.0616 82.5088 52.4971 83.6378 52.4971 84.9549C52.4971 86.272 53.0616 87.401 54.3316 87.401C55.6017 87.401 56.1662 86.225 56.1662 84.9549C56.1662 83.6848 55.5547 82.5088 54.3316 82.5088ZM54.3316 86.6483C53.532 86.6483 53.2027 85.8487 53.2027 84.9549C53.2027 84.0611 53.4849 83.2614 54.3316 83.2614C55.1784 83.2614 55.4606 84.0611 55.4606 84.9549C55.4606 85.8487 55.1313 86.6483 54.3316 86.6483Z" fill="#A1A1A1"/>
<path d="M49.4395 87.3538H50.1451V85.331H51.8856V84.5784H50.1451V83.3553H52.1678V82.5557H49.4395V87.3538Z" fill="#A1A1A1"/>
<path d="M46.476 84.5784H44.7826V82.5557H44.124V87.3538H44.7826V85.331H46.476V87.3538H47.1346V82.5557H46.476V84.5784Z" fill="#A1A1A1"/>
<path d="M40.502 83.3553H41.725V87.3538H42.3836V83.3553H43.5596V82.5557H40.502V83.3553Z" fill="#A1A1A1"/>
<path d="M38.7612 82.603L37.2559 87.3541H38.0085L38.2907 86.3192H39.749L40.0312 87.3541H40.7839L39.2786 82.603H38.7612ZM38.526 85.5666L39.0434 83.8261L39.5608 85.5666H38.526Z" fill="#A1A1A1"/>
<path d="M35.4686 82.5557H34.8101V87.3538H37.115V86.5071H35.4686V82.5557Z" fill="#A1A1A1"/>
<path d="M32.2696 82.5088C30.9995 82.5088 30.4351 83.6378 30.4351 84.9549C30.4351 86.272 30.9995 87.401 32.2696 87.401C33.5397 87.401 34.1042 86.225 34.1042 84.9549C34.1042 83.6848 33.5397 82.5088 32.2696 82.5088ZM32.2696 86.6483C31.4699 86.6483 31.1407 85.8487 31.1407 84.9549C31.1407 84.0611 31.4229 83.2614 32.2696 83.2614C33.1164 83.2614 33.3986 84.0611 33.3986 84.9549C33.3986 85.8487 33.0693 86.6483 32.2696 86.6483Z" fill="#A1A1A1"/>
<path d="M27.4243 87.3538H28.0829V85.331H29.8704V84.5784H28.0829V83.3553H30.1056V82.5557H27.4243V87.3538Z" fill="#A1A1A1"/>
<path d="M26.5308 85.002H24.9785V85.6135H26.5308V85.002Z" fill="#A1A1A1"/>
<path d="M23.0028 82.5557H22.3442V87.3538H24.6492V86.5071H23.0028V82.5557Z" fill="#A1A1A1"/>
<path d="M19.8041 82.603L18.2988 87.3541H19.0515L19.3337 86.3192H20.792L21.0742 87.3541H21.8269L20.3216 82.603H19.8041ZM19.5219 85.5666L20.0393 83.8261L20.5568 85.5666H19.5219Z" fill="#A1A1A1"/>
<path d="M16.4169 82.5557H15.7583V87.3067H16.4169V82.5557Z" fill="#A1A1A1"/>
<path d="M13.2182 82.603L11.7129 87.3541H12.4655L12.7478 86.3192H14.206L14.4883 87.3541H15.2409L13.7356 82.603H13.2182ZM12.9359 85.5666L13.4534 83.8261L13.9708 85.5666H12.9359Z" fill="#A1A1A1"/>
<path d="M9.92533 82.5557H9.21973V87.3538H11.5247V86.5071H9.92533V82.5557Z" fill="#A1A1A1"/>
<path d="M6.67961 82.603L5.17432 87.3541H5.92696L6.25625 86.3192H7.7145L7.99674 87.3541H8.74939L7.24409 82.603H6.67961ZM6.44441 85.5666L6.96185 83.8261L7.47929 85.5666H6.44441Z" fill="#A1A1A1"/>
<path d="M5.45655 82.5557H2.39893V83.3553H3.57494V87.3538H4.2335V83.3553H5.45655V82.5557Z" fill="#A1A1A1"/>
<path d="M116.237 71.125C116.237 71.3132 116.378 71.5013 116.566 71.5484C116.801 71.5013 116.942 71.2661 116.895 71.0309C116.848 70.8898 116.754 70.7487 116.566 70.7017C116.378 70.7487 116.237 70.8898 116.237 71.125Z" fill="#A1A1A1"/>
<path d="M115.813 71.5015C116.049 71.4545 116.19 71.2193 116.143 70.9841C116.096 70.8429 116.002 70.7018 115.813 70.6548C115.578 70.7018 115.437 70.937 115.484 71.1722C115.531 71.3604 115.625 71.5015 115.813 71.5015Z" fill="#A1A1A1"/>
<path d="M116.19 70.7017C116.378 70.7017 116.519 70.5135 116.519 70.2783C116.519 70.0431 116.378 69.855 116.19 69.855C115.955 69.902 115.814 70.1372 115.861 70.3724C115.908 70.5606 116.049 70.6547 116.19 70.7017Z" fill="#A1A1A1"/>
<path d="M116.989 71.9717V74.7H116.472V72.1128H115.86V74.7H115.343V72.301H114.778V74.7H100.337V72.348H99.7255V75.9231C99.7255 76.1583 99.6314 76.3935 99.3962 76.3935H99.208V77.1932H99.3962C99.9607 77.1932 100.337 76.5816 100.337 75.9231V75.4527H117.13C117.46 75.4527 117.648 75.2175 117.648 74.8411V71.9717H116.989Z" fill="#A1A1A1"/>
<path d="M97.1856 72.1599H96.7152L98.0794 70.1372V69.9961H97.4208L95.9626 72.207V72.9596H97.1856C97.7031 73.0067 98.0324 73.4771 97.9853 73.9945V74.7942H95.5392C95.304 74.7472 95.1629 74.559 95.1629 74.3238V71.9247H94.5514V72.3011C94.3632 72.1599 94.175 72.0659 93.9398 72.0659C93.2342 72.0659 92.7168 72.8185 92.7168 73.7123V74.0416C92.7168 74.9353 93.2342 75.5939 93.9398 75.5939C94.3162 75.5939 94.6455 75.4057 94.8336 75.1235C94.9277 75.4057 95.2099 75.5939 95.5392 75.5939H98.0794C98.4087 75.5939 98.5968 75.3587 98.5968 74.9824V74.0416C98.5968 72.9596 97.9383 72.1599 97.1856 72.1599ZM94.5514 73.9475C94.5514 74.3708 94.3162 74.7001 93.9398 74.7001C93.5635 74.7001 93.3283 74.3708 93.3283 73.9475V73.6182C93.3283 73.1478 93.5635 72.7244 93.9398 72.7244C94.3162 72.7244 94.5514 73.1478 94.5514 73.6182V73.9475Z" fill="#A1A1A1"/>
<path d="M87.0716 71.972H86.8364C86.366 72.019 85.9426 72.3013 85.7074 72.6776V69.667H85.0959V74.6533H80.6271V69.667H79.9685V74.6533H78.228V75.453H79.9685C80.1096 75.453 80.2508 75.3589 80.3448 75.2178C80.3919 75.3589 80.486 75.453 80.6271 75.453H87.9654C88.2947 75.453 88.4828 75.2178 88.4828 74.8414V73.6654C88.4828 72.7717 87.8713 71.972 87.0716 71.972ZM87.8713 74.7473H85.7545V74.4181C85.8015 73.6654 86.366 72.7717 86.9305 72.7717H87.1657C87.6361 72.8187 87.9654 73.2891 87.9183 73.7595L87.8713 74.7473Z" fill="#A1A1A1"/>
<path d="M79.3571 70.5137H78.7456V74.418H79.3571V70.5137Z" fill="#A1A1A1"/>
<path d="M76.8638 70.89C76.8638 70.7959 76.9108 70.7018 77.052 70.6548C77.099 70.6548 77.1931 70.7018 77.2872 70.7959L77.4283 70.4666C77.3342 70.3255 77.1931 70.2314 77.052 70.2314C76.7227 70.2785 76.4875 70.5607 76.5345 70.89C76.5345 70.9841 76.5345 71.0311 76.5816 71.1252H76.2993V71.5486H77.4753V71.1252H77.052C76.9108 71.0782 76.8638 70.9841 76.8638 70.89Z" fill="#A1A1A1"/>
<path d="M76.629 74.747H68.9143C68.7262 74.747 68.6321 74.6059 68.6321 74.3707C68.6321 74.1355 68.7262 74.0414 68.9143 74.0414C69.0084 74.0414 69.1025 74.1355 69.1495 74.2296L69.5259 73.3828C69.4788 72.5831 68.7732 71.9246 67.9735 71.9716C67.2209 72.0187 66.6094 72.6302 66.5623 73.3828L66.9387 74.2296C67.0327 74.0884 67.1268 74.0414 67.2209 74.0414C67.409 74.0884 67.5031 74.2295 67.5031 74.4177C67.5031 74.8411 66.5623 74.9822 66.5623 76.1112C66.5153 76.7697 66.9857 77.3342 67.5972 77.4283C67.7854 77.4283 67.9735 77.3342 68.1617 77.2401L67.8795 76.5345C67.7854 76.5816 67.6913 76.6286 67.5972 76.6286C67.315 76.6286 67.1268 76.3934 67.1739 76.1112V76.0641C67.1739 75.4526 67.8795 75.4056 68.0206 74.747H68.0676C68.1147 75.1704 68.491 75.4996 68.9143 75.4996H76.676C77.0053 75.4996 77.1935 75.2644 77.1935 74.8881V71.9716H76.5819L76.629 74.747ZM68.1147 74.0414C68.0676 73.6651 67.7383 73.3358 67.362 73.2887C67.5031 73.0065 67.7854 72.8183 68.1147 72.8183C68.4439 72.8183 68.7262 73.0065 68.8673 73.2887C68.491 73.3358 68.2087 73.618 68.1147 74.0414Z" fill="#A1A1A1"/>
<path d="M62.5168 69.7139H61.9053V75.4998H62.5168V69.7139Z" fill="#A1A1A1"/>
<path d="M60.1648 74.7473H58.001C58.095 74.5121 58.1421 74.2299 58.1421 73.9947V73.6654C58.1421 72.7717 57.6246 72.019 56.919 72.019C56.2134 72.019 55.696 72.7717 55.696 73.6654V73.9947C55.696 74.2769 55.743 74.5121 55.8371 74.7473H46.3349V73.6654C46.3349 72.7717 45.7705 72.019 45.0648 72.019C44.3592 72.019 43.8418 72.7717 43.8418 73.6654V73.9947C43.8418 75.1237 44.5944 75.547 45.4412 75.547H45.7234V75.5941C45.7234 76.1115 45.3 76.5349 44.7826 76.5819H44.1711V77.3816H44.7826C45.6764 77.2875 46.382 76.4878 46.3349 75.5941H60.2589C60.5882 75.5941 60.7763 75.3589 60.7763 74.9825V69.8081H60.1648V74.7473ZM45.7234 74.7473H45.0648C44.6885 74.7473 44.4533 74.4181 44.4533 73.9947V73.6654C44.4533 73.195 44.7356 72.7717 45.0648 72.7717C45.3941 72.7717 45.7234 73.195 45.7234 73.6654V74.7473ZM57.5306 73.9477C57.5306 74.371 57.2483 74.7003 56.919 74.7003C56.5897 74.7003 56.3075 74.371 56.3075 73.9477V73.6184C56.3075 73.148 56.5897 72.7246 56.919 72.7246C57.2483 72.7246 57.5306 73.148 57.5306 73.6184V73.9477Z" fill="#A1A1A1"/>
<path d="M56.9186 71.5012C57.1538 71.5483 57.389 71.4072 57.4361 71.172C57.4831 70.9368 57.342 70.7016 57.1068 70.6545C56.8716 70.6075 56.6364 70.7486 56.5894 70.9838C56.5894 71.0308 56.5894 71.0308 56.5894 71.0779C56.5894 71.3131 56.7305 71.5012 56.9186 71.5012Z" fill="#A1A1A1"/>
<path d="M41.4426 70.5137H40.8311V74.418H41.4426V70.5137Z" fill="#A1A1A1"/>
<path d="M42.1013 74.747H40.3608V75.5467H42.2425C42.5717 75.5467 42.7129 75.3115 42.7129 74.9352V69.7607H42.1013V74.747Z" fill="#A1A1A1"/>
<path d="M38.0558 71.5012C38.291 71.5483 38.5263 71.4072 38.5733 71.172C38.6203 70.9368 38.4792 70.7016 38.244 70.6545C38.0088 70.6075 37.7736 70.7486 37.7266 70.9838C37.7266 71.0308 37.7266 71.0308 37.7266 71.0779C37.7266 71.3131 37.8677 71.5012 38.0558 71.5012Z" fill="#A1A1A1"/>
<path d="M37.9616 71.9717C37.7264 71.9717 37.4912 72.0658 37.3031 72.2069L37.6323 72.9125C37.7264 72.8184 37.8676 72.7714 38.0087 72.7714C38.4791 72.8184 38.8084 73.2418 38.7613 73.7122V74.7H37.209V75.4997H38.8554C39.1847 75.4997 39.3728 75.2645 39.3728 74.8882V73.7122C39.3728 72.8184 38.7143 71.9717 37.9616 71.9717Z" fill="#A1A1A1"/>
<path d="M32.4577 74.7472H30.482V69.7609H29.8705V74.7472H21.6384V73.7593C21.6384 72.8185 21.0269 72.0188 20.2272 72.0188H20.039C19.5216 72.0659 19.0982 72.3952 18.816 72.8185L18.7689 72.16H18.2515V74.7472H11.1014V71.9718H10.4898V74.7001H9.54902V69.7139H8.9375V74.8883C8.9375 75.3117 9.07862 75.4998 9.4079 75.4998H32.5988C32.9281 75.4998 33.1163 75.2646 33.1163 74.8883V69.7139H32.4577V74.7472ZM21.0269 74.7472H18.863V74.4179C18.863 73.6653 19.4745 72.8185 19.992 72.8185H20.2272C20.6976 72.8656 21.0269 73.336 20.9798 73.8064V74.7472H21.0269Z" fill="#A1A1A1"/>
<path d="M10.7722 71.5012C11.0074 71.5483 11.2426 71.4072 11.2896 71.172C11.3366 70.9368 11.1955 70.7016 10.9603 70.6545C10.7251 70.6075 10.4899 70.7486 10.4429 70.9838C10.4429 71.0308 10.4429 71.0308 10.4429 71.0779C10.4429 71.3131 10.584 71.5012 10.7722 71.5012Z" fill="#A1A1A1"/>
<path d="M6.86776 72.7714C7.15 72.8184 7.38521 72.9595 7.52633 73.1947L7.85561 72.4891C7.62041 72.2069 7.24408 72.0187 6.86776 71.9717C6.16216 71.9717 5.64471 72.7714 5.64471 73.6181V73.9474C5.64471 74.2296 5.69175 74.4648 5.78583 74.7H5.22135C4.98615 74.653 4.84503 74.4648 4.89207 74.2296V71.8306H4.2335V72.2069C4.04534 72.0658 3.85718 71.9717 3.62198 71.9717C2.91637 71.9717 2.39893 72.7243 2.39893 73.6181V73.9474C2.39893 74.8412 2.91637 75.4997 3.62198 75.4997C3.9983 75.4997 4.32758 75.3116 4.51574 75.0293C4.60982 75.3116 4.89207 75.4997 5.22135 75.4997H7.76153V74.7H6.82072C6.4444 74.653 6.16216 74.3237 6.2092 73.9474C6.2092 73.9474 6.2092 73.9474 6.2092 73.9003V73.5711C6.2092 73.1947 6.49144 72.7714 6.86776 72.7714ZM4.2335 73.9474C4.28054 74.3237 3.9983 74.653 3.62198 74.7C3.62198 74.7 3.62198 74.7 3.57494 74.7C3.24565 74.7 2.96341 74.3707 2.96341 73.9474V73.6181C2.96341 73.1477 3.24565 72.7243 3.57494 72.7243C3.90422 72.7243 4.18646 73.1477 4.18646 73.6181V73.9474H4.2335Z" fill="#A1A1A1"/>
<path d="M4.04533 71.5015C4.28053 71.4545 4.42165 71.2193 4.37461 70.9841C4.32757 70.8429 4.23349 70.7018 4.04533 70.6548C3.81013 70.7018 3.669 70.937 3.71604 71.1722C3.76308 71.3604 3.85717 71.5015 4.04533 71.5015Z" fill="#A1A1A1"/>
<path d="M3.19865 71.5015C3.43385 71.4545 3.57497 71.2193 3.52793 70.9841C3.48089 70.8429 3.38681 70.7018 3.19865 70.6548C2.96345 70.7018 2.82232 70.937 2.86936 71.1722C2.9164 71.3604 3.05753 71.5015 3.19865 71.5015Z" fill="#A1A1A1"/>
</svg>
