<svg width="176" height="176" viewBox="0 0 176 176" fill="none" xmlns="http://www.w3.org/2000/svg">
<path d="M116.987 100.032C116.107 99.574 114.1 98.87 114.1 97.5676C114.1 96.4412 115.086 95.878 116.177 95.878C116.97 95.8509 117.75 96.0873 118.395 96.5504C118.532 96.6394 118.647 96.758 118.733 96.8975C118.818 97.037 118.871 97.1938 118.888 97.3564L119.169 98.6236H119.768V94.998C118.81 94.5543 117.759 94.349 116.705 94.3996C113.819 94.3996 110.721 95.6316 110.721 99.1164C110.721 101.478 112.164 102.605 114.136 103.661C115.403 104.33 117.55 104.998 117.55 106.653C117.55 108.202 116.212 108.765 114.98 108.765C114.198 108.755 113.432 108.536 112.763 108.131C112.376 107.85 112.34 107.533 112.2 106.934L111.918 105.452H111.108V109.676C112.365 110.251 113.741 110.517 115.121 110.454C118.078 110.454 120.894 108.444 120.894 105.1C120.929 102.284 119.169 101.158 116.987 100.032Z" fill="#A1A1A1"/>
<path d="M61.4062 94.47C60.1969 94.4365 59.0022 94.7412 57.9566 95.35V97.1804C58.1971 97.112 58.4459 97.0776 58.6958 97.0783C61.6526 97.0783 62.6382 101.021 62.6382 103.379C62.6382 105.526 62.1454 108.483 59.435 108.483C58.4743 108.415 57.5665 108.017 56.8654 107.357V87.8911H50.811V88.2431C51.0148 88.2417 51.2168 88.2808 51.4054 88.3581C51.5939 88.4355 51.7652 88.5495 51.9093 88.6936C52.0534 88.8377 52.1675 89.009 52.2448 89.1976C52.3221 89.3861 52.3612 89.5881 52.3598 89.7919V109.187C54.2704 109.811 56.2639 110.143 58.2734 110.173C63.7646 110.173 67.2142 107.181 67.2142 101.443C67.2142 97.9583 65.3134 94.5052 61.4062 94.47Z" fill="#A1A1A1"/>
<path d="M81.0477 108.374V100.07C81.0477 96.1984 79.1469 94.1181 75.2045 94.1181C73.1986 94.0544 71.2492 94.7885 69.7837 96.1597C69.2181 96.6979 68.8677 97.4236 68.7981 98.2013V98.2365C68.8009 98.6371 68.9612 99.0204 69.2445 99.3037C69.5277 99.587 69.9111 99.7473 70.3117 99.7501C70.5109 99.7515 70.7083 99.7133 70.8926 99.6377C71.0769 99.5622 71.2443 99.4507 71.3851 99.3099C71.5259 99.1691 71.6374 99.0016 71.7129 98.8174C71.7885 98.6331 71.8267 98.4356 71.8253 98.2365V98.1661V97.2861C71.8957 96.5117 72.2477 96.1597 73.4797 96.1597C73.8519 96.1197 74.2284 96.1536 74.5875 96.2594C74.9466 96.3652 75.2813 96.5409 75.5724 96.7764C75.8634 97.0118 76.1051 97.3024 76.2836 97.6315C76.4621 97.9606 76.5739 98.3217 76.6125 98.6941C76.6478 98.8683 76.6478 99.0479 76.6125 99.2221V102.108V107.212C75.9899 107.674 75.24 107.932 74.4653 107.952C74.181 107.959 73.8981 107.91 73.6328 107.807C73.3674 107.705 73.1248 107.551 72.9189 107.355C72.713 107.159 72.5477 106.924 72.4325 106.664C72.3174 106.404 72.2546 106.124 72.2477 105.84V105.558C72.2477 104.22 72.8813 103.024 75.5565 102.355V100.947C70.3117 102.108 67.8125 103.34 67.8125 106.614C67.8125 109.078 69.7485 110.38 71.9661 110.38C73.7747 110.367 75.5154 109.691 76.8589 108.48H77.0701V109.958H82.5613V109.676H82.2797C81.9472 109.657 81.6347 109.511 81.4059 109.269C81.177 109.027 81.0489 108.707 81.0477 108.374Z" fill="#A1A1A1"/>
<path d="M108.574 108.416V97.2577C108.398 95.7793 106.709 94.2657 103.998 94.1953C102.924 94.105 101.85 94.374 100.946 94.9602C100.041 95.5464 99.3566 96.4164 99.0001 97.4337C97.5569 101.13 94.6001 100.848 94.6001 100.848V108.346C94.6005 108.512 94.5681 108.677 94.5046 108.831C94.441 108.985 94.3477 109.125 94.2299 109.243C94.1122 109.361 93.9723 109.454 93.8183 109.517C93.6644 109.581 93.4994 109.613 93.3329 109.613H93.0513V109.895H100.866V109.613H100.69C100.528 109.614 100.367 109.583 100.217 109.521C100.067 109.459 99.931 109.369 99.8164 109.254C99.7018 109.14 99.6111 109.003 99.5495 108.854C99.488 108.704 99.4567 108.543 99.4577 108.381V98.8769C99.4577 98.3261 99.6765 97.7979 100.066 97.4084C100.455 97.0189 100.984 96.8001 101.534 96.8001C102.085 96.8001 102.614 97.0189 103.003 97.4084C103.392 97.7979 103.611 98.3261 103.611 98.8769V108.346C103.612 108.517 103.578 108.686 103.513 108.845C103.448 109.003 103.352 109.147 103.231 109.268C103.11 109.389 102.966 109.485 102.808 109.55C102.65 109.615 102.48 109.649 102.309 109.648V109.93H110.194V109.648H109.877C109.71 109.653 109.544 109.625 109.389 109.566C109.233 109.507 109.09 109.418 108.969 109.303C108.848 109.189 108.751 109.051 108.683 108.899C108.616 108.747 108.579 108.583 108.574 108.416Z" fill="#A1A1A1"/>
<path d="M109.771 90.5977C109.581 90.5958 109.393 90.6319 109.217 90.7038C109.041 90.7756 108.881 90.8818 108.746 91.0162C108.612 91.1506 108.506 91.3105 108.434 91.4864C108.362 91.6624 108.326 91.8509 108.328 92.0409C108.318 92.1594 108.33 92.2787 108.363 92.3929V92.4281C108.398 92.4985 108.398 92.5689 108.434 92.6393L109.771 96.4761L111.109 92.6745C111.15 92.5829 111.185 92.4889 111.214 92.3929C111.242 92.2896 111.253 92.1829 111.25 92.0761C111.236 91.6885 111.075 91.3205 110.801 91.0462C110.527 90.772 110.159 90.6117 109.771 90.5977Z" fill="#A1A1A1"/>
<path d="M96.1838 96.1594C96.1801 95.479 95.9082 94.8276 95.4271 94.3465C94.946 93.8654 94.2946 93.5935 93.6142 93.5898C92.8642 93.5556 92.1187 93.7239 91.4561 94.0769C90.7934 94.4299 90.2379 94.9547 89.8478 95.5962C89.6612 95.883 89.5077 96.19 89.3902 96.5114L89.355 94.6106H83.0894L83.0542 95.2794H84.8846V108.268C84.8851 108.435 84.8526 108.6 84.7891 108.754C84.7256 108.908 84.6322 109.048 84.5145 109.165C84.3967 109.283 84.2568 109.376 84.1029 109.44C83.9489 109.503 83.7839 109.536 83.6174 109.535H83.3358V109.817H91.0094V109.535H90.6926C90.5261 109.536 90.3611 109.503 90.2071 109.44C90.0532 109.376 89.9133 109.283 89.7955 109.165C89.6778 109.048 89.5844 108.908 89.5209 108.754C89.4574 108.6 89.4249 108.435 89.4254 108.268V98.6938C89.3949 98.0078 89.5485 97.3261 89.8704 96.7195C90.1923 96.1129 90.6706 95.6035 91.2558 95.2442C91.0571 95.8748 91.1133 96.5581 91.4126 97.1477C91.7118 97.7373 92.2302 98.1862 92.8565 98.398C93.4828 98.6098 94.1672 98.5678 94.7629 98.2809C95.3586 97.994 95.8181 97.4851 96.043 96.8634C96.1378 96.6409 96.1857 96.4012 96.1838 96.1594Z" fill="#A1A1A1"/>
<path d="M94.8462 90.5976L95.4446 91.6536C101.921 89.0136 103.47 86.166 103.47 81.238V72.54H97.5918V72.8216C97.7583 72.8212 97.9233 72.8536 98.0773 72.9172C98.2312 72.9807 98.3711 73.074 98.4889 73.1918C98.6066 73.3095 98.7 73.4494 98.7635 73.6034C98.827 73.7573 98.8595 73.9223 98.859 74.0888V81.2696C98.859 85.5288 98.7534 88.63 94.8462 90.5976Z" fill="#A1A1A1"/>
<path d="M85.0959 85.0716C85.3071 85.2124 85.5535 85.3884 85.9055 85.5996C87.1747 86.5233 88.7006 87.0278 90.2703 87.0428C90.8371 87.0844 91.4064 87.0134 91.9456 86.8339C92.4848 86.6544 92.9831 86.3699 93.4118 85.9969C93.8404 85.6238 94.191 85.1696 94.4433 84.6604C94.6955 84.1511 94.8445 83.597 94.8815 83.03V74.054C94.881 73.8874 94.9135 73.7224 94.977 73.5685C95.0405 73.4145 95.1339 73.2746 95.2516 73.1569C95.3694 73.0391 95.5093 72.9458 95.6632 72.8823C95.8172 72.8188 95.9822 72.7863 96.1487 72.7868V72.5122H89.0031V72.7938C89.1788 72.7938 89.3527 72.8284 89.515 72.8956C89.6773 72.9628 89.8247 73.0614 89.9489 73.1856C90.0731 73.3098 90.1717 73.4572 90.2389 73.6195C90.3061 73.7818 90.3407 73.9558 90.3407 74.1314V81.4882C90.3407 83.3186 89.3551 84.5506 87.6303 84.5506C87.2677 84.552 86.9085 84.4802 86.5743 84.3394C86.1913 84.2064 85.8251 84.0292 85.4831 83.8114C85.6233 82.9502 85.694 82.0791 85.6943 81.2066V72.5122H79.1119V72.7938C79.3709 72.7933 79.6274 72.844 79.8668 72.9429C80.1062 73.0418 80.3237 73.187 80.5068 73.3701C80.6899 73.5533 80.8351 73.7707 80.934 74.0101C81.0329 74.2495 81.0836 74.506 81.0831 74.765V81.2066C81.0831 85.5714 80.9423 88.6338 77.0703 90.605L77.6687 91.661C82.1391 89.7602 84.2511 87.789 85.0959 85.0786" fill="#A1A1A1"/>
<path d="M105.97 67.9996V84.2268C106.11 85.5644 107.624 86.902 110.123 86.9724C111.096 87.0519 112.068 86.8041 112.884 86.2685C113.7 85.7328 114.314 84.9399 114.629 84.0156C115.931 80.6716 118.606 80.918 118.606 80.918V74.8988C118.605 74.7504 118.632 74.6031 118.688 74.4656C118.744 74.328 118.827 74.2031 118.932 74.0981C119.037 73.9932 119.162 73.9103 119.3 73.8543C119.437 73.7984 119.584 73.7705 119.733 73.7724H120.014V73.4908H112.992V73.7724H113.168C113.314 73.7743 113.458 73.8049 113.592 73.8626C113.725 73.9203 113.847 74.0039 113.948 74.1086C114.049 74.2133 114.129 74.337 114.183 74.4726C114.236 74.6082 114.262 74.7531 114.259 74.8988V82.7203C114.266 82.9676 114.224 83.2138 114.136 83.445C114.048 83.6761 113.915 83.8876 113.745 84.0674C113.575 84.2471 113.371 84.3917 113.145 84.4927C112.92 84.5938 112.676 84.6493 112.429 84.6563C112.181 84.6632 111.935 84.6214 111.704 84.5331C111.473 84.4449 111.261 84.312 111.082 84.142C110.902 83.9721 110.757 83.7684 110.656 83.5425C110.555 83.3167 110.5 83.0732 110.493 82.8259V68.0067C110.496 67.6995 110.619 67.4056 110.836 67.1883C111.053 66.9711 111.347 66.8478 111.654 66.8451V66.5635H104.509V66.8451H104.79C104.945 66.8427 105.099 66.8709 105.243 66.9281C105.387 66.9852 105.518 67.0701 105.629 67.178C105.741 67.2858 105.829 67.4145 105.891 67.5567C105.952 67.6989 105.985 67.8518 105.987 68.0067" fill="#A1A1A1"/>
<path d="M116.072 85.0011C116.072 85.4814 116.214 85.951 116.481 86.3504C116.748 86.7498 117.127 87.0612 117.571 87.245C118.015 87.4288 118.503 87.4769 118.974 87.3832C119.446 87.2895 119.878 87.0582 120.218 86.7185C120.558 86.3788 120.789 85.946 120.883 85.4749C120.976 85.0038 120.928 84.5154 120.744 84.0716C120.561 83.6278 120.249 83.2485 119.85 82.9816C119.451 82.7147 118.981 82.5723 118.501 82.5723C117.857 82.5732 117.239 82.8294 116.784 83.2847C116.329 83.74 116.073 84.3572 116.072 85.0011Z" fill="#A1A1A1"/>
<path d="M91.6432 70.4001C92.1235 70.4001 92.5931 70.2576 92.9925 69.9908C93.3919 69.7239 93.7032 69.3445 93.8871 68.9007C94.0709 68.4569 94.119 67.9686 94.0253 67.4974C93.9316 67.0263 93.7003 66.5935 93.3606 66.2539C93.0209 65.9142 92.5881 65.6829 92.117 65.5891C91.6459 65.4954 91.1575 65.5435 90.7137 65.7274C90.2699 65.9112 89.8906 66.2225 89.6237 66.6219C89.3568 67.0213 89.2144 67.4909 89.2144 67.9713C89.2153 68.6152 89.4715 69.2324 89.9268 69.6877C90.3821 70.143 90.9993 70.3992 91.6432 70.4001Z" fill="#A1A1A1"/>
<path d="M83.1949 70.4001C83.6753 70.4001 84.1449 70.2576 84.5443 69.9908C84.9437 69.7239 85.255 69.3445 85.4388 68.9007C85.6227 68.4569 85.6708 67.9686 85.577 67.4974C85.4833 67.0263 85.252 66.5935 84.9123 66.2539C84.5727 65.9142 84.1399 65.6829 83.6687 65.5891C83.1976 65.4954 82.7093 65.5435 82.2655 65.7274C81.8216 65.9112 81.4423 66.2225 81.1754 66.6219C80.9086 67.0213 80.7661 67.4909 80.7661 67.9713C80.767 68.6152 81.0232 69.2324 81.4785 69.6877C81.9338 70.143 82.551 70.3992 83.1949 70.4001Z" fill="#A1A1A1"/>
<path d="M53.1693 75.328C52.9182 75.3336 52.6718 75.2597 52.4653 75.1168C52.2859 75.0034 52.1543 74.828 52.0957 74.624L52.5533 74.3424C52.5981 74.4797 52.6894 74.5971 52.8115 74.6742C52.9336 74.7513 53.0789 74.7834 53.2221 74.7648C53.3319 74.7681 53.4408 74.7439 53.5389 74.6944C53.5671 74.6762 53.5913 74.6526 53.6101 74.625C53.629 74.5973 53.6421 74.5661 53.6486 74.5333C53.6552 74.5004 53.6551 74.4666 53.6483 74.4338C53.6416 74.401 53.6283 74.3699 53.6093 74.3424C53.5741 74.3072 53.5741 74.272 53.5389 74.272C53.3927 74.1981 53.2394 74.1391 53.0813 74.096C52.974 74.0661 52.8683 74.0309 52.7645 73.9904C52.6589 73.953 52.5628 73.8929 52.4829 73.8144C52.3856 73.7598 52.3107 73.6725 52.2717 73.568C52.2352 73.4657 52.2115 73.3593 52.2013 73.2512C52.1996 73.1366 52.2241 73.0231 52.2729 72.9194C52.3217 72.8157 52.3935 72.7245 52.4829 72.6528C52.6675 72.4904 52.9059 72.4025 53.1517 72.4064C53.3633 72.4106 53.5699 72.4714 53.7501 72.5824C53.9242 72.6903 54.0597 72.8504 54.1373 73.04L53.6797 73.3216C53.646 73.2108 53.575 73.1152 53.4787 73.051C53.3824 72.9868 53.2669 72.9581 53.1517 72.9696C53.0538 72.9719 52.9576 72.996 52.8701 73.04C52.8365 73.0637 52.8092 73.0955 52.7908 73.1323C52.7724 73.1692 52.7633 73.21 52.7645 73.2512C52.7633 73.2974 52.7721 73.3434 52.7903 73.386C52.8085 73.4285 52.8357 73.4666 52.8701 73.4976C53.0043 73.5711 53.1459 73.6301 53.2925 73.6736L53.5037 73.744C53.5658 73.7579 53.6252 73.7816 53.6797 73.8144C53.7428 73.8416 53.802 73.8771 53.8557 73.92C53.8909 73.9552 53.9613 73.9904 53.9965 74.0256C54.0317 74.0608 54.1021 74.1312 54.1373 74.1664C54.2006 74.2861 54.2367 74.4183 54.2429 74.5536C54.2413 74.6727 54.2155 74.7904 54.1671 74.8993C54.1187 75.0082 54.0487 75.1061 53.9613 75.1872C53.7155 75.2864 53.4519 75.3344 53.1869 75.328" fill="#A1A1A1"/>
<path d="M55.9504 72.4697H55.3872V75.2857H55.9504V72.4697Z" fill="#A1A1A1"/>
<path d="M58.9424 72.4697H59.5056V75.2857H59.0832L57.8864 73.5609V75.2857H57.3232V72.4697H57.7456L58.9424 74.198V72.4697Z" fill="#A1A1A1"/>
<path d="M62.1808 75.328C61.7868 75.3325 61.4071 75.1806 61.1248 74.9056C60.8805 74.6525 60.7346 74.3204 60.7136 73.9693C60.6926 73.6181 60.7978 73.2709 61.0102 72.9905C61.2226 72.7101 61.5283 72.5148 61.8721 72.44C62.2159 72.3652 62.575 72.4157 62.8848 72.5824C63.0976 72.6897 63.2704 72.8624 63.3776 73.0752L62.92 73.3568C62.865 73.2308 62.7644 73.1303 62.6384 73.0752C62.4624 72.981 62.2602 72.9472 62.0631 72.979C61.866 73.0108 61.6847 73.1064 61.5472 73.2512C61.3928 73.4399 61.3084 73.6762 61.3084 73.92C61.3084 74.1638 61.3928 74.4001 61.5472 74.5888C61.6937 74.7187 61.874 74.8042 62.0673 74.8353C62.2605 74.8665 62.4586 74.842 62.6384 74.7648C62.7644 74.7098 62.865 74.6092 62.92 74.4832L63.3776 74.7648C63.2505 74.9624 63.0824 75.1305 62.8848 75.2576C62.6681 75.3712 62.4158 75.3964 62.1808 75.328Z" fill="#A1A1A1"/>
<path d="M65.1374 74.7577H66.3342V75.2857H64.5742V72.4697H66.299V72.9977H65.1374V73.5961H66.1934V74.1241H65.1374V74.7577Z" fill="#A1A1A1"/>
<path d="M52.7119 77.2925H53.2047V80.1085H52.6415V77.8944L52.1135 78.0352L51.9727 77.5776C52.0079 77.5424 52.7119 77.2925 52.7119 77.2925Z" fill="#A1A1A1"/>
<path d="M54.9646 78.2072C54.9646 78.348 54.9998 78.4888 55.1054 78.524C55.1941 78.6127 55.3144 78.6625 55.4398 78.6625C55.5652 78.6625 55.6855 78.6127 55.7742 78.524C55.8629 78.4353 55.9127 78.3151 55.9127 78.1896C55.9127 78.0642 55.8629 77.9439 55.7742 77.8552C55.6838 77.7798 55.574 77.731 55.4574 77.7144C55.3969 77.7086 55.336 77.7185 55.2805 77.7431C55.225 77.7678 55.1768 77.8064 55.1406 77.8552C55.083 77.8933 55.0364 77.9459 55.0055 78.0077C54.9747 78.0695 54.9605 78.1383 54.9646 78.2072ZM56.443 78.2072C56.4391 78.4079 56.378 78.6032 56.267 78.7704L55.387 80.108H54.7534L55.387 79.1928C55.1148 79.1905 54.8526 79.0905 54.6478 78.9112C54.4746 78.7176 54.3789 78.467 54.3789 78.2072C54.3789 77.9475 54.4746 77.6968 54.6478 77.5032C54.8565 77.3328 55.1176 77.2397 55.387 77.2397C55.6564 77.2397 55.9175 77.3328 56.1262 77.5032C56.2257 77.5916 56.3053 77.7 56.3599 77.8213C56.4145 77.9427 56.4428 78.0742 56.443 78.2072Z" fill="#A1A1A1"/>
<path d="M57.9567 78.2072C57.9567 78.348 57.9919 78.4888 58.0975 78.524C58.1882 78.6089 58.3077 78.6561 58.4319 78.6561C58.5561 78.6561 58.6757 78.6089 58.7663 78.524C58.8111 78.4843 58.8468 78.4355 58.871 78.3808C58.8953 78.3262 58.9076 78.267 58.9071 78.2072C58.9102 78.147 58.899 78.087 58.8746 78.032C58.8501 77.9769 58.813 77.9284 58.7663 77.8904C58.6759 77.8149 58.5662 77.7661 58.4495 77.7496C58.3894 77.7465 58.3294 77.7577 58.2743 77.7822C58.2193 77.8066 58.1708 77.8437 58.1327 77.8904C58.0774 77.9223 58.0318 77.9686 58.0008 78.0244C57.9698 78.0802 57.9546 78.1434 57.9567 78.2072ZM59.4703 78.2072C59.4664 78.4078 59.4053 78.6032 59.2943 78.7704L58.4143 80.108H57.7807L58.4319 79.1998C58.1598 79.1975 57.8975 79.0975 57.6927 78.9182C57.5196 78.7246 57.4238 78.474 57.4238 78.2142C57.4238 77.9545 57.5196 77.7038 57.6927 77.5102C57.8946 77.34 58.1502 77.2466 58.4143 77.2466C58.6784 77.2466 58.934 77.34 59.1359 77.5102C59.2458 77.5916 59.335 77.6978 59.3962 77.8201C59.4573 77.9424 59.4888 78.0775 59.4879 78.2142" fill="#A1A1A1"/>
<path d="M60.4205 80.1081V79.7244L61.3709 78.7388C61.4586 78.6709 61.5318 78.586 61.5863 78.4893C61.6407 78.3926 61.6751 78.2859 61.6877 78.1756C61.6932 78.1234 61.687 78.0706 61.6695 78.0211C61.652 77.9716 61.6236 77.9267 61.5865 77.8895C61.5494 77.8524 61.5044 77.8241 61.4549 77.8066C61.4054 77.7891 61.3527 77.7829 61.3005 77.7884C61.2014 77.7899 61.105 77.8208 61.0235 77.8772C60.942 77.9336 60.8791 78.013 60.8429 78.1052L60.3853 77.8236C60.4645 77.6442 60.6005 77.4957 60.7725 77.4012C60.9295 77.2964 61.1119 77.2356 61.3005 77.2252C61.5463 77.2214 61.7847 77.3092 61.9693 77.4716C62.0663 77.5524 62.1426 77.6553 62.1916 77.7717C62.2406 77.8881 62.2609 78.0145 62.2509 78.1404C62.208 78.4789 62.0457 78.7909 61.7933 79.0204L61.2301 79.5836H62.2861V80.1116L60.4205 80.1081Z" fill="#A1A1A1"/>
<path d="M125.188 108.128C125.184 108.59 125.004 109.034 124.683 109.368C124.362 109.702 123.926 109.9 123.464 109.923H123.428C123.077 109.926 122.732 109.825 122.438 109.633C122.144 109.441 121.913 109.165 121.775 108.842C121.638 108.518 121.599 108.161 121.664 107.816C121.729 107.47 121.895 107.152 122.142 106.901C122.388 106.65 122.703 106.477 123.047 106.405C123.391 106.333 123.749 106.365 124.075 106.496C124.401 106.628 124.681 106.853 124.879 107.143C125.077 107.433 125.185 107.776 125.188 108.128ZM125.012 108.166C125.018 107.958 124.982 107.751 124.907 107.556C124.832 107.362 124.72 107.184 124.576 107.034C124.432 106.883 124.259 106.763 124.068 106.679C123.877 106.596 123.672 106.551 123.464 106.547C123.044 106.538 122.637 106.696 122.333 106.986C122.03 107.277 121.854 107.676 121.844 108.096C121.835 108.516 121.993 108.923 122.283 109.226C122.574 109.53 122.973 109.706 123.393 109.715C123.602 109.723 123.81 109.689 124.006 109.615C124.201 109.541 124.38 109.428 124.531 109.284C124.682 109.139 124.802 108.966 124.885 108.774C124.968 108.582 125.011 108.375 125.012 108.166Z" fill="#A1A1A1"/>
<path d="M124.203 109.078C124.135 108.908 124.088 108.731 124.062 108.55C124.037 108.402 123.962 108.267 123.851 108.166C123.946 108.118 124.025 108.041 124.075 107.947C124.126 107.852 124.146 107.745 124.133 107.638C124.133 107.559 124.118 107.481 124.088 107.408C124.058 107.334 124.013 107.268 123.957 107.212C123.776 107.071 123.552 106.998 123.323 107.005C123.158 106.999 122.993 107.01 122.83 107.036H122.76V109.12H123.147V108.24H123.323C123.499 108.24 123.605 108.311 123.64 108.557C123.67 108.726 123.717 108.891 123.781 109.05L123.816 109.085H124.203V109.078ZM123.745 107.67C123.745 107.881 123.605 107.952 123.393 107.952H123.2V107.36H123.376C123.622 107.36 123.763 107.469 123.763 107.677L123.745 107.67Z" fill="#A1A1A1"/>
</svg>
