<svg width="176" height="176" viewBox="0 0 176 176" fill="none" xmlns="http://www.w3.org/2000/svg">
<path d="M101.376 74.895H110.317C112.499 74.895 113.942 76.2678 113.978 78.5206C114.013 80.2806 113.978 82.0406 113.978 83.8358V88.7638C113.978 89.1862 113.837 89.327 113.414 89.327C112.288 89.2918 111.126 89.2918 109.965 89.327C109.472 89.327 109.331 89.1862 109.331 88.6934C109.366 85.0678 109.331 81.4422 109.331 77.8166C109.337 77.5931 109.325 77.3695 109.296 77.1478C109.279 76.9452 109.186 76.7565 109.036 76.6194C108.886 76.4823 108.69 76.407 108.486 76.4086H105.318C104.861 76.4086 104.896 76.6902 104.896 77.007V88.799C104.896 89.1862 104.79 89.3622 104.368 89.327C103.277 89.2918 102.15 89.327 101.024 89.327C100.179 89.327 100.179 89.327 100.179 88.5174V77.088C100.179 76.56 100.038 76.384 99.5104 76.4192C98.4896 76.4544 97.4688 76.4544 96.448 76.4192C95.9552 76.4192 95.7792 76.56 95.8144 77.0528C95.8496 80.9248 95.8144 84.832 95.8496 88.704C95.8496 89.1968 95.744 89.3728 95.216 89.3376C94.0192 89.3024 92.8224 89.3024 91.6256 89.3376C91.2384 89.3376 91.1328 89.232 91.1328 88.8448V75.4336C91.1328 74.9408 91.3792 74.9056 91.7664 74.9056L101.376 74.895Z" fill="#A1A1A1"/>
<path d="M89.8339 82.0758V88.623C89.8339 89.1158 89.7283 89.2918 89.2003 89.2918C88.1091 89.2566 86.9827 89.2918 85.8563 89.2918C85.1523 89.2918 85.1523 89.2918 85.1523 88.5526V84.751C85.1523 84.3286 85.0467 84.1526 84.5891 84.1526C82.7235 84.1878 80.8931 84.1878 79.0275 84.1526C78.5699 84.1526 78.4643 84.3286 78.4643 84.751C78.4995 86.0534 78.4643 87.3558 78.4995 88.6582C78.4995 89.1862 78.3235 89.327 77.8307 89.2918C76.6574 89.2566 75.4958 89.2566 74.3459 89.2918C73.9587 89.2918 73.7827 89.1862 73.7827 88.7638V75.4582C73.7827 75.071 73.9235 74.895 74.3107 74.895C75.5075 74.9302 76.7395 74.9302 77.9363 74.895C78.3235 74.895 78.4291 75.0358 78.4291 75.423V79.471C78.4291 79.8582 78.5699 79.999 78.9219 79.999H84.5539C84.9763 79.999 85.0819 79.8582 85.0819 79.471C85.0467 78.1334 85.0819 76.7958 85.0819 75.4582C85.0819 75.071 85.2227 74.895 85.6099 74.895C86.7715 74.9302 87.9683 74.9302 89.1299 74.895C89.6227 74.895 89.7283 75.1062 89.7283 75.5286C89.8339 77.711 89.8339 79.904 89.8339 82.0758Z" fill="#A1A1A1"/>
<path d="M115.213 82.0757V75.5285C115.213 75.0357 115.354 74.8949 115.846 74.8949C116.973 74.9301 118.099 74.8949 119.226 74.8949C119.894 74.8949 119.894 74.8949 119.894 75.5989V79.4005C119.894 79.8229 120.035 79.9637 120.458 79.9637C122.288 79.9637 124.083 79.9285 125.914 79.9637C126.371 79.9637 126.512 79.7877 126.512 79.3653C126.477 78.0981 126.512 76.7957 126.512 75.5285C126.512 75.0709 126.653 74.8597 127.146 74.8949C128.307 74.9301 129.469 74.9301 130.63 74.8949C131.053 74.8949 131.194 75.0357 131.194 75.4581V88.7285C131.194 89.1157 131.088 89.2917 130.666 89.2917C129.469 89.2565 128.237 89.2565 127.04 89.2917C126.618 89.2917 126.547 89.1157 126.547 88.7637V84.8318C126.547 84.3742 126.406 84.1982 125.914 84.1982C124.118 84.2334 122.358 84.2334 120.563 84.1982C120.035 84.1982 119.93 84.3742 119.93 84.867C119.965 86.1342 119.93 87.4366 119.93 88.7038C119.93 89.1614 119.824 89.3374 119.331 89.3022C118.17 89.267 116.973 89.267 115.811 89.3022C115.389 89.3022 115.248 89.1614 115.248 88.739C115.248 86.5109 115.213 84.2933 115.213 82.0757Z" fill="#A1A1A1"/>
<path d="M54.282 101.647C51.0788 101.577 47.8756 101.506 44.6724 101.471C44.2148 101.471 44.074 101.295 44.1092 100.873C44.2148 95.2408 44.3204 89.644 44.426 84.012C44.4612 82.4984 44.4612 80.9848 45.0244 79.5416C46.2212 76.444 49.3187 74.2264 52.6275 74.2616C58.8931 74.332 65.1588 74.4728 71.3891 74.5432C71.8116 74.5432 71.9172 74.684 71.9172 75.1064C71.8116 81.4424 71.7059 87.7784 71.5651 94.0792C71.4595 98.092 67.7635 101.682 63.7155 101.718C60.5475 101.788 57.4148 101.647 54.282 101.647ZM61.6388 74.7192C58.6468 74.7192 55.69 74.5784 52.698 74.5784C50.7339 74.5601 48.8337 75.2751 47.369 76.5836C45.9042 77.8921 44.9803 79.7 44.778 81.6536C44.602 83.3784 44.6724 85.1032 44.6372 86.8632C44.5316 91.4744 44.4612 96.0856 44.3556 100.697C44.3556 101.119 44.4964 101.225 44.8836 101.225C46.538 101.225 48.2276 101.295 49.882 101.295C54.3876 101.366 58.8579 101.471 63.3635 101.506C65.0166 101.511 66.6288 100.993 67.9692 100.025C69.3096 99.0579 70.3096 97.6912 70.826 96.1208C71.0882 95.3735 71.2308 94.5895 71.2484 93.7976C71.3892 87.708 71.4596 81.6184 71.6004 75.5288C71.6004 75.036 71.4948 74.86 70.9668 74.86C67.9044 74.8248 64.768 74.7544 61.6388 74.7192Z" fill="#A1A1A1"/>
<path d="M131.863 90.9462C131.701 90.9845 131.536 91.008 131.37 91.0166H74.3105C74.0459 90.9917 73.7856 90.9325 73.5361 90.8406C73.7843 90.7376 74.0445 90.6667 74.3105 90.6294H131.159C131.407 90.6473 131.654 90.6826 131.898 90.735C131.869 90.8015 131.857 90.874 131.863 90.9462Z" fill="#A1A1A1"/>
<path d="M60.1921 100.32C62.5857 99.8274 64.1345 98.4546 64.6625 96.061C64.7793 95.4345 64.8265 94.797 64.8033 94.1602C64.8737 90.0418 64.9441 85.9586 65.0145 81.8402C65.0145 81.3474 64.8737 81.2066 64.4161 81.2066L51.7441 80.9954C48.6113 80.9602 46.8865 82.1922 45.8305 85.1138C45.8305 85.149 45.7953 85.1842 45.6897 85.325C45.6545 82.8258 45.4785 80.397 47.1329 78.3554C48.5761 76.5602 50.4065 75.6098 52.7297 75.645L61.2129 75.7506C64.1345 75.7858 67.0561 75.8562 70.0129 75.8914C70.4705 75.8914 70.6113 76.0322 70.6113 76.4898C70.5057 82.2626 70.4353 88.0706 70.2945 93.8434C70.23 95.6331 69.4759 97.3286 68.1901 98.5751C66.9042 99.8216 65.1861 100.523 63.3953 100.531H60.1921V100.32Z" fill="#A1A1A1"/>
<path d="M51.3252 100.32C49.5652 100.32 47.8052 100.179 46.01 100.214C45.5524 100.214 45.4116 100.038 45.4116 99.6159C45.482 96.1663 45.5172 92.7167 45.6228 89.2671C45.6716 88.2161 46.1228 87.2242 46.883 86.4968C47.6431 85.7694 48.6539 85.3623 49.706 85.3599C53.1556 85.3951 56.6052 85.4655 60.0548 85.5359C60.4772 85.5359 60.618 85.6767 60.5828 86.0991C60.5124 89.6191 60.4772 93.1391 60.3716 96.6591C60.2927 97.6189 59.8733 98.5189 59.1891 99.1966C58.5049 99.8744 57.601 100.285 56.6404 100.355C54.8804 100.355 53.1204 100.32 51.3252 100.32Z" fill="#A1A1A1"/>
<path d="M76.4229 96.0959H73.6421V95.7791H75.3669C75.3839 95.4377 75.3111 95.0979 75.1557 94.7935C75.0707 94.6442 74.9479 94.52 74.7995 94.4335C74.6512 94.347 74.4826 94.3011 74.3109 94.3007H74.1701V93.9839C75.1557 93.9839 75.6837 94.5823 75.7189 95.7791H76.4581V96.0959H76.4229Z" fill="#A1A1A1"/>
<path d="M77.4398 93.9839V95.2863C77.4398 95.8143 77.2286 96.0959 76.771 96.0959H76.3486V95.7791H76.6654C76.744 95.7897 76.824 95.7748 76.8936 95.7369C76.9632 95.6989 77.0189 95.6397 77.0526 95.5679C77.1051 95.4213 77.129 95.266 77.123 95.1103V93.9487H77.4398V93.9839ZM76.8414 96.8351H76.5246V96.4479H76.8414V96.8351ZM77.4398 96.8351H77.123V96.4479H77.4398V96.8351Z" fill="#A1A1A1"/>
<path d="M80.7173 96.0959H77.9365V95.7791H79.6613C79.6783 95.4377 79.6055 95.0979 79.4501 94.7935C79.3652 94.6442 79.2423 94.52 79.094 94.4335C78.9456 94.347 78.7771 94.3011 78.6053 94.3007H78.4645V93.9839C79.4501 93.9839 79.9781 94.5823 80.0133 95.7791H80.7525V96.0959H80.7173Z" fill="#A1A1A1"/>
<path d="M84.3074 96.0959H80.5762V95.7791H83.3922V95.6031C83.3922 94.8287 82.9698 94.3711 82.2306 94.3711C82.0558 94.3573 81.8806 94.3929 81.725 94.4738C81.5694 94.5547 81.4397 94.6776 81.3506 94.8287L81.069 94.5471C81.2123 94.3819 81.3914 94.2517 81.5927 94.1663C81.7941 94.0808 82.0122 94.0426 82.2306 94.0543C82.4402 94.042 82.65 94.0748 82.8459 94.1506C83.0417 94.2264 83.219 94.3433 83.3658 94.4934C83.5127 94.6435 83.6255 94.8234 83.6969 95.0209C83.7682 95.2184 83.7963 95.429 83.7794 95.6383V95.7791H84.3074V96.0959ZM82.5122 96.7999H82.1954V96.4127H82.5122V96.7999Z" fill="#A1A1A1"/>
<path d="M85.2933 93.0933V95.2757C85.2933 95.8037 85.0821 96.0853 84.6245 96.0853H84.2373V95.7685H84.5189C84.5975 95.779 84.6774 95.7642 84.7471 95.7262C84.8167 95.6883 84.8724 95.6291 84.9061 95.5573C84.9585 95.4107 84.9824 95.2553 84.9765 95.0997V93.0581H85.2933V93.0933Z" fill="#A1A1A1"/>
<path d="M86.2401 96.096H85.9233V93.0688H86.2401V96.096Z" fill="#A1A1A1"/>
<path d="M91.4178 96.0962H91.3474C91.1511 96.104 90.9577 96.0459 90.7982 95.9311C90.6388 95.8162 90.5223 95.6513 90.4674 95.4626C90.4502 95.8427 90.2867 96.2014 90.0112 96.4638C89.7357 96.7261 89.3695 96.8719 88.989 96.8706C88.7808 96.862 88.5763 96.8123 88.3874 96.7244C88.1984 96.6365 88.0287 96.5121 87.888 96.3583C87.7473 96.2046 87.6385 96.0245 87.5677 95.8285C87.4968 95.6325 87.4655 95.4244 87.4754 95.2162V94.7234H87.7922V95.1106C87.7922 95.9554 88.2498 96.5186 88.989 96.5186C89.2853 96.5192 89.5706 96.4065 89.7865 96.2036C90.0024 96.0008 90.1327 95.7231 90.1506 95.4274C90.1506 95.005 89.9394 94.7938 89.5522 94.7938V94.5122H89.7986C89.9819 94.5388 90.1544 94.6152 90.2972 94.7332C90.4399 94.8511 90.5475 95.006 90.6082 95.181C90.7842 95.6386 90.925 95.7794 91.277 95.7794H91.3826V96.0962H91.4178Z" fill="#A1A1A1"/>
<path d="M92.9278 96.0958H91.3086V95.779H91.5902C91.6646 95.7877 91.74 95.7759 91.8083 95.7448C91.8765 95.7138 91.935 95.6648 91.9774 95.603C92.0265 95.4555 92.0503 95.3008 92.0478 95.1454V93.9838H92.3646V95.2862C92.3711 95.4567 92.3348 95.6261 92.259 95.779H92.8574V96.0958H92.9278ZM92.3998 93.667H92.083V93.2798H92.3998V93.667Z" fill="#A1A1A1"/>
<path d="M96.448 96.096H92.6816V95.7792H93.5264V93.104H93.8784L93.808 95.2512C94.1248 94.4768 94.7584 93.984 95.3568 93.984C96.096 93.984 96.4832 94.512 96.4832 95.568C96.4891 95.7447 96.4773 95.9216 96.448 96.096ZM96.1312 95.7792V95.4976C96.1312 94.7584 95.8144 94.3008 95.3216 94.3008C94.7232 94.3008 94.0192 95.0048 93.808 95.8144H96.1312V95.7792Z" fill="#A1A1A1"/>
<path d="M99.3378 96.0962H98.7042C98.6682 96.3193 98.5515 96.5214 98.3763 96.6642C98.2011 96.8069 97.9796 96.8804 97.7538 96.8706V96.5538H97.789C97.9232 96.5623 98.0557 96.5199 98.1601 96.4351C98.2644 96.3503 98.333 96.2293 98.3522 96.0962H97.8559C97.7367 96.0946 97.6191 96.0688 97.5102 96.0204C97.4013 95.972 97.3034 95.902 97.2223 95.8146C97.0532 95.6063 96.9656 95.3435 96.9759 95.0754C96.9717 94.7915 97.0719 94.5159 97.2575 94.301C97.3362 94.1993 97.4378 94.1176 97.554 94.0625C97.6702 94.0075 97.7978 93.9806 97.9263 93.9842C98.4543 93.9842 98.7711 94.301 98.7711 94.8994V95.7794H99.3695V96.0962H99.3378ZM98.4226 95.7794V94.7938C98.4261 94.7284 98.4154 94.6631 98.3911 94.6023C98.3667 94.5415 98.3295 94.4867 98.2818 94.4418C98.2341 94.386 98.1746 94.3413 98.1077 94.3109C98.0408 94.2805 97.9681 94.2651 97.8946 94.2658C97.8082 94.2631 97.7228 94.2848 97.6481 94.3284C97.5734 94.372 97.5125 94.4357 97.4722 94.5122C97.3802 94.6601 97.3314 94.8308 97.3314 95.005C97.3314 95.1792 97.3802 95.3499 97.4722 95.4978C97.5108 95.5784 97.5704 95.6471 97.6447 95.6967C97.719 95.7463 97.8054 95.7748 97.8946 95.7794H98.4226Z" fill="#A1A1A1"/>
<path d="M100.359 93.0933V95.2757C100.359 95.8037 100.148 96.0853 99.6899 96.0853H99.3027V95.7685H99.5843C99.6629 95.779 99.7429 95.7642 99.8125 95.7262C99.8821 95.6883 99.9378 95.6291 99.9715 95.5573C100.024 95.4107 100.048 95.2553 100.042 95.0997V93.0581H100.359V93.0933Z" fill="#A1A1A1"/>
<path d="M101.309 96.096H100.992V93.0688H101.309V96.096Z" fill="#A1A1A1"/>
<path d="M104.513 95.0398C104.512 95.3171 104.426 95.5874 104.266 95.8142C104.171 95.9143 104.056 95.994 103.929 96.0484C103.802 96.1029 103.665 96.131 103.527 96.131C103.389 96.131 103.252 96.1029 103.125 96.0484C102.998 95.994 102.883 95.9143 102.788 95.8142C102.608 95.5979 102.52 95.3201 102.541 95.0398C102.537 94.7559 102.637 94.4803 102.823 94.2654C102.918 94.1653 103.033 94.0856 103.16 94.0311C103.287 93.9767 103.424 93.9486 103.562 93.9486C103.7 93.9486 103.837 93.9767 103.964 94.0311C104.091 94.0856 104.206 94.1653 104.301 94.2654C104.449 94.4958 104.523 94.7661 104.513 95.0398ZM104.125 95.0046C104.138 94.8179 104.088 94.6322 103.985 94.4766C103.935 94.4009 103.867 94.3388 103.787 94.2958C103.707 94.2528 103.618 94.2303 103.527 94.2302C103.43 94.2223 103.333 94.2411 103.246 94.2845C103.159 94.328 103.086 94.3944 103.034 94.4766C102.93 94.6453 102.881 94.842 102.893 95.0398C102.881 95.2265 102.93 95.4121 103.034 95.5678C103.086 95.65 103.159 95.7164 103.246 95.7598C103.333 95.8033 103.43 95.8221 103.527 95.8142C103.949 95.8036 104.125 95.5572 104.125 94.994V95.0046ZM103.421 93.667H103.105V93.2798H103.421V93.667ZM104.02 93.667H103.703V93.2798H104.02V93.667Z" fill="#A1A1A1"/>
<path d="M107.645 96.0959H104.864V95.7791H106.589C106.606 95.4377 106.533 95.0979 106.378 94.7935C106.293 94.6442 106.17 94.52 106.022 94.4335C105.873 94.347 105.705 94.3011 105.533 94.3007H105.392V93.9839C106.378 93.9839 106.906 94.5823 106.941 95.7791H107.68V96.0959H107.645Z" fill="#A1A1A1"/>
<path d="M110.743 95.6279V96.096H107.504V95.7792H110.32V95.6032C110.32 94.8288 109.898 94.3712 109.159 94.3712C108.984 94.3575 108.809 94.393 108.653 94.474C108.498 94.5549 108.368 94.6778 108.279 94.8288L107.997 94.5472C108.141 94.3821 108.32 94.2518 108.521 94.1664C108.722 94.081 108.94 94.0427 109.159 94.0544C109.371 94.0358 109.584 94.0636 109.784 94.136C109.984 94.2083 110.165 94.3234 110.316 94.4732C110.467 94.6231 110.583 94.804 110.657 95.0034C110.731 95.2029 110.76 95.416 110.743 95.6279ZM109.472 96.8H109.12V96.4128H109.472V96.8Z" fill="#A1A1A1"/>
<path d="M115.847 96.0962H115.776C115.58 96.104 115.386 96.0459 115.227 95.9311C115.067 95.8162 114.951 95.6513 114.896 95.4626C114.879 95.8427 114.715 96.2014 114.44 96.4638C114.164 96.7261 113.798 96.8719 113.418 96.8706C113.21 96.862 113.005 96.8123 112.816 96.7244C112.627 96.6365 112.457 96.5121 112.317 96.3583C112.176 96.2046 112.067 96.0245 111.996 95.8285C111.926 95.6325 111.894 95.4244 111.904 95.2162V94.7234H112.221V95.1106C112.221 95.9554 112.679 96.5186 113.418 96.5186C113.714 96.5192 113.999 96.4065 114.215 96.2036C114.431 96.0008 114.561 95.7231 114.579 95.4274C114.579 95.005 114.368 94.7938 113.981 94.7938V94.5122H114.227C114.411 94.5388 114.583 94.6152 114.726 94.7332C114.869 94.8511 114.976 95.006 115.037 95.181C115.213 95.6386 115.354 95.7794 115.706 95.7794H115.811V96.0962H115.847Z" fill="#A1A1A1"/>
<path d="M118.804 96.0958H118.346C118.169 96.1072 117.992 96.0953 117.818 96.0606C117.622 96.0157 117.432 95.9447 117.255 95.8494C117.077 95.9447 116.888 96.0157 116.692 96.0606C116.518 96.0953 116.34 96.1072 116.164 96.0958H115.706V95.779H116.445C116.604 95.7816 116.761 95.7453 116.903 95.6734C116.702 95.5818 116.531 95.4354 116.41 95.251C116.299 95.0708 116.238 94.8642 116.234 94.6526C116.226 94.5301 116.244 94.4072 116.286 94.292C116.329 94.1768 116.395 94.0718 116.48 93.9838C116.573 93.8829 116.689 93.8049 116.817 93.756C116.945 93.7072 117.083 93.6887 117.22 93.7022C117.356 93.6968 117.491 93.7189 117.618 93.7673C117.745 93.8157 117.861 93.8894 117.959 93.9838C118.044 94.0718 118.111 94.1768 118.153 94.292C118.196 94.4072 118.213 94.5301 118.205 94.6526C118.196 94.8634 118.136 95.0688 118.029 95.251C117.918 95.4441 117.744 95.5932 117.536 95.6734C117.679 95.7416 117.836 95.7776 117.994 95.779H118.733V96.0958H118.804ZM117.255 95.4622C117.447 95.3738 117.616 95.2412 117.748 95.075C117.857 94.9336 117.919 94.761 117.924 94.5822C117.918 94.4141 117.856 94.2528 117.748 94.1246C117.686 94.058 117.608 94.0073 117.523 93.9767C117.437 93.9461 117.345 93.9364 117.255 93.9486C117.171 93.9451 117.087 93.9591 117.008 93.9897C116.93 94.0203 116.859 94.0669 116.799 94.1264C116.74 94.186 116.693 94.2572 116.662 94.3357C116.632 94.4141 116.618 94.498 116.621 94.5822C116.614 94.7574 116.663 94.9303 116.762 95.075C116.877 95.2543 117.052 95.3875 117.255 95.4516V95.4622ZM117.431 93.2798H117.114V92.8926H117.431V93.2798Z" fill="#A1A1A1"/>
<path d="M123.063 96.096H118.624V95.7792H119.046C119.328 95.7792 119.539 95.568 119.539 95.1808V93.984H119.856V95.2864C119.855 95.4415 119.832 95.5958 119.786 95.744V95.7792H120.384C120.666 95.7792 120.771 95.6383 120.771 95.1455V93.984H121.088V95.2864C121.095 95.4569 121.058 95.6263 120.982 95.7792H121.546C121.898 95.7792 122.003 95.6383 122.003 95.1455V93.984H122.32V95.2864C122.327 95.4569 122.29 95.6263 122.214 95.7792H122.954V96.096H123.063ZM120.88 93.6672H120.564V93.28H120.88V93.6672ZM121.162 93.1392H120.845V92.752H121.162V93.1392ZM121.479 93.6672H121.162V93.28H121.479V93.6672Z" fill="#A1A1A1"/>
<path d="M124.576 96.0958H122.957V95.779H123.239C123.313 95.7877 123.388 95.7759 123.457 95.7448C123.525 95.7138 123.583 95.6648 123.626 95.603C123.675 95.4555 123.699 95.3008 123.696 95.1454V93.9838H124.013V95.2862C124.02 95.4567 123.983 95.6261 123.907 95.779H124.506V96.0958H124.576ZM123.45 93.667H123.133V93.2798H123.45V93.667ZM124.083 93.667H123.767V93.2798H124.083V93.667Z" fill="#A1A1A1"/>
<path d="M128.906 96.0959H124.471V95.7791H124.893C125.175 95.7791 125.386 95.5679 125.386 95.1807V93.9839H125.703V95.2863C125.702 95.4415 125.678 95.5957 125.632 95.7439V95.7791H126.231C126.512 95.7791 126.618 95.6383 126.618 95.1455V93.9839H126.935V95.2863C126.941 95.4568 126.905 95.6262 126.829 95.7791H127.392C127.744 95.7791 127.85 95.6383 127.85 95.1455V93.9839H128.167V95.2863C128.173 95.4568 128.137 95.6262 128.061 95.7791H128.8V96.0959H128.906Z" fill="#A1A1A1"/>
<path d="M131.44 95.4521C131.451 95.5855 131.435 95.7198 131.393 95.8469C131.35 95.9739 131.283 96.091 131.194 96.1913C131.108 96.2937 131 96.3754 130.878 96.4303C130.756 96.4851 130.624 96.5117 130.49 96.5081C130.334 96.5149 130.178 96.4831 130.037 96.4156C129.896 96.3481 129.773 96.2469 129.68 96.1209H128.765V95.7689H129.536C129.507 95.6659 129.495 95.5589 129.501 95.4521C129.497 95.1682 129.597 94.8926 129.782 94.6777C129.87 94.58 129.98 94.5038 130.102 94.455C130.224 94.4062 130.355 94.386 130.486 94.3961C130.62 94.3924 130.753 94.419 130.875 94.4739C130.997 94.5287 131.105 94.6104 131.19 94.7129C131.28 94.8128 131.348 94.9298 131.391 95.0569C131.434 95.1839 131.451 95.3184 131.44 95.4521ZM131.053 95.4169C131.064 95.246 131.027 95.0755 130.948 94.9241C130.895 94.8533 130.826 94.7968 130.746 94.7599C130.666 94.723 130.578 94.7068 130.49 94.7129C130.393 94.705 130.296 94.7238 130.209 94.7672C130.122 94.8107 130.049 94.8771 129.997 94.9593C129.904 95.1198 129.856 95.3019 129.856 95.4873C129.856 95.6726 129.904 95.8547 129.997 96.0153C130.05 96.0861 130.119 96.1425 130.199 96.1794C130.279 96.2164 130.367 96.2325 130.455 96.2265C130.877 96.1913 131.053 95.9449 131.053 95.4169Z" fill="#A1A1A1"/>
<path d="M75.9651 98.5601V101.376H75.5779L74.1347 99.0881V101.376H73.7827V98.5601H74.1699L75.6483 100.848V98.5601H75.9651Z" fill="#A1A1A1"/>
<path d="M76.9858 100.098V101.049H78.6402V101.365H76.6338V98.5493H78.5698V98.8661H76.9858V99.7461H78.5346V100.063H76.9858V100.098Z" fill="#A1A1A1"/>
<path d="M81.7378 101.376H81.3506L80.717 99.0529L80.0834 101.376H79.6962L78.9922 98.5601H79.3794L79.9074 100.848L80.541 98.5601H80.9282L81.5618 100.848L82.0898 98.5601H82.477L81.7378 101.376Z" fill="#A1A1A1"/>
<path d="M84.4801 98.5601H84.8321V100.637C84.8381 100.74 84.8224 100.844 84.786 100.941C84.7497 101.038 84.6934 101.126 84.6209 101.2C84.4513 101.337 84.2402 101.411 84.0225 101.411C83.8048 101.411 83.5936 101.337 83.4241 101.2C83.3089 101.048 83.247 100.863 83.2481 100.672V100.461H83.6001V100.602C83.6001 100.954 83.7409 101.094 84.0225 101.094C84.0909 101.095 84.1584 101.079 84.2196 101.049C84.2808 101.018 84.3339 100.974 84.3745 100.918C84.4408 100.776 84.4652 100.617 84.4449 100.461V98.5601H84.4801Z" fill="#A1A1A1"/>
<path d="M85.8564 100.098V101.049H87.5108V101.365H85.5044V98.5493H87.4404V98.8661H85.8564V99.7461H87.4052V100.063H85.8564V100.098Z" fill="#A1A1A1"/>
<path d="M88.0737 101.376V98.5598H89.1649C89.3352 98.5515 89.5048 98.5857 89.6585 98.6595C89.8121 98.7332 89.945 98.8442 90.0449 98.9822C90.2419 99.2721 90.3406 99.6176 90.3265 99.9678C90.3513 100.363 90.2256 100.753 89.9745 101.059C89.8698 101.166 89.7434 101.25 89.6038 101.305C89.4643 101.359 89.3146 101.384 89.1649 101.376H88.0737ZM88.4257 101.059H89.0945C89.6577 101.059 89.9393 100.707 89.9393 99.9678C89.9393 99.2286 89.6577 98.8766 89.0945 98.8766H88.4257V101.059Z" fill="#A1A1A1"/>
<path d="M90.8545 101.376V98.5598H91.9457C92.1159 98.5515 92.2856 98.5857 92.4392 98.6595C92.5929 98.7332 92.7257 98.8442 92.8257 98.9822C93.0227 99.2721 93.1214 99.6176 93.1073 99.9678C93.1321 100.363 93.0063 100.753 92.7553 101.059C92.6506 101.166 92.5242 101.25 92.3846 101.305C92.245 101.359 92.0954 101.384 91.9457 101.376H90.8545ZM91.2065 101.059H91.8718C92.435 101.059 92.7166 100.707 92.7166 99.9678C92.7166 99.2286 92.435 98.8766 91.8718 98.8766H91.203L91.2065 101.059Z" fill="#A1A1A1"/>
<path d="M95.114 100.521H94.0228L93.7412 101.365H93.354L94.3396 98.5493H94.7972L95.7828 101.365H95.3921L95.114 100.521ZM95.0084 100.204L94.586 98.9365L94.1284 100.204H95.0084Z" fill="#A1A1A1"/>
<path d="M98.0003 100.098H96.5571V101.376H96.2051V98.5601H96.5571V99.7921H98.0003V98.5601H98.3523V101.376H98.0003V100.098Z" fill="#A1A1A1"/>
<path d="M101.943 99.4297H101.591C101.564 99.2709 101.491 99.1237 101.38 99.0072C101.217 98.8865 101.019 98.8245 100.816 98.8312C100.683 98.8228 100.551 98.8511 100.433 98.9132C100.315 98.9753 100.216 99.0688 100.148 99.1832C99.9951 99.4248 99.9213 99.7076 99.9364 99.9929C99.9203 100.3 100.021 100.602 100.218 100.838C100.301 100.92 100.4 100.985 100.509 101.027C100.618 101.07 100.735 101.089 100.852 101.084C100.985 101.095 101.119 101.068 101.237 101.005C101.356 100.943 101.454 100.848 101.52 100.732C101.594 100.601 101.641 100.458 101.661 100.31H102.048C101.978 101.049 101.591 101.401 100.887 101.401C100.563 101.415 100.247 101.302 100.007 101.084C99.8648 100.941 99.754 100.771 99.6813 100.583C99.6086 100.395 99.5756 100.194 99.5844 99.9929C99.5786 99.5838 99.7156 99.1855 99.9716 98.8664C100.083 98.7468 100.22 98.6532 100.372 98.5924C100.524 98.5315 100.688 98.5049 100.852 98.5144C100.984 98.5009 101.117 98.514 101.244 98.553C101.371 98.592 101.489 98.656 101.591 98.7414C101.692 98.8267 101.776 98.9316 101.837 99.0498C101.897 99.168 101.933 99.2972 101.943 99.4297Z" fill="#A1A1A1"/>
<path d="M102.823 98.5601V101.059H104.192V101.376H102.432V98.5601H102.823Z" fill="#A1A1A1"/>
<path d="M105.076 98.5601V101.376H104.724V98.5601H105.076Z" fill="#A1A1A1"/>
<path d="M107.891 98.5601V101.376H107.504L106.061 99.0881V101.376H105.709V98.5601H106.096L107.575 100.848V98.5601H107.891Z" fill="#A1A1A1"/>
<path d="M108.913 98.5601V101.376H108.561V98.5601H108.913Z" fill="#A1A1A1"/>
<path d="M111.799 99.4296H111.447C111.42 99.2708 111.347 99.1237 111.236 99.0072C111.073 98.8865 110.875 98.8245 110.672 98.8312C110.539 98.8227 110.406 98.8511 110.288 98.9132C110.17 98.9753 110.072 99.0687 110.004 99.1832C109.851 99.4247 109.777 99.7076 109.792 99.9928C109.776 100.3 109.877 100.602 110.074 100.838C110.157 100.92 110.256 100.985 110.365 101.027C110.474 101.069 110.591 101.089 110.708 101.084C110.841 101.095 110.975 101.068 111.093 101.005C111.212 100.943 111.31 100.848 111.376 100.732C111.45 100.601 111.497 100.458 111.517 100.31H111.904C111.834 101.049 111.447 101.401 110.743 101.401C110.419 101.415 110.103 101.302 109.863 101.084C109.721 100.941 109.61 100.771 109.537 100.583C109.465 100.395 109.432 100.194 109.44 99.9928C109.435 99.5838 109.572 99.1855 109.828 98.8664C109.939 98.7468 110.076 98.6532 110.228 98.5924C110.38 98.5315 110.544 98.5049 110.708 98.5144C110.84 98.4983 110.975 98.5096 111.103 98.5476C111.231 98.5856 111.349 98.6495 111.452 98.7353C111.554 98.8211 111.638 98.927 111.697 99.0464C111.757 99.1659 111.792 99.2963 111.799 99.4296Z" fill="#A1A1A1"/>
<path d="M114.896 100.098H113.453V101.376H113.101V98.5601H113.453V99.7921H114.896V98.5601H115.248V101.376H114.896V100.098Z" fill="#A1A1A1"/>
<path d="M117.044 98.514C117.238 98.5035 117.432 98.5395 117.61 98.6191C117.787 98.6987 117.943 98.8195 118.065 98.9716C118.283 99.2524 118.395 99.6016 118.381 99.9572C118.393 100.159 118.362 100.36 118.289 100.549C118.216 100.737 118.103 100.907 117.959 101.048C117.833 101.169 117.684 101.262 117.52 101.323C117.357 101.384 117.183 101.41 117.009 101.4C116.814 101.411 116.62 101.375 116.443 101.295C116.265 101.216 116.109 101.095 115.988 100.943C115.769 100.662 115.657 100.313 115.671 99.9572C115.659 99.7557 115.691 99.5539 115.763 99.3656C115.836 99.1774 115.949 99.007 116.093 98.866C116.351 98.6279 116.693 98.5014 117.044 98.514ZM117.044 98.8308C116.896 98.8253 116.749 98.8542 116.615 98.9153C116.481 98.9764 116.362 99.068 116.269 99.1828C116.095 99.4018 116.007 99.6775 116.023 99.9572C116.012 100.112 116.035 100.268 116.09 100.414C116.144 100.56 116.23 100.692 116.34 100.802C116.433 100.893 116.543 100.965 116.663 101.013C116.784 101.062 116.914 101.086 117.044 101.084C117.191 101.089 117.338 101.06 117.473 100.999C117.607 100.938 117.725 100.846 117.818 100.732C117.993 100.513 118.081 100.237 118.065 99.9572C118.075 99.8019 118.053 99.6461 117.998 99.5004C117.943 99.3547 117.858 99.2224 117.748 99.1124C117.66 99.0147 117.551 98.9385 117.428 98.8897C117.306 98.8409 117.175 98.8207 117.044 98.8308Z" fill="#A1A1A1"/>
<path d="M120.845 99.3588H120.493C120.493 99.0068 120.247 98.7956 119.789 98.7956C119.624 98.7824 119.46 98.8328 119.331 98.9364C119.276 98.977 119.232 99.0301 119.201 99.0913C119.17 99.1524 119.155 99.22 119.155 99.2884C119.154 99.3347 119.163 99.3806 119.181 99.4232C119.199 99.4657 119.227 99.5038 119.261 99.5348C119.366 99.615 119.486 99.6747 119.613 99.7108L120.282 99.8868C120.456 99.9043 120.617 99.9862 120.735 100.116C120.852 100.247 120.916 100.416 120.915 100.591C120.915 100.714 120.886 100.835 120.831 100.945C120.776 101.055 120.697 101.15 120.599 101.224C120.37 101.377 120.098 101.451 119.824 101.436C119.647 101.446 119.47 101.416 119.305 101.349C119.141 101.282 118.993 101.18 118.874 101.048C118.753 100.886 118.691 100.687 118.698 100.485H119.05C119.044 100.573 119.06 100.661 119.097 100.741C119.134 100.821 119.19 100.89 119.261 100.943C119.437 101.063 119.646 101.125 119.859 101.119C120.041 101.129 120.223 101.093 120.387 101.013C120.454 100.973 120.508 100.916 120.545 100.848C120.582 100.78 120.601 100.703 120.599 100.626C120.599 100.415 120.423 100.274 120.071 100.168L119.367 99.9924C119.015 99.8868 118.803 99.6756 118.803 99.3588C118.8 99.2353 118.827 99.1129 118.883 99.0024C118.938 98.892 119.019 98.7967 119.12 98.7252C119.328 98.5892 119.576 98.5272 119.824 98.5492C119.989 98.5292 120.155 98.551 120.309 98.6125C120.463 98.674 120.599 98.7733 120.704 98.9012C120.803 99.0326 120.853 99.1945 120.845 99.3588Z" fill="#A1A1A1"/>
<path d="M121.831 100.168V101.376H121.479V98.5598H122.64C122.756 98.5466 122.873 98.559 122.983 98.5963C123.094 98.6335 123.195 98.6947 123.279 98.7754C123.363 98.856 123.428 98.9543 123.47 99.063C123.511 99.1718 123.529 99.2884 123.52 99.4046C123.528 99.5166 123.51 99.629 123.467 99.7328C123.425 99.8367 123.358 99.9292 123.274 100.003C123.2 100.076 123.111 100.132 123.014 100.168C122.917 100.205 122.814 100.22 122.711 100.214H121.831V100.168ZM121.831 99.8517H122.57C122.641 99.8616 122.713 99.8539 122.781 99.8294C122.848 99.8049 122.909 99.7642 122.957 99.7109C123.047 99.616 123.098 99.4899 123.098 99.3589C123.098 99.2278 123.047 99.1018 122.957 99.0069C122.844 98.9242 122.71 98.8754 122.57 98.8661H121.831V99.8517Z" fill="#A1A1A1"/>
<path d="M124.435 98.5601V101.376H124.083V98.5601H124.435Z" fill="#A1A1A1"/>
<path d="M126.125 98.8663V101.376H125.773V98.8769H124.858V98.5601H127.072V98.8769L126.125 98.8663Z" fill="#A1A1A1"/>
<path d="M128.976 100.521H127.885L127.604 101.365H127.216L128.202 98.5493H128.66L129.645 101.365H129.258L128.976 100.521ZM128.871 100.204L128.448 98.9365L127.991 100.204H128.871Z" fill="#A1A1A1"/>
<path d="M130.384 98.5601V101.059H131.757V101.376H129.997V98.5601H130.384Z" fill="#A1A1A1"/>
</svg>
