<svg width="176" height="176" viewBox="0 0 176 176" fill="none" xmlns="http://www.w3.org/2000/svg">
<path d="M87.9649 67.2707C88.0746 67.2474 88.1882 67.2507 88.2964 67.2802C88.4045 67.3097 88.504 67.3647 88.5867 67.4404C88.6693 67.5162 88.7327 67.6106 88.7715 67.7157C88.8103 67.8209 88.8234 67.9338 88.8097 68.0451C88.8001 68.1585 88.7645 68.2681 88.7055 68.3654C88.6466 68.4628 88.566 68.5452 88.4699 68.6063C88.3739 68.6674 88.2651 68.7054 88.152 68.7176C88.0388 68.7297 87.9244 68.7155 87.8176 68.6762C87.7109 68.6369 87.6146 68.5734 87.5364 68.4908C87.4582 68.4081 87.4001 68.3086 87.3666 68.1998C87.3332 68.091 87.3253 67.976 87.3436 67.8637C87.3619 67.7514 87.4059 67.6448 87.4721 67.5523C87.6005 67.4061 87.7739 67.307 87.9649 67.2707Z" fill="#A1A1A1"/>
<path d="M94.512 68.4325C94.6346 68.4227 94.7576 68.444 94.8697 68.4946C94.9819 68.5451 95.0793 68.6232 95.1531 68.7216C95.2269 68.82 95.2746 68.9355 95.2918 69.0573C95.3089 69.179 95.2949 69.3032 95.2512 69.4181C95.1104 69.9813 94.2656 70.0517 93.9488 69.5941C93.8789 69.485 93.8381 69.3599 93.8304 69.2305C93.8228 69.1012 93.8484 68.9721 93.9049 68.8555C93.9614 68.7389 94.0469 68.6388 94.1532 68.5648C94.2595 68.4907 94.383 68.4452 94.512 68.4325Z" fill="#A1A1A1"/>
<path d="M80.8542 68.5025C80.9663 68.4602 81.087 68.4462 81.2058 68.4617C81.3245 68.4772 81.4376 68.5217 81.5351 68.5913C81.6325 68.6609 81.7113 68.7534 81.7645 68.8608C81.8176 68.9681 81.8435 69.0868 81.8398 69.2065C81.8379 69.3224 81.8074 69.4361 81.7511 69.5373C81.6947 69.6386 81.6141 69.7244 81.5166 69.7871C81.4191 69.8498 81.3076 69.8874 81.1921 69.8967C81.0765 69.9059 80.9605 69.8865 80.8542 69.8401C80.7594 69.8014 80.6736 69.7436 80.6021 69.6702C80.5306 69.5969 80.475 69.5097 80.4386 69.4139C80.4023 69.3182 80.3861 69.216 80.391 69.1137C80.3959 69.0114 80.4218 68.9112 80.467 68.8193C80.5043 68.7413 80.5583 68.6724 80.6253 68.6177C80.6922 68.5629 80.7704 68.5236 80.8542 68.5025Z" fill="#A1A1A1"/>
<path d="M87.7184 69.9105C87.9802 69.8329 88.2616 69.8546 88.5084 69.9715C88.7552 70.0884 88.9502 70.2923 89.056 70.5441C89.1468 70.8056 89.1312 71.0923 89.0127 71.3425C88.8942 71.5927 88.6822 71.7863 88.4224 71.8817C88.2861 71.9308 88.1414 71.9524 87.9967 71.9453C87.8519 71.9383 87.71 71.9026 87.5792 71.8404C87.4483 71.7783 87.331 71.6908 87.2341 71.5831C87.1371 71.4754 87.0625 71.3496 87.0144 71.2129C86.9729 71.0812 86.9583 70.9426 86.9715 70.8051C86.9846 70.6677 87.0252 70.5343 87.0909 70.4128C87.1565 70.2913 87.2459 70.1843 87.3537 70.098C87.4615 70.0117 87.5855 69.948 87.7184 69.9105Z" fill="#A1A1A1"/>
<path d="M81.9102 70.8962C82.1801 70.8423 82.4603 70.8921 82.6952 71.0356C82.93 71.1791 83.1022 71.4058 83.1774 71.6706C83.2136 71.8197 83.2168 71.9749 83.1869 72.1255C83.157 72.276 83.0947 72.4182 83.0042 72.5422C82.9137 72.6661 82.7973 72.7689 82.6631 72.8433C82.5289 72.9177 82.38 72.9619 82.227 72.973C81.9739 72.9923 81.7222 72.9217 81.5161 72.7736C81.31 72.6255 81.1628 72.4094 81.1006 72.1634C81.0695 72.0269 81.0659 71.8857 81.0899 71.7479C81.1139 71.61 81.165 71.4783 81.2403 71.3604C81.3157 71.2425 81.4137 71.1408 81.5287 71.0611C81.6436 70.9814 81.7733 70.9253 81.9102 70.8962Z" fill="#A1A1A1"/>
<path d="M93.245 70.8961C93.386 70.8609 93.5326 70.8539 93.6763 70.8756C93.82 70.8973 93.958 70.9472 94.0823 71.0225C94.2067 71.0977 94.3149 71.1968 94.4007 71.3141C94.4866 71.4313 94.5484 71.5644 94.5826 71.7057C94.6219 71.9064 94.6019 72.1142 94.5253 72.3038C94.4487 72.4935 94.3186 72.6568 94.151 72.7739C93.9833 72.891 93.7852 72.9569 93.5808 72.9636C93.3764 72.9703 93.1744 72.9175 92.9994 72.8116C92.8245 72.7057 92.684 72.5513 92.5951 72.3671C92.5063 72.1828 92.4728 71.9768 92.4988 71.7739C92.5248 71.571 92.6092 71.3801 92.7416 71.2243C92.8741 71.0684 93.049 70.9544 93.245 70.8961Z" fill="#A1A1A1"/>
<path d="M75.0466 71.8469C75.1476 71.8148 75.2543 71.8053 75.3593 71.8191C75.4644 71.8329 75.565 71.8697 75.6543 71.9268C75.7435 71.9839 75.819 72.0599 75.8756 72.1495C75.9321 72.2391 75.9682 72.34 75.9813 72.4451C75.9945 72.5502 75.9843 72.6569 75.9516 72.7576C75.9188 72.8584 75.8643 72.9506 75.7919 73.0279C75.7195 73.1052 75.6309 73.1656 75.5326 73.2049C75.4342 73.2441 75.3284 73.2612 75.2226 73.2549C75.1172 73.2418 75.0156 73.2073 74.9241 73.1535C74.8326 73.0997 74.753 73.0277 74.6904 72.9419C74.6277 72.8562 74.5833 72.7585 74.5598 72.6549C74.5363 72.5514 74.5343 72.4441 74.5538 72.3397C74.5907 72.2242 74.6547 72.1193 74.7404 72.0335C74.8262 71.9478 74.9311 71.8838 75.0466 71.8469Z" fill="#A1A1A1"/>
<path d="M100.179 71.8467C100.283 71.8102 100.394 71.7973 100.504 71.8087C100.614 71.8202 100.719 71.8558 100.813 71.913C100.908 71.9703 100.988 72.0477 101.049 72.1397C101.11 72.2317 101.149 72.336 101.165 72.4451C101.178 72.5485 101.168 72.6534 101.136 72.7527C101.105 72.8519 101.052 72.9431 100.982 73.02C100.911 73.097 100.825 73.1578 100.729 73.1983C100.633 73.2388 100.53 73.258 100.426 73.2547C100.237 73.2492 100.058 73.1743 99.9213 73.0443C99.7848 72.9144 99.7012 72.7386 99.6865 72.5507C99.6935 72.3987 99.7435 72.2518 99.8308 72.1272C99.918 72.0026 100.039 71.9053 100.179 71.8467Z" fill="#A1A1A1"/>
<path d="M87.648 73.149C87.9097 73.0817 88.1847 73.0853 88.4445 73.1596C88.7044 73.2338 88.9397 73.376 89.1264 73.5714C89.3475 73.8008 89.4931 74.0925 89.5434 74.4072C89.5938 74.7219 89.5465 75.0444 89.408 75.3314C89.2828 75.5804 89.0921 75.7906 88.8564 75.9394C88.6208 76.0883 88.349 76.1701 88.0704 76.1762C87.8158 76.1763 87.5648 76.1156 87.3383 75.9993C87.1118 75.883 86.9163 75.7144 86.768 75.5074C86.6145 75.2885 86.5236 75.0319 86.505 74.7653C86.4864 74.4986 86.5408 74.2319 86.6624 73.9938C86.7468 73.7842 86.8805 73.5981 87.052 73.451C87.2236 73.304 87.428 73.2004 87.648 73.149Z" fill="#A1A1A1"/>
<path d="M76.9473 73.7474C77.0995 73.7163 77.2568 73.7192 77.4078 73.7559C77.5589 73.7926 77.7 73.8622 77.821 73.9597C77.942 74.0572 78.0401 74.1802 78.1081 74.32C78.1761 74.4598 78.2124 74.6128 78.2144 74.7682C78.2171 74.9686 78.1626 75.1656 78.0575 75.3362C77.9523 75.5068 77.8008 75.6439 77.6206 75.7316C77.4404 75.8193 77.239 75.8539 77.0399 75.8314C76.8407 75.8089 76.6521 75.7302 76.4961 75.6044C76.34 75.4787 76.223 75.3112 76.1586 75.1214C76.0942 74.9317 76.0851 74.7275 76.1324 74.5328C76.1797 74.338 76.2814 74.1608 76.4257 74.0217C76.57 73.8827 76.7509 73.7875 76.9473 73.7474Z" fill="#A1A1A1"/>
<path d="M98.2079 73.7474C98.3615 73.6988 98.5243 73.686 98.6836 73.71C98.843 73.7341 98.9948 73.7943 99.1273 73.886C99.2598 73.9777 99.3695 74.0986 99.4481 74.2393C99.5267 74.38 99.572 74.5368 99.5807 74.6978C99.5865 74.8487 99.5598 74.9992 99.5025 75.1389C99.4452 75.2787 99.3586 75.4046 99.2485 75.508C99.1384 75.6114 99.0073 75.69 98.8643 75.7385C98.7212 75.787 98.5694 75.8042 98.4191 75.789C98.1714 75.7766 97.9364 75.6759 97.7565 75.5053C97.5766 75.3347 97.4636 75.1053 97.4381 74.8587C97.4126 74.6121 97.4762 74.3645 97.6174 74.1606C97.7586 73.9568 97.968 73.8102 98.2079 73.7474Z" fill="#A1A1A1"/>
<path d="M83.213 73.8885C83.5208 73.8374 83.8368 73.8807 84.1196 74.0126C84.4023 74.1446 84.6384 74.359 84.797 74.6277C84.9363 74.8748 85.0091 75.1537 85.0082 75.4373C84.9969 75.7058 84.9164 75.9668 84.7746 76.1949C84.6327 76.4231 84.4343 76.6108 84.1986 76.7397C83.9774 76.8611 83.7293 76.9248 83.477 76.9248C83.2247 76.9248 82.9765 76.8611 82.7554 76.7397C82.4325 76.5512 82.1747 76.2688 82.0162 75.9301C81.8976 75.5473 81.9226 75.1343 82.0866 74.7685C82.1787 74.5347 82.3317 74.3297 82.5298 74.175C82.7279 74.0202 82.9638 73.9213 83.213 73.8885Z" fill="#A1A1A1"/>
<path d="M92.2592 73.8882C92.6625 73.8897 93.0511 74.0401 93.3504 74.3106C93.5396 74.4797 93.6814 74.6954 93.7616 74.9362C93.8419 75.177 93.8579 75.4345 93.808 75.6834C93.7368 75.9666 93.6047 76.2309 93.4208 76.4578C93.0901 76.7765 92.648 76.9533 92.1888 76.9506C91.9126 76.9346 91.6459 76.8444 91.4167 76.6895C91.1875 76.5346 91.0043 76.3208 90.8864 76.0706C90.7224 75.7048 90.6974 75.2919 90.816 74.909C90.931 74.6168 91.1288 74.3645 91.3852 74.1831C91.6416 74.0018 91.9454 73.8993 92.2592 73.8882Z" fill="#A1A1A1"/>
<path d="M79.4816 76.0706C79.7289 76.0426 79.9793 76.0798 80.2078 76.1786C80.4363 76.2774 80.635 76.4344 80.784 76.6338C81.0293 76.9214 81.1582 77.2904 81.1451 77.6682C81.1321 78.0461 80.9782 78.4053 80.7136 78.6754C80.5646 78.8253 80.3863 78.943 80.1899 79.0211C79.9935 79.0992 79.7831 79.1362 79.5719 79.1296C79.3606 79.123 79.153 79.073 78.9618 78.9827C78.7707 78.8925 78.6001 78.7639 78.4608 78.605C78.2971 78.4 78.1859 78.1583 78.1369 77.9007C78.0878 77.643 78.1023 77.3773 78.1792 77.1266C78.2689 76.8423 78.4401 76.5906 78.6717 76.4028C78.9032 76.2151 79.1849 76.0996 79.4816 76.0706Z" fill="#A1A1A1"/>
<path d="M95.7792 76.1412C96.0222 76.0873 96.2748 76.0945 96.5143 76.162C96.7539 76.2296 96.973 76.3555 97.152 76.5284C97.3708 76.729 97.527 76.9885 97.602 77.2757C97.6769 77.5629 97.6673 77.8657 97.5744 78.1476C97.504 78.4292 97.2576 78.6052 97.0816 78.8164C96.762 79.0679 96.3611 79.1932 95.9552 79.1684C95.651 79.1341 95.3631 79.013 95.126 78.8195C94.8888 78.626 94.7123 78.3683 94.6176 78.0772C94.5577 77.8306 94.5518 77.5739 94.6004 77.3248C94.6491 77.0757 94.751 76.84 94.8992 76.634C95.146 76.3977 95.4488 76.2281 95.7792 76.1412Z" fill="#A1A1A1"/>
<path d="M104.509 77.0213C104.627 76.9788 104.753 76.967 104.877 76.987C105.001 77.007 105.118 77.0581 105.216 77.1355C105.315 77.2129 105.392 77.3141 105.441 77.4296C105.489 77.5451 105.508 77.6711 105.494 77.7957C105.476 77.901 105.436 78.0014 105.378 78.0908C105.32 78.1803 105.244 78.257 105.155 78.3163C105.066 78.3755 104.966 78.4161 104.861 78.4355C104.756 78.455 104.648 78.4529 104.544 78.4293C104.442 78.3999 104.347 78.3485 104.266 78.2787C104.186 78.2089 104.122 78.1224 104.078 78.0252C104.035 77.928 104.013 77.8224 104.014 77.7159C104.016 77.6094 104.04 77.5045 104.086 77.4085C104.123 77.3163 104.18 77.2336 104.253 77.1666C104.326 77.0995 104.414 77.0499 104.509 77.0213Z" fill="#A1A1A1"/>
<path d="M70.6815 77.0562C70.8683 76.9947 71.0717 77.008 71.2489 77.0933C71.4261 77.1787 71.5634 77.3294 71.6319 77.5138C71.6605 77.6062 71.6704 77.7034 71.661 77.7997C71.6517 77.896 71.6232 77.9895 71.5774 78.0747C71.5315 78.1599 71.4691 78.2351 71.3939 78.2959C71.3186 78.3567 71.232 78.402 71.1391 78.429C71.0443 78.46 70.9444 78.4718 70.845 78.4638C70.7457 78.4558 70.6489 78.428 70.5604 78.3821C70.4719 78.3362 70.3934 78.2731 70.3296 78.1966C70.2658 78.12 70.2179 78.0315 70.1887 77.9362C70.162 77.846 70.1536 77.7515 70.164 77.658C70.1745 77.5646 70.2035 77.4742 70.2494 77.3922C70.2954 77.3102 70.3572 77.2382 70.4315 77.1805C70.5057 77.1227 70.5907 77.0805 70.6815 77.0562Z" fill="#A1A1A1"/>
<path d="M101.975 78.1124C102.148 78.0793 102.328 78.0904 102.496 78.1446C102.664 78.1989 102.816 78.2946 102.938 78.4229C103.06 78.5512 103.147 78.708 103.193 78.879C103.238 79.0499 103.24 79.2295 103.198 79.4013C103.155 79.5731 103.071 79.7315 102.952 79.8621C102.832 79.9927 102.682 80.0912 102.515 80.1486C102.347 80.206 102.168 80.2205 101.994 80.1906C101.82 80.1608 101.656 80.0877 101.517 79.978C101.324 79.8288 101.19 79.6164 101.139 79.3781C101.087 79.1399 101.121 78.8911 101.235 78.6756C101.299 78.5253 101.4 78.3942 101.53 78.2954C101.659 78.1966 101.813 78.1335 101.975 78.1124Z" fill="#A1A1A1"/>
<path d="M73.2512 78.1439C73.4035 78.1128 73.5608 78.1157 73.7118 78.1524C73.8628 78.1891 74.0039 78.2587 74.1249 78.3562C74.246 78.4537 74.344 78.5767 74.412 78.7165C74.48 78.8562 74.5164 79.0093 74.5184 79.1647C74.5231 79.2988 74.5013 79.4325 74.4543 79.5581C74.4073 79.6838 74.336 79.7989 74.2445 79.897C74.1529 79.9951 74.043 80.0742 73.9209 80.1297C73.7987 80.1852 73.6669 80.2162 73.5328 80.2207C73.2753 80.2235 73.0257 80.1321 72.8309 79.9638C72.6361 79.7955 72.5095 79.5618 72.4749 79.3067C72.4403 79.0515 72.5001 78.7926 72.6431 78.5784C72.786 78.3643 73.0023 78.2098 73.2512 78.1439Z" fill="#A1A1A1"/>
<path d="M76.419 79.5202C76.6086 79.4693 76.8068 79.4587 77.0008 79.489C77.1948 79.5194 77.3803 79.5899 77.5454 79.6962C77.7529 79.8111 77.9309 79.9727 78.0652 80.1681C78.1996 80.3636 78.2868 80.5876 78.3198 80.8226C78.3535 81.1053 78.305 81.3918 78.1802 81.6478C78.0553 81.9037 77.8594 82.1183 77.6158 82.2658C77.3743 82.4148 77.0988 82.4995 76.8153 82.5118C76.5319 82.5241 76.25 82.4636 75.9966 82.3362C75.7712 82.1929 75.5854 81.9954 75.4563 81.7617C75.3271 81.528 75.2587 81.2656 75.2574 80.9986C75.2348 80.6523 75.3409 80.3099 75.5553 80.0371C75.7696 79.7642 76.0772 79.5801 76.419 79.5202Z" fill="#A1A1A1"/>
<path d="M98.701 79.485C99.0783 79.4104 99.4699 79.4862 99.7922 79.6962C100.053 79.8591 100.258 80.0987 100.378 80.3822C100.497 80.6658 100.526 80.9795 100.461 81.2802C100.435 81.4587 100.372 81.6295 100.275 81.7814C100.178 81.9332 100.049 82.0624 99.8978 82.1602C99.6931 82.3007 99.4673 82.4077 99.229 82.477C98.9748 82.5295 98.7113 82.5148 98.4644 82.4346C98.2175 82.3544 97.9958 82.2113 97.821 82.0194C97.6675 81.8571 97.5516 81.6629 97.4817 81.4507C97.4118 81.2385 97.3894 81.0135 97.4163 80.7917C97.4432 80.5699 97.5186 80.3568 97.6372 80.1674C97.7559 79.9781 97.9147 79.8172 98.1026 79.6962C98.294 79.6048 98.4946 79.534 98.701 79.485Z" fill="#A1A1A1"/>
<path d="M76.4897 93.4946C76.7778 93.4475 77.0732 93.4782 77.3454 93.5834C77.6177 93.6886 77.8569 93.8645 78.0385 94.093C78.2597 94.4027 78.3571 94.7838 78.3115 95.1616C78.2659 95.5394 78.0806 95.8865 77.7921 96.1346C77.572 96.3007 77.3205 96.4204 77.0529 96.4866C76.7683 96.5368 76.4753 96.5049 76.2082 96.3946C75.9411 96.2843 75.711 96.1001 75.5448 95.8637C75.3786 95.6273 75.2832 95.3485 75.2697 95.0598C75.2563 94.7712 75.3254 94.4846 75.4689 94.2338C75.5916 94.034 75.7462 93.8557 75.9265 93.7058C76.0974 93.5967 76.2892 93.5248 76.4897 93.4946Z" fill="#A1A1A1"/>
<path d="M98.6304 93.4948C99.0078 93.4202 99.3994 93.496 99.7216 93.706C99.9111 93.8191 100.074 93.9719 100.198 94.154C100.323 94.3361 100.407 94.543 100.444 94.7606C100.48 94.9782 100.469 95.2011 100.412 95.4141C100.354 95.627 100.251 95.8249 100.109 95.994C99.8636 96.2595 99.5382 96.4377 99.1824 96.5012C98.8265 96.5647 98.4596 96.5102 98.1376 96.346C97.9207 96.1941 97.7413 95.9946 97.6132 95.7628C97.4851 95.5309 97.4116 95.2729 97.3984 95.0084C97.3977 94.6527 97.5199 94.3077 97.7445 94.0319C97.969 93.756 98.282 93.5663 98.6304 93.4948Z" fill="#A1A1A1"/>
<path d="M73.3919 95.7826C73.6032 95.7685 73.8138 95.8182 73.9965 95.9254C74.1791 96.0325 74.3254 96.1921 74.4162 96.3833C74.507 96.5746 74.5382 96.7888 74.5058 96.9981C74.4734 97.2073 74.3788 97.402 74.2343 97.5568C74.0898 97.7116 73.9021 97.8194 73.6956 97.8662C73.489 97.913 73.2732 97.8966 73.0761 97.8191C72.879 97.7417 72.7098 97.6068 72.5903 97.432C72.4709 97.2571 72.4067 97.0504 72.4063 96.8386C72.3977 96.5681 72.4966 96.3052 72.6812 96.1073C72.8659 95.9095 73.1214 95.7927 73.3919 95.7826Z" fill="#A1A1A1"/>
<path d="M102.15 95.818C102.362 95.811 102.571 95.8679 102.75 95.9812C102.929 96.0945 103.07 96.259 103.154 96.4533C103.238 96.6477 103.262 96.8628 103.222 97.0709C103.183 97.279 103.081 97.4703 102.932 97.6201C102.782 97.7699 102.59 97.8711 102.382 97.9108C102.174 97.9504 101.959 97.9265 101.765 97.8422C101.571 97.758 101.406 97.6172 101.293 97.4383C101.179 97.2593 101.123 97.0504 101.129 96.8387C101.138 96.5708 101.249 96.3162 101.438 96.1267C101.628 95.9371 101.882 95.8267 102.15 95.818Z" fill="#A1A1A1"/>
<path d="M95.8494 96.8738C96.0655 96.8379 96.2867 96.8476 96.4989 96.9021C96.711 96.9567 96.9094 97.0549 97.0814 97.1906C97.2869 97.38 97.4541 97.607 97.5742 97.8594C97.6619 98.1204 97.6776 98.4002 97.6196 98.6694C97.5616 98.9386 97.4322 99.1871 97.2448 99.3889C97.0574 99.5907 96.8191 99.7382 96.555 99.8159C96.2908 99.8937 96.0106 99.8987 95.7438 99.8306C95.429 99.7495 95.1389 99.5924 94.899 99.373C94.7522 99.1727 94.6484 98.9443 94.5938 98.702C94.5393 98.4597 94.5354 98.2088 94.5822 97.965C94.6738 97.6848 94.8403 97.435 95.0637 97.2427C95.287 97.0503 95.5587 96.9228 95.8494 96.8738Z" fill="#A1A1A1"/>
<path d="M79.2351 96.9093C79.4969 96.8419 79.7718 96.8456 80.0316 96.9198C80.2915 96.9941 80.5269 97.1362 80.7135 97.3317C80.9808 97.6021 81.1336 97.9652 81.1402 98.3454C81.1468 98.7256 81.0066 99.0937 80.7487 99.3733C80.604 99.5391 80.4255 99.672 80.2251 99.7631C80.0248 99.8541 79.8072 99.9013 79.5871 99.9013C79.367 99.9013 79.1495 99.8541 78.9491 99.7631C78.7488 99.672 78.5702 99.5391 78.4255 99.3733C78.1916 99.0826 78.067 98.7191 78.0735 98.3461C78.0799 97.9731 78.2169 97.6141 78.4607 97.3317C78.6904 97.144 78.953 97.0007 79.2351 96.9093Z" fill="#A1A1A1"/>
<path d="M70.7874 97.5427C70.9022 97.5262 71.0192 97.5367 71.1292 97.5734C71.2392 97.61 71.3392 97.6717 71.4212 97.7537C71.5032 97.8357 71.565 97.9357 71.6016 98.0457C71.6382 98.1557 71.6487 98.2728 71.6322 98.3876C71.6166 98.4876 71.5803 98.5832 71.5257 98.6685C71.4711 98.7537 71.3993 98.8266 71.315 98.8826C71.2306 98.9385 71.1355 98.9763 71.0357 98.9934C70.936 99.0106 70.8337 99.0068 70.7355 98.9822C70.6373 98.9577 70.5453 98.9129 70.4653 98.8508C70.3854 98.7888 70.3192 98.7107 70.2711 98.6216C70.223 98.5326 70.194 98.4344 70.1859 98.3335C70.1778 98.2326 70.1909 98.1311 70.2242 98.0356C70.2651 97.9103 70.3389 97.7985 70.4381 97.7117C70.5372 97.625 70.6579 97.5666 70.7874 97.5427Z" fill="#A1A1A1"/>
<path d="M104.614 97.613C104.786 97.5796 104.965 97.6116 105.114 97.7027C105.264 97.7939 105.374 97.9376 105.424 98.1058C105.455 98.2005 105.467 98.3005 105.459 98.3998C105.451 98.4992 105.423 98.596 105.377 98.6845C105.331 98.773 105.268 98.8514 105.191 98.9152C105.115 98.9791 105.026 99.027 104.931 99.0562C104.749 99.105 104.555 99.0855 104.386 99.0011C104.218 98.9168 104.086 98.7736 104.016 98.5986C103.986 98.4945 103.978 98.3853 103.992 98.278C104.007 98.1707 104.043 98.0675 104.099 97.9749C104.156 97.8823 104.23 97.8024 104.319 97.7401C104.407 97.6778 104.508 97.6345 104.614 97.613Z" fill="#A1A1A1"/>
<path d="M83.1423 99.1269C83.4129 99.0623 83.6962 99.0734 83.961 99.1589C84.2258 99.2445 84.462 99.4012 84.6437 99.612C84.8255 99.8228 84.9457 100.079 84.9913 100.354C85.0369 100.629 85.0061 100.91 84.9023 101.169C84.6559 102.049 83.4943 102.401 82.7199 101.978C82.397 101.786 82.1506 101.489 82.0222 101.136C81.8939 100.783 81.8917 100.397 82.0159 100.042C82.1164 99.8104 82.2712 99.6062 82.4672 99.4469C82.6633 99.2876 82.8948 99.1779 83.1423 99.1269Z" fill="#A1A1A1"/>
<path d="M91.8368 99.1269C92.1666 99.0283 92.52 99.0442 92.8396 99.172C93.1592 99.2998 93.4261 99.5321 93.5968 99.8309C93.6672 100.007 93.7376 100.183 93.808 100.394C93.8408 100.637 93.8166 100.885 93.7371 101.117C93.6577 101.349 93.5253 101.56 93.3504 101.732C93.1343 101.926 92.8696 102.058 92.5846 102.113C92.2995 102.169 92.0046 102.147 91.7312 102.048C91.325 101.883 90.9975 101.568 90.816 101.168C90.6987 100.774 90.7236 100.35 90.8864 99.9717C90.9739 99.7702 91.1042 99.5903 91.2684 99.4444C91.4325 99.2985 91.6265 99.1901 91.8368 99.1269Z" fill="#A1A1A1"/>
<path d="M87.824 99.866C88.218 99.8224 88.6141 99.9285 88.9335 100.163C89.253 100.398 89.4726 100.744 89.5488 101.133C89.6069 101.488 89.5398 101.852 89.3591 102.162C89.1784 102.473 88.8953 102.711 88.5583 102.836C88.2213 102.961 87.8513 102.965 87.5119 102.847C87.1724 102.729 86.8845 102.496 86.6976 102.189C86.5742 101.977 86.5034 101.739 86.4912 101.494C86.4789 101.249 86.5256 101.004 86.6272 100.781C86.725 100.535 86.8881 100.319 87.0989 100.158C87.3097 99.9967 87.5603 99.8958 87.824 99.866Z" fill="#A1A1A1"/>
<path d="M76.8418 100.218C76.9876 100.174 77.1411 100.161 77.2922 100.181C77.4433 100.2 77.5885 100.252 77.7182 100.332C77.8479 100.411 77.9593 100.518 78.0448 100.644C78.1304 100.77 78.1883 100.913 78.2146 101.063C78.2344 101.21 78.223 101.36 78.1811 101.502C78.1393 101.644 78.0678 101.776 77.9715 101.889C77.8752 102.002 77.7561 102.094 77.6221 102.157C77.4881 102.221 77.3422 102.256 77.1938 102.26C76.9494 102.254 76.7147 102.163 76.5298 102.003C76.3448 101.843 76.221 101.624 76.1794 101.383C76.1379 101.142 76.1812 100.895 76.302 100.682C76.4228 100.47 76.6136 100.306 76.8418 100.218Z" fill="#A1A1A1"/>
<path d="M98.2431 100.218C98.3925 100.178 98.549 100.172 98.701 100.2C98.8531 100.228 98.9969 100.29 99.1219 100.382C99.2468 100.473 99.3497 100.591 99.423 100.727C99.4964 100.863 99.5382 101.014 99.5455 101.169C99.5483 101.314 99.5223 101.459 99.4689 101.595C99.4155 101.73 99.3357 101.854 99.2343 101.959C99.1329 102.063 99.0118 102.147 98.8779 102.205C98.744 102.262 98.6001 102.293 98.4543 102.295C98.3125 102.29 98.1731 102.258 98.0443 102.198C97.9154 102.139 97.8 102.054 97.7047 101.949C97.6094 101.843 97.5363 101.72 97.4897 101.586C97.4431 101.452 97.424 101.31 97.4335 101.169C97.4551 100.946 97.5442 100.736 97.689 100.566C97.8338 100.396 98.0272 100.275 98.2431 100.218Z" fill="#A1A1A1"/>
<path d="M75.117 102.717C75.2167 102.697 75.3194 102.699 75.4187 102.72C75.518 102.742 75.6119 102.784 75.6944 102.843C75.7768 102.903 75.8463 102.978 75.8983 103.066C75.9504 103.153 75.984 103.25 75.997 103.351C76.025 103.547 75.974 103.746 75.8551 103.904C75.7363 104.063 75.5594 104.167 75.3634 104.196C75.1673 104.224 74.9682 104.172 74.8098 104.054C74.6513 103.935 74.5466 103.758 74.5186 103.562C74.4996 103.373 74.5497 103.183 74.6597 103.028C74.7697 102.872 74.9321 102.762 75.117 102.717Z" fill="#A1A1A1"/>
<path d="M100.355 102.717C100.458 102.71 100.562 102.724 100.659 102.759C100.757 102.794 100.845 102.849 100.92 102.921C100.995 102.992 101.054 103.078 101.094 103.174C101.133 103.27 101.153 103.372 101.15 103.476C101.148 103.579 101.124 103.681 101.079 103.774C101.035 103.868 100.972 103.951 100.894 104.019C100.816 104.087 100.725 104.138 100.626 104.168C100.527 104.198 100.423 104.208 100.32 104.196C100.132 104.173 99.9594 104.081 99.8358 103.938C99.7121 103.795 99.6463 103.61 99.6511 103.421C99.6868 103.248 99.7724 103.089 99.8976 102.964C100.023 102.838 100.182 102.753 100.355 102.717Z" fill="#A1A1A1"/>
<path d="M82.0862 103.034C82.3443 103.022 82.5978 103.105 82.7989 103.267C83 103.429 83.1347 103.659 83.1774 103.914C83.189 104.053 83.1731 104.192 83.1307 104.325C83.0883 104.457 83.0202 104.58 82.9304 104.686C82.8405 104.793 82.7305 104.88 82.6068 104.944C82.4831 105.008 82.3481 105.046 82.2094 105.058C82.0708 105.069 81.9312 105.054 81.7986 105.011C81.6661 104.969 81.5432 104.901 81.4369 104.811C81.3307 104.721 81.2432 104.611 81.1795 104.487C81.1157 104.364 81.077 104.229 81.0654 104.09C81.0653 103.816 81.1717 103.552 81.3622 103.355C81.5527 103.158 81.8123 103.043 82.0862 103.034Z" fill="#A1A1A1"/>
<path d="M93.2447 103.104C93.3882 103.066 93.538 103.058 93.6847 103.081C93.8314 103.104 93.9719 103.156 94.0974 103.235C94.2229 103.315 94.3307 103.419 94.4141 103.542C94.4976 103.664 94.5548 103.803 94.5823 103.949C94.6108 104.111 94.6011 104.277 94.5539 104.435C94.5067 104.592 94.4234 104.737 94.3106 104.856C94.1978 104.976 94.0586 105.068 93.9041 105.124C93.7496 105.18 93.584 105.2 93.4207 105.181C93.1733 105.15 92.9439 105.036 92.7709 104.856C92.5979 104.677 92.4918 104.444 92.4703 104.195C92.4535 103.952 92.5214 103.71 92.6626 103.511C92.8038 103.312 93.0094 103.169 93.2447 103.104Z" fill="#A1A1A1"/>
<path d="M87.7535 104.09C87.933 104.037 88.1236 104.036 88.3039 104.086C88.4842 104.135 88.6471 104.234 88.7743 104.371C88.925 104.527 89.0257 104.724 89.0634 104.937C89.101 105.151 89.0739 105.37 88.9855 105.568C88.8829 105.781 88.7121 105.953 88.5003 106.057C88.2885 106.161 88.0479 106.191 87.8169 106.143C87.586 106.094 87.378 105.969 87.2261 105.789C87.0742 105.608 86.9873 105.382 86.9791 105.146C86.966 104.907 87.036 104.672 87.1772 104.479C87.3184 104.287 87.5221 104.149 87.7535 104.09Z" fill="#A1A1A1"/>
<path d="M80.8545 106.167C81.0238 106.105 81.2098 106.107 81.378 106.171C81.5462 106.236 81.6854 106.359 81.7697 106.519C81.8166 106.606 81.8447 106.701 81.8521 106.8C81.8596 106.898 81.8464 106.997 81.8132 107.09C81.78 107.183 81.7276 107.268 81.6595 107.339C81.5914 107.411 81.509 107.467 81.4177 107.504C81.2396 107.583 81.0381 107.59 80.8547 107.525C80.6713 107.459 80.52 107.326 80.4321 107.152C80.3908 107.06 80.3691 106.961 80.3682 106.86C80.3673 106.759 80.3874 106.66 80.4271 106.567C80.4668 106.474 80.5253 106.391 80.5988 106.322C80.6724 106.253 80.7594 106.2 80.8545 106.167Z" fill="#A1A1A1"/>
<path d="M94.3713 106.132C94.8641 105.92 95.3921 106.448 95.2865 106.976C95.2621 107.083 95.2147 107.183 95.1476 107.269C95.0806 107.356 94.9956 107.427 94.8984 107.477C94.8013 107.527 94.6944 107.556 94.5851 107.56C94.4759 107.565 94.3669 107.546 94.2657 107.504C94.1715 107.46 94.0876 107.397 94.0196 107.318C93.9515 107.239 93.9009 107.147 93.871 107.047C93.8411 106.948 93.8326 106.843 93.846 106.74C93.8594 106.636 93.8945 106.537 93.9489 106.448C94.0496 106.298 94.1986 106.186 94.3713 106.132Z" fill="#A1A1A1"/>
<path d="M87.8945 107.329C88.0026 107.294 88.1174 107.287 88.229 107.307C88.3407 107.326 88.4459 107.373 88.5357 107.442C88.6256 107.511 88.6974 107.601 88.7451 107.704C88.7928 107.806 88.815 107.919 88.8097 108.033C88.808 108.143 88.7813 108.251 88.7317 108.349C88.682 108.448 88.6108 108.533 88.5233 108.6C88.4357 108.667 88.3342 108.713 88.2263 108.735C88.1184 108.757 88.0069 108.754 87.9002 108.727C87.7935 108.699 87.6945 108.648 87.6104 108.577C87.5264 108.506 87.4595 108.417 87.4149 108.316C87.3704 108.215 87.3492 108.106 87.353 107.996C87.3568 107.886 87.3855 107.778 87.4369 107.681C87.4819 107.591 87.5463 107.513 87.6256 107.452C87.7048 107.391 87.7967 107.349 87.8945 107.329Z" fill="#A1A1A1"/>
<path d="M84.5504 78.7462C86.4183 78.0854 88.4413 77.9996 90.3585 78.4998C90.0065 80.0486 89.6193 81.5974 89.2673 83.1462C88.0964 82.8333 86.8535 82.9327 85.7473 83.4278C84.8908 83.8287 84.1616 84.4582 83.6399 85.247C83.1182 86.0357 82.8243 86.9531 82.7904 87.8982C82.751 89.1349 83.1782 90.3412 83.9873 91.2774C84.739 92.1584 85.7703 92.7548 86.9088 92.967C86.5216 94.5158 86.1696 96.0646 85.7824 97.6134C84.0486 97.2221 82.447 96.3849 81.136 95.1846C79.4008 93.5963 78.3003 91.4327 78.0384 89.095C77.7595 86.7608 78.3483 84.4056 79.6928 82.4774C80.8685 80.7434 82.572 79.4349 84.5504 78.7462Z" fill="#A1A1A1"/>
<path d="M68.3934 80.013C68.3934 79.9074 68.4286 79.837 68.4286 79.7314C69.303 79.8722 70.1943 79.8722 71.0686 79.7314C70.6462 81.7026 70.1534 83.6738 69.8014 85.6802C70.3035 85.2125 70.8885 84.8424 71.5262 84.589C71.9703 84.3995 72.4522 84.3152 72.9342 84.3426C73.2971 84.3579 73.6507 84.4622 73.9638 84.6464C74.2768 84.8305 74.5398 85.0889 74.7294 85.3986C74.9579 85.843 75.0322 86.3507 74.9406 86.8418C74.8575 87.5046 74.74 88.1625 74.5886 88.813H72.195C72.3175 88.1626 72.3882 87.5035 72.4062 86.8418C72.3869 86.5985 72.286 86.3688 72.1199 86.19C71.9539 86.0111 71.7323 85.8935 71.491 85.8562C71.1294 85.8079 70.7615 85.8692 70.435 86.0322C70.1768 86.1847 69.9781 86.4206 69.8718 86.701C69.587 87.378 69.3861 88.0873 69.2734 88.813H66.915C67.5134 85.8914 68.0414 82.9698 68.3934 80.013Z" fill="#A1A1A1"/>
<path d="M46.4287 81.069C47.4143 81.069 48.3999 80.9634 49.3855 80.9634C49.2041 81.4598 49.1088 81.9836 49.1039 82.5122C48.1041 82.3414 47.0911 82.2589 46.0767 82.2658C45.9007 82.9698 45.7599 83.709 45.6191 84.413C45.3375 85.8562 45.0207 87.3346 44.8095 88.813H42.2047C42.6271 86.6306 43.0847 84.4834 43.4015 82.2658C42.3062 82.2778 41.2127 82.3601 40.1279 82.5122C40.3428 82.0254 40.4393 81.4946 40.4095 80.9634C42.4159 81.0338 44.4223 81.069 46.4287 81.069Z" fill="#A1A1A1"/>
<path d="M52.5184 85.786C52.1579 86.4232 51.8967 87.1116 51.744 87.8276H54.4193C54.4545 87.37 54.5248 86.9124 54.5248 86.4196C54.5578 86.0123 54.4591 85.6051 54.2433 85.258C54.134 85.1396 53.992 85.0563 53.8353 85.0187C53.6787 84.9811 53.5144 84.9909 53.3633 85.0468C53.0067 85.1914 52.7091 85.4518 52.5184 85.786ZM50.4768 85.6804C51.2248 84.9058 52.2219 84.4197 53.2928 84.3076C54.0586 84.1967 54.8402 84.3066 55.5457 84.6244C55.8429 84.7925 56.1025 85.0198 56.3083 85.2923C56.5142 85.5648 56.6619 85.8766 56.7424 86.2084C56.9009 87.0267 56.8647 87.8707 56.6368 88.6724H51.6033V88.778H49.0688C49.196 87.6218 49.6893 86.5365 50.4768 85.6804Z" fill="#A1A1A1"/>
<path d="M110.035 85.8564C110.631 85.2424 111.374 84.7908 112.193 84.5444C113.012 84.298 113.881 84.2649 114.717 84.4484C115.442 84.5493 116.106 84.9124 116.582 85.4692C116.909 85.9542 117.126 86.5049 117.217 87.0826C117.308 87.6603 117.272 88.251 117.11 88.8132H114.47C114.639 88.0862 114.722 87.3419 114.717 86.5956C114.716 86.1328 114.554 85.6848 114.259 85.3284C114.117 85.217 113.95 85.1401 113.773 85.1034C113.596 85.0668 113.413 85.0715 113.238 85.1172C112.82 85.233 112.458 85.4954 112.217 85.8564C111.584 86.7364 111.337 87.7924 111.126 88.8484H108.521C108.712 87.721 109.24 86.6778 110.035 85.8564Z" fill="#A1A1A1"/>
<path d="M122.496 84.9763C123.122 84.5305 123.874 84.2962 124.643 84.3075C124.956 84.3211 125.264 84.3965 125.548 84.5294C125.832 84.6623 126.086 84.8501 126.298 85.0819C126.477 85.2858 126.608 85.5274 126.681 85.7888C126.754 86.0502 126.767 86.3247 126.72 86.592C126.65 87.3312 126.474 88.0352 126.368 88.7744H123.974C124.137 88.1309 124.197 87.4654 124.15 86.8032C124.12 86.4787 123.969 86.1772 123.728 85.9584C123.396 85.7725 123.005 85.722 122.637 85.8176C122.428 85.8605 122.232 85.9533 122.066 86.0881C121.901 86.223 121.771 86.3958 121.686 86.592C121.385 87.3025 121.172 88.0473 121.053 88.8096H118.694C118.941 87.4016 119.222 85.9584 119.363 84.5152C120.171 84.5856 120.984 84.5856 121.792 84.5152C121.722 84.9024 121.616 85.3248 121.546 85.712C121.898 85.4656 122.179 85.184 122.496 84.9728" fill="#A1A1A1"/>
<path d="M132.317 85.0821C131.968 85.2431 131.684 85.5156 131.507 85.8564C131.164 86.4694 130.926 87.1358 130.803 87.8276H133.478C133.572 87.1986 133.596 86.5611 133.549 85.9268C133.521 85.6367 133.397 85.3642 133.197 85.1524C133.066 85.0718 132.918 85.0233 132.765 85.0111C132.612 84.9988 132.459 85.0232 132.317 85.0821ZM129.36 85.8212C130.052 85.0134 131.016 84.4874 132.07 84.3428C132.62 84.2724 133.176 84.2724 133.725 84.3428C134.227 84.4065 134.695 84.6284 135.062 84.9764C135.504 85.4074 135.779 85.9812 135.837 86.5956C135.901 87.3045 135.841 88.0192 135.661 88.7076H130.627V88.8132H128.093C128.192 87.7079 128.635 86.6615 129.36 85.8212Z" fill="#A1A1A1"/>
<path d="M59.3118 85.9971C60.2633 85.0008 61.5614 84.4085 62.9374 84.3427C64.0847 84.2237 65.2386 84.4967 66.211 85.1171C65.8942 85.7155 65.5422 86.3139 65.1902 86.9123H64.803C64.8182 86.6537 64.779 86.3949 64.6881 86.1524C64.5971 85.9099 64.4564 85.6891 64.275 85.5043C64.0924 85.3636 63.8808 85.2653 63.6556 85.2166C63.4303 85.1679 63.197 85.17 62.9726 85.2227C62.7127 85.2645 62.4637 85.3576 62.2401 85.4966C62.0165 85.6356 61.8228 85.8177 61.6702 86.0323C61.0838 86.8556 60.7091 87.8106 60.579 88.8131H57.9038C58.0959 87.7596 58.5843 86.7828 59.3118 85.9971Z" fill="#A1A1A1"/>
<path d="M100.953 84.5186C102.432 84.589 103.91 84.6594 105.389 84.6242C106.269 84.6242 107.184 84.589 108.064 84.5186C108.051 84.7473 108.003 84.9728 107.923 85.1874C106.832 86.3842 105.776 87.581 104.72 88.7778H101.974C102.925 87.6866 103.84 86.5954 104.79 85.5042C103.417 85.5042 102.08 85.5746 100.707 85.645C100.859 85.2883 100.943 84.9062 100.953 84.5186Z" fill="#A1A1A1"/>
<path d="M90.3583 78.4961C90.9388 78.6427 91.5045 78.843 92.0479 79.0945C91.6607 80.7137 91.3087 82.3329 90.9215 83.9521C90.4252 83.5895 89.8634 83.3265 89.2671 83.1777C89.5839 81.5937 89.9711 80.0449 90.3583 78.4961Z" fill="#A1A1A1"/>
<path d="M92.5406 79.3442C93.7443 79.9759 94.8035 80.8509 95.6508 81.9138C96.4982 82.9767 97.1153 84.2042 97.4629 85.5183C97.8105 86.8325 97.8809 88.2046 97.6698 89.5474C97.4587 90.8903 96.9706 92.1745 96.2366 93.3186C95.3856 94.6221 94.2402 95.7073 92.8926 96.4866C91.4847 97.2952 89.9034 97.7539 88.2814 97.8242C88.2623 97.8265 88.2429 97.8246 88.2246 97.8185C88.2064 97.8124 88.1897 97.8023 88.1758 97.789C88.3518 97.1906 88.4574 96.5922 88.5982 96.029C88.8446 94.973 89.091 93.917 89.3374 92.8258C90.0816 92.5867 90.7659 92.1906 91.3438 91.6642C91.8497 91.1955 92.254 90.6278 92.5315 89.9963C92.8091 89.3649 92.954 88.6832 92.9573 87.9935C92.9606 87.3037 92.8222 86.6207 92.5507 85.9866C92.2792 85.3526 91.8804 84.781 91.379 84.3074C91.7662 82.6882 92.1886 81.0338 92.5406 79.3442Z" fill="#A1A1A1"/>
<path d="M86.0639 84.941C86.4878 84.5699 87.0253 84.3538 87.5881 84.3282C88.1509 84.3027 88.7057 84.4691 89.1616 84.8002C89.4229 84.9696 89.6334 85.2066 89.7709 85.4861C89.9084 85.7655 89.9676 86.077 89.9424 86.3874C89.9171 86.6978 89.8083 86.9956 89.6274 87.2491C89.4466 87.5027 89.2004 87.7025 88.9152 87.8274C89.3005 87.9131 89.647 88.1234 89.9007 88.4258C90.0777 88.6654 90.2009 88.9405 90.2616 89.2321C90.3224 89.5237 90.3193 89.8251 90.2527 90.1154C90.1623 90.55 89.9532 90.9511 89.6488 91.2742C89.3443 91.5972 88.9564 91.8297 88.5279 91.9458C87.8985 92.1063 87.2349 92.0695 86.6272 91.8402C86.2527 91.6746 85.9304 91.4102 85.6948 91.0753C85.4591 90.7405 85.3191 90.3478 85.2896 89.9394C85.6087 89.9097 85.9259 89.8627 86.2399 89.7986C86.3179 90.23 86.5127 90.6318 86.8032 90.9602C87.0073 91.1258 87.2507 91.236 87.5098 91.2802C87.7689 91.3245 88.035 91.3013 88.2825 91.2129C88.5301 91.1245 88.7507 90.9738 88.9231 90.7754C89.0956 90.5771 89.214 90.3377 89.2672 90.0802C89.3427 89.7109 89.2932 89.327 89.1263 88.989C89.0212 88.8015 88.8746 88.6406 88.6976 88.5186C88.5207 88.3966 88.3181 88.3167 88.1056 88.285C87.7874 88.2382 87.4629 88.2622 87.1552 88.3554C87.1904 88.0738 87.2255 87.8274 87.2607 87.5458C87.7713 87.5787 88.2751 87.415 88.6687 87.0882C88.7725 86.969 88.8513 86.8302 88.9005 86.6799C88.9497 86.5297 88.9682 86.3712 88.9551 86.2137C88.942 86.0562 88.8974 85.9029 88.824 85.7629C88.7507 85.6229 88.65 85.499 88.5279 85.3986C88.2689 85.2121 87.9548 85.1177 87.6358 85.1304C87.3168 85.1432 87.0113 85.2624 86.7679 85.469C86.5186 85.7433 86.3589 86.0872 86.3103 86.4546C85.9906 86.413 85.6734 86.3543 85.3599 86.2786C85.4487 85.77 85.6949 85.3021 86.0639 84.941Z" fill="#A1A1A1"/>
<path d="M57.904 88.7778H60.5792C60.4618 89.4206 60.4858 90.0813 60.6496 90.7138C60.7419 90.954 60.8836 91.172 61.0655 91.354C61.2474 91.5359 61.4655 91.6775 61.7056 91.7698C62.0624 91.8899 62.4398 91.9362 62.8149 91.906C63.1901 91.8757 63.5552 91.7695 63.888 91.5938C64.1363 91.4499 64.3719 91.2851 64.592 91.101C64.6781 91.1917 64.7723 91.2742 64.8736 91.3474C64.6624 91.6642 64.4864 92.0162 64.2752 92.333C64.0957 92.4726 63.8932 92.5798 63.6768 92.6498C62.5771 93.0243 61.3948 93.0852 60.2624 92.8258C59.6467 92.7071 59.0888 92.3847 58.6784 91.9106C58.3224 91.4801 58.068 90.9749 57.9339 90.4326C57.7998 89.8902 57.7896 89.3247 57.904 88.7778Z" fill="#A1A1A1"/>
<path d="M42.2047 88.7778H44.8095C44.7039 89.5522 44.5279 90.2914 44.4223 91.0658C44.3519 91.629 44.2815 92.1922 44.1759 92.7906C43.5559 92.7321 42.933 92.7086 42.3103 92.7202C41.9807 92.7249 41.6516 92.7484 41.3247 92.7906C41.4655 92.1218 41.6415 91.453 41.7823 90.7842C41.9567 90.123 42.0977 89.4533 42.2047 88.7778Z" fill="#A1A1A1"/>
<path d="M49.0335 88.7778H51.5679C51.4859 89.2546 51.474 89.7408 51.5327 90.221C51.6383 90.6786 51.7439 91.2066 52.1663 91.5234C52.4352 91.7096 52.7403 91.8371 53.0617 91.8977C53.3831 91.9584 53.7136 91.9508 54.0319 91.8754C54.6204 91.754 55.1739 91.5014 55.6511 91.1362L55.8271 91.3122C55.6159 91.629 55.4751 91.981 55.2639 92.2626C54.4644 92.767 53.5338 93.0242 52.5887 93.0018C51.8873 93.0339 51.1881 92.9013 50.5471 92.6146C49.8887 92.2739 49.3851 91.6948 49.1391 90.9954C48.9437 90.2726 48.9076 89.516 49.0335 88.7778Z" fill="#A1A1A1"/>
<path d="M66.1055 92.7906C66.3871 91.453 66.6335 90.1154 66.9151 88.7778H69.2735C69.0271 90.1154 68.8511 91.453 68.6399 92.7906C68.1612 92.7321 67.6788 92.7085 67.1967 92.7202C66.8095 92.7554 66.4575 92.7906 66.1055 92.7906Z" fill="#A1A1A1"/>
<path d="M72.2306 88.7778H74.6242C74.3778 90.1154 74.1666 91.453 73.9202 92.7906C73.4274 92.7906 72.9346 92.7202 72.4418 92.7202C72.0546 92.7554 71.7026 92.7906 71.3154 92.7906C71.597 91.805 71.7378 90.8194 71.9842 89.869C72.0868 89.5102 72.1691 89.1459 72.2306 88.7778Z" fill="#A1A1A1"/>
<path d="M99.053 92.0866C100.039 90.9954 101.024 89.9042 101.975 88.7778H104.72C103.875 89.7986 102.995 90.749 102.151 91.7698C103.664 91.7698 105.178 91.7346 106.656 91.629L106.445 92.7906C104.826 92.7202 103.207 92.685 101.587 92.7202C100.672 92.7202 99.7922 92.7554 98.877 92.8258C98.9687 92.5885 99.028 92.3398 99.053 92.0866Z" fill="#A1A1A1"/>
<path d="M108.522 88.7778H111.127C110.975 89.4351 110.927 90.1122 110.986 90.7842C110.985 91.2033 111.121 91.6112 111.373 91.9458C111.501 92.0829 111.662 92.1842 111.841 92.2398C112.02 92.2953 112.211 92.3032 112.394 92.2626C112.838 92.1625 113.227 91.8985 113.485 91.5234C114.025 90.6923 114.385 89.7569 114.541 88.7778H117.181C116.93 90.0024 116.272 91.1062 115.315 91.9106C114.533 92.5452 113.575 92.9259 112.57 93.0018C111.618 93.1202 110.653 92.9223 109.824 92.4386C109.308 92.086 108.914 91.5817 108.698 90.9954C108.412 90.2921 108.35 89.5175 108.522 88.7778Z" fill="#A1A1A1"/>
<path d="M118.73 88.7778H121.088C120.842 90.1154 120.666 91.453 120.454 92.7906C119.962 92.7906 119.469 92.685 119.011 92.7202C118.659 92.7554 118.307 92.7554 117.92 92.7906C118.237 91.4882 118.483 90.1506 118.73 88.7778Z" fill="#A1A1A1"/>
<path d="M124.045 88.7778H126.438C126.227 90.1154 125.945 91.453 125.734 92.7906C125.347 92.7554 124.995 92.7554 124.608 92.7202C124.114 92.7086 123.62 92.7321 123.129 92.7906C123.517 91.4882 123.728 90.1506 124.045 88.7778Z" fill="#A1A1A1"/>
<path d="M128.058 88.7778H130.592C130.51 89.2191 130.498 89.6705 130.557 90.1154C130.61 90.4857 130.729 90.8434 130.909 91.1714C131.047 91.3778 131.229 91.551 131.442 91.6788C131.655 91.8066 131.894 91.8858 132.141 91.9106C133.031 91.9837 133.919 91.7338 134.64 91.2066C134.746 91.1362 134.816 91.277 134.886 91.3122C134.746 91.5938 134.57 91.8754 134.394 92.157C134.323 92.333 134.112 92.3682 133.971 92.4738C132.787 93.0397 131.443 93.1766 130.17 92.861C129.702 92.7517 129.27 92.522 128.919 92.1948C128.567 91.8676 128.306 91.4542 128.163 90.9954C127.97 90.2723 127.934 89.5161 128.058 88.7778Z" fill="#A1A1A1"/>
<path d="M86.8735 93.002C87.5011 93.1253 88.1467 93.1253 88.7743 93.002C88.3871 94.6212 87.9999 96.2404 87.6479 97.8596C87.0095 97.8414 86.3738 97.7708 85.7471 97.6484C86.1343 96.0996 86.4863 94.5508 86.8735 93.002Z" fill="#A1A1A1"/>
</svg>
