<svg width="176" height="176" viewBox="0 0 176 176" fill="none" xmlns="http://www.w3.org/2000/svg">
<path fill-rule="evenodd" clip-rule="evenodd" d="M107.606 118.814C107.694 118.908 107.802 118.98 107.923 119.025C108.054 119.093 108.198 119.129 108.345 119.131C108.553 119.173 108.768 119.163 108.971 119.101C109.173 119.04 109.358 118.929 109.507 118.779L109.542 118.744C109.551 118.797 109.576 118.846 109.613 118.884C109.666 118.991 109.753 119.077 109.859 119.131C109.937 119.162 110.022 119.174 110.105 119.166H110.704V118.814H110.422L110.352 118.779C110.284 118.697 110.236 118.601 110.211 118.497C110.211 118.427 110.176 118.356 110.176 118.251V114.696H110.669V114.344H108.979V114.696H109.437V117.92C109.446 117.981 109.433 118.043 109.401 118.096C109.323 118.343 109.162 118.554 108.944 118.694C108.873 118.73 108.803 118.73 108.733 118.765C108.62 118.778 108.506 118.762 108.402 118.719C108.297 118.676 108.205 118.607 108.134 118.518C108.023 118.402 107.949 118.255 107.923 118.096C107.882 117.84 107.859 117.581 107.853 117.322V114.682H108.31V114.33H106.621V114.682H107.078V114.893V117.814C107.079 117.996 107.115 118.175 107.184 118.342C107.219 118.413 107.254 118.518 107.289 118.589C107.327 118.684 107.388 118.769 107.465 118.835" fill="#A1A1A1"/>
<path fill-rule="evenodd" clip-rule="evenodd" d="M104.086 118.18C104.002 118.283 103.907 118.377 103.805 118.462C103.688 118.553 103.557 118.624 103.418 118.673C103.228 118.744 103.026 118.771 102.825 118.753C102.624 118.734 102.429 118.671 102.256 118.568C102.142 118.497 102.036 118.414 101.939 118.321C101.645 118.012 101.416 117.647 101.265 117.248C101.114 116.849 101.044 116.424 101.059 115.998C101.047 115.468 101.143 114.941 101.341 114.449C101.509 114.02 101.803 113.651 102.186 113.393C102.332 113.288 102.501 113.216 102.678 113.182C102.913 113.143 103.154 113.161 103.381 113.234C103.608 113.308 103.814 113.435 103.981 113.604C104.196 113.821 104.374 114.07 104.509 114.344C104.784 114.95 104.905 115.615 104.861 116.28C104.848 116.531 104.801 116.78 104.72 117.019V117.089C104.633 117.011 104.538 116.94 104.438 116.878C104.348 116.824 104.254 116.777 104.157 116.737C104.016 116.702 103.84 116.667 103.664 116.632H102.749V116.984H102.89C103.117 116.982 103.342 117.036 103.544 117.14C103.746 117.244 103.92 117.396 104.051 117.582C104.157 117.688 104.262 117.828 104.368 117.934C104.298 118.04 104.227 118.11 104.157 118.216L104.086 118.18ZM106.867 118.884C106.772 118.89 106.676 118.878 106.586 118.849C106.475 118.83 106.369 118.795 106.269 118.744C106.167 118.698 106.073 118.639 105.987 118.568C105.888 118.504 105.804 118.42 105.741 118.321C105.565 118.145 105.424 117.969 105.248 117.793C105.401 117.516 105.52 117.22 105.6 116.913C105.67 116.589 105.705 116.259 105.706 115.928C105.712 115.504 105.628 115.084 105.459 114.696C105.33 114.319 105.126 113.972 104.861 113.675C104.617 113.385 104.318 113.145 103.981 112.971C103.63 112.802 103.244 112.718 102.854 112.724C102.382 112.751 101.925 112.901 101.529 113.161C101.134 113.42 100.814 113.78 100.602 114.203C100.46 114.47 100.353 114.754 100.285 115.048C100.215 115.372 100.18 115.702 100.179 116.033C100.186 116.427 100.245 116.817 100.355 117.195C100.496 117.606 100.711 117.988 100.989 118.321C101.1 118.456 101.231 118.575 101.376 118.673C101.589 118.847 101.826 118.989 102.08 119.096C102.364 119.218 102.669 119.281 102.978 119.281C103.286 119.281 103.592 119.218 103.875 119.096C104.191 118.95 104.477 118.747 104.72 118.497L104.755 118.462C104.826 118.568 104.931 118.638 105.002 118.744C105.098 118.847 105.204 118.941 105.318 119.025C105.54 119.164 105.796 119.237 106.058 119.236H107.008V118.955L106.867 118.884Z" fill="#A1A1A1"/>
<path fill-rule="evenodd" clip-rule="evenodd" d="M73.4976 116.561C73.4117 116.417 73.305 116.287 73.1808 116.174C73.037 116.046 72.884 115.928 72.7232 115.822L72.4064 115.646L72.0192 115.435C71.8596 115.367 71.7065 115.284 71.5616 115.189L71.3152 115.048L71.0688 114.872C70.9491 114.792 70.8521 114.683 70.7872 114.555C70.7039 114.416 70.6556 114.259 70.6464 114.097C70.6414 113.975 70.6606 113.853 70.7029 113.738C70.7452 113.624 70.8097 113.518 70.8928 113.429C70.9875 113.326 71.1096 113.253 71.2448 113.217C71.4124 113.149 71.5916 113.113 71.7728 113.112C71.959 113.104 72.1432 113.153 72.3008 113.253C72.4033 113.298 72.4944 113.366 72.5675 113.451C72.6406 113.537 72.6937 113.637 72.7232 113.745C72.7659 113.966 72.7894 114.19 72.7936 114.414H73.1104V112.865H72.7584C72.6383 112.859 72.5197 112.835 72.4064 112.795C72.1975 112.754 71.9856 112.731 71.7728 112.725C71.5717 112.731 71.3714 112.754 71.1744 112.795C70.9471 112.865 70.7329 112.972 70.5408 113.112C70.2534 113.335 70.0439 113.643 69.9424 113.992C69.9132 114.119 69.9014 114.249 69.9072 114.379C69.9069 114.639 69.9672 114.895 70.0833 115.127C70.1994 115.359 70.3681 115.561 70.576 115.717C70.6559 115.795 70.752 115.855 70.8576 115.893C71.0336 115.998 71.2448 116.104 71.456 116.209C71.6672 116.315 71.8432 116.385 72.0544 116.491C72.1557 116.537 72.2505 116.596 72.336 116.667C72.436 116.729 72.5303 116.799 72.6176 116.878C72.7252 116.975 72.8095 117.095 72.8643 117.229C72.9192 117.363 72.9431 117.508 72.9344 117.653C72.9384 117.797 72.9123 117.94 72.8577 118.073C72.8032 118.207 72.7214 118.327 72.6176 118.427C72.4357 118.576 72.2168 118.674 71.984 118.709H71.7376C71.5959 118.714 71.454 118.703 71.3152 118.673C71.2448 118.673 71.1744 118.638 71.104 118.638L70.8928 118.533C70.8139 118.458 70.7431 118.376 70.6816 118.286C70.6307 118.186 70.5951 118.08 70.576 117.969V117.829H70.2592V119.166H71.8432C72.1045 119.185 72.3668 119.151 72.6147 119.066C72.8625 118.981 73.0909 118.848 73.2864 118.673C73.4438 118.517 73.5684 118.33 73.653 118.125C73.7376 117.919 73.7805 117.699 73.7792 117.477C73.7558 117.154 73.6595 116.841 73.4976 116.561Z" fill="#A1A1A1"/>
<path fill-rule="evenodd" clip-rule="evenodd" d="M75.1874 117.089L75.6098 115.822H75.6802L76.1026 117.089H75.1874ZM77.6162 118.849C77.5458 118.849 77.5106 118.814 77.4402 118.779H77.405V118.744L77.3698 118.673C77.3346 118.603 77.3346 118.533 77.2994 118.462L75.9266 114.344H75.645L74.237 118.603C74.237 118.638 74.2018 118.673 74.2018 118.744C74.193 118.797 74.1685 118.846 74.1314 118.885H73.6738V119.237H74.9058V118.885H74.589C74.7298 118.462 74.8706 118.005 75.0114 117.582H76.173L76.5602 118.744L76.5954 118.885H76.2786V119.237H77.7922V118.885H77.7218C77.7218 118.849 77.6866 118.849 77.6162 118.849Z" fill="#A1A1A1"/>
<path fill-rule="evenodd" clip-rule="evenodd" d="M122.038 117.371C121.992 117.202 121.908 117.045 121.792 116.913C121.73 116.845 121.659 116.785 121.581 116.737C121.51 116.667 121.405 116.632 121.334 116.561C121.145 116.447 120.945 116.352 120.736 116.28C120.632 116.255 120.536 116.207 120.454 116.139C120.306 116.058 120.164 115.963 120.032 115.857C119.964 115.803 119.909 115.733 119.873 115.653C119.836 115.574 119.818 115.487 119.821 115.4C119.815 115.31 119.827 115.22 119.857 115.135C119.888 115.05 119.935 114.973 119.997 114.907C120.065 114.84 120.15 114.791 120.243 114.766C120.355 114.723 120.474 114.699 120.595 114.696C120.713 114.694 120.83 114.722 120.935 114.778C121.039 114.833 121.128 114.914 121.193 115.013C121.233 115.089 121.257 115.173 121.264 115.259V115.47H121.581V114.309H121.088C120.925 114.279 120.76 114.268 120.595 114.273C120.428 114.277 120.263 114.301 120.102 114.344C119.92 114.403 119.752 114.498 119.609 114.625C119.425 114.806 119.302 115.04 119.257 115.294C119.257 115.4 119.222 115.47 119.222 115.576C119.228 115.719 119.252 115.861 119.293 115.998C119.375 116.224 119.507 116.429 119.68 116.597C119.901 116.778 120.15 116.921 120.419 117.019C120.613 117.099 120.802 117.193 120.982 117.301C121.124 117.39 121.245 117.51 121.334 117.653C121.38 117.739 121.393 117.839 121.369 117.934C121.384 118.086 121.352 118.239 121.276 118.371C121.2 118.504 121.085 118.609 120.947 118.673C120.834 118.714 120.715 118.737 120.595 118.744H120.278L120.137 118.709C120.067 118.673 120.032 118.673 119.997 118.603C119.961 118.603 119.961 118.568 119.961 118.533C119.961 118.497 119.926 118.357 119.891 118.286V117.969H119.539V119.166H120.701C120.878 119.16 121.055 119.137 121.229 119.096C121.421 119.038 121.601 118.942 121.757 118.814C121.89 118.69 121.987 118.532 122.038 118.357C122.11 118.165 122.146 117.963 122.144 117.758C122.073 117.688 122.073 117.547 122.038 117.371Z" fill="#A1A1A1"/>
<path fill-rule="evenodd" clip-rule="evenodd" d="M116.371 117.089L116.794 115.822H116.864L117.287 117.089H116.371ZM118.835 118.849C118.765 118.849 118.73 118.814 118.659 118.779H118.624V118.744L118.589 118.673C118.554 118.603 118.554 118.533 118.519 118.462L117.146 114.344H116.864L115.456 118.603C115.456 118.638 115.421 118.673 115.421 118.744C115.412 118.797 115.388 118.846 115.351 118.885H114.963V119.237H116.125V118.885H115.808C115.949 118.462 116.09 118.005 116.231 117.582H117.427L117.815 118.744L117.85 118.885H117.533V119.237H119.047V118.885H118.976C118.941 118.849 118.906 118.849 118.835 118.849Z" fill="#A1A1A1"/>
<path fill-rule="evenodd" clip-rule="evenodd" d="M54.8769 114.731C54.9825 114.766 55.0529 114.801 55.1585 114.837C55.263 114.876 55.3503 114.95 55.4049 115.048C55.4656 115.134 55.5131 115.229 55.5457 115.329C55.5748 115.444 55.5866 115.563 55.5809 115.681V115.857C55.5835 115.961 55.5457 116.062 55.4753 116.139C55.4161 116.231 55.3387 116.309 55.2479 116.37C55.1571 116.43 55.0547 116.472 54.9473 116.491C54.8323 116.52 54.7137 116.532 54.5953 116.526H54.5249V114.661H54.6657C54.7361 114.696 54.8417 114.696 54.8769 114.731ZM55.2641 118.709C55.1375 118.739 55.007 118.751 54.8769 118.744H54.5249V116.949H54.8065C54.9482 116.943 55.0901 116.955 55.2289 116.984C55.3863 116.989 55.5364 117.052 55.6513 117.16C55.73 117.247 55.8007 117.341 55.8625 117.441C55.906 117.566 55.9298 117.697 55.9329 117.829C55.9467 117.962 55.9223 118.096 55.8625 118.216C55.8137 118.353 55.7285 118.475 55.6161 118.568C55.5026 118.624 55.3849 118.671 55.2641 118.709ZM56.3553 116.913C56.2542 116.801 56.1353 116.706 56.0033 116.632H55.9329C56.0017 116.57 56.061 116.499 56.1089 116.421C56.2475 116.199 56.3207 115.943 56.3201 115.681V115.4C56.3097 115.248 56.2665 115.1 56.1936 114.966C56.1207 114.833 56.0198 114.716 55.8977 114.625C55.5387 114.372 55.1044 114.248 54.6657 114.273H53.3633V114.625H53.7505V118.779H53.3633V119.131H55.1585C55.558 119.147 55.9523 119.036 56.2849 118.814C56.4216 118.691 56.5277 118.538 56.5949 118.367C56.6622 118.196 56.6886 118.012 56.6721 117.829C56.6659 117.674 56.6423 117.52 56.6017 117.371C56.5553 117.202 56.471 117.045 56.3553 116.913Z" fill="#A1A1A1"/>
<path fill-rule="evenodd" clip-rule="evenodd" d="M63.9232 118.976L63.9936 119.046C64.0365 119.097 64.091 119.136 64.1523 119.16C64.2136 119.185 64.2799 119.194 64.3456 119.187H64.9792V118.835H64.6624C64.6272 118.835 64.6272 118.8 64.592 118.8C64.5244 118.718 64.4763 118.622 64.4512 118.518C64.4197 118.44 64.4076 118.356 64.416 118.272V114.717H64.8736V114.365H63.184V114.717H63.6416V117.92C63.6508 117.981 63.6383 118.043 63.6064 118.096C63.5284 118.343 63.3665 118.554 63.1488 118.694C63.0823 118.723 63.0098 118.735 62.9376 118.73C62.8252 118.743 62.7113 118.727 62.6066 118.684C62.502 118.64 62.4099 118.572 62.3392 118.483C62.304 118.413 62.2336 118.378 62.1984 118.307C62.1593 118.243 62.1353 118.171 62.128 118.096C62.0871 117.84 62.0636 117.581 62.0576 117.322V114.682H62.5152V114.33H60.896V114.682H61.3536V114.893V117.462C61.3352 117.724 61.3693 117.986 61.4539 118.234C61.5386 118.482 61.672 118.71 61.8464 118.906C61.9761 119.019 62.1268 119.105 62.2899 119.159C62.453 119.213 62.6253 119.235 62.7968 119.222C62.9628 119.226 63.1275 119.193 63.2794 119.126C63.4314 119.059 63.567 118.96 63.6768 118.835L63.712 118.8V118.87C63.7472 118.906 63.7824 118.976 63.8176 119.011" fill="#A1A1A1"/>
<path fill-rule="evenodd" clip-rule="evenodd" d="M82.509 118.624V118.765H82.4738C82.4197 118.793 82.3586 118.806 82.2978 118.8H82.157V119.152H83.6354V118.8H83.2834C83.2834 118.73 83.2482 118.624 83.2482 118.554L82.861 115.069V114.717C82.8962 114.717 82.9314 114.682 82.9666 114.682H83.2482V114.33H82.333L81.1362 117.744H81.0658L79.869 114.294H78.9186V114.646H79.3058V114.893L78.813 118.589C78.8185 118.661 78.8064 118.734 78.7778 118.8H78.4258V119.152H79.5874V118.8H79.4466C79.3744 118.806 79.3019 118.793 79.2354 118.765V118.624L79.517 115.984H79.5874L80.749 119.152H80.9602L82.1218 115.949H82.1922L82.509 118.624Z" fill="#A1A1A1"/>
<path fill-rule="evenodd" clip-rule="evenodd" d="M126.297 118.849H126.016V118.744V114.661H126.473V114.309H124.819V114.661H125.241V116.456H123.446V114.625L123.904 114.59V114.238H122.285V114.59H122.742V118.624C122.742 118.629 122.741 118.633 122.74 118.638C122.738 118.642 122.735 118.646 122.732 118.649C122.729 118.652 122.725 118.655 122.721 118.657C122.716 118.658 122.712 118.659 122.707 118.659H122.32V119.011H123.974V118.659H123.517V118.554V116.864H125.312V118.659H124.889V119.011H126.544V118.659L126.297 118.849Z" fill="#A1A1A1"/>
<path fill-rule="evenodd" clip-rule="evenodd" d="M128.515 118.849H128.198V114.661H128.691V114.309H127.001V114.661H127.459V118.779C127.308 118.808 127.155 118.82 127.001 118.814V119.166H128.691V118.814L128.515 118.849Z" fill="#A1A1A1"/>
<path fill-rule="evenodd" clip-rule="evenodd" d="M113.273 115.224C113.273 115.294 113.309 115.365 113.309 115.435V115.681C113.304 115.893 113.244 116.1 113.133 116.28C113.054 116.369 112.959 116.441 112.851 116.491C112.726 116.535 112.596 116.558 112.464 116.561H112.288V114.696H112.464C112.571 114.69 112.678 114.702 112.781 114.731C112.951 114.769 113.102 114.869 113.203 115.013C113.21 115.087 113.234 115.16 113.273 115.224ZM112.64 117.019C112.796 117.166 112.916 117.346 112.992 117.547C113.055 117.718 113.102 117.895 113.133 118.075L113.273 118.673C113.281 118.748 113.305 118.82 113.344 118.885C113.344 118.92 113.379 118.955 113.379 118.99C113.427 119.057 113.49 119.112 113.564 119.148C113.637 119.185 113.719 119.203 113.801 119.201H114.505V118.849H114.435C114.338 118.843 114.242 118.819 114.153 118.779C114.135 118.777 114.118 118.769 114.105 118.757C114.092 118.744 114.085 118.727 114.083 118.709L114.048 118.638C114.007 118.547 113.972 118.453 113.942 118.357L113.801 117.829L113.696 117.441C113.664 117.318 113.617 117.2 113.555 117.089C113.517 116.975 113.443 116.876 113.344 116.808H113.379C113.627 116.653 113.814 116.416 113.907 116.139C113.965 115.969 113.989 115.79 113.977 115.611C113.973 115.355 113.913 115.102 113.801 114.872C113.699 114.728 113.567 114.607 113.416 114.517C113.265 114.426 113.096 114.367 112.921 114.344C112.771 114.315 112.617 114.303 112.464 114.309H111.056V114.661H111.443V114.731V118.779C111.292 118.808 111.139 118.82 110.985 118.814V119.166H112.569V118.814H112.182V116.984H112.464L112.64 117.019Z" fill="#A1A1A1"/>
<path fill-rule="evenodd" clip-rule="evenodd" d="M58.9954 118.624C58.8438 118.708 58.6754 118.756 58.5026 118.765H58.4322V114.752H58.4674C58.679 114.756 58.8856 114.817 59.0658 114.928C59.2607 115.047 59.4191 115.218 59.5234 115.421C59.6031 115.565 59.6624 115.719 59.6994 115.879C59.7346 116.055 59.7698 116.195 59.805 116.371V116.899C59.799 117.147 59.7755 117.394 59.7346 117.639C59.6176 118.047 59.3545 118.398 58.9954 118.624ZM57.3762 114.611H57.6578V118.765H57.2002V119.117H58.5378C58.8272 119.124 59.1142 119.064 59.3767 118.941C59.6392 118.819 59.87 118.639 60.0514 118.413C60.1295 118.3 60.2001 118.183 60.2626 118.061C60.4762 117.649 60.5735 117.187 60.5442 116.723C60.5456 116.281 60.4743 115.841 60.333 115.421C60.2504 115.203 60.1313 115.001 59.981 114.823C59.8134 114.632 59.6101 114.477 59.3826 114.365C59.225 114.297 59.0594 114.25 58.8898 114.224C58.7154 114.195 58.5385 114.183 58.3618 114.189H57.2002V114.541L57.3762 114.611Z" fill="#A1A1A1"/>
<path fill-rule="evenodd" clip-rule="evenodd" d="M91.5553 115.857C91.5905 115.998 91.6257 116.174 91.6609 116.35C91.6961 116.526 91.6961 116.702 91.6961 116.878C91.7019 117.078 91.6902 117.279 91.6609 117.477C91.6141 117.852 91.4402 118.2 91.1681 118.462C91.0508 118.587 90.9063 118.684 90.7457 118.744C90.6211 118.787 90.4905 118.811 90.3585 118.814H90.2881V114.731H90.3233C90.6174 114.743 90.8953 114.869 91.0977 115.083C91.1993 115.185 91.2827 115.304 91.3441 115.435C91.4353 115.564 91.5065 115.707 91.5553 115.857ZM91.9425 115.083C91.7544 114.821 91.499 114.614 91.2033 114.485C91.0457 114.417 90.8801 114.37 90.7105 114.344C90.5361 114.315 90.3592 114.303 90.1825 114.309H89.0913V114.661H89.4785V118.779H89.1265V119.131H90.3937C90.6831 119.138 90.9701 119.078 91.2326 118.955C91.4951 118.833 91.7259 118.653 91.9073 118.427C91.9854 118.314 92.056 118.197 92.1185 118.075C92.3266 117.66 92.4351 117.202 92.4353 116.737C92.4641 116.118 92.3045 115.504 91.9777 114.977" fill="#A1A1A1"/>
<path fill-rule="evenodd" clip-rule="evenodd" d="M85.8177 117.089L86.2401 115.808H86.3105L86.7329 117.075L85.8177 117.089ZM87.2609 118.849H87.0145V119.201H88.5281V118.849H88.3169C88.2733 118.844 88.2316 118.828 88.195 118.803C88.1584 118.779 88.1278 118.747 88.1057 118.709L88.0705 118.638C88.0353 118.568 88.0353 118.497 88.0001 118.427L86.5921 114.309H86.3105L84.9025 118.568C84.9039 118.617 84.8918 118.666 84.8673 118.709L84.7969 118.849H84.4097V119.201H85.5713V118.849H85.2545L85.6769 117.547H86.8385L87.2257 118.709C87.2257 118.744 87.2609 118.779 87.2609 118.849Z" fill="#A1A1A1"/>
<path fill-rule="evenodd" clip-rule="evenodd" d="M94.336 117.441L94.6528 116.456H94.7233L95.04 117.441H94.336ZM96.3073 118.814C96.256 118.801 96.208 118.777 96.1665 118.744C96.1224 118.669 96.0982 118.584 96.096 118.497L94.9345 115.083H94.688L93.5265 118.624C93.4913 118.695 93.4912 118.765 93.456 118.835H93.0688V119.187H94.1248V118.835H93.8785L94.1953 117.85H95.1808L95.4625 118.695L95.4976 118.835H95.2513V119.187H96.5185V118.835H96.448C96.3988 118.837 96.35 118.825 96.3073 118.8" fill="#A1A1A1"/>
<path fill-rule="evenodd" clip-rule="evenodd" d="M68.2879 118.462C68.2873 118.489 68.2807 118.516 68.2686 118.541C68.2564 118.565 68.2389 118.586 68.2175 118.603L68.1471 118.673C68.099 118.718 68.0364 118.743 67.9711 118.744H66.9503V114.625H67.4079V114.273H65.7183V114.625H66.1759V114.801V118.744H65.7183V119.096H68.6751V117.723H68.3583V117.864C68.3689 118.02 68.3449 118.176 68.2879 118.321" fill="#A1A1A1"/>
<path fill-rule="evenodd" clip-rule="evenodd" d="M99.3346 118.427V118.603C99.3346 118.638 99.2994 118.673 99.2994 118.709L99.2642 118.779C99.229 118.814 99.1938 118.814 99.1234 118.849H98.2786V115.435H98.6658V115.083H97.2578V115.435H97.5746V118.814H97.2578V119.166H99.6866V118.005H99.3346V118.145C99.37 118.236 99.37 118.336 99.3346 118.427Z" fill="#A1A1A1"/>
<path fill-rule="evenodd" clip-rule="evenodd" d="M49.0686 116.737L49.8078 114.695H49.8782L50.6174 116.737H49.0686ZM52.5534 118.849C52.4881 118.848 52.4255 118.823 52.3774 118.779C52.3593 118.777 52.3423 118.769 52.3294 118.756C52.3165 118.743 52.3086 118.726 52.307 118.708C52.2718 118.673 52.2366 118.638 52.2366 118.603L52.1662 118.427C52.131 118.356 52.131 118.286 52.0958 118.251L50.0542 112.583L47.9774 118.391C47.9458 118.514 47.8985 118.633 47.8366 118.743L47.8014 118.779C47.731 118.779 47.6958 118.814 47.6254 118.814H47.3086V119.166H48.7518V118.814H48.3294L48.3998 118.603L48.8926 117.195H50.7582L51.251 118.603C51.251 118.638 51.2862 118.673 51.2862 118.708C51.2862 118.743 51.3214 118.779 51.3214 118.849C51.251 118.849 51.1806 118.884 51.1102 118.884H50.9694V119.236H52.7646V118.884H52.6942C52.6449 118.886 52.5962 118.874 52.5534 118.849Z" fill="#A1A1A1"/>
<path d="M72.5471 102.165H71.5615V102.974H72.5471V102.165Z" fill="#A1A1A1"/>
<path fill-rule="evenodd" clip-rule="evenodd" d="M72.2306 107.269C72.1219 107.262 72.015 107.238 71.9138 107.198C71.8022 107.166 71.6955 107.119 71.597 107.057C71.5317 107.019 71.4724 106.972 71.421 106.917C71.2948 106.768 71.2206 106.583 71.2098 106.389C71.1807 106.274 71.1688 106.155 71.1746 106.037C71.1688 105.883 71.1806 105.73 71.2098 105.579C71.247 105.408 71.3061 105.242 71.3858 105.086C71.573 104.801 71.863 104.599 72.1954 104.523C72.3921 104.48 72.5925 104.457 72.7938 104.453H72.8994C73.0411 104.447 73.183 104.459 73.3218 104.488C73.4274 104.523 73.5682 104.558 73.6738 104.593C73.8679 104.679 74.0373 104.812 74.1666 104.981C74.3873 105.287 74.4988 105.659 74.4834 106.037C74.4773 106.238 74.4538 106.438 74.413 106.635C74.3626 106.772 74.2831 106.897 74.1797 107C74.0764 107.103 73.9518 107.183 73.8146 107.233C73.5117 107.349 73.1874 107.397 72.8642 107.374C72.6641 107.38 72.4638 107.368 72.2658 107.339M78.3554 106.177V102.165H76.7714V102.657H76.9826C77.0434 102.652 77.1045 102.664 77.1586 102.693C77.2593 102.764 77.3409 102.859 77.3961 102.97C77.4514 103.08 77.4786 103.203 77.4754 103.326V106.565C77.4688 106.673 77.4451 106.78 77.405 106.881C77.3672 106.977 77.3068 107.061 77.229 107.128C77.099 107.239 76.9406 107.312 76.7714 107.339H75.0818C75.362 106.965 75.4993 106.503 75.469 106.037C75.4768 105.752 75.428 105.468 75.3253 105.202C75.2225 104.936 75.068 104.693 74.8706 104.488C74.7487 104.374 74.6194 104.268 74.4834 104.171C74.3366 104.065 74.1683 103.993 73.9906 103.96C73.8146 103.925 73.6386 103.889 73.4274 103.854H72.2658C72.0647 103.86 71.8644 103.884 71.6674 103.925C71.4962 103.962 71.3306 104.021 71.1746 104.101C70.9893 104.185 70.8219 104.305 70.6818 104.453C70.5889 104.549 70.5063 104.656 70.4354 104.769C70.1933 105.134 70.0703 105.564 70.0834 106.001C70.0828 106.469 70.2307 106.925 70.5058 107.304H68.1826V103.819H66.5986V104.312H66.8098C66.8706 104.306 66.9317 104.319 66.9858 104.347C67.0865 104.418 67.1681 104.514 67.2233 104.624C67.2786 104.735 67.3058 104.857 67.3026 104.981V107.128C67.2966 107.434 67.2731 107.739 67.2322 108.043C67.1951 108.17 67.1355 108.289 67.0562 108.395C66.9504 108.496 66.8205 108.569 66.6788 108.606C66.5371 108.643 66.3883 108.643 66.2466 108.606L66.4578 109.134H66.7042C66.8917 109.143 67.0791 109.113 67.2546 109.046C67.4302 108.98 67.5902 108.878 67.725 108.747C67.8964 108.557 68.0174 108.327 68.077 108.078H76.9474C77.175 108.073 77.3957 107.999 77.581 107.867C77.7987 107.727 77.9606 107.515 78.0386 107.269C78.0738 107.163 78.109 107.022 78.1442 106.917C78.1794 106.811 78.1794 106.67 78.1794 106.529C78.3554 106.459 78.3554 106.318 78.3554 106.177Z" fill="#A1A1A1"/>
<path d="M74.0608 102.165H73.0752V102.974H74.0608V102.165Z" fill="#A1A1A1"/>
<path d="M119.117 108.395H118.131V109.134H119.117V108.395Z" fill="#A1A1A1"/>
<path d="M52.1663 108.395H51.1807V109.134H52.1663V108.395Z" fill="#A1A1A1"/>
<path d="M50.6882 108.395H49.7026V109.134H50.6882V108.395Z" fill="#A1A1A1"/>
<path d="M62.9729 102.165H61.9873V102.974H62.9729V102.165Z" fill="#A1A1A1"/>
<path d="M61.4944 102.165H60.5088V102.974H61.4944V102.165Z" fill="#A1A1A1"/>
<path d="M64.4866 102.165H63.501V102.974H64.4866V102.165Z" fill="#A1A1A1"/>
<path fill-rule="evenodd" clip-rule="evenodd" d="M57.3762 108.064H59.0306C59.2864 108.056 59.5379 107.996 59.7698 107.888C59.9175 107.822 60.0407 107.711 60.1218 107.571C60.2079 107.662 60.3021 107.744 60.4034 107.818C60.522 107.897 60.6528 107.956 60.7906 107.994C60.94 108.034 61.0935 108.058 61.2482 108.064C61.39 108.07 61.5318 108.058 61.6706 108.029C61.8277 107.998 61.9811 107.951 62.1282 107.888C62.3422 107.786 62.5247 107.628 62.6562 107.43C62.7583 107.574 62.8904 107.694 63.0434 107.782C63.286 107.964 63.5861 108.051 63.8882 108.029C64.2942 108.054 64.6951 107.928 65.0146 107.677C65.237 107.496 65.397 107.249 65.4722 106.973L65.5778 106.55C65.607 106.4 65.6188 106.246 65.613 106.093V103.805H64.029V104.298H64.2402C64.3011 104.292 64.3622 104.304 64.4162 104.333C64.5169 104.404 64.5985 104.499 64.6538 104.61C64.709 104.72 64.7362 104.843 64.733 104.966V106.48C64.7144 106.613 64.6789 106.743 64.6274 106.867C64.5922 106.938 64.557 106.973 64.5218 107.043C64.4866 107.114 64.4162 107.149 64.381 107.184C64.3458 107.219 64.2754 107.254 64.205 107.29C64.0427 107.325 63.8746 107.325 63.7122 107.29C63.4655 107.212 63.2538 107.05 63.1138 106.832C63.0697 106.784 63.0446 106.721 63.0434 106.656V103.84H61.4594V104.333H61.6706C61.7316 104.324 61.7939 104.336 61.8466 104.368C61.9473 104.439 62.0289 104.535 62.0842 104.645C62.1394 104.756 62.1666 104.878 62.1634 105.002V105.882C62.175 106.13 62.1513 106.379 62.093 106.621C62.0735 106.72 62.0379 106.815 61.9874 106.902C61.9237 107.031 61.8264 107.141 61.7058 107.219C61.5836 107.307 61.4325 107.345 61.2834 107.325C61.1083 107.332 60.9353 107.283 60.7906 107.184C60.6584 107.094 60.5497 106.973 60.4738 106.832C60.4738 106.762 60.4386 106.726 60.4034 106.656V103.84H58.8194V104.333H59.0306C59.0915 104.327 59.1526 104.339 59.2066 104.368C59.3073 104.439 59.3889 104.535 59.4442 104.645C59.4994 104.756 59.5266 104.878 59.5234 105.002V106.726C59.5264 106.81 59.5145 106.893 59.4882 106.973C59.4809 107.048 59.4569 107.12 59.4178 107.184C59.389 107.234 59.3482 107.277 59.2991 107.307C59.25 107.338 59.194 107.356 59.1362 107.36H57.6226C57.5573 107.359 57.4947 107.334 57.4466 107.29C57.3358 107.214 57.2402 107.119 57.165 107.008C57.1298 106.938 57.0946 106.902 57.0594 106.832C56.9859 106.698 56.9269 106.556 56.8834 106.41C56.7426 106.058 56.5666 105.67 56.4258 105.318L56.3554 105.142C56.285 104.966 56.2146 104.826 56.1442 104.65C56.0738 104.579 56.0034 104.474 55.933 104.403C55.8716 104.314 55.8008 104.231 55.7218 104.157C55.6054 104.046 55.4582 103.972 55.2994 103.946C55.1386 103.902 54.9731 103.879 54.8066 103.875H52.9058C52.6874 103.892 52.4823 103.987 52.3274 104.141C52.1725 104.296 52.078 104.502 52.061 104.72V104.931C52.0683 105.006 52.0924 105.078 52.1314 105.142C52.2722 105.459 52.3778 105.741 52.5186 106.058C52.6207 106.357 52.7382 106.65 52.8706 106.938C52.9145 107.073 52.9736 107.203 53.0466 107.325H48.893C48.7784 107.327 48.6663 107.29 48.5762 107.219C48.541 107.184 48.4706 107.149 48.4354 107.078C48.4002 107.008 48.365 106.973 48.3298 106.902C48.2858 106.828 48.2616 106.743 48.2594 106.656C48.2651 106.572 48.2531 106.488 48.2242 106.41V104.931C48.2262 104.817 48.2523 104.705 48.3008 104.602C48.3494 104.499 48.4193 104.407 48.5058 104.333C48.5701 104.294 48.6422 104.27 48.717 104.262H48.9282V103.77H47.3442V106.41C47.3504 106.553 47.3741 106.695 47.4146 106.832C47.4456 106.978 47.4928 107.119 47.5554 107.254C47.6369 107.403 47.7311 107.544 47.837 107.677C47.9762 107.791 48.1301 107.886 48.2946 107.958C48.4841 108.036 48.6909 108.06 48.893 108.029H55.053L54.9122 107.501H54.7714C54.7218 107.506 54.6719 107.494 54.6306 107.466C54.4886 107.426 54.3643 107.339 54.2786 107.219C54.2082 107.114 54.1378 107.043 54.0674 106.938C54.0018 106.824 53.943 106.706 53.8914 106.586C53.6802 106.022 53.4338 105.494 53.2226 104.931V104.755C53.2174 104.706 53.2298 104.656 53.2578 104.614C53.2984 104.559 53.3515 104.515 53.4127 104.484C53.4739 104.453 53.5414 104.438 53.6098 104.438C53.7128 104.409 53.8198 104.397 53.9266 104.403H54.1378C54.3572 104.399 54.5744 104.447 54.7714 104.544C54.8066 104.579 54.877 104.614 54.9122 104.65L55.0178 104.755C55.0723 104.833 55.1194 104.915 55.1586 105.002C55.1912 105.102 55.2387 105.197 55.2994 105.283L55.3346 105.389C55.405 105.6 55.5106 105.811 55.581 106.022C55.6866 106.339 55.8274 106.621 55.933 106.938C55.9892 107.085 56.0599 107.227 56.1442 107.36C56.1786 107.438 56.2262 107.509 56.285 107.571L56.4962 107.782C56.6173 107.887 56.7625 107.959 56.9186 107.994C56.989 107.994 57.0946 108.029 57.165 108.029L57.3762 108.064Z" fill="#A1A1A1"/>
<path fill-rule="evenodd" clip-rule="evenodd" d="M79.517 107.48V107.55H79.0946V108.043H80.925V107.55H80.4322V102.165H78.813V102.657H79.0242C79.085 102.652 79.1461 102.664 79.2002 102.693C79.3009 102.764 79.3825 102.859 79.4377 102.97C79.493 103.08 79.5202 103.203 79.517 103.326V107.48Z" fill="#A1A1A1"/>
<path fill-rule="evenodd" clip-rule="evenodd" d="M93.773 107.761C93.6347 108.076 93.3835 108.327 93.069 108.465C92.9014 108.534 92.7221 108.57 92.541 108.571C92.3747 108.565 92.2095 108.541 92.0482 108.5C91.8769 108.441 91.7207 108.345 91.5906 108.219C91.4774 108.105 91.3824 107.974 91.309 107.832C91.2346 107.661 91.1757 107.485 91.133 107.304C91.0633 107.039 91.0278 106.767 91.0274 106.494C91.0134 105.963 91.1474 105.439 91.4146 104.98C91.5545 104.763 91.7662 104.601 92.013 104.523C92.0834 104.488 92.189 104.488 92.2594 104.452H92.7874C93.0488 104.484 93.2945 104.594 93.4914 104.769C93.6046 104.883 93.6995 105.014 93.773 105.156C93.8474 105.327 93.9063 105.504 93.949 105.684C94.0545 106.219 94.0545 106.769 93.949 107.304C93.8786 107.444 93.8434 107.62 93.773 107.761ZM103.066 107.092C102.96 107.163 102.855 107.198 102.749 107.268C102.588 107.312 102.423 107.335 102.256 107.339H97.2226V105.952C97.2286 105.751 97.2522 105.551 97.293 105.354C97.3374 105.163 97.4281 104.986 97.557 104.839C97.6859 104.691 97.8491 104.578 98.0322 104.509C98.2111 104.437 98.4025 104.401 98.5954 104.403H102.186C102.316 104.397 102.446 104.409 102.573 104.438C102.751 104.472 102.919 104.544 103.066 104.65C103.145 104.724 103.215 104.807 103.277 104.896C103.487 105.206 103.587 105.578 103.559 105.952V106.304C103.523 106.41 103.488 106.55 103.453 106.656C103.352 106.82 103.221 106.964 103.066 107.078M107.008 106.163V102.186H105.424V102.678H105.635C105.696 102.673 105.757 102.685 105.811 102.714C105.912 102.785 105.994 102.88 106.049 102.991C106.104 103.101 106.131 103.224 106.128 103.347V106.586C106.122 106.694 106.098 106.801 106.058 106.902C106.02 106.998 105.96 107.082 105.882 107.149C105.752 107.26 105.593 107.333 105.424 107.36H104.122C104.2 107.247 104.27 107.13 104.333 107.008C104.473 106.711 104.546 106.386 104.544 106.058C104.544 105.807 104.508 105.559 104.439 105.318C104.324 104.89 104.062 104.517 103.699 104.262C103.565 104.157 103.409 104.085 103.242 104.051C103.083 103.996 102.917 103.96 102.749 103.946C102.575 103.916 102.398 103.905 102.221 103.91H98.525C98.0825 103.907 97.6464 104.016 97.2578 104.227V103.91H95.6738V104.403H95.885C95.9458 104.398 96.0069 104.41 96.061 104.438C96.1617 104.51 96.2432 104.605 96.2985 104.716C96.3537 104.826 96.381 104.948 96.3778 105.072V107.395H94.8642C94.9339 107.119 94.9694 106.835 94.9698 106.55C94.9683 106.101 94.8724 105.658 94.6882 105.248C94.6154 105.083 94.5206 104.929 94.4066 104.79C94.2087 104.515 93.9415 104.296 93.6322 104.157C93.1289 103.96 92.5825 103.899 92.0482 103.981C91.8682 104.011 91.6914 104.058 91.5202 104.122C91.1631 104.263 90.8566 104.508 90.6402 104.826C90.557 104.935 90.4862 105.053 90.429 105.178C90.2216 105.62 90.1021 106.098 90.077 106.586C90.0774 106.87 90.1128 107.154 90.1826 107.43H89.373C89.1942 107.426 89.0215 107.364 88.8802 107.254C88.802 107.142 88.7315 107.024 88.669 106.902C88.5955 106.768 88.5365 106.627 88.493 106.48L88.2818 105.952L87.965 105.213C87.8621 104.96 87.7445 104.713 87.613 104.474C87.5515 104.384 87.4807 104.302 87.4018 104.227C87.2853 104.116 87.1382 104.042 86.9794 104.016C86.8185 103.973 86.6531 103.949 86.4866 103.946H82.4034V105.318H82.861V105.107C82.8664 105 82.8982 104.896 82.9534 104.804C83.0087 104.712 83.0857 104.634 83.1778 104.579C83.2565 104.55 83.3405 104.538 83.4242 104.544H85.7474C85.8774 104.538 86.0077 104.55 86.1346 104.579C86.2753 104.608 86.4077 104.668 86.5218 104.755C86.7037 104.943 86.8367 105.173 86.909 105.424C86.9794 105.6 87.0498 105.741 87.1202 105.917L87.261 106.304L87.437 106.726C87.5074 106.902 87.6834 107.325 87.7538 107.466H82.3682V108.205H90.5346C90.7407 108.539 91.0316 108.813 91.3778 108.998C91.7241 109.184 92.1132 109.274 92.5058 109.261C93.0412 109.276 93.5648 109.101 93.9842 108.768C94.1959 108.603 94.375 108.4 94.5122 108.17H105.706C105.933 108.164 106.154 108.091 106.339 107.958C106.557 107.818 106.719 107.607 106.797 107.36C106.832 107.254 106.867 107.114 106.903 107.008C106.938 106.902 106.938 106.762 106.973 106.621C106.999 106.47 107.01 106.316 107.008 106.163Z" fill="#A1A1A1"/>
<path fill-rule="evenodd" clip-rule="evenodd" d="M108.205 107.55H107.747V108.043H109.578V107.55H109.155V102.2H107.571V102.693H107.747C107.808 102.687 107.869 102.699 107.923 102.728C108.024 102.799 108.106 102.894 108.161 103.005C108.216 103.115 108.243 103.238 108.24 103.361L108.205 107.55Z" fill="#A1A1A1"/>
<path fill-rule="evenodd" clip-rule="evenodd" d="M120.102 107.656C120.177 107.767 120.273 107.862 120.384 107.937C120.567 108.037 120.774 108.086 120.982 108.078H128.621V107.339H125.206C125.062 107.35 124.917 107.326 124.784 107.269C124.616 107.237 124.459 107.162 124.329 107.051C124.2 106.939 124.101 106.796 124.045 106.635C124.004 106.534 123.981 106.427 123.974 106.318V105.966C123.951 105.609 124.036 105.253 124.221 104.945C124.283 104.836 124.367 104.74 124.467 104.664C124.584 104.573 124.715 104.501 124.854 104.453C125.004 104.412 125.157 104.388 125.312 104.382H127.635C127.742 104.388 127.846 104.419 127.939 104.475C128.031 104.53 128.108 104.607 128.163 104.699C128.194 104.777 128.207 104.862 128.198 104.945V105.157H128.656V103.784H125.206C124.876 103.749 124.541 103.791 124.23 103.907C123.918 104.023 123.638 104.21 123.411 104.453C123.237 104.648 123.103 104.876 123.018 105.124C122.934 105.372 122.9 105.634 122.918 105.896C122.905 106.333 123.028 106.763 123.27 107.128L123.341 107.233H121.017C120.958 107.233 120.899 107.221 120.844 107.196C120.79 107.172 120.741 107.137 120.701 107.093C120.665 107.057 120.63 106.987 120.595 106.952C120.56 106.917 120.525 106.846 120.525 106.776V103.784H118.941V104.277H119.152C119.213 104.271 119.274 104.283 119.328 104.312C119.428 104.383 119.51 104.478 119.565 104.589C119.621 104.699 119.648 104.822 119.645 104.945V106.776C119.646 106.895 119.604 107.011 119.526 107.101C119.448 107.192 119.34 107.251 119.222 107.269H117.99C117.811 107.264 117.639 107.202 117.497 107.093C117.419 106.98 117.349 106.862 117.286 106.741C117.213 106.606 117.154 106.465 117.11 106.318L116.899 105.79L116.582 105.051C116.479 104.798 116.362 104.551 116.23 104.312C116.089 104.073 115.863 103.897 115.597 103.819C115.436 103.776 115.27 103.752 115.104 103.749H111.021V105.121H111.478V104.896C111.484 104.789 111.515 104.685 111.571 104.592C111.626 104.5 111.703 104.423 111.795 104.368C111.874 104.339 111.958 104.327 112.041 104.333H114.365C114.495 104.327 114.625 104.339 114.752 104.368C114.892 104.397 115.025 104.457 115.139 104.544C115.321 104.732 115.454 104.962 115.526 105.213C115.597 105.389 115.667 105.53 115.737 105.706L115.878 106.093L116.054 106.515C116.125 106.691 116.301 107.114 116.371 107.254H110.985V107.994H119.222C119.384 108.001 119.544 107.969 119.691 107.902C119.838 107.835 119.967 107.733 120.067 107.606L120.102 107.642" fill="#A1A1A1"/>
<path fill-rule="evenodd" clip-rule="evenodd" d="M86.1343 60.769L87.9647 62.3882L89.7599 60.769H86.1343Z" fill="#A1A1A1"/>
<path fill-rule="evenodd" clip-rule="evenodd" d="M97.8912 75.5533C98.2784 76.0109 98.6304 76.4685 99.0528 76.8909C99.4752 77.3133 99.792 77.6653 100.285 78.1581L99.0176 74.6733L97.8208 75.4125L97.8912 75.5533Z" fill="#A1A1A1"/>
<path fill-rule="evenodd" clip-rule="evenodd" d="M89.9361 66.6826C90.1121 67.0346 90.2881 67.3866 90.4289 67.7386C90.7105 68.4074 91.0273 69.041 91.3089 69.7098C91.4518 70.06 91.6164 70.4009 91.8017 70.7306C92.1185 71.3642 92.4001 71.9978 92.6465 72.6314C92.8577 73.1946 93.1041 73.7226 93.2801 74.2858C93.5048 74.8959 93.6929 75.5189 93.8433 76.1514C93.9151 76.4512 93.9506 76.7584 93.9489 77.0666C94.3289 77.2843 94.6831 77.544 95.0049 77.841L95.9553 78.7914C96.6241 79.5658 97.2577 80.3755 97.8561 81.2202L102.327 80.7978L102.045 80.5866C100.809 79.667 99.6657 78.6296 98.6305 77.489C97.4794 76.2221 96.4428 74.8557 95.5329 73.4058C94.622 71.9304 93.7993 70.4024 93.0689 68.8298C92.2791 67.066 91.5973 65.2557 91.0273 63.409C90.7809 62.6698 90.6049 61.8954 90.3937 61.1562L88.3169 63.0218V64.7818C89.0014 65.2763 89.5568 65.9282 89.9361 66.6826Z" fill="#A1A1A1"/>
<path fill-rule="evenodd" clip-rule="evenodd" d="M95.8145 66.2957C96.2515 66.3005 96.6689 66.4776 96.976 66.7885C97.1432 66.9546 97.2759 67.152 97.3665 67.3694C97.4571 67.5869 97.5039 67.8201 97.504 68.0557V74.7437L98.8065 73.9341V66.6829C98.8098 66.4416 98.7647 66.2021 98.6741 65.9784C98.5834 65.7547 98.4489 65.5514 98.2785 65.3805C98.1124 65.2134 97.915 65.0807 97.6975 64.9901C97.4801 64.8995 97.2468 64.8527 97.0113 64.8525H93.9488L93.0688 66.2957H95.8145Z" fill="#A1A1A1"/>
<path fill-rule="evenodd" clip-rule="evenodd" d="M92.6463 65.5916L93.2446 64.606L92.0479 63.7612L92.6463 65.5916Z" fill="#A1A1A1"/>
<path fill-rule="evenodd" clip-rule="evenodd" d="M97.9966 86.2539L102.361 81.5723L97.9966 81.9947V86.2539Z" fill="#A1A1A1"/>
<path fill-rule="evenodd" clip-rule="evenodd" d="M99.8273 85.3037L97.7856 87.5565L98.9825 88.0141L100.003 85.4093L99.8273 85.3037Z" fill="#A1A1A1"/>
<path fill-rule="evenodd" clip-rule="evenodd" d="M92.7521 90.091C92.7479 90.3272 92.7243 90.5626 92.6817 90.795L92.6113 91.1118L93.7729 90.1966L92.6465 89.1758L92.6817 89.5278C92.7397 89.7096 92.7636 89.9005 92.7521 90.091Z" fill="#A1A1A1"/>
<path fill-rule="evenodd" clip-rule="evenodd" d="M98.3135 90.267C97.8997 90.4789 97.4408 90.5876 96.9759 90.5838H94.4767L92.7871 91.9214H98.2079C98.8887 91.9107 99.5411 91.6473 100.038 91.1822C100.305 90.9205 100.517 90.6084 100.662 90.2639C100.807 89.9194 100.882 89.5495 100.883 89.1758V85.691L100.672 85.6558L99.5103 88.6478C99.4716 88.857 99.4004 89.059 99.2991 89.2462C99.0981 89.6899 98.7499 90.0505 98.3135 90.267Z" fill="#A1A1A1"/>
<path fill-rule="evenodd" clip-rule="evenodd" d="M98.4898 89.1755C98.5617 89.0778 98.6208 88.9714 98.6658 88.8587L98.7362 88.7531L97.3986 88.2251C97.3282 88.2603 97.293 88.3307 97.2226 88.3659C97.0493 88.4066 96.8725 88.4302 96.6946 88.4363H92.9634L94.5122 89.8443H96.9762C97.263 89.8573 97.5489 89.8037 97.8115 89.6876C98.0741 89.5716 98.3063 89.3963 98.4898 89.1755Z" fill="#A1A1A1"/>
<path fill-rule="evenodd" clip-rule="evenodd" d="M95.9199 79.9534C95.6691 79.6208 95.3988 79.3035 95.1103 79.003C94.7963 78.6591 94.4549 78.3413 94.0895 78.0526C93.9571 77.9468 93.8157 77.8525 93.6671 77.771C93.2963 78.0214 92.8762 78.1894 92.4351 78.2638C92.0072 78.3684 91.5717 78.439 91.1327 78.475L89.7247 78.5806C89.1263 78.5806 88.5631 78.6158 87.9647 78.6158C87.0495 78.6158 86.0991 78.5806 85.1839 78.5102C84.4806 78.4495 83.785 78.3198 83.1071 78.123C82.8102 78.0302 82.5264 77.9001 82.2623 77.7358C82.0174 77.8681 81.7923 78.034 81.5935 78.2286C80.9087 78.8617 80.2842 79.557 79.7279 80.3054C79.3759 80.7982 78.9887 81.291 78.6719 81.7838V86.5006L79.1295 86.043C79.3975 85.7437 79.6445 85.4261 79.8687 85.0926C80.1151 84.7406 80.3615 84.3534 80.6079 84.0014C81.2063 83.051 81.7695 82.0302 82.2975 81.0446H93.4559C94.2845 82.6426 95.2378 84.1727 96.3071 85.6206C96.5822 85.9427 96.8761 86.2483 97.1871 86.5358V81.819C96.8349 81.1523 96.4099 80.5266 95.9199 79.9534Z" fill="#A1A1A1"/>
<path fill-rule="evenodd" clip-rule="evenodd" d="M73.5327 81.5723L78.0031 86.2539V81.9947L73.5327 81.5723Z" fill="#A1A1A1"/>
<path fill-rule="evenodd" clip-rule="evenodd" d="M78.2142 87.5565L76.1726 85.3389L75.9966 85.4445L77.0174 88.0141L78.2142 87.5565Z" fill="#A1A1A1"/>
<path fill-rule="evenodd" clip-rule="evenodd" d="M89.3728 89.4574C89.8656 88.9294 90.3584 88.4013 90.816 87.8381L90.992 87.627H86.8384L87.1904 87.8381C87.5329 88.0526 87.862 88.2877 88.176 88.5421C88.5632 88.859 88.9152 89.1758 89.3024 89.4926L89.3728 89.4574Z" fill="#A1A1A1"/>
<path fill-rule="evenodd" clip-rule="evenodd" d="M89.2671 92.027C88.98 92.6994 88.5329 93.2915 87.9647 93.7518C87.5261 94.0943 87.0235 94.3456 86.4863 94.491C85.5397 94.7779 84.5389 94.8382 83.5647 94.667L82.9663 94.5614L83.4591 94.8782C84.0664 95.2738 84.7499 95.5376 85.4655 95.6526C86.0859 95.7523 86.72 95.7284 87.3311 95.5822C88.0024 95.4286 88.6444 95.167 89.2319 94.8078C89.9709 94.3152 90.605 93.6811 91.0975 92.9422C91.6299 92.1191 91.9448 91.1744 92.0127 90.1966C92.0428 89.5277 91.9473 88.8591 91.7311 88.2254L91.6607 88.0142C91.0412 88.7859 90.3833 89.526 89.6895 90.2318C89.6159 90.844 89.4742 91.4461 89.2671 92.027Z" fill="#A1A1A1"/>
<path fill-rule="evenodd" clip-rule="evenodd" d="M77.6864 90.267C77.374 90.0999 77.108 89.858 76.912 89.563C76.704 89.276 76.549 88.9541 76.4544 88.6126L75.2928 85.6558L75.0816 85.691V89.1758C75.0792 89.8524 75.3304 90.5055 75.7856 91.0062C76.0337 91.2833 76.3376 91.5049 76.6772 91.6565C77.0169 91.8082 77.3848 91.8864 77.7568 91.8862H85.3952L84.0224 90.5486H78.9888C78.5348 90.6166 78.0717 90.5164 77.6864 90.267Z" fill="#A1A1A1"/>
<path fill-rule="evenodd" clip-rule="evenodd" d="M85.9586 91.1678C86.0285 90.8558 86.0639 90.5371 86.0642 90.2174C86.0415 89.8389 85.9459 89.4684 85.7826 89.1262L85.7122 88.9502L84.6914 90.1822L85.9234 91.3438L85.9586 91.1678Z" fill="#A1A1A1"/>
<path fill-rule="evenodd" clip-rule="evenodd" d="M78.989 89.8443H84.0226L85.1842 88.4363H78.9538C78.8159 88.3992 78.6851 88.3397 78.5666 88.2603L77.2642 88.7531L77.3346 88.8587C77.4851 89.1852 77.7472 89.4473 78.0738 89.5978C78.2173 89.6776 78.3714 89.7368 78.5314 89.7738C78.6759 89.8341 78.833 89.8583 78.989 89.8443Z" fill="#A1A1A1"/>
<path fill-rule="evenodd" clip-rule="evenodd" d="M88.5282 91.8718C88.6431 91.6097 88.7372 91.339 88.8098 91.0622C88.8738 90.7837 88.9208 90.5016 88.9506 90.2174C88.405 89.6884 87.8163 89.2056 87.1906 88.7742C86.8474 88.5295 86.482 88.3174 86.0994 88.1406L86.381 88.6334C86.6337 89.0922 86.8007 89.5932 86.8738 90.1118C86.9535 90.687 86.868 91.273 86.6274 91.8014C86.3374 92.3181 85.9327 92.7613 85.4445 93.0969C84.9563 93.4325 84.3976 93.6517 83.8114 93.7374L83.1426 93.8782L83.8114 93.9838C84.0913 94.0247 84.3734 94.0483 84.6562 94.0542C85.1423 94.0499 85.6264 93.9908 86.0994 93.8782C86.608 93.7497 87.0864 93.5225 87.5074 93.2094C87.918 92.8219 88.2628 92.3702 88.5282 91.8718Z" fill="#A1A1A1"/>
<path fill-rule="evenodd" clip-rule="evenodd" d="M83.8462 63.7612L82.6846 64.606L83.283 65.5564C83.459 64.9932 83.6702 64.3596 83.8462 63.7612Z" fill="#A1A1A1"/>
<path fill-rule="evenodd" clip-rule="evenodd" d="M88.8798 72.1386C89.0206 72.6314 89.1966 73.1242 89.3726 73.617C89.5879 74.233 89.8467 74.8329 90.147 75.4122H85.6766C85.7847 75.2198 85.8789 75.0198 85.9582 74.8138C86.0286 74.6026 86.2046 74.2154 86.3102 73.9338C86.9282 72.214 87.4569 70.4634 87.8942 68.689C88.211 69.9914 88.4926 70.9418 88.8446 72.1738M84.4446 77.665C85.6009 77.8055 86.7646 77.8761 87.9294 77.8762C89.0583 77.8878 90.1869 77.8291 91.3086 77.7002C91.7378 77.6401 92.1615 77.5459 92.5758 77.4186C92.7878 77.3541 92.9893 77.2593 93.1742 77.137C93.1738 76.8406 93.1383 76.5452 93.0686 76.257C92.8822 75.4918 92.6471 74.7394 92.3646 74.0042C91.9774 72.9834 91.555 71.9978 91.0974 71.0122C90.9566 70.6954 90.7806 70.3786 90.6398 70.0618L89.795 68.0906C89.619 67.7034 89.443 67.3514 89.267 66.9642C89.1321 66.6909 88.9538 66.4412 88.739 66.225C88.5039 65.9431 88.2315 65.6944 87.9294 65.4858L87.859 65.5562C87.3394 65.9325 86.917 66.4273 86.627 66.9994C86.451 67.3514 86.3102 67.6682 86.1342 68.0202L85.2542 69.9914C85.114 70.3715 84.9372 70.7369 84.7262 71.0826C84.4446 71.681 84.1278 72.2794 83.9166 72.8778C83.5998 73.617 82.6846 75.9402 82.6846 76.9962V77.1018C82.889 77.2103 83.1007 77.3044 83.3182 77.3834C83.6834 77.5144 84.0607 77.6087 84.4446 77.665Z" fill="#A1A1A1"/>
<path fill-rule="evenodd" clip-rule="evenodd" d="M81.523 77.3487C81.6382 77.2465 81.7689 77.1634 81.9102 77.1022L81.9806 77.0671C81.9874 76.6737 82.0465 76.2831 82.1566 75.9055C82.2651 75.4385 82.4062 74.9798 82.579 74.5327C82.8958 73.6175 83.2478 72.7022 83.635 71.8222C83.7758 71.4702 83.9518 71.1182 84.1278 70.7662C84.3038 70.4494 84.4446 70.1326 84.5854 69.8158L85.4302 67.8447C85.6062 67.4575 85.7822 67.0703 85.9934 66.6831C86.3858 65.957 86.9398 65.3307 87.6126 64.8527V63.0927L85.5006 61.2271C85.3246 62.0015 85.1134 62.811 84.867 63.5854C84.2734 65.4794 83.5682 67.3365 82.755 69.1471C81.9158 70.9851 80.9268 72.7511 79.7982 74.4271C78.9728 75.6567 78.055 76.8217 77.0526 77.9118C76.091 78.9025 75.0426 79.8049 73.9198 80.6082L73.6382 80.7842L78.179 81.2066C78.6317 80.5092 79.1254 79.8392 79.6574 79.2002C79.9038 78.8834 80.1854 78.5666 80.467 78.2498C80.819 77.933 81.171 77.6162 81.523 77.3346" fill="#A1A1A1"/>
<path fill-rule="evenodd" clip-rule="evenodd" d="M78.9888 64.1484H82.0512L84.304 62.494C84.3509 61.9086 84.3627 61.3208 84.3392 60.734H83.6L83.6352 60.558C83.7489 60.1429 83.9533 59.7582 84.2336 59.4316C84.5217 59.073 84.8666 58.7638 85.2544 58.5164C86.0272 58.0369 86.9134 57.7711 87.8226 57.7464C88.7317 57.7217 89.6311 57.9388 90.4288 58.3756C90.8372 58.5942 91.2061 58.8797 91.52 59.2204C91.8768 59.6014 92.1417 60.0589 92.2944 60.558L92.3296 60.734H91.4848V60.91C91.4848 61.4028 91.52 61.8956 91.5552 62.3884L93.8784 64.1132H97.0112C97.6828 64.1176 98.3264 64.3826 98.8064 64.8524C99.0536 65.0941 99.2472 65.3851 99.3745 65.7065C99.5019 66.028 99.5601 66.3726 99.5456 66.718V74.11L100.707 77.2076L100.918 77.1724V65.5916C100.92 65.0535 100.76 64.5273 100.459 64.0815C100.157 63.6358 99.7288 63.2911 99.2288 63.0924C98.8456 62.9513 98.4403 62.8798 98.032 62.8812H92.6464V62.0716H93.3504V61.4732C93.356 60.8912 93.2359 60.3149 92.9984 59.7836C92.8067 59.3642 92.5579 58.9733 92.2592 58.622C91.9237 58.237 91.5321 57.9048 91.0976 57.6364C90.1366 57.0374 89.0267 56.7203 87.8944 56.7212C86.9168 56.7216 85.9559 56.9746 85.1048 57.4557C84.2537 57.9367 83.5414 58.6295 83.0368 59.4668C82.686 60.0897 82.504 60.7935 82.5088 61.5084V62.1068H83.248V62.9164H77.5104C77.1912 62.9255 76.8771 62.9988 76.5869 63.1318C76.2966 63.2649 76.036 63.455 75.8208 63.6908C75.329 64.2162 75.0526 64.9072 75.0464 65.6268V77.0668L75.2576 77.102L76.4192 74.0396V66.718C76.4166 66.3846 76.4807 66.0541 76.6076 65.7458C76.7346 65.4375 76.9218 65.1577 77.1584 64.9228C77.6431 64.4342 78.3006 64.156 78.9888 64.1484Z" fill="#A1A1A1"/>
<path fill-rule="evenodd" clip-rule="evenodd" d="M76.1026 77.7357C76.8414 76.9919 77.5349 76.2043 78.1794 75.3773L76.9826 74.6733L75.6802 78.1441L76.1026 77.7357Z" fill="#A1A1A1"/>
<path fill-rule="evenodd" clip-rule="evenodd" d="M80.1855 66.2959H82.8959L81.9807 64.8527H78.9887C78.7522 64.846 78.5169 64.8896 78.2984 64.9807C78.08 65.0717 77.8834 65.208 77.7215 65.3807C77.5511 65.5516 77.4166 65.7549 77.3259 65.9786C77.2352 66.2022 77.1902 66.4418 77.1935 66.6831V73.8991L78.4959 74.6735V68.0911C78.4863 67.6302 78.658 67.184 78.9739 66.8483C79.2899 66.5126 79.7249 66.3143 80.1855 66.2959Z" fill="#A1A1A1"/>
</svg>
