<svg width="176" height="176" viewBox="0 0 176 176" fill="none" xmlns="http://www.w3.org/2000/svg">
<path d="M105.438 78.1614C106.494 77.6334 107.304 77.2814 108.043 76.8238C108.309 76.5904 108.474 76.2618 108.5 75.9086C108.571 75.0638 108.536 74.1838 108.536 73.1982C109.416 73.1982 110.225 73.163 111 73.2334C111.176 73.2334 111.387 73.515 111.422 73.691C111.485 74.0984 111.508 74.511 111.492 74.923C112.971 74.1486 114.344 73.4446 115.716 72.7054C117.582 71.7198 119.483 70.699 121.348 69.7134C121.489 69.643 121.665 69.467 121.806 69.5022C122.264 69.5374 122.827 69.5022 123.108 69.7486C123.496 70.1358 123.179 71.051 122.616 71.3326C121.137 72.0718 119.659 72.7758 118.216 73.515L111.035 77.1054C104.91 80.0974 98.797 83.0894 92.6956 86.0814L87.838 88.5102C87.6102 88.6303 87.3751 88.7361 87.134 88.827C86.9339 88.8318 86.7338 88.82 86.5356 88.7918C86.6412 88.5806 86.6412 88.2638 86.8172 88.1934C87.8732 87.595 88.9292 87.0318 89.9852 86.4334C90.9004 85.9406 92.1324 85.659 92.59 84.8846C93.0476 84.1102 92.7661 82.8782 92.8013 81.8574V73.2158C93.6813 73.2158 94.4909 73.1806 95.2653 73.251C95.4412 73.2862 95.7228 73.779 95.7228 74.0606C95.758 76.2078 95.758 78.3902 95.758 80.5374V81.5582C95.9729 81.5134 96.1845 81.4546 96.3916 81.3822C98.2924 80.3966 100.228 79.411 102.094 78.355C102.231 78.2519 102.344 78.1193 102.423 77.967C102.502 77.8147 102.546 77.6465 102.552 77.475C102.587 76.1022 102.587 74.7294 102.587 73.2862H105.438V78.1614Z" fill="#A1A1A1"/>
<path d="M86.2891 89.5312C87.1339 89.8128 87.9787 90.0592 88.7883 90.376C94.9131 92.5232 101.038 94.6822 107.163 96.8528C111.739 98.472 116.315 100.126 120.891 101.746C123.073 102.52 125.22 103.259 127.403 104.034C127.684 104.139 128.001 104.174 128.177 104.386C128.424 104.632 128.776 105.054 128.705 105.301C128.677 105.421 128.622 105.533 128.543 105.628C128.465 105.723 128.366 105.799 128.254 105.85C128.142 105.901 128.019 105.926 127.896 105.922C127.773 105.918 127.652 105.886 127.544 105.829C126.417 105.406 125.291 104.949 124.164 104.526L112.64 100.091C112.393 99.9857 112.112 99.9153 111.654 99.7745V103.435C111.654 105.019 111.654 105.019 109.859 104.843V101.112C109.859 98.7536 109.859 98.7536 107.571 98.12C107.219 98.0144 106.867 97.9088 106.339 97.768V104.738C106.198 104.843 106.163 104.878 106.128 104.878C104.579 105.019 104.579 105.019 104.579 103.435C104.579 101.851 104.614 100.338 104.544 98.7888C104.53 98.607 104.471 98.4314 104.373 98.2778C104.275 98.1243 104.14 97.9975 103.981 97.9088C101.235 96.8528 98.4894 95.8673 95.7438 94.8465C95.6382 94.8113 95.5326 94.8112 95.2862 94.7408V104.808H93.4558V103.893C93.4558 100.408 93.4206 96.9233 93.4558 93.4385C93.4885 93.1748 93.4244 92.9082 93.2756 92.6882C93.1267 92.4681 92.9031 92.3095 92.6462 92.2416C90.8158 91.5728 88.9854 90.8688 87.155 90.1648C86.803 90.024 86.4862 89.848 86.1694 89.7072C86.2173 89.6544 86.2575 89.5952 86.2891 89.5312Z" fill="#A1A1A1"/>
<path d="M90.2316 77.6334C89.3868 77.6334 88.6476 77.6686 87.9084 77.5982C87.7764 77.5605 87.6537 77.4956 87.5482 77.4077C87.4428 77.3198 87.3568 77.2108 87.2959 77.0878C86.5567 75.187 83.4239 74.4478 81.9103 75.8206C81.1007 76.595 81.2415 77.7214 82.3327 78.2142C83.2964 78.5766 84.2845 78.8707 85.2895 79.0942C86.1695 79.3406 87.0847 79.5166 87.9647 79.7982C88.6587 79.9958 89.2822 80.3864 89.7628 80.9246C90.2434 81.4628 90.5612 82.1265 90.6792 82.8383C90.7972 83.5501 90.7106 84.2808 90.4295 84.9453C90.1483 85.6099 89.6842 86.1808 89.0911 86.5918C88.2563 87.1392 87.3243 87.5215 86.3455 87.7182C84.0575 88.0702 81.7343 88.0702 79.7279 86.627C78.4255 85.6766 77.8975 84.339 77.8623 82.6494C78.7423 82.6494 79.5519 82.6142 80.3263 82.6494C80.5023 82.6494 80.7839 82.8606 80.7839 83.0014C80.9951 84.9374 82.4031 85.4654 83.9871 85.6414C84.8089 85.6773 85.6308 85.5701 86.4159 85.3246C86.7948 85.2294 87.1286 85.0051 87.3599 84.6903C87.5912 84.3754 87.7055 83.9898 87.6831 83.5998C87.6479 82.6846 87.0495 82.1918 86.2399 81.9806C84.7967 81.5934 83.3535 81.2766 81.9103 80.8894C80.7487 80.5726 79.5871 80.1854 78.8831 79.059C77.6511 77.0526 78.5311 74.5534 80.9599 73.5678C83.3887 72.5822 85.8527 72.6174 88.1759 73.9902C89.6332 74.7118 90.3724 75.8734 90.2316 77.6334Z" fill="#A1A1A1"/>
<path d="M60.4879 77.6335C60.1478 77.6158 59.8071 77.6158 59.4671 77.6335C58.4463 77.7039 57.5663 77.7391 57.2847 76.4015C57.2011 76.1877 57.0683 75.9966 56.8971 75.8437C56.7258 75.6908 56.521 75.5804 56.2991 75.5215C55.2422 75.3342 54.1652 75.2869 53.0959 75.3807C52.714 75.4017 52.3557 75.5723 52.0987 75.8556C51.8417 76.139 51.7068 76.5121 51.7231 76.8943C51.7231 77.7391 52.3215 78.1967 53.0607 78.3727C54.6799 78.8303 56.2991 79.1823 57.8831 79.6047C59.1855 79.9215 60.2063 80.6255 60.7343 81.8927C61.1063 82.7619 61.1509 83.7365 60.8597 84.6361C60.5684 85.5357 59.9612 86.2992 59.1503 86.7855C56.7567 88.2991 52.3919 88.1935 50.1039 86.6095C49.576 86.2349 49.1337 85.7525 48.806 85.1943C48.4784 84.636 48.2729 84.0146 48.2031 83.3711C48.1327 82.8079 48.3087 82.5615 48.9071 82.5967C49.2229 82.6319 49.5417 82.6319 49.8575 82.5967C50.6671 82.5263 51.1599 82.6319 51.3359 83.6527C51.4415 84.2159 52.0751 84.8495 52.6383 85.1311C53.2754 85.4632 53.9777 85.651 54.6955 85.6815C55.4133 85.7119 56.129 85.5841 56.7919 85.3071C57.6719 84.9551 58.1295 84.2863 58.0943 83.4767C58.0239 82.5615 57.4255 82.1391 56.6159 81.9279C54.9263 81.4703 53.2367 81.0831 51.5471 80.5903C49.9983 80.1679 48.9775 79.1471 48.8015 77.5279C48.6255 75.8383 49.4703 74.6063 50.8783 73.7615C53.2367 72.3887 57.1791 72.6351 59.2559 74.3951C59.7417 74.7672 60.1144 75.2673 60.332 75.8393C60.5496 76.4113 60.6035 77.0326 60.4879 77.6335Z" fill="#A1A1A1"/>
<path d="M63.0573 73.2687H65.8733C65.8733 73.5855 65.9085 73.9375 65.9085 74.2543V81.5055C65.8956 82.132 65.9546 82.758 66.0845 83.3711C66.3661 84.6383 67.2813 85.2367 68.4781 85.4127C69.1073 85.5183 69.7497 85.5183 70.3789 85.4127C72.0685 85.1663 72.9133 84.1807 72.9485 82.3855C72.9837 79.7103 72.9485 77.0351 72.9485 74.3599C72.9485 73.1631 72.9485 73.1631 74.1101 73.1631H75.9053C75.9405 73.5855 75.9405 73.9023 75.9405 74.2543V82.1039C75.9405 85.3423 74.3213 87.2783 71.0829 87.7007C69.1117 87.9471 67.1053 87.9471 65.3101 86.8207C63.9725 86.0111 63.1629 84.8143 63.1277 83.3007C63.0221 80.3087 63.0925 77.3167 63.0925 74.3247C63.0607 73.9736 63.0489 73.6211 63.0573 73.2687Z" fill="#A1A1A1"/>
<path d="M69.1819 105.266C66.1899 105.16 63.6555 104.174 62.3179 101.358C60.9803 98.5424 61.1563 95.656 63.0571 93.0512C64.2891 91.3616 66.0843 90.5872 68.0907 90.4112C70.5899 90.1648 72.9835 90.5168 74.8491 92.488C77.1019 94.8816 77.4891 97.7328 76.3979 100.725C75.3419 103.576 73.0891 104.949 70.1323 105.23C69.8164 105.26 69.4991 105.271 69.1819 105.266ZM69.1819 103.822C72.7019 104.034 75.1307 101.394 75.1307 97.8032C75.1307 94.2128 72.8075 91.7488 69.2875 91.7488C65.5915 91.7488 63.2683 94.072 63.2683 97.768C63.2683 101.464 65.5915 103.84 69.1819 103.84V103.822Z" fill="#A1A1A1"/>
<path d="M90.6894 94.7759C89.3518 95.0927 89.2814 94.9871 88.683 93.8607C88.3266 93.2061 87.7888 92.6683 87.1342 92.3119C86.3052 91.8747 85.3776 91.658 84.4406 91.6827C83.5037 91.7073 82.5888 91.9725 81.7838 92.4527C80.9742 92.9103 80.6926 93.6847 80.763 94.5999C80.8334 95.5151 81.4318 95.9375 82.171 96.1487C83.9662 96.6415 85.7966 96.9583 87.5918 97.4511C88.4748 97.6737 89.3098 98.0554 90.0558 98.5775C92.0622 100.126 91.499 103.4 89.035 104.456C87.7289 105.031 86.3146 105.319 84.8876 105.301C83.4606 105.282 82.0541 104.958 80.763 104.35C79.2494 103.681 78.5102 102.344 78.4398 100.689C78.4046 100.302 78.475 99.9503 78.9678 100.021C79.4606 100.091 80.1294 99.6687 80.1998 100.513C80.411 102.485 81.643 103.365 83.4382 103.646C84.9518 103.893 86.4654 103.963 87.9086 103.224C88.7886 102.766 89.4926 102.168 89.4926 101.077C89.4926 99.9855 88.683 99.4223 87.803 99.1407C86.2542 98.6479 84.635 98.3311 83.051 97.9439C82.432 97.8005 81.821 97.6243 81.2206 97.4159C79.9886 96.9583 79.1086 96.1487 78.9678 94.7407C78.8899 94.0769 79.0004 93.4047 79.2868 92.8008C79.5732 92.197 80.0238 91.686 80.587 91.3263C82.2062 90.1999 84.0366 90.1647 85.9022 90.3759C86.78 90.5101 87.6337 90.771 88.4366 91.1503C89.123 91.4714 89.7014 91.985 90.1013 92.6286C90.5013 93.2723 90.7056 94.0183 90.6894 94.7759Z" fill="#A1A1A1"/>
<path d="M54.4332 97.6978C55.0668 96.8882 55.5596 96.2194 56.0524 95.5506C56.9676 94.3186 57.9884 93.1218 58.798 91.7842C59.502 90.6226 60.382 90.4466 61.6844 90.7282C61.4028 91.1154 61.1916 91.5026 60.91 91.8546C59.1852 94.1074 57.4604 96.325 55.7708 98.5778C55.5234 98.915 55.388 99.3213 55.3836 99.7394C55.3484 101.394 55.3484 103.083 55.3484 104.703C55.1724 104.773 55.102 104.843 55.0316 104.843C53.5532 104.949 53.5532 104.949 53.5532 103.471V102.344C53.5532 98.9298 53.5532 98.9298 51.406 96.2194C50.1036 94.565 48.8716 92.8754 47.5692 91.221C47.4636 91.0802 47.3932 90.9394 47.2876 90.7986C48.59 90.341 49.1884 90.5522 49.9276 91.5378C51.3004 93.4034 52.7084 95.269 54.0812 97.1346C54.2187 97.3089 54.3368 97.4978 54.4332 97.6978Z" fill="#A1A1A1"/>
<path d="M102.833 91.045C102.919 91.0519 103.003 91.0758 103.08 91.1154C105.438 91.7842 105.121 91.5026 105.051 89.3202C105.051 88.8626 104.769 88.6866 104.347 88.8274C103.08 89.285 101.672 89.4258 101.003 90.9394C100.827 91.3618 100.299 91.6434 99.8765 91.925C99.8061 91.9954 99.5949 91.8546 99.4189 91.8194C99.4893 91.6434 99.5245 91.397 99.6301 91.3618C100.229 91.0802 100.827 90.8338 100.44 89.989C100.405 89.9186 100.651 89.7778 100.792 89.637C101.038 89.3906 101.249 89.109 101.531 88.7922C100.897 88.581 100.405 88.405 99.9117 88.2642V88.0178C100.545 87.8066 101.214 87.5602 101.813 87.349C101.637 86.9618 101.32 86.5746 101.39 86.3282C101.461 86.0818 101.953 85.9762 102.305 85.8002C101.848 85.5186 101.39 85.2722 100.827 84.9554C101.596 84.7835 102.35 84.548 103.08 84.2514C103.889 83.8994 103.925 83.4066 103.291 82.7378C103.889 82.4562 104.241 82.7026 104.558 83.1954C104.721 83.4285 104.923 83.6311 105.157 83.7938C105.368 83.9698 105.579 84.1106 105.79 84.2866C105.579 84.4626 105.368 84.6738 105.157 84.8498C104.937 84.9952 104.701 85.1134 104.453 85.2018C104.819 85.3854 105.195 85.5499 105.579 85.6946C105.157 85.9762 104.875 86.117 104.453 86.3634C105.192 86.6098 106.142 85.7298 106.529 86.9618L104.945 87.173C104.945 87.2786 104.91 87.4194 104.91 87.525C105.403 87.6306 105.861 87.7362 106.353 87.8066C106.846 87.877 107.585 87.525 107.867 88.5458C107.574 88.5635 107.28 88.5635 106.987 88.5458C105.966 88.4402 105.861 88.5106 105.825 89.5666C105.855 90.2831 105.831 91.0007 105.755 91.7138C105.649 92.6642 105.227 92.805 104.453 92.277C103.995 91.8898 103.397 91.4674 102.833 91.045ZM104.875 88.0882C103.573 87.4194 102.904 87.5954 102.446 88.7218C103.256 88.5458 103.96 88.3522 104.875 88.0882Z" fill="#A1A1A1"/>
<path d="M126.065 91.4321C125.467 91.2913 125.009 91.1857 124.587 91.0449C122.51 90.3409 122.51 90.3409 120.996 91.7841C120.715 92.0657 120.679 92.8049 120.011 92.4529C119.342 92.1009 118.567 91.6785 118.532 90.6929C118.532 90.1297 118.567 89.5313 118.603 88.9681C118.673 88.2641 118.849 87.5601 118.884 86.8209C118.88 86.3901 118.809 85.9626 118.673 85.5537C119.764 85.2369 120.82 84.8849 121.947 84.6033C122.367 84.5035 122.807 84.5279 123.214 84.6737C123.742 84.8497 124.023 85.2369 123.601 85.8001C123.566 85.8705 123.46 85.9409 123.46 86.0113C123.143 87.9825 121.524 88.3697 120.011 88.8625C119.342 89.1089 118.743 90.7281 119.166 91.3265C119.269 91.4201 119.393 91.488 119.528 91.5247C119.662 91.5614 119.804 91.5659 119.94 91.5377C120.416 91.3354 120.865 91.0753 121.278 90.7633C121.415 90.6685 121.545 90.5625 121.665 90.4465C121.63 90.3409 121.595 90.2705 121.559 90.2705C121.278 90.0945 120.961 89.9537 120.679 89.7777C120.932 89.5342 121.202 89.3106 121.489 89.1089C121.979 88.7514 122.497 88.4336 123.038 88.1585C123.249 88.0529 123.531 88.1937 123.812 88.2289C123.716 88.4737 123.598 88.7093 123.46 88.9329C123.319 89.1441 123.108 89.3201 122.932 89.5313C123.168 89.6696 123.415 89.7874 123.671 89.8833C124.551 90.1297 125.607 90.0593 126.065 91.4321ZM119.835 86.1873L120.046 86.6097C120.855 86.2929 121.665 86.0113 122.475 85.6593C122.58 85.5889 122.58 85.2017 122.58 84.9553C122.519 84.9139 122.45 84.8862 122.377 84.874C122.304 84.8619 122.229 84.8656 122.158 84.8849C121.383 85.3073 120.609 85.7649 119.835 86.1873ZM120.433 87.7361C121.243 87.8065 121.876 87.5953 122.017 86.6801C121.489 86.9969 120.961 87.3489 120.433 87.7361Z" fill="#A1A1A1"/>
<path d="M113.252 91.0446C114.872 90.7982 114.942 90.763 114.907 89.2494C114.907 87.8414 114.836 86.4334 114.801 85.0254C114.801 84.3214 114.414 84.2862 113.886 84.4622C113.662 84.5072 113.448 84.5906 113.252 84.7086C112.513 85.1662 111.844 85.0606 110.964 84.427C112.584 84.075 113.921 83.195 115.505 83.9342C115.998 84.1454 116.068 84.4622 115.998 85.0254C115.857 86.1518 115.892 87.3134 115.822 88.4398C115.752 89.5662 115.716 90.6574 115.611 91.7486C115.576 92.171 115.259 92.3118 114.872 92.0302C114.351 91.6706 113.811 91.3415 113.252 91.0446Z" fill="#A1A1A1"/>
<path d="M109.31 87.4542C109.557 88.299 109.979 88.1934 110.542 87.947C111.211 87.6302 111.845 87.1726 112.654 87.5246C113.182 87.7358 113.464 88.0174 113.147 88.651C113.006 88.9326 112.936 89.2142 112.795 89.531C112.76 89.6014 112.795 89.6718 112.76 89.707C111.909 90.0728 111.025 90.3558 110.12 90.5518C109.874 90.587 109.381 89.8478 109.24 89.3902C108.853 88.0878 108.888 88.0526 109.31 87.4542ZM111.669 88.4398C111.528 88.475 111.352 88.475 111.282 88.5102C111 88.6862 110.718 88.8974 110.437 89.1086C110.542 89.2142 110.718 89.4254 110.754 89.3902C111.096 89.1757 111.425 88.9406 111.739 88.6862C111.706 88.6071 111.683 88.5244 111.669 88.4398Z" fill="#A1A1A1"/>
<path d="M109.24 86.3633C110.19 86.1169 111.07 85.8353 111.95 85.6593C112.28 85.6482 112.607 85.7209 112.901 85.8705C112.964 85.9134 113.017 85.9709 113.053 86.0383C113.09 86.1057 113.11 86.181 113.112 86.2577C113.112 86.3281 112.901 86.4337 112.795 86.4689C112.267 86.6449 111.774 86.8209 111.246 86.9969C110.155 87.4193 109.979 87.3841 109.24 86.3633Z" fill="#A1A1A1"/>
<path d="M120.645 83.1599C121.384 82.9839 122.053 82.8079 122.721 83.5119C121.56 84.0047 120.504 84.4271 119.413 84.9199C119.68 84.1807 120.856 84.1807 120.645 83.1599Z" fill="#A1A1A1"/>
<path d="M102.833 91.0448C102.622 90.7632 102.411 90.5168 102.235 90.2352C102.552 90.024 102.833 89.6016 103.15 89.6016C103.572 89.6016 103.995 89.8832 104.417 90.0592C104.382 90.2 104.382 90.3056 104.347 90.4464H102.552C102.624 90.6552 102.718 90.8558 102.833 91.0448Z" fill="#A1A1A1"/>
<path d="M117.541 105.372V105.912H116.154V110.46H115.49V105.912H114.095V105.372H117.541ZM119.57 116.408V121.46H118.906V117.693L117.227 121.46H116.76L115.074 117.686V121.46H114.409V116.408H115.125L116.993 120.584L118.862 116.408H119.57Z" fill="#A1A1A1"/>
</svg>
