<svg width="120" height="120" viewBox="0 0 120 120" fill="none" xmlns="http://www.w3.org/2000/svg">
<g clip-path="url(#clip0_191_6558)">
<path d="M60.1648 46.6172C33.3518 43.4655 20.8391 42.1013 1.50548 39.8434C0.846911 39.8434 0.282426 39.7493 0.376507 40.8312C4.5631 55.0845 5.12758 57.4365 10.5843 75.9233C11.7603 79.2632 13.6419 80.157 15.4765 80.157H104.571C106.406 80.157 108.287 79.2632 109.463 75.9233C114.873 57.4365 115.484 55.0845 119.671 40.8312C119.765 39.7493 119.201 39.8434 118.542 39.8434C99.2083 42.1013 86.9778 43.4655 60.1648 46.6172Z" fill="white"/>
<path d="M60.1648 46.6172C33.3518 43.4655 20.8391 42.1013 1.50548 39.8434C0.846911 39.8434 0.282426 39.7493 0.376507 40.8312C4.5631 55.0845 5.12758 57.4365 10.5843 75.9233C11.7603 79.2632 13.6419 80.157 15.4765 80.157H104.571C106.406 80.157 108.287 79.2632 109.463 75.9233C114.873 57.4365 115.484 55.0845 119.671 40.8312C119.765 39.7493 119.2 39.8434 118.542 39.8434C99.2083 42.1484 86.9778 43.4655 60.1648 46.6172Z" stroke="white" stroke-width="2.02" stroke-miterlimit="3.86"/>
<path d="M60.0236 48.5929C84.2023 45.8646 98.6437 44.03 115.955 42.0543C116.566 42.0073 117.131 41.6309 116.848 42.6658C114.449 51.086 113.697 53.7203 109.369 68.6791C108.522 71.4075 107.299 71.0782 105.37 71.0782H14.6767C12.748 71.0782 11.525 71.4075 10.6782 68.6791C6.35051 53.7203 5.59787 51.1331 3.19881 42.6658C2.91657 41.6309 3.48105 42.0073 4.09257 42.0543C21.4505 44.077 35.8448 45.9116 60.0236 48.5929Z" fill="white"/>
<path d="M60.0236 48.5929C84.2023 45.8646 98.6437 44.03 115.955 42.0543C116.566 42.0073 117.131 41.6309 116.848 42.6658C114.449 51.086 113.697 53.7203 109.369 68.6792C108.522 71.4075 107.299 71.0782 105.37 71.0782H14.6767C12.748 71.0782 11.525 71.4075 10.6782 68.6792C6.35051 53.7203 5.59787 51.1331 3.19881 42.6658C2.91657 41.6309 3.48105 42.0073 4.09257 42.0543C21.4505 44.077 35.8448 45.9116 60.0236 48.5929Z" stroke="white" stroke-width="2.02" stroke-miterlimit="3.86"/>
<path fill-rule="evenodd" clip-rule="evenodd" d="M17.4993 74.1355H17.7815C18.4871 74.1355 19.0986 74.747 19.0986 75.4526C19.0986 76.1582 18.4871 76.7697 17.7815 76.7697H17.4993V74.1355ZM16.3232 77.7105H18.0167C19.2868 77.7105 20.3217 76.6757 20.3687 75.4056C20.3687 74.1355 19.3338 73.1006 18.0167 73.1006H16.3232V77.7105Z" fill="white"/>
<path d="M17.4993 74.1355H17.7815C18.4871 74.1355 19.0986 74.747 19.0986 75.4526C19.0986 76.1582 18.4871 76.7697 17.7815 76.7697H17.4993V74.1355ZM16.3232 77.7105H18.0167C19.2868 77.7105 20.3217 76.6757 20.3687 75.4056C20.3687 74.1355 19.3338 73.1006 18.0167 73.1006H16.3232V77.7105Z" stroke="white" stroke-width="0.12" stroke-miterlimit="3.86"/>
<path fill-rule="evenodd" clip-rule="evenodd" d="M28.9767 74.0416C29.6823 74.0416 30.2468 74.559 30.2938 75.2646C30.3409 75.9702 29.8234 76.6288 29.0708 76.6758C28.3652 76.7229 27.7066 76.2054 27.6596 75.4528C27.6125 74.7472 28.13 74.0886 28.8826 74.0416C28.8826 74.0416 28.9297 74.0416 28.9767 74.0416ZM28.9767 72.9126C27.6125 72.9596 26.5306 74.0886 26.5776 75.4528C26.6247 76.8169 27.7537 77.8989 29.1178 77.8518C30.482 77.8048 31.5639 76.6758 31.5169 75.3117C31.5169 73.9945 30.435 72.9126 29.0708 72.9126C29.0237 72.9126 28.9767 72.9126 28.9767 72.9126Z" fill="white"/>
<path d="M28.9767 74.0416C29.6823 74.0416 30.2468 74.559 30.2938 75.2646C30.3409 75.9702 29.8234 76.6288 29.0708 76.6758C28.3652 76.7229 27.7066 76.2054 27.6596 75.4528C27.6125 74.7472 28.13 74.0886 28.8826 74.0416C28.8826 74.0416 28.9297 74.0416 28.9767 74.0416ZM28.9767 72.9126C27.6125 72.9596 26.5306 74.0886 26.5776 75.4528C26.6247 76.8169 27.7537 77.8989 29.1178 77.8518C30.482 77.8048 31.5639 76.6758 31.5169 75.3117C31.5169 73.9945 30.435 72.9126 29.0708 72.9126C29.0237 72.9126 28.9767 72.9126 28.9767 72.9126Z" stroke="white" stroke-width="0.12" stroke-miterlimit="3.86"/>
<path fill-rule="evenodd" clip-rule="evenodd" d="M40.7369 73.0068V75.4529C40.7369 76.0645 40.6899 76.723 39.9372 76.723C39.1846 76.723 39.1375 76.0645 39.1375 75.4529V73.0068H37.9145V75.5941C37.8675 76.2056 38.0086 76.7701 38.3849 77.2405C38.8083 77.6168 39.3727 77.805 39.9372 77.7579C40.5017 77.805 41.0662 77.6168 41.4896 77.2405C41.96 76.7701 41.96 76.2056 41.96 75.5941V73.0068H40.7369Z" fill="white"/>
<path d="M40.7369 73.0068V75.4529C40.7369 76.0645 40.6899 76.723 39.9372 76.723C39.1846 76.723 39.1375 76.0645 39.1375 75.4529V73.0068H37.9145V75.5941C37.8675 76.2056 38.0086 76.7701 38.3849 77.2405C38.8083 77.6168 39.3727 77.805 39.9372 77.7579C40.5017 77.805 41.0662 77.6168 41.4896 77.2405C41.96 76.7701 41.96 76.2056 41.96 75.5941V73.0068H40.7369Z" stroke="white" stroke-width="0.12" stroke-miterlimit="3.86"/>
<path d="M50.8034 75.0767V76.0175H51.6971C51.6501 76.4879 51.1797 76.8642 50.7093 76.8171C49.9096 76.8171 49.4862 76.0645 49.4862 75.3589C49.4862 74.6533 49.9096 73.9006 50.7093 73.9006C51.1797 73.9006 51.6031 74.1829 51.6971 74.6533L52.8261 74.1829C52.4968 73.3362 51.6501 72.8187 50.7563 72.8658C49.3922 72.8658 48.2632 73.9477 48.2632 75.3119C48.2632 76.676 49.3451 77.805 50.7093 77.805C51.4619 77.805 52.1675 77.4757 52.6379 76.9112C53.0143 76.3938 53.1554 75.7352 53.1083 75.0767H50.8034Z" fill="white"/>
<path d="M50.8034 75.0767V76.0175H51.6971C51.6501 76.4879 51.1797 76.8642 50.7093 76.8171C49.9096 76.8171 49.4862 76.0645 49.4862 75.3589C49.4862 74.6533 49.9096 73.9006 50.7093 73.9006C51.1797 73.9006 51.6031 74.1829 51.6971 74.6533L52.8261 74.1829C52.4968 73.3362 51.6501 72.8187 50.7563 72.8658C49.3922 72.8658 48.2632 73.9477 48.2632 75.3119C48.2632 76.676 49.3451 77.805 50.7093 77.805C51.4619 77.805 52.1675 77.4757 52.6379 76.9112C53.0143 76.3938 53.1554 75.7352 53.1083 75.0767H50.8034Z" stroke="white" stroke-width="0.12" stroke-miterlimit="3.86"/>
<path fill-rule="evenodd" clip-rule="evenodd" d="M60.5878 74.8412V73.0537H59.3647V77.6637H60.5878V75.7821H62.3283V77.6637H63.5043V73.0537H62.3283V74.8412H60.5878Z" fill="white"/>
<path d="M60.5878 74.8412V73.0537H59.3647V77.6637H60.5878V75.7821H62.3283V77.6637H63.5043V73.0537H62.3283V74.8412H60.5878Z" stroke="white" stroke-width="0.12" stroke-miterlimit="3.86"/>
<path fill-rule="evenodd" clip-rule="evenodd" d="M70.0903 77.6637H71.2663V74.8412L73.4772 77.6637H74.7003V73.0537H73.4772V75.8761L71.2663 73.0537H70.0903V77.6637Z" fill="white"/>
<path d="M70.0903 77.6637H71.2663V74.8412L73.4772 77.6637H74.7003V73.0537H73.4772V75.8761L71.2663 73.0537H70.0903V77.6637Z" stroke="white" stroke-width="0.12" stroke-miterlimit="3.86"/>
<path fill-rule="evenodd" clip-rule="evenodd" d="M84.0611 73.0537V75.4998C84.0611 76.1113 84.0141 76.7699 83.2614 76.7699C82.5088 76.7699 82.4618 76.1113 82.4618 75.4998V73.0537H81.2387V75.6409C81.1917 76.2525 81.3328 76.8169 81.7091 77.2873C82.1325 77.6637 82.697 77.8518 83.2614 77.8048C83.8259 77.8518 84.3904 77.6637 84.8138 77.2873C85.2842 76.8169 85.2842 76.2525 85.2842 75.6409V73.0537H84.0611Z" fill="white"/>
<path d="M84.0611 73.0537V75.4998C84.0611 76.1113 84.0141 76.7699 83.2614 76.7699C82.5088 76.7699 82.4618 76.1113 82.4618 75.4998V73.0537H81.2387V75.6409C81.1917 76.2525 81.3328 76.8169 81.7091 77.2873C82.1325 77.6637 82.697 77.8518 83.2614 77.8048C83.8259 77.8518 84.3904 77.6637 84.8138 77.2873C85.2842 76.8169 85.2842 76.2525 85.2842 75.6409V73.0537H84.0611Z" stroke="white" stroke-width="0.12" stroke-miterlimit="3.86"/>
<path d="M93.6102 74.0886H94.9743V73.0537H91.0229V74.0886H92.3871V77.6637H93.6102V74.0886Z" fill="white"/>
<path d="M93.6102 74.0886H94.9743V73.0537H91.0229V74.0886H92.3871V77.6637H93.6102V74.0886Z" stroke="white" stroke-width="0.12" stroke-miterlimit="3.86"/>
<path fill-rule="evenodd" clip-rule="evenodd" d="M103.818 73.289C103.347 73.0538 102.877 72.9127 102.36 72.9127C101.513 72.8657 100.807 73.4772 100.76 74.2769C100.76 74.3239 100.76 74.371 100.76 74.465C100.76 75.3588 101.278 75.547 102.03 75.7822C102.266 75.8762 102.783 75.9703 102.783 76.2996C102.783 76.6289 102.501 76.77 102.219 76.77C101.795 76.723 101.419 76.5818 101.137 76.2996L100.619 77.2875C101.09 77.6167 101.654 77.8049 102.266 77.8049C102.736 77.8049 103.206 77.6638 103.583 77.3815C103.912 77.0523 104.1 76.5818 104.053 76.1114C104.053 75.3588 103.536 75.0295 102.924 74.8414L102.595 74.7473C102.407 74.7002 102.077 74.5591 102.077 74.3239C102.077 74.0887 102.36 73.9476 102.595 73.9476C102.877 73.9476 103.159 74.0887 103.395 74.2769L103.818 73.289Z" fill="white"/>
<path d="M103.818 73.289C103.347 73.0538 102.877 72.9127 102.36 72.9127C101.513 72.8657 100.807 73.4772 100.76 74.2769C100.76 74.3239 100.76 74.371 100.76 74.465C100.76 75.3588 101.278 75.547 102.03 75.7822C102.266 75.8762 102.783 75.9703 102.783 76.2996C102.783 76.6289 102.501 76.77 102.219 76.77C101.795 76.723 101.419 76.5818 101.137 76.2996L100.619 77.2875C101.09 77.6167 101.654 77.8049 102.266 77.8049C102.736 77.8049 103.206 77.6638 103.583 77.3815C103.912 77.0523 104.1 76.5818 104.053 76.1114C104.053 75.3588 103.536 75.0295 102.924 74.8414L102.595 74.7473C102.407 74.7002 102.077 74.5591 102.077 74.3239C102.077 74.0887 102.36 73.9476 102.595 73.9476C102.877 73.9476 103.159 74.0887 103.395 74.2769L103.818 73.289Z" stroke="white" stroke-width="0.12" stroke-miterlimit="3.86"/>
<path d="M37.9618 50.6625H58.8947C59.7885 50.7096 60.6352 50.3803 61.2938 49.7688C61.576 49.5336 61.8583 49.5336 61.8583 49.8158C61.8583 49.9569 60.2589 53.579 58.095 53.579H37.9618C38.6203 52.7323 38.6203 51.5092 37.9618 50.6625ZM45.9116 59.365C45.7234 59.6943 44.4063 63.0341 44.4063 63.0341C44.03 63.9279 44.5945 64.3983 44.9708 64.4924C45.8175 64.7276 46.6642 64.069 47.558 61.717C48.9692 58.0008 46.335 58.5183 45.9116 59.365ZM36.5035 62.4226C37.7736 62.9871 37.2562 64.7746 36.3624 64.9628C35.939 65.2921 37.6795 66.1388 38.4322 64.3983C39.1848 62.6578 38.197 60.9173 38.1029 60.494C37.4914 61.1055 36.9739 61.764 36.5035 62.4226ZM47.2287 65.2921C49.3926 64.6335 51.1801 61.8111 51.5564 60.8703C52.4032 58.6594 53.1088 56.9659 53.1088 56.9659H55.696C55.696 56.9659 53.8614 61.3877 53.0617 63.5986C52.3091 65.7154 54.4259 63.9279 55.3197 61.5759C56.0723 59.5531 57.0602 57.06 57.0602 57.06H59.7415C59.7415 57.06 56.6368 64.7746 56.3075 65.4802C57.2954 65.198 58.5655 65.9977 58.4243 66.327C58.001 67.6441 57.7187 65.6684 55.8842 66.2329C54.8963 68.679 52.6384 70.8428 50.8508 70.5606C48.5459 70.2313 49.91 67.0796 53.7673 65.9506L54.0966 65.0098C52.1209 66.6562 50.1923 65.6684 50.6627 63.7397C49.5337 65.245 47.6991 66.0918 45.8175 65.9506C44.9708 66.0918 44.1241 65.7625 43.6537 65.0569C43.0421 66.7033 42.1484 68.8671 42.1484 68.8671H39.6082L40.9253 65.5273C40.0315 66.0447 38.9496 66.327 37.9147 66.2799C36.6917 66.7033 35.3275 65.9977 34.9041 64.7746C33.0225 67.2678 30.9527 66.374 30.6705 64.8217C29.8708 65.6684 28.9771 66.2799 28.1774 66.2799C26.2487 66.1858 26.7191 63.3164 27.0484 62.3285C27.9422 59.7884 28.883 58.7535 27.0954 58.7064C26.8132 58.7064 24.6493 66.9855 20.745 67.3619C17.1229 67.6911 18.5341 64.8217 19.1456 63.1753C20.0864 60.541 21.1213 59.2239 20.6039 58.236C20.2275 57.4834 18.0166 59.0357 17.3581 60.7292C16.5114 62.893 14.7238 67.4089 14.7238 67.4089L11.3369 67.503C11.3369 67.503 14.1123 60.4469 16.8406 53.3909C17.7344 51.0859 16.3702 51.0388 15.3353 51.0859C14.4886 51.1329 14.8179 50.3803 15.4294 50.3332C18.6752 50.098 19.8512 50.1451 20.2275 50.3803C20.745 50.7096 20.9332 51.3681 20.745 51.9326C20.1335 53.4849 19.0515 56.2133 18.9104 56.6837C18.44 58.0479 19.4279 56.7307 19.7101 56.4014C19.9923 56.0722 22.0621 53.7672 22.4384 53.2027C22.8148 52.6382 24.7434 50.7566 25.9665 50.7566H34.4337C33.7281 51.6033 33.7281 52.8264 34.4337 53.6731H24.7905C24.1319 53.6731 22.6736 54.4728 21.5447 55.837C20.6039 56.9659 21.8269 56.5896 21.8269 56.5896C23.7085 56.4014 25.402 55.9781 22.4384 62.4697C19.616 68.679 23.8497 65.7625 26.2958 58.236C26.3898 57.9538 25.6372 57.6245 25.6372 57.1071C25.5901 56.4485 25.402 55.6958 26.578 55.6958C27.754 55.6958 27.3306 56.8718 28.3185 57.1541C30.2942 57.7656 31.3761 57.1541 30.3412 59.6472C29.3534 62.0463 28.2714 65.0569 29.5415 64.6806C30.059 64.4924 30.5294 64.1161 30.7646 63.6457C32.1288 59.9295 33.3048 57.013 33.3048 57.013H35.8449C35.8449 57.013 34.9041 59.412 33.0696 64.022C32.411 65.6214 33.7281 64.7276 34.6689 63.6927C34.716 63.1282 35.0923 62.6578 35.6097 62.4697C36.5976 61.0114 39.8434 56.4485 39.8434 56.4485C39.9845 56.5896 40.0315 56.8248 39.8904 56.9659C39.6082 57.3893 40.1256 59.5532 40.3608 60.2588C40.7372 61.3407 41.3016 64.022 39.7963 65.2921C39.5141 65.5273 39.2319 65.7154 38.9026 65.9036C39.7023 65.7154 40.5019 65.3862 41.1605 64.8687L44.2181 57.013H46.7583C46.7583 57.013 46.6642 57.2482 46.5231 57.6245C47.1346 57.06 47.9814 56.8248 48.8281 56.9659C49.5337 57.1541 51.8857 57.3423 49.2515 62.7049C48.734 63.6927 48.0755 64.5865 47.2287 65.2921ZM51.4153 68.9612C52.215 68.4438 52.8736 67.7382 53.344 66.8914C52.5443 67.1266 51.7916 67.55 51.1331 68.1145C50.3334 68.8201 50.7097 69.4316 51.4153 68.9612ZM34.763 52.1208C34.763 51.3681 35.3745 50.7566 36.1272 50.7566C36.8798 50.7566 37.4914 51.3681 37.4914 52.1208C37.4914 52.8734 36.8798 53.4849 36.1272 53.4849C35.3745 53.4849 34.763 52.8734 34.763 52.1208ZM81.6152 61.717C82.9324 61.764 84.4847 60.9644 84.814 60.3528C85.1433 59.7413 85.0962 58.6123 84.2495 58.5653C83.4968 58.6123 82.0386 59.2239 81.6152 61.717ZM107.44 63.8809C104.947 67.2678 101.231 66.8444 100.337 63.6927C99.7258 64.9157 98.832 66.1388 97.1856 66.2799C95.2099 66.4681 95.0217 64.4924 95.2569 63.4575C95.4921 62.4226 95.8214 61.9522 96.6211 59.6943C97.1856 58.1419 95.5392 58.9416 94.5984 60.4469C93.9398 62.2815 92.3875 66.2799 92.3875 66.2799C92.3875 66.2799 91.5878 66.2329 89.8473 66.1858C90.0825 65.1039 91.4937 61.9522 92.2934 59.6943C92.8579 58.0949 91.1644 58.9416 90.2236 60.494C90.1766 60.541 90.1766 60.588 90.1295 60.6351L87.8716 66.2329H85.2373L86.0841 64.1161C85.8018 64.3983 85.4725 64.6806 85.1433 64.9158C81.7564 67.3148 80.157 65.5743 79.5925 63.8809C78.6046 65.0569 77.4286 66.1388 76.3937 66.0918C74.4651 65.9977 74.9355 63.1282 75.2648 62.1404C76.1585 59.6002 77.0994 58.5653 75.3118 58.5183C75.0296 58.5183 72.8657 66.7974 68.9614 67.1737C65.3393 67.503 66.7505 64.6335 67.362 62.9871C68.3028 60.3528 69.3377 59.0357 68.8203 58.0479C68.4439 57.2952 66.233 58.8475 65.5745 60.541C64.7277 62.7049 62.9402 67.2207 62.9402 67.2207L59.5533 67.2678C59.5533 67.2678 62.3287 60.2117 65.057 53.1557C65.9508 50.8507 64.5866 50.8036 63.5517 50.8507C62.705 50.8977 63.0343 50.1451 63.6458 50.098C66.8916 49.8628 68.0676 49.9099 68.4439 50.1451C68.9143 50.5214 69.1495 51.1329 68.9614 51.6974C68.3499 53.2497 67.2679 55.9781 67.1268 56.4014C66.6564 57.8127 67.6442 56.4485 67.9265 56.1192C68.2087 55.7899 70.2785 53.4849 70.6548 52.9205C71.0312 52.356 72.9598 50.4744 74.2299 50.4744H107.205C108.099 50.5214 108.946 50.1921 109.604 49.5806C109.886 49.3454 110.169 49.3454 110.169 49.6276C110.169 49.7688 108.569 53.3909 106.406 53.3909H73.0539C72.3953 53.3909 70.9371 54.1905 69.8081 55.5547C68.8673 56.6837 70.0903 56.3074 70.0903 56.3074C71.972 56.1192 73.6654 55.6958 70.7019 62.1874C67.8794 68.3967 72.1131 65.4802 74.5592 57.9538C74.6533 57.6715 73.9006 57.3423 73.9006 56.8248C73.8536 56.1662 73.6654 55.4136 74.8414 55.4136C76.0174 55.4136 75.5941 56.5896 76.5819 56.8718C78.5576 57.4834 79.6395 56.8718 78.6047 59.365C77.6168 61.764 76.5349 64.7746 77.805 64.3983C78.8399 64.1161 79.1691 62.9871 79.3573 62.6578V62.3756C79.5455 59.8824 81.0037 57.7656 82.2268 57.2011C85.1903 55.884 86.3663 57.5775 86.2722 59.1298C86.1311 61.0584 83.9673 62.3756 81.5212 62.4226C81.4741 62.3756 81.4741 62.4226 81.5212 62.7989C81.8975 65.5743 85.0492 64.069 86.7426 62.1874L88.9065 56.7307H91.6348L91.0704 58.5653C93.0931 56.1662 95.2569 56.8248 95.0688 58.8946L95.1629 58.8005C97.4678 55.7899 100.102 56.9189 99.2083 59.6472C99.0672 60.0706 97.7501 63.7868 97.7501 63.7868C97.7501 63.7868 97.3267 65.0569 98.1264 65.0569C98.832 65.0569 99.7258 63.8338 100.149 62.7049V62.6108C100.008 60.1176 101.56 58.0008 102.783 57.4834C105.747 56.2133 107.017 57.8597 107.017 59.412C107.017 61.3407 104.853 62.6108 102.36 62.7049C102.313 62.6578 102.313 62.7049 102.36 63.0812C103.019 66.374 106.311 64.2101 106.829 63.5986C108.052 62.0463 108.005 63.1282 107.44 63.8809ZM102.313 61.717C103.63 61.764 105.182 60.9644 105.512 60.3528C105.841 59.7413 105.7 58.6123 104.853 58.5653C104.101 58.6123 102.642 59.2239 102.313 61.717Z" fill="white"/>
<path d="M47.2287 65.2921C49.3926 64.6335 51.1801 61.8111 51.5564 60.8703C52.4032 58.6594 53.1088 56.9659 53.1088 56.9659H55.696C55.696 56.9659 53.8614 61.3877 53.0617 63.5986C52.3091 65.7154 54.4259 63.9279 55.3197 61.5759C56.0723 59.5531 57.0602 57.06 57.0602 57.06H59.7415C59.7415 57.06 56.6368 64.7746 56.3075 65.4802C57.2954 65.198 58.5655 65.9977 58.4243 66.327C58.001 67.6441 57.7187 65.6684 55.8842 66.2329C54.8963 68.679 52.6384 70.8428 50.8508 70.5606C48.5459 70.2313 49.91 67.0796 53.7673 65.9506L54.0966 65.0098C52.1209 66.6562 50.1923 65.6684 50.6627 63.7397C49.5337 65.245 47.6991 66.0918 45.8175 65.9506C44.9708 66.0918 44.1241 65.7625 43.6537 65.0569C43.0421 66.7033 42.1484 68.8671 42.1484 68.8671H39.6082L40.9253 65.5273C40.0315 66.0447 38.9496 66.327 37.9147 66.2799C36.6917 66.7033 35.3275 65.9977 34.9041 64.7746C33.0225 67.2678 30.9528 66.374 30.6705 64.8217C29.8708 65.6684 28.9771 66.2799 28.1774 66.2799C26.2487 66.1858 26.7191 63.3164 27.0484 62.3285C27.9422 59.7884 28.883 58.7535 27.0954 58.7064C26.8132 58.7064 24.6493 66.9855 20.745 67.3619C17.1229 67.6911 18.5341 64.8217 19.1456 63.1753C20.0864 60.541 21.1213 59.2239 20.6039 58.236C20.2275 57.4834 18.0166 59.0357 17.3581 60.7292C16.5114 62.893 14.7238 67.4089 14.7238 67.4089L11.3369 67.503C11.3369 67.503 14.1123 60.4469 16.8406 53.3909C17.7344 51.0859 16.3702 51.0388 15.3353 51.0859C14.4886 51.1329 14.8179 50.3803 15.4294 50.3332C18.6752 50.098 19.8512 50.1451 20.2275 50.3803C20.745 50.7096 20.9331 51.3681 20.745 51.9326C20.1335 53.4849 19.0515 56.2133 18.9104 56.6837C18.44 58.0479 19.4279 56.7307 19.7101 56.4014C19.9923 56.0722 22.0621 53.7672 22.4384 53.2027C22.8148 52.6382 24.7434 50.7566 25.9665 50.7566H34.4337C33.7281 51.6033 33.7281 52.8264 34.4337 53.6731H24.7905C24.1319 53.6731 22.6736 54.4728 21.5447 55.837C20.6039 56.9659 21.8269 56.5896 21.8269 56.5896C23.7085 56.4014 25.402 55.9781 22.4384 62.4697C19.616 68.679 23.8497 65.7625 26.2958 58.236C26.3898 57.9538 25.6372 57.6245 25.6372 57.1071C25.5901 56.4485 25.402 55.6958 26.578 55.6958C27.754 55.6958 27.3306 56.8718 28.3185 57.1541C30.2942 57.7656 31.3761 57.1541 30.3412 59.6472C29.3534 62.0463 28.2714 65.0569 29.5415 64.6806C30.059 64.4924 30.5294 64.1161 30.7646 63.6457C32.1288 59.9295 33.3048 57.013 33.3048 57.013H35.8449C35.8449 57.013 34.9041 59.412 33.0696 64.022C32.411 65.6214 33.7281 64.7276 34.6689 63.6927C34.716 63.1282 35.0923 62.6578 35.6097 62.4697C36.5976 61.0114 39.8434 56.4485 39.8434 56.4485C39.9845 56.5896 40.0315 56.8248 39.8904 56.9659C39.6082 57.3893 40.1256 59.5532 40.3608 60.2588C40.7372 61.3407 41.3016 64.022 39.7963 65.2921C39.5141 65.5273 39.2319 65.7154 38.9026 65.9036C39.7023 65.7154 40.5019 65.3862 41.1605 64.8687L44.2181 57.013H46.7583C46.7583 57.013 46.6642 57.2482 46.5231 57.6245C47.1346 57.06 47.9814 56.8248 48.8281 56.9659C49.5337 57.1541 51.8857 57.3423 49.2515 62.7049C48.734 63.6927 48.0754 64.5865 47.2287 65.2921ZM51.4153 68.9612C52.215 68.4438 52.8736 67.7382 53.344 66.8914C52.5443 67.1266 51.7916 67.55 51.1331 68.1145C50.3334 68.8201 50.7097 69.4316 51.4153 68.9612ZM34.763 52.1208C34.763 51.3681 35.3745 50.7566 36.1272 50.7566C36.8798 50.7566 37.4914 51.3681 37.4914 52.1208C37.4914 52.8734 36.8798 53.4849 36.1272 53.4849C35.3745 53.4849 34.763 52.8734 34.763 52.1208ZM81.6152 61.717C82.9324 61.764 84.4847 60.9644 84.814 60.3528C85.1433 59.7413 85.0962 58.6123 84.2495 58.5653C83.4969 58.6123 82.0386 59.2239 81.6152 61.717ZM107.44 63.8809C104.947 67.2678 101.231 66.8444 100.337 63.6927C99.7258 64.9157 98.832 66.1388 97.1856 66.2799C95.2099 66.4681 95.0217 64.4924 95.2569 63.4575C95.4921 62.4226 95.8214 61.9522 96.6211 59.6943C97.1856 58.1419 95.5392 58.9416 94.5984 60.4469C93.9398 62.2815 92.3875 66.2799 92.3875 66.2799C92.3875 66.2799 91.5878 66.2329 89.8473 66.1858C90.0825 65.1039 91.4937 61.9522 92.2934 59.6943C92.8579 58.0949 91.1644 58.9416 90.2236 60.494C90.1766 60.541 90.1766 60.588 90.1295 60.6351L87.8716 66.2329H85.2373L86.0841 64.1161C85.8018 64.3983 85.4725 64.6806 85.1433 64.9158C81.7564 67.3148 80.157 65.5743 79.5925 63.8809C78.6046 65.0569 77.4286 66.1388 76.3937 66.0918C74.4651 65.9977 74.9355 63.1282 75.2648 62.1404C76.1585 59.6002 77.0994 58.5653 75.3118 58.5183C75.0296 58.5183 72.8657 66.7974 68.9614 67.1737C65.3393 67.503 66.7505 64.6335 67.362 62.9871C68.3028 60.3528 69.3377 59.0357 68.8203 58.0479C68.4439 57.2952 66.233 58.8475 65.5745 60.541C64.7277 62.7049 62.9402 67.2207 62.9402 67.2207L59.5533 67.2678C59.5533 67.2678 62.3287 60.2117 65.057 53.1557C65.9508 50.8507 64.5866 50.8036 63.5517 50.8507C62.705 50.8977 63.0343 50.1451 63.6458 50.098C66.8916 49.8628 68.0676 49.9099 68.4439 50.1451C68.9143 50.5214 69.1495 51.1329 68.9614 51.6974C68.3499 53.2497 67.2679 55.9781 67.1268 56.4014C66.6564 57.8127 67.6442 56.4485 67.9265 56.1192C68.2087 55.7899 70.2785 53.4849 70.6548 52.9205C71.0312 52.356 72.9598 50.4744 74.2299 50.4744H107.205C108.099 50.5214 108.946 50.1921 109.604 49.5806C109.886 49.3454 110.169 49.3454 110.169 49.6276C110.169 49.7688 108.569 53.3909 106.406 53.3909H73.0539C72.3953 53.3909 70.9371 54.1905 69.8081 55.5547C68.8673 56.6837 70.0903 56.3074 70.0903 56.3074C71.972 56.1192 73.6654 55.6958 70.7019 62.1874C67.8794 68.3967 72.1131 65.4802 74.5592 57.9538C74.6533 57.6715 73.9006 57.3423 73.9006 56.8248C73.8536 56.1662 73.6654 55.4136 74.8414 55.4136C76.0174 55.4136 75.5941 56.5896 76.5819 56.8718C78.5576 57.4834 79.6395 56.8718 78.6047 59.365C77.6168 61.764 76.5349 64.7746 77.805 64.3983C78.8398 64.1161 79.1691 62.9871 79.3573 62.6578V62.3756C79.5455 59.8824 81.0037 57.7656 82.2268 57.2011C85.1903 55.884 86.3663 57.5775 86.2722 59.1298C86.1311 61.0584 83.9673 62.3756 81.5212 62.4226C81.4741 62.3756 81.4741 62.4226 81.5212 62.7989C81.8975 65.5743 85.0492 64.069 86.7426 62.1874L88.9065 56.7307H91.6348L91.0704 58.5653C93.0931 56.1662 95.2569 56.8248 95.0688 58.8946L95.1629 58.8005C97.4678 55.7899 100.102 56.9189 99.2083 59.6472C99.0672 60.0706 97.7501 63.7868 97.7501 63.7868C97.7501 63.7868 97.3267 65.0569 98.1264 65.0569C98.832 65.0569 99.7258 63.8338 100.149 62.7049V62.6108C100.008 60.1176 101.56 58.0008 102.783 57.4834C105.747 56.2133 107.017 57.8597 107.017 59.412C107.017 61.3407 104.853 62.6108 102.36 62.7049C102.313 62.6578 102.313 62.7049 102.36 63.0812C103.019 66.374 106.311 64.2101 106.829 63.5986C108.052 62.0463 108.005 63.1282 107.44 63.8809ZM102.313 61.717C103.63 61.764 105.182 60.9644 105.512 60.3528C105.841 59.7413 105.7 58.6123 104.853 58.5653C104.101 58.6123 102.642 59.2239 102.313 61.717Z" stroke="white" stroke-width="2.02" stroke-miterlimit="3.86"/>
<path d="M37.9617 50.6623H58.8947C59.7884 50.7094 60.6352 50.3801 61.2937 49.7686C61.576 49.5334 61.8582 49.5334 61.8582 49.8156C61.8582 49.9567 60.2588 53.5788 58.095 53.5788H37.9617C38.6203 52.7321 38.6203 51.5091 37.9617 50.6623ZM45.9115 59.3648C45.7234 59.6941 44.4062 63.034 44.4062 63.034C44.0299 63.9277 44.5944 64.3981 44.9707 64.4922C45.8174 64.7274 46.6642 64.0689 47.5579 61.7168C48.9691 58.0006 46.3349 58.5181 45.9115 59.3648ZM36.5034 62.4224C37.7735 62.9869 37.2561 64.7745 36.3623 64.9626C35.939 65.2919 37.6794 66.1386 38.4321 64.3981C39.1847 62.6576 38.1969 60.9171 38.1028 60.4938C37.4913 61.1053 36.9738 61.7639 36.5034 62.4224Z" stroke="white" stroke-width="2.02" stroke-miterlimit="3.86"/>
<path d="M60.1648 46.6172C33.3518 43.4655 20.8391 42.1013 1.50548 39.8434C0.846911 39.8434 0.282426 39.7493 0.376507 40.8312C4.5631 55.0845 5.12758 57.4365 10.5843 75.9233C11.7603 79.2632 13.6419 80.157 15.4765 80.157H104.571C106.406 80.157 108.287 79.2632 109.463 75.9233C114.873 57.4365 115.484 55.0845 119.671 40.8312C119.765 39.7493 119.201 39.8434 118.542 39.8434C99.2083 42.1013 86.9778 43.4655 60.1648 46.6172Z" fill="white"/>
<path d="M60.0236 48.5929C84.2023 45.8646 98.6437 44.03 115.955 42.0543C116.566 42.0073 117.131 41.6309 116.848 42.6658C114.449 51.086 113.697 53.7203 109.369 68.6791C108.522 71.4075 107.299 71.0782 105.37 71.0782H14.6767C12.748 71.0782 11.525 71.4075 10.6782 68.6791C6.35051 53.7203 5.59787 51.1331 3.19881 42.6658C2.91657 41.6309 3.48105 42.0073 4.09257 42.0543C21.4505 44.077 35.8448 45.9116 60.0236 48.5929Z" fill="#A1A1A1"/>
<path d="M37.9618 50.6625H58.8947C59.7885 50.7096 60.6352 50.3803 61.2938 49.7688C61.576 49.5336 61.8583 49.5336 61.8583 49.8158C61.8583 49.9569 60.2589 53.579 58.095 53.579H37.9618C38.6203 52.7323 38.6203 51.5092 37.9618 50.6625ZM45.9116 59.365C45.7234 59.6943 44.4063 63.0341 44.4063 63.0341C44.03 63.9279 44.5945 64.3983 44.9708 64.4924C45.8175 64.7276 46.6642 64.069 47.558 61.717C48.9692 58.0008 46.335 58.5183 45.9116 59.365ZM36.5035 62.4226C37.7736 62.9871 37.2562 64.7746 36.3624 64.9628C35.939 65.2921 37.6795 66.1388 38.4322 64.3983C39.1848 62.6578 38.197 60.9173 38.1029 60.494C37.4914 61.1055 36.9739 61.764 36.5035 62.4226ZM47.2287 65.2921C49.3926 64.6335 51.1801 61.8111 51.5564 60.8703C52.4032 58.6594 53.1088 56.9659 53.1088 56.9659H55.696C55.696 56.9659 53.8614 61.3877 53.0617 63.5986C52.3091 65.7154 54.4259 63.9279 55.3197 61.5759C56.0723 59.5531 57.0602 57.06 57.0602 57.06H59.7415C59.7415 57.06 56.6368 64.7746 56.3075 65.4802C57.2954 65.198 58.5655 65.9977 58.4243 66.327C58.001 67.6441 57.7187 65.6684 55.8842 66.2329C54.8963 68.679 52.6384 70.8428 50.8508 70.5606C48.5459 70.2313 49.91 67.0796 53.7673 65.9506L54.0966 65.0098C52.1209 66.6562 50.1923 65.6684 50.6627 63.7397C49.5337 65.245 47.6991 66.0918 45.8175 65.9506C44.9708 66.0918 44.1241 65.7625 43.6537 65.0569C43.0421 66.7033 42.1484 68.8671 42.1484 68.8671H39.6082L40.9253 65.5273C40.0315 66.0447 38.9496 66.327 37.9147 66.2799C36.6917 66.7033 35.3275 65.9977 34.9041 64.7746C33.0225 67.2678 30.9527 66.374 30.6705 64.8217C29.8708 65.6684 28.9771 66.2799 28.1774 66.2799C26.2487 66.1858 26.7191 63.3164 27.0484 62.3285C27.9422 59.7884 28.883 58.7535 27.0954 58.7064C26.8132 58.7064 24.6493 66.9855 20.745 67.3619C17.1229 67.6911 18.5341 64.8217 19.1456 63.1753C20.0864 60.541 21.1213 59.2239 20.6039 58.236C20.2275 57.4834 18.0166 59.0357 17.3581 60.7292C16.5114 62.893 14.7238 67.4089 14.7238 67.4089L11.3369 67.503C11.3369 67.503 14.1123 60.4469 16.8406 53.3909C17.7344 51.0859 16.3702 51.0388 15.3353 51.0859C14.4886 51.1329 14.8179 50.3803 15.4294 50.3332C18.6752 50.098 19.8512 50.1451 20.2275 50.3803C20.745 50.7096 20.9332 51.3681 20.745 51.9326C20.1335 53.4849 19.0515 56.2133 18.9104 56.6837C18.44 58.0479 19.4279 56.7307 19.7101 56.4014C19.9923 56.0722 22.0621 53.7672 22.4384 53.2027C22.8148 52.6382 24.7434 50.7566 25.9665 50.7566H34.4337C33.7281 51.6033 33.7281 52.8264 34.4337 53.6731H24.7905C24.1319 53.6731 22.6736 54.4728 21.5447 55.837C20.6039 56.9659 21.8269 56.5896 21.8269 56.5896C23.7085 56.4014 25.402 55.9781 22.4384 62.4697C19.616 68.679 23.8497 65.7625 26.2958 58.236C26.3898 57.9538 25.6372 57.6245 25.6372 57.1071C25.5901 56.4485 25.402 55.6958 26.578 55.6958C27.754 55.6958 27.3306 56.8718 28.3185 57.1541C30.2942 57.7656 31.3761 57.1541 30.3412 59.6472C29.3534 62.0463 28.2714 65.0569 29.5415 64.6806C30.059 64.4924 30.5294 64.1161 30.7646 63.6457C32.1288 59.9295 33.3048 57.013 33.3048 57.013H35.8449C35.8449 57.013 34.9041 59.412 33.0696 64.022C32.411 65.6214 33.7281 64.7276 34.6689 63.6927C34.716 63.1282 35.0923 62.6578 35.6097 62.4697C36.5976 61.0114 39.8434 56.4485 39.8434 56.4485C39.9845 56.5896 40.0315 56.8248 39.8904 56.9659C39.6082 57.3893 40.1256 59.5532 40.3608 60.2588C40.7372 61.3407 41.3016 64.022 39.7963 65.2921C39.5141 65.5273 39.2319 65.7154 38.9026 65.9036C39.7023 65.7154 40.5019 65.3862 41.1605 64.8687L44.2181 57.013H46.7583C46.7583 57.013 46.6642 57.2482 46.5231 57.6245C47.1346 57.06 47.9814 56.8248 48.8281 56.9659C49.5337 57.1541 51.8857 57.3423 49.2515 62.7049C48.734 63.6927 48.0755 64.5865 47.2287 65.2921ZM51.4153 68.9612C52.215 68.4438 52.8736 67.7382 53.344 66.8914C52.5443 67.1266 51.7916 67.55 51.1331 68.1145C50.3334 68.8201 50.7097 69.4316 51.4153 68.9612ZM34.763 52.1208C34.763 51.3681 35.3745 50.7566 36.1272 50.7566C36.8798 50.7566 37.4914 51.3681 37.4914 52.1208C37.4914 52.8734 36.8798 53.4849 36.1272 53.4849C35.3745 53.4849 34.763 52.8734 34.763 52.1208ZM81.6152 61.717C82.9324 61.764 84.4847 60.9644 84.814 60.3528C85.1433 59.7413 85.0962 58.6123 84.2495 58.5653C83.4968 58.6123 82.0386 59.2239 81.6152 61.717ZM107.44 63.8809C104.947 67.2678 101.231 66.8444 100.337 63.6927C99.7258 64.9157 98.832 66.1388 97.1856 66.2799C95.2099 66.4681 95.0217 64.4924 95.2569 63.4575C95.4921 62.4226 95.8214 61.9522 96.6211 59.6943C97.1856 58.1419 95.5392 58.9416 94.5984 60.4469C93.9398 62.2815 92.3875 66.2799 92.3875 66.2799C92.3875 66.2799 91.5878 66.2329 89.8473 66.1858C90.0825 65.1039 91.4937 61.9522 92.2934 59.6943C92.8579 58.0949 91.1644 58.9416 90.2236 60.494C90.1766 60.541 90.1766 60.588 90.1295 60.6351L87.8716 66.2329H85.2373L86.0841 64.1161C85.8018 64.3983 85.4725 64.6806 85.1433 64.9158C81.7564 67.3148 80.157 65.5743 79.5925 63.8809C78.6046 65.0569 77.4286 66.1388 76.3937 66.0918C74.4651 65.9977 74.9355 63.1282 75.2648 62.1404C76.1585 59.6002 77.0994 58.5653 75.3118 58.5183C75.0296 58.5183 72.8657 66.7974 68.9614 67.1737C65.3393 67.503 66.7505 64.6335 67.362 62.9871C68.3028 60.3528 69.3377 59.0357 68.8203 58.0479C68.4439 57.2952 66.233 58.8475 65.5745 60.541C64.7277 62.7049 62.9402 67.2207 62.9402 67.2207L59.5533 67.2678C59.5533 67.2678 62.3287 60.2117 65.057 53.1557C65.9508 50.8507 64.5866 50.8036 63.5517 50.8507C62.705 50.8977 63.0343 50.1451 63.6458 50.098C66.8916 49.8628 68.0676 49.9099 68.4439 50.1451C68.9143 50.5214 69.1495 51.1329 68.9614 51.6974C68.3499 53.2497 67.2679 55.9781 67.1268 56.4014C66.6564 57.8127 67.6442 56.4485 67.9265 56.1192C68.2087 55.7899 70.2785 53.4849 70.6548 52.9205C71.0312 52.356 72.9598 50.4744 74.2299 50.4744H107.205C108.099 50.5214 108.946 50.1921 109.604 49.5806C109.886 49.3454 110.169 49.3454 110.169 49.6276C110.169 49.7688 108.569 53.3909 106.406 53.3909H73.0539C72.3953 53.3909 70.9371 54.1905 69.8081 55.5547C68.8673 56.6837 70.0903 56.3074 70.0903 56.3074C71.972 56.1192 73.6654 55.6958 70.7019 62.1874C67.8794 68.3967 72.1131 65.4802 74.5592 57.9538C74.6533 57.6715 73.9006 57.3423 73.9006 56.8248C73.8536 56.1662 73.6654 55.4136 74.8414 55.4136C76.0174 55.4136 75.5941 56.5896 76.5819 56.8718C78.5576 57.4834 79.6395 56.8718 78.6047 59.365C77.6168 61.764 76.5349 64.7746 77.805 64.3983C78.8399 64.1161 79.1691 62.9871 79.3573 62.6578V62.3756C79.5455 59.8824 81.0037 57.7656 82.2268 57.2011C85.1903 55.884 86.3663 57.5775 86.2722 59.1298C86.1311 61.0584 83.9673 62.3756 81.5212 62.4226C81.4741 62.3756 81.4741 62.4226 81.5212 62.7989C81.8975 65.5743 85.0492 64.069 86.7426 62.1874L88.9065 56.7307H91.6348L91.0704 58.5653C93.0931 56.1662 95.2569 56.8248 95.0688 58.8946L95.1629 58.8005C97.4678 55.7899 100.102 56.9189 99.2083 59.6472C99.0672 60.0706 97.7501 63.7868 97.7501 63.7868C97.7501 63.7868 97.3267 65.0569 98.1264 65.0569C98.832 65.0569 99.7258 63.8338 100.149 62.7049V62.6108C100.008 60.1176 101.56 58.0008 102.783 57.4834C105.747 56.2133 107.017 57.8597 107.017 59.412C107.017 61.3407 104.853 62.6108 102.36 62.7049C102.313 62.6578 102.313 62.7049 102.36 63.0812C103.019 66.374 106.311 64.2101 106.829 63.5986C108.052 62.0463 108.005 63.1282 107.44 63.8809ZM102.313 61.717C103.63 61.764 105.182 60.9644 105.512 60.3528C105.841 59.7413 105.7 58.6123 104.853 58.5653C104.101 58.6123 102.642 59.2239 102.313 61.717Z" fill="white"/>
<path fill-rule="evenodd" clip-rule="evenodd" d="M106.594 73.8063C106.735 73.8063 106.876 73.8063 107.017 73.8534C107.158 73.9004 107.252 74.0886 107.252 74.2297C107.252 74.3238 107.205 74.4649 107.111 74.5119C107.064 74.559 106.97 74.559 106.876 74.606C106.97 74.606 107.064 74.6531 107.111 74.7472C107.158 74.8412 107.205 74.8883 107.205 74.9824V75.2646H106.97V75.0764C106.97 74.8883 106.923 74.7942 106.829 74.7472C106.735 74.7001 106.688 74.7001 106.546 74.7001H106.358V75.3116H106.076V73.8063H106.594ZM106.876 74.0415C106.829 73.9945 106.688 73.9945 106.546 73.9945H106.311V74.606H106.546C106.641 74.606 106.735 74.606 106.782 74.559C106.876 74.512 106.923 74.4179 106.923 74.3238C106.97 74.2297 106.923 74.0886 106.876 74.0415ZM107.581 75.5468C107.346 75.8291 106.97 75.9702 106.594 75.9232C106.217 75.9232 105.888 75.782 105.653 75.4998C105.135 74.9353 105.135 74.1356 105.653 73.5711C105.888 73.3359 106.217 73.1948 106.594 73.1948C106.97 73.1948 107.299 73.3359 107.581 73.5711C107.817 73.8063 107.958 74.1356 107.958 74.5119C107.958 74.8883 107.817 75.2646 107.581 75.5468ZM105.794 73.7593C105.276 74.2297 105.229 75.0294 105.7 75.5468C106.17 76.0643 106.97 76.1113 107.487 75.6409C108.005 75.1705 108.052 74.3708 107.581 73.8534C107.346 73.6182 107.017 73.43 106.641 73.43C106.311 73.383 105.982 73.5241 105.794 73.7593Z" fill="white"/>
<path d="M50.8034 75.0767V76.0175H51.6971C51.6501 76.4879 51.1797 76.8642 50.7093 76.8171C49.9096 76.8171 49.4862 76.0645 49.4862 75.3589C49.4862 74.6533 49.9096 73.9006 50.7093 73.9006C51.1797 73.9006 51.6031 74.1829 51.6971 74.6533L52.8261 74.1829C52.4968 73.3362 51.6501 72.8187 50.7563 72.8658C49.3922 72.8658 48.2632 73.9477 48.2632 75.3119C48.2632 76.676 49.3451 77.805 50.7093 77.805C51.4619 77.805 52.1675 77.4757 52.6379 76.9112C53.0143 76.3938 53.1554 75.7352 53.1083 75.0767H50.8034Z" fill="white"/>
<path d="M50.8034 75.0767V76.0175H51.6971C51.6501 76.4879 51.1797 76.8642 50.7093 76.8171C49.9096 76.8171 49.4862 76.0645 49.4862 75.3589C49.4862 74.6533 49.9096 73.9006 50.7093 73.9006C51.1797 73.9006 51.6031 74.1829 51.6971 74.6533L52.8261 74.1829C52.4968 73.3362 51.6501 72.8187 50.7563 72.8658C49.3922 72.8658 48.2632 73.9477 48.2632 75.3119C48.2632 76.676 49.3451 77.805 50.7093 77.805C51.4619 77.805 52.1675 77.4757 52.6379 76.9112C53.0143 76.3938 53.1554 75.7352 53.1083 75.0767H50.8034Z" fill="#A1A1A1"/>
<path d="M93.6102 74.0886H94.9743V73.0537H91.0229V74.0886H92.3871V77.6637H93.6102V74.0886Z" fill="white"/>
<path d="M93.6102 74.0886H94.9743V73.0537H91.0229V74.0886H92.3871V77.6637H93.6102V74.0886Z" fill="#A1A1A1"/>
<path fill-rule="evenodd" clip-rule="evenodd" d="M17.4993 74.1355H17.7815C18.4871 74.1355 19.0986 74.747 19.0986 75.4526C19.0986 76.1582 18.4871 76.7697 17.7815 76.7697H17.4993V74.1355ZM16.3232 77.7105H18.0167C19.2868 77.7105 20.3217 76.6757 20.3687 75.4056C20.3687 74.1355 19.3338 73.1006 18.0167 73.1006H16.3232V77.7105Z" fill="white"/>
<path d="M17.4993 74.1355H17.7815C18.4871 74.1355 19.0986 74.747 19.0986 75.4526C19.0986 76.1582 18.4871 76.7697 17.7815 76.7697H17.4993V74.1355ZM16.3232 77.7105H18.0167C19.2868 77.7105 20.3217 76.6757 20.3687 75.4056C20.3687 74.1355 19.3338 73.1006 18.0167 73.1006H16.3232V77.7105Z" fill="#A1A1A1"/>
<path fill-rule="evenodd" clip-rule="evenodd" d="M28.9767 74.0416C29.6823 74.0416 30.2468 74.559 30.2938 75.2646C30.3409 75.9702 29.8234 76.6288 29.0708 76.6758C28.3652 76.7229 27.7066 76.2054 27.6596 75.4528C27.6125 74.7472 28.13 74.0886 28.8826 74.0416C28.8826 74.0416 28.9297 74.0416 28.9767 74.0416ZM28.9767 72.9126C27.6125 72.9596 26.5306 74.0886 26.5776 75.4528C26.6247 76.8169 27.7537 77.8989 29.1178 77.8518C30.482 77.8048 31.5639 76.6758 31.5169 75.3117C31.5169 73.9945 30.435 72.9126 29.0708 72.9126C29.0237 72.9126 28.9767 72.9126 28.9767 72.9126Z" fill="white"/>
<path d="M28.9767 74.0416C29.6823 74.0416 30.2468 74.559 30.2938 75.2646C30.3409 75.9702 29.8234 76.6288 29.0708 76.6758C28.3652 76.7229 27.7066 76.2054 27.6596 75.4528C27.6125 74.7472 28.13 74.0886 28.8826 74.0416C28.8826 74.0416 28.9297 74.0416 28.9767 74.0416ZM28.9767 72.9126C27.6125 72.9596 26.5306 74.0886 26.5776 75.4528C26.6247 76.8169 27.7537 77.8989 29.1178 77.8518C30.482 77.8048 31.5639 76.6758 31.5169 75.3117C31.5169 73.9945 30.435 72.9126 29.0708 72.9126C29.0237 72.9126 28.9767 72.9126 28.9767 72.9126Z" fill="#A1A1A1"/>
<path fill-rule="evenodd" clip-rule="evenodd" d="M40.7369 73.0068V75.4529C40.7369 76.0645 40.6899 76.723 39.9372 76.723C39.1846 76.723 39.1375 76.0645 39.1375 75.4529V73.0068H37.9145V75.5941C37.8675 76.2056 38.0086 76.7701 38.3849 77.2405C38.8083 77.6168 39.3727 77.805 39.9372 77.7579C40.5017 77.805 41.0662 77.6168 41.4896 77.2405C41.96 76.7701 41.96 76.2056 41.96 75.5941V73.0068H40.7369Z" fill="white"/>
<path d="M40.7369 73.0068V75.4529C40.7369 76.0645 40.6899 76.723 39.9372 76.723C39.1846 76.723 39.1375 76.0645 39.1375 75.4529V73.0068H37.9145V75.5941C37.8675 76.2056 38.0086 76.7701 38.3849 77.2405C38.8083 77.6168 39.3727 77.805 39.9372 77.7579C40.5017 77.805 41.0662 77.6168 41.4896 77.2405C41.96 76.7701 41.96 76.2056 41.96 75.5941V73.0068H40.7369Z" fill="#A1A1A1"/>
<path fill-rule="evenodd" clip-rule="evenodd" d="M60.5878 74.8412V73.0537H59.3647V77.6637H60.5878V75.7821H62.3283V77.6637H63.5043V73.0537H62.3283V74.8412H60.5878Z" fill="white"/>
<path d="M60.5878 74.8412V73.0537H59.3647V77.6637H60.5878V75.7821H62.3283V77.6637H63.5043V73.0537H62.3283V74.8412H60.5878Z" fill="#A1A1A1"/>
<path fill-rule="evenodd" clip-rule="evenodd" d="M70.0903 77.6637H71.2663V74.8412L73.4772 77.6637H74.7003V73.0537H73.4772V75.8761L71.2663 73.0537H70.0903V77.6637Z" fill="white"/>
<path d="M70.0903 77.6637H71.2663V74.8412L73.4772 77.6637H74.7003V73.0537H73.4772V75.8761L71.2663 73.0537H70.0903V77.6637Z" fill="#A1A1A1"/>
<path fill-rule="evenodd" clip-rule="evenodd" d="M84.0611 73.0537V75.4998C84.0611 76.1113 84.0141 76.7699 83.2614 76.7699C82.5088 76.7699 82.4618 76.1113 82.4618 75.4998V73.0537H81.2387V75.6409C81.1917 76.2525 81.3328 76.8169 81.7091 77.2873C82.1325 77.6637 82.697 77.8518 83.2614 77.8048C83.8259 77.8518 84.3904 77.6637 84.8138 77.2873C85.2842 76.8169 85.2842 76.2525 85.2842 75.6409V73.0537H84.0611Z" fill="white"/>
<path d="M84.0611 73.0537V75.4998C84.0611 76.1113 84.0141 76.7699 83.2614 76.7699C82.5088 76.7699 82.4618 76.1113 82.4618 75.4998V73.0537H81.2387V75.6409C81.1917 76.2525 81.3328 76.8169 81.7091 77.2873C82.1325 77.6637 82.697 77.8518 83.2614 77.8048C83.8259 77.8518 84.3904 77.6637 84.8138 77.2873C85.2842 76.8169 85.2842 76.2525 85.2842 75.6409V73.0537H84.0611Z" fill="#A1A1A1"/>
<path fill-rule="evenodd" clip-rule="evenodd" d="M103.818 73.289C103.347 73.0538 102.877 72.9127 102.36 72.9127C101.513 72.8657 100.807 73.4772 100.76 74.2769C100.76 74.3239 100.76 74.371 100.76 74.465C100.76 75.3588 101.278 75.547 102.03 75.7822C102.266 75.8762 102.783 75.9703 102.783 76.2996C102.783 76.6289 102.501 76.77 102.219 76.77C101.795 76.723 101.419 76.5818 101.137 76.2996L100.619 77.2875C101.09 77.6167 101.654 77.8049 102.266 77.8049C102.736 77.8049 103.206 77.6638 103.583 77.3815C103.912 77.0523 104.1 76.5818 104.053 76.1114C104.053 75.3588 103.536 75.0295 102.924 74.8414L102.595 74.7473C102.407 74.7002 102.077 74.5591 102.077 74.3239C102.077 74.0887 102.36 73.9476 102.595 73.9476C102.877 73.9476 103.159 74.0887 103.395 74.2769L103.818 73.289Z" fill="white"/>
<path d="M103.818 73.289C103.347 73.0538 102.877 72.9127 102.36 72.9127C101.513 72.8657 100.807 73.4772 100.76 74.2769C100.76 74.3239 100.76 74.371 100.76 74.465C100.76 75.3588 101.278 75.547 102.03 75.7822C102.266 75.8762 102.783 75.9703 102.783 76.2996C102.783 76.6289 102.501 76.77 102.219 76.77C101.795 76.723 101.419 76.5818 101.137 76.2996L100.619 77.2875C101.09 77.6167 101.654 77.8049 102.266 77.8049C102.736 77.8049 103.206 77.6638 103.583 77.3815C103.912 77.0523 104.1 76.5818 104.053 76.1114C104.053 75.3588 103.536 75.0295 102.924 74.8414L102.595 74.7473C102.407 74.7002 102.077 74.5591 102.077 74.3239C102.077 74.0887 102.36 73.9476 102.595 73.9476C102.877 73.9476 103.159 74.0887 103.395 74.2769L103.818 73.289Z" fill="#A1A1A1"/>
<path d="M111.062 75.4526H111.345L111.533 74.3707L112.05 75.5467L112.568 74.3707L112.756 75.4526H113.038L112.709 73.5239L112.05 74.9351L111.439 73.5239L111.062 75.4526Z" fill="white"/>
<path fill-rule="evenodd" clip-rule="evenodd" d="M114.732 73.7593C114.59 73.6652 114.449 73.6182 114.261 73.6182C113.744 73.6182 113.32 74.0415 113.32 74.559C113.32 75.0764 113.744 75.4998 114.261 75.4998C114.449 75.4998 114.59 75.4527 114.732 75.3587V75.0294C114.59 75.1235 114.449 75.2175 114.261 75.2175C113.885 75.2175 113.603 74.9353 113.603 74.559C113.603 74.1826 113.885 73.9004 114.261 73.9004C114.449 73.9004 114.59 73.9474 114.732 74.0886V73.7593Z" fill="white"/>
</g>
<defs>
<clipPath id="clip0_191_6558">
<rect width="120" height="120" fill="white"/>
</clipPath>
</defs>
</svg>
