<svg width="176" height="176" viewBox="0 0 176 176" fill="none" xmlns="http://www.w3.org/2000/svg">
<path d="M85.1314 89.1299C84.0402 87.4755 84.1458 85.7507 84.181 84.0259V81.4563C84.2514 78.1475 86.3282 75.9299 89.637 75.7187C90.3779 75.6836 91.1204 75.7189 91.8546 75.8243C93.1349 76.013 94.3037 76.6588 95.1448 77.6423C95.986 78.6258 96.4427 79.8806 96.4306 81.1747C96.501 82.8291 96.501 84.5187 96.4306 86.1731C96.4085 87.5705 95.8531 88.9065 94.878 89.9078C93.903 90.909 92.5821 91.4996 91.1858 91.5587C90.693 91.5939 90.165 91.6291 89.6722 91.6291H79.1122C78.373 91.6291 78.4082 91.6291 78.373 92.4035C78.3684 93.0643 78.3095 93.7236 78.197 94.3747C77.9778 95.5152 77.3911 96.5525 76.5266 97.3281C75.6621 98.1036 74.5673 98.5746 73.4098 98.6691C72.674 98.7569 71.933 98.7922 71.1922 98.7747C70.5938 98.7747 70.3474 98.4931 70.277 97.8947V97.6483C70.2418 96.4867 70.453 96.2755 71.6146 96.2755C72.2033 96.2941 72.7924 96.2587 73.3746 96.1699C73.7748 96.1246 74.1504 95.9537 74.4476 95.6818C74.7448 95.4099 74.9483 95.0509 75.029 94.6563C75.1808 93.7842 75.2632 92.9014 75.2754 92.0163C75.2754 91.9107 75.029 91.7347 74.8882 91.7347C74.0082 91.6995 73.093 91.7347 72.213 91.6995C71.5617 91.6739 70.9139 91.5915 70.277 91.4531C67.8482 90.8195 66.3346 88.9187 66.1938 86.1379C66.0823 84.438 66.0941 82.7322 66.229 81.0339C66.4754 77.9011 68.517 75.9651 71.6498 75.7891C72.392 75.7482 73.1364 75.7955 73.8674 75.9299C76.5778 76.4579 78.3026 78.4643 78.373 81.2451C78.4434 83.6739 78.4082 86.1027 78.4082 88.5315C78.4082 89.2355 78.4082 89.2355 79.077 89.2355H84.3922C84.6257 89.1382 84.88 89.1019 85.1314 89.1299ZM75.2754 84.8003C75.2754 83.6035 75.2754 82.4419 75.2402 81.2451C75.1698 78.9219 74.1842 78.0419 71.861 78.1827C70.277 78.2883 69.3618 78.9923 69.2914 80.5763C69.1858 82.6635 69.1858 84.7547 69.2914 86.8419C69.3618 88.3907 70.2418 89.0947 71.8258 89.1651C72.7762 89.2003 73.7618 89.1651 74.7122 89.2003C75.1698 89.2003 75.2754 89.0243 75.2754 88.6019C75.2402 87.3347 75.2754 86.0675 75.2754 84.8003ZM93.2978 83.6739H93.4034C93.333 82.5123 93.333 81.3155 93.157 80.1539C92.981 78.9923 92.1714 78.3235 90.9746 78.2179C90.7058 78.1886 90.4353 78.1769 90.165 78.1827C88.2994 78.2531 87.3842 79.0627 87.3138 80.9283C87.2434 82.6883 87.2434 84.4835 87.3138 86.2435C87.3842 88.4963 88.2642 89.2355 90.517 89.2003C92.3826 89.1651 93.2274 88.3555 93.333 86.4899C93.333 85.536 93.2978 84.5891 93.2978 83.6739Z" fill="#A1A1A1"/>
<path d="M116.6 91.6641H105.195C103.47 91.6641 101.992 91.0657 100.971 89.5873C100.271 88.5742 99.9022 87.3691 99.9151 86.1377C99.8799 81.5969 99.9151 77.0209 99.9151 72.4801C99.9151 71.8465 100.197 71.6001 100.83 71.5649H102.08C102.713 71.5649 102.995 71.8465 102.995 72.5153V85.6801C103 86.3469 103.094 87.01 103.277 87.6513C103.593 88.6721 104.262 89.1297 105.318 89.1297H107.993C108.416 89.1297 108.557 88.9889 108.521 88.5665C108.486 87.8977 108.521 87.2641 108.521 86.5953C108.521 85.9969 108.803 85.7505 109.401 85.7153H110.704C111.267 85.7505 111.549 85.9969 111.549 86.5601C111.549 87.1233 111.549 87.7569 111.549 88.3905C111.549 89.1297 111.549 89.1297 112.253 89.1297H127.072C127.59 89.1371 128.085 89.3414 128.458 89.701C128.831 90.0606 129.052 90.5485 129.078 91.0657C129.078 91.2417 128.832 91.4529 128.656 91.5937C128.472 91.6434 128.281 91.6553 128.093 91.6289C124.273 91.6641 120.437 91.6641 116.6 91.6641Z" fill="#A1A1A1"/>
<path d="M62.709 79.4849V85.5745C62.7391 86.6612 62.5351 87.7417 62.1106 88.7425C61.301 90.5025 59.9282 91.5585 58.0274 91.5937C54.5426 91.6993 51.0578 91.6641 47.573 91.6641C46.9394 91.6641 46.7634 91.3473 47.0098 90.7841C47.1154 90.5377 47.221 90.3265 47.3266 90.1153C47.4489 89.8366 47.6516 89.6007 47.9086 89.4377C48.1657 89.2747 48.4655 89.192 48.7698 89.2001H51.8674C52.2898 89.2001 52.3954 89.0593 52.3954 88.6369V79.2385C52.3954 78.2529 52.6066 78.0417 53.557 78.0417H54.613C54.7206 78.0367 54.8281 78.0542 54.9286 78.0931C55.0291 78.132 55.1204 78.1915 55.1966 78.2677C55.2728 78.3439 55.3323 78.4352 55.3712 78.5357C55.4101 78.6362 55.4276 78.7437 55.4226 78.8513C55.4578 79.2385 55.4226 79.6257 55.4226 80.0129V88.5665C55.4226 89.0945 55.5634 89.2705 56.0914 89.2001C56.4786 89.1649 56.901 89.2001 57.3234 89.2001C58.309 89.1649 59.013 88.7425 59.2946 87.8273C59.5056 87.1071 59.6123 86.3603 59.6114 85.6097C59.6466 81.3505 59.6114 77.0913 59.6466 72.8673C59.6246 72.6046 59.6606 72.3402 59.7522 72.0929C59.8358 71.9221 59.9768 71.7862 60.1506 71.7089C60.3244 71.6317 60.5198 71.6181 60.7026 71.6705C61.3362 71.7409 62.1106 71.3889 62.5682 72.0929C62.6766 72.3232 62.7134 72.5807 62.6738 72.8321C62.709 74.9441 62.709 77.2321 62.709 79.4849Z" fill="#A1A1A1"/>
<path d="M120.085 75.7892H120.331C121.528 75.578 122.127 76.1764 122.584 77.2324C123.746 79.9076 125.013 82.5476 126.245 85.1876C126.843 86.49 126.808 86.5956 125.365 86.5956H124.767C124.483 86.6132 124.201 86.5364 123.966 86.3772C123.73 86.2181 123.554 85.9854 123.464 85.7156C122.479 83.5332 121.458 81.3508 120.437 79.2036C120.338 79.0278 120.207 78.8724 120.05 78.746C119.891 78.8811 119.749 79.0348 119.627 79.2036C118.642 81.3156 117.656 83.4276 116.706 85.5396C116.354 86.314 115.826 86.666 115.016 86.5956C114.711 86.578 114.406 86.578 114.101 86.5956C113.467 86.5956 113.327 86.3492 113.538 85.7508C113.749 85.2228 113.995 84.6948 114.242 84.202C115.403 81.6676 116.6 79.1684 117.762 76.634C117.86 76.3721 118.039 76.1485 118.273 75.9964C118.508 75.8442 118.785 75.7716 119.064 75.7892H120.085Z" fill="#A1A1A1"/>
<path d="M112.341 101.52C112.341 102.097 112.305 102.673 112.235 103.245C112.178 103.854 111.906 104.423 111.467 104.849C111.028 105.275 110.452 105.53 109.841 105.568C109.288 105.639 108.727 105.603 108.187 105.463C107.655 105.347 107.174 105.061 106.819 104.649C106.463 104.236 106.252 103.718 106.216 103.175C106.145 102.167 106.145 101.155 106.216 100.148C106.243 99.5324 106.488 98.9469 106.907 98.4955C107.327 98.0442 107.892 97.7565 108.504 97.6837C108.971 97.6133 109.445 97.6133 109.912 97.6837C111.355 97.8949 112.2 98.8804 112.27 100.359C112.33 100.743 112.353 101.132 112.341 101.52ZM111.038 101.661C111.044 101.083 110.997 100.506 110.897 99.9365C110.824 99.5745 110.624 99.2504 110.334 99.0212C110.08 98.8294 109.776 98.7123 109.459 98.6834C109.141 98.6544 108.822 98.7146 108.536 98.8573C108.251 98.9999 108.011 99.2193 107.844 99.4908C107.676 99.7623 107.588 100.075 107.589 100.394C107.553 101.204 107.553 102.013 107.589 102.823C107.624 104.02 108.081 104.442 109.313 104.442C109.467 104.448 109.62 104.436 109.771 104.407C110.062 104.41 110.344 104.302 110.559 104.107C110.774 103.911 110.908 103.641 110.933 103.351C111.003 102.784 111.003 102.224 111.038 101.661Z" fill="#A1A1A1"/>
<path d="M101.253 103.632C101.323 103.456 101.394 103.28 101.464 103.069C102.027 101.52 102.59 99.9714 103.189 98.4226C103.228 98.2886 103.296 98.1645 103.387 98.0583C103.477 97.9522 103.59 97.8664 103.716 97.8066C103.842 97.7468 103.98 97.7143 104.119 97.7113C104.259 97.7082 104.398 97.7347 104.526 97.789C104.632 97.8242 104.702 98.0706 104.702 98.2114C104.606 98.5471 104.489 98.8763 104.35 99.197C103.682 101.027 102.978 102.858 102.344 104.688C102.279 104.926 102.127 105.13 101.918 105.261C101.71 105.391 101.459 105.438 101.218 105.392C100.373 105.357 100.302 105.357 100.056 104.688C99.2815 102.647 98.5423 100.57 97.7679 98.5282C97.6975 98.2818 97.3807 98.0002 97.7679 97.789C98.1551 97.5778 98.8943 97.7538 99.0703 98.0706C99.1442 98.2168 99.2032 98.3701 99.2463 98.5282C99.8095 100.042 100.338 101.52 100.901 103.034C100.971 103.21 101.042 103.386 101.112 103.597C101.155 103.621 101.203 103.634 101.253 103.632Z" fill="#A1A1A1"/>
<path d="M85.3424 97.6481C86.0931 97.6092 86.8356 97.8195 87.4544 98.2465C87.8416 98.4929 87.8064 98.7745 87.5952 99.1265C87.384 99.4785 87.1376 99.5841 86.7856 99.3729C86.5528 99.2063 86.2897 99.0868 86.0112 99.0209C85.6517 98.9269 85.2726 98.9392 84.92 99.0561C84.765 99.1013 84.6263 99.1904 84.5207 99.3125C84.4151 99.4347 84.3471 99.5847 84.3248 99.7446C84.3025 99.9045 84.3268 100.067 84.395 100.214C84.4631 100.36 84.5721 100.484 84.7088 100.57C85.0143 100.755 85.3318 100.92 85.6592 101.063C86.0464 101.239 86.4688 101.415 86.856 101.626C88.5104 102.506 88.1232 104.547 86.9264 105.287C85.8352 105.991 83.864 105.779 82.9488 104.829C82.7024 104.583 82.808 104.371 82.984 104.16C83.16 103.949 83.336 103.597 83.7584 103.773C83.9156 103.859 84.0684 103.953 84.216 104.055C84.4425 104.216 84.7009 104.328 84.974 104.383C85.247 104.438 85.5286 104.434 85.8 104.371C85.9849 104.341 86.1557 104.253 86.2883 104.12C86.4209 103.988 86.5086 103.817 86.5392 103.632C86.5683 103.456 86.5394 103.275 86.4569 103.116C86.3744 102.957 86.2427 102.83 86.0816 102.752C85.7874 102.579 85.4816 102.426 85.1664 102.295C84.8397 102.163 84.5222 102.01 84.216 101.837C83.16 101.274 82.7376 100.535 82.9488 99.5137C83.0608 99.0334 83.3222 98.601 83.6953 98.2785C84.0684 97.956 84.5341 97.7599 85.0256 97.7185C85.1242 97.6707 85.2327 97.6466 85.3424 97.6481Z" fill="#A1A1A1"/>
<path d="M124.767 99.2323C124.239 100.359 123.781 101.344 123.323 102.33C122.971 103.069 122.76 103.175 121.951 103.104C121.634 103.069 121.458 102.963 121.634 102.611C122.303 101.133 122.971 99.6547 123.675 98.2115C123.839 97.9933 124.077 97.8429 124.344 97.7891C124.589 97.7539 124.838 97.7539 125.083 97.7891C125.256 97.7822 125.427 97.8293 125.572 97.9239C125.717 98.0185 125.829 98.1559 125.893 98.3171C126.562 99.7251 127.231 101.133 127.899 102.576C128.111 102.999 128.005 103.104 127.547 103.139C126.808 103.175 126.597 103.069 126.28 102.4C125.893 101.555 125.471 100.675 125.083 99.8307C125.005 99.6178 124.899 99.4165 124.767 99.2323Z" fill="#A1A1A1"/>
<path d="M93.4382 99.1971C92.9102 100.324 92.4526 101.309 91.995 102.295C91.643 103.034 91.3614 103.175 90.5518 103.104C90.235 103.069 90.1294 102.928 90.2702 102.647C90.939 101.168 91.6078 99.6899 92.3118 98.2467C92.4752 98.0285 92.7133 97.8781 92.9806 97.8243C93.2458 97.7539 93.5249 97.7539 93.7902 97.8243C94.0718 97.9299 94.4238 98.0707 94.5294 98.3171C95.2334 99.7251 95.9022 101.133 96.5358 102.541C96.747 102.964 96.6414 103.069 96.1838 103.104C95.4446 103.14 95.2334 103.034 94.9166 102.365C94.5294 101.52 94.107 100.64 93.7198 99.7955C93.6494 99.6547 93.579 99.5139 93.4382 99.1971Z" fill="#A1A1A1"/>
<path d="M114.664 101.626V98.4931C114.664 97.8947 114.77 97.7891 115.333 97.7891C115.896 97.7891 116.072 97.8947 116.072 98.4931V103.632C116.072 104.09 116.178 104.301 116.706 104.266C117.445 104.231 118.149 104.266 118.888 104.266C119.31 104.266 119.486 104.477 119.486 104.899C119.486 105.322 119.31 105.498 118.888 105.498H115.298C114.84 105.498 114.699 105.287 114.699 104.864C114.664 103.773 114.664 102.682 114.664 101.626Z" fill="#A1A1A1"/>
<path d="M90.2702 73.853C88.6862 73.853 88.5454 73.7123 88.5454 72.1283C88.5454 70.4035 88.651 70.2979 90.3758 70.2979H90.8686C91.6782 70.3331 91.995 70.6498 92.0302 71.4594V72.7266C91.995 73.5362 91.6782 73.853 90.8686 73.853H90.2702Z" fill="#A1A1A1"/>
<path d="M93.4032 105.463H89.848C89.6016 105.463 89.2144 105.639 89.144 105.216C89.0736 104.899 89.496 104.407 89.848 104.336C89.9629 104.307 90.0816 104.295 90.2 104.301H96.7472C96.9456 104.278 97.1457 104.326 97.3129 104.435C97.4801 104.544 97.6037 104.709 97.6624 104.899C97.8384 105.357 97.768 105.463 97.3104 105.463H93.4032Z" fill="#A1A1A1"/>
<path d="M124.767 105.462H121.176C120.933 105.425 120.696 105.354 120.472 105.251C120.648 104.97 120.824 104.653 121.035 104.371C121.071 104.301 121.247 104.301 121.387 104.301H128.181C128.341 104.289 128.5 104.326 128.639 104.406C128.815 104.653 128.92 104.934 129.096 105.216C128.872 105.318 128.635 105.39 128.392 105.427C127.16 105.462 125.963 105.462 124.767 105.462Z" fill="#A1A1A1"/>
</svg>
