<svg width="176" height="176" viewBox="0 0 176 176" fill="none" xmlns="http://www.w3.org/2000/svg">
<path d="M120.208 61.1105C119.958 60.4637 119.51 59.9119 118.929 59.533C118.348 59.1541 117.663 58.9671 116.97 58.9985C116.336 59.0331 115.726 59.2511 115.213 59.626C114.701 60.001 114.308 60.5167 114.083 61.1105V75.2961C113.869 75.7098 113.543 76.0549 113.142 76.2923C112.741 76.5297 112.281 76.6497 111.815 76.6387C111.349 76.6276 110.896 76.4861 110.507 76.2301C110.117 75.974 109.808 75.6138 109.613 75.1905V61.0049C109.375 60.4291 108.976 59.9339 108.464 59.5782C107.953 59.2225 107.349 59.0213 106.727 58.9985C106.063 58.9784 105.409 59.1592 104.85 59.5172C104.291 59.8752 103.853 60.3938 103.594 61.0049V75.1905C103.357 75.659 102.986 76.0464 102.529 76.3034C102.071 76.5604 101.547 76.6754 101.024 76.6337C100.532 76.5924 100.062 76.4114 99.6692 76.1121C99.2763 75.8128 98.9771 75.4076 98.8066 74.9441V61.1105C98.5879 60.533 98.2111 60.0288 97.7194 59.6553C97.2277 59.2818 96.6408 59.0542 96.0258 58.9985C95.3173 58.9552 94.6131 59.1358 94.013 59.5149C93.4128 59.8939 92.9471 60.4521 92.6818 61.1105V74.8385C92.2835 75.4478 91.7262 75.9368 91.0703 76.2525C90.4143 76.5682 89.6846 76.6986 88.9599 76.6298C88.2352 76.5609 87.543 76.2954 86.9582 75.8618C86.3735 75.4282 85.9183 74.8431 85.6418 74.1697V61.2161C85.4695 60.5963 85.1044 60.0473 84.5993 59.6488C84.0943 59.2503 83.4756 59.0228 82.8326 58.9992C82.1897 58.9757 81.556 59.1574 81.0232 59.518C80.4904 59.8785 80.0862 60.3993 79.869 61.0049C79.165 59.7025 77.933 58.9281 76.7362 58.9985C75.2226 59.1041 74.1666 60.5121 73.8498 61.6737C73.0402 64.4897 76.4194 66.0033 76.4194 69.2769C76.4194 72.3393 73.4626 76.5633 69.0626 76.6337C65.0146 76.7041 61.7058 73.2193 61.4594 69.4881C61.2482 66.0385 63.7474 63.7153 64.1346 63.3633C64.2828 62.6965 64.2272 62.0006 63.975 61.3658C63.7228 60.7311 63.2857 60.1867 62.7203 59.8035C62.1549 59.4202 61.4874 59.2158 60.8043 59.2166C60.1213 59.2174 59.4543 59.4235 58.8898 59.8081C58.1154 60.7233 54.877 64.7009 55.3346 70.1921C55.8274 76.2113 60.6146 82.0193 67.1618 82.7937C72.0898 83.3569 77.0178 80.9985 80.0098 76.7745C80.1858 77.0913 82.861 82.2657 88.493 82.7937C91.1355 82.9928 93.7576 82.2024 95.8498 80.5761C97.2524 81.9623 99.1337 82.757 101.105 82.7963C103.077 82.8356 104.988 82.1165 106.445 80.7873C108.081 82.1245 110.14 82.8358 112.253 82.7937C115.667 82.6529 118.8 80.3297 120.279 76.8801V61.1105H120.208Z" fill="#A1A1A1"/>
<path d="M118.554 89.5523C117.251 87.7571 114.999 87.4051 113.696 88.3907C113.408 88.6088 113.168 88.8845 112.992 89.2003C112.739 89.6675 112.625 90.1971 112.662 90.727C112.7 91.2569 112.887 91.7652 113.203 92.1923C114.148 93.4792 114.563 95.0789 114.365 96.6627C113.943 99.6195 111.267 102.013 108.346 102.013C105.143 102.013 102.221 99.1267 102.115 95.4307C102.038 92.4625 100.807 89.6413 98.6847 87.5649C96.5623 85.4885 93.7148 84.3202 90.7457 84.3075C88.0278 84.2868 85.3794 85.1655 83.2129 86.8067C83.1093 86.2945 82.8675 85.8205 82.5139 85.4358C82.1602 85.0512 81.7081 84.7705 81.2065 84.6243H72.3713C72.1702 84.6182 71.9699 84.5947 71.7729 84.5539C71.3543 84.4892 70.9263 84.5294 70.527 84.6706C70.1277 84.8119 69.7697 85.05 69.4849 85.3635C69.0842 85.8613 68.8723 86.4846 68.8865 87.1235V99.3379C68.596 100.094 68.0772 100.741 67.4023 101.189C66.7273 101.637 65.9297 101.863 65.1201 101.837C62.9729 101.767 61.9169 99.8307 61.8465 99.7603V86.6307C61.6039 86.0294 61.1847 85.5158 60.6443 85.1576C60.1039 84.7994 59.4676 84.6135 58.8193 84.6243C58.1114 84.6543 57.4326 84.9146 56.8862 85.3657C56.3397 85.8168 55.9556 86.434 55.7921 87.1235V98.8451C55.7815 100.975 56.5162 103.042 57.8689 104.688L57.9041 104.723C58.3617 105.251 60.2273 107.504 61.4241 107.082C61.9873 106.871 61.8113 106.272 62.6913 105.498C63.3463 104.911 64.1738 104.553 65.0497 104.477C66.3521 104.407 67.3025 105.111 67.8305 105.498C69.0273 106.378 69.0625 107.082 69.5905 107.258C70.2593 107.469 71.4561 106.8 73.7441 103.386C74.8047 101.79 75.3682 99.9161 75.3633 98.0003V90.8899H79.7985C79.2353 92.0163 77.8273 95.2547 78.7777 99.0915C79.9745 103.984 84.4097 107.469 89.0561 108.032C91.4419 108.302 93.8542 107.861 95.9905 106.765V114.65C96.1778 115.328 96.5823 115.925 97.1418 116.351C97.7013 116.777 98.385 117.007 99.0881 117.007C99.7912 117.007 100.475 116.777 101.034 116.351C101.594 115.925 101.998 115.328 102.186 114.65V106.272C103.277 107.011 105.635 108.419 108.698 108.349C114.611 108.279 120.243 102.999 120.666 96.9795C120.982 93.6003 119.398 90.8547 118.554 89.5523ZM91.3089 101.978C90.1656 102.128 89.0038 101.917 87.9868 101.373C86.9697 100.83 86.1485 99.981 85.6385 98.9467C85.1285 97.9125 84.9552 96.7444 85.1431 95.6066C85.331 94.4688 85.8705 93.4184 86.686 92.6029C87.5014 91.7875 88.5518 91.2479 89.6896 91.0601C90.8274 90.8722 91.9955 91.0455 93.0298 91.5555C94.0641 92.0655 94.9126 92.8867 95.4563 93.9037C95.9999 94.9208 96.2114 96.0825 96.0609 97.2259C95.9035 98.431 95.3522 99.5504 94.4928 100.41C93.6334 101.269 92.5141 101.82 91.3089 101.978Z" fill="#A1A1A1"/>
<path d="M65.3665 112.538C67.2328 112.538 68.7457 111.025 68.7457 109.158C68.7457 107.292 67.2328 105.779 65.3665 105.779C63.5002 105.779 61.9873 107.292 61.9873 109.158C61.9873 111.025 63.5002 112.538 65.3665 112.538Z" fill="#A1A1A1"/>
<path d="M107.36 90.3971C109.129 90.3971 110.563 88.963 110.563 87.1939C110.563 85.4248 109.129 83.9907 107.36 83.9907C105.591 83.9907 104.157 85.4248 104.157 87.1939C104.157 88.963 105.591 90.3971 107.36 90.3971Z" fill="#A1A1A1"/>
<path d="M107.36 95.9586C109.129 95.9586 110.563 94.5245 110.563 92.7554C110.563 90.9864 109.129 89.5522 107.36 89.5522C105.591 89.5522 104.157 90.9864 104.157 92.7554C104.157 94.5245 105.591 95.9586 107.36 95.9586Z" fill="#A1A1A1"/>
<path d="M68.7457 72.3043C70.5148 72.3043 71.9489 70.8702 71.9489 69.1011C71.9489 67.3321 70.5148 65.8979 68.7457 65.8979C66.9766 65.8979 65.5425 67.3321 65.5425 69.1011C65.5425 70.8702 66.9766 72.3043 68.7457 72.3043Z" fill="#A1A1A1"/>
</svg>
