<svg width="120" height="120" viewBox="0 0 120 120" fill="none" xmlns="http://www.w3.org/2000/svg">
<path d="M56.1661 61.5289C54.7079 59.318 54.849 57.013 54.896 54.708V51.2741C54.9901 46.8523 57.7655 43.8887 62.1873 43.6065C63.1751 43.5595 64.163 43.6065 65.1508 43.7476C68.6789 44.2651 71.3131 47.3227 71.2661 50.8978C71.3602 53.1087 71.3602 55.3666 71.2661 57.5775C71.219 61.4348 68.1144 64.6336 64.2571 64.7747C63.5985 64.8217 62.8929 64.8688 62.2343 64.8688H48.1222C47.1344 64.8688 47.1814 64.8688 47.1344 65.9036C47.1344 66.7974 47.0403 67.6912 46.8992 68.5379C46.2876 71.6896 43.7004 73.9946 40.5017 74.2768C39.5138 74.3709 38.526 74.418 37.5381 74.418C36.7385 74.418 36.4092 74.0416 36.3151 73.2419V72.9127C36.268 71.3603 36.5503 71.0781 38.1026 71.0781C38.9023 71.1251 39.655 71.0781 40.4546 70.937C41.5366 70.7958 42.4303 69.9962 42.6655 68.9142C42.8537 67.7382 42.9948 66.5622 42.9948 65.3862C42.9948 65.2451 42.6655 65.0099 42.4774 65.0099C41.3014 64.9628 40.0783 65.0099 38.9023 64.9628C38.0085 64.9158 37.1618 64.8217 36.3151 64.6336C33.0693 63.7868 31.0466 61.2467 30.8584 57.5305C30.7173 55.2725 30.7173 52.9675 30.9054 50.7096C31.2347 46.523 33.9631 43.9358 38.1497 43.7006C39.1375 43.6535 40.1254 43.7006 41.1132 43.8888C44.7353 44.5944 47.0403 47.2757 47.1344 50.9918C47.2285 54.2376 47.1814 57.4834 47.1814 60.7292C47.1814 61.67 47.1814 61.67 48.0752 61.67H55.1783C55.5076 61.5289 55.8368 61.4819 56.1661 61.5289ZM42.9948 55.7429C42.9948 54.1436 42.9948 52.5912 42.9478 50.9918C42.8537 47.8872 41.5366 46.7112 38.4319 46.8993C36.3151 47.0405 35.092 47.9813 34.998 50.0981C34.8568 52.8735 34.8568 55.6959 34.998 58.4713C35.092 60.541 36.268 61.4818 38.3849 61.5759C39.655 61.623 40.9721 61.5759 42.2422 61.623C42.8537 61.623 42.9948 61.3878 42.9948 60.8233C42.9478 59.1298 42.9948 57.4364 42.9948 55.7429ZM67.0795 54.2376H67.2206C67.1265 52.6853 67.1265 51.0859 66.8913 49.5336C66.6561 47.9813 65.5742 47.0875 63.9748 46.9464C63.5985 46.8993 63.2692 46.8993 62.8929 46.8993C60.3998 46.9934 59.1767 48.0753 59.0826 50.5685C58.9886 52.9205 58.9886 55.3196 59.0826 57.6716C59.1767 60.6822 60.3527 61.67 63.3633 61.623C65.8564 61.5759 66.9854 60.494 67.1265 58.0009C67.1265 56.7308 67.0795 55.4607 67.0795 54.2376Z" fill="#A1A1A1"/>
<path d="M98.2204 64.9157H82.9793C80.6743 64.9157 78.6986 64.116 77.3345 62.1403C76.3937 60.7762 75.9233 59.1768 75.9233 57.5304C75.8762 51.4622 75.9233 45.3469 75.9233 39.2787C75.9233 38.432 76.2996 38.1027 77.1463 38.0557H78.7927C79.6394 38.0557 80.0158 38.432 80.0158 39.3258V56.9189C80.0158 57.8126 80.1569 58.7064 80.3921 59.5531C80.8154 60.9173 81.7092 61.5288 83.1204 61.5288H86.6955C87.26 61.5288 87.4481 61.3406 87.4011 60.7762C87.3541 59.8824 87.4011 59.0357 87.4011 58.1419C87.4011 57.3422 87.7774 57.0129 88.5771 56.9659H90.3176C91.0703 57.0129 91.4466 57.3422 91.4466 58.0949C91.4466 58.8475 91.4466 59.6942 91.4466 60.541C91.4466 61.5288 91.4466 61.5288 92.3874 61.5288H112.191C113.65 61.5288 114.779 62.7048 114.873 64.116C114.873 64.3512 114.543 64.6335 114.308 64.8216C114.073 64.8687 113.791 64.9157 113.556 64.8687C108.475 64.9157 103.348 64.9157 98.2204 64.9157Z" fill="#A1A1A1"/>
<path d="M26.2015 48.6399V56.7779C26.2486 58.2361 25.9663 59.6944 25.4018 61.0115C24.3199 63.3635 22.4853 64.7747 19.9452 64.8218C15.2882 64.9629 10.6312 64.9159 5.97417 64.9159C5.12745 64.9159 4.89225 64.4925 5.22153 63.7398C5.36265 63.4106 5.50377 63.1283 5.64489 62.8461C5.97417 62.0934 6.72682 61.623 7.57355 61.623H11.7131C12.2776 61.623 12.4187 61.4349 12.4187 60.8704V48.3106C12.4187 46.9935 12.7009 46.7112 13.971 46.7112H15.3822C15.9467 46.6642 16.4171 47.1346 16.4642 47.6991C16.4642 47.7461 16.4642 47.7461 16.4642 47.7932C16.5112 48.3106 16.4642 48.828 16.4642 49.3455V60.7763C16.4642 61.4819 16.6523 61.7171 17.3579 61.623C17.8754 61.576 18.4399 61.623 19.0044 61.623C20.3215 61.576 21.2623 61.0115 21.6386 59.7885C21.9209 58.8476 22.062 57.8128 22.062 56.8249C22.109 51.133 22.062 45.4411 22.109 39.7963C22.062 39.467 22.109 39.0907 22.2501 38.7614C22.4853 38.291 23.0028 38.0558 23.5202 38.1969C24.367 38.291 25.4018 37.8206 26.0134 38.7614C26.1545 39.0907 26.2015 39.42 26.1545 39.7493C26.2015 42.5717 26.2015 45.6293 26.2015 48.6399Z" fill="#A1A1A1"/>
<path d="M102.877 43.7004H103.206C104.806 43.4181 105.606 44.2178 106.217 45.629C107.769 49.2041 109.463 52.7321 111.109 56.2601C111.909 58.0006 111.862 58.1417 109.933 58.1417H109.134C108.334 58.1888 107.628 57.7184 107.393 56.9657C106.076 54.0492 104.712 51.1327 103.348 48.2633C103.206 48.0281 103.018 47.8399 102.83 47.6517C102.595 47.8399 102.407 48.0281 102.266 48.2633C100.949 51.0857 99.6314 53.9081 98.3613 56.7305C97.8909 57.7654 97.1853 58.2358 96.1034 58.1417C95.68 58.0947 95.3037 58.0947 94.8804 58.1417C94.0336 58.1417 93.8455 57.8125 94.1277 57.0128C94.41 56.3072 94.7392 55.6016 95.0685 54.943C96.6208 51.5561 98.2202 48.2162 99.7726 44.8293C100.055 44.1237 100.76 43.6533 101.513 43.7004H102.877Z" fill="#A1A1A1"/>
<path d="M92.5285 78.0871C92.5285 78.8398 92.4815 79.6394 92.3874 80.3921C92.2463 82.0855 90.8821 83.4027 89.1887 83.4968C88.436 83.5908 87.6834 83.5438 86.9778 83.3556C85.5195 83.0264 84.4376 81.8033 84.3435 80.298C84.2494 78.9338 84.2494 77.6167 84.3435 76.2525C84.4376 74.5591 85.7077 73.1479 87.4011 72.9597C88.0127 72.8656 88.6712 72.8656 89.2827 72.9597C91.2114 73.242 92.3404 74.5591 92.4345 76.5348C92.5285 77.0522 92.5285 77.5697 92.5285 78.0871ZM90.788 78.2753C90.788 77.5226 90.741 76.7229 90.5999 75.9703C90.5058 75.4999 90.2236 75.0765 89.8472 74.7472C88.8594 73.9946 87.4011 74.1828 86.6485 75.2177C86.3662 75.594 86.1781 76.1114 86.1781 76.5818C86.131 77.6638 86.131 78.7457 86.1781 79.8276C86.2251 81.427 86.8367 81.9915 88.4831 81.9915C88.6712 81.9915 88.9064 81.9915 89.0946 81.9444C89.8943 81.9444 90.5999 81.3329 90.6469 80.5332C90.741 79.7806 90.741 79.0279 90.788 78.2753Z" fill="#A1A1A1"/>
<path d="M77.7106 80.9094C77.8047 80.6742 77.8988 80.439 77.9929 80.1568C78.7455 78.087 79.4981 76.0172 80.2978 73.9475C80.486 73.2419 81.2386 72.8655 81.9442 73.0537C81.9913 73.0537 82.0383 73.1007 82.0854 73.1007C82.2265 73.1478 82.3206 73.4771 82.3206 73.6652C82.1794 74.1356 82.0383 74.559 81.8502 74.9824C80.9564 77.4285 80.0156 79.8746 79.1689 82.3207C78.9807 82.9792 78.3221 83.4026 77.6636 83.2615C76.5346 83.2144 76.4405 83.2144 76.1112 82.3207C75.0764 79.5923 74.0885 76.8169 73.0536 74.0886C72.9595 73.7593 72.5362 73.383 73.0536 73.1007C73.5711 72.8185 74.5589 73.0537 74.7941 73.4771C74.8882 73.6652 74.9823 73.9004 75.0293 74.0886C75.782 76.1113 76.4876 78.087 77.2402 80.1098C77.3343 80.345 77.4284 80.5802 77.5225 80.8624C77.5695 80.8624 77.6636 80.9094 77.7106 80.9094Z" fill="#A1A1A1"/>
<path d="M56.4482 72.9128C57.4361 72.8657 58.4239 73.148 59.2707 73.7125C59.7881 74.0417 59.7411 74.4181 59.4588 74.8885C59.1766 75.3589 58.8473 75.5 58.3769 75.2177C58.0476 74.9825 57.7183 74.8414 57.342 74.7473C56.8716 74.6062 56.3542 74.6533 55.8838 74.7944C55.2722 74.9825 54.943 75.5941 55.1311 76.2056C55.2252 76.4878 55.3663 76.676 55.6015 76.8171C56.0249 77.0523 56.4483 77.2875 56.8716 77.4757C57.3891 77.7109 57.9535 77.9461 58.471 78.2283C60.6819 79.4043 60.1644 82.1327 58.5651 83.1205C57.1068 84.0613 54.4726 83.7791 53.2495 82.509C52.9202 82.1797 53.0613 81.8975 53.2965 81.6152C53.5317 81.333 53.7669 80.8626 54.3314 81.0978C54.5196 81.1919 54.7548 81.333 54.943 81.4741C55.5545 81.8975 56.3071 82.0856 57.0598 81.8975C57.5772 81.8034 57.9535 81.4271 58.0476 80.9096C58.1417 80.4392 57.8595 79.9688 57.4361 79.7336C57.0598 79.4984 56.6364 79.3103 56.213 79.1221C55.7897 78.9339 55.3663 78.7458 54.943 78.5106C53.5317 77.7579 52.9673 76.7701 53.2495 75.4059C53.5788 74.0888 54.6607 73.1009 56.0249 73.0069C56.166 72.9128 56.3071 72.9128 56.4482 72.9128Z" fill="#A1A1A1"/>
<path d="M109.134 75.0294C108.428 76.5347 107.817 77.8518 107.205 79.1689C106.735 80.1568 106.452 80.2979 105.371 80.2038C104.947 80.1568 104.712 80.0157 104.947 79.5452C105.841 77.5696 106.735 75.5939 107.676 73.6652C107.911 73.383 108.193 73.1948 108.569 73.1007C108.899 73.0537 109.228 73.0537 109.557 73.1007C110.028 73.1007 110.451 73.383 110.639 73.8063C111.533 75.6879 112.427 77.5695 113.32 79.4982C113.603 80.0627 113.462 80.2038 112.85 80.2509C111.862 80.2979 111.58 80.1568 111.157 79.263C110.639 78.134 110.075 76.958 109.557 75.8291C109.463 75.5468 109.322 75.2646 109.134 75.0294Z" fill="#A1A1A1"/>
<path d="M67.2676 74.9823C66.5619 76.4876 65.9504 77.8047 65.3389 79.1218C64.8685 80.1097 64.4922 80.2978 63.4102 80.2038C62.9869 80.1567 62.8458 79.9686 63.0339 79.5922C63.9277 77.6165 64.8215 75.6408 65.7623 73.7122C65.9975 73.4299 66.2797 73.2418 66.656 73.1477C67.0324 73.0536 67.3616 73.0536 67.738 73.1477C68.1143 73.2888 68.5847 73.477 68.7258 73.8063C69.6666 75.6879 70.5604 77.5695 71.4071 79.4511C71.6894 80.0156 71.5482 80.1567 70.9367 80.2038C69.9489 80.2508 69.6666 80.1097 69.2432 79.2159C68.7258 78.0869 68.1613 76.9109 67.6439 75.782C67.5498 75.5938 67.4557 75.4056 67.2676 74.9823Z" fill="#A1A1A1"/>
<path d="M95.6333 78.228V74.0414C95.6333 73.2417 95.7744 73.1006 96.5271 73.1006C97.2797 73.1006 97.5149 73.2417 97.5149 74.0414V80.9093C97.5149 81.5208 97.656 81.8031 98.3616 81.756C99.3495 81.709 100.29 81.756 101.278 81.756C101.843 81.756 102.078 82.0383 102.078 82.6027C102.078 83.1672 101.843 83.4024 101.278 83.4024H96.48C95.8685 83.4024 95.6803 83.1202 95.6803 82.5557C95.6333 81.0975 95.6333 79.6392 95.6333 78.228Z" fill="#A1A1A1"/>
<path d="M63.034 41.1134C60.9172 41.1134 60.729 40.9252 60.729 38.8084C60.729 36.5034 60.8701 36.3623 63.1751 36.3623H63.8337C64.9156 36.4093 65.339 36.8327 65.386 37.9146V39.6081C65.339 40.69 64.9156 41.1134 63.8337 41.1134H63.034Z" fill="#A1A1A1"/>
<path d="M67.2208 83.3556H62.4697C62.1405 83.3556 61.623 83.5908 61.5289 83.0263C61.4348 82.603 61.9993 81.9444 62.4697 81.8503C62.6109 81.8033 62.799 81.8033 62.9401 81.8033H71.6896C72.2541 81.7562 72.7716 82.0855 72.9127 82.603C73.1479 83.2145 73.0538 83.3556 72.4423 83.3556H67.2208Z" fill="#A1A1A1"/>
<path d="M109.133 83.3556H104.335C104.006 83.3085 103.677 83.2144 103.395 83.0733C103.63 82.697 103.865 82.2736 104.147 81.8973C104.194 81.8032 104.429 81.8032 104.618 81.8032H113.696C113.932 81.8032 114.12 81.8503 114.308 81.9443C114.543 82.2736 114.684 82.65 114.919 83.0263C114.637 83.1674 114.308 83.2615 113.979 83.3085C112.332 83.3556 110.733 83.3556 109.133 83.3556Z" fill="#A1A1A1"/>
</svg>
