<svg width="176" height="176" viewBox="0 0 176 176" fill="none" xmlns="http://www.w3.org/2000/svg">
<path d="M46.2739 93.8995C46.4147 93.0899 46.5203 92.2451 46.6611 91.4355C47.2321 88.1819 48.5583 85.1075 50.5331 82.4595C52.7155 79.5731 55.5667 77.5315 58.8403 76.0531C63.4163 73.9763 68.2739 72.8499 73.2723 72.2515C77.4963 71.7587 81.7555 71.2659 86.0147 71.0195C91.3651 70.6675 96.7507 70.5619 102.136 70.3859C105.375 70.2803 108.578 70.2803 111.816 70.1747C114.668 70.0691 117.484 69.8931 120.229 69.1187C121.989 68.6259 123.608 67.8163 124.7 66.2323C125.509 65.0355 125.72 63.6979 125.791 62.2899C125.815 61.8086 125.803 61.3263 125.756 60.8467C125.72 60.4243 125.967 60.3187 126.248 60.5299C126.765 60.9238 127.227 61.3856 127.621 61.9027C128.607 63.3107 128.994 64.9299 129.311 66.5843C129.886 69.1957 129.862 71.9035 129.24 74.5043C128.572 77.2147 126.812 78.9043 124.348 80.0659C121.743 81.2979 118.962 81.7555 116.111 81.9667C111.992 82.2835 107.909 82.0371 103.826 81.6499C98.0531 81.0867 92.2803 80.4179 86.5075 79.8195C81.6499 79.3267 76.7923 78.9395 71.8995 79.0803C67.8867 79.1859 63.9091 79.6083 60.0723 80.7699C56.2355 81.9315 52.9267 83.7971 50.4275 86.9651C48.9111 88.8854 47.6892 91.0208 46.8019 93.3011L46.4851 93.9347C46.4497 93.9462 46.412 93.949 46.3752 93.9429C46.3385 93.9368 46.3037 93.9219 46.2739 93.8995Z" fill="#A1A1A1"/>
<path d="M127.832 88.0913C128.114 88.7667 128.349 89.4606 128.536 90.1681C129.027 92.8799 128.645 95.6776 127.445 98.1585C125.509 102.277 122.341 105.304 118.574 107.733C113.365 111.077 107.592 112.943 101.573 114.139C95.3982 115.358 89.0964 115.807 82.8113 115.477C76.92 115.185 71.1059 114.01 65.5633 111.992C61.3745 110.479 57.3969 108.472 53.9121 105.656C52.6452 104.719 51.5698 103.548 50.7441 102.207C50.4078 101.571 50.1479 100.897 49.9697 100.2C49.9339 99.8843 49.9339 99.5655 49.9697 99.2497L50.3921 99.5313C53.3841 102.735 57.0801 104.776 61.0929 106.325C64.1955 107.529 67.4165 108.402 70.7025 108.93C73.8049 109.417 76.9299 109.745 80.0657 109.915C85.7681 110.303 91.4353 109.81 97.0673 108.859C102.547 108 107.879 106.377 112.907 104.037C116.206 102.53 119.237 100.498 121.883 98.0177C124.558 95.4129 126.565 92.3857 127.445 88.6897C127.487 88.4858 127.546 88.2857 127.621 88.0913C127.656 88.1265 127.726 88.0913 127.832 88.0913Z" fill="#A1A1A1"/>
<path d="M78.5876 98.5108C78.4116 98.6516 78.2004 98.7924 77.9892 98.9684C75.49 100.764 72.7444 101.116 69.858 100.095C68.2388 99.4964 67.3236 98.1236 67.0068 96.4692C66.529 93.9995 67.0206 91.4405 68.3796 89.3236C69.8228 86.9652 72.0756 85.9092 74.8212 85.8388C76.1588 85.8036 77.4964 85.874 78.658 86.5428C79.1529 86.8436 79.6132 87.1977 80.0308 87.5988C80.3124 87.8452 80.5236 87.9156 80.8052 87.6692C83.058 85.8036 85.698 85.522 88.4436 86.1204C89.2741 86.2551 90.0469 86.6303 90.6662 87.1996C91.2856 87.7689 91.7245 88.5074 91.9284 89.3236C92.9844 93.09 91.5764 98.0884 87.458 99.9188C86.3995 100.42 85.2471 100.691 84.0763 100.715C82.9055 100.74 81.7428 100.516 80.6644 100.06C79.9604 99.7428 79.3268 99.074 78.5876 98.5108ZM87.8804 91.7172C87.8804 91.0353 87.8451 90.3539 87.7748 89.6756C87.6692 88.9012 87.3524 88.1972 86.5428 87.9156C86.1837 87.7851 85.7935 87.7656 85.4231 87.8598C85.0527 87.954 84.7193 88.1574 84.466 88.4436C84.1143 88.8093 83.8179 89.2243 83.586 89.6756C82.8716 91.1046 82.4412 92.6587 82.3188 94.2516C82.2132 95.2724 82.1428 96.2932 82.5652 97.314C83.0932 98.6516 84.5012 99.0388 85.5924 98.0884C85.9177 97.8096 86.1917 97.476 86.402 97.1028C87.3323 95.4574 87.8403 93.607 87.8804 91.7172ZM76.9684 91.1188C76.8276 90.4148 76.7924 89.6404 76.5108 88.9716C76.0532 87.7748 74.8212 87.458 73.8004 88.1972C73.4676 88.4367 73.1813 88.7349 72.9556 89.0772C72.0652 90.5165 71.5229 92.1436 71.3716 93.8292C71.172 94.9642 71.22 96.1289 71.5124 97.2436C71.9348 98.5812 73.3428 99.074 74.434 98.1588C74.9704 97.7189 75.4031 97.1661 75.7012 96.5396C76.4603 94.8283 76.8902 92.9893 76.9684 91.1188Z" fill="#A1A1A1"/>
<path d="M91.4355 100.2C93.1251 98.0177 93.1251 95.3777 93.7939 92.9841C94.1459 91.7873 94.3219 90.5553 94.6035 89.3585C94.8499 88.3377 95.1315 87.3521 94.5331 86.2961C94.8323 86.2101 95.1386 86.1512 95.4483 86.1201C97.6659 86.1201 99.8835 86.0497 102.066 86.1905C105.128 86.3665 106.888 88.3025 106.994 91.3649C107.063 92.642 106.857 93.919 106.389 95.1094C105.922 96.2998 105.204 97.3757 104.284 98.2641C103.618 98.9286 102.827 99.4543 101.957 99.8108C101.087 100.167 100.155 100.347 99.2147 100.341C96.8211 100.376 94.4275 100.341 92.0691 100.341C91.8641 100.27 91.6515 100.222 91.4355 100.2ZM102.629 91.4353C102.629 91.0833 102.629 90.6961 102.594 90.3441C102.418 88.7953 101.397 87.9153 99.8483 87.9153C99.3555 87.9153 99.0739 88.0561 98.9683 88.6193C98.2995 91.6465 97.5955 94.6737 96.8915 97.7009C96.7859 98.1233 96.9971 98.2641 97.3491 98.3345C98.9683 98.6865 100.447 97.7361 101.397 96.1169C102.225 94.6973 102.651 93.0788 102.629 91.4353Z" fill="#A1A1A1"/>
<path d="M65.3171 89.0771C65.0355 88.8659 64.7891 88.6547 64.5075 88.4435C62.5715 86.9651 59.2627 87.4227 57.8547 89.4291C57.1239 90.4173 56.6511 91.5721 56.479 92.7891C56.3069 94.006 56.441 95.2466 56.8691 96.3987C57.0748 97.0116 57.4671 97.5448 57.991 97.9235C58.5149 98.3022 59.1442 98.5076 59.7907 98.5107C60.1779 98.5107 60.4595 98.4051 60.5299 97.9475C60.7411 96.8211 61.0931 95.7299 61.2339 94.6035C61.3043 94.0755 61.0931 93.4771 60.9875 92.8083C62.6067 92.5619 64.2963 92.7379 65.9859 92.7027C65.6339 94.1459 65.3171 95.4835 65.0355 96.8211C64.8595 97.7011 64.7891 98.6163 64.6131 99.4963C64.5835 99.614 64.5267 99.7231 64.4472 99.8148C64.3677 99.9066 64.2678 99.9783 64.1555 100.024C61.3395 100.658 58.5235 101.01 55.7075 100.024C53.4195 99.1795 52.2227 97.4195 51.9763 95.0611C51.8562 93.903 51.9688 92.7325 52.3075 91.6186C52.6462 90.5046 53.2042 89.4696 53.9486 88.5743C54.693 87.679 55.6089 86.9416 56.6424 86.4053C57.6758 85.869 58.8061 85.5447 59.9667 85.4515C61.659 85.2268 63.3785 85.3223 65.0355 85.7331C65.8451 85.9443 65.8451 85.9795 65.7395 86.8243C65.6691 87.5635 65.5635 88.2675 65.4579 89.0067C65.472 89.056 65.3875 89.0771 65.3171 89.0771Z" fill="#A1A1A1"/>
<path d="M108.226 100.236C109.845 98.4053 109.916 96.2229 110.373 94.1461C110.479 93.6533 110.232 93.0901 110.021 92.5973C109.232 90.4901 108.179 88.4913 106.888 86.6485C106.807 86.5379 106.737 86.42 106.677 86.2965C107.029 86.1909 107.311 86.0501 107.628 85.9797C109.388 85.6277 111.288 85.8741 112.204 87.8805C112.626 88.7957 113.048 89.7461 113.471 90.6965C113.541 90.8725 113.647 91.0133 113.788 91.2949C114.104 90.9077 114.351 90.6261 114.562 90.3093C115.09 89.5349 115.653 88.7957 116.111 87.9861C116.323 87.5071 116.5 87.0129 116.639 86.5077C116.709 86.3669 116.885 86.1557 116.991 86.1557C117.906 86.1205 118.821 86.0853 119.736 86.1205C120.159 86.1205 120.053 86.4021 119.877 86.6485C119.103 87.6693 118.364 88.7253 117.589 89.7461C116.744 90.9077 115.829 91.9989 115.02 93.1957C114.665 93.7396 114.392 94.3326 114.21 94.9557C113.928 96.0821 113.682 97.2789 113.506 98.4405C113.452 98.8773 113.488 99.3205 113.612 99.7429C113.752 100.2 113.612 100.341 113.224 100.341C112.309 100.341 111.394 100.376 110.479 100.341C109.824 100.32 109.12 100.271 108.226 100.236Z" fill="#A1A1A1"/>
</svg>
