<svg width="120" height="120" viewBox="0 0 120 120" fill="none" xmlns="http://www.w3.org/2000/svg">
<path d="M33.1162 75.5467V68.5848H50.8975V62.2813C50.8975 54.896 47.1813 50.0508 39.2315 50.0508H38.3377V43.0889H39.6548C47.2283 43.0889 51.6972 46.0995 55.4604 51.9795C57.1538 54.6608 57.9535 58.2829 57.9535 62.8458V75.6408L33.1162 75.5467Z" fill="#A1A1A1"/>
<path d="M8.18504 48.4048C8.18504 49.9101 6.96199 51.1802 5.40966 51.1802C3.85733 51.1802 2.63428 49.9571 2.63428 48.4048C2.63428 46.8524 3.85733 45.6294 5.40966 45.6294C6.96199 45.6294 8.18504 46.8524 8.18504 48.4048Z" fill="#A1A1A1"/>
<path d="M8.18504 56.1663C8.18504 57.6716 6.96199 58.9417 5.40966 58.9417C3.90437 58.9417 2.63428 57.7187 2.63428 56.1663C2.63428 54.661 3.85733 53.438 5.36262 53.438H5.40966C6.96199 53.438 8.18504 54.661 8.18504 56.1663Z" fill="#A1A1A1"/>
<path d="M34.9037 50.0508V43.0889H17.6869C10.8661 43.0889 10.0664 47.1814 10.0664 50.0508V55.9779C10.0664 63.5514 13.077 69.2904 18.957 73.0536C21.5913 74.7 25.1664 75.5467 29.6352 75.5467V68.5377H29.353C21.9676 68.5377 17.1225 63.5514 17.1225 55.6487V50.0979L34.9037 50.0508Z" fill="#A1A1A1"/>
<path d="M66.0447 45.1589V47.9814C66.0447 48.4518 65.8566 48.9222 65.5273 49.2515C65.151 49.5807 64.6806 49.7219 64.2102 49.6748C63.6457 49.6748 63.1282 49.4867 62.799 49.0633C62.4226 48.6399 62.2345 48.1225 62.2815 47.605C62.2815 46.9935 62.4697 46.382 62.893 45.9116C63.2694 45.5353 63.7398 45.3001 64.2572 45.3001C64.5395 45.3001 64.8217 45.3942 65.0569 45.5353L65.3862 45.253L66.0447 45.1589ZM65.0099 46.335C64.8217 46.2409 64.6335 46.1938 64.4454 46.1938C64.1161 46.1938 63.8339 46.335 63.6457 46.5702C63.4105 46.8524 63.3164 47.1817 63.3634 47.511C63.3634 47.7932 63.4105 48.1225 63.5986 48.3577C63.7398 48.5459 63.975 48.687 64.2572 48.6399C64.4454 48.6399 64.6806 48.5929 64.8217 48.4047C64.9628 48.2636 65.0099 48.0755 65.0099 47.8873V46.335ZM64.2102 43.4185C64.3513 43.4185 64.4924 43.4655 64.5865 43.6066C64.6806 43.7477 64.7276 43.8889 64.7747 44.03C64.7747 44.1711 64.7276 44.3593 64.5865 44.4533C64.3983 44.6885 64.0691 44.6885 63.8339 44.5004L63.7868 44.4533C63.6927 44.3593 63.5986 44.2181 63.5986 44.077C63.5986 43.9359 63.6457 43.7477 63.7868 43.6537C63.8809 43.4655 64.022 43.4185 64.2102 43.4185ZM65.5273 43.4185C65.6684 43.4185 65.8096 43.4655 65.9036 43.6066C66.0448 43.7007 66.0918 43.8889 66.0918 44.03C66.0918 44.1711 66.0448 44.3122 65.9036 44.4063C65.8096 44.5004 65.6684 44.5945 65.5273 44.5945C65.3862 44.5945 65.2451 44.5474 65.151 44.4063C65.0569 44.3122 64.9628 44.1711 64.9628 44.03C64.9628 43.8889 65.0099 43.7007 65.151 43.6066C65.198 43.4655 65.3391 43.4185 65.5273 43.4185Z" fill="#A1A1A1"/>
<path d="M67.7383 45.3C67.9735 45.253 68.2087 45.253 68.4439 45.253C69.0555 45.2059 69.6199 45.4411 70.0433 45.9115C70.4196 46.3349 70.6078 46.8524 70.6078 47.4168V48.5458C70.6078 48.828 70.5137 49.1103 70.3256 49.2985C70.1374 49.4866 69.9022 49.5807 69.667 49.5807H66.8916V48.6869H69.3377C69.4318 48.6869 69.5259 48.5928 69.5729 48.4988C69.5729 48.4988 69.5729 48.4988 69.5729 48.4517V47.652C69.5729 47.2757 69.4788 46.9464 69.2436 46.6642C68.9614 46.429 68.6321 46.2879 68.3028 46.2879C68.1617 46.2879 68.0206 46.2879 67.8795 46.3349L67.7383 45.3Z" fill="#A1A1A1"/>
<path d="M73.5241 49.5806C72.9596 49.6276 72.3951 49.3454 72.0658 48.875C71.7366 48.4516 71.5954 47.9812 71.5954 47.4638C71.5484 46.8522 71.7366 46.2878 72.1599 45.8644C72.5362 45.4881 73.1007 45.2529 73.6182 45.2999C74.0415 45.2999 74.4179 45.394 74.7471 45.6292C75.1705 45.9585 75.4057 46.4289 75.3587 46.9934V48.6868H75.6409V49.5806H75.3587C75.3587 50.1451 75.1235 50.7096 74.7001 51.0859C74.4179 51.3681 74.0886 51.5092 73.7123 51.6033C73.477 51.6974 73.1948 51.6974 72.9126 51.6974H72.4422L72.0188 51.1329V50.7566C72.254 50.8036 72.4422 50.8036 72.6774 50.8036C73.6182 50.8036 74.1356 50.3803 74.2297 49.5335L73.5241 49.5806ZM74.2767 46.9463C74.2767 46.7582 74.2297 46.523 74.0415 46.3818C73.9004 46.2407 73.7593 46.1937 73.5711 46.1937C73.2889 46.1937 73.0537 46.3348 72.8655 46.523C72.6774 46.8052 72.5833 47.0874 72.5833 47.4167C72.5362 47.746 72.6774 48.0282 72.8655 48.2635C73.0537 48.4987 73.3359 48.6398 73.6652 48.5927H74.2767V46.9463Z" fill="#A1A1A1"/>
<path d="M77.0994 48.5928H75.5V49.4865H77.0994V48.5928Z" fill="#A1A1A1"/>
<path d="M78.6043 48.5928H77.0049V49.4865H78.6043V48.5928Z" fill="#A1A1A1"/>
<path d="M80.1098 48.5926C79.9687 48.2163 79.8746 47.8399 79.8746 47.4166C79.8275 46.805 80.0627 46.1935 80.4861 45.7702C80.8624 45.3938 81.3328 45.2057 81.8503 45.2527C82.2736 45.2527 82.697 45.3468 83.0733 45.582C83.4497 45.9113 83.6849 46.3817 83.6378 46.8991V48.3103C83.6378 48.3574 83.6378 48.4515 83.6848 48.4985C83.7319 48.5455 83.7789 48.5926 83.873 48.5926H83.9671V49.4863H83.5908C83.3556 49.4863 83.0733 49.3923 82.9322 49.2041C82.697 49.5804 82.2736 49.7686 81.8032 49.7686C81.3328 49.7686 80.8624 49.5804 80.5331 49.2041L80.2509 49.4863H78.6045V48.5926H80.1098ZM82.5559 46.9462C82.5559 46.758 82.4618 46.5228 82.3207 46.3817C82.1796 46.2406 81.9914 46.1465 81.8032 46.1465C81.521 46.1465 81.2858 46.2876 81.0976 46.4758C80.9095 46.758 80.8154 47.0402 80.8154 47.3695C80.8154 47.7458 80.9095 48.0751 81.0976 48.4044C81.2387 48.6396 81.474 48.7807 81.7562 48.7807C82.0384 48.7807 82.3207 48.6396 82.5088 48.4044L82.5559 46.9462Z" fill="#A1A1A1"/>
<path d="M85.4255 48.5928H83.8262V49.4865H85.4255V48.5928Z" fill="#A1A1A1"/>
<path d="M87.9656 43.0889V48.5926C87.9656 48.8278 87.8716 49.063 87.7304 49.2512C87.5893 49.4864 87.3071 49.5804 87.0248 49.5804H85.3784V48.6867H86.7426C86.7896 48.6867 86.8837 48.6396 86.9308 48.5926C86.9778 48.5456 86.9778 48.4985 86.9778 48.4044V43.0889H87.9656Z" fill="#A1A1A1"/>
<path d="M90.1765 43.0889V49.3452L89.659 49.7686H89.1416V43.0889H90.1765Z" fill="#A1A1A1"/>
<path d="M96.621 45.1589V48.4047C96.621 48.4988 96.621 48.5459 96.6681 48.5929C96.7151 48.6399 96.7621 48.6399 96.8092 48.6399H97.0914V49.5337H96.5269C96.2447 49.5337 96.0095 49.3926 95.8213 49.2044C95.5391 49.4867 95.1628 49.6278 94.7394 49.6278C94.316 49.6278 93.8927 49.4867 93.5634 49.2044C93.093 48.734 92.8578 48.1225 92.9048 47.4639C92.9048 46.8524 93.093 46.2879 93.5164 45.8175C93.8456 45.4412 94.3631 45.206 94.8805 45.206C95.2098 45.206 95.4921 45.3001 95.7743 45.4412L96.1506 45.1589H96.621ZM95.5391 46.335C95.3509 46.2409 95.1628 46.1938 94.9746 46.1938C94.6924 46.1938 94.4101 46.335 94.1749 46.5231C93.9868 46.7583 93.8456 47.0876 93.8927 47.4169C93.8927 47.7462 93.9868 48.0755 94.1749 48.3107C94.3631 48.5459 94.6453 48.6399 94.9276 48.6399C95.1628 48.6399 95.3509 48.5929 95.5861 48.4988L95.5391 46.335ZM94.6924 43.4185C94.8335 43.4185 94.9746 43.4655 95.0687 43.6066C95.2098 43.7007 95.2569 43.8889 95.2569 44.03C95.2569 44.1711 95.2098 44.3122 95.0687 44.4063C94.9746 44.5004 94.8335 44.5945 94.6924 44.5945C94.5512 44.5945 94.4101 44.5474 94.316 44.4063C94.222 44.3122 94.1279 44.1711 94.1279 44.03C94.1279 43.8889 94.1749 43.7007 94.316 43.6066C94.4101 43.4655 94.5512 43.4185 94.6924 43.4185ZM96.0565 43.4185C96.1977 43.4185 96.3388 43.4655 96.4329 43.6066C96.574 43.7007 96.621 43.8889 96.621 44.03C96.621 44.1711 96.574 44.3122 96.4329 44.4063C96.1977 44.6415 95.8684 44.5945 95.6332 44.4063C95.5391 44.3122 95.4921 44.1711 95.4921 44.03C95.4921 43.8889 95.5391 43.7007 95.6802 43.6066C95.7273 43.4655 95.8684 43.4185 96.0565 43.4185Z" fill="#A1A1A1"/>
<path d="M99.5373 45.3937V48.6395H99.9606V49.5333H99.6784L99.3961 49.1569C99.208 49.3922 98.9728 49.5333 98.6435 49.5333H96.9971V48.6395H98.3142C98.3612 48.6395 98.4553 48.5925 98.5024 48.5454C98.5494 48.4984 98.5964 48.4513 98.5964 48.3573V45.3467L99.5373 45.3937ZM97.7027 50.2389C97.8438 50.2389 97.9849 50.2859 98.079 50.427C98.3142 50.6622 98.3142 51.0386 98.079 51.2738C97.9849 51.3678 97.8438 51.4619 97.7027 51.4619C97.5616 51.4619 97.4204 51.4149 97.3264 51.2738C97.0911 51.0386 97.0911 50.6622 97.3264 50.427C97.3734 50.2859 97.5145 50.1918 97.7027 50.2389ZM98.9728 50.2389C99.1139 50.2389 99.255 50.2859 99.3491 50.427C99.5843 50.6622 99.5843 51.0386 99.3491 51.2738C99.1609 51.509 98.8316 51.509 98.5964 51.3208L98.5494 51.2738C98.3142 51.0386 98.3142 50.6622 98.5494 50.427C98.6905 50.2859 98.8316 50.2389 98.9728 50.2389Z" fill="#A1A1A1"/>
<path d="M101.09 46.9464C101.278 46.3819 101.654 45.9115 102.172 45.5822C102.548 45.347 102.971 45.2529 103.442 45.2529C103.865 45.2529 104.288 45.3941 104.665 45.6293C105.135 45.9585 105.465 46.3819 105.653 46.9464L105.559 47.2286C105.276 47.3697 105.041 47.5579 104.806 47.7931C104.571 48.0283 104.43 48.3106 104.336 48.5928H105.7V49.4866H103.771C103.583 49.4866 103.442 49.3925 103.348 49.2514H103.301C103.207 49.3925 103.018 49.4866 102.83 49.4866H99.8667V48.5928H102.36C102.266 48.3106 102.125 48.0283 101.936 47.7931C101.701 47.5579 101.466 47.3227 101.137 47.1816L101.09 46.9464ZM104.571 46.9464C104.477 46.7112 104.241 46.523 104.006 46.3819C103.818 46.2878 103.63 46.2408 103.395 46.2408C103.16 46.2408 102.924 46.2878 102.736 46.4289C102.501 46.5701 102.313 46.7582 102.219 46.9934C102.454 47.1345 102.689 47.3227 102.83 47.5579C103.065 47.8402 103.254 48.1224 103.348 48.4517H103.395C103.536 48.1224 103.724 47.7931 103.959 47.5109C104.1 47.2286 104.336 47.0405 104.571 46.9464Z" fill="#A1A1A1"/>
<path d="M107.299 48.5928H105.7V49.4865H107.299V48.5928Z" fill="#A1A1A1"/>
<path d="M108.757 48.5926C108.616 48.2163 108.522 47.8399 108.522 47.4166C108.475 46.805 108.71 46.1935 109.134 45.7702C109.51 45.3938 109.98 45.2057 110.498 45.2527C110.921 45.2527 111.344 45.3468 111.721 45.582C112.097 45.9113 112.332 46.3817 112.285 46.8991V48.3103C112.285 48.3574 112.285 48.4515 112.332 48.4985C112.379 48.5455 112.426 48.5926 112.52 48.5926H112.615V49.4863H112.238C112.003 49.4863 111.721 49.3923 111.58 49.2041C111.344 49.5804 110.921 49.7686 110.451 49.7686C109.98 49.7686 109.51 49.5804 109.181 49.2041L108.898 49.4863H107.252V48.5926H108.757ZM111.25 46.9462C111.25 46.758 111.156 46.5228 111.015 46.3817C110.874 46.2406 110.686 46.1465 110.498 46.1465C110.215 46.1465 109.98 46.2876 109.792 46.4758C109.604 46.758 109.51 47.0402 109.51 47.3695C109.51 47.7458 109.604 48.0751 109.792 48.4044C109.933 48.6396 110.168 48.7807 110.451 48.7807C110.733 48.7807 111.015 48.6396 111.203 48.4044L111.25 46.9462Z" fill="#A1A1A1"/>
<path d="M113.602 45.5349C114.073 45.3938 114.59 45.2997 115.061 45.2527C115.719 45.2056 116.331 45.4879 116.754 45.9583C117.13 46.3816 117.318 46.9461 117.318 47.5106V48.5455C117.318 48.7807 117.224 49.0159 117.036 49.204C116.848 49.4392 116.613 49.5333 116.331 49.5333H112.426V48.6396H116.048C116.142 48.6396 116.237 48.5455 116.284 48.4514C116.284 48.4514 116.284 48.4514 116.284 48.4044V47.6047C116.284 47.2283 116.142 46.852 115.907 46.6168C115.625 46.3346 115.202 46.2405 114.825 46.2875C114.402 46.2875 114.026 46.3816 113.602 46.4757V45.5349ZM114.825 50.2389C114.966 50.2389 115.108 50.286 115.202 50.4271C115.437 50.6623 115.437 51.0386 115.202 51.2738C115.013 51.509 114.684 51.509 114.449 51.3209L114.402 51.2738C114.167 51.0386 114.167 50.6623 114.402 50.4271C114.543 50.286 114.684 50.2389 114.825 50.2389Z" fill="#A1A1A1"/>
<path d="M66.7504 56.0253V59.2711C66.7504 59.3652 66.7504 59.4122 66.7975 59.4593C66.8445 59.5063 66.8915 59.5063 66.9386 59.5063H67.2208V60.4001H66.6563C66.3741 60.4001 66.1389 60.259 65.9507 60.0708C65.6685 60.353 65.2922 60.4942 64.8688 60.4942C64.4454 60.4942 64.0221 60.353 63.6928 60.0708C63.2224 59.6004 62.9872 58.9889 63.0342 58.3303C63.0342 57.7188 63.2224 57.1543 63.6458 56.6839C63.975 56.3076 64.4925 56.0724 65.0099 56.0724C65.3392 56.0724 65.6215 56.1664 65.9037 56.3076L66.28 56.0253H66.7504ZM65.7155 57.2013C65.5274 57.1073 65.3392 57.0602 65.151 57.0602C64.8688 57.0602 64.5866 57.2013 64.3514 57.3895C64.1632 57.6247 64.0221 57.954 64.0691 58.2833C64.0691 58.6125 64.1632 58.9418 64.3514 59.177C64.5395 59.4122 64.8218 59.5063 65.104 59.5063C65.3392 59.5063 65.5274 59.4593 65.7626 59.3652L65.7155 57.2013ZM64.9158 54.2378C65.057 54.2378 65.1981 54.2848 65.2922 54.426C65.4333 54.52 65.4803 54.7082 65.4803 54.8493C65.4803 54.9904 65.4333 55.1316 65.2922 55.2256C65.1981 55.3197 65.057 55.4138 64.9158 55.4138C64.7747 55.4138 64.6336 55.3668 64.5395 55.2256C64.4454 55.1316 64.3514 54.9904 64.3514 54.8493C64.3514 54.7082 64.3984 54.52 64.5395 54.426C64.5866 54.3319 64.7277 54.2378 64.9158 54.2378ZM66.1859 54.2378C66.3271 54.2378 66.4682 54.2848 66.5623 54.426C66.7034 54.52 66.7504 54.7082 66.7504 54.8493C66.7504 54.9904 66.7034 55.1316 66.5623 55.2256C66.3271 55.4608 65.9978 55.4138 65.7626 55.2256C65.6685 55.1316 65.6214 54.9904 65.6214 54.8493C65.6214 54.7082 65.6685 54.52 65.8096 54.426C65.9037 54.3319 66.0448 54.2378 66.1859 54.2378Z" fill="#A1A1A1"/>
<path d="M69.7137 56.2131V59.3648C69.7137 59.6 69.6196 59.8352 69.4785 60.0233C69.2903 60.2585 69.0551 60.3526 68.7729 60.3526H67.1265V59.4588H68.4906C68.5377 59.4588 68.6318 59.4118 68.6788 59.3648C68.7258 59.3177 68.7258 59.2707 68.7258 59.1766V56.166L69.7137 56.2131ZM67.8321 61.1053C67.9732 61.1053 68.1143 61.1523 68.2084 61.2934C68.4436 61.5286 68.4436 61.9049 68.2084 62.1401C68.0202 62.3753 67.6909 62.3753 67.4557 62.1872L67.4087 62.1401C67.1735 61.9049 67.1735 61.5286 67.4087 61.2934C67.5498 61.1523 67.6909 61.0582 67.8321 61.1053ZM69.1492 61.1053C69.2903 61.1053 69.4314 61.1523 69.5255 61.2934C69.6196 61.4345 69.6666 61.5757 69.7137 61.7168C69.7137 61.8579 69.6666 62.0461 69.5255 62.1401C69.3374 62.3753 69.0081 62.3753 68.7729 62.1872L68.7258 62.1401C68.4906 61.9049 68.4906 61.5286 68.7258 61.2934C68.867 61.1523 69.0081 61.1053 69.1492 61.1053Z" fill="#A1A1A1"/>
<path d="M73.3359 56.2131V59.4588H73.7593V60.3526H73.3359C73.3359 61.0112 73.0537 61.6227 72.5363 61.999C72.1129 62.3283 71.5484 62.4694 71.031 62.4694H70.7017L70.2783 61.9049V61.5286C70.4665 61.5757 70.6076 61.5757 70.7958 61.5757C71.7836 61.5757 72.3011 61.0582 72.3011 60.0233V56.166L73.3359 56.2131Z" fill="#A1A1A1"/>
<path d="M82.8382 56.2134V59.3651C82.8382 59.6003 82.7442 59.8825 82.556 60.0707C82.4149 60.2588 82.1797 60.4 81.8974 60.3529H80.0629L79.7806 59.9766H79.7336C79.5925 60.2118 79.3102 60.3529 78.9809 60.3529H77.1464L76.8171 59.9766H76.77C76.6289 60.2118 76.3467 60.3529 76.0174 60.3529H73.5713V59.4592H75.6881C75.7822 59.4592 75.8763 59.3651 75.9233 59.271C75.9233 59.271 75.9233 59.271 75.9233 59.224V57.2483H76.9582V59.4592H78.6046C78.6987 59.4592 78.7928 59.3651 78.8398 59.271C78.8398 59.271 78.8398 59.271 78.8398 59.224V56.7308H79.8747V59.4592H81.4741C81.5682 59.4592 81.6622 59.3651 81.7093 59.271C81.7093 59.271 81.7093 59.271 81.7093 59.224V56.2134H82.8382Z" fill="#A1A1A1"/>
<path d="M88.5299 53.9555V59.4592C88.5299 59.6944 88.4358 59.9296 88.2477 60.1178C88.0595 60.353 87.8243 60.447 87.542 60.447H84.0611L83.6377 59.8826V59.5533H85.7075L84.2963 55.0844H85.2841L86.6953 59.5533H87.1657C87.2128 59.5533 87.3068 59.5062 87.3539 59.4592C87.4009 59.4122 87.4009 59.3651 87.4009 59.271V53.9555H88.5299ZM84.2963 54.0025C84.2022 53.8614 84.1551 53.6732 84.1551 53.4851C84.1551 53.2499 84.2492 53.0147 84.3903 52.8265C84.5315 52.6383 84.7667 52.5913 85.0019 52.5913C85.143 52.5913 85.2841 52.6383 85.4252 52.6854V53.1558C85.3312 53.1088 85.2371 53.1088 85.143 53.1088C84.8607 53.1088 84.7667 53.2499 84.7667 53.5321C84.7667 53.6262 84.8137 53.7203 84.8607 53.8144C84.9548 53.9084 85.0489 53.9555 85.143 53.9555H85.7075V54.1907L85.4723 54.4729H83.967V54.0025H84.2963Z" fill="#A1A1A1"/>
<path d="M90.7409 53.9551V60.1644L90.2235 60.6348H89.7061V53.9551H90.7409Z" fill="#A1A1A1"/>
<path d="M97.1855 56.0253V59.2711C97.1855 59.3652 97.1855 59.4122 97.2325 59.4593C97.2796 59.5063 97.3266 59.5063 97.3736 59.5063H97.6559V60.4001H97.0914C96.8092 60.4001 96.5739 60.259 96.3858 60.0708C96.1035 60.353 95.7272 60.4942 95.3039 60.4942C94.8805 60.4942 94.4571 60.353 94.1279 60.0708C93.6575 59.6004 93.4222 58.9889 93.4693 58.3303C93.4693 57.7188 93.6574 57.1543 94.0808 56.6839C94.4101 56.3076 94.9275 56.0724 95.445 56.0724C95.7743 56.0724 96.0565 56.1664 96.3388 56.3076L96.7151 56.0253H97.1855ZM96.1036 57.2013C95.9154 57.1073 95.7272 57.0602 95.5391 57.0602C95.2568 57.0602 94.9746 57.2013 94.7394 57.3895C94.5512 57.6247 94.4101 57.954 94.4571 58.2833C94.4571 58.6125 94.5512 58.9418 94.7394 59.177C94.9275 59.4122 95.2098 59.5063 95.492 59.5063C95.7272 59.5063 95.9154 59.4593 96.1506 59.3652L96.1036 57.2013ZM95.3039 54.2378C95.445 54.2378 95.5861 54.2848 95.6802 54.426C95.8213 54.52 95.8683 54.7082 95.8683 54.8493C95.8683 54.9904 95.8213 55.1316 95.6802 55.2256C95.5861 55.3197 95.445 55.4138 95.3039 55.4138C95.1627 55.4138 95.0216 55.3668 94.9275 55.2256C94.8335 55.1316 94.7394 54.9904 94.7394 54.8493C94.7394 54.7082 94.7864 54.52 94.9275 54.426C95.0216 54.3319 95.1627 54.2378 95.3039 54.2378ZM96.621 54.2378C96.7621 54.2378 96.9032 54.2848 96.9973 54.426C97.1384 54.52 97.1855 54.7082 97.1855 54.8493C97.1855 54.9904 97.1384 55.1316 96.9973 55.2256C96.7621 55.4608 96.4328 55.4138 96.1976 55.2256C96.1035 55.1316 96.0565 54.9904 96.0565 54.8493C96.0565 54.7082 96.1036 54.52 96.2447 54.426C96.2917 54.3319 96.4328 54.2378 96.621 54.2378Z" fill="#A1A1A1"/>
<path d="M100.102 56.2131V59.4588H100.525V60.3526H100.243L99.9606 59.9763C99.7724 60.2115 99.5372 60.3526 99.2079 60.3526H97.5615V59.4588H98.8787C98.9257 59.4588 99.0198 59.4118 99.0668 59.3648C99.1139 59.3177 99.1609 59.2707 99.1609 59.1766V56.166L100.102 56.2131ZM98.2671 61.1053C98.4083 61.1053 98.5494 61.1523 98.6435 61.2934C98.8787 61.5286 98.8787 61.9049 98.6435 62.1401C98.5494 62.2342 98.4083 62.3283 98.2671 62.3283C98.126 62.3283 97.9849 62.2813 97.8908 62.1401C97.6556 61.9049 97.6556 61.5286 97.8908 61.2934C97.9379 61.1523 98.079 61.0582 98.2671 61.1053ZM99.5372 61.1053C99.6783 61.1053 99.8195 61.1523 99.9135 61.2934C100.149 61.5286 100.149 61.9049 99.9135 62.1401C99.7254 62.3753 99.3961 62.3753 99.1609 62.1872L99.1139 62.1401C98.8787 61.9049 98.8787 61.5286 99.1139 61.2934C99.255 61.1523 99.3961 61.1053 99.5372 61.1053Z" fill="#A1A1A1"/>
<path d="M102.031 59.5061C101.89 59.1298 101.795 58.7535 101.795 58.3301C101.748 57.7186 101.984 57.1071 102.407 56.6837C102.783 56.3074 103.254 56.1192 103.771 56.1663C104.195 56.1663 104.618 56.2604 104.994 56.4956C105.371 56.8248 105.606 57.2953 105.559 57.8127V59.2239C105.559 59.2709 105.559 59.365 105.606 59.4121C105.653 59.4591 105.7 59.5061 105.794 59.5061H105.888V60.3999H105.512C105.276 60.3999 104.994 60.3058 104.853 60.1177C104.618 60.494 104.195 60.6822 103.724 60.6822C103.254 60.6822 102.783 60.494 102.454 60.1177L102.172 60.3999H100.525V59.5061H102.031ZM104.477 57.8597C104.477 57.6716 104.383 57.4364 104.242 57.2953C104.1 57.1541 103.912 57.0601 103.724 57.0601C103.442 57.0601 103.207 57.2012 103.019 57.3893C102.83 57.6716 102.736 57.9538 102.736 58.2831C102.736 58.6594 102.83 58.9887 103.019 59.318C103.16 59.5532 103.395 59.6943 103.677 59.6943C103.959 59.6943 104.242 59.5532 104.43 59.318L104.477 57.8597Z" fill="#A1A1A1"/>
<path d="M108.334 56.2135V59.4593H108.757V60.353H108.475L108.193 59.9767C108.005 60.2119 107.77 60.353 107.44 60.353H105.794V59.4593H107.111C107.158 59.4593 107.252 59.4122 107.299 59.3652C107.346 59.3182 107.393 59.2711 107.393 59.177V56.1664L108.334 56.2135ZM107.817 54.2378C107.958 54.2378 108.099 54.2848 108.193 54.426C108.334 54.52 108.381 54.7082 108.381 54.8493C108.381 54.9904 108.334 55.1316 108.193 55.2256C107.958 55.4608 107.629 55.4138 107.393 55.2256C107.299 55.1316 107.252 54.9904 107.252 54.8493C107.252 54.7082 107.299 54.52 107.44 54.426C107.534 54.3319 107.676 54.2848 107.817 54.2378Z" fill="#A1A1A1"/>
<path d="M111.344 56.2135V59.4593H111.768V60.353H111.485L111.203 59.9767C111.015 60.2119 110.78 60.353 110.451 60.353H108.804V59.4593H110.121C110.168 59.4593 110.262 59.4122 110.309 59.3652C110.357 59.3182 110.404 59.2711 110.404 59.177V56.1664L111.344 56.2135ZM109.557 54.2378C109.698 54.2378 109.839 54.2848 109.933 54.426C110.074 54.52 110.121 54.7082 110.121 54.8493C110.121 54.9904 110.074 55.1316 109.933 55.2256C109.839 55.3197 109.698 55.4138 109.557 55.4138C109.416 55.4138 109.275 55.3668 109.181 55.2256C109.086 55.1316 108.992 54.9904 108.992 54.8493C108.992 54.7082 109.039 54.52 109.181 54.426C109.275 54.3319 109.416 54.2848 109.557 54.2378ZM110.874 54.2378C111.015 54.2378 111.156 54.2848 111.25 54.426C111.391 54.52 111.438 54.7082 111.438 54.8493C111.438 54.9904 111.391 55.1316 111.25 55.2256C111.015 55.4608 110.686 55.4138 110.451 55.2256C110.357 55.1316 110.309 54.9904 110.309 54.8493C110.309 54.7082 110.357 54.52 110.498 54.426C110.592 54.3319 110.733 54.2378 110.874 54.2378Z" fill="#A1A1A1"/>
<path d="M114.261 53.9552V59.506H114.684V60.3998H114.402L114.073 60.0235C113.885 60.2587 113.65 60.3998 113.32 60.3998H111.674V59.506H113.038C113.085 59.506 113.179 59.459 113.226 59.4119C113.273 59.3649 113.273 59.3178 113.273 59.2238V53.9082L114.261 53.9552Z" fill="#A1A1A1"/>
<path d="M117.271 53.9551V59.4588C117.271 59.694 117.177 59.9292 117.036 60.1174C116.895 60.3526 116.613 60.4467 116.331 60.4467H114.637V59.5529H116.001C116.048 59.5529 116.143 59.5058 116.19 59.4588C116.237 59.4118 116.237 59.3647 116.237 59.2706V53.9551H117.271Z" fill="#A1A1A1"/>
<path d="M65.7627 68.2554H64.3985L64.0222 69.4314H63.5518L64.8689 65.6211H65.4804L66.7505 69.4314H66.2331L65.7627 68.2554ZM65.6215 67.832L65.057 66.0915L64.4455 67.832H65.6215Z" fill="#A1A1A1"/>
<path d="M67.503 65.5742H67.0796V69.3845H67.503V65.5742Z" fill="#A1A1A1"/>
<path d="M69.1494 66.6564H69.5257V67.0327C69.7139 66.7505 69.9961 66.6094 70.3254 66.6094C70.6077 66.6094 70.8899 66.7505 71.031 66.9857C71.1251 66.8446 71.2192 66.7505 71.3603 66.7035C71.5014 66.6564 71.6426 66.6094 71.7837 66.6094C72.3011 66.6094 72.5834 66.8916 72.5834 67.362V69.3848H72.16V67.5031C72.16 67.1739 71.9718 66.9387 71.6896 66.9387C71.5014 66.9387 71.3603 67.0327 71.2662 67.1739C71.1251 67.315 71.0781 67.4561 71.0781 67.6443V69.3848H70.6547V67.5031C70.6547 67.1739 70.4665 66.9387 70.1843 66.9387C69.9961 66.9387 69.855 67.0327 69.7609 67.1739C69.6198 67.315 69.5728 67.5031 69.5728 67.6913V69.4318H69.1494V66.6564Z" fill="#A1A1A1"/>
<path d="M75.5939 69.0082V69.3375C75.4998 69.3845 75.4057 69.3845 75.3116 69.3845C75.0294 69.3845 74.8883 69.2434 74.8883 69.0082C74.7001 69.2904 74.3708 69.4315 74.0415 69.3845C73.5711 69.4315 73.1948 69.0552 73.1948 68.6319V68.5848C73.1948 68.3496 73.2889 68.1144 73.4771 67.9733C73.6652 67.8322 73.8534 67.7851 74.0886 67.7381L74.9353 67.5029V67.2677C74.9353 66.9854 74.7001 66.8914 74.3238 66.8914C73.9475 66.8914 73.7593 67.0795 73.7123 67.3618H73.2889C73.2889 67.1736 73.3359 66.9854 73.4771 66.7973C73.7123 66.5621 73.9945 66.421 74.3238 66.468C74.9824 66.468 75.3116 66.7502 75.3116 67.2206V68.7259C75.3116 68.8671 75.3587 68.9611 75.4998 68.9611C75.4528 69.0552 75.4998 69.0552 75.5939 69.0082ZM74.8412 67.9733L74.1827 68.1614C73.9945 68.1614 73.8534 68.2555 73.7123 68.3966C73.6182 68.4907 73.5711 68.5848 73.5711 68.6789C73.5711 68.9611 73.7593 69.1023 74.0886 69.1023C74.3238 69.1023 74.559 69.0082 74.7001 68.82C74.7942 68.7259 74.8412 68.5848 74.8883 68.4907L74.8412 67.9733Z" fill="#A1A1A1"/>
<path d="M78.4632 69.3846H77.9928L77.4754 67.2207L76.9579 69.3846H76.4405L75.7349 66.6562H76.2053L76.7227 68.7731L77.1931 66.6562H77.7106L78.228 68.7731L78.7454 66.6562H79.2158L78.4632 69.3846Z" fill="#A1A1A1"/>
<path d="M81.9445 69.0082V69.3375C81.8504 69.3845 81.7563 69.3845 81.6622 69.3845C81.38 69.3845 81.2389 69.2434 81.2389 69.0082C81.0507 69.2904 80.7214 69.4315 80.3921 69.3845C79.9217 69.4315 79.5454 69.0552 79.5454 68.6319V68.5848C79.5454 68.3496 79.6395 68.1144 79.8276 67.9733C80.0158 67.8322 80.204 67.7851 80.4392 67.7381L81.2859 67.5029V67.2677C81.2859 66.9854 81.0507 66.8914 80.6744 66.8914C80.2981 66.8914 80.1099 67.0795 80.0628 67.3618H79.6395C79.6395 67.1736 79.6865 66.9854 79.8276 66.7973C80.0628 66.5621 80.3451 66.421 80.6744 66.468C81.3329 66.468 81.6622 66.7502 81.6622 67.2206V68.7259C81.6622 68.8671 81.7093 68.9611 81.8504 68.9611C81.8504 69.0552 81.8974 69.0552 81.9445 69.0082ZM81.2389 67.9733L80.5803 68.1614C80.3921 68.1614 80.251 68.2555 80.1099 68.3966C80.0158 68.4907 79.9688 68.5848 79.9688 68.6789C79.9688 68.9611 80.1569 69.1023 80.4862 69.1023C80.7214 69.1023 80.9566 69.0082 81.0977 68.82C81.1918 68.7259 81.2389 68.5848 81.2859 68.4907L81.2389 67.9733Z" fill="#A1A1A1"/>
<path d="M84.5317 65.5742V69.3845H84.1083V69.0082C83.9672 69.2904 83.6379 69.4786 83.3087 69.4315C82.9794 69.4786 82.6031 69.2904 82.4619 69.0082C82.2738 68.7259 82.1797 68.3496 82.1797 68.0203C82.1797 67.644 82.2738 67.2677 82.509 66.9384C82.6971 66.7032 82.9794 66.6091 83.3087 66.6091C83.6379 66.6091 83.9202 66.7502 84.1083 67.0325V65.6213L84.5317 65.5742ZM83.4027 67.0325C83.1675 67.0325 82.9794 67.1266 82.8383 67.3147C82.6971 67.5499 82.6031 67.7851 82.6031 68.0674C82.6031 68.3496 82.6971 68.6318 82.8853 68.867C83.1205 69.1493 83.4968 69.1963 83.7791 69.0082C83.8261 68.9611 83.8731 68.9141 83.9202 68.867C84.0613 68.6318 84.1554 68.3966 84.1554 68.1144C84.1554 67.8322 84.1083 67.5499 83.9202 67.3147C83.8261 67.1266 83.5909 66.9854 83.4027 67.0325Z" fill="#A1A1A1"/>
<path d="M87.3071 65.5742V69.3845H86.8837V69.0082C86.7426 69.2904 86.4133 69.4786 86.084 69.4315C85.7548 69.4786 85.3784 69.2904 85.2373 69.0082C85.0492 68.7259 84.9551 68.3496 84.9551 68.0203C84.9551 67.644 85.0492 67.2677 85.2844 66.9384C85.4725 66.7032 85.7548 66.6091 86.084 66.6091C86.4133 66.6091 86.6956 66.7502 86.8837 67.0325V65.6213L87.3071 65.5742ZM86.1781 67.0325C85.9429 67.0325 85.7548 67.1266 85.6136 67.3147C85.4725 67.5499 85.3784 67.7851 85.3784 68.0674C85.3784 68.3496 85.4725 68.6318 85.6607 68.867C85.8959 69.1493 86.2722 69.1963 86.5544 69.0082C86.6015 68.9611 86.6485 68.9141 86.6956 68.867C86.8367 68.6318 86.9308 68.3966 86.9308 68.1144C86.9308 67.8322 86.8837 67.5499 86.6956 67.3147C86.6015 67.1266 86.3663 66.9854 86.1781 67.0325Z" fill="#A1A1A1"/>
<path d="M90.2706 69.0082V69.3375C90.1766 69.3845 90.0825 69.3845 89.9884 69.3845C89.7062 69.3845 89.565 69.2434 89.565 69.0082C89.3769 69.2904 89.0476 69.4315 88.7183 69.3845C88.2479 69.4315 87.8716 69.0552 87.8716 68.6319V68.5848C87.8716 68.3496 87.9657 68.1144 88.1538 67.9733C88.342 67.8322 88.5301 67.7851 88.7653 67.7381L89.6121 67.5029V67.2677C89.6121 66.9854 89.3769 66.8914 89.0005 66.8914C88.6242 66.8914 88.4361 67.0795 88.389 67.3618H87.9657C87.9657 67.1736 88.0127 66.9854 88.1538 66.7973C88.389 66.5621 88.6713 66.421 89.0005 66.468C89.6591 66.468 89.9884 66.7502 89.9884 67.2206V68.7259C89.9884 68.8671 90.0354 68.9611 90.1766 68.9611C90.1295 69.0552 90.1295 69.0552 90.2706 69.0082ZM89.565 67.9733L88.9065 68.1614C88.7183 68.1614 88.5772 68.2555 88.4361 68.3966C88.342 68.4907 88.2949 68.5848 88.2949 68.6789C88.2949 68.9611 88.4831 69.1023 88.8124 69.1023C89.0476 69.1023 89.2828 69.0082 89.4239 68.82C89.518 68.7259 89.565 68.5848 89.6121 68.4907L89.565 67.9733Z" fill="#A1A1A1"/>
<path d="M90.6938 65.5742H91.0702V67.0325C91.1643 66.8914 91.3054 66.7973 91.4465 66.7032C91.5876 66.6091 91.7758 66.6091 91.9169 66.6091C92.1521 66.6091 92.3403 66.7032 92.5284 66.8443C92.6695 66.9854 92.7636 67.2206 92.7636 67.4088V69.4315H92.3873V67.5499C92.3873 67.4088 92.3403 67.2206 92.1991 67.1266C92.1051 67.0325 91.9639 66.9854 91.8228 66.9854C91.6347 66.9854 91.3995 67.0795 91.3054 67.2677C91.1643 67.4558 91.0702 67.691 91.0702 67.9262V69.4315H90.6938V65.5742Z" fill="#A1A1A1"/>
<path d="M97.0444 66.6563H96.6211C96.6211 66.1389 96.3388 65.9037 95.7273 65.9037C95.4921 65.9037 95.3039 65.9507 95.1158 66.0918C94.9747 66.2329 94.8806 66.3741 94.8806 66.5622C94.8806 66.7033 94.9276 66.7974 95.0217 66.8915C95.1628 66.9856 95.3039 67.0797 95.4921 67.1267L96.3388 67.3619C96.9033 67.5501 97.1385 67.8323 97.1385 68.3027C97.1385 68.632 96.9974 68.9613 96.7622 69.1494C96.4799 69.3846 96.1036 69.4787 95.7273 69.4317C95.2569 69.4787 94.7865 69.2906 94.5042 68.9142C94.3631 68.679 94.269 68.3968 94.269 68.1146H94.6924C94.6924 68.3498 94.7865 68.585 94.9746 68.7731C95.2099 68.9142 95.4921 69.0083 95.7743 69.0083C96.0095 69.0554 96.2447 68.9613 96.4329 68.8202C96.6211 68.679 96.7151 68.4909 96.7151 68.3027C96.7151 68.0205 96.4799 67.8323 96.0566 67.6912L95.1628 67.409C94.7395 67.3149 94.4572 66.9856 94.4572 66.5622C94.4572 66.2329 94.5983 65.9507 94.8335 65.7625C95.1158 65.5744 95.398 65.4803 95.7273 65.4803C96.1507 65.4333 96.574 65.6214 96.8563 65.9507C96.9974 66.1859 97.0915 66.4211 97.0444 66.6563Z" fill="#A1A1A1"/>
<path d="M98.7847 66.6094C99.1611 66.6094 99.4903 66.7505 99.6785 67.0327C99.8667 67.315 99.9607 67.6913 99.9607 68.0206C99.9607 68.3969 99.8667 68.7732 99.6315 69.1025C99.3963 69.3377 99.114 69.4318 98.8318 69.4318C98.4554 69.4318 98.1262 69.2907 97.938 69.0084C97.7498 68.7262 97.6558 68.3499 97.6558 68.0206C97.6558 67.5972 97.7498 67.2209 97.985 66.8916C98.1732 66.7035 98.4554 66.6094 98.7847 66.6094ZM98.7847 66.9857C98.5495 66.9857 98.3614 67.0798 98.2202 67.2679C97.938 67.7383 97.938 68.3499 98.2202 68.8203C98.3614 68.9614 98.5495 69.0555 98.7377 69.0555C98.9729 69.0555 99.1611 68.9614 99.3022 68.7732C99.4433 68.538 99.5374 68.3028 99.5374 68.0206C99.5374 67.7383 99.4903 67.4561 99.3022 67.2209C99.1611 67.0798 98.9729 66.9857 98.7847 66.9857Z" fill="#A1A1A1"/>
<path d="M102.501 67.5972H102.077C102.077 67.2679 101.842 67.0327 101.513 67.0327H101.466C101.231 67.0327 101.043 67.1268 100.948 67.315C100.807 67.5502 100.76 67.8324 100.76 68.1147C100.76 68.3969 100.807 68.6791 100.995 68.9143C101.137 69.0555 101.325 69.1496 101.513 69.1496C101.842 69.1496 102.124 68.9143 102.124 68.5851C102.124 68.5851 102.124 68.5851 102.124 68.538H102.548C102.548 68.8203 102.407 69.1025 102.219 69.3377C102.03 69.4788 101.795 69.5729 101.513 69.5729C101.137 69.5729 100.807 69.4318 100.619 69.1496C100.431 68.8673 100.337 68.538 100.337 68.2087C100.337 67.7854 100.431 67.4091 100.666 67.0798C100.901 66.8446 101.184 66.7505 101.466 66.7505C101.795 66.7505 102.124 66.8916 102.313 67.1268C102.454 67.1739 102.501 67.4091 102.501 67.5972Z" fill="#A1A1A1"/>
<path d="M103.207 65.5742C103.254 65.5742 103.348 65.6213 103.395 65.6683C103.442 65.7153 103.489 65.7624 103.489 65.8565C103.489 65.9035 103.442 65.9976 103.395 66.0446C103.348 66.0917 103.301 66.1387 103.207 66.1387C103.16 66.1387 103.065 66.0917 103.018 66.0446C102.971 65.9976 102.924 65.9505 102.924 65.8565C102.924 65.8094 102.971 65.7153 103.018 65.6683C103.065 65.6213 103.112 65.5742 103.207 65.5742ZM103.395 69.3845H102.971V66.6561H103.348L103.395 69.3845Z" fill="#A1A1A1"/>
<path d="M106.311 68.1615H104.383C104.383 68.3497 104.43 68.5379 104.524 68.726C104.665 68.9612 104.9 69.1024 105.182 69.0553C105.512 69.0553 105.794 68.8671 105.888 68.5379H106.311C106.264 68.8201 106.123 69.0553 105.935 69.2435C105.747 69.4316 105.465 69.5257 105.182 69.5257C104.806 69.5257 104.477 69.3846 104.289 69.1023C104.1 68.8201 104.006 68.4438 104.006 68.1145C104.006 67.6911 104.1 67.3148 104.336 66.9855C104.571 66.7503 104.853 66.6562 105.135 66.6562C105.371 66.6562 105.606 66.7033 105.794 66.8444C105.982 66.9855 106.123 67.1737 106.17 67.3619C106.264 67.55 106.311 67.8323 106.311 68.1615ZM105.888 67.7852C105.888 67.5971 105.841 67.3619 105.653 67.2207C105.371 66.9385 104.9 66.9385 104.618 67.2207C104.477 67.3619 104.383 67.5971 104.383 67.7852H105.888Z" fill="#A1A1A1"/>
<path d="M107.911 66.6565V66.9857H107.393V68.8203C107.393 68.8674 107.393 68.9614 107.44 69.0085C107.487 69.0555 107.534 69.1025 107.628 69.1025C107.723 69.1025 107.817 69.1026 107.911 69.0555L107.958 69.4318C107.817 69.4789 107.628 69.4789 107.487 69.4789C107.158 69.4789 106.97 69.3378 106.97 69.0555V67.0328H106.641V66.7035H106.97V66.139L107.346 65.9038V66.7035H107.911V66.6565Z" fill="#A1A1A1"/>
<path d="M109.981 66.6562H110.404L109.228 69.9961C109.181 70.3254 108.852 70.5606 108.522 70.5606C108.381 70.5606 108.24 70.5136 108.146 70.4665L108.24 70.0902C108.334 70.1372 108.428 70.1372 108.522 70.1372C108.71 70.1372 108.805 70.0432 108.852 69.855L109.04 69.4316L108.193 66.7033H108.616L109.275 68.8201L109.981 66.6562Z" fill="#A1A1A1"/>
<path d="M112.756 66.6563V66.9856H112.333V69.3847H111.956V66.9856H111.627V66.6563H111.956V66.1859C111.956 65.9977 112.003 65.8566 112.144 65.7155C112.238 65.5744 112.427 65.5273 112.568 65.5273C112.662 65.5273 112.709 65.5273 112.803 65.5744V65.9037H112.662C112.474 65.9037 112.38 65.9977 112.38 66.1859V66.6093L112.756 66.6563Z" fill="#A1A1A1"/>
<path d="M114.214 66.6092C114.59 66.6092 114.92 66.7503 115.108 67.0326C115.296 67.3148 115.39 67.6911 115.39 68.0204C115.39 68.3967 115.296 68.7731 115.061 69.1023C114.825 69.3376 114.543 69.4316 114.261 69.4316C113.885 69.4316 113.555 69.2905 113.367 69.0083C113.179 68.726 113.085 68.3497 113.085 68.0204C113.085 67.5971 113.179 67.2207 113.414 66.8915C113.649 66.7033 113.932 66.5622 114.214 66.6092ZM114.214 66.9855C113.979 66.9855 113.791 67.0796 113.649 67.2678C113.367 67.7382 113.367 68.3497 113.649 68.8201C113.791 68.9612 113.979 69.0553 114.167 69.0553C114.402 69.0553 114.59 68.9612 114.731 68.7731C114.872 68.5379 114.967 68.3027 114.967 68.0204C114.967 67.7382 114.92 67.4559 114.731 67.2207C114.637 67.0796 114.449 66.9855 114.214 66.9855Z" fill="#A1A1A1"/>
<path d="M115.955 66.6564H116.331V67.1739C116.519 66.7975 116.707 66.6094 117.084 66.6094H117.225V67.0327C117.037 67.0327 116.848 67.0798 116.66 67.1739C116.472 67.362 116.378 67.6443 116.378 67.9735V69.3848H115.955V66.6564Z" fill="#A1A1A1"/>
<path d="M64.3513 74.0888V75.8293H63.8809V72.019H66.2799V72.4424H64.3513V73.6655H66.0447V74.0888H64.3513Z" fill="#A1A1A1"/>
<path d="M69.2907 75.4056V75.7349C69.1966 75.782 69.1025 75.782 69.0084 75.782C68.7262 75.782 68.5851 75.6408 68.5851 75.4056C68.3969 75.6879 68.0676 75.829 67.7383 75.782C67.2679 75.829 66.8916 75.4527 66.8916 75.0293V74.9823C66.8916 74.7471 66.9857 74.5119 67.1738 74.3708C67.362 74.2296 67.5502 74.1826 67.7854 74.1356L68.6321 73.9004V73.6652C68.6321 73.3829 68.3969 73.2888 68.0206 73.2888C67.6443 73.2888 67.4561 73.477 67.409 73.7592H66.9857C66.9857 73.5711 67.0327 73.3829 67.1738 73.1947C67.409 72.9595 67.6913 72.8184 68.0206 72.8655C68.6791 72.8655 69.0084 73.1477 69.0084 73.6181V75.1234C69.0084 75.2645 69.0555 75.3586 69.1966 75.3586C69.1495 75.4527 69.1966 75.4527 69.2907 75.4056ZM68.538 74.3708L67.8795 74.5589C67.6913 74.5589 67.5502 74.653 67.409 74.7941C67.315 74.8882 67.2679 74.9823 67.2679 75.0764C67.2679 75.3586 67.4561 75.4997 67.7854 75.4997C68.0206 75.4997 68.2558 75.4056 68.3969 75.2175C68.491 75.1234 68.538 74.9823 68.5851 74.8882L68.538 74.3708Z" fill="#A1A1A1"/>
<path d="M69.9019 73.0539H70.2782V73.4302C70.4663 73.148 70.7486 73.0068 71.0779 73.0068C71.3601 73.0068 71.6423 73.148 71.7835 73.3832C71.8776 73.242 71.9716 73.148 72.1128 73.1009C72.2539 73.0539 72.395 73.0068 72.5361 73.0068C73.0536 73.0068 73.3358 73.2891 73.3358 73.7595V75.7822H72.9124V73.9006C72.9124 73.5713 72.7243 73.3361 72.442 73.3361C72.2539 73.3361 72.1128 73.4302 72.0187 73.5713C71.8776 73.7124 71.8305 73.8536 71.8305 74.0417V75.7822H71.4071V73.9006C71.4071 73.5713 71.219 73.3361 70.9367 73.3361C70.7486 73.3361 70.6075 73.4302 70.5134 73.5713C70.3723 73.7124 70.3252 73.9006 70.3252 74.0888V75.8293H69.9019V73.0539Z" fill="#A1A1A1"/>
<path d="M74.3706 72.019C74.4177 72.019 74.5117 72.0661 74.5588 72.1131C74.6058 72.1602 74.6529 72.2072 74.6529 72.3013C74.6529 72.3483 74.6058 72.4424 74.5588 72.4894C74.5117 72.5365 74.4647 72.5835 74.3706 72.5835C74.3236 72.5835 74.2295 72.5365 74.1825 72.4894C74.1354 72.4424 74.0884 72.3954 74.0884 72.3013C74.0884 72.2542 74.1354 72.1602 74.1825 72.1131C74.2765 72.019 74.2765 72.019 74.3706 72.019ZM74.5588 75.8293H74.1825V73.101H74.5588V75.8293Z" fill="#A1A1A1"/>
<path d="M75.8291 72.019H75.4058V75.8293H75.8291V72.019Z" fill="#A1A1A1"/>
<path d="M78.275 73.0537H78.6984L77.5224 76.3936C77.4753 76.7229 77.146 76.9581 76.8168 76.9581C76.6756 76.9581 76.5345 76.911 76.4404 76.864L76.5345 76.4877C76.6286 76.5347 76.7227 76.5347 76.8168 76.5347C77.0049 76.5347 77.099 76.4406 77.146 76.2525L77.3342 75.8291L76.4875 73.1007H76.9108L77.5694 75.2176L78.275 73.0537Z" fill="#A1A1A1"/>
<path d="M80.5332 75.8289V72.0187H81.8974C82.3678 71.9716 82.7911 72.2068 83.0263 72.5831C83.2615 73.0065 83.4027 73.4769 83.3556 73.9473C83.4027 74.4648 83.2615 74.9822 82.9323 75.4056C82.65 75.6878 82.2737 75.876 81.8974 75.8289H80.5332ZM80.9566 75.3585H81.8033C82.5559 75.3585 82.8852 74.8881 82.8852 73.9003C82.8852 72.9124 82.5559 72.442 81.8033 72.442H80.9566V75.3585Z" fill="#A1A1A1"/>
<path d="M86.366 74.559H84.4374C84.4374 74.7472 84.4844 74.9353 84.5785 75.1235C84.7196 75.3587 84.9548 75.4998 85.237 75.4528C85.5663 75.4528 85.8486 75.2646 85.9427 74.9353H86.366C86.319 75.2176 86.1779 75.4528 85.9897 75.6409C85.8015 75.8291 85.5193 75.9232 85.237 75.9232C84.8607 75.9232 84.5314 75.7821 84.3433 75.4998C84.1551 75.2176 84.061 74.8412 84.061 74.512C84.061 74.0886 84.1551 73.7123 84.3903 73.383C84.6255 73.1478 84.9078 73.0537 85.19 73.0537C85.4252 73.0537 85.6604 73.1007 85.8486 73.2419C86.0367 73.383 86.1779 73.5712 86.2249 73.7593C86.366 73.9945 86.366 74.2768 86.366 74.559ZM85.9427 74.2297C85.9427 74.0416 85.8956 73.8064 85.7074 73.6652C85.4252 73.383 84.9548 73.383 84.6726 73.6652C84.5314 73.8064 84.4374 74.0416 84.4374 74.2297H85.9427Z" fill="#A1A1A1"/>
<path d="M88.1536 75.8291H87.7302L86.8364 73.0537H87.3068L87.9654 75.3117L88.718 73.0537H89.1414L88.1536 75.8291Z" fill="#A1A1A1"/>
<path d="M91.9168 74.559H89.9881C89.9881 74.7472 90.0352 74.9353 90.1293 75.1235C90.2704 75.3587 90.5056 75.4998 90.7878 75.4528C91.1171 75.4528 91.3994 75.2646 91.4934 74.9353H91.9168C91.8698 75.2176 91.7286 75.4528 91.5405 75.6409C91.3523 75.8291 91.0701 75.9232 90.7878 75.9232C90.4115 75.9232 90.0822 75.7821 89.8941 75.4998C89.7059 75.2176 89.6118 74.8412 89.6118 74.512C89.6118 74.0886 89.7059 73.7123 89.9411 73.383C90.1763 73.1478 90.4585 73.0537 90.7408 73.0537C90.976 73.0537 91.2112 73.1007 91.3994 73.2419C91.5875 73.383 91.7286 73.5712 91.7757 73.7593C91.9168 73.9945 91.9638 74.2768 91.9168 74.559ZM91.4934 74.2297C91.4934 74.0416 91.4464 73.8064 91.2582 73.6652C90.976 73.383 90.5056 73.383 90.2233 73.6652C90.0822 73.8064 89.9881 74.0416 89.9881 74.2297H91.4934Z" fill="#A1A1A1"/>
<path d="M93.0928 72.019H92.6694V75.8293H93.0928V72.019Z" fill="#A1A1A1"/>
<path d="M94.9747 73.0068C95.351 73.0068 95.6803 73.148 95.8684 73.4302C96.0566 73.7124 96.1507 74.0888 96.1507 74.418C96.1507 74.7944 96.0566 75.1707 95.8214 75.5C95.5862 75.7352 95.304 75.8293 95.0217 75.8293C94.6454 75.8293 94.3161 75.6881 94.1279 75.4059C93.9398 75.1237 93.8457 74.7473 93.8457 74.418C93.8457 73.9947 93.9398 73.6184 94.175 73.2891C94.3631 73.1009 94.6454 73.0068 94.9747 73.0068ZM94.9747 73.3832C94.7395 73.3832 94.5513 73.4772 94.4102 73.6654C94.1279 74.1358 94.1279 74.7473 94.4102 75.2177C94.5513 75.3589 94.7395 75.4529 94.9276 75.4529C95.1628 75.4529 95.351 75.3589 95.4921 75.1707C95.6332 74.9355 95.7273 74.7003 95.7273 74.418C95.7273 74.1358 95.6803 73.8536 95.4921 73.6184C95.351 73.4772 95.1628 73.3832 94.9747 73.3832Z" fill="#A1A1A1"/>
<path d="M96.7622 76.9582V73.0539H97.1385V73.4772C97.3267 73.195 97.6089 73.0068 97.9382 73.0068C98.2675 73.0068 98.5968 73.148 98.7849 73.4302C98.9731 73.7595 99.0672 74.0888 99.0672 74.4651C99.0672 74.8414 98.9731 75.2177 98.7379 75.5C98.5497 75.7352 98.2675 75.8293 97.9382 75.8293C97.6089 75.8293 97.3267 75.6881 97.1385 75.4529V76.9112L96.7622 76.9582ZM97.8912 73.3832C97.656 73.3832 97.4678 73.4772 97.3737 73.6654C97.2326 73.9006 97.1385 74.1828 97.1385 74.4651C97.1385 74.7473 97.1856 75.0296 97.3737 75.2648C97.5149 75.4059 97.703 75.5 97.8912 75.5C98.1264 75.5 98.3145 75.4059 98.4557 75.2177C98.5968 74.9825 98.6909 74.7473 98.6909 74.4651C98.6909 74.1828 98.6438 73.9006 98.4557 73.6654C98.3616 73.5243 98.1264 73.3832 97.8912 73.3832Z" fill="#A1A1A1"/>
<path d="M99.7725 73.0539H100.149V73.4302C100.337 73.148 100.619 73.0068 100.948 73.0068C101.231 73.0068 101.513 73.148 101.654 73.3832C101.748 73.242 101.842 73.148 101.983 73.1009C102.124 73.0539 102.266 73.0068 102.407 73.0068C102.924 73.0068 103.206 73.2891 103.206 73.7595V75.7822H102.783V73.9006C102.783 73.5713 102.595 73.3361 102.313 73.3361C102.124 73.3361 101.983 73.4302 101.889 73.5713C101.748 73.7124 101.701 73.8536 101.701 74.0417V75.7822H101.278V73.9006C101.278 73.5713 101.09 73.3361 100.807 73.3361C100.619 73.3361 100.478 73.4302 100.384 73.5713C100.243 73.7124 100.196 73.9006 100.196 74.0888V75.8293H99.7725V73.0539Z" fill="#A1A1A1"/>
<path d="M106.264 74.559H104.335C104.335 74.7472 104.382 74.9353 104.476 75.1235C104.618 75.3587 104.853 75.4998 105.135 75.4528C105.464 75.4528 105.747 75.2646 105.841 74.9353H106.264C106.217 75.2176 106.076 75.4528 105.888 75.6409C105.699 75.8291 105.417 75.9232 105.135 75.9232C104.759 75.9232 104.429 75.7821 104.241 75.4998C104.053 75.2176 103.959 74.8412 103.959 74.512C103.959 74.0886 104.053 73.7123 104.288 73.383C104.523 73.1478 104.806 73.0537 105.088 73.0537C105.323 73.0537 105.558 73.1007 105.747 73.2419C105.935 73.383 106.076 73.5712 106.123 73.7593C106.217 73.9945 106.264 74.2768 106.264 74.559ZM105.841 74.2297C105.841 74.0416 105.794 73.8064 105.605 73.6652C105.323 73.383 104.853 73.383 104.571 73.6652C104.429 73.8064 104.335 74.0416 104.335 74.2297H105.841Z" fill="#A1A1A1"/>
<path d="M107.017 73.0539H107.393V73.5243C107.582 73.195 107.911 73.0068 108.24 73.0068C108.475 73.0068 108.664 73.1009 108.852 73.242C108.993 73.3832 109.087 73.5713 109.087 73.7595V75.8293H108.664V73.9006C108.711 73.6654 108.522 73.4302 108.287 73.3832C108.24 73.3832 108.193 73.3832 108.146 73.3832C107.958 73.3832 107.723 73.4772 107.629 73.6654C107.487 73.8536 107.44 74.0888 107.44 74.324V75.8293H107.017V73.0539Z" fill="#A1A1A1"/>
<path d="M110.921 73.0536V73.3829H110.404V75.2174C110.404 75.2645 110.404 75.3586 110.451 75.4056C110.498 75.4527 110.545 75.4997 110.639 75.4997C110.733 75.4997 110.827 75.4997 110.921 75.4526L110.968 75.829C110.827 75.876 110.639 75.876 110.498 75.876C110.168 75.876 109.98 75.7349 109.98 75.4526V73.3829H109.651V73.0536H109.98V72.4891L110.356 72.2539V73.0536H110.921Z" fill="#A1A1A1"/>
</svg>
