<svg width="120" height="120" viewBox="0 0 120 120" fill="none" xmlns="http://www.w3.org/2000/svg">
<path d="M74.5118 37.7735C74.3707 37.7264 74.2296 37.6323 74.0884 37.5853C70.2311 35.5626 66.2327 34.6217 61.905 35.3744C58.471 35.7978 55.2252 37.1149 52.4499 39.1847C51.1798 40.1255 50.0508 41.2074 48.8278 42.2423C48.5926 42.4775 48.3103 42.6657 48.0281 42.8538C47.8869 42.6657 47.7458 42.5245 47.6047 42.3364C46.2876 40.4548 44.6412 38.8554 42.7125 37.5853C40.3605 35.9389 37.5381 35.0921 34.6686 35.1392C33.3985 35.2803 32.1284 35.4685 30.8583 35.7037C29.259 36.2211 27.8007 36.9267 26.4365 37.9146C24.0375 39.7021 22.4851 42.3834 22.1088 45.347C21.5443 49.2983 21.9677 53.2968 23.3319 57.013C24.696 60.7762 26.7188 64.3042 29.306 67.4089C33.8689 73.0537 39.2786 77.8989 45.3938 81.8032C46.6169 82.5559 47.8869 83.2145 49.11 84.0141C49.5334 84.3434 50.1449 84.2964 50.5212 83.9201C54.3315 80.9095 58.9885 79.216 63.8336 79.1219C64.1159 79.1219 64.3511 79.216 64.5863 79.3571C64.304 79.5453 64.0218 79.7805 63.7396 79.9687C61.4816 81.2858 59.3178 82.8852 57.3891 84.6727C55.5075 86.3191 53.8611 88.1537 52.4028 90.1764C52.2147 90.4116 52.0265 90.6939 51.6972 90.6468C51.462 90.4587 51.2268 90.3176 50.9916 90.2235C49.5334 89.4238 48.0281 88.6711 46.5698 87.8244C40.925 84.5786 35.7505 80.6272 31.1406 76.0643C29.8234 74.7942 28.6474 73.383 27.4244 72.0188C23.0496 67.2207 19.7098 61.5288 17.7341 55.3195C16.8403 52.6382 16.4169 49.8158 16.464 46.9934C16.5581 45.394 16.6992 43.7946 16.9814 42.2423C17.4048 39.1847 18.6749 36.3152 20.6506 33.9632C21.6855 32.7401 22.9085 31.7052 24.2727 30.9056C25.3546 30.294 26.5306 29.9177 27.7066 29.4003L28.4122 29.118L28.4593 29.071H28.5063C29.9175 28.9769 31.3758 28.7417 32.787 28.7417C36.5032 28.8358 40.0782 29.9647 43.1829 31.9875C44.6412 32.9283 45.9113 34.0573 47.0873 35.3274C47.2754 35.5155 47.4636 35.7037 47.6988 35.8918C47.981 35.6096 48.2633 35.3744 48.5455 35.0922C50.7094 32.9753 53.3907 31.423 56.3542 30.6704C60.2586 29.7295 64.3981 30.1529 67.9732 31.9875C70.4193 33.1635 72.6302 34.8569 74.4648 36.8797C74.6529 37.1149 74.747 37.3501 74.8411 37.6323C74.747 37.7264 74.6529 37.7264 74.5118 37.7735Z" fill="#A1A1A1"/>
<path d="M48.1225 50.1449C47.0876 51.8854 47.2288 53.7671 46.9936 55.6016C46.6172 58.2829 46.382 60.9172 46.0528 63.5985C45.9587 64.163 46.0057 64.7745 46.288 65.2919C46.8995 66.2328 48.0284 66.2798 48.5929 65.2919C48.8752 64.8215 49.0633 64.3041 49.1104 63.7396C49.5337 60.3997 49.9101 57.0128 50.2864 53.6259C50.3805 52.8733 50.5216 52.1206 50.7098 51.368C50.945 50.4272 51.8387 49.8157 52.7795 49.9097C54.2378 49.9568 55.696 49.9568 57.2013 50.0038C57.2954 50.0038 57.3424 50.0509 57.4836 50.1449C56.6839 50.7565 56.4957 51.6032 56.4016 52.497C55.9783 56.025 55.5549 59.6001 55.1315 63.1281C55.0845 63.5985 55.0845 64.1159 55.1315 64.5863C55.1786 65.2919 55.7431 65.8094 56.4016 65.9035C57.2013 65.9976 58.048 65.9976 58.8477 65.9976C59.13 65.9976 59.4122 65.9505 59.6945 65.9505H66.0449C66.7035 65.9505 67.362 65.9035 68.0206 65.7153C69.2437 65.386 69.8081 64.4923 69.9493 63.2222C69.0085 63.1751 68.1147 63.1281 67.2209 63.034C65.3393 62.9399 63.4577 62.4695 61.7642 61.6228C57.6717 59.6001 57.5306 55.0371 59.7885 52.2147C60.9175 50.8976 62.4228 49.9568 64.1163 49.6275C66.2331 49.1101 68.444 48.9689 70.6078 49.1101C72.9128 49.2512 75.1707 49.5805 77.3816 50.1449C77.5698 50.192 77.805 50.2861 78.0402 50.3331C77.0053 52.0266 77.1464 53.9552 76.9112 55.7898C76.4879 58.8004 76.2056 61.811 75.7823 64.7745C75.4059 67.2676 73.9477 68.82 71.3134 69.3374C69.62 69.6197 67.9265 69.8549 66.2331 69.9489C64.4455 70.0901 62.705 70.0901 60.9175 70.0901C59.13 70.0901 57.3424 69.9019 55.5079 69.7608C55.2727 69.7608 55.0845 69.7137 54.8963 69.6197C54.3319 69.1493 53.7674 69.3845 53.1558 69.5256C49.6749 70.2782 46.0998 70.043 42.7599 68.82C42.2895 68.6318 41.8191 68.3966 41.3958 68.1144C40.7372 67.691 40.3609 66.9854 40.3138 66.1857V62.8929C39.7493 62.8929 39.2319 62.8458 38.7145 62.8458C36.5036 62.8458 34.3397 62.4225 32.317 61.5287C30.3883 60.5879 28.9301 59.2708 28.5067 57.0128C27.9892 54.0493 29.2593 51.8384 31.7525 50.4272C33.6811 49.4393 35.7509 48.8749 37.9148 48.8278C41.1606 48.6867 44.4063 49.063 47.558 49.9097C47.7462 50.0038 47.9344 50.0979 48.1225 50.1449ZM71.3134 52.1677C69.4789 51.7443 67.7384 51.6973 66.092 52.544C63.5047 53.9082 63.4577 57.6714 65.7156 59.2237C67.0798 60.1645 68.6321 60.4938 70.3256 60.6349C70.6549 57.8125 70.9842 55.0371 71.3134 52.1677ZM40.4079 60.3057C40.7372 57.3892 41.0665 54.6608 41.3487 51.8384C39.1849 51.4621 37.2092 51.4621 35.4687 52.7792C33.8693 54.0963 33.6341 56.4484 34.9512 58.0477C36.4095 59.6001 38.3381 60.0234 40.4079 60.3057Z" fill="#A1A1A1"/>
<path d="M105.182 51.368C105.464 52.1206 105.558 52.9674 105.511 53.767C105.464 54.9901 104.759 55.6016 103.536 55.5075C102.971 55.4605 102.407 55.3194 101.795 55.2723C100.478 55.0842 99.1609 55.2253 97.9379 55.7427C95.5858 56.7306 94.4569 58.6122 94.9743 61.2935C95.4918 64.0689 97.8908 67.0795 101.748 67.0324C102.313 67.0324 102.924 66.9854 103.489 67.0324C105.229 67.1735 105.464 68.3966 105.229 69.5256C105.088 69.9019 104.853 70.1841 104.476 70.3723C103.959 70.6075 103.348 70.7486 102.783 70.7486H80.7211C79.6862 70.6545 79.3099 70.2782 79.3099 69.2433C79.3099 68.7729 79.3569 68.2555 79.404 67.7851C79.7803 65.0567 80.1096 62.3284 80.4859 59.6C80.8622 56.5895 81.2385 53.5318 81.5678 50.5213C81.803 48.4515 82.0382 46.3347 82.1793 44.2178C82.2734 42.4774 81.3326 41.9599 79.7803 42.8066C79.2158 43.1359 78.7454 43.5593 78.275 43.9826C77.8516 44.406 77.3812 44.7823 76.8638 45.1116C76.8638 44.7823 76.9108 44.406 76.9108 44.0767C77.0519 42.2421 77.5694 40.5017 78.5102 38.9493C79.2628 37.5852 80.58 36.6443 82.0853 36.268C84.0139 35.7035 86.0837 36.6443 86.9304 38.4789C87.589 39.8901 87.9653 41.4425 87.9653 42.9948C88.0594 45.6761 87.7301 48.3574 87.4949 51.0387L86.3659 62.0461C86.2719 62.8929 86.1307 63.7396 86.0837 64.5863C86.0366 65.1038 86.1307 65.6212 86.2718 66.0916C86.3659 66.515 86.7422 66.8443 87.2127 66.8443H91.7285C91.4933 66.562 91.3992 66.3739 91.2581 66.2327C89.894 64.8215 89.0943 62.8929 89.1413 60.9172C89.0943 59.6941 89.2824 58.4711 89.6588 57.2951C90.5996 54.849 92.4341 53.2966 94.7862 52.3558C96.1974 51.7913 97.7027 51.5091 99.255 51.415C100.478 51.368 101.701 51.4621 102.924 51.4621C103.677 51.5091 104.429 51.5091 105.182 51.368Z" fill="#A1A1A1"/>
<path d="M80.1569 81.8974C79.4983 84.955 78.8868 87.8715 78.2753 90.8351C77.946 90.8351 77.7108 90.8821 77.4756 90.8821H71.6896C70.5607 90.8821 70.3725 90.694 70.2784 89.565C70.2314 89.1887 70.1843 88.7653 70.1373 88.389C70.0903 88.0127 70.0432 87.6834 69.9962 87.26C69.1495 87.0248 68.3498 87.1659 67.5501 87.1659C66.7504 87.1659 65.9037 87.1659 65.0569 87.1659C64.4925 88.2008 63.928 89.2357 63.4105 90.2706C63.2694 90.741 62.799 91.0232 62.3286 90.9292C61.5289 90.8821 60.6822 90.9292 59.6943 90.9292C60.494 89.4239 61.1996 88.1067 61.8582 86.8837C61.576 86.131 61.2937 85.4725 61.0585 84.7669C60.9644 84.4846 61.1055 84.2024 61.1055 83.8261C61.67 83.9672 62.1875 84.0613 62.6579 84.2024C62.9872 84.3435 63.3164 84.1553 63.4576 83.8731C63.4576 83.8731 63.4576 83.8731 63.4576 83.8261C63.975 82.8382 64.5395 81.8504 65.104 80.8625C65.7625 79.5924 66.4681 78.3223 67.1267 77.0523C67.409 76.4407 67.5971 75.8292 67.8794 75.0766H71.7837C72.16 75.0766 72.4893 75.3588 72.4893 75.7351C72.4893 75.7351 72.4893 75.7351 72.4893 75.7822C72.5834 76.4407 72.7245 77.0993 72.7716 77.7579C73.1479 81.0507 73.5242 84.2965 73.9476 87.5893C73.9476 88.2479 74.2298 88.9064 74.6532 89.3768C74.8413 89.1416 75.0295 88.8594 75.1236 88.5771C75.594 86.3662 76.0644 84.1553 76.5818 81.8033C75.8762 81.8974 75.3117 81.9915 74.7002 82.0856C74.6532 81.38 74.7943 80.6744 75.1236 80.0628C75.3117 79.8276 75.594 79.6395 75.9233 79.5924C76.2525 79.5454 76.5818 79.5454 76.9111 79.5924C77.1463 78.9809 77.3345 78.3694 77.5697 77.7579C77.946 76.6289 78.6046 75.594 79.4513 74.7473C80.0628 74.1357 80.8625 73.7594 81.7092 73.6653C83.3086 73.5242 83.9672 74.3709 84.4376 75.3588C84.7198 76.0644 84.7669 76.817 84.5317 77.5227C84.2964 77.3345 84.0612 77.1463 83.826 77.0052C82.8382 76.3466 81.9444 76.5348 81.3329 77.5697C81.1447 77.8519 81.0036 78.1342 80.9095 78.4635C80.8155 78.7457 80.7214 79.0279 80.6273 79.4043C80.8625 79.4513 81.0507 79.4984 81.2859 79.4984H82.3678C83.2616 79.5454 83.5438 79.8747 83.4497 80.7684C83.4497 80.9096 83.4027 81.0036 83.4027 81.1448C83.4027 81.5211 83.1204 81.8504 82.7441 81.8504C82.6971 81.8504 82.65 81.8504 82.603 81.8504H81.0507C80.7214 81.8974 80.4391 81.8974 80.1569 81.8974ZM66.5622 84.1553C67.6912 84.2965 68.7261 84.4846 69.808 84.6257C69.5728 82.8382 69.4787 81.0977 69.1965 79.4043H69.0083C68.1616 80.9566 67.3619 82.556 66.5622 84.1553Z" fill="#A1A1A1"/>
<path d="M27.6596 29.353C26.4836 29.7764 25.3546 30.2938 24.2257 30.8583C22.8615 31.658 21.6385 32.6929 20.6036 33.9159C18.5338 36.315 17.4519 39.1374 16.9344 42.195C16.6522 43.7474 16.5111 45.3468 16.417 46.9461C16.3699 49.7686 16.7933 52.591 17.6871 55.2723C19.6157 61.5757 23.0026 67.0794 27.3774 71.9716C28.6004 73.3358 29.8235 74.747 31.0936 76.0171C35.6565 80.627 40.878 84.5784 46.5228 87.7772C47.9811 88.6239 49.4864 89.3765 50.9446 90.1762L51.6502 90.5996C50.6624 90.7407 49.6745 90.5526 48.8278 90.0822C43.7474 87.589 38.9493 84.5784 34.5275 81.0034C29.7294 77.1931 25.4487 72.7713 21.8737 67.785C18.9101 63.6455 16.5581 59.1766 15.3821 54.1903C14.7706 51.7442 14.4413 49.2041 14.4883 46.6639C14.5824 43.0888 15.288 39.7019 17.1226 36.5502C19.0512 33.2574 22.2029 30.8113 25.8721 29.7294C26.4836 29.5882 27.0951 29.4941 27.6596 29.353Z" fill="#A1A1A1"/>
<path d="M96.4328 83.1674C96.5269 83.0263 96.5739 83.0263 96.5739 82.9792C96.8091 81.521 96.3858 81.2858 95.1157 81.1447C94.269 81.0506 93.3752 81.3328 92.7637 81.9444C92.1992 82.5559 91.3995 82.8852 90.5528 82.8852C89.8942 82.8852 89.2356 82.65 88.7652 82.1796C90.3646 79.8275 92.6696 78.7926 95.3979 78.7456C96.3858 78.7456 97.3266 78.8867 98.2674 79.216C99.9138 79.7805 100.337 80.7213 100.196 82.4148C100.008 84.2023 99.6316 85.9428 99.3023 87.7303C99.2553 88.1066 99.1612 88.53 99.1141 88.9063C99.0671 89.5649 99.02 90.2235 98.973 91.0231C98.1263 91.0702 97.1384 91.2113 96.1976 90.835C95.6331 90.6468 95.492 90.1294 95.3509 89.659C94.6453 90.0823 93.9397 90.5057 93.187 90.835C91.964 91.3524 90.5998 91.3995 89.3297 91.0231C88.0126 90.6468 87.2129 89.3297 87.4481 88.0126C87.7774 86.4132 88.8593 85.049 90.3646 84.3905C91.4936 83.873 92.6696 83.5908 93.8926 83.5437C94.7394 83.4026 95.5861 83.2615 96.4328 83.1674ZM96.0565 85.3313C94.7864 85.1901 93.5634 85.4724 92.4814 86.131C92.1051 86.3662 91.7758 86.7425 91.5406 87.1188C91.0702 87.8714 91.3525 88.53 92.2462 88.7652C92.9518 88.9534 93.6574 88.8593 94.269 88.483C95.3979 87.8714 96.1035 86.6484 96.0565 85.3313Z" fill="#A1A1A1"/>
<path d="M43.6062 47.3695C42.148 46.6168 40.5015 46.2875 38.8551 46.3346C37.585 46.3346 36.3149 46.5698 35.0449 46.6639C34.2452 46.7109 33.4455 46.758 32.6458 46.7109C31.3287 46.7109 30.1997 45.9112 29.7293 44.6882C29.2589 43.6062 29.0707 42.4773 29.2118 41.3013C30.6231 41.9128 32.1754 42.195 33.7277 42.0539C34.7626 42.0069 35.7975 41.8658 36.8324 41.7717C37.9614 41.6776 39.0903 41.6776 40.2193 41.7246C41.4894 41.7717 42.5713 42.5243 43.1358 43.6533C43.7473 44.7823 43.9355 46.0994 43.6062 47.3695Z" fill="#A1A1A1"/>
<path d="M42.7598 71.9717C44.124 72.2539 45.347 72.5362 46.6171 72.6773C47.3697 72.7714 48.1694 72.7714 48.9221 72.7243C50.2862 72.7243 51.6504 72.6302 53.0146 72.6302C53.2027 72.6302 53.4379 72.6773 53.6261 72.7243C55.9311 73.1477 56.7778 74.4648 57.013 76.5346C57.0601 77.1461 56.966 77.8047 56.966 78.4162C55.7429 78.0869 54.614 77.7106 53.532 77.4754C51.8386 77.0991 50.1451 77.2872 48.4046 77.3813C47.4168 77.4284 46.476 77.3813 45.4881 77.2872C44.5473 77.1932 43.7476 76.5816 43.3713 75.7349C42.7598 74.5589 42.5716 73.2418 42.7598 71.9717Z" fill="#A1A1A1"/>
<path d="M84.5787 79.2632C85.3784 79.2162 86.2251 79.1221 87.1189 79.1221C88.0127 79.1221 88.4831 79.5925 88.342 80.5333C88.1538 81.7563 87.8716 82.9794 87.6364 84.2024C87.166 86.4133 86.6955 88.6242 86.2251 90.9292H82.4619C82.603 90.1766 82.7442 89.471 82.8853 88.7653C83.4027 86.3192 83.9202 83.8731 84.4376 81.38C84.5317 80.7214 84.5317 80.0158 84.5787 79.2632Z" fill="#A1A1A1"/>
<path d="M76.0175 48.4513C75.2178 47.2283 74.0418 46.9931 72.7246 47.0401H72.4424C70.7489 47.1342 69.2907 45.8171 69.1966 44.0766C69.1496 43.4651 69.3377 42.8535 69.667 42.3361C70.1374 41.3953 71.2193 40.8308 72.2542 41.066C73.3832 41.2542 74.371 41.9598 74.9355 42.9476C75.5471 43.9825 75.9234 45.1585 76.0175 46.3345C76.1115 46.9931 76.1115 47.6517 76.1586 48.3102L76.0175 48.4513Z" fill="#A1A1A1"/>
<path d="M30.8584 35.7509C32.1285 35.5628 33.3986 35.1864 34.6687 35.1864C37.5381 35.1394 40.3606 35.9861 42.7126 37.6325C44.6412 38.9026 46.2876 40.502 47.6048 42.3836C47.7459 42.5718 47.887 42.7129 48.0281 42.901C46.8992 43.2303 46.711 43.1363 46.0524 42.3366C43.3711 38.9967 40.0313 36.6447 35.7506 35.798C34.1042 35.5157 32.4578 35.5157 30.8584 35.7509Z" fill="#A1A1A1"/>
<path d="M85.284 77.852C85.1428 76.5819 85.5662 75.3588 86.46 74.4651C86.9774 73.9006 87.8242 73.8065 88.4827 74.1828C89.0472 74.5121 89.2824 75.1707 89.1413 76.0174C89.0002 76.8641 88.6238 77.1934 87.7301 77.3345C87.5889 77.3816 87.4478 77.3345 87.2597 77.3816C86.1307 77.4286 86.1307 77.4286 85.284 77.852Z" fill="#A1A1A1"/>
<path d="M61.9053 35.3742C66.233 34.6216 70.2785 35.5624 74.0887 37.5851C72.3482 37.0677 70.6077 36.5032 68.8202 36.0328C66.7975 35.5154 64.6807 35.3272 62.5638 35.4213C62.3286 35.4213 62.0934 35.3742 61.9053 35.3742Z" fill="#A1A1A1"/>
<path d="M74.5117 37.7734C74.6528 37.7264 74.7469 37.6794 74.888 37.6323C74.888 37.9146 74.9821 37.9146 75.1703 37.7734C75.2173 37.8675 75.3114 37.9616 75.3584 38.0557C74.9821 38.1498 74.7469 37.9146 74.5117 37.7734Z" fill="#A1A1A1"/>
<path d="M28.5067 29.0708H28.4596L28.4126 29.1178C28.4596 29.1649 28.5067 29.2119 28.5537 29.2119C28.5067 29.1649 28.4596 29.1178 28.5067 29.0708Z" fill="#A1A1A1"/>
<path d="M75.1704 37.7734C74.9823 37.9146 74.8882 37.9146 74.8882 37.6323L75.1704 37.7734Z" fill="#A1A1A1"/>
</svg>
