<svg width="120" height="120" viewBox="0 0 120 120" fill="none" xmlns="http://www.w3.org/2000/svg">
<path d="M77.0051 43.3711H88.3418C91.1172 43.3711 92.9518 45.1116 92.9988 47.9811C93.0459 50.239 92.9988 52.4499 92.9988 54.7549V61.0112C92.9988 61.5287 92.8107 61.7168 92.2932 61.7168C90.882 61.6698 89.3767 61.6698 87.9185 61.7168C87.307 61.7168 87.1188 61.5287 87.1188 60.9172C87.1658 56.3072 87.1188 51.6972 87.1188 47.0873C87.1188 46.805 87.1188 46.5228 87.0718 46.2406C87.0247 45.7231 86.6013 45.2998 86.0369 45.2998H81.9914C81.4269 45.2998 81.4739 45.6761 81.4739 46.0524V61.0112C81.4739 61.4816 81.3328 61.7168 80.8154 61.6698C79.4512 61.6228 77.993 61.6698 76.5818 61.6698C75.4998 61.6698 75.4998 61.6698 75.4998 60.6349V46.1465C75.4998 45.4879 75.3117 45.2527 74.6531 45.2998C73.336 45.3468 72.0659 45.3468 70.7487 45.2998C70.1372 45.2998 69.902 45.4879 69.9491 46.0994C69.9961 51.0387 69.9491 55.9779 69.9961 60.9172C69.9961 61.5287 69.855 61.7639 69.1964 61.7168C67.6911 61.6698 66.1388 61.6698 64.6335 61.7168C64.1631 61.7168 64.022 61.5757 64.022 61.1053V44.0297C64.022 43.4181 64.3513 43.3711 64.8217 43.3711H77.0051Z" fill="#A1A1A1"/>
<path d="M62.3283 52.4969V60.8231C62.3283 61.4346 62.1872 61.6698 61.5286 61.6698C60.1644 61.6228 58.7062 61.6698 57.295 61.6698C56.4012 61.6698 56.4012 61.6698 56.4012 60.729V55.8838C56.4012 55.3664 56.2601 55.1312 55.6956 55.1312C53.3436 55.1782 50.9915 55.1782 48.6395 55.1312C48.075 55.1312 47.9339 55.3664 47.9339 55.8838C47.981 57.5302 47.9339 59.1767 47.981 60.8701C47.981 61.5287 47.7458 61.7168 47.1342 61.6698C45.6289 61.6228 44.1707 61.6228 42.7124 61.6698C42.242 61.6698 42.0068 61.5287 42.0068 61.0112V44.0767C42.0068 43.6063 42.195 43.3711 42.6654 43.3711C44.1707 43.4181 45.7701 43.4181 47.2754 43.3711C47.7458 43.3711 47.8869 43.5593 47.8869 44.0297V49.1571C47.8869 49.6275 48.075 49.8156 48.4984 49.8156H55.6485C56.166 49.8156 56.3071 49.6275 56.3071 49.1571C56.2601 47.4636 56.3071 45.7702 56.3071 44.0767C56.3071 43.6063 56.4953 43.3711 56.9657 43.3711C58.4239 43.4181 59.9763 43.4181 61.4345 43.3711C62.046 43.3711 62.1872 43.6533 62.1872 44.1708C62.3283 46.9462 62.3283 49.7215 62.3283 52.4969Z" fill="#A1A1A1"/>
<path d="M94.5981 52.4971V44.171C94.5981 43.5594 94.7863 43.3713 95.3978 43.3713C96.809 43.4183 98.2673 43.3713 99.6785 43.3713C100.525 43.3713 100.525 43.3713 100.525 44.265V49.1102C100.525 49.6276 100.713 49.8158 101.231 49.8158C103.536 49.8158 105.841 49.7688 108.146 49.8158C108.71 49.8158 108.898 49.5806 108.898 49.0632C108.851 47.4638 108.898 45.8174 108.898 44.171C108.898 43.6065 109.087 43.3242 109.698 43.3713C111.156 43.4183 112.662 43.4183 114.12 43.3713C114.637 43.3713 114.826 43.5594 114.826 44.0769V60.9173C114.826 61.3877 114.684 61.6229 114.167 61.6229C112.662 61.5759 111.062 61.5759 109.557 61.6229C109.04 61.6229 108.945 61.3877 108.945 60.9644V55.9781C108.945 55.4136 108.757 55.1784 108.146 55.1784C105.888 55.2254 103.63 55.2254 101.372 55.1784C100.713 55.1784 100.572 55.4136 100.572 56.0251C100.619 57.6245 100.572 59.2709 100.572 60.9173C100.572 61.4818 100.431 61.717 99.8196 61.67C98.3614 61.6229 96.809 61.6229 95.3508 61.67C94.8333 61.67 94.6452 61.4818 94.6452 60.9644C94.5981 58.0949 94.5981 55.2725 94.5981 52.4971Z" fill="#A1A1A1"/>
<path d="M17.1696 77.3344C13.0771 77.2403 9.0316 77.1462 4.93909 77.0992C4.3746 77.0992 4.18644 76.864 4.23348 76.3465C4.3746 69.1964 4.51573 62.0933 4.65685 54.9432C4.70389 53.0145 4.70389 51.0859 5.40949 49.2513C6.91478 45.2999 10.8662 42.4775 15.0528 42.5245C23.0026 42.6186 30.9524 42.8067 38.9022 42.9008C39.4197 42.9008 39.5608 43.089 39.5608 43.6064C39.4197 51.6503 39.2786 59.6942 39.0904 67.6911C38.9493 72.7715 34.2452 77.3344 29.1178 77.3814C25.1194 77.5225 21.168 77.3344 17.1696 77.3344ZM26.5306 43.136C22.7204 43.136 18.9571 42.9479 15.1939 42.9479C10.0194 42.9008 5.64469 46.8052 5.12725 51.9326C4.89205 54.1435 4.98613 56.3073 4.93909 58.5653C4.79797 64.4453 4.70389 70.2783 4.56277 76.1584C4.56277 76.6758 4.75093 76.8169 5.22133 76.8169C7.33815 76.8169 9.45496 76.911 11.5718 76.911C17.3107 77.0051 22.9556 77.1462 28.6945 77.1933C33.0222 77.1933 36.8325 74.4649 38.1966 70.3724C38.5259 69.4316 38.7141 68.4438 38.7141 67.4089C38.9022 59.6942 38.9963 51.9326 39.1845 44.218C39.1845 43.6064 39.0434 43.3712 38.3848 43.3712C34.4804 43.2771 30.482 43.1831 26.5306 43.136Z" fill="#A1A1A1"/>
<path d="M115.719 63.7398C115.531 63.7868 115.296 63.8338 115.108 63.8338H42.6187C42.2894 63.7868 41.9601 63.7398 41.6309 63.5986C41.9601 63.4575 42.2894 63.3634 42.6187 63.3164H114.826C115.155 63.3164 115.437 63.3634 115.766 63.4575C115.719 63.5516 115.719 63.6457 115.719 63.7398Z" fill="#A1A1A1"/>
<path d="M24.6962 75.6407C27.7538 75.0292 29.6825 73.2887 30.3881 70.2311C30.5292 69.4314 30.5762 68.6317 30.5762 67.832C30.6703 62.6106 30.7644 57.3891 30.8585 52.1676C30.8585 51.5561 30.6703 51.3679 30.1058 51.3679L14.018 51.0857C10.0196 51.0386 7.85572 52.591 6.49155 56.3071C6.49155 56.3542 6.44451 56.4012 6.30339 56.5894C6.25635 53.4377 6.02114 50.333 8.13796 47.7458C9.97254 45.4879 12.2775 44.2648 15.2411 44.3119L26.0133 44.453C29.7295 44.5 33.4457 44.5941 37.2089 44.6411C37.7734 44.6411 37.9616 44.8293 37.9616 45.3938C37.8204 52.7321 37.7264 60.1174 37.5382 67.4557C37.35 72.1598 33.4927 75.923 28.7887 75.97H24.6962V75.6407Z" fill="#A1A1A1"/>
<path d="M13.4063 75.641C11.1484 75.641 8.93751 75.4529 6.63253 75.4999C6.06804 75.4999 5.87988 75.2647 5.87988 74.7473C5.97396 70.3725 6.021 65.9978 6.16213 61.623C6.30325 58.8476 8.56118 56.6838 11.3366 56.6367C15.7113 56.6838 20.0861 56.7778 24.4608 56.8719C24.9783 56.8719 25.1664 57.0601 25.1194 57.5775C25.0253 62.0464 24.9783 66.5152 24.8372 70.984C24.649 73.5242 22.6263 75.4999 20.0861 75.6881C17.9222 75.6881 15.7113 75.641 13.4063 75.641Z" fill="#A1A1A1"/>
<path d="M45.3 70.2781H41.772V69.8548H43.9829C43.9829 69.4314 43.8888 69.0081 43.7006 68.5847C43.4654 68.2084 43.0891 67.9732 42.6187 67.9732H42.4305V67.5498C43.7006 67.5498 44.3592 68.3024 44.4062 69.8077H45.347L45.3 70.2781Z" fill="#A1A1A1"/>
<path d="M46.5697 67.5968V69.2433C46.5697 69.9018 46.2875 70.2781 45.723 70.2781H45.2056V69.8548H45.6289C45.8171 69.9018 46.0523 69.7607 46.0993 69.5725C46.1464 69.3844 46.1934 69.1962 46.1934 69.0081V67.5498L46.5697 67.5968ZM45.8171 71.2189H45.3937V70.7485H45.8171V71.2189ZM46.5697 71.2189H46.1464V70.7485H46.5697V71.2189Z" fill="#A1A1A1"/>
<path d="M50.7565 70.2781H47.2285V69.8548H49.4394C49.4394 69.4314 49.3453 69.0081 49.1572 68.5847C48.922 68.2084 48.5456 67.9732 48.0752 67.9732H47.8871V67.5498C49.1572 67.5498 49.8157 68.3024 49.8628 69.8077H50.8036L50.7565 70.2781Z" fill="#A1A1A1"/>
<path d="M55.3194 70.2784H50.5684V69.855H54.1434V69.6198C54.1434 68.632 53.626 68.0675 52.6852 68.0675C52.2148 68.0204 51.7914 68.2556 51.5562 68.632L51.1799 68.2556C51.5562 67.8323 52.0737 67.5971 52.6381 67.6441C53.673 67.5971 54.5668 68.3497 54.6138 69.3846C54.6138 69.4787 54.6138 69.5728 54.6138 69.6669V69.855H55.2724L55.3194 70.2784ZM53.0145 71.1721H52.5911V70.7017H53.0145V71.1721Z" fill="#A1A1A1"/>
<path d="M56.5427 66.4679V69.2433C56.5427 69.9019 56.2605 70.2782 55.696 70.2782H55.2256V69.8548H55.6019C55.7901 69.9019 56.0253 69.7608 56.0723 69.5726C56.1194 69.3844 56.1664 69.1963 56.1664 69.0081V66.4209L56.5427 66.4679Z" fill="#A1A1A1"/>
<path d="M57.7655 70.2782H57.3892V66.4209H57.8125V70.2782H57.7655Z" fill="#A1A1A1"/>
<path d="M64.3511 70.2784H64.257C63.7396 70.2784 63.2692 69.9491 63.1281 69.4787C63.081 70.4666 62.2343 71.2663 61.2464 71.2663C60.1175 71.2192 59.2707 70.2784 59.3178 69.1965V68.585H59.7412V69.0554C59.7412 70.1373 60.3056 70.8429 61.2464 70.8429C62.0461 70.8429 62.6577 70.2314 62.7047 69.4787C62.7047 68.9613 62.4225 68.6791 61.952 68.6791V68.3027H62.2813C62.7517 68.3498 63.1751 68.6791 63.3162 69.1495C63.5514 69.7139 63.7396 69.9021 64.1629 69.9021H64.3041L64.3511 70.2784Z" fill="#A1A1A1"/>
<path d="M66.2797 70.2785H64.21V69.8552H64.5863C64.7744 69.8552 64.9626 69.8081 65.0567 69.62C65.1037 69.4318 65.1508 69.2436 65.1508 69.0555V67.5972H65.5741V69.2436C65.5741 69.4788 65.5271 69.667 65.433 69.8552H66.1857V70.2785H66.2797ZM65.5741 67.2209H65.1508V66.7505H65.5741V67.2209Z" fill="#A1A1A1"/>
<path d="M70.7488 70.2785H65.9507V69.8552H67.0326V66.4683H67.503L67.4089 69.1966C67.8323 68.2088 68.632 67.5972 69.3846 67.5972C70.3254 67.5972 70.7958 68.2558 70.7958 69.62C70.7958 69.8552 70.7958 70.0904 70.7488 70.2785ZM70.3254 69.9022V69.5259C70.3254 68.5851 69.9021 68.0206 69.2906 68.0206C68.5379 68.0206 67.6441 68.9144 67.3619 69.9492L70.3254 69.9022Z" fill="#A1A1A1"/>
<path d="M74.4178 70.2781H73.6181C73.524 70.8426 73.0066 71.266 72.3951 71.266V70.8426H72.4421C72.8184 70.8426 73.1007 70.6074 73.1477 70.2781H72.5362C72.2069 70.2781 71.9247 70.137 71.7365 69.9018C71.5013 69.6196 71.4072 69.2903 71.4072 68.961C71.4072 68.5847 71.5483 68.2554 71.7836 67.9732C71.9717 67.6909 72.301 67.5498 72.6303 67.5498C73.2888 67.5498 73.7122 67.9732 73.7122 68.7258V69.8548H74.4649L74.4178 70.2781ZM73.2418 69.9018V68.6317C73.2418 68.4436 73.1948 68.3024 73.0536 68.1613C72.9125 68.0202 72.7714 67.9261 72.5832 67.9261C72.348 67.9261 72.1599 68.0202 72.0658 68.2554C71.8306 68.6317 71.8306 69.1021 72.0658 69.5255C72.1599 69.7137 72.348 69.8548 72.5832 69.9018H73.2418Z" fill="#A1A1A1"/>
<path d="M75.6877 66.4679V69.2433C75.6877 69.9019 75.4055 70.2782 74.841 70.2782H74.3706V69.8548H74.7469C74.9351 69.9019 75.1703 69.7608 75.2173 69.5726C75.2644 69.3844 75.3114 69.1963 75.3114 69.0081V66.4209L75.6877 66.4679Z" fill="#A1A1A1"/>
<path d="M76.9112 70.2782H76.4878V66.4209H76.9112V70.2782Z" fill="#A1A1A1"/>
<path d="M81.0036 68.9614C81.0036 69.2907 80.9095 69.667 80.6743 69.9492C80.1568 70.4667 79.3571 70.4667 78.8397 69.9963L78.7927 69.9492C78.5575 69.667 78.4634 69.3377 78.4634 68.9614C78.4634 68.5851 78.6045 68.2558 78.8397 67.9735C79.3571 67.4561 80.1568 67.4561 80.6743 67.9265L80.7213 67.9735C80.9095 68.2558 81.0036 68.5851 81.0036 68.9614ZM80.4861 68.9143C80.4861 68.6791 80.4391 68.4439 80.298 68.2558C80.1568 68.0676 79.9687 67.9265 79.7335 67.9265C79.4983 67.9265 79.2631 68.0206 79.1219 68.2558C78.9808 68.491 78.9338 68.7262 78.9338 68.9614C78.9338 69.1966 78.9808 69.4318 79.1219 69.62C79.2631 69.8552 79.4983 69.9492 79.7335 69.9492C80.2509 69.9022 80.4861 69.62 80.4861 68.9143ZM79.5923 67.2209H79.169V66.7505H79.5923V67.2209ZM80.345 67.2209H79.9687V66.7505H80.392V67.2209H80.345Z" fill="#A1A1A1"/>
<path d="M84.9548 70.2781H81.4268V69.8548H83.6377C83.6377 69.4314 83.5436 69.0081 83.3554 68.5847C83.1202 68.2084 82.7439 67.9732 82.2735 67.9732H82.0853V67.5498C83.3554 67.5498 84.014 68.3024 84.061 69.8077H85.0018L84.9548 70.2781Z" fill="#A1A1A1"/>
<path d="M88.9065 69.7138V70.3253H84.814V69.9019H88.389V69.6667C88.389 68.6789 87.8716 68.1144 86.9308 68.1144C86.4604 68.0674 86.037 68.3026 85.8018 68.6789L85.4255 68.3026C85.8018 67.8792 86.3193 67.644 86.8837 67.691C87.9186 67.597 88.8124 68.3496 88.9065 69.3845C88.9065 69.4786 88.9065 69.5727 88.9065 69.7138ZM87.2601 71.172H86.7897V70.7016H87.2601V71.172Z" fill="#A1A1A1"/>
<path d="M95.398 70.2784H95.3039C94.7865 70.2784 94.316 69.9491 94.1749 69.4787C94.1279 70.4666 93.2812 71.2663 92.2933 71.2663C91.1643 71.2192 90.3176 70.2784 90.3647 69.1965V68.585H90.788V69.0554C90.788 70.1373 91.3525 70.8429 92.2933 70.8429C93.093 70.8429 93.7045 70.2314 93.7516 69.4787C93.7516 68.9613 93.4693 68.6791 92.9989 68.6791V68.3027H93.3282C93.7986 68.3498 94.222 68.6791 94.3631 69.1495C94.5983 69.7139 94.7865 69.9021 95.2098 69.9021H95.3509L95.398 70.2784Z" fill="#A1A1A1"/>
<path d="M99.161 70.2784H98.5965C98.3613 70.2784 98.1261 70.2784 97.938 70.2313C97.7028 70.1843 97.4676 70.0902 97.2324 69.9491C96.9972 70.0902 96.762 70.1373 96.5268 70.2313C96.2916 70.2784 96.1034 70.2784 95.8682 70.2784H95.3037V69.855H96.2445C96.4327 69.855 96.6679 69.808 96.809 69.7139C96.5738 69.6198 96.3386 69.4317 96.1975 69.1965C96.0564 68.9613 95.9623 68.726 95.9623 68.4438C95.9623 68.1145 96.0564 67.8323 96.2916 67.5971C96.5268 67.3148 96.856 67.2208 97.2324 67.2208C97.5616 67.2208 97.938 67.3148 98.1732 67.5971C98.4084 67.8323 98.5025 68.1145 98.5025 68.4438C98.5025 68.726 98.4084 68.9613 98.2672 69.1965C98.1261 69.4317 97.8909 69.6198 97.6557 69.7139C97.8439 69.808 98.0321 69.855 98.2202 69.855H99.161V70.2784ZM97.1853 69.4787C97.4205 69.3846 97.6557 69.1965 97.7968 69.0083C97.938 68.8201 98.032 68.632 98.032 68.3968C98.032 68.1616 97.938 67.9734 97.7968 67.8323C97.6557 67.6441 97.4205 67.5971 97.1853 67.5971C96.762 67.5971 96.3856 67.9264 96.3856 68.3497V68.3968C96.3856 68.632 96.4327 68.8201 96.5738 69.0083C96.6679 69.2435 96.9031 69.3846 97.1853 69.4787ZM97.3735 66.7033H96.9501V66.2329H97.3735V66.7033Z" fill="#A1A1A1"/>
<path d="M104.571 70.2786H98.9258V69.8552H99.4432C99.8195 69.8552 100.055 69.573 100.055 69.1025V67.5973H100.478V69.2437C100.478 69.4318 100.431 69.62 100.384 69.8082V69.8552H101.137C101.513 69.8552 101.607 69.667 101.607 69.0555V67.5973H102.03V69.2437C102.03 69.4789 101.983 69.667 101.889 69.8552H102.595C103.065 69.8552 103.159 69.667 103.159 69.0555V67.5973H103.583V69.2437C103.583 69.4789 103.536 69.667 103.442 69.8552H104.382V70.2786H104.571ZM101.795 67.2209H101.372V66.7505H101.795V67.2209ZM102.125 66.5153H101.701V66.0449H102.125V66.5153ZM102.548 67.2209H102.125V66.7505H102.548V67.2209Z" fill="#A1A1A1"/>
<path d="M106.452 70.2785H104.43V69.8552H104.806C104.994 69.8552 105.182 69.8081 105.276 69.62C105.323 69.4318 105.37 69.2436 105.37 69.0555V67.5972H105.794V69.2436C105.794 69.4788 105.747 69.667 105.653 69.8552H106.405V70.2785H106.452ZM105.041 67.2209H104.618V66.7505H105.041V67.2209ZM105.841 67.2209H105.418V66.7505H105.841V67.2209Z" fill="#A1A1A1"/>
<path d="M111.956 70.2785H106.311V69.8551H106.828C107.205 69.8551 107.44 69.5729 107.44 69.1025V67.5972H107.863V69.2436C107.863 69.4317 107.816 69.6199 107.769 69.8081V69.8551H108.522C108.898 69.8551 108.992 69.6669 108.992 69.0554V67.5972H109.416V69.2436C109.416 69.4788 109.369 69.6669 109.275 69.8551H109.98C110.451 69.8551 110.545 69.6669 110.545 69.0554V67.5972H110.968V69.2436C110.968 69.4788 110.921 69.6669 110.827 69.8551H111.768V70.2785H111.956Z" fill="#A1A1A1"/>
<path d="M115.202 69.4784C115.249 69.8077 115.108 70.137 114.873 70.4192C114.638 70.7015 114.308 70.8426 113.979 70.8426C113.556 70.8426 113.179 70.6544 112.944 70.3722H111.768V69.9018H112.756C112.709 69.7607 112.709 69.6195 112.709 69.4784C112.709 69.1021 112.85 68.7728 113.085 68.4906C113.32 68.2554 113.65 68.1143 113.979 68.1143C114.308 68.1143 114.638 68.2554 114.873 68.5376C115.108 68.7728 115.202 69.1491 115.202 69.4784ZM114.685 69.4314C114.685 69.1962 114.638 69.008 114.543 68.8199C114.402 68.6317 114.167 68.5376 113.979 68.5376C113.744 68.5376 113.509 68.6317 113.367 68.8669C113.132 69.2903 113.132 69.8077 113.367 70.2311C113.509 70.4192 113.744 70.5133 113.932 70.5133C114.496 70.4192 114.685 70.09 114.685 69.4314Z" fill="#A1A1A1"/>
<path d="M44.7353 73.4302V77.0052H44.2649L42.4304 74.0887V77.0052H41.96V73.4302H42.4304L44.312 76.3467V73.4302H44.7353Z" fill="#A1A1A1"/>
<path d="M46.0054 75.3585V76.5816H48.1222V77.0049H45.582V73.3828H48.0281V73.8062H46.0054V74.9351H47.9811V75.3585H46.0054Z" fill="#A1A1A1"/>
<path d="M52.0267 77.0052H51.5563L50.7566 74.0417L49.9569 77.0052H49.4865L48.5928 73.4302H49.0632L49.7217 76.3467L50.5214 73.4302H50.9918L51.7915 76.3467L52.4501 73.4302H52.9205L52.0267 77.0052Z" fill="#A1A1A1"/>
<path d="M55.5548 73.4302H56.0252V76.0644C56.0252 76.3467 55.9311 76.5819 55.7429 76.77C55.3196 77.1464 54.661 77.1464 54.2376 76.77C54.0965 76.5819 54.0024 76.3467 54.0024 76.1115V75.8292H54.4728V76.0174C54.4728 76.4878 54.661 76.6289 54.9903 76.6289C55.1784 76.6289 55.3196 76.5348 55.4607 76.3937C55.5548 76.2056 55.5548 76.0174 55.5548 75.8292V73.4302Z" fill="#A1A1A1"/>
<path d="M57.2949 75.3585V76.5816H59.4118V77.0049H56.8716V73.3828H59.3177V73.8062H57.2949V74.9351H59.2706V75.3585H57.2949Z" fill="#A1A1A1"/>
<path d="M60.1177 77.0052V73.4302H61.4818C61.9052 73.4302 62.3286 73.6183 62.6108 73.9476C62.846 74.3239 62.9871 74.7473 62.9871 75.2177C63.0342 75.7351 62.846 76.2056 62.5167 76.5819C62.2345 76.8641 61.8582 77.0052 61.4818 77.0052H60.1177ZM60.541 76.5819H61.3878C62.0934 76.5819 62.4697 76.1115 62.4697 75.2177C62.4697 74.2769 62.0934 73.8535 61.3878 73.8535H60.541V76.5819Z" fill="#A1A1A1"/>
<path d="M63.6455 77.0052V73.4302H65.0097C65.433 73.4302 65.8564 73.6183 66.1386 73.9476C66.3739 74.3239 66.515 74.7473 66.515 75.2177C66.562 75.7351 66.3738 76.2056 66.0446 76.5819C65.7623 76.8641 65.386 77.0052 65.0097 77.0052H63.6455ZM64.0689 76.5819H64.9156C65.6212 76.5819 65.9975 76.1115 65.9975 75.2177C65.9975 74.2769 65.6212 73.8535 64.9156 73.8535H64.0689V76.5819Z" fill="#A1A1A1"/>
<path d="M69.0551 75.9233H67.691L67.3146 77.0052H66.8442L68.1143 73.4302H68.6788L69.9489 77.0052H69.4315L69.0551 75.9233ZM68.914 75.4999L68.3966 73.9006L67.8321 75.4999H68.914Z" fill="#A1A1A1"/>
<path d="M72.7244 75.3588H70.8898V77.0052H70.4194V73.4302H70.8898V74.9825H72.7244V73.4302H73.1948V77.0052H72.7244V75.3588Z" fill="#A1A1A1"/>
<path d="M77.7106 74.5121H77.2402C77.1931 74.3239 77.099 74.1358 76.9579 73.9947C76.7698 73.8535 76.4875 73.7595 76.2523 73.7595C75.923 73.7595 75.5937 73.9006 75.4056 74.2299C75.2174 74.5591 75.1233 74.8884 75.1233 75.2647C75.1233 75.6411 75.2174 76.0174 75.4997 76.3467C75.7349 76.5819 76.0171 76.676 76.2993 76.676C76.6286 76.723 76.9579 76.5348 77.1461 76.2055C77.2402 76.0174 77.2872 75.8763 77.3342 75.6881H77.8046C77.7106 76.6289 77.2402 77.0523 76.3464 77.0523C75.923 77.0523 75.5467 76.9112 75.2174 76.6289C74.8411 76.2526 74.6529 75.7822 74.7 75.2647C74.7 74.7473 74.8881 74.2299 75.1704 73.8535C75.4526 73.5242 75.876 73.3831 76.2993 73.3831C77.005 73.289 77.6635 73.8065 77.7106 74.5121Z" fill="#A1A1A1"/>
<path d="M78.8397 73.4302V76.5819H80.5802V77.0052H78.3223V73.4302H78.8397Z" fill="#A1A1A1"/>
<path d="M81.7092 73.4302V77.0052H81.2388V73.4302H81.7092Z" fill="#A1A1A1"/>
<path d="M85.2842 73.4302V77.0052H84.8138L82.9792 74.0887V77.0052H82.5088V73.4302H82.9792L84.8608 76.3467V73.4302H85.2842Z" fill="#A1A1A1"/>
<path d="M86.5544 73.4302V77.0052H86.084V73.4302H86.5544Z" fill="#A1A1A1"/>
<path d="M90.2233 74.5121H89.7529C89.7058 74.324 89.6117 74.1358 89.4706 73.9947C89.2824 73.8536 89.0002 73.7595 88.765 73.7595C88.4357 73.7595 88.1064 73.9006 87.9183 74.2299C87.7301 74.5592 87.636 74.8884 87.636 75.2648C87.636 75.6411 87.7301 76.0174 88.0124 76.3467C88.2476 76.5819 88.5298 76.676 88.812 76.676C89.1413 76.723 89.4706 76.5349 89.6588 76.2056C89.7529 76.0174 89.7999 75.8763 89.8469 75.6881H90.3173C90.2233 76.6289 89.7529 77.0523 88.8591 77.0523C88.4357 77.0523 88.0594 76.9112 87.7301 76.6289C87.3538 76.2526 87.1656 75.7822 87.2127 75.2648C87.2127 74.7473 87.4008 74.2299 87.6831 73.8536C87.9653 73.5243 88.3887 73.3831 88.812 73.3831C89.4706 73.2891 90.1292 73.8065 90.1762 74.4651C90.2233 74.4651 90.2233 74.5121 90.2233 74.5121Z" fill="#A1A1A1"/>
<path d="M94.1746 75.3588H92.34V77.0052H91.8696V73.4302H92.34V74.9825H94.1746V73.4302H94.645V77.0052H94.1746V75.3588Z" fill="#A1A1A1"/>
<path d="M96.9032 73.3831C97.4207 73.3361 97.8911 73.5713 98.2204 73.9476C98.5026 74.3239 98.6437 74.7473 98.6437 75.2177C98.6908 75.7351 98.4556 76.2526 98.1263 76.5819C97.797 76.9112 97.3736 77.0523 96.9032 77.0523C96.3858 77.0993 95.9154 76.8641 95.5861 76.4878C95.3039 76.1115 95.1627 75.6881 95.1627 75.2177C95.1157 74.7003 95.3509 74.1828 95.6802 73.8535C96.0095 73.5243 96.4328 73.3361 96.9032 73.3831ZM96.9032 73.7595C96.5269 73.7595 96.1506 73.9006 95.9154 74.2299C95.6802 74.5121 95.5861 74.8414 95.5861 75.2177C95.5391 75.594 95.7272 76.0174 96.0095 76.2996C96.2447 76.5348 96.5739 76.676 96.9032 76.676C97.2795 76.676 97.6559 76.5348 97.8911 76.2056C98.1263 75.9233 98.2204 75.594 98.2204 75.2177C98.2674 74.8414 98.0792 74.418 97.797 74.1358C97.5618 73.8535 97.2325 73.7595 96.9032 73.7595Z" fill="#A1A1A1"/>
<path d="M101.749 74.4181H101.278C101.278 73.9477 100.949 73.7125 100.384 73.7125C100.196 73.7125 99.961 73.7596 99.8199 73.9007C99.6788 73.9948 99.5847 74.1829 99.5847 74.3711C99.5847 74.5122 99.6317 74.6063 99.7258 74.7004C99.8669 74.7944 100.008 74.8885 100.196 74.9356L101.043 75.1708C101.513 75.2178 101.843 75.5941 101.843 76.0645C101.843 76.3938 101.701 76.6761 101.419 76.8642C101.137 77.0524 100.761 77.1465 100.431 77.1465C99.961 77.1935 99.5376 77.0053 99.2083 76.6761C99.0672 76.4879 98.9731 76.2057 98.9731 75.9705H99.4435C99.4435 76.2057 99.5376 76.3938 99.7258 76.5349C99.961 76.6761 100.196 76.7701 100.478 76.7701C100.714 76.7701 100.949 76.7231 101.137 76.629C101.325 76.5349 101.419 76.3468 101.419 76.1586C101.419 75.8764 101.184 75.6882 100.761 75.5941L99.8669 75.3589C99.3965 75.2178 99.1613 74.9356 99.1613 74.5592C99.1613 74.23 99.3024 73.9477 99.5847 73.7596C99.8669 73.5714 100.149 73.5244 100.478 73.5244C100.902 73.4773 101.325 73.6184 101.607 73.9948C101.701 74.0418 101.749 74.23 101.749 74.4181Z" fill="#A1A1A1"/>
<path d="M102.971 75.453V77.0053H102.501V73.4302H103.959C104.524 73.3832 104.994 73.7595 105.088 74.324C105.088 74.371 105.088 74.4651 105.088 74.5122C105.088 74.7944 104.994 75.0766 104.759 75.2648C104.571 75.453 104.289 75.547 104.053 75.547H102.924L102.971 75.453ZM102.971 75.0766H103.912C104.1 75.1237 104.289 75.0296 104.383 74.8885C104.618 74.6533 104.618 74.2299 104.383 73.9947C104.241 73.9006 104.053 73.8065 103.912 73.8065H102.971V75.0766Z" fill="#A1A1A1"/>
<path d="M106.311 73.4302V77.0052H105.841V73.4302H106.311Z" fill="#A1A1A1"/>
<path d="M108.428 73.8065V77.0052H107.958V73.8535H106.782V73.4302H109.604V73.8535L108.428 73.8065Z" fill="#A1A1A1"/>
<path d="M112.05 75.9233H110.686L110.31 77.0052H109.839L111.109 73.4302H111.674L112.944 77.0052H112.474L112.05 75.9233ZM111.909 75.4999L111.392 73.9006L110.827 75.4999H111.909Z" fill="#A1A1A1"/>
<path d="M113.838 73.4302V76.5819H115.578V77.0052H113.367V73.4302H113.838Z" fill="#A1A1A1"/>
</svg>
