<svg width="120" height="120" viewBox="0 0 120 120" fill="none" xmlns="http://www.w3.org/2000/svg">
<path d="M29.6826 76.2056L21.7798 94.8336H26.0134L27.4717 91.1174H35.7978L37.2561 94.8336H41.6308L33.8692 76.2056H29.6826ZM28.7418 87.8245L31.6583 80.3922L34.5277 87.8245H28.7418Z" fill="#A1A1A1"/>
<path d="M53.344 76.2056L48.8281 84.6728L44.1711 76.2056H40.0786L46.8054 88.7653V94.7865H50.8979V88.6713L57.4836 76.2056H53.344Z" fill="#A1A1A1"/>
<path d="M63.5046 76.2056H59.4121V94.7865H71.2663V91.2585H63.5046V76.2056Z" fill="#A1A1A1"/>
<path d="M77.8049 76.2056H73.7124V94.7865H77.8049V76.2056Z" fill="#A1A1A1"/>
<path d="M94.3628 76.2056V88.389L85.5663 76.2056H81.8501V94.7865H85.7545V82.6971L94.551 94.7865H98.2201V76.2056H94.3628Z" fill="#A1A1A1"/>
<path d="M72.8184 44.3123L70.8428 47.8873L67.3618 54.2848L66.515 55.8842L70.2312 66.8916H81.0035L72.8184 44.3123ZM44.2649 52.4032L39.0435 66.8916H49.6746L52.0266 59.9767L44.2649 52.4032ZM65.9035 25.2139H54.1434L52.544 29.6357L46.2406 47.0876L55.2724 50.3805L59.9764 36.4095L62.2344 43.0892L66.9854 37.8677L69.5256 35.0923L65.9035 25.2139Z" fill="#A1A1A1"/>
<path d="M71.9247 41.8658L65.6683 53.3437L59.459 64.6804L52.6852 57.9536L45.0176 50.3801L45.2057 49.8156L45.535 48.9219L54.6138 52.2617L56.0721 52.7792L62.8929 45.2057L70.1842 37.1147L71.078 39.5138L71.9247 41.8658Z" fill="#A1A1A1"/>
</svg>
