<svg width="176" height="176" viewBox="0 0 176 176" fill="none" xmlns="http://www.w3.org/2000/svg">
<path d="M107.025 77.8623H42.6094V98.1375H107.025V77.8623Z" fill="white"/>
<path d="M133.391 77.8623H107.061V98.1375H133.391V77.8623Z" fill="#A1A1A1"/>
<path d="M45.707 82.3326H50.0366C50.7472 82.3286 51.452 82.46 52.1134 82.7198C52.7221 82.9672 53.2387 83.3978 53.5918 83.9518C53.9639 84.566 54.1475 85.2759 54.1198 85.9934C54.1427 86.7216 53.9597 87.4414 53.5918 88.0702C53.2316 88.635 52.7191 89.0864 52.1134 89.3726C51.4633 89.6763 50.7542 89.8326 50.0366 89.8302H48.4174V94.2654H45.7598V82.3326H45.707ZM48.4174 87.683H49.2974C49.6337 87.6821 49.9672 87.6226 50.283 87.507C50.5652 87.4054 50.8105 87.2215 50.987 86.979C51.1485 86.6883 51.2333 86.3612 51.2333 86.0286C51.2333 85.696 51.1485 85.3689 50.987 85.0782C50.8083 84.8458 50.5626 84.6738 50.283 84.5854C49.9651 84.4821 49.6316 84.4345 49.2974 84.4446H48.4174V87.683Z" fill="#A1A1A1"/>
<path d="M55.2817 88.2817C55.2677 87.4681 55.4161 86.6599 55.7183 85.9044C56.0205 85.1489 56.4704 84.4612 57.0417 83.8817C58.2022 82.7296 59.7712 82.083 61.4065 82.083C63.0418 82.083 64.6108 82.7296 65.7713 83.8817C66.336 84.4356 66.769 85.1092 67.0385 85.8529C67.6473 87.4149 67.6473 89.1486 67.0385 90.7105C66.7605 91.4499 66.3285 92.1218 65.7713 92.6817C65.2165 93.2373 64.559 93.6797 63.8353 93.9841C63.0541 94.3042 62.2153 94.4599 61.3713 94.4417C60.5159 94.4595 59.6657 94.3038 58.8721 93.9841C58.1437 93.6884 57.4845 93.245 56.9361 92.6817C56.4011 92.111 55.9827 91.4414 55.7041 90.7105C55.4215 89.9321 55.2785 89.1099 55.2817 88.2817ZM58.0625 88.2817C58.0519 88.9172 58.1969 89.5456 58.4849 90.1121C58.7447 90.645 59.1467 91.0957 59.6465 91.4145C60.164 91.7368 60.7616 91.9076 61.3713 91.9076C61.981 91.9076 62.5785 91.7368 63.0961 91.4145C63.5882 91.0868 63.9881 90.6384 64.2577 90.1121C64.5418 89.5442 64.6866 88.9167 64.6801 88.2817C64.6906 87.6463 64.5456 87.0179 64.2577 86.4513C63.9979 85.9185 63.5959 85.4677 63.0961 85.1489C62.5784 84.827 61.9809 84.6564 61.3713 84.6564C60.7616 84.6564 60.1642 84.827 59.6465 85.1489C59.1543 85.4767 58.7544 85.9251 58.4849 86.4513C58.1991 87.0181 58.0599 87.6474 58.0801 88.2817H58.0625Z" fill="#A1A1A1"/>
<path d="M80.9777 94.2306H77.7393L75.7329 85.9234H76.2257L74.2193 94.2306H70.9809L68.2881 82.333H71.3857L72.8289 90.6754H72.7937L75.0113 82.333H77.0529L79.3057 90.6754H79.2705L80.7137 82.333H83.8113L80.9777 94.2306Z" fill="#A1A1A1"/>
<path d="M85.3071 82.333H92.9279V84.6914H88.0351V87.1202H92.8927V89.4082H88.0351V91.8722H92.9279V94.2306H85.3247V82.333H85.3071Z" fill="#A1A1A1"/>
<path d="M94.8818 82.3326H99.7394C100.375 82.3179 101.005 82.4631 101.57 82.755C102.097 83.0417 102.536 83.4679 102.837 83.987C103.161 84.5794 103.319 85.2482 103.295 85.923C103.315 86.5554 103.182 87.1834 102.907 87.7534C102.686 88.1808 102.359 88.5444 101.957 88.8094C101.654 89.0268 101.304 89.1714 100.936 89.2318L103.823 94.1598H100.795L98.2258 89.443H97.557V94.1598H94.8818V82.3326ZM97.557 87.6478H98.7538C99.2027 87.6661 99.646 87.543 100.021 87.2958C100.207 87.1529 100.354 86.9645 100.446 86.7488C100.539 86.533 100.574 86.2971 100.549 86.0638C100.549 85.4654 100.373 85.043 100.021 84.8318C99.646 84.5845 99.2027 84.4614 98.7538 84.4798H97.557V87.6478Z" fill="#A1A1A1"/>
<path d="M109.947 88.2817C109.933 87.4681 110.082 86.6599 110.384 85.9044C110.686 85.1489 111.136 84.4612 111.707 83.8817C112.868 82.7296 114.437 82.083 116.072 82.083C117.707 82.083 119.276 82.7296 120.437 83.8817C121.002 84.4356 121.435 85.1092 121.704 85.8529C122.313 87.4149 122.313 89.1486 121.704 90.7105C121.426 91.4499 120.994 92.1218 120.437 92.6817C119.882 93.2373 119.225 93.6797 118.501 93.9841C117.72 94.3042 116.881 94.4599 116.037 94.4417C115.182 94.4565 114.332 94.301 113.538 93.9841C112.805 93.6972 112.144 93.2526 111.602 92.6817C111.067 92.111 110.648 91.4414 110.37 90.7105C110.104 89.9276 109.962 89.1083 109.947 88.2817ZM112.763 88.2817C112.753 88.9172 112.898 89.5456 113.186 90.1121C113.445 90.645 113.847 91.0957 114.347 91.4145C114.865 91.7364 115.462 91.907 116.072 91.907C116.682 91.907 117.279 91.7364 117.797 91.4145C118.295 91.0891 118.702 90.6405 118.976 90.1121C119.26 89.5442 119.405 88.9167 119.398 88.2817C119.409 87.6463 119.264 87.0179 118.976 86.4513C118.706 85.9251 118.307 85.4767 117.814 85.1489C117.297 84.827 116.699 84.6564 116.09 84.6564C115.48 84.6564 114.883 84.827 114.365 85.1489C113.873 85.4767 113.473 85.9251 113.203 86.4513C112.905 87.0149 112.754 87.6443 112.763 88.2817Z" fill="white"/>
<path d="M123.781 82.333H130.645V84.6914H126.456V87.085H130.328V89.4434H126.456V94.2306H123.781V82.333Z" fill="white"/>
</svg>
