<svg width="176" height="176" viewBox="0 0 176 176" fill="none" xmlns="http://www.w3.org/2000/svg">
<path d="M65.3068 100.123L59.3896 114.048H62.5576L63.6453 111.264H69.8722L70.9564 114.048H74.2159L68.436 100.13L65.3068 100.123ZM64.6028 108.814L66.7711 103.266L68.9253 108.814H64.6028Z" fill="#A1A1A1"/>
<path d="M83.0335 100.123L79.6402 106.466L76.1695 100.123H73.0859L78.109 109.525V114.041H81.1714V109.465L86.1205 100.123H83.0335Z" fill="#A1A1A1"/>
<path d="M90.6187 100.123H87.5527V114.041H96.4196V111.398H90.6187V100.123Z" fill="#A1A1A1"/>
<path d="M101.327 100.123H98.2607V114.041H101.327V100.123Z" fill="#A1A1A1"/>
<path d="M113.721 100.123V109.243L107.124 100.123H104.333V114.041H107.262V104.967L113.837 114.041H116.611V100.123H113.721Z" fill="#A1A1A1"/>
<path d="M97.5777 76.2645L96.0958 78.9537L93.5015 83.7269L92.8539 84.9201L95.6311 93.164H103.678L97.5777 76.2645ZM76.2359 82.3118L72.3076 93.164H80.2558L82.0158 88.0001L76.2359 82.3118ZM92.3998 61.9521H83.5998L82.4065 65.2539L77.6756 78.3272L84.434 80.7912L87.954 70.3438L89.6331 75.3281L93.1777 71.4034L95.0644 69.323L92.3998 61.9521Z" fill="#A1A1A1"/>
<path d="M96.909 74.4199L92.2274 83.0263L87.6092 91.506L82.5228 86.4689L76.7852 80.7911L76.933 80.3863L77.1759 79.714L83.9624 82.1956L85.0431 82.5934L90.1682 76.9191L95.6312 70.8823L96.2754 72.667L96.909 74.4199Z" fill="#A1A1A1"/>
</svg>
