<svg width="120" height="120" viewBox="0 0 120 120" fill="none" xmlns="http://www.w3.org/2000/svg">
<path d="M103.065 24.0849C102.36 22.2974 100.619 21.1684 98.7376 21.2625C96.9971 21.3566 95.4919 22.4855 94.8803 24.0849V43.0422C94.0336 44.6886 92.0109 45.3001 90.4115 44.4534C89.7529 44.1241 89.2355 43.5596 88.9062 42.901V23.9438C88.2476 22.3914 86.7423 21.3095 85.0489 21.2625C83.2143 21.2154 81.5679 22.2503 80.8623 23.9438V42.901C80.2037 44.1711 78.8396 44.9238 77.4284 44.8297C76.0642 44.7356 74.9352 43.8419 74.4648 42.5718V24.0849C73.8533 22.5326 72.4421 21.4036 70.7486 21.2625C68.82 21.1214 66.9854 22.2974 66.2798 24.0849V42.4306C64.6804 44.8767 61.3405 45.5823 58.8944 43.983C58.0007 43.3715 57.2951 42.5247 56.8717 41.5369V24.226C56.2602 22.0622 54.0493 20.7921 51.8854 21.4036C50.6153 21.7329 49.5804 22.7207 49.1571 23.9438C48.2163 22.2033 46.5699 21.1684 44.9705 21.2625C42.9478 21.4036 41.5365 23.2852 41.1132 24.8375C40.0313 28.6008 44.5471 30.6235 44.5471 34.9983C44.5471 39.0908 40.5957 44.7356 34.7157 44.8297C29.306 44.9238 24.8843 40.2668 24.555 35.2805C24.2727 30.6705 27.6126 27.5659 28.13 27.0955C28.6945 24.6494 27.1422 22.2033 24.6961 21.6858C23.473 21.4036 22.2029 21.6388 21.121 22.3444C20.0861 23.5675 15.7584 28.883 16.3699 36.2213C17.0285 44.2652 23.426 52.0269 32.1755 53.0618C38.7612 53.8144 45.3468 50.6627 49.3452 45.0179C49.5804 45.4412 53.1555 52.3562 60.682 53.0618C64.21 53.344 67.738 52.2621 70.5134 50.0982C74.4178 53.9555 80.6271 54.0496 84.6726 50.3805C86.8364 52.168 89.6118 53.1088 92.4342 53.0618C96.9971 52.8736 101.184 49.7689 103.159 45.159V24.0849H103.065Z" fill="#A1A1A1"/>
<path d="M100.854 62.0934C99.1139 59.6943 96.1034 59.2239 94.3629 60.541C93.9865 60.8233 93.6573 61.1996 93.4221 61.623C92.7164 62.8931 92.8576 64.4454 93.7043 65.6214C94.9744 67.3619 95.5389 69.4787 95.2566 71.5955C94.6921 75.5469 91.1171 78.7457 87.2127 78.7457C82.932 78.7457 79.0277 74.8884 78.8866 69.9491C78.6514 61.7171 71.9246 55.1314 63.6925 55.0844C60.0704 55.0373 56.5424 56.2133 53.6259 58.4242C53.3437 57.013 52.3088 55.8841 50.9446 55.5077H39.1375C38.8552 55.5077 38.62 55.4607 38.3378 55.4137C37.2088 55.2255 36.0328 55.6489 35.2802 56.4956C34.7627 57.1541 34.4805 58.0009 34.4805 58.8476V75.1706C33.6808 77.2404 31.658 78.6046 29.4471 78.5105C26.5777 78.4164 25.1665 75.8292 25.0724 75.7351V58.189C24.4138 56.5426 22.8145 55.4607 21.0269 55.5077C19.0983 55.6018 17.4518 56.966 16.9814 58.8476V74.512C16.9814 77.3815 17.9693 80.1098 19.7568 82.3207L19.8039 82.3678C20.4154 83.0734 22.9085 86.084 24.5079 85.5195C25.2606 85.2372 25.0254 84.4376 26.2014 83.4027C27.0951 82.603 28.1771 82.1326 29.3531 82.0385C31.0936 81.9444 32.3636 82.8852 33.0693 83.4027C34.6686 84.5787 34.7157 85.5195 35.4213 85.7547C36.315 86.0369 37.9144 85.1432 40.972 80.5802C42.3832 78.4634 43.1359 75.9233 43.1359 73.3831V63.8809H49.063C48.3103 65.3862 46.4287 69.7139 47.6988 74.8413C49.2982 81.3799 55.2253 86.0369 61.4346 86.7896C64.6333 87.1659 67.8321 86.5544 70.7016 85.0961V95.6332C71.3131 97.9381 73.7121 99.2553 75.9701 98.6437C77.4283 98.2204 78.5573 97.0914 78.9807 95.6332V84.4376C80.4389 85.4254 83.5906 87.307 87.6831 87.2129C95.5859 87.1189 103.112 80.0628 103.677 72.0189C104.1 67.503 101.983 63.8339 100.854 62.0934ZM64.4452 78.6986C60.3997 79.2161 56.6835 76.3937 56.1661 72.3482C55.6486 68.3027 58.4711 64.5865 62.5165 64.0691C66.562 63.5516 70.2782 66.3741 70.7956 70.4195C70.8897 71.0781 70.8897 71.6896 70.7956 72.3482C70.3252 75.641 67.738 78.2282 64.4452 78.6986Z" fill="#A1A1A1"/>
<path d="M29.7766 92.8106C32.2707 92.8106 34.2925 90.7887 34.2925 88.2947C34.2925 85.8006 32.2707 83.7788 29.7766 83.7788C27.2826 83.7788 25.2607 85.8006 25.2607 88.2947C25.2607 90.7887 27.2826 92.8106 29.7766 92.8106Z" fill="#A1A1A1"/>
<path d="M85.8959 63.2225C88.2601 63.2225 90.1766 61.306 90.1766 58.9418C90.1766 56.5777 88.2601 54.6611 85.8959 54.6611C83.5318 54.6611 81.6152 56.5777 81.6152 58.9418C81.6152 61.306 83.5318 63.2225 85.8959 63.2225Z" fill="#A1A1A1"/>
<path d="M85.8959 70.6546C88.2601 70.6546 90.1766 68.7381 90.1766 66.3739C90.1766 64.0098 88.2601 62.0933 85.8959 62.0933C83.5318 62.0933 81.6152 64.0098 81.6152 66.3739C81.6152 68.7381 83.5318 70.6546 85.8959 70.6546Z" fill="#A1A1A1"/>
<path d="M34.2924 39.0433C36.6565 39.0433 38.5731 37.1268 38.5731 34.7626C38.5731 32.3985 36.6565 30.4819 34.2924 30.4819C31.9282 30.4819 30.0117 32.3985 30.0117 34.7626C30.0117 37.1268 31.9282 39.0433 34.2924 39.0433Z" fill="#A1A1A1"/>
</svg>
