<svg width="176" height="176" viewBox="0 0 176 176" fill="none" xmlns="http://www.w3.org/2000/svg">
<path d="M89.6824 67.936C91.3016 68.0416 92.9208 68.112 94.54 68.2528C97.0744 68.464 99.6088 68.7808 102.038 69.696C103.234 70.1536 104.15 70.9632 105.065 71.7728C106.191 72.7232 107.318 73.6736 108.374 74.7296C108.863 75.2494 109.267 75.8435 109.57 76.4896C109.674 76.8771 109.637 77.2889 109.465 77.6512C109.117 78.3701 108.515 78.9344 107.775 79.2352C107.514 79.3513 107.23 79.4083 106.944 79.4022C106.658 79.3961 106.377 79.3271 106.121 79.2C104.818 78.6368 103.868 77.616 102.882 76.6304C101.263 75.0112 99.6792 73.392 98.0248 71.8432C96.5875 70.4079 94.8059 69.3656 92.8504 68.816C92.0408 68.6048 91.2312 68.464 90.4216 68.3232C90.1371 68.3299 89.8541 68.3653 89.5768 68.4288C89.9992 69.5904 90.4216 70.6464 90.8088 71.7024C91.1256 72.6528 91.4424 73.6032 91.6888 74.5888C92.3928 77.2992 92.9912 80.0096 92.8504 82.8256C92.8458 83.4521 92.7265 84.0725 92.4984 84.656C92.1619 85.4129 91.7107 86.1134 91.1608 86.7328C89.0298 89.1699 86.6595 91.3869 84.0856 93.3504C82.1496 94.7936 79.8264 94.6176 78.2424 92.752C76.4101 90.5646 75.195 87.9277 74.7224 85.1136C74.3704 83.1776 75.2856 81.5584 76.9048 80.5376C78.2776 79.6928 79.7912 79.0592 81.2344 78.3552C83.4991 77.305 85.6665 76.0564 87.7112 74.624C89.3656 73.392 89.788 71.7728 89.612 69.9072C89.612 69.8016 89.5768 69.696 89.5768 69.5904C89.5768 69.0976 89.26 68.6048 89.5768 68.1472C89.5866 68.0668 89.6239 67.9922 89.6824 67.936Z" fill="#A1A1A1"/>
<path d="M89.2247 68.2878C88.5911 68.9214 87.9927 69.5902 87.3591 70.1886C84.9303 72.547 82.3255 74.6942 79.2983 76.243C77.6439 77.0878 75.9191 77.8622 73.9479 77.6158C72.1879 77.4046 70.4279 77.123 68.7031 76.771C66.8239 76.3936 64.9672 75.9118 63.1415 75.3278C61.2759 74.7294 60.8535 73.4622 61.6983 71.7374C61.9178 71.2788 62.2156 70.8619 62.5783 70.5054C63.3175 69.731 64.0215 68.9214 64.8311 68.2174C66.9431 66.4222 69.3015 66.563 71.7655 67.3022C74.2999 68.0766 76.7991 68.851 79.3687 69.5198C80.5965 69.8163 81.8431 70.028 83.0999 70.1534C84.9303 70.3294 86.5847 69.7662 88.0983 68.8158L89.0487 68.1822C89.116 68.2005 89.177 68.237 89.2247 68.2878Z" fill="#A1A1A1"/>
<path d="M106.015 90.7877C105.808 91.0666 105.536 91.292 105.224 91.445C104.912 91.5981 104.568 91.6744 104.22 91.6677C102.601 91.7381 101.087 91.2805 99.609 90.7173C98.4028 90.312 97.3474 89.5512 96.5818 88.5349C95.7998 87.4438 95.3588 86.1454 95.3146 84.8037C95.2442 83.6421 95.3497 82.4453 95.2793 81.2485C95.1737 79.3477 95.033 77.4117 94.857 75.5109C94.6106 73.0469 93.2025 71.2165 91.4073 69.6677C91.3017 69.5621 91.1609 69.4565 91.0553 69.3509C90.9997 69.2617 90.9526 69.1674 90.9146 69.0693C91.6186 69.5269 92.1818 69.8437 92.745 70.2309C93.977 71.0757 95.2442 71.8853 96.4058 72.8357C98.2362 74.3141 100.031 75.8629 101.827 77.3765C103.411 78.7141 104.255 80.4389 104.783 82.3749C105.311 84.3813 105.875 86.3877 106.367 88.3941C106.485 88.7949 106.514 89.2163 106.454 89.6295C106.393 90.0427 106.243 90.4378 106.015 90.7877Z" fill="#A1A1A1"/>
<path d="M88.8728 68.119C87.6408 68.0486 86.4088 68.0134 85.1768 67.943C83.4168 67.8022 81.6568 67.6614 79.932 67.4502C77.439 67.2038 74.9824 66.6724 72.6104 65.8662C71.4317 65.426 70.4217 64.6254 69.724 63.5782C69.0904 62.6982 68.4568 61.8182 67.8584 60.903C67.1896 59.847 67.4712 59.0726 68.668 58.791C70.7096 58.2982 72.8216 58.087 74.8984 58.5798C75.9002 58.8425 76.7593 59.4869 77.292 60.375C78.5778 62.2872 80.1172 64.016 81.868 65.5142C83.0648 66.535 84.5432 67.063 86.0568 67.415C86.8312 67.591 87.6056 67.7318 88.38 67.8726L88.8728 67.9782V68.119Z" fill="#A1A1A1"/>
<path d="M88.8026 67.7671C88.169 67.3799 87.5354 67.0279 86.9722 66.6055C85.001 65.1975 83.0298 63.8247 81.129 62.3463C80.2678 61.6024 79.4565 60.8028 78.7002 59.9527C78.5144 59.7595 78.394 59.5128 78.3561 59.2475C78.3182 58.9822 78.3647 58.7117 78.489 58.4743C78.7354 57.9463 78.9818 57.4183 79.2634 56.9255C79.4324 56.5599 79.7318 56.2707 80.1029 56.1144C80.4741 55.9581 80.8902 55.9461 81.2698 56.0807C82.6449 56.4996 83.9963 56.9932 85.3178 57.5591C86.2682 57.9815 86.3738 58.5095 86.0218 59.4951C85.6433 60.4286 85.406 61.4132 85.3178 62.4167C85.2474 63.8599 85.8458 64.9511 86.8666 65.9015C87.5354 66.5351 88.2042 67.1335 88.873 67.7319C88.873 67.6967 88.8378 67.7319 88.8026 67.7671Z" fill="#A1A1A1"/>
<path d="M89.6825 67.936L89.5769 68.0416L89.3657 67.8304C90.1401 67.056 90.8793 66.2816 91.7241 65.5424C92.7801 64.592 93.9065 63.6768 95.3145 63.2896C95.8872 63.1266 96.4906 63.1024 97.0745 63.2192C98.6382 63.6387 100.178 64.144 101.686 64.7328C103.129 65.296 103.763 66.4928 103.939 67.9712C103.957 68.0762 103.952 68.1838 103.926 68.2869C103.899 68.39 103.851 68.4863 103.784 68.5695C103.718 68.6526 103.634 68.7207 103.54 68.7693C103.445 68.8179 103.341 68.8458 103.235 68.8512C102.783 68.8469 102.334 68.7878 101.897 68.6752C100.137 68.112 98.3769 67.4784 96.5817 66.9152C95.7762 66.6722 94.9521 66.4956 94.1177 66.3872C92.3929 66.2183 90.9497 66.8167 89.6825 67.936Z" fill="#A1A1A1"/>
<path d="M89.3656 67.8373C89.238 67.7053 89.1204 67.5642 89.0136 67.4149C88.4856 65.7253 87.9224 64.0357 87.5 62.3109C87.3706 61.5197 87.3469 60.7147 87.4296 59.9173C87.4272 59.7102 87.5013 59.5094 87.6377 59.3536C87.7741 59.1977 87.9632 59.0976 88.1688 59.0725C89.3304 58.8613 90.492 58.6501 91.6536 58.5093C92.5336 58.4389 93.2376 58.9669 93.8712 59.4597C94.4528 59.9303 94.9944 60.4483 95.4904 61.0085C95.9128 61.4661 95.772 61.9589 95.2088 62.1701C94.8216 62.3109 94.3992 62.3461 93.9768 62.4869C92.8152 62.8389 91.6184 63.1557 90.4568 63.5781C89.3656 63.9653 89.0136 65.1269 89.084 66.0773C89.1544 66.6757 89.26 67.2389 89.3656 67.8373Z" fill="#A1A1A1"/>
<path d="M75.9192 118.272C73.6312 118.202 71.9768 118.096 70.3928 117.568C69.6536 117.322 69.1256 116.864 69.0904 116.09C69.0552 115.315 69.196 114.541 69.9352 114.048C70.2474 113.798 70.6323 113.656 71.0322 113.643C71.4321 113.631 71.8253 113.748 72.1528 113.978C72.5048 114.224 72.892 114.471 73.244 114.717C74.0184 115.315 74.9688 115.351 75.884 115.421C77.8904 115.562 79.8968 115.456 81.7272 114.4C82.8951 113.742 83.8763 112.797 84.5784 111.655C85.0136 110.954 85.4016 110.225 85.74 109.472C85.8627 109.253 85.9181 109.003 85.8993 108.752C85.8805 108.502 85.7884 108.263 85.6344 108.064C85.1649 107.438 84.6471 106.849 84.0856 106.304C83.4168 105.635 83.5576 104.65 84.4728 104.333C84.6758 104.252 84.9012 104.246 85.1079 104.317C85.3147 104.388 85.489 104.531 85.5992 104.72C85.8456 105.143 86.0568 105.6 86.3032 106.023C86.4606 106.227 86.6374 106.416 86.8312 106.586C87.0072 106.375 87.2888 106.199 87.3944 105.952C88.1763 104.014 89.4068 102.289 90.9848 100.919C91.8031 100.212 92.7653 99.6919 93.8046 99.394C94.844 99.0962 95.9356 99.0279 97.004 99.1938C97.2326 99.2123 97.4491 99.3047 97.6206 99.4571C97.7921 99.6096 97.9092 99.8137 97.9544 100.039C98.0096 100.267 97.9793 100.508 97.869 100.715C97.7587 100.923 97.5762 101.083 97.356 101.165C96.9328 101.345 96.4784 101.441 96.0184 101.447C93.1672 101.411 91.1256 102.679 89.8584 105.213C88.9784 107.008 88.2392 108.839 87.3944 110.634C85.7048 114.295 83.0648 116.935 79.0168 117.885C77.82 118.138 76.5528 118.174 75.9192 118.272Z" fill="#A1A1A1"/>
<path d="M101.263 107.332C101.143 107.559 101.037 107.795 100.946 108.036C100.594 109.197 100.242 110.394 99.8904 111.591C99.644 112.436 99.3976 112.647 98.5176 112.647H94.8216C93.7656 112.647 93.4136 112.295 93.3784 111.204C93.3784 109.972 93.4136 108.704 93.4136 107.472V104.234C93.4136 103.46 93.8008 103.002 94.5048 103.002C94.6654 102.989 94.8269 103.013 94.9768 103.072C95.1268 103.131 95.2612 103.223 95.3699 103.342C95.4787 103.461 95.5587 103.603 95.604 103.758C95.6493 103.912 95.6586 104.075 95.6312 104.234L95.5256 109.408C95.5256 109.62 95.5608 109.866 95.5608 110.077C95.5557 110.169 95.5707 110.262 95.6048 110.348C95.6388 110.433 95.6912 110.511 95.7581 110.574C95.8251 110.638 95.9051 110.686 95.9926 110.716C96.0801 110.746 96.173 110.756 96.2648 110.746C96.7269 110.769 97.1898 110.721 97.6376 110.605C97.7751 110.558 97.9018 110.483 98.0106 110.387C98.1193 110.29 98.2079 110.173 98.2712 110.042C98.764 108.704 99.2216 107.332 99.6792 105.994C99.7496 105.818 99.7848 105.677 99.8552 105.501C99.9413 105.166 100.124 104.864 100.381 104.633C100.637 104.401 100.957 104.25 101.298 104.199C101.638 104.198 101.969 104.308 102.242 104.511C102.515 104.714 102.715 104.999 102.812 105.325C103.868 108.176 104.889 111.063 105.98 113.914C106.438 115.076 107.001 116.202 107.458 117.364C107.606 117.724 107.7 118.103 107.74 118.49C107.734 118.792 107.632 119.085 107.448 119.325C107.265 119.566 107.009 119.742 106.719 119.828C106.583 119.882 106.437 119.909 106.291 119.906C106.144 119.904 105.999 119.872 105.865 119.813C105.731 119.754 105.609 119.669 105.508 119.563C105.407 119.457 105.328 119.331 105.276 119.194C104.854 118.103 104.502 116.976 104.15 115.85C103.727 114.477 103.305 113.14 102.882 111.767C102.706 111.204 102.425 110.922 101.791 110.992C101.663 111.019 101.53 111.017 101.402 110.988C101.275 110.958 101.155 110.902 101.051 110.821C100.947 110.741 100.862 110.639 100.802 110.523C100.741 110.407 100.706 110.279 100.7 110.148C100.63 109.655 101.017 109.232 101.58 109.092C101.721 109.056 101.932 108.845 101.932 108.775C101.791 108.282 101.615 107.824 101.439 107.367C101.386 107.335 101.324 107.322 101.263 107.332Z" fill="#A1A1A1"/>
<path d="M61.1003 107.085C61.087 107.072 61.0769 107.055 61.0708 107.037C61.0647 107.018 61.0628 106.999 61.0651 106.98C60.9383 106.738 60.8606 106.474 60.8365 106.202C60.8123 105.93 60.8421 105.656 60.9243 105.396C61.0879 105.179 61.3129 105.016 61.5702 104.928C61.8275 104.84 62.1052 104.831 62.3675 104.903C62.6138 104.973 62.8273 105.128 62.9692 105.341C63.1112 105.554 63.1725 105.811 63.1419 106.065V110.711C63.1551 110.882 63.1316 111.055 63.0731 111.216C63.0146 111.378 62.9223 111.525 62.8024 111.648C62.6826 111.772 62.5378 111.868 62.3779 111.931C62.2179 111.994 62.0464 112.022 61.8747 112.013C61.1707 111.978 60.7483 111.415 60.7835 110.605C60.8187 109.796 60.7131 109.62 59.9387 109.444C59.442 109.333 58.9299 109.309 58.4251 109.373C58.2139 109.409 57.9323 109.761 57.8619 110.007C57.5099 111.521 57.1931 113.069 56.8763 114.618C56.6651 115.709 56.0667 116.132 54.9403 115.956C54.3067 115.85 53.9547 115.428 54.1307 114.794C54.4123 113.738 54.7291 112.682 55.0811 111.626C55.7369 109.586 56.1158 107.467 56.2075 105.325C56.3619 103.713 56.1944 102.086 55.7147 100.538C55.6758 100.317 55.7264 100.089 55.8555 99.9047C56.1019 99.4471 56.8411 99.2359 57.4747 99.4119C57.7103 99.4683 57.9193 99.604 58.0667 99.7963C58.2141 99.9886 58.2909 100.226 58.2843 100.468C58.3547 101.665 58.3547 102.861 58.3547 104.058C58.3547 104.903 58.2491 105.783 58.2139 106.628C58.1787 107.473 58.2491 107.649 59.0587 107.719C59.7627 107.712 60.5723 107.86 61.1003 107.085Z" fill="#A1A1A1"/>
<path d="M107.071 108.458V109.514C107.141 109.826 107.177 110.145 107.177 110.465C107.127 110.724 106.977 110.954 106.76 111.105C106.543 111.256 106.276 111.317 106.015 111.274C105.737 111.277 105.469 111.172 105.266 110.982C105.063 110.792 104.94 110.531 104.924 110.254C104.889 108.599 104.924 106.98 104.959 105.326C104.957 105.103 105.029 104.886 105.162 104.708C105.296 104.529 105.484 104.4 105.699 104.34C105.94 104.266 106.198 104.274 106.434 104.364C106.67 104.453 106.869 104.618 107.001 104.833C107.494 105.537 107.987 106.311 108.479 107.015C108.831 107.508 109.183 107.966 109.571 108.458C109.61 108.513 109.664 108.555 109.726 108.58C109.788 108.605 109.857 108.612 109.923 108.599C109.977 108.566 110.021 108.519 110.052 108.464C110.083 108.408 110.099 108.346 110.099 108.282C110.063 107.226 110.063 106.135 109.958 105.079C109.852 103.741 109.641 102.439 109.5 101.102C109.43 100.398 109.43 99.7287 109.993 99.1655C110.2 98.9334 110.471 98.769 110.773 98.6936C111.074 98.6182 111.391 98.6355 111.683 98.7431C111.952 98.8152 112.189 98.9761 112.355 99.1998C112.521 99.4234 112.607 99.6966 112.598 99.9751C112.599 100.813 112.528 101.649 112.387 102.474C111.999 104.868 112.211 107.261 112.175 109.655V111.415C112.175 112.189 111.894 112.577 111.366 112.753C110.838 112.929 110.31 112.647 109.887 112.084C109.219 111.098 108.55 110.113 107.846 109.127C107.666 108.877 107.465 108.641 107.247 108.423C107.247 108.388 107.142 108.416 107.071 108.458Z" fill="#A1A1A1"/>
<path d="M67.0492 107.508C66.9296 107.712 66.8238 107.923 66.7324 108.141C65.6412 111.521 64.55 114.865 63.4588 118.244C63.343 118.633 63.1897 119.01 63.0012 119.37C62.8059 119.668 62.5048 119.882 62.1585 119.966C61.8123 120.051 61.4467 120.002 61.1356 119.828C60.8609 119.682 60.6508 119.438 60.5466 119.145C60.4424 118.852 60.4516 118.53 60.5724 118.244C60.8188 117.61 61.1004 116.977 61.3468 116.343C62.086 114.583 62.8252 112.858 63.5292 111.098C64.2332 109.338 64.8316 107.473 65.5004 105.677C65.5708 105.466 65.782 105.325 65.8876 105.149C65.9228 105.114 65.9228 105.009 65.958 104.973C66.0636 104.797 66.134 104.551 66.2748 104.516C67.0844 104.129 67.9996 104.199 68.3516 105.114C68.9148 106.557 69.4428 108.001 69.9708 109.479C70.2172 110.113 70.4284 110.746 70.6396 111.38C70.6941 111.513 70.7198 111.657 70.7151 111.801C70.7104 111.945 70.6753 112.086 70.6122 112.216C70.549 112.345 70.4593 112.46 70.3488 112.553C70.2382 112.645 70.1094 112.713 69.9708 112.753C69.8346 112.804 69.6895 112.827 69.5442 112.821C69.3989 112.814 69.2563 112.779 69.125 112.717C68.9936 112.654 68.8761 112.566 68.7795 112.457C68.683 112.349 68.6092 112.222 68.5628 112.084C68.4997 111.925 68.4525 111.759 68.422 111.591C68.4212 111.501 68.4 111.413 68.3599 111.333C68.3197 111.252 68.2618 111.183 68.1904 111.128C68.1191 111.074 68.0362 111.036 67.9482 111.019C67.8603 111.002 67.7694 111.005 67.6828 111.028C67.5425 111.045 67.4006 111.045 67.2604 111.028C67.1446 111.029 67.0297 111.007 66.9225 110.963C66.8153 110.919 66.7179 110.854 66.636 110.772C66.5541 110.69 66.4893 110.593 66.4455 110.486C66.4016 110.378 66.3794 110.264 66.3804 110.148C66.362 110.034 66.3667 109.918 66.3942 109.806C66.4217 109.695 66.4714 109.59 66.5405 109.498C66.6095 109.406 66.6963 109.329 66.7958 109.271C66.8953 109.213 67.0054 109.176 67.1196 109.162C67.718 109.127 67.6828 108.881 67.4716 108.458C67.3393 108.183 67.2218 107.901 67.1196 107.613C67.1196 107.543 67.0844 107.543 67.0492 107.508Z" fill="#A1A1A1"/>
<path d="M114.956 112.682H113.696C113.555 112.691 113.414 112.67 113.282 112.62C113.15 112.57 113.03 112.492 112.93 112.393C112.83 112.293 112.753 112.173 112.703 112.041C112.653 111.909 112.631 111.767 112.64 111.626V107.966C112.64 107.226 113.098 106.804 113.872 106.839C114.023 106.846 114.17 106.884 114.305 106.951C114.44 107.019 114.559 107.113 114.655 107.229C114.751 107.345 114.822 107.48 114.863 107.625C114.904 107.77 114.914 107.922 114.893 108.071C114.858 108.74 114.787 109.409 114.787 110.078C114.787 110.641 114.999 110.782 115.527 110.817C116.723 110.852 117.463 110.113 117.427 108.916V108.318C117.357 107.086 116.688 106.417 115.421 106.417H113.555C112.992 106.417 112.605 106.135 112.535 105.713C112.429 105.044 112.64 104.551 113.309 104.481C115.21 104.27 117.216 104.023 118.695 105.642C119.962 107.015 120.067 108.67 119.434 110.359C118.835 111.943 117.533 112.647 115.879 112.718C115.574 112.689 115.269 112.677 114.963 112.682H114.956Z" fill="#A1A1A1"/>
<path d="M77.5738 108.529V105.466C77.5644 105.227 77.6409 104.993 77.7895 104.806C77.938 104.619 78.1487 104.491 78.3834 104.445C79.1578 104.41 79.897 104.481 80.6714 104.481C80.8813 104.451 81.0932 104.44 81.305 104.445C81.7889 104.521 82.2457 104.719 82.6326 105.019C83.0194 105.32 83.3238 105.714 83.5172 106.164C83.7106 106.614 83.7867 107.105 83.7384 107.593C83.6901 108.08 83.5189 108.548 83.241 108.951C82.8186 109.585 81.1642 110.007 80.5306 109.585C80.4166 109.477 80.3287 109.346 80.2738 109.199C80.2189 109.053 80.1983 108.895 80.2138 108.74C80.242 108.594 80.3005 108.457 80.3854 108.335C80.4703 108.214 80.5797 108.112 80.7066 108.036C81.1994 107.895 81.4458 107.649 81.3754 107.156C81.305 106.663 80.8826 106.557 80.4602 106.557C79.721 106.522 79.6858 106.557 79.6858 107.297C79.721 108.669 79.7562 110.077 79.8266 111.45C79.8489 111.763 79.7467 112.071 79.5423 112.309C79.3378 112.546 79.0478 112.693 78.7354 112.717C78.5761 112.74 78.4137 112.726 78.2607 112.676C78.1078 112.626 77.9682 112.542 77.8528 112.429C77.7373 112.317 77.649 112.18 77.5945 112.029C77.5401 111.878 77.5209 111.716 77.5386 111.556V108.493C77.5386 108.529 77.5386 108.529 77.5738 108.529Z" fill="#A1A1A1"/>
<path d="M73.2795 104.27C73.9414 104.326 74.5995 104.42 75.2507 104.551C77.0811 105.079 77.8555 107.438 76.7291 108.986C76.1659 109.726 75.3563 109.902 74.4763 109.972C73.2091 110.078 73.2091 110.078 73.2795 111.31C73.3147 112.014 73.1035 112.436 72.6107 112.647C72.4538 112.73 72.2785 112.772 72.1009 112.77C71.9233 112.767 71.7493 112.72 71.5949 112.632C71.4405 112.544 71.3108 112.419 71.2176 112.268C71.1244 112.117 71.0709 111.944 71.0619 111.767C71.0267 110.852 71.0619 109.902 71.0971 108.986C71.105 108.719 71.1648 108.456 71.2731 108.212C71.2971 108.13 71.3374 108.054 71.3915 107.988C71.4456 107.922 71.5125 107.868 71.5881 107.828C71.6637 107.789 71.7464 107.765 71.8314 107.759C71.9164 107.752 72.0019 107.762 72.0827 107.79C72.4347 107.86 72.7867 108.001 73.1387 108.071C73.4346 108.163 73.7475 108.187 74.0539 108.142C74.196 108.09 74.324 108.005 74.4279 107.895C74.5317 107.785 74.6086 107.653 74.6523 107.508C74.6768 107.349 74.6641 107.187 74.6152 107.035C74.5663 106.882 74.4826 106.743 74.3707 106.628C74.25 106.499 74.0853 106.421 73.9093 106.407C73.7332 106.394 73.5587 106.448 73.4203 106.558C73.2167 106.703 73.028 106.868 72.8571 107.05C72.6942 107.225 72.4778 107.34 72.2421 107.379C72.0063 107.417 71.7645 107.376 71.5547 107.262C71.0971 107.05 71.0619 106.663 71.0619 106.241C71.0619 104.586 71.2731 104.375 72.9627 104.375H73.2795V104.27Z" fill="#A1A1A1"/>
<path d="M112.704 115.639C112.972 115.278 113.279 114.948 113.619 114.653C113.873 114.538 114.149 114.478 114.428 114.477C114.534 114.477 114.64 114.513 114.745 114.513C114.992 114.442 115.414 114.266 115.484 114.337C115.718 114.652 115.886 115.011 115.977 115.393C116.044 115.705 116.138 116.012 116.259 116.308L116.364 115.991C116.364 115.956 116.364 115.85 116.4 115.85C116.611 115.709 116.892 115.393 116.963 115.463C117.42 115.78 118.124 115.181 118.441 115.85C118.582 116.132 118.406 116.378 118.124 116.484C117.526 116.66 117.35 117.082 117.385 117.645C117.422 117.874 117.385 118.108 117.28 118.314C117.216 118.424 117.13 118.518 117.027 118.591C116.923 118.664 116.805 118.714 116.681 118.737C116.54 118.737 116.329 118.42 116.259 118.209C116.223 117.952 116.223 117.691 116.259 117.434C115.801 117.575 115.344 117.681 114.921 117.857C114.288 118.103 113.654 117.857 113.161 117.153C113.056 116.977 112.95 116.801 112.915 116.73C112.668 117.082 112.457 117.61 112.105 117.857C111.753 118.103 111.155 118.103 110.592 118.244C110.592 118.314 110.521 118.525 110.486 118.772C110.416 119.089 110.169 119.3 109.888 119.194C109.778 119.139 109.683 119.058 109.611 118.959C109.539 118.86 109.491 118.745 109.472 118.624C109.543 117.462 109.648 116.301 109.754 115.139C109.789 114.752 110.035 114.611 110.423 114.646C110.715 114.676 111.009 114.687 111.303 114.682C111.602 114.696 111.891 114.794 112.138 114.963C112.385 115.132 112.581 115.366 112.704 115.639ZM115.132 116.273C114.851 115.956 114.64 115.745 114.428 115.498C114.252 115.674 113.971 115.815 113.9 116.026C113.795 116.378 114.217 116.871 114.499 116.801C114.744 116.67 114.96 116.491 115.132 116.273ZM111.824 116.378C111.577 116.097 111.436 115.85 111.225 115.745C111.014 115.639 110.592 116.132 110.662 116.413C110.782 116.666 110.949 116.893 111.155 117.082C111.366 116.864 111.584 116.66 111.824 116.378Z" fill="#A1A1A1"/>
<path d="M119.779 116.061C119.953 115.816 120.167 115.602 120.412 115.428C120.65 115.344 120.899 115.296 121.151 115.287C121.216 115.54 121.228 115.803 121.187 116.061C121.071 116.307 120.917 116.533 120.729 116.73L121.609 117.504C121.926 117.751 122.031 118.068 121.75 118.384C121.468 118.701 121.187 118.525 120.905 118.314C120.623 118.103 120.377 117.892 120.06 117.61C120.094 117.784 120.118 117.961 120.131 118.138C120.095 118.455 119.955 118.772 119.603 118.736C119.48 118.707 119.366 118.651 119.269 118.572C119.171 118.493 119.093 118.392 119.039 118.279C118.828 117.188 118.652 116.061 118.476 114.97C118.441 114.618 118.406 114.231 118.899 114.16C119.391 114.09 119.497 114.442 119.567 114.794C119.638 115.146 119.68 115.533 119.779 116.061Z" fill="#A1A1A1"/>
<path d="M76.4826 101.559C76.2714 101.559 76.201 101.524 76.0954 101.524C75.145 101.489 75.1802 101.489 75.0746 102.404C75.0746 102.58 74.8634 102.721 74.7578 102.861C74.617 102.721 74.4058 102.545 74.4058 102.404C74.3706 101.594 74.3706 100.785 74.4058 99.9751C74.4234 99.8883 74.4662 99.8087 74.5288 99.7461C74.5914 99.6835 74.671 99.6407 74.7578 99.6231C74.8282 99.5879 75.0394 99.7991 75.1098 99.9047C75.2154 100.186 75.145 100.714 75.2858 100.749C75.7049 100.816 76.1309 100.828 76.553 100.785C76.5354 100.527 76.5354 100.268 76.553 100.01C76.5882 99.8343 76.7642 99.7287 76.905 99.5879C77.0106 99.7287 77.257 99.8695 77.257 100.01C77.2922 100.82 77.2922 101.629 77.257 102.439C77.257 102.58 77.0458 102.721 76.905 102.861C76.7994 102.721 76.5882 102.58 76.553 102.404C76.4743 102.13 76.4503 101.843 76.4826 101.559Z" fill="#A1A1A1"/>
<path d="M66.9433 102.51C66.8025 102.65 66.6969 102.862 66.6265 102.862C66.4857 102.862 66.2393 102.756 66.2041 102.65C66.0633 102.228 65.8169 102.193 65.4297 102.228C65.1129 102.263 64.7609 102.193 64.6553 102.65C64.6201 102.756 64.3385 102.826 64.1977 102.826C64.1273 102.826 63.9865 102.545 64.0217 102.404C64.3033 101.524 64.6201 100.679 64.9721 99.8344C65.1129 99.4824 65.6409 99.3768 65.7817 99.7288C66.2393 100.609 66.5561 101.559 66.9433 102.51ZM65.5353 100.538H65.3945C65.2889 100.855 65.2185 101.137 65.1129 101.489H65.8521C65.7202 101.181 65.6142 100.863 65.5353 100.538Z" fill="#A1A1A1"/>
<path d="M74.2299 102.51C74.1244 102.65 74.0539 102.826 73.9483 102.862C73.8739 102.87 73.7985 102.858 73.7303 102.827C73.662 102.796 73.6036 102.747 73.5611 102.686C73.5448 102.602 73.511 102.523 73.462 102.454C73.413 102.384 73.3498 102.326 73.2767 102.283C73.2035 102.24 73.122 102.213 73.0376 102.203C72.9532 102.194 72.8677 102.202 72.7867 102.228C72.4347 102.263 72.0827 102.193 71.9771 102.686C71.9301 102.75 71.8642 102.798 71.7885 102.824C71.7127 102.849 71.6311 102.85 71.5547 102.826C71.4847 102.782 71.4281 102.719 71.391 102.644C71.3538 102.57 71.3374 102.487 71.3435 102.404C71.6251 101.524 71.9419 100.679 72.2939 99.8344C72.4699 99.4472 72.9979 99.3768 73.1387 99.7288C73.5259 100.644 73.8779 101.559 74.2299 102.51ZM73.1387 101.524C73.0331 101.137 72.9275 100.855 72.8571 100.538H72.7163C72.6107 100.855 72.5051 101.172 72.3995 101.524H73.1387Z" fill="#A1A1A1"/>
<path d="M62.3675 102.509C62.2619 102.65 62.1563 102.826 62.0507 102.861C61.9707 102.856 61.8933 102.831 61.8256 102.788C61.758 102.745 61.7022 102.685 61.6635 102.615C61.5863 102.483 61.4758 102.373 61.343 102.297C61.2102 102.221 61.0598 102.181 60.9067 102.181C60.7536 102.181 60.6032 102.221 60.4704 102.297C60.3376 102.373 60.2271 102.483 60.1499 102.615C60.0795 102.756 59.8683 102.791 59.6923 102.861C59.6219 102.685 59.4811 102.474 59.5163 102.333C59.751 101.559 60.0326 100.785 60.3611 100.01C60.4096 99.8966 60.4872 99.7978 60.5861 99.7236C60.685 99.6495 60.8016 99.6027 60.9243 99.5879C61.1003 99.5879 61.3467 99.8343 61.4523 100.045C61.7691 100.855 62.0507 101.665 62.3675 102.509ZM60.5371 101.524H61.3115C61.1707 101.172 61.0651 100.855 60.9595 100.538H60.8539C60.7483 100.855 60.6427 101.137 60.5441 101.524H60.5371Z" fill="#A1A1A1"/>
<path d="M62.8247 101.524V100.89C62.8247 100.538 62.8599 100.186 62.3319 100.257C62.2263 100.257 62.1207 100.081 62.0151 99.975C62.1207 99.8694 62.2263 99.6582 62.3671 99.6582C62.8946 99.623 63.4237 99.623 63.9511 99.6582C64.0919 99.6582 64.1975 99.8342 64.3031 99.9398C64.1975 100.045 64.0919 100.257 63.9863 100.257C63.5639 100.257 63.5639 100.503 63.5639 100.82V102.08C63.5639 102.397 63.6343 102.854 63.1767 102.854C62.7191 102.854 62.8599 102.362 62.8247 102.045V101.517V101.524Z" fill="#A1A1A1"/>
<path d="M69.2315 101.207C69.2315 100.82 69.1963 100.433 69.2315 100.045C69.2667 99.8695 69.4779 99.7287 69.5835 99.5879C69.6891 99.7287 69.8651 99.8695 69.9003 100.045C69.9355 100.549 69.9355 101.055 69.9003 101.559C69.9003 101.981 70.0059 102.228 70.4987 102.193C70.7099 102.157 71.0267 102.122 71.0619 102.474C71.0971 102.826 70.7451 102.826 70.4987 102.861C69.2315 102.932 69.2315 102.897 69.2315 101.629V101.207Z" fill="#A1A1A1"/>
<path d="M67.788 102.193C68.0576 102.175 68.328 102.175 68.5976 102.193C68.7032 102.228 68.9144 102.369 68.9144 102.439C68.8792 102.58 68.7384 102.791 68.6328 102.791C68.2111 102.826 67.7873 102.826 67.3656 102.791C67.26 102.791 67.084 102.545 67.084 102.369C67.0488 101.594 67.0488 100.785 67.084 100.01C67.084 99.8695 67.2952 99.7287 67.4008 99.5527C67.5064 99.6935 67.7528 99.8695 67.7528 100.01C67.8232 100.75 67.788 101.454 67.788 102.193Z" fill="#A1A1A1"/>
</svg>
