<svg width="21" height="20" viewBox="0 0 21 20" fill="none" xmlns="http://www.w3.org/2000/svg">
<g clip-path="url(#clip0_192_89)">
<path d="M18.8333 10.209V18.5423C18.8333 19.3423 18.175 20.0007 17.375 20.0007H11.125V10.834H9.87496V20.0007H3.62496C2.82496 20.0007 2.16663 19.3423 2.16663 18.5423V10.209C2.16663 9.86732 2.44996 9.58398 2.79163 9.58398H18.2083C18.55 9.58398 18.8333 9.86732 18.8333 10.209Z" fill="#D32F2F"/>
<path d="M20.5 7.29232V9.37565C20.5 10.1757 19.8417 10.834 19.0417 10.834H1.95833C1.15833 10.834 0.5 10.1757 0.5 9.37565V7.29232C0.5 6.49232 1.15833 5.83398 1.95833 5.83398H19.0417C19.8417 5.83398 20.5 6.49232 20.5 7.29232Z" fill="#F44336"/>
<path d="M10.5 6.70289C10.3184 6.70289 10.145 6.62372 10.0275 6.48622C9.90835 6.34872 9.85585 6.16622 9.88169 5.98622C10.19 3.90289 11.8175 -0.0371094 15.7742 -0.0371094C18.0325 -0.0371094 18.8334 1.18289 18.8334 2.22789C18.8334 4.08539 16.2475 6.70289 10.5 6.70289ZM15.7742 1.21289C12.7892 1.21289 11.6559 4.05039 11.28 5.43456C13.635 5.32456 15.12 4.72872 15.975 4.22122C17.1609 3.51706 17.5834 2.72956 17.5834 2.22706C17.5834 1.47872 16.6492 1.21289 15.7742 1.21289Z" fill="#FFC107"/>
<path d="M10.5008 6.70289C4.75248 6.70289 2.16748 4.08539 2.16748 2.22789C2.16748 1.18289 2.96915 -0.0371094 5.22748 -0.0371094C9.18331 -0.0371094 10.8108 3.90289 11.1191 5.98622C11.145 6.16622 11.0925 6.34872 10.9733 6.48622C10.8558 6.62372 10.6825 6.70289 10.5008 6.70289ZM5.22748 1.21289C4.35248 1.21289 3.41748 1.47956 3.41748 2.22789C3.41748 3.29206 5.27831 5.23039 9.72081 5.43539C9.34498 4.05039 8.21165 1.21289 5.22748 1.21289Z" fill="#FFC107"/>
<path d="M11.125 10.834V20.0007H9.875V10.834H11.125Z" fill="#FF8F00"/>
<path d="M11.125 6.325V10.8333H9.875V6.325C9.875 6.13417 9.94167 5.95917 10.05 5.83333C10.1667 5.70833 10.325 5.625 10.5 5.625C10.675 5.625 10.8333 5.70833 10.95 5.83333C11.0583 5.95833 11.125 6.13333 11.125 6.325Z" fill="#FFC107"/>
<path d="M9.87496 10.834H2.16663V18.5423C2.16663 19.3423 2.82496 20.0007 3.62496 20.0007H9.87496V10.834Z" fill="#B82929"/>
<path d="M5.47167 5.83398H1.95833C1.15833 5.83398 0.5 6.49232 0.5 7.29232V9.37565C0.5 10.1757 1.15833 10.834 1.95833 10.834H2.16667H9.875V6.69315C8.08167 6.63148 6.62 6.30648 5.47167 5.83398Z" fill="#D43A2F"/>
<path d="M5.22748 1.21289C4.35248 1.21289 3.41748 1.47956 3.41748 2.22789C3.41748 3.29206 5.27831 5.23039 9.72081 5.43539C9.34498 4.05039 8.21165 1.21289 5.22748 1.21289Z" fill="#DEDEDE"/>
<path d="M9.71998 5.43456C5.27831 5.23039 3.41665 3.29206 3.41665 2.22706C3.41665 1.47872 4.35165 1.21206 5.22665 1.21206C8.21165 1.21289 9.34498 4.05039 9.71998 5.43456ZM5.22748 -0.0371094C2.96915 -0.0371094 2.16748 1.18289 2.16748 2.22789C2.16748 3.41289 3.21915 4.90622 5.47165 5.83289C6.62081 6.30539 8.08165 6.63039 9.87498 6.69206V6.32456C9.87498 6.13372 9.94165 5.95872 10.05 5.83289C10.1666 5.70789 10.325 5.62456 10.5 5.62456V3.86206C9.67998 1.95956 8.04331 -0.0371094 5.22748 -0.0371094Z" fill="#DEA806"/>
<path d="M10.5 10.834H9.875V20.0007H10.5V10.834Z" fill="#DE7C00"/>
<path d="M10.5 5.625C10.325 5.625 10.1667 5.70833 10.05 5.83333C9.94167 5.95833 9.875 6.13333 9.875 6.325V6.6925V10.8333H10.5V5.625Z" fill="#DEA806"/>
</g>
<defs>
<clipPath id="clip0_192_89">
<rect width="20" height="20" fill="white" transform="translate(0.5)"/>
</clipPath>
</defs>
</svg>
