<svg width="40" height="40" viewBox="0 0 40 40" fill="none" xmlns="http://www.w3.org/2000/svg">
<rect width="40" height="40" rx="20" fill="white" fill-opacity="0.08"/>
<path d="M20 14.2988C17.9527 14.2988 16.287 15.9645 16.287 18.0118C16.287 20.0592 17.9527 21.7248 20 21.7248C22.0473 21.7248 23.713 20.0592 23.713 18.0118C23.713 15.9645 22.0474 14.2988 20 14.2988ZM20 20.1615C18.8147 20.1615 17.8503 19.1971 17.8503 18.0118C17.8503 16.8265 18.8147 15.8622 20 15.8622C21.1853 15.8622 22.1496 16.8265 22.1496 18.0118C22.1496 19.1971 21.1853 20.1615 20 20.1615Z" fill="#A1A1A1"/>
<path d="M20 10C15.582 10 11.9877 13.5943 11.9877 18.0123V18.2338C11.9877 20.4682 13.2687 23.0719 15.7952 25.9726C17.6268 28.0754 19.4328 29.5416 19.5087 29.603L20 30L20.4912 29.6031C20.5672 29.5417 22.3732 28.0754 24.2047 25.9726C26.7312 23.0719 28.0123 20.4682 28.0123 18.2338V18.0123C28.0123 13.5943 24.418 10 20 10ZM26.4489 18.2338C26.4489 22.0098 21.5836 26.5807 20 27.9683C18.4159 26.5803 13.551 22.0095 13.551 18.2338V18.0123C13.551 14.4564 16.444 11.5634 20 11.5634C23.5559 11.5634 26.4489 14.4564 26.4489 18.0123V18.2338Z" fill="#A1A1A1"/>
</svg>
