<svg width="40" height="40" viewBox="0 0 40 40" fill="none" xmlns="http://www.w3.org/2000/svg">
<rect width="40" height="40" rx="20" fill="url(#paint0_linear_60_3124)"/>
<g clip-path="url(#clip0_60_3124)">
<path d="M26.4392 18.9308C26.2792 18.9308 26.1183 18.87 25.9967 18.7467C24.3925 17.1367 22.2642 16.25 20 16.25C17.7358 16.25 15.6075 17.1367 14.0042 18.7467C13.7608 18.9925 13.365 18.9908 13.12 18.7483C12.8758 18.505 12.8742 18.1092 13.1183 17.8642C14.9575 16.0175 17.4017 15 20 15C22.5983 15 25.0425 16.0175 26.8817 17.865C27.1258 18.11 27.1242 18.5058 26.88 18.7492C26.7575 18.87 26.5983 18.9308 26.4392 18.9308Z" fill="#8F72F5"/>
<path d="M24.1975 21.1816C24.0375 21.1816 23.8767 21.1208 23.755 20.9975C22.7492 19.9875 21.415 19.4316 20 19.4316C18.585 19.4316 17.2508 19.9875 16.245 20.9975C16.0017 21.2433 15.6058 21.2416 15.3608 20.9991C15.1158 20.7558 15.1158 20.3591 15.3592 20.115C16.6008 18.8683 18.2492 18.1816 19.9992 18.1816C21.7492 18.1816 23.3975 18.8683 24.6392 20.115C24.8825 20.3591 24.8825 20.7558 24.6375 20.9991C24.5167 21.1208 24.3575 21.1816 24.1975 21.1816Z" fill="#8F72F5"/>
<path d="M20 24.9991C19 24.9991 18.1866 24.1833 18.1866 23.1808C18.1866 22.1783 19 21.3633 20 21.3633C21 21.3633 21.8133 22.1791 21.8133 23.1816C21.8133 24.1841 21 24.9991 20 24.9991ZM20 22.6133C19.6891 22.6133 19.4366 22.8683 19.4366 23.1816C19.4366 23.4949 19.6891 23.7491 20 23.7491C20.3108 23.7491 20.5633 23.4941 20.5633 23.1808C20.5633 22.8674 20.3108 22.6133 20 22.6133Z" fill="#8F72F5"/>
<path d="M20 30C14.4858 30 10 25.5142 10 20C10 14.4858 14.4858 10 20 10C25.5142 10 30 14.4858 30 20C30 25.5142 25.5142 30 20 30ZM20 11.25C15.175 11.25 11.25 15.175 11.25 20C11.25 24.825 15.175 28.75 20 28.75C24.825 28.75 28.75 24.825 28.75 20C28.75 15.175 24.825 11.25 20 11.25Z" fill="#8F72F5"/>
</g>
<defs>
<linearGradient id="paint0_linear_60_3124" x1="0" y1="0" x2="42.4199" y2="2.75623" gradientUnits="userSpaceOnUse">
<stop stop-color="#E8E0FF"/>
<stop offset="1" stop-color="#FFFDD3"/>
</linearGradient>
<clipPath id="clip0_60_3124">
<rect width="20" height="20" fill="white" transform="translate(10 10)"/>
</clipPath>
</defs>
</svg>
