<svg width="40" height="40" viewBox="0 0 40 40" fill="none" xmlns="http://www.w3.org/2000/svg">
<rect width="40" height="40" rx="20" fill="url(#paint0_linear_60_3175)"/>
<g clip-path="url(#clip0_60_3175)">
<path d="M24.6295 16.541C24.9074 16.541 25.1246 16.7739 25.1246 17.0508V19.7432C25.1245 23.6244 22.0824 26.7908 18.3336 26.791C14.5847 26.791 11.5417 23.6245 11.5416 19.7432V17.0508L11.5514 16.9492C11.5968 16.7193 11.7937 16.5411 12.0367 16.541H24.6295ZM12.5328 19.7432C12.533 23.0716 15.1397 25.7715 18.3336 25.7715C21.5274 25.7713 24.1343 23.0715 24.1344 19.7432V17.5605H12.5328V19.7432Z" fill="#8F72F5" stroke="#8F72F5" stroke-width="0.25"/>
<path d="M26.3666 18.207C27.9844 18.2071 29.2914 19.5765 29.2914 21.249C29.2912 22.9214 27.9843 24.29 26.3666 24.29H23.7338C23.4393 24.29 23.2085 24.0431 23.2084 23.749C23.2084 23.4548 23.4392 23.207 23.7338 23.207H26.3666C27.3951 23.207 28.2414 22.333 28.2416 21.249C28.2416 20.1649 27.3952 19.2901 26.3666 19.29H24.766C24.4716 19.2899 24.2417 19.043 24.2416 18.749C24.2416 18.4549 24.4715 18.2072 24.766 18.207H26.3666Z" fill="#8F72F5" stroke="#8F72F5" stroke-width="0.25"/>
<path d="M15.6572 10.792C15.8912 10.6499 16.2197 10.6897 16.3975 10.8945C16.4891 11.0003 16.5235 11.1323 16.499 11.2588C16.4746 11.3842 16.3942 11.4948 16.2744 11.5674C16.03 11.7148 15.9468 11.8744 15.96 12.0049L15.9727 12.0654C16.019 12.209 16.179 12.3672 16.4775 12.4873C17.126 12.7474 17.5615 13.1956 17.6191 13.7383C17.6734 14.2503 17.372 14.7212 16.8438 15.04V15.041C16.7494 15.0973 16.6409 15.124 16.5361 15.124C16.3772 15.124 16.2127 15.0627 16.1035 14.9375V14.9365C16.0118 14.8307 15.9774 14.6988 16.002 14.5723C16.0264 14.4468 16.1067 14.3362 16.2266 14.2637C16.471 14.1158 16.554 13.9562 16.54 13.8262C16.5234 13.6681 16.3634 13.4809 16.0225 13.3438C15.3739 13.0836 14.9385 12.6355 14.8809 12.0928C14.8266 11.5813 15.1282 11.1098 15.6572 10.791V10.792Z" fill="#8F72F5" stroke="#8F72F5" stroke-width="0.25"/>
<path d="M18.9896 10.792C19.2235 10.6498 19.552 10.6897 19.7299 10.8945C19.8216 11.0003 19.8559 11.1323 19.8314 11.2588C19.807 11.3842 19.7266 11.4948 19.6068 11.5674C19.3623 11.7153 19.2793 11.8748 19.2933 12.0049L19.306 12.0654C19.3525 12.2089 19.5126 12.3664 19.8109 12.4863C20.4594 12.7464 20.8949 13.1956 20.9525 13.7383C21.0065 14.2501 20.7052 14.7204 20.1771 15.0391L20.1781 15.04C20.0834 15.0974 19.9743 15.124 19.8695 15.124C19.7106 15.124 19.5461 15.0627 19.4369 14.9375V14.9365C19.3453 14.8309 19.311 14.6996 19.3353 14.5732C19.3597 14.4476 19.4399 14.3363 19.5599 14.2637L19.6439 14.207C19.7979 14.0943 19.866 13.9786 19.8744 13.876L19.8734 13.8262C19.8568 13.6682 19.6967 13.4818 19.3558 13.3447C18.7073 13.0846 18.2718 12.6355 18.2142 12.0928C18.1602 11.5809 18.4615 11.1097 18.9896 10.791V10.792Z" fill="#8F72F5" stroke="#8F72F5" stroke-width="0.25"/>
<path d="M25.4584 25.707C25.7465 25.707 25.9584 25.9627 25.9584 26.249V27.082C25.9584 28.2867 25.073 29.29 23.9584 29.29H12.7084C11.5938 29.29 10.7084 28.2867 10.7084 27.082V26.249C10.7084 25.9627 10.9203 25.707 11.2084 25.707H25.4584ZM11.7084 27.082C11.7084 27.7149 12.1692 28.207 12.7084 28.207H23.9584C24.4975 28.207 24.9584 27.7149 24.9584 27.082V26.79H11.7084V27.082Z" fill="#8F72F5" stroke="#8F72F5" stroke-width="0.25"/>
</g>
<defs>
<linearGradient id="paint0_linear_60_3175" x1="0" y1="0" x2="42.4199" y2="2.75623" gradientUnits="userSpaceOnUse">
<stop stop-color="#E8E0FF"/>
<stop offset="1" stop-color="#FFFDD3"/>
</linearGradient>
<clipPath id="clip0_60_3175">
<rect width="20" height="20" fill="white" transform="translate(10 10)"/>
</clipPath>
</defs>
</svg>
