<svg width="40" height="40" viewBox="0 0 40 40" fill="none" xmlns="http://www.w3.org/2000/svg">
<rect width="40" height="40" rx="20" fill="url(#paint0_linear_60_3109)"/>
<g clip-path="url(#clip0_60_3109)">
<path d="M20 29.7923C14.5834 29.7923 10.2084 25.4173 10.2084 20.0007C10.2084 14.584 14.5834 10.209 20 10.209C25.4167 10.209 29.7917 14.584 29.7917 20.0007C29.7917 25.4173 25.4167 29.7923 20 29.7923ZM20 11.834C15.5 11.834 11.8334 15.5007 11.8334 20.0007C11.8334 24.5007 15.5 28.1673 20 28.1673C24.5 28.1673 28.1667 24.5007 28.1667 20.0007C28.1667 15.5007 24.5 11.834 20 11.834Z" fill="#8F72F5"/>
<path d="M23.0417 16.6263C23.5834 17.0846 23.8334 17.793 23.8334 18.7513C23.8334 19.7096 23.5417 20.3763 23.0001 20.8346C22.4584 21.293 21.5834 21.5013 20.4584 21.5013H19.4167V24.0846C19.4167 24.543 19.0417 24.9596 18.5417 24.9596C18.0834 24.9596 17.6667 24.5846 17.6667 24.0846V16.7096C17.6667 16.2513 18.0417 15.918 18.4584 15.918H20.3751C21.6667 15.918 22.5417 16.168 23.0417 16.6263ZM21.7917 19.6263C22.0001 19.3763 22.0834 19.043 22.0834 18.6263C22.0834 18.2096 21.9584 17.8763 21.6667 17.668C21.4167 17.5013 21.0001 17.3763 20.4167 17.3763H19.4167V20.0013H20.5834C21.2084 20.0013 21.5834 19.8763 21.7917 19.6263Z" fill="#8F72F5"/>
</g>
<defs>
<linearGradient id="paint0_linear_60_3109" x1="0" y1="0" x2="42.4199" y2="2.75623" gradientUnits="userSpaceOnUse">
<stop stop-color="#E8E0FF"/>
<stop offset="1" stop-color="#FFFDD3"/>
</linearGradient>
<clipPath id="clip0_60_3109">
<rect width="20" height="20" fill="white" transform="translate(10 10)"/>
</clipPath>
</defs>
</svg>
