<svg width="40" height="40" viewBox="0 0 40 40" fill="none" xmlns="http://www.w3.org/2000/svg">
<rect width="40" height="40" rx="20" fill="url(#paint0_linear_60_3166)"/>
<path d="M21.3742 20L27.2149 14.1591C27.595 13.7792 27.595 13.1649 27.2149 12.7849C26.835 12.405 26.2207 12.405 25.8408 12.7849L19.9999 18.6258L14.1592 12.7849C13.7791 12.405 13.165 12.405 12.7851 12.7849C12.405 13.1649 12.405 13.7792 12.7851 14.1591L18.6258 20L12.7851 25.8408C12.405 26.2208 12.405 26.835 12.7851 27.215C12.9744 27.4045 13.2234 27.4997 13.4721 27.4997C13.7209 27.4997 13.9697 27.4045 14.1592 27.215L19.9999 21.3741L25.8408 27.215C26.0303 27.4045 26.2791 27.4997 26.5279 27.4997C26.7766 27.4997 27.0254 27.4045 27.2149 27.215C27.595 26.835 27.595 26.2208 27.2149 25.8408L21.3742 20Z" fill="#8F72F5"/>
<defs>
<linearGradient id="paint0_linear_60_3166" x1="0" y1="0" x2="42.4199" y2="2.75623" gradientUnits="userSpaceOnUse">
<stop stop-color="#E8E0FF"/>
<stop offset="1" stop-color="#FFFDD3"/>
</linearGradient>
</defs>
</svg>
