<svg width="40" height="40" viewBox="0 0 40 40" fill="none" xmlns="http://www.w3.org/2000/svg">
<rect width="40" height="40" rx="20" fill="url(#paint0_linear_60_3146)"/>
<g clip-path="url(#clip0_60_3146)">
<path d="M22.5 11.25C21.5663 11.25 20.6713 11.5962 19.9788 12.225C19.7238 12.4575 19.705 12.8525 19.9375 13.1075C20.17 13.3637 20.5663 13.3825 20.82 13.15C21.2813 12.7312 21.8775 12.5 22.5 12.5C23.8788 12.5 25 13.6212 25 15C25 16.195 24.1513 17.225 22.9825 17.4488C22.6438 17.5138 22.4213 17.8413 22.4863 18.18C22.5438 18.4788 22.805 18.6875 23.1 18.6875C23.1388 18.6875 23.1788 18.6838 23.2188 18.6762C24.9738 18.34 26.25 16.7937 26.25 15C26.25 12.9325 24.5675 11.25 22.5 11.25Z" fill="#8F72F5"/>
<path d="M29.995 23.0982C29.9925 23.0532 29.98 23.0119 29.9688 22.9694C29.9588 22.9332 29.9538 22.8957 29.9375 22.8619C29.9225 22.8282 29.8975 22.8007 29.8763 22.7707C29.85 22.7344 29.8263 22.6969 29.7938 22.6669C29.7875 22.6607 29.7838 22.6519 29.7763 22.6457C27.6213 20.8382 24.9063 19.9069 22.1125 20.0119C21.7688 20.0257 21.5 20.3157 21.5125 20.6607C21.525 21.0057 21.8325 21.2994 22.1613 21.2607C24.55 21.1719 26.8713 21.9432 28.75 23.4332V24.9994H26.875C26.53 24.9994 26.25 25.2794 26.25 25.6244C26.25 25.9694 26.53 26.2494 26.875 26.2494H28.75C29.4388 26.2494 30 25.6882 30 24.9994V23.1244C30 23.1144 29.995 23.1069 29.995 23.0982Z" fill="#8F72F5"/>
<path d="M17.5 13.75C15.4325 13.75 13.75 15.4325 13.75 17.5C13.75 19.5675 15.4325 21.25 17.5 21.25C19.5675 21.25 21.25 19.5675 21.25 17.5C21.25 15.4325 19.5675 13.75 17.5 13.75ZM17.5 20C16.1212 20 15 18.8787 15 17.5C15 16.1212 16.1212 15 17.5 15C18.8787 15 20 16.1212 20 17.5C20 18.8787 18.8787 20 17.5 20Z" fill="#8F72F5"/>
<path d="M24.995 25.5989C24.9925 25.5539 24.98 25.5127 24.9688 25.4702C24.9588 25.4339 24.9537 25.3964 24.9375 25.3627C24.9225 25.3289 24.8975 25.3014 24.875 25.2702C24.8487 25.2339 24.8262 25.1977 24.7925 25.1677C24.785 25.1614 24.7825 25.1527 24.775 25.1464C20.5588 21.6127 14.4375 21.6127 10.2212 25.1464C10.2138 25.1527 10.2113 25.1614 10.2037 25.1677C10.1713 25.1977 10.1475 25.2339 10.1213 25.2714C10.1 25.3027 10.075 25.3302 10.06 25.3627C10.0437 25.3964 10.0388 25.4339 10.0288 25.4702C10.0175 25.5127 10.005 25.5539 10.0025 25.5989C10.005 25.6077 10 25.6152 10 25.6252V27.5002C10 28.1889 10.5612 28.7502 11.25 28.7502H23.75C24.4388 28.7502 25 28.1889 25 27.5002V25.6252C25 25.6152 24.995 25.6077 24.995 25.5989ZM23.75 27.5002H11.25V25.9339C14.9175 23.0277 20.0825 23.0277 23.75 25.9339V27.5002Z" fill="#8F72F5"/>
</g>
<defs>
<linearGradient id="paint0_linear_60_3146" x1="0" y1="0" x2="42.4199" y2="2.75623" gradientUnits="userSpaceOnUse">
<stop stop-color="#E8E0FF"/>
<stop offset="1" stop-color="#FFFDD3"/>
</linearGradient>
<clipPath id="clip0_60_3146">
<rect width="20" height="20" fill="white" transform="translate(10 10)"/>
</clipPath>
</defs>
</svg>
