<svg width="40" height="40" viewBox="0 0 40 40" fill="none" xmlns="http://www.w3.org/2000/svg">
<rect width="40" height="40" rx="20" fill="url(#paint0_linear_60_3136)"/>
<g clip-path="url(#clip0_60_3136)">
<path d="M18.8744 14.459C19.2416 14.4592 19.5394 14.7577 19.5394 15.125V20.0449H24.4594C24.8267 20.0449 25.1253 20.3426 25.1254 20.71C25.1254 21.0774 24.8268 21.376 24.4594 21.376H18.8744C18.507 21.376 18.2084 21.0774 18.2084 20.71V15.125L18.222 14.9902C18.2842 14.6871 18.553 14.459 18.8744 14.459Z" fill="#8F72F5" stroke="#8F72F5" stroke-width="0.25"/>
<path d="M20.0004 10.709C25.124 10.7092 29.2914 14.8773 29.2914 20.001C29.2912 25.1245 25.1238 29.2918 20.0004 29.292C14.8767 29.292 10.7086 25.1246 10.7084 20.001C10.7084 14.8772 14.8766 10.709 20.0004 10.709ZM20.0004 12.1045C15.6465 12.1045 12.1039 15.6471 12.1039 20.001C12.1041 24.3547 15.6466 27.8965 20.0004 27.8965C24.354 27.8963 27.8957 24.3546 27.8959 20.001C27.8959 15.6472 24.3541 12.1047 20.0004 12.1045Z" fill="#8F72F5" stroke="#8F72F5" stroke-width="0.25"/>
</g>
<defs>
<linearGradient id="paint0_linear_60_3136" x1="0" y1="0" x2="42.4199" y2="2.75623" gradientUnits="userSpaceOnUse">
<stop stop-color="#E8E0FF"/>
<stop offset="1" stop-color="#FFFDD3"/>
</linearGradient>
<clipPath id="clip0_60_3136">
<rect width="20" height="20" fill="white" transform="translate(10 10)"/>
</clipPath>
</defs>
</svg>
